%TF.GenerationSoftware,KiCad,Pcbnew,(5.1.8-0-10_14)*%
%TF.CreationDate,2021-08-19T17:30:32+08:00*%
%TF.ProjectId,microbyte-rp2040,6d696372-6f62-4797-9465-2d7270323034,rev?*%
%TF.SameCoordinates,Original*%
%TF.FileFunction,Legend,Top*%
%TF.FilePolarity,Positive*%
%FSLAX46Y46*%
G04 Gerber Fmt 4.6, Leading zero omitted, Abs format (unit mm)*
G04 Created by KiCad (PCBNEW (5.1.8-0-10_14)) date 2021-08-19 17:30:32*
%MOMM*%
%LPD*%
G01*
G04 APERTURE LIST*
%ADD10C,0.120000*%
%ADD11C,0.100000*%
%ADD12C,0.200000*%
G04 APERTURE END LIST*
D10*
X171481428Y-98632857D02*
X171938571Y-98632857D01*
X172926666Y-98936666D02*
X173360000Y-98936666D01*
X173126666Y-99203333D01*
X173226666Y-99203333D01*
X173293333Y-99236666D01*
X173326666Y-99270000D01*
X173360000Y-99336666D01*
X173360000Y-99503333D01*
X173326666Y-99570000D01*
X173293333Y-99603333D01*
X173226666Y-99636666D01*
X173026666Y-99636666D01*
X172960000Y-99603333D01*
X172926666Y-99570000D01*
X173560000Y-98936666D02*
X173793333Y-99636666D01*
X174026666Y-98936666D01*
X168001428Y-98632857D02*
X168458571Y-98632857D01*
X168230000Y-98861428D02*
X168230000Y-98404285D01*
X123606666Y-99446666D02*
X123273333Y-99680000D01*
X123606666Y-99846666D02*
X122906666Y-99846666D01*
X122906666Y-99580000D01*
X122940000Y-99513333D01*
X122973333Y-99480000D01*
X123040000Y-99446666D01*
X123140000Y-99446666D01*
X123206666Y-99480000D01*
X123240000Y-99513333D01*
X123273333Y-99580000D01*
X123273333Y-99846666D01*
X123240000Y-99146666D02*
X123240000Y-98913333D01*
X123606666Y-98813333D02*
X123606666Y-99146666D01*
X122906666Y-99146666D01*
X122906666Y-98813333D01*
X123573333Y-98546666D02*
X123606666Y-98446666D01*
X123606666Y-98280000D01*
X123573333Y-98213333D01*
X123540000Y-98180000D01*
X123473333Y-98146666D01*
X123406666Y-98146666D01*
X123340000Y-98180000D01*
X123306666Y-98213333D01*
X123273333Y-98280000D01*
X123240000Y-98413333D01*
X123206666Y-98480000D01*
X123173333Y-98513333D01*
X123106666Y-98546666D01*
X123040000Y-98546666D01*
X122973333Y-98513333D01*
X122940000Y-98480000D01*
X122906666Y-98413333D01*
X122906666Y-98246666D01*
X122940000Y-98146666D01*
X123240000Y-97846666D02*
X123240000Y-97613333D01*
X123606666Y-97513333D02*
X123606666Y-97846666D01*
X122906666Y-97846666D01*
X122906666Y-97513333D01*
X122906666Y-97313333D02*
X122906666Y-96913333D01*
X123606666Y-97113333D02*
X122906666Y-97113333D01*
X123240000Y-90420000D02*
X123273333Y-90320000D01*
X123306666Y-90286666D01*
X123373333Y-90253333D01*
X123473333Y-90253333D01*
X123540000Y-90286666D01*
X123573333Y-90320000D01*
X123606666Y-90386666D01*
X123606666Y-90653333D01*
X122906666Y-90653333D01*
X122906666Y-90420000D01*
X122940000Y-90353333D01*
X122973333Y-90320000D01*
X123040000Y-90286666D01*
X123106666Y-90286666D01*
X123173333Y-90320000D01*
X123206666Y-90353333D01*
X123240000Y-90420000D01*
X123240000Y-90653333D01*
X122906666Y-89820000D02*
X122906666Y-89686666D01*
X122940000Y-89620000D01*
X123006666Y-89553333D01*
X123140000Y-89520000D01*
X123373333Y-89520000D01*
X123506666Y-89553333D01*
X123573333Y-89620000D01*
X123606666Y-89686666D01*
X123606666Y-89820000D01*
X123573333Y-89886666D01*
X123506666Y-89953333D01*
X123373333Y-89986666D01*
X123140000Y-89986666D01*
X123006666Y-89953333D01*
X122940000Y-89886666D01*
X122906666Y-89820000D01*
X122906666Y-89086666D02*
X122906666Y-88953333D01*
X122940000Y-88886666D01*
X123006666Y-88820000D01*
X123140000Y-88786666D01*
X123373333Y-88786666D01*
X123506666Y-88820000D01*
X123573333Y-88886666D01*
X123606666Y-88953333D01*
X123606666Y-89086666D01*
X123573333Y-89153333D01*
X123506666Y-89220000D01*
X123373333Y-89253333D01*
X123140000Y-89253333D01*
X123006666Y-89220000D01*
X122940000Y-89153333D01*
X122906666Y-89086666D01*
X122906666Y-88586666D02*
X122906666Y-88186666D01*
X123606666Y-88386666D02*
X122906666Y-88386666D01*
%TO.C,SW2*%
X122340000Y-97120000D02*
X122340000Y-99620000D01*
X120590000Y-95620000D02*
X118590000Y-95620000D01*
X116840000Y-97120000D02*
X116840000Y-99620000D01*
X120590000Y-101120000D02*
X118590000Y-101120000D01*
X121890000Y-96670000D02*
X122340000Y-97120000D01*
X121890000Y-100070000D02*
X122340000Y-99620000D01*
X117290000Y-100070000D02*
X116840000Y-99620000D01*
X117290000Y-96670000D02*
X116840000Y-97120000D01*
%TO.C,SW1*%
X122340000Y-88150000D02*
X122340000Y-90650000D01*
X120590000Y-86650000D02*
X118590000Y-86650000D01*
X116840000Y-88150000D02*
X116840000Y-90650000D01*
X120590000Y-92150000D02*
X118590000Y-92150000D01*
X121890000Y-87700000D02*
X122340000Y-88150000D01*
X121890000Y-91100000D02*
X122340000Y-90650000D01*
X117290000Y-91100000D02*
X116840000Y-90650000D01*
X117290000Y-87700000D02*
X116840000Y-88150000D01*
%TO.C,JP2*%
X145680000Y-95390000D02*
X144280000Y-95390000D01*
X143580000Y-94690000D02*
X143580000Y-94090000D01*
X144280000Y-93390000D02*
X145680000Y-93390000D01*
X146380000Y-94090000D02*
X146380000Y-94690000D01*
X146380000Y-94690000D02*
G75*
G02*
X145680000Y-95390000I-700000J0D01*
G01*
X145680000Y-93390000D02*
G75*
G02*
X146380000Y-94090000I0J-700000D01*
G01*
X143580000Y-94090000D02*
G75*
G02*
X144280000Y-93390000I700000J0D01*
G01*
X144280000Y-95390000D02*
G75*
G02*
X143580000Y-94690000I0J700000D01*
G01*
%TO.C,JP1*%
X144300000Y-96340000D02*
X145700000Y-96340000D01*
X146400000Y-97040000D02*
X146400000Y-97640000D01*
X145700000Y-98340000D02*
X144300000Y-98340000D01*
X143600000Y-97640000D02*
X143600000Y-97040000D01*
X143600000Y-97040000D02*
G75*
G02*
X144300000Y-96340000I700000J0D01*
G01*
X144300000Y-98340000D02*
G75*
G02*
X143600000Y-97640000I0J700000D01*
G01*
X146400000Y-97640000D02*
G75*
G02*
X145700000Y-98340000I-700000J0D01*
G01*
X145700000Y-96340000D02*
G75*
G02*
X146400000Y-97040000I0J-700000D01*
G01*
%TO.C,D1*%
X147140000Y-105580000D02*
X147140000Y-107580000D01*
X147140000Y-107580000D02*
X151040000Y-107580000D01*
X147140000Y-105580000D02*
X151040000Y-105580000D01*
%TO.C,C21*%
X153512164Y-99730000D02*
X153727836Y-99730000D01*
X153512164Y-100450000D02*
X153727836Y-100450000D01*
%TO.C,C20*%
X153512164Y-98700000D02*
X153727836Y-98700000D01*
X153512164Y-99420000D02*
X153727836Y-99420000D01*
%TO.C,C12*%
X156020000Y-99562164D02*
X156020000Y-99777836D01*
X155300000Y-99562164D02*
X155300000Y-99777836D01*
%TO.C,C11*%
X157150000Y-99562164D02*
X157150000Y-99777836D01*
X156430000Y-99562164D02*
X156430000Y-99777836D01*
%TO.C,U4*%
X156720000Y-97450000D02*
X156070000Y-97450000D01*
X156070000Y-97450000D02*
X156070000Y-96800000D01*
X162640000Y-90230000D02*
X163290000Y-90230000D01*
X163290000Y-90230000D02*
X163290000Y-90880000D01*
X156720000Y-90230000D02*
X156070000Y-90230000D01*
X156070000Y-90230000D02*
X156070000Y-90880000D01*
X162640000Y-97450000D02*
X163290000Y-97450000D01*
%TO.C,Y1*%
X167270000Y-89660000D02*
X167270000Y-85660000D01*
X163970000Y-89660000D02*
X167270000Y-89660000D01*
%TO.C,U3*%
X134565000Y-85935000D02*
X132890000Y-85935000D01*
X134565000Y-85675000D02*
X134565000Y-85935000D01*
X137290000Y-85675000D02*
X134565000Y-85675000D01*
X140015000Y-85675000D02*
X140015000Y-85935000D01*
X137290000Y-85675000D02*
X140015000Y-85675000D01*
X134565000Y-91125000D02*
X134565000Y-90865000D01*
X137290000Y-91125000D02*
X134565000Y-91125000D01*
X140015000Y-91125000D02*
X140015000Y-90865000D01*
X137290000Y-91125000D02*
X140015000Y-91125000D01*
%TO.C,U1*%
X145420000Y-102260000D02*
X145420000Y-104060000D01*
X145420000Y-102260000D02*
X145420000Y-101460000D01*
X148540000Y-102260000D02*
X148540000Y-103060000D01*
X148540000Y-102260000D02*
X148540000Y-101460000D01*
%TO.C,R13*%
X161913641Y-86510000D02*
X161606359Y-86510000D01*
X161913641Y-87270000D02*
X161606359Y-87270000D01*
%TO.C,R12*%
X158270000Y-99536359D02*
X158270000Y-99843641D01*
X157510000Y-99536359D02*
X157510000Y-99843641D01*
%TO.C,R11*%
X159370000Y-99536359D02*
X159370000Y-99843641D01*
X158610000Y-99536359D02*
X158610000Y-99843641D01*
%TO.C,R10*%
X131723641Y-85640000D02*
X131416359Y-85640000D01*
X131723641Y-86400000D02*
X131416359Y-86400000D01*
%TO.C,R9*%
X131723641Y-86720000D02*
X131416359Y-86720000D01*
X131723641Y-87480000D02*
X131416359Y-87480000D01*
%TO.C,R8*%
X164440000Y-102486359D02*
X164440000Y-102793641D01*
X165200000Y-102486359D02*
X165200000Y-102793641D01*
%TO.C,R7*%
X153380000Y-102753641D02*
X153380000Y-102446359D01*
X152620000Y-102753641D02*
X152620000Y-102446359D01*
%TO.C,R6*%
X177320000Y-100633641D02*
X177320000Y-100326359D01*
X176560000Y-100633641D02*
X176560000Y-100326359D01*
%TO.C,R2*%
X145457500Y-106362742D02*
X145457500Y-106837258D01*
X146502500Y-106362742D02*
X146502500Y-106837258D01*
%TO.C,R1*%
X152187500Y-106342742D02*
X152187500Y-106817258D01*
X153232500Y-106342742D02*
X153232500Y-106817258D01*
%TO.C,Q1*%
X149030000Y-103040000D02*
X149030000Y-101580000D01*
X152190000Y-103040000D02*
X152190000Y-100880000D01*
X152190000Y-103040000D02*
X151260000Y-103040000D01*
X149030000Y-103040000D02*
X149960000Y-103040000D01*
%TO.C,L1*%
X150917221Y-99280000D02*
X151242779Y-99280000D01*
X150917221Y-98260000D02*
X151242779Y-98260000D01*
%TO.C,J4*%
X123210000Y-84960000D02*
X123210000Y-83630000D01*
X124540000Y-84960000D02*
X123210000Y-84960000D01*
X123210000Y-82360000D02*
X123210000Y-79760000D01*
X125810000Y-82360000D02*
X123210000Y-82360000D01*
X125810000Y-84960000D02*
X125810000Y-82360000D01*
X123210000Y-79760000D02*
X174130000Y-79760000D01*
X125810000Y-84960000D02*
X174130000Y-84960000D01*
X174130000Y-84960000D02*
X174130000Y-79760000D01*
%TO.C,J3*%
X154230000Y-110120000D02*
X163630000Y-110120000D01*
X163630000Y-104320000D02*
X163630000Y-106320000D01*
X163630000Y-108220000D02*
X163630000Y-110120000D01*
X154230000Y-104320000D02*
X154230000Y-106320000D01*
X154230000Y-108220000D02*
X154230000Y-110120000D01*
%TO.C,J1*%
X167660000Y-108180000D02*
X172340000Y-108180000D01*
X173040000Y-101960000D02*
X171760000Y-101960000D01*
X173040000Y-100360000D02*
X173040000Y-101960000D01*
X174060000Y-100360000D02*
X173040000Y-100360000D01*
X174060000Y-104610000D02*
X174060000Y-100360000D01*
X168240000Y-101960000D02*
X168240000Y-99070000D01*
X166960000Y-101960000D02*
X168240000Y-101960000D01*
X166960000Y-100360000D02*
X166960000Y-101960000D01*
X165940000Y-100360000D02*
X166960000Y-100360000D01*
X165940000Y-104610000D02*
X165940000Y-100360000D01*
%TO.C,D2*%
X176275000Y-102505000D02*
X176275000Y-100220000D01*
X174805000Y-102505000D02*
X176275000Y-102505000D01*
X174805000Y-100220000D02*
X174805000Y-102505000D01*
%TO.C,C23*%
X163680000Y-86577836D02*
X163680000Y-86362164D01*
X162960000Y-86577836D02*
X162960000Y-86362164D01*
%TO.C,C22*%
X162970000Y-88342164D02*
X162970000Y-88557836D01*
X163690000Y-88342164D02*
X163690000Y-88557836D01*
%TO.C,C19*%
X164882164Y-97460000D02*
X165097836Y-97460000D01*
X164882164Y-96740000D02*
X165097836Y-96740000D01*
%TO.C,C18*%
X153707836Y-96400000D02*
X153492164Y-96400000D01*
X153707836Y-97120000D02*
X153492164Y-97120000D01*
%TO.C,C17*%
X165722164Y-92870000D02*
X165937836Y-92870000D01*
X165722164Y-92150000D02*
X165937836Y-92150000D01*
%TO.C,C16*%
X161850000Y-99572164D02*
X161850000Y-99787836D01*
X162570000Y-99572164D02*
X162570000Y-99787836D01*
%TO.C,C15*%
X153707836Y-92000000D02*
X153492164Y-92000000D01*
X153707836Y-92720000D02*
X153492164Y-92720000D01*
%TO.C,C14*%
X159880000Y-88237836D02*
X159880000Y-88022164D01*
X159160000Y-88237836D02*
X159160000Y-88022164D01*
%TO.C,C13*%
X159740000Y-99572164D02*
X159740000Y-99787836D01*
X160460000Y-99572164D02*
X160460000Y-99787836D01*
%TO.C,C10*%
X158810000Y-88237836D02*
X158810000Y-88022164D01*
X158090000Y-88237836D02*
X158090000Y-88022164D01*
%TO.C,C9*%
X160790000Y-99572164D02*
X160790000Y-99787836D01*
X161510000Y-99572164D02*
X161510000Y-99787836D01*
%TO.C,C8*%
X143389420Y-87810000D02*
X143670580Y-87810000D01*
X143389420Y-86790000D02*
X143670580Y-86790000D01*
%TO.C,C7*%
X142852164Y-86360000D02*
X143067836Y-86360000D01*
X142852164Y-85640000D02*
X143067836Y-85640000D01*
%TO.C,C6*%
X131462164Y-91140000D02*
X131677836Y-91140000D01*
X131462164Y-90420000D02*
X131677836Y-90420000D01*
%TO.C,C3*%
X169849420Y-98220000D02*
X170130580Y-98220000D01*
X169849420Y-97200000D02*
X170130580Y-97200000D01*
%TO.C,C2*%
X143840000Y-101519420D02*
X143840000Y-101800580D01*
X144860000Y-101519420D02*
X144860000Y-101800580D01*
%TO.C,C1*%
X143840000Y-106439420D02*
X143840000Y-106720580D01*
X144860000Y-106439420D02*
X144860000Y-106720580D01*
D11*
%TO.C,J2*%
X125210000Y-94720000D02*
X125210000Y-101920000D01*
X125210000Y-104620000D02*
X125210000Y-107720000D01*
X125210000Y-107720000D02*
X139960000Y-107720000D01*
X139960000Y-107720000D02*
X139960000Y-104620000D01*
X139960000Y-101920000D02*
X139960000Y-94720000D01*
X138460000Y-93220000D02*
X135460000Y-93220000D01*
D12*
X134760000Y-91920000D02*
X134760000Y-91920000D01*
X134960000Y-91920000D02*
X134960000Y-91920000D01*
X134960000Y-91920000D02*
G75*
G02*
X134760000Y-91920000I-100000J0D01*
G01*
X134760000Y-91920000D02*
G75*
G02*
X134960000Y-91920000I100000J0D01*
G01*
D10*
%TO.C,D3*%
X128525000Y-85885000D02*
X128525000Y-88170000D01*
X129995000Y-85885000D02*
X128525000Y-85885000D01*
X129995000Y-88170000D02*
X129995000Y-85885000D01*
%TO.C,D4*%
X126395000Y-88170000D02*
X126395000Y-85885000D01*
X126395000Y-85885000D02*
X124925000Y-85885000D01*
X124925000Y-85885000D02*
X124925000Y-88170000D01*
%TO.C,R14*%
X123920000Y-86686359D02*
X123920000Y-86993641D01*
X124680000Y-86686359D02*
X124680000Y-86993641D01*
%TO.C,R15*%
X128280000Y-86686359D02*
X128280000Y-86993641D01*
X127520000Y-86686359D02*
X127520000Y-86993641D01*
%TD*%
M02*
