%TF.GenerationSoftware,KiCad,Pcbnew,(5.1.8-0-10_14)*%
%TF.CreationDate,2021-08-20T13:19:01+08:00*%
%TF.ProjectId,microbyte-rp2040,6d696372-6f62-4797-9465-2d7270323034,rev?*%
%TF.SameCoordinates,Original*%
%TF.FileFunction,Soldermask,Bot*%
%TF.FilePolarity,Negative*%
%FSLAX46Y46*%
G04 Gerber Fmt 4.6, Leading zero omitted, Abs format (unit mm)*
G04 Created by KiCad (PCBNEW (5.1.8-0-10_14)) date 2021-08-20 13:19:01*
%MOMM*%
%LPD*%
G01*
G04 APERTURE LIST*
%ADD10O,1.700000X1.700000*%
%ADD11R,1.700000X1.700000*%
%ADD12O,1.000000X2.100000*%
%ADD13C,0.650000*%
%ADD14O,1.000000X1.600000*%
G04 APERTURE END LIST*
D10*
%TO.C,J4*%
X172800000Y-81090000D03*
X172800000Y-83630000D03*
X170260000Y-81090000D03*
X170260000Y-83630000D03*
X167720000Y-81090000D03*
X167720000Y-83630000D03*
X165180000Y-81090000D03*
X165180000Y-83630000D03*
X162640000Y-81090000D03*
X162640000Y-83630000D03*
X160100000Y-81090000D03*
X160100000Y-83630000D03*
X157560000Y-81090000D03*
X157560000Y-83630000D03*
X155020000Y-81090000D03*
X155020000Y-83630000D03*
X152480000Y-81090000D03*
X152480000Y-83630000D03*
X149940000Y-81090000D03*
X149940000Y-83630000D03*
X147400000Y-81090000D03*
X147400000Y-83630000D03*
X144860000Y-81090000D03*
X144860000Y-83630000D03*
X142320000Y-81090000D03*
X142320000Y-83630000D03*
X139780000Y-81090000D03*
X139780000Y-83630000D03*
X137240000Y-81090000D03*
X137240000Y-83630000D03*
X134700000Y-81090000D03*
X134700000Y-83630000D03*
X132160000Y-81090000D03*
X132160000Y-83630000D03*
X129620000Y-81090000D03*
X129620000Y-83630000D03*
X127080000Y-81090000D03*
X127080000Y-83630000D03*
X124540000Y-81090000D03*
D11*
X124540000Y-83630000D03*
%TD*%
D12*
%TO.C,J3*%
X163250000Y-103090000D03*
X154610000Y-103090000D03*
D13*
X156040000Y-103620000D03*
D14*
X154610000Y-107270000D03*
D13*
X161820000Y-103620000D03*
D14*
X163250000Y-107270000D03*
%TD*%
M02*
