%TF.GenerationSoftware,KiCad,Pcbnew,(5.1.8-0-10_14)*%
%TF.CreationDate,2021-08-13T15:07:17+08:00*%
%TF.ProjectId,microbyte-rp2040,6d696372-6f62-4797-9465-2d7270323034,rev?*%
%TF.SameCoordinates,Original*%
%TF.FileFunction,Legend,Bot*%
%TF.FilePolarity,Positive*%
%FSLAX46Y46*%
G04 Gerber Fmt 4.6, Leading zero omitted, Abs format (unit mm)*
G04 Created by KiCad (PCBNEW (5.1.8-0-10_14)) date 2021-08-13 15:07:17*
%MOMM*%
%LPD*%
G01*
G04 APERTURE LIST*
%ADD10C,0.150000*%
%ADD11C,0.010000*%
G04 APERTURE END LIST*
D10*
X171330000Y-106867142D02*
X171330000Y-107510000D01*
X171372857Y-107638571D01*
X171458571Y-107724285D01*
X171587142Y-107767142D01*
X171672857Y-107767142D01*
X170472857Y-107767142D02*
X170901428Y-107767142D01*
X170901428Y-106867142D01*
X169658571Y-107681428D02*
X169701428Y-107724285D01*
X169830000Y-107767142D01*
X169915714Y-107767142D01*
X170044285Y-107724285D01*
X170130000Y-107638571D01*
X170172857Y-107552857D01*
X170215714Y-107381428D01*
X170215714Y-107252857D01*
X170172857Y-107081428D01*
X170130000Y-106995714D01*
X170044285Y-106910000D01*
X169915714Y-106867142D01*
X169830000Y-106867142D01*
X169701428Y-106910000D01*
X169658571Y-106952857D01*
X169015714Y-106867142D02*
X169015714Y-107510000D01*
X169058571Y-107638571D01*
X169144285Y-107724285D01*
X169272857Y-107767142D01*
X169358571Y-107767142D01*
X168158571Y-107767142D02*
X168587142Y-107767142D01*
X168587142Y-106867142D01*
X167344285Y-107681428D02*
X167387142Y-107724285D01*
X167515714Y-107767142D01*
X167601428Y-107767142D01*
X167730000Y-107724285D01*
X167815714Y-107638571D01*
X167858571Y-107552857D01*
X167901428Y-107381428D01*
X167901428Y-107252857D01*
X167858571Y-107081428D01*
X167815714Y-106995714D01*
X167730000Y-106910000D01*
X167601428Y-106867142D01*
X167515714Y-106867142D01*
X167387142Y-106910000D01*
X167344285Y-106952857D01*
X166701428Y-106867142D02*
X166701428Y-107510000D01*
X166744285Y-107638571D01*
X166830000Y-107724285D01*
X166958571Y-107767142D01*
X167044285Y-107767142D01*
X165844285Y-107767142D02*
X166272857Y-107767142D01*
X166272857Y-106867142D01*
X165030000Y-107681428D02*
X165072857Y-107724285D01*
X165201428Y-107767142D01*
X165287142Y-107767142D01*
X165415714Y-107724285D01*
X165501428Y-107638571D01*
X165544285Y-107552857D01*
X165587142Y-107381428D01*
X165587142Y-107252857D01*
X165544285Y-107081428D01*
X165501428Y-106995714D01*
X165415714Y-106910000D01*
X165287142Y-106867142D01*
X165201428Y-106867142D01*
X165072857Y-106910000D01*
X165030000Y-106952857D01*
X125948571Y-105395714D02*
X125710476Y-106062380D01*
X125472380Y-105395714D01*
X124567619Y-106062380D02*
X125139047Y-106062380D01*
X124853333Y-106062380D02*
X124853333Y-105062380D01*
X124948571Y-105205238D01*
X125043809Y-105300476D01*
X125139047Y-105348095D01*
X124139047Y-105967142D02*
X124091428Y-106014761D01*
X124139047Y-106062380D01*
X124186666Y-106014761D01*
X124139047Y-105967142D01*
X124139047Y-106062380D01*
X123472380Y-105062380D02*
X123377142Y-105062380D01*
X123281904Y-105110000D01*
X123234285Y-105157619D01*
X123186666Y-105252857D01*
X123139047Y-105443333D01*
X123139047Y-105681428D01*
X123186666Y-105871904D01*
X123234285Y-105967142D01*
X123281904Y-106014761D01*
X123377142Y-106062380D01*
X123472380Y-106062380D01*
X123567619Y-106014761D01*
X123615238Y-105967142D01*
X123662857Y-105871904D01*
X123710476Y-105681428D01*
X123710476Y-105443333D01*
X123662857Y-105252857D01*
X123615238Y-105157619D01*
X123567619Y-105110000D01*
X123472380Y-105062380D01*
D11*
%TO.C,G\u002A\u002A\u002A*%
G36*
X144936182Y-93825404D02*
G01*
X144912241Y-93852100D01*
X144902254Y-93887767D01*
X144908278Y-93925182D01*
X144931691Y-93956579D01*
X144957461Y-93975147D01*
X144976334Y-93977416D01*
X145000382Y-93963978D01*
X145005775Y-93960229D01*
X145027902Y-93932217D01*
X145034480Y-93896033D01*
X145027293Y-93859365D01*
X145008129Y-93829906D01*
X144978773Y-93815347D01*
X144972021Y-93814900D01*
X144936182Y-93825404D01*
G37*
X144936182Y-93825404D02*
X144912241Y-93852100D01*
X144902254Y-93887767D01*
X144908278Y-93925182D01*
X144931691Y-93956579D01*
X144957461Y-93975147D01*
X144976334Y-93977416D01*
X145000382Y-93963978D01*
X145005775Y-93960229D01*
X145027902Y-93932217D01*
X145034480Y-93896033D01*
X145027293Y-93859365D01*
X145008129Y-93829906D01*
X144978773Y-93815347D01*
X144972021Y-93814900D01*
X144936182Y-93825404D01*
G36*
X152244803Y-93826327D02*
G01*
X152219609Y-93856300D01*
X152209515Y-93898352D01*
X152209500Y-93900069D01*
X152218898Y-93941043D01*
X152243045Y-93965555D01*
X152275878Y-93970988D01*
X152311329Y-93954724D01*
X152319372Y-93947482D01*
X152341486Y-93918912D01*
X152345089Y-93891205D01*
X152343046Y-93881006D01*
X152326130Y-93838698D01*
X152300633Y-93818103D01*
X152279764Y-93814900D01*
X152244803Y-93826327D01*
G37*
X152244803Y-93826327D02*
X152219609Y-93856300D01*
X152209515Y-93898352D01*
X152209500Y-93900069D01*
X152218898Y-93941043D01*
X152243045Y-93965555D01*
X152275878Y-93970988D01*
X152311329Y-93954724D01*
X152319372Y-93947482D01*
X152341486Y-93918912D01*
X152345089Y-93891205D01*
X152343046Y-93881006D01*
X152326130Y-93838698D01*
X152300633Y-93818103D01*
X152279764Y-93814900D01*
X152244803Y-93826327D01*
G36*
X144215406Y-94060698D02*
G01*
X144125241Y-94081723D01*
X144027473Y-94127219D01*
X143944490Y-94190687D01*
X143877740Y-94268767D01*
X143828670Y-94358097D01*
X143798729Y-94455319D01*
X143789364Y-94557072D01*
X143802023Y-94659997D01*
X143835246Y-94754700D01*
X143893718Y-94850164D01*
X143968843Y-94927816D01*
X144057798Y-94986149D01*
X144157763Y-95023658D01*
X144265917Y-95038837D01*
X144358056Y-95033664D01*
X144452784Y-95007877D01*
X144542521Y-94960185D01*
X144622716Y-94894076D01*
X144688819Y-94813041D01*
X144721751Y-94754700D01*
X144740165Y-94713593D01*
X144751715Y-94678891D01*
X144757967Y-94642205D01*
X144760486Y-94595148D01*
X144760699Y-94567114D01*
X144629756Y-94567114D01*
X144613803Y-94656705D01*
X144576834Y-94740021D01*
X144552602Y-94775107D01*
X144489687Y-94835487D01*
X144413195Y-94877378D01*
X144328104Y-94899637D01*
X144239390Y-94901120D01*
X144152032Y-94880684D01*
X144130860Y-94871959D01*
X144056120Y-94825171D01*
X143997298Y-94762064D01*
X143955527Y-94686972D01*
X143931943Y-94604233D01*
X143927680Y-94518182D01*
X143943873Y-94433154D01*
X143981657Y-94353486D01*
X143991434Y-94339226D01*
X144053386Y-94273349D01*
X144126420Y-94227603D01*
X144206586Y-94201644D01*
X144289935Y-94195128D01*
X144372519Y-94207710D01*
X144450388Y-94239046D01*
X144519594Y-94288791D01*
X144576187Y-94356601D01*
X144596020Y-94391959D01*
X144624044Y-94476961D01*
X144629756Y-94567114D01*
X144760699Y-94567114D01*
X144760867Y-94545150D01*
X144759751Y-94480283D01*
X144755719Y-94433026D01*
X144747595Y-94395646D01*
X144734204Y-94360412D01*
X144732049Y-94355661D01*
X144675361Y-94260071D01*
X144602565Y-94181094D01*
X144516916Y-94120199D01*
X144421670Y-94078855D01*
X144320082Y-94058531D01*
X144215406Y-94060698D01*
G37*
X144215406Y-94060698D02*
X144125241Y-94081723D01*
X144027473Y-94127219D01*
X143944490Y-94190687D01*
X143877740Y-94268767D01*
X143828670Y-94358097D01*
X143798729Y-94455319D01*
X143789364Y-94557072D01*
X143802023Y-94659997D01*
X143835246Y-94754700D01*
X143893718Y-94850164D01*
X143968843Y-94927816D01*
X144057798Y-94986149D01*
X144157763Y-95023658D01*
X144265917Y-95038837D01*
X144358056Y-95033664D01*
X144452784Y-95007877D01*
X144542521Y-94960185D01*
X144622716Y-94894076D01*
X144688819Y-94813041D01*
X144721751Y-94754700D01*
X144740165Y-94713593D01*
X144751715Y-94678891D01*
X144757967Y-94642205D01*
X144760486Y-94595148D01*
X144760699Y-94567114D01*
X144629756Y-94567114D01*
X144613803Y-94656705D01*
X144576834Y-94740021D01*
X144552602Y-94775107D01*
X144489687Y-94835487D01*
X144413195Y-94877378D01*
X144328104Y-94899637D01*
X144239390Y-94901120D01*
X144152032Y-94880684D01*
X144130860Y-94871959D01*
X144056120Y-94825171D01*
X143997298Y-94762064D01*
X143955527Y-94686972D01*
X143931943Y-94604233D01*
X143927680Y-94518182D01*
X143943873Y-94433154D01*
X143981657Y-94353486D01*
X143991434Y-94339226D01*
X144053386Y-94273349D01*
X144126420Y-94227603D01*
X144206586Y-94201644D01*
X144289935Y-94195128D01*
X144372519Y-94207710D01*
X144450388Y-94239046D01*
X144519594Y-94288791D01*
X144576187Y-94356601D01*
X144596020Y-94391959D01*
X144624044Y-94476961D01*
X144629756Y-94567114D01*
X144760699Y-94567114D01*
X144760867Y-94545150D01*
X144759751Y-94480283D01*
X144755719Y-94433026D01*
X144747595Y-94395646D01*
X144734204Y-94360412D01*
X144732049Y-94355661D01*
X144675361Y-94260071D01*
X144602565Y-94181094D01*
X144516916Y-94120199D01*
X144421670Y-94078855D01*
X144320082Y-94058531D01*
X144215406Y-94060698D01*
G36*
X144962038Y-94058457D02*
G01*
X144944782Y-94061374D01*
X144930730Y-94067329D01*
X144919578Y-94078702D01*
X144911019Y-94097873D01*
X144904749Y-94127223D01*
X144900461Y-94169132D01*
X144897851Y-94225980D01*
X144896613Y-94300149D01*
X144896442Y-94394018D01*
X144897031Y-94509967D01*
X144897405Y-94562159D01*
X144900650Y-94998268D01*
X144930632Y-95022534D01*
X144956753Y-95041524D01*
X144975538Y-95044421D01*
X144998707Y-95031926D01*
X145005775Y-95027029D01*
X145034000Y-95007259D01*
X145034000Y-94545984D01*
X145033969Y-94420823D01*
X145033649Y-94318754D01*
X145032698Y-94237469D01*
X145030776Y-94174661D01*
X145027543Y-94128023D01*
X145022658Y-94095246D01*
X145015780Y-94074023D01*
X145006569Y-94062046D01*
X144994684Y-94057007D01*
X144979785Y-94056600D01*
X144962038Y-94058457D01*
G37*
X144962038Y-94058457D02*
X144944782Y-94061374D01*
X144930730Y-94067329D01*
X144919578Y-94078702D01*
X144911019Y-94097873D01*
X144904749Y-94127223D01*
X144900461Y-94169132D01*
X144897851Y-94225980D01*
X144896613Y-94300149D01*
X144896442Y-94394018D01*
X144897031Y-94509967D01*
X144897405Y-94562159D01*
X144900650Y-94998268D01*
X144930632Y-95022534D01*
X144956753Y-95041524D01*
X144975538Y-95044421D01*
X144998707Y-95031926D01*
X145005775Y-95027029D01*
X145034000Y-95007259D01*
X145034000Y-94545984D01*
X145033969Y-94420823D01*
X145033649Y-94318754D01*
X145032698Y-94237469D01*
X145030776Y-94174661D01*
X145027543Y-94128023D01*
X145022658Y-94095246D01*
X145015780Y-94074023D01*
X145006569Y-94062046D01*
X144994684Y-94057007D01*
X144979785Y-94056600D01*
X144962038Y-94058457D01*
G36*
X145330896Y-94841516D02*
G01*
X145316082Y-94848563D01*
X145279154Y-94878516D01*
X145261769Y-94915825D01*
X145261559Y-94955336D01*
X145276159Y-94991896D01*
X145303202Y-95020351D01*
X145340321Y-95035549D01*
X145385149Y-95032334D01*
X145398310Y-95027623D01*
X145434362Y-95000849D01*
X145452720Y-94962898D01*
X145453606Y-94920604D01*
X145437238Y-94880797D01*
X145403836Y-94850311D01*
X145392432Y-94844772D01*
X145359915Y-94835602D01*
X145330896Y-94841516D01*
G37*
X145330896Y-94841516D02*
X145316082Y-94848563D01*
X145279154Y-94878516D01*
X145261769Y-94915825D01*
X145261559Y-94955336D01*
X145276159Y-94991896D01*
X145303202Y-95020351D01*
X145340321Y-95035549D01*
X145385149Y-95032334D01*
X145398310Y-95027623D01*
X145434362Y-95000849D01*
X145452720Y-94962898D01*
X145453606Y-94920604D01*
X145437238Y-94880797D01*
X145403836Y-94850311D01*
X145392432Y-94844772D01*
X145359915Y-94835602D01*
X145330896Y-94841516D01*
G36*
X145968556Y-94055275D02*
G01*
X145866724Y-94077686D01*
X145793667Y-94109268D01*
X145736423Y-94145952D01*
X145684311Y-94190620D01*
X145640465Y-94239158D01*
X145608018Y-94287451D01*
X145590104Y-94331387D01*
X145589857Y-94366852D01*
X145592566Y-94373261D01*
X145597886Y-94382816D01*
X145604325Y-94391231D01*
X145614476Y-94399679D01*
X145630936Y-94409328D01*
X145656300Y-94421349D01*
X145693164Y-94436913D01*
X145744124Y-94457190D01*
X145811775Y-94483349D01*
X145898712Y-94516562D01*
X145973800Y-94545155D01*
X146060557Y-94578192D01*
X146140684Y-94608716D01*
X146210764Y-94635425D01*
X146267381Y-94657016D01*
X146307121Y-94672189D01*
X146326566Y-94679640D01*
X146326634Y-94679666D01*
X146345750Y-94689438D01*
X146347794Y-94703146D01*
X146337242Y-94725965D01*
X146316220Y-94757102D01*
X146286195Y-94791963D01*
X146276509Y-94801674D01*
X146204952Y-94854457D01*
X146124482Y-94887172D01*
X146039582Y-94900124D01*
X145954737Y-94893616D01*
X145874434Y-94867954D01*
X145803156Y-94823441D01*
X145749242Y-94765874D01*
X145708385Y-94718589D01*
X145671275Y-94696095D01*
X145637307Y-94698155D01*
X145615378Y-94713777D01*
X145598403Y-94740103D01*
X145598235Y-94771278D01*
X145615852Y-94810751D01*
X145652232Y-94861976D01*
X145660204Y-94871916D01*
X145728063Y-94936895D01*
X145812174Y-94988426D01*
X145905860Y-95023876D01*
X146002448Y-95040612D01*
X146081750Y-95038171D01*
X146169665Y-95017099D01*
X146256668Y-94980492D01*
X146335240Y-94932372D01*
X146397863Y-94876763D01*
X146409695Y-94862734D01*
X146464481Y-94774287D01*
X146500999Y-94674279D01*
X146517740Y-94569302D01*
X146515174Y-94510905D01*
X146379706Y-94510905D01*
X146377732Y-94538849D01*
X146367819Y-94548991D01*
X146364325Y-94548245D01*
X146348475Y-94542216D01*
X146312324Y-94528428D01*
X146259296Y-94508190D01*
X146192819Y-94482810D01*
X146116317Y-94453594D01*
X146054657Y-94430042D01*
X145959478Y-94393609D01*
X145886180Y-94364808D01*
X145832964Y-94342084D01*
X145798033Y-94323881D01*
X145779586Y-94308644D01*
X145775825Y-94294816D01*
X145784952Y-94280844D01*
X145805167Y-94265170D01*
X145834672Y-94246240D01*
X145838981Y-94243531D01*
X145915864Y-94209242D01*
X146002583Y-94194116D01*
X146092058Y-94198366D01*
X146177209Y-94222208D01*
X146199595Y-94232568D01*
X146257416Y-94273318D01*
X146309950Y-94330538D01*
X146349692Y-94395396D01*
X146360461Y-94421893D01*
X146373898Y-94470229D01*
X146379706Y-94510905D01*
X146515174Y-94510905D01*
X146513198Y-94465949D01*
X146507356Y-94435801D01*
X146471638Y-94334206D01*
X146416786Y-94245892D01*
X146346030Y-94172339D01*
X146262599Y-94115022D01*
X146169723Y-94075421D01*
X146070632Y-94055013D01*
X145968556Y-94055275D01*
G37*
X145968556Y-94055275D02*
X145866724Y-94077686D01*
X145793667Y-94109268D01*
X145736423Y-94145952D01*
X145684311Y-94190620D01*
X145640465Y-94239158D01*
X145608018Y-94287451D01*
X145590104Y-94331387D01*
X145589857Y-94366852D01*
X145592566Y-94373261D01*
X145597886Y-94382816D01*
X145604325Y-94391231D01*
X145614476Y-94399679D01*
X145630936Y-94409328D01*
X145656300Y-94421349D01*
X145693164Y-94436913D01*
X145744124Y-94457190D01*
X145811775Y-94483349D01*
X145898712Y-94516562D01*
X145973800Y-94545155D01*
X146060557Y-94578192D01*
X146140684Y-94608716D01*
X146210764Y-94635425D01*
X146267381Y-94657016D01*
X146307121Y-94672189D01*
X146326566Y-94679640D01*
X146326634Y-94679666D01*
X146345750Y-94689438D01*
X146347794Y-94703146D01*
X146337242Y-94725965D01*
X146316220Y-94757102D01*
X146286195Y-94791963D01*
X146276509Y-94801674D01*
X146204952Y-94854457D01*
X146124482Y-94887172D01*
X146039582Y-94900124D01*
X145954737Y-94893616D01*
X145874434Y-94867954D01*
X145803156Y-94823441D01*
X145749242Y-94765874D01*
X145708385Y-94718589D01*
X145671275Y-94696095D01*
X145637307Y-94698155D01*
X145615378Y-94713777D01*
X145598403Y-94740103D01*
X145598235Y-94771278D01*
X145615852Y-94810751D01*
X145652232Y-94861976D01*
X145660204Y-94871916D01*
X145728063Y-94936895D01*
X145812174Y-94988426D01*
X145905860Y-95023876D01*
X146002448Y-95040612D01*
X146081750Y-95038171D01*
X146169665Y-95017099D01*
X146256668Y-94980492D01*
X146335240Y-94932372D01*
X146397863Y-94876763D01*
X146409695Y-94862734D01*
X146464481Y-94774287D01*
X146500999Y-94674279D01*
X146517740Y-94569302D01*
X146515174Y-94510905D01*
X146379706Y-94510905D01*
X146377732Y-94538849D01*
X146367819Y-94548991D01*
X146364325Y-94548245D01*
X146348475Y-94542216D01*
X146312324Y-94528428D01*
X146259296Y-94508190D01*
X146192819Y-94482810D01*
X146116317Y-94453594D01*
X146054657Y-94430042D01*
X145959478Y-94393609D01*
X145886180Y-94364808D01*
X145832964Y-94342084D01*
X145798033Y-94323881D01*
X145779586Y-94308644D01*
X145775825Y-94294816D01*
X145784952Y-94280844D01*
X145805167Y-94265170D01*
X145834672Y-94246240D01*
X145838981Y-94243531D01*
X145915864Y-94209242D01*
X146002583Y-94194116D01*
X146092058Y-94198366D01*
X146177209Y-94222208D01*
X146199595Y-94232568D01*
X146257416Y-94273318D01*
X146309950Y-94330538D01*
X146349692Y-94395396D01*
X146360461Y-94421893D01*
X146373898Y-94470229D01*
X146379706Y-94510905D01*
X146515174Y-94510905D01*
X146513198Y-94465949D01*
X146507356Y-94435801D01*
X146471638Y-94334206D01*
X146416786Y-94245892D01*
X146346030Y-94172339D01*
X146262599Y-94115022D01*
X146169723Y-94075421D01*
X146070632Y-94055013D01*
X145968556Y-94055275D01*
G36*
X146993666Y-93530410D02*
G01*
X146977547Y-93547365D01*
X146972989Y-93568633D01*
X146969227Y-93611797D01*
X146966435Y-93673359D01*
X146964785Y-93749823D01*
X146964400Y-93814065D01*
X146964400Y-94056200D01*
X146820891Y-94056200D01*
X146750919Y-94057099D01*
X146702471Y-94060733D01*
X146671705Y-94068502D01*
X146654781Y-94081809D01*
X146647858Y-94102056D01*
X146646900Y-94119699D01*
X146649366Y-94145237D01*
X146659322Y-94162918D01*
X146680610Y-94174147D01*
X146717071Y-94180323D01*
X146772547Y-94182850D01*
X146820891Y-94183200D01*
X146964400Y-94183200D01*
X146964400Y-94383731D01*
X146961449Y-94510901D01*
X146951789Y-94615770D01*
X146934217Y-94700835D01*
X146907526Y-94768593D01*
X146870512Y-94821539D01*
X146821970Y-94862170D01*
X146760693Y-94892983D01*
X146710400Y-94909812D01*
X146674817Y-94921999D01*
X146657117Y-94936120D01*
X146650208Y-94958728D01*
X146649362Y-94966204D01*
X146652468Y-95001456D01*
X146673344Y-95025772D01*
X146674413Y-95026529D01*
X146693949Y-95039081D01*
X146711441Y-95044357D01*
X146734764Y-95042503D01*
X146771794Y-95033668D01*
X146790427Y-95028690D01*
X146874291Y-94993257D01*
X146947871Y-94935700D01*
X147009519Y-94857784D01*
X147057588Y-94761270D01*
X147068340Y-94731303D01*
X147075243Y-94709486D01*
X147080947Y-94687802D01*
X147085594Y-94663599D01*
X147089326Y-94634226D01*
X147092284Y-94597033D01*
X147094609Y-94549368D01*
X147096445Y-94488579D01*
X147097931Y-94412015D01*
X147099210Y-94317025D01*
X147100424Y-94200958D01*
X147101219Y-94115792D01*
X147102333Y-93984074D01*
X147103004Y-93875395D01*
X147103167Y-93787394D01*
X147102758Y-93717712D01*
X147101712Y-93663991D01*
X147099962Y-93623870D01*
X147097446Y-93594991D01*
X147094096Y-93574994D01*
X147089849Y-93561520D01*
X147085738Y-93553817D01*
X147058735Y-93530159D01*
X147024947Y-93522173D01*
X146993666Y-93530410D01*
G37*
X146993666Y-93530410D02*
X146977547Y-93547365D01*
X146972989Y-93568633D01*
X146969227Y-93611797D01*
X146966435Y-93673359D01*
X146964785Y-93749823D01*
X146964400Y-93814065D01*
X146964400Y-94056200D01*
X146820891Y-94056200D01*
X146750919Y-94057099D01*
X146702471Y-94060733D01*
X146671705Y-94068502D01*
X146654781Y-94081809D01*
X146647858Y-94102056D01*
X146646900Y-94119699D01*
X146649366Y-94145237D01*
X146659322Y-94162918D01*
X146680610Y-94174147D01*
X146717071Y-94180323D01*
X146772547Y-94182850D01*
X146820891Y-94183200D01*
X146964400Y-94183200D01*
X146964400Y-94383731D01*
X146961449Y-94510901D01*
X146951789Y-94615770D01*
X146934217Y-94700835D01*
X146907526Y-94768593D01*
X146870512Y-94821539D01*
X146821970Y-94862170D01*
X146760693Y-94892983D01*
X146710400Y-94909812D01*
X146674817Y-94921999D01*
X146657117Y-94936120D01*
X146650208Y-94958728D01*
X146649362Y-94966204D01*
X146652468Y-95001456D01*
X146673344Y-95025772D01*
X146674413Y-95026529D01*
X146693949Y-95039081D01*
X146711441Y-95044357D01*
X146734764Y-95042503D01*
X146771794Y-95033668D01*
X146790427Y-95028690D01*
X146874291Y-94993257D01*
X146947871Y-94935700D01*
X147009519Y-94857784D01*
X147057588Y-94761270D01*
X147068340Y-94731303D01*
X147075243Y-94709486D01*
X147080947Y-94687802D01*
X147085594Y-94663599D01*
X147089326Y-94634226D01*
X147092284Y-94597033D01*
X147094609Y-94549368D01*
X147096445Y-94488579D01*
X147097931Y-94412015D01*
X147099210Y-94317025D01*
X147100424Y-94200958D01*
X147101219Y-94115792D01*
X147102333Y-93984074D01*
X147103004Y-93875395D01*
X147103167Y-93787394D01*
X147102758Y-93717712D01*
X147101712Y-93663991D01*
X147099962Y-93623870D01*
X147097446Y-93594991D01*
X147094096Y-93574994D01*
X147089849Y-93561520D01*
X147085738Y-93553817D01*
X147058735Y-93530159D01*
X147024947Y-93522173D01*
X146993666Y-93530410D01*
G36*
X149249324Y-93523732D02*
G01*
X149233370Y-93528352D01*
X149221249Y-93539392D01*
X149212437Y-93559584D01*
X149206407Y-93591663D01*
X149202634Y-93638359D01*
X149200592Y-93702407D01*
X149199756Y-93786538D01*
X149199600Y-93886972D01*
X149199600Y-94211231D01*
X149152555Y-94169924D01*
X149067512Y-94111460D01*
X148972111Y-94073872D01*
X148870727Y-94057348D01*
X148767735Y-94062073D01*
X148667508Y-94088235D01*
X148574422Y-94136019D01*
X148561759Y-94144766D01*
X148479190Y-94216699D01*
X148418119Y-94299968D01*
X148376643Y-94397608D01*
X148359822Y-94467316D01*
X148352300Y-94572930D01*
X148367640Y-94673650D01*
X148403418Y-94767006D01*
X148457213Y-94850530D01*
X148526601Y-94921753D01*
X148609160Y-94978207D01*
X148702467Y-95017422D01*
X148804100Y-95036932D01*
X148911637Y-95034266D01*
X148915668Y-95033714D01*
X149017594Y-95007023D01*
X149110086Y-94958659D01*
X149190313Y-94891478D01*
X149255441Y-94808335D01*
X149302638Y-94712085D01*
X149327046Y-94619073D01*
X149329800Y-94589611D01*
X149332337Y-94538098D01*
X149333407Y-94504680D01*
X149194895Y-94504680D01*
X149194248Y-94587490D01*
X149172318Y-94671081D01*
X149132095Y-94748744D01*
X149076565Y-94813772D01*
X149046565Y-94837690D01*
X148964161Y-94879926D01*
X148874539Y-94899393D01*
X148782615Y-94895635D01*
X148697305Y-94869996D01*
X148618465Y-94821681D01*
X148554724Y-94754656D01*
X148526164Y-94708252D01*
X148508936Y-94669126D01*
X148499267Y-94629924D01*
X148495269Y-94580821D01*
X148494803Y-94545150D01*
X148496087Y-94489514D01*
X148501345Y-94449278D01*
X148512789Y-94414501D01*
X148532634Y-94375243D01*
X148532640Y-94375233D01*
X148586177Y-94301129D01*
X148651350Y-94246820D01*
X148724744Y-94211637D01*
X148802945Y-94194913D01*
X148882538Y-94195981D01*
X148960110Y-94214173D01*
X149032246Y-94248822D01*
X149095531Y-94299261D01*
X149146552Y-94364822D01*
X149181893Y-94444838D01*
X149194895Y-94504680D01*
X149333407Y-94504680D01*
X149334586Y-94467882D01*
X149336472Y-94382312D01*
X149337923Y-94284737D01*
X149338865Y-94178506D01*
X149339226Y-94066967D01*
X149339227Y-94062200D01*
X149339150Y-93931111D01*
X149338684Y-93823175D01*
X149337538Y-93736143D01*
X149335422Y-93667770D01*
X149332046Y-93615807D01*
X149327121Y-93578007D01*
X149320356Y-93552123D01*
X149311462Y-93535908D01*
X149300148Y-93527114D01*
X149286125Y-93523493D01*
X149269638Y-93522800D01*
X149249324Y-93523732D01*
G37*
X149249324Y-93523732D02*
X149233370Y-93528352D01*
X149221249Y-93539392D01*
X149212437Y-93559584D01*
X149206407Y-93591663D01*
X149202634Y-93638359D01*
X149200592Y-93702407D01*
X149199756Y-93786538D01*
X149199600Y-93886972D01*
X149199600Y-94211231D01*
X149152555Y-94169924D01*
X149067512Y-94111460D01*
X148972111Y-94073872D01*
X148870727Y-94057348D01*
X148767735Y-94062073D01*
X148667508Y-94088235D01*
X148574422Y-94136019D01*
X148561759Y-94144766D01*
X148479190Y-94216699D01*
X148418119Y-94299968D01*
X148376643Y-94397608D01*
X148359822Y-94467316D01*
X148352300Y-94572930D01*
X148367640Y-94673650D01*
X148403418Y-94767006D01*
X148457213Y-94850530D01*
X148526601Y-94921753D01*
X148609160Y-94978207D01*
X148702467Y-95017422D01*
X148804100Y-95036932D01*
X148911637Y-95034266D01*
X148915668Y-95033714D01*
X149017594Y-95007023D01*
X149110086Y-94958659D01*
X149190313Y-94891478D01*
X149255441Y-94808335D01*
X149302638Y-94712085D01*
X149327046Y-94619073D01*
X149329800Y-94589611D01*
X149332337Y-94538098D01*
X149333407Y-94504680D01*
X149194895Y-94504680D01*
X149194248Y-94587490D01*
X149172318Y-94671081D01*
X149132095Y-94748744D01*
X149076565Y-94813772D01*
X149046565Y-94837690D01*
X148964161Y-94879926D01*
X148874539Y-94899393D01*
X148782615Y-94895635D01*
X148697305Y-94869996D01*
X148618465Y-94821681D01*
X148554724Y-94754656D01*
X148526164Y-94708252D01*
X148508936Y-94669126D01*
X148499267Y-94629924D01*
X148495269Y-94580821D01*
X148494803Y-94545150D01*
X148496087Y-94489514D01*
X148501345Y-94449278D01*
X148512789Y-94414501D01*
X148532634Y-94375243D01*
X148532640Y-94375233D01*
X148586177Y-94301129D01*
X148651350Y-94246820D01*
X148724744Y-94211637D01*
X148802945Y-94194913D01*
X148882538Y-94195981D01*
X148960110Y-94214173D01*
X149032246Y-94248822D01*
X149095531Y-94299261D01*
X149146552Y-94364822D01*
X149181893Y-94444838D01*
X149194895Y-94504680D01*
X149333407Y-94504680D01*
X149334586Y-94467882D01*
X149336472Y-94382312D01*
X149337923Y-94284737D01*
X149338865Y-94178506D01*
X149339226Y-94066967D01*
X149339227Y-94062200D01*
X149339150Y-93931111D01*
X149338684Y-93823175D01*
X149337538Y-93736143D01*
X149335422Y-93667770D01*
X149332046Y-93615807D01*
X149327121Y-93578007D01*
X149320356Y-93552123D01*
X149311462Y-93535908D01*
X149300148Y-93527114D01*
X149286125Y-93523493D01*
X149269638Y-93522800D01*
X149249324Y-93523732D01*
G36*
X149876260Y-94063384D02*
G01*
X149832780Y-94067046D01*
X149796844Y-94075274D01*
X149759535Y-94089807D01*
X149733000Y-94102170D01*
X149640123Y-94159469D01*
X149565165Y-94231546D01*
X149508483Y-94315138D01*
X149470432Y-94406981D01*
X149451369Y-94503811D01*
X149451651Y-94602364D01*
X149471634Y-94699376D01*
X149511674Y-94791583D01*
X149572129Y-94875721D01*
X149641535Y-94939763D01*
X149728921Y-94991787D01*
X149827630Y-95025564D01*
X149930315Y-95039248D01*
X150015189Y-95033709D01*
X150111342Y-95006021D01*
X150202533Y-94958245D01*
X150283137Y-94894430D01*
X150347531Y-94818624D01*
X150372416Y-94776461D01*
X150411843Y-94672406D01*
X150427460Y-94566743D01*
X150425413Y-94536720D01*
X150290319Y-94536720D01*
X150283352Y-94624124D01*
X150255367Y-94707150D01*
X150213847Y-94771862D01*
X150144542Y-94837806D01*
X150065074Y-94881823D01*
X149978675Y-94903011D01*
X149888576Y-94900469D01*
X149819202Y-94881957D01*
X149735479Y-94839558D01*
X149670458Y-94781109D01*
X149622683Y-94706815D01*
X149592465Y-94618559D01*
X149585752Y-94529170D01*
X149601184Y-94442552D01*
X149637401Y-94362604D01*
X149693043Y-94293229D01*
X149766753Y-94238327D01*
X149790150Y-94226218D01*
X149873286Y-94200273D01*
X149961300Y-94196354D01*
X150048413Y-94213433D01*
X150128847Y-94250480D01*
X150187782Y-94297035D01*
X150242266Y-94368295D01*
X150276534Y-94449816D01*
X150290319Y-94536720D01*
X150425413Y-94536720D01*
X150420365Y-94462686D01*
X150391656Y-94363449D01*
X150342432Y-94272246D01*
X150273791Y-94192289D01*
X150186831Y-94126793D01*
X150142255Y-94103007D01*
X150098579Y-94083496D01*
X150062209Y-94071480D01*
X150024090Y-94065179D01*
X149975166Y-94062816D01*
X149936200Y-94062550D01*
X149876260Y-94063384D01*
G37*
X149876260Y-94063384D02*
X149832780Y-94067046D01*
X149796844Y-94075274D01*
X149759535Y-94089807D01*
X149733000Y-94102170D01*
X149640123Y-94159469D01*
X149565165Y-94231546D01*
X149508483Y-94315138D01*
X149470432Y-94406981D01*
X149451369Y-94503811D01*
X149451651Y-94602364D01*
X149471634Y-94699376D01*
X149511674Y-94791583D01*
X149572129Y-94875721D01*
X149641535Y-94939763D01*
X149728921Y-94991787D01*
X149827630Y-95025564D01*
X149930315Y-95039248D01*
X150015189Y-95033709D01*
X150111342Y-95006021D01*
X150202533Y-94958245D01*
X150283137Y-94894430D01*
X150347531Y-94818624D01*
X150372416Y-94776461D01*
X150411843Y-94672406D01*
X150427460Y-94566743D01*
X150425413Y-94536720D01*
X150290319Y-94536720D01*
X150283352Y-94624124D01*
X150255367Y-94707150D01*
X150213847Y-94771862D01*
X150144542Y-94837806D01*
X150065074Y-94881823D01*
X149978675Y-94903011D01*
X149888576Y-94900469D01*
X149819202Y-94881957D01*
X149735479Y-94839558D01*
X149670458Y-94781109D01*
X149622683Y-94706815D01*
X149592465Y-94618559D01*
X149585752Y-94529170D01*
X149601184Y-94442552D01*
X149637401Y-94362604D01*
X149693043Y-94293229D01*
X149766753Y-94238327D01*
X149790150Y-94226218D01*
X149873286Y-94200273D01*
X149961300Y-94196354D01*
X150048413Y-94213433D01*
X150128847Y-94250480D01*
X150187782Y-94297035D01*
X150242266Y-94368295D01*
X150276534Y-94449816D01*
X150290319Y-94536720D01*
X150425413Y-94536720D01*
X150420365Y-94462686D01*
X150391656Y-94363449D01*
X150342432Y-94272246D01*
X150273791Y-94192289D01*
X150186831Y-94126793D01*
X150142255Y-94103007D01*
X150098579Y-94083496D01*
X150062209Y-94071480D01*
X150024090Y-94065179D01*
X149975166Y-94062816D01*
X149936200Y-94062550D01*
X149876260Y-94063384D01*
G36*
X150608817Y-94059107D02*
G01*
X150566105Y-94068774D01*
X150541965Y-94086621D01*
X150533268Y-94114063D01*
X150533100Y-94119699D01*
X150539087Y-94146156D01*
X150559312Y-94164912D01*
X150597177Y-94177598D01*
X150656082Y-94185842D01*
X150674387Y-94187392D01*
X150763699Y-94201128D01*
X150833344Y-94227969D01*
X150886308Y-94269532D01*
X150922639Y-94321722D01*
X150931960Y-94340339D01*
X150939084Y-94358748D01*
X150944306Y-94380534D01*
X150947920Y-94409279D01*
X150950222Y-94448566D01*
X150951506Y-94501978D01*
X150952067Y-94573099D01*
X150952199Y-94665510D01*
X150952200Y-94681074D01*
X150952200Y-94984454D01*
X150983373Y-95015627D01*
X151009868Y-95039216D01*
X151029924Y-95044846D01*
X151053527Y-95033934D01*
X151063675Y-95027029D01*
X151072385Y-95020280D01*
X151079089Y-95011678D01*
X151084050Y-94998098D01*
X151087530Y-94976416D01*
X151089792Y-94943506D01*
X151091097Y-94896242D01*
X151091709Y-94831501D01*
X151091890Y-94746157D01*
X151091900Y-94690956D01*
X151091430Y-94576762D01*
X151089515Y-94484533D01*
X151085396Y-94410843D01*
X151078318Y-94352265D01*
X151067523Y-94305374D01*
X151052253Y-94266743D01*
X151031752Y-94232947D01*
X151005262Y-94200560D01*
X150976996Y-94171104D01*
X150908363Y-94114971D01*
X150832310Y-94078481D01*
X150743860Y-94059752D01*
X150673231Y-94056200D01*
X150608817Y-94059107D01*
G37*
X150608817Y-94059107D02*
X150566105Y-94068774D01*
X150541965Y-94086621D01*
X150533268Y-94114063D01*
X150533100Y-94119699D01*
X150539087Y-94146156D01*
X150559312Y-94164912D01*
X150597177Y-94177598D01*
X150656082Y-94185842D01*
X150674387Y-94187392D01*
X150763699Y-94201128D01*
X150833344Y-94227969D01*
X150886308Y-94269532D01*
X150922639Y-94321722D01*
X150931960Y-94340339D01*
X150939084Y-94358748D01*
X150944306Y-94380534D01*
X150947920Y-94409279D01*
X150950222Y-94448566D01*
X150951506Y-94501978D01*
X150952067Y-94573099D01*
X150952199Y-94665510D01*
X150952200Y-94681074D01*
X150952200Y-94984454D01*
X150983373Y-95015627D01*
X151009868Y-95039216D01*
X151029924Y-95044846D01*
X151053527Y-95033934D01*
X151063675Y-95027029D01*
X151072385Y-95020280D01*
X151079089Y-95011678D01*
X151084050Y-94998098D01*
X151087530Y-94976416D01*
X151089792Y-94943506D01*
X151091097Y-94896242D01*
X151091709Y-94831501D01*
X151091890Y-94746157D01*
X151091900Y-94690956D01*
X151091430Y-94576762D01*
X151089515Y-94484533D01*
X151085396Y-94410843D01*
X151078318Y-94352265D01*
X151067523Y-94305374D01*
X151052253Y-94266743D01*
X151031752Y-94232947D01*
X151005262Y-94200560D01*
X150976996Y-94171104D01*
X150908363Y-94114971D01*
X150832310Y-94078481D01*
X150743860Y-94059752D01*
X150673231Y-94056200D01*
X150608817Y-94059107D01*
G36*
X151508671Y-94060018D02*
G01*
X151409019Y-94085885D01*
X151316776Y-94133299D01*
X151280873Y-94159784D01*
X151253197Y-94185061D01*
X151243297Y-94197775D01*
X151236163Y-94234562D01*
X151250944Y-94268171D01*
X151276501Y-94287315D01*
X151297621Y-94293123D01*
X151320639Y-94288353D01*
X151353340Y-94270833D01*
X151367474Y-94261954D01*
X151426630Y-94227205D01*
X151477051Y-94206452D01*
X151528748Y-94196549D01*
X151582741Y-94194312D01*
X151673921Y-94205451D01*
X151753958Y-94236641D01*
X151821460Y-94284539D01*
X151875034Y-94345802D01*
X151913290Y-94417087D01*
X151934834Y-94495051D01*
X151938276Y-94576352D01*
X151922223Y-94657647D01*
X151885282Y-94735594D01*
X151834427Y-94798726D01*
X151765787Y-94853342D01*
X151689084Y-94886134D01*
X151599757Y-94898912D01*
X151580850Y-94899226D01*
X151539621Y-94898152D01*
X151504716Y-94893607D01*
X151470268Y-94883502D01*
X151430410Y-94865748D01*
X151379275Y-94838256D01*
X151329622Y-94809774D01*
X151295808Y-94803015D01*
X151261972Y-94814945D01*
X151238963Y-94841296D01*
X151237141Y-94846149D01*
X151239252Y-94880140D01*
X151264804Y-94917233D01*
X151312325Y-94955587D01*
X151336574Y-94970534D01*
X151438808Y-95016534D01*
X151543345Y-95037498D01*
X151652100Y-95033788D01*
X151662859Y-95032143D01*
X151768192Y-95002515D01*
X151863292Y-94950865D01*
X151944970Y-94879573D01*
X152010039Y-94791020D01*
X152026117Y-94760887D01*
X152042826Y-94724844D01*
X152053653Y-94693615D01*
X152059858Y-94659918D01*
X152062701Y-94616470D01*
X152063443Y-94555990D01*
X152063450Y-94545150D01*
X152062944Y-94481833D01*
X152060577Y-94436714D01*
X152055077Y-94402600D01*
X152045175Y-94372296D01*
X152029598Y-94338607D01*
X152025523Y-94330500D01*
X151966468Y-94239595D01*
X151891929Y-94165726D01*
X151805392Y-94109864D01*
X151710345Y-94072978D01*
X151610275Y-94056039D01*
X151508671Y-94060018D01*
G37*
X151508671Y-94060018D02*
X151409019Y-94085885D01*
X151316776Y-94133299D01*
X151280873Y-94159784D01*
X151253197Y-94185061D01*
X151243297Y-94197775D01*
X151236163Y-94234562D01*
X151250944Y-94268171D01*
X151276501Y-94287315D01*
X151297621Y-94293123D01*
X151320639Y-94288353D01*
X151353340Y-94270833D01*
X151367474Y-94261954D01*
X151426630Y-94227205D01*
X151477051Y-94206452D01*
X151528748Y-94196549D01*
X151582741Y-94194312D01*
X151673921Y-94205451D01*
X151753958Y-94236641D01*
X151821460Y-94284539D01*
X151875034Y-94345802D01*
X151913290Y-94417087D01*
X151934834Y-94495051D01*
X151938276Y-94576352D01*
X151922223Y-94657647D01*
X151885282Y-94735594D01*
X151834427Y-94798726D01*
X151765787Y-94853342D01*
X151689084Y-94886134D01*
X151599757Y-94898912D01*
X151580850Y-94899226D01*
X151539621Y-94898152D01*
X151504716Y-94893607D01*
X151470268Y-94883502D01*
X151430410Y-94865748D01*
X151379275Y-94838256D01*
X151329622Y-94809774D01*
X151295808Y-94803015D01*
X151261972Y-94814945D01*
X151238963Y-94841296D01*
X151237141Y-94846149D01*
X151239252Y-94880140D01*
X151264804Y-94917233D01*
X151312325Y-94955587D01*
X151336574Y-94970534D01*
X151438808Y-95016534D01*
X151543345Y-95037498D01*
X151652100Y-95033788D01*
X151662859Y-95032143D01*
X151768192Y-95002515D01*
X151863292Y-94950865D01*
X151944970Y-94879573D01*
X152010039Y-94791020D01*
X152026117Y-94760887D01*
X152042826Y-94724844D01*
X152053653Y-94693615D01*
X152059858Y-94659918D01*
X152062701Y-94616470D01*
X152063443Y-94555990D01*
X152063450Y-94545150D01*
X152062944Y-94481833D01*
X152060577Y-94436714D01*
X152055077Y-94402600D01*
X152045175Y-94372296D01*
X152029598Y-94338607D01*
X152025523Y-94330500D01*
X151966468Y-94239595D01*
X151891929Y-94165726D01*
X151805392Y-94109864D01*
X151710345Y-94072978D01*
X151610275Y-94056039D01*
X151508671Y-94060018D01*
G36*
X152261856Y-94056612D02*
G01*
X152247433Y-94059414D01*
X152235937Y-94066954D01*
X152227035Y-94081580D01*
X152220397Y-94105639D01*
X152215689Y-94141479D01*
X152212580Y-94191447D01*
X152210739Y-94257893D01*
X152209833Y-94343162D01*
X152209531Y-94449604D01*
X152209500Y-94551687D01*
X152209500Y-95007259D01*
X152237726Y-95027029D01*
X152264648Y-95043034D01*
X152284764Y-95042959D01*
X152308060Y-95025388D01*
X152318028Y-95015627D01*
X152349200Y-94984454D01*
X152349200Y-94548553D01*
X152349070Y-94423788D01*
X152348455Y-94322075D01*
X152347025Y-94241062D01*
X152344447Y-94178402D01*
X152340389Y-94131745D01*
X152334517Y-94098741D01*
X152326500Y-94077043D01*
X152316006Y-94064300D01*
X152302702Y-94058164D01*
X152286255Y-94056286D01*
X152279538Y-94056199D01*
X152261856Y-94056612D01*
G37*
X152261856Y-94056612D02*
X152247433Y-94059414D01*
X152235937Y-94066954D01*
X152227035Y-94081580D01*
X152220397Y-94105639D01*
X152215689Y-94141479D01*
X152212580Y-94191447D01*
X152210739Y-94257893D01*
X152209833Y-94343162D01*
X152209531Y-94449604D01*
X152209500Y-94551687D01*
X152209500Y-95007259D01*
X152237726Y-95027029D01*
X152264648Y-95043034D01*
X152284764Y-95042959D01*
X152308060Y-95025388D01*
X152318028Y-95015627D01*
X152349200Y-94984454D01*
X152349200Y-94548553D01*
X152349070Y-94423788D01*
X152348455Y-94322075D01*
X152347025Y-94241062D01*
X152344447Y-94178402D01*
X152340389Y-94131745D01*
X152334517Y-94098741D01*
X152326500Y-94077043D01*
X152316006Y-94064300D01*
X152302702Y-94058164D01*
X152286255Y-94056286D01*
X152279538Y-94056199D01*
X152261856Y-94056612D01*
G36*
X152801093Y-94064327D02*
G01*
X152717293Y-94089318D01*
X152640180Y-94132620D01*
X152573550Y-94193452D01*
X152521203Y-94271031D01*
X152512147Y-94289894D01*
X152503112Y-94311387D01*
X152496096Y-94332979D01*
X152490785Y-94358252D01*
X152486868Y-94390787D01*
X152484032Y-94434168D01*
X152481964Y-94491976D01*
X152480351Y-94567794D01*
X152478881Y-94665203D01*
X152478786Y-94672150D01*
X152477557Y-94777969D01*
X152477425Y-94861119D01*
X152478892Y-94924324D01*
X152482461Y-94970309D01*
X152488632Y-95001797D01*
X152497908Y-95021512D01*
X152510790Y-95032179D01*
X152527781Y-95036521D01*
X152546050Y-95037275D01*
X152566803Y-95036042D01*
X152582990Y-95030480D01*
X152595181Y-95017790D01*
X152603943Y-94995177D01*
X152609845Y-94959841D01*
X152613454Y-94908987D01*
X152615339Y-94839817D01*
X152616068Y-94749534D01*
X152616179Y-94691947D01*
X152616647Y-94585599D01*
X152618309Y-94501215D01*
X152621886Y-94435366D01*
X152628097Y-94384621D01*
X152637664Y-94345550D01*
X152651307Y-94314721D01*
X152669745Y-94288704D01*
X152693699Y-94264069D01*
X152708885Y-94250392D01*
X152769112Y-94213160D01*
X152837100Y-94196481D01*
X152907392Y-94199254D01*
X152974531Y-94220380D01*
X153033060Y-94258756D01*
X153077519Y-94313285D01*
X153084262Y-94326071D01*
X153092909Y-94345478D01*
X153099485Y-94365749D01*
X153104271Y-94390546D01*
X153107549Y-94423536D01*
X153109598Y-94468380D01*
X153110701Y-94528743D01*
X153111139Y-94608289D01*
X153111201Y-94676994D01*
X153111764Y-94773585D01*
X153113379Y-94856434D01*
X153115932Y-94922752D01*
X153119309Y-94969751D01*
X153123397Y-94994642D01*
X153124192Y-94996543D01*
X153152134Y-95029207D01*
X153186528Y-95039773D01*
X153219208Y-95028880D01*
X153249312Y-95009155D01*
X153253281Y-94688252D01*
X153254780Y-94581971D01*
X153256860Y-94497749D01*
X153260292Y-94432246D01*
X153265846Y-94382122D01*
X153274293Y-94344037D01*
X153286403Y-94314652D01*
X153302946Y-94290626D01*
X153324693Y-94268618D01*
X153352414Y-94245290D01*
X153356148Y-94242268D01*
X153413707Y-94210704D01*
X153481242Y-94196809D01*
X153551658Y-94200035D01*
X153617864Y-94219836D01*
X153672766Y-94255665D01*
X153684344Y-94267573D01*
X153704382Y-94291611D01*
X153720076Y-94314972D01*
X153732010Y-94341113D01*
X153740771Y-94373488D01*
X153746944Y-94415551D01*
X153751114Y-94470758D01*
X153753869Y-94542564D01*
X153755792Y-94634423D01*
X153756703Y-94694452D01*
X153758170Y-94791899D01*
X153759649Y-94867078D01*
X153761436Y-94923117D01*
X153763828Y-94963145D01*
X153767119Y-94990291D01*
X153771608Y-95007685D01*
X153777590Y-95018455D01*
X153785362Y-95025732D01*
X153788264Y-95027827D01*
X153814067Y-95043440D01*
X153833006Y-95043168D01*
X153857433Y-95026431D01*
X153859884Y-95024452D01*
X153868165Y-95017108D01*
X153874557Y-95008097D01*
X153879260Y-94994377D01*
X153882476Y-94972907D01*
X153884404Y-94940646D01*
X153885245Y-94894552D01*
X153885199Y-94831585D01*
X153884466Y-94748703D01*
X153883516Y-94665677D01*
X153879550Y-94329250D01*
X153841855Y-94261193D01*
X153784464Y-94181227D01*
X153713712Y-94120519D01*
X153633210Y-94079698D01*
X153546564Y-94059393D01*
X153457385Y-94060234D01*
X153369281Y-94082849D01*
X153285859Y-94127869D01*
X153248433Y-94157716D01*
X153181638Y-94217542D01*
X153127225Y-94163130D01*
X153054646Y-94107049D01*
X152973567Y-94072410D01*
X152887783Y-94058430D01*
X152801093Y-94064327D01*
G37*
X152801093Y-94064327D02*
X152717293Y-94089318D01*
X152640180Y-94132620D01*
X152573550Y-94193452D01*
X152521203Y-94271031D01*
X152512147Y-94289894D01*
X152503112Y-94311387D01*
X152496096Y-94332979D01*
X152490785Y-94358252D01*
X152486868Y-94390787D01*
X152484032Y-94434168D01*
X152481964Y-94491976D01*
X152480351Y-94567794D01*
X152478881Y-94665203D01*
X152478786Y-94672150D01*
X152477557Y-94777969D01*
X152477425Y-94861119D01*
X152478892Y-94924324D01*
X152482461Y-94970309D01*
X152488632Y-95001797D01*
X152497908Y-95021512D01*
X152510790Y-95032179D01*
X152527781Y-95036521D01*
X152546050Y-95037275D01*
X152566803Y-95036042D01*
X152582990Y-95030480D01*
X152595181Y-95017790D01*
X152603943Y-94995177D01*
X152609845Y-94959841D01*
X152613454Y-94908987D01*
X152615339Y-94839817D01*
X152616068Y-94749534D01*
X152616179Y-94691947D01*
X152616647Y-94585599D01*
X152618309Y-94501215D01*
X152621886Y-94435366D01*
X152628097Y-94384621D01*
X152637664Y-94345550D01*
X152651307Y-94314721D01*
X152669745Y-94288704D01*
X152693699Y-94264069D01*
X152708885Y-94250392D01*
X152769112Y-94213160D01*
X152837100Y-94196481D01*
X152907392Y-94199254D01*
X152974531Y-94220380D01*
X153033060Y-94258756D01*
X153077519Y-94313285D01*
X153084262Y-94326071D01*
X153092909Y-94345478D01*
X153099485Y-94365749D01*
X153104271Y-94390546D01*
X153107549Y-94423536D01*
X153109598Y-94468380D01*
X153110701Y-94528743D01*
X153111139Y-94608289D01*
X153111201Y-94676994D01*
X153111764Y-94773585D01*
X153113379Y-94856434D01*
X153115932Y-94922752D01*
X153119309Y-94969751D01*
X153123397Y-94994642D01*
X153124192Y-94996543D01*
X153152134Y-95029207D01*
X153186528Y-95039773D01*
X153219208Y-95028880D01*
X153249312Y-95009155D01*
X153253281Y-94688252D01*
X153254780Y-94581971D01*
X153256860Y-94497749D01*
X153260292Y-94432246D01*
X153265846Y-94382122D01*
X153274293Y-94344037D01*
X153286403Y-94314652D01*
X153302946Y-94290626D01*
X153324693Y-94268618D01*
X153352414Y-94245290D01*
X153356148Y-94242268D01*
X153413707Y-94210704D01*
X153481242Y-94196809D01*
X153551658Y-94200035D01*
X153617864Y-94219836D01*
X153672766Y-94255665D01*
X153684344Y-94267573D01*
X153704382Y-94291611D01*
X153720076Y-94314972D01*
X153732010Y-94341113D01*
X153740771Y-94373488D01*
X153746944Y-94415551D01*
X153751114Y-94470758D01*
X153753869Y-94542564D01*
X153755792Y-94634423D01*
X153756703Y-94694452D01*
X153758170Y-94791899D01*
X153759649Y-94867078D01*
X153761436Y-94923117D01*
X153763828Y-94963145D01*
X153767119Y-94990291D01*
X153771608Y-95007685D01*
X153777590Y-95018455D01*
X153785362Y-95025732D01*
X153788264Y-95027827D01*
X153814067Y-95043440D01*
X153833006Y-95043168D01*
X153857433Y-95026431D01*
X153859884Y-95024452D01*
X153868165Y-95017108D01*
X153874557Y-95008097D01*
X153879260Y-94994377D01*
X153882476Y-94972907D01*
X153884404Y-94940646D01*
X153885245Y-94894552D01*
X153885199Y-94831585D01*
X153884466Y-94748703D01*
X153883516Y-94665677D01*
X153879550Y-94329250D01*
X153841855Y-94261193D01*
X153784464Y-94181227D01*
X153713712Y-94120519D01*
X153633210Y-94079698D01*
X153546564Y-94059393D01*
X153457385Y-94060234D01*
X153369281Y-94082849D01*
X153285859Y-94127869D01*
X153248433Y-94157716D01*
X153181638Y-94217542D01*
X153127225Y-94163130D01*
X153054646Y-94107049D01*
X152973567Y-94072410D01*
X152887783Y-94058430D01*
X152801093Y-94064327D01*
G36*
X148145775Y-94057745D02*
G01*
X148130648Y-94064304D01*
X148119188Y-94078755D01*
X148110764Y-94103979D01*
X148104746Y-94142857D01*
X148100505Y-94198270D01*
X148097409Y-94273097D01*
X148094829Y-94370219D01*
X148094632Y-94378776D01*
X148092344Y-94471454D01*
X148090011Y-94542489D01*
X148087247Y-94595633D01*
X148083663Y-94634642D01*
X148078872Y-94663269D01*
X148072487Y-94685267D01*
X148064120Y-94704392D01*
X148060238Y-94711878D01*
X148009152Y-94782483D01*
X147940655Y-94840584D01*
X147860813Y-94882514D01*
X147775693Y-94904607D01*
X147737272Y-94907100D01*
X147657397Y-94895215D01*
X147578969Y-94862107D01*
X147507689Y-94811590D01*
X147449262Y-94747482D01*
X147417451Y-94693094D01*
X147408377Y-94671013D01*
X147401379Y-94646999D01*
X147396068Y-94617170D01*
X147392056Y-94577645D01*
X147388953Y-94524541D01*
X147386371Y-94453979D01*
X147383921Y-94362076D01*
X147383807Y-94357333D01*
X147381326Y-94261709D01*
X147378576Y-94188565D01*
X147374811Y-94134987D01*
X147369285Y-94098059D01*
X147361254Y-94074868D01*
X147349972Y-94062498D01*
X147334693Y-94058033D01*
X147314673Y-94058560D01*
X147307595Y-94059260D01*
X147291193Y-94062232D01*
X147277883Y-94068989D01*
X147267347Y-94081954D01*
X147259265Y-94103552D01*
X147253317Y-94136208D01*
X147249183Y-94182344D01*
X147246546Y-94244386D01*
X147245084Y-94324757D01*
X147244479Y-94425883D01*
X147244403Y-94538800D01*
X147244753Y-94674163D01*
X147245814Y-94786954D01*
X147247848Y-94879998D01*
X147251119Y-94956119D01*
X147255887Y-95018142D01*
X147262417Y-95068890D01*
X147270970Y-95111189D01*
X147281810Y-95147862D01*
X147295197Y-95181734D01*
X147306365Y-95205574D01*
X147357330Y-95286832D01*
X147424152Y-95352984D01*
X147510648Y-95407608D01*
X147534114Y-95419099D01*
X147584700Y-95440515D01*
X147630291Y-95453229D01*
X147682249Y-95459776D01*
X147726181Y-95461972D01*
X147820228Y-95459975D01*
X147893089Y-95446845D01*
X147897532Y-95445475D01*
X147993318Y-95402100D01*
X148077779Y-95338310D01*
X148146892Y-95258020D01*
X148196636Y-95165140D01*
X148202871Y-95148400D01*
X148216070Y-95090939D01*
X148209769Y-95048977D01*
X148183810Y-95021547D01*
X148181844Y-95020459D01*
X148145412Y-95012431D01*
X148113350Y-95028903D01*
X148086594Y-95069208D01*
X148076274Y-95095721D01*
X148037498Y-95175325D01*
X147981412Y-95239636D01*
X147911835Y-95287453D01*
X147832588Y-95317578D01*
X147747491Y-95328812D01*
X147660365Y-95319954D01*
X147575030Y-95289804D01*
X147533756Y-95266059D01*
X147475040Y-95212934D01*
X147428790Y-95141813D01*
X147397559Y-95058086D01*
X147383899Y-94967144D01*
X147383500Y-94948803D01*
X147383500Y-94894442D01*
X147445193Y-94938764D01*
X147544614Y-94997075D01*
X147646475Y-95030408D01*
X147752389Y-95039167D01*
X147818352Y-95032830D01*
X147922531Y-95004016D01*
X148016823Y-94953761D01*
X148097981Y-94884982D01*
X148162756Y-94800594D01*
X148207900Y-94703516D01*
X148216302Y-94675502D01*
X148223714Y-94635426D01*
X148229068Y-94577458D01*
X148232486Y-94499404D01*
X148234089Y-94399071D01*
X148234250Y-94352382D01*
X148233966Y-94258100D01*
X148232523Y-94186203D01*
X148229216Y-94133678D01*
X148223346Y-94097514D01*
X148214208Y-94074699D01*
X148201102Y-94062222D01*
X148183324Y-94057070D01*
X148165198Y-94056199D01*
X148145775Y-94057745D01*
G37*
X148145775Y-94057745D02*
X148130648Y-94064304D01*
X148119188Y-94078755D01*
X148110764Y-94103979D01*
X148104746Y-94142857D01*
X148100505Y-94198270D01*
X148097409Y-94273097D01*
X148094829Y-94370219D01*
X148094632Y-94378776D01*
X148092344Y-94471454D01*
X148090011Y-94542489D01*
X148087247Y-94595633D01*
X148083663Y-94634642D01*
X148078872Y-94663269D01*
X148072487Y-94685267D01*
X148064120Y-94704392D01*
X148060238Y-94711878D01*
X148009152Y-94782483D01*
X147940655Y-94840584D01*
X147860813Y-94882514D01*
X147775693Y-94904607D01*
X147737272Y-94907100D01*
X147657397Y-94895215D01*
X147578969Y-94862107D01*
X147507689Y-94811590D01*
X147449262Y-94747482D01*
X147417451Y-94693094D01*
X147408377Y-94671013D01*
X147401379Y-94646999D01*
X147396068Y-94617170D01*
X147392056Y-94577645D01*
X147388953Y-94524541D01*
X147386371Y-94453979D01*
X147383921Y-94362076D01*
X147383807Y-94357333D01*
X147381326Y-94261709D01*
X147378576Y-94188565D01*
X147374811Y-94134987D01*
X147369285Y-94098059D01*
X147361254Y-94074868D01*
X147349972Y-94062498D01*
X147334693Y-94058033D01*
X147314673Y-94058560D01*
X147307595Y-94059260D01*
X147291193Y-94062232D01*
X147277883Y-94068989D01*
X147267347Y-94081954D01*
X147259265Y-94103552D01*
X147253317Y-94136208D01*
X147249183Y-94182344D01*
X147246546Y-94244386D01*
X147245084Y-94324757D01*
X147244479Y-94425883D01*
X147244403Y-94538800D01*
X147244753Y-94674163D01*
X147245814Y-94786954D01*
X147247848Y-94879998D01*
X147251119Y-94956119D01*
X147255887Y-95018142D01*
X147262417Y-95068890D01*
X147270970Y-95111189D01*
X147281810Y-95147862D01*
X147295197Y-95181734D01*
X147306365Y-95205574D01*
X147357330Y-95286832D01*
X147424152Y-95352984D01*
X147510648Y-95407608D01*
X147534114Y-95419099D01*
X147584700Y-95440515D01*
X147630291Y-95453229D01*
X147682249Y-95459776D01*
X147726181Y-95461972D01*
X147820228Y-95459975D01*
X147893089Y-95446845D01*
X147897532Y-95445475D01*
X147993318Y-95402100D01*
X148077779Y-95338310D01*
X148146892Y-95258020D01*
X148196636Y-95165140D01*
X148202871Y-95148400D01*
X148216070Y-95090939D01*
X148209769Y-95048977D01*
X148183810Y-95021547D01*
X148181844Y-95020459D01*
X148145412Y-95012431D01*
X148113350Y-95028903D01*
X148086594Y-95069208D01*
X148076274Y-95095721D01*
X148037498Y-95175325D01*
X147981412Y-95239636D01*
X147911835Y-95287453D01*
X147832588Y-95317578D01*
X147747491Y-95328812D01*
X147660365Y-95319954D01*
X147575030Y-95289804D01*
X147533756Y-95266059D01*
X147475040Y-95212934D01*
X147428790Y-95141813D01*
X147397559Y-95058086D01*
X147383899Y-94967144D01*
X147383500Y-94948803D01*
X147383500Y-94894442D01*
X147445193Y-94938764D01*
X147544614Y-94997075D01*
X147646475Y-95030408D01*
X147752389Y-95039167D01*
X147818352Y-95032830D01*
X147922531Y-95004016D01*
X148016823Y-94953761D01*
X148097981Y-94884982D01*
X148162756Y-94800594D01*
X148207900Y-94703516D01*
X148216302Y-94675502D01*
X148223714Y-94635426D01*
X148229068Y-94577458D01*
X148232486Y-94499404D01*
X148234089Y-94399071D01*
X148234250Y-94352382D01*
X148233966Y-94258100D01*
X148232523Y-94186203D01*
X148229216Y-94133678D01*
X148223346Y-94097514D01*
X148214208Y-94074699D01*
X148201102Y-94062222D01*
X148183324Y-94057070D01*
X148165198Y-94056199D01*
X148145775Y-94057745D01*
%TD*%
M02*
