%TF.GenerationSoftware,KiCad,Pcbnew,(5.1.8-0-10_14)*%
%TF.CreationDate,2021-08-13T15:07:17+08:00*%
%TF.ProjectId,microbyte-rp2040,6d696372-6f62-4797-9465-2d7270323034,rev?*%
%TF.SameCoordinates,Original*%
%TF.FileFunction,Copper,L2,Inr*%
%TF.FilePolarity,Positive*%
%FSLAX46Y46*%
G04 Gerber Fmt 4.6, Leading zero omitted, Abs format (unit mm)*
G04 Created by KiCad (PCBNEW (5.1.8-0-10_14)) date 2021-08-13 15:07:17*
%MOMM*%
%LPD*%
G01*
G04 APERTURE LIST*
%TA.AperFunction,ComponentPad*%
%ADD10C,0.600000*%
%TD*%
%TA.AperFunction,ComponentPad*%
%ADD11O,1.700000X1.700000*%
%TD*%
%TA.AperFunction,ComponentPad*%
%ADD12R,1.700000X1.700000*%
%TD*%
%TA.AperFunction,ComponentPad*%
%ADD13O,1.000000X2.100000*%
%TD*%
%TA.AperFunction,ComponentPad*%
%ADD14O,1.000000X1.600000*%
%TD*%
%TA.AperFunction,ViaPad*%
%ADD15C,0.800000*%
%TD*%
%TA.AperFunction,Conductor*%
%ADD16C,0.500000*%
%TD*%
%TA.AperFunction,Conductor*%
%ADD17C,0.254000*%
%TD*%
%TA.AperFunction,Conductor*%
%ADD18C,0.100000*%
%TD*%
G04 APERTURE END LIST*
D10*
%TO.N,GND*%
%TO.C,U4*%
X160955000Y-95115000D03*
X159680000Y-95115000D03*
X158405000Y-95115000D03*
X160955000Y-93840000D03*
X159680000Y-93840000D03*
X158405000Y-93840000D03*
X160955000Y-92565000D03*
X159680000Y-92565000D03*
X158405000Y-92565000D03*
%TD*%
D11*
%TO.N,I2C1_SCL*%
%TO.C,J4*%
X172800000Y-81090000D03*
%TO.N,Net-(J4-Pad39)*%
X172800000Y-83630000D03*
%TO.N,I2C1_SDA*%
X170260000Y-81090000D03*
%TO.N,Net-(J4-Pad37)*%
X170260000Y-83630000D03*
%TO.N,GPIO5*%
X167720000Y-81090000D03*
%TO.N,Net-(J4-Pad35)*%
X167720000Y-83630000D03*
%TO.N,SPI0_MISO*%
X165180000Y-81090000D03*
%TO.N,Net-(J4-Pad33)*%
X165180000Y-83630000D03*
%TO.N,SPI0_MOSI*%
X162640000Y-81090000D03*
%TO.N,Net-(J4-Pad31)*%
X162640000Y-83630000D03*
%TO.N,SPI0_SCK*%
X160100000Y-81090000D03*
%TO.N,Net-(J4-Pad29)*%
X160100000Y-83630000D03*
%TO.N,UART0_RX*%
X157560000Y-81090000D03*
%TO.N,Net-(J4-Pad27)*%
X157560000Y-83630000D03*
%TO.N,UART0_TX*%
X155020000Y-81090000D03*
%TO.N,GPIO25*%
X155020000Y-83630000D03*
%TO.N,GND*%
X152480000Y-81090000D03*
%TO.N,GPIO24*%
X152480000Y-83630000D03*
%TO.N,SWDCK*%
X149940000Y-81090000D03*
%TO.N,GPIO23*%
X149940000Y-83630000D03*
%TO.N,SWDIO*%
X147400000Y-81090000D03*
%TO.N,GPIO22*%
X147400000Y-83630000D03*
%TO.N,Net-(J4-Pad18)*%
X144860000Y-81090000D03*
%TO.N,GPIO21*%
X144860000Y-83630000D03*
%TO.N,ADC3*%
X142320000Y-81090000D03*
%TO.N,GPIO20*%
X142320000Y-83630000D03*
%TO.N,ADC2*%
X139780000Y-81090000D03*
%TO.N,GPIO19*%
X139780000Y-83630000D03*
%TO.N,ADC1*%
X137240000Y-81090000D03*
%TO.N,GPIO18*%
X137240000Y-83630000D03*
%TO.N,ADC0*%
X134700000Y-81090000D03*
%TO.N,GPIO17*%
X134700000Y-83630000D03*
%TO.N,GND*%
X132160000Y-81090000D03*
%TO.N,GPIO16*%
X132160000Y-83630000D03*
%TO.N,+3.3VA*%
X129620000Y-81090000D03*
%TO.N,+5V*%
X129620000Y-83630000D03*
%TO.N,+3V3*%
X127080000Y-81090000D03*
%TO.N,EN*%
X127080000Y-83630000D03*
%TO.N,RESET*%
X124540000Y-81090000D03*
D12*
%TO.N,+BATT*%
X124540000Y-83630000D03*
%TD*%
D13*
%TO.N,Net-(J3-PadS1)*%
%TO.C,J3*%
X163250000Y-103090000D03*
X154610000Y-103090000D03*
D14*
X154610000Y-107270000D03*
X163250000Y-107270000D03*
%TD*%
D15*
%TO.N,GND*%
X169620000Y-98870000D03*
X162409447Y-101830442D03*
X154640000Y-100059979D03*
X165510000Y-102120000D03*
X119050000Y-91530000D03*
X119040000Y-88290000D03*
X119040000Y-96230000D03*
X119050000Y-99450000D03*
X163980000Y-88930000D03*
X165449174Y-98340826D03*
X162720000Y-85970000D03*
X166830000Y-92510000D03*
X132720000Y-90300000D03*
X173820000Y-96750000D03*
X160610000Y-100099990D03*
X153540000Y-102120000D03*
X167100000Y-87270000D03*
X174510000Y-90489998D03*
X177660010Y-99600000D03*
X173140000Y-90480000D03*
X158460000Y-87060000D03*
X159520000Y-87060000D03*
X144310000Y-87970000D03*
X152530000Y-96790000D03*
X152610000Y-92530000D03*
X140370000Y-93690000D03*
X137850000Y-97140000D03*
X137860000Y-98300000D03*
X139320000Y-97670000D03*
X139260000Y-95980000D03*
X137790000Y-95480000D03*
X137150000Y-94090000D03*
X136640000Y-96210000D03*
X136530000Y-98360000D03*
X130930000Y-97140000D03*
X132230000Y-98390000D03*
X137250000Y-103980000D03*
X138540000Y-104000000D03*
X142640000Y-104030000D03*
X123910000Y-99050000D03*
X123490000Y-101620000D03*
X125760000Y-100780000D03*
X121690000Y-94950000D03*
X132220000Y-106830000D03*
X122740000Y-100120000D03*
X126730000Y-102210000D03*
X135050000Y-107460000D03*
X137500000Y-107460000D03*
X140110000Y-107470000D03*
X151070000Y-97160000D03*
X151310000Y-88490000D03*
X167890000Y-100060000D03*
X167280000Y-91050000D03*
X168130000Y-89520000D03*
X178280000Y-89430000D03*
X178320000Y-90880000D03*
X178360000Y-92420000D03*
X121710000Y-93480000D03*
X129700000Y-104440000D03*
X130800000Y-105760000D03*
X176700000Y-101810000D03*
X152180000Y-107760000D03*
X146990000Y-104200000D03*
X143680000Y-107360000D03*
X127889704Y-88452413D03*
X122120000Y-87050000D03*
X129120000Y-91470000D03*
%TO.N,+3V3*%
X155140000Y-99170000D03*
X179790000Y-101750000D03*
X131530000Y-94120000D03*
X130560000Y-87100000D03*
X162740000Y-99180000D03*
X144360000Y-99200000D03*
X160435145Y-87974905D03*
X159900000Y-98740000D03*
X164540000Y-97660000D03*
X164820000Y-92520000D03*
X149620000Y-98780000D03*
X154090000Y-97320000D03*
X153390000Y-88690000D03*
X140130000Y-86030000D03*
X130540000Y-90760000D03*
%TO.N,+5V*%
X171350000Y-102010000D03*
X151590000Y-101930000D03*
X177980000Y-95970000D03*
X151970000Y-104910000D03*
%TO.N,+BATT*%
X150000000Y-103300000D03*
%TO.N,+1V1*%
X159080260Y-91540011D03*
X157520000Y-96139989D03*
%TO.N,+3.3VA*%
X152560000Y-100099990D03*
X126920000Y-86959998D03*
%TO.N,SDIO_DAT0*%
X163270000Y-89830000D03*
X128600000Y-95750000D03*
X175190000Y-87790002D03*
%TO.N,SDIO_CLK*%
X161802168Y-91687833D03*
X130450000Y-94780000D03*
X175170000Y-88960000D03*
%TO.N,SDIO_CMD*%
X132650000Y-94550000D03*
X160580006Y-91540021D03*
X175430000Y-92450000D03*
%TO.N,SDIO_DAT3*%
X165290000Y-91330000D03*
X133750000Y-95180000D03*
X174349998Y-93240000D03*
%TO.N,SDIO_DAT2*%
X165400000Y-90120000D03*
X134840000Y-94570000D03*
X173350000Y-88310000D03*
%TO.N,SDIO_DAT1*%
X164323719Y-90084934D03*
X127795025Y-94784975D03*
X174430000Y-87050000D03*
%TO.N,GPIO5*%
X169349949Y-93497609D03*
%TO.N,SPI0_MISO*%
X169355621Y-94497595D03*
%TO.N,SPI0_MOSI*%
X169330000Y-95520000D03*
%TO.N,SPI0_SCK*%
X167750000Y-95590000D03*
%TO.N,UART0_RX*%
X167870000Y-97080000D03*
%TO.N,UART0_TX*%
X166780000Y-97080000D03*
%TO.N,GPIO25*%
X148720000Y-88370000D03*
%TO.N,GPIO24*%
X148740000Y-86850000D03*
%TO.N,GPIO23*%
X149920000Y-86950000D03*
%TO.N,GPIO22*%
X151100000Y-86910000D03*
%TO.N,GPIO21*%
X147640000Y-86820000D03*
%TO.N,GPIO20*%
X145610000Y-86790000D03*
%TO.N,ADC2*%
X145639997Y-88430000D03*
%TO.N,ADC1*%
X146640000Y-88430000D03*
%TO.N,ADC0*%
X147640000Y-88330000D03*
%TO.N,GPIO17*%
X156160000Y-87430000D03*
%TO.N,GPIO16*%
X156190000Y-86360000D03*
%TO.N,EN*%
X147930000Y-104820000D03*
%TO.N,RESET*%
X120520000Y-86460000D03*
X157472133Y-91792488D03*
%TO.N,QSPI_CS*%
X163010000Y-97250000D03*
X135890000Y-86490000D03*
%TO.N,QSPI_D3*%
X160284846Y-96064895D03*
X137520000Y-89780000D03*
%TO.N,QSPI_CLK*%
X161284673Y-96046167D03*
X142440000Y-89030000D03*
%TO.N,QSPI_D0*%
X163738102Y-99118389D03*
X137550000Y-90810000D03*
%TO.N,QSPI_D2*%
X164736841Y-99068147D03*
X135920000Y-89860000D03*
%TO.N,QSPI_D1*%
X161990000Y-95160000D03*
X135889629Y-87679629D03*
%TO.N,LED2_BUILT_IN*%
X162310000Y-89240000D03*
X131520000Y-88120000D03*
%TO.N,LED1_BUILT_IN*%
X162019979Y-92830000D03*
X166490000Y-99120000D03*
X128880000Y-89880000D03*
%TD*%
D16*
%TO.N,Net-(J3-PadS1)*%
X163250000Y-107270000D02*
X163250000Y-103090000D01*
X154610000Y-107270000D02*
X154610000Y-103090000D01*
X163250000Y-107270000D02*
X154610000Y-107270000D01*
%TD*%
D17*
%TO.N,GND*%
X178523893Y-79597670D02*
X178960498Y-79729489D01*
X179363185Y-79943600D01*
X179716612Y-80231848D01*
X180007327Y-80583261D01*
X180224242Y-80984439D01*
X180359106Y-81420113D01*
X180410000Y-81904344D01*
X180410000Y-84446694D01*
X180327731Y-84391724D01*
X180098081Y-84296600D01*
X179854286Y-84248106D01*
X179605714Y-84248106D01*
X179361919Y-84296600D01*
X179132269Y-84391724D01*
X178925589Y-84529823D01*
X178749823Y-84705589D01*
X178611724Y-84912269D01*
X178516600Y-85141919D01*
X178468106Y-85385714D01*
X178468106Y-85634286D01*
X178516600Y-85878081D01*
X178611724Y-86107731D01*
X178749823Y-86314411D01*
X178925589Y-86490177D01*
X179132269Y-86628276D01*
X179361919Y-86723400D01*
X179605714Y-86771894D01*
X179854286Y-86771894D01*
X180098081Y-86723400D01*
X180327731Y-86628276D01*
X180410000Y-86573306D01*
X180410001Y-100919487D01*
X180280256Y-100832795D01*
X180091898Y-100754774D01*
X179891939Y-100715000D01*
X179688061Y-100715000D01*
X179488102Y-100754774D01*
X179299744Y-100832795D01*
X179130226Y-100946063D01*
X178986063Y-101090226D01*
X178872795Y-101259744D01*
X178794774Y-101448102D01*
X178755000Y-101648061D01*
X178755000Y-101851939D01*
X178794774Y-102051898D01*
X178872795Y-102240256D01*
X178986063Y-102409774D01*
X179130226Y-102553937D01*
X179299744Y-102667205D01*
X179488102Y-102745226D01*
X179688061Y-102785000D01*
X179891939Y-102785000D01*
X180091898Y-102745226D01*
X180280256Y-102667205D01*
X180410001Y-102580512D01*
X180410001Y-105857711D01*
X180362330Y-106343894D01*
X180230512Y-106780497D01*
X180016399Y-107183186D01*
X179728150Y-107536613D01*
X179376739Y-107827327D01*
X178975564Y-108044240D01*
X178539886Y-108179106D01*
X178055664Y-108230000D01*
X164176637Y-108230000D01*
X164198284Y-108203623D01*
X164303676Y-108006446D01*
X164368577Y-107792498D01*
X164385000Y-107625751D01*
X164385000Y-106914248D01*
X164368577Y-106747501D01*
X164303676Y-106533553D01*
X164198284Y-106336377D01*
X164135000Y-106259265D01*
X164135000Y-105189033D01*
X175529545Y-105189033D01*
X175529545Y-105590967D01*
X175607958Y-105985179D01*
X175761772Y-106356518D01*
X175985075Y-106690714D01*
X176269286Y-106974925D01*
X176603482Y-107198228D01*
X176974821Y-107352042D01*
X177369033Y-107430455D01*
X177770967Y-107430455D01*
X178165179Y-107352042D01*
X178536518Y-107198228D01*
X178870714Y-106974925D01*
X179154925Y-106690714D01*
X179378228Y-106356518D01*
X179532042Y-105985179D01*
X179610455Y-105590967D01*
X179610455Y-105189033D01*
X179532042Y-104794821D01*
X179378228Y-104423482D01*
X179154925Y-104089286D01*
X178870714Y-103805075D01*
X178536518Y-103581772D01*
X178165179Y-103427958D01*
X177770967Y-103349545D01*
X177369033Y-103349545D01*
X176974821Y-103427958D01*
X176603482Y-103581772D01*
X176269286Y-103805075D01*
X175985075Y-104089286D01*
X175761772Y-104423482D01*
X175607958Y-104794821D01*
X175529545Y-105189033D01*
X164135000Y-105189033D01*
X164135000Y-104350735D01*
X164198284Y-104273623D01*
X164303676Y-104076447D01*
X164368577Y-103862499D01*
X164385000Y-103695752D01*
X164385000Y-102484248D01*
X164368577Y-102317501D01*
X164303676Y-102103553D01*
X164199185Y-101908061D01*
X170315000Y-101908061D01*
X170315000Y-102111939D01*
X170354774Y-102311898D01*
X170432795Y-102500256D01*
X170546063Y-102669774D01*
X170690226Y-102813937D01*
X170859744Y-102927205D01*
X171048102Y-103005226D01*
X171248061Y-103045000D01*
X171451939Y-103045000D01*
X171651898Y-103005226D01*
X171840256Y-102927205D01*
X172009774Y-102813937D01*
X172153937Y-102669774D01*
X172267205Y-102500256D01*
X172345226Y-102311898D01*
X172385000Y-102111939D01*
X172385000Y-101908061D01*
X172345226Y-101708102D01*
X172267205Y-101519744D01*
X172153937Y-101350226D01*
X172009774Y-101206063D01*
X171840256Y-101092795D01*
X171651898Y-101014774D01*
X171451939Y-100975000D01*
X171248061Y-100975000D01*
X171048102Y-101014774D01*
X170859744Y-101092795D01*
X170690226Y-101206063D01*
X170546063Y-101350226D01*
X170432795Y-101519744D01*
X170354774Y-101708102D01*
X170315000Y-101908061D01*
X164199185Y-101908061D01*
X164198284Y-101906377D01*
X164056449Y-101733551D01*
X163883623Y-101591716D01*
X163686446Y-101486324D01*
X163472498Y-101421423D01*
X163250000Y-101399509D01*
X163027501Y-101421423D01*
X162813553Y-101486324D01*
X162616377Y-101591716D01*
X162443551Y-101733551D01*
X162301716Y-101906377D01*
X162196324Y-102103554D01*
X162131423Y-102317502D01*
X162115000Y-102484249D01*
X162115000Y-102703096D01*
X162100022Y-102696892D01*
X161914552Y-102660000D01*
X161725448Y-102660000D01*
X161539978Y-102696892D01*
X161365269Y-102769259D01*
X161208036Y-102874319D01*
X161074319Y-103008036D01*
X160969259Y-103165269D01*
X160896892Y-103339978D01*
X160860000Y-103525448D01*
X160860000Y-103714552D01*
X160896892Y-103900022D01*
X160969259Y-104074731D01*
X161074319Y-104231964D01*
X161208036Y-104365681D01*
X161365269Y-104470741D01*
X161539978Y-104543108D01*
X161725448Y-104580000D01*
X161914552Y-104580000D01*
X162100022Y-104543108D01*
X162274731Y-104470741D01*
X162365001Y-104410425D01*
X162365000Y-106259265D01*
X162301716Y-106336377D01*
X162275727Y-106385000D01*
X155584273Y-106385000D01*
X155558284Y-106336377D01*
X155495000Y-106259265D01*
X155495000Y-104410425D01*
X155585269Y-104470741D01*
X155759978Y-104543108D01*
X155945448Y-104580000D01*
X156134552Y-104580000D01*
X156320022Y-104543108D01*
X156494731Y-104470741D01*
X156651964Y-104365681D01*
X156785681Y-104231964D01*
X156890741Y-104074731D01*
X156963108Y-103900022D01*
X157000000Y-103714552D01*
X157000000Y-103525448D01*
X156963108Y-103339978D01*
X156890741Y-103165269D01*
X156785681Y-103008036D01*
X156651964Y-102874319D01*
X156494731Y-102769259D01*
X156320022Y-102696892D01*
X156134552Y-102660000D01*
X155945448Y-102660000D01*
X155759978Y-102696892D01*
X155745000Y-102703096D01*
X155745000Y-102484248D01*
X155728577Y-102317501D01*
X155663676Y-102103553D01*
X155558284Y-101906377D01*
X155416449Y-101733551D01*
X155243623Y-101591716D01*
X155046446Y-101486324D01*
X154832498Y-101421423D01*
X154610000Y-101399509D01*
X154387501Y-101421423D01*
X154173553Y-101486324D01*
X153976377Y-101591716D01*
X153803551Y-101733551D01*
X153661716Y-101906377D01*
X153556324Y-102103554D01*
X153491423Y-102317502D01*
X153475000Y-102484249D01*
X153475000Y-103695752D01*
X153491423Y-103862499D01*
X153556324Y-104076447D01*
X153661717Y-104273623D01*
X153725001Y-104350734D01*
X153725000Y-106259265D01*
X153661716Y-106336377D01*
X153556324Y-106533554D01*
X153491423Y-106747502D01*
X153475000Y-106914249D01*
X153475000Y-107625752D01*
X153491423Y-107792499D01*
X153556324Y-108006447D01*
X153661717Y-108203623D01*
X153683364Y-108230000D01*
X123921478Y-108230000D01*
X124013400Y-108008081D01*
X124061894Y-107764286D01*
X124061894Y-107515714D01*
X124013400Y-107271919D01*
X123918276Y-107042269D01*
X123780177Y-106835589D01*
X123604411Y-106659823D01*
X123397731Y-106521724D01*
X123168081Y-106426600D01*
X122924286Y-106378106D01*
X122675714Y-106378106D01*
X122431919Y-106426600D01*
X122202269Y-106521724D01*
X121995589Y-106659823D01*
X121819823Y-106835589D01*
X121681724Y-107042269D01*
X121586600Y-107271919D01*
X121538106Y-107515714D01*
X121538106Y-107764286D01*
X121586600Y-108008081D01*
X121678522Y-108230000D01*
X119102279Y-108230000D01*
X118616106Y-108182330D01*
X118179503Y-108050512D01*
X117776814Y-107836399D01*
X117423387Y-107548150D01*
X117132673Y-107196739D01*
X116915760Y-106795564D01*
X116780894Y-106359886D01*
X116730000Y-105875664D01*
X116730000Y-105189033D01*
X117529545Y-105189033D01*
X117529545Y-105590967D01*
X117607958Y-105985179D01*
X117761772Y-106356518D01*
X117985075Y-106690714D01*
X118269286Y-106974925D01*
X118603482Y-107198228D01*
X118974821Y-107352042D01*
X119369033Y-107430455D01*
X119770967Y-107430455D01*
X120165179Y-107352042D01*
X120536518Y-107198228D01*
X120870714Y-106974925D01*
X121154925Y-106690714D01*
X121378228Y-106356518D01*
X121532042Y-105985179D01*
X121610455Y-105590967D01*
X121610455Y-105189033D01*
X121532042Y-104794821D01*
X121378228Y-104423482D01*
X121154925Y-104089286D01*
X120870714Y-103805075D01*
X120583459Y-103613137D01*
X126550000Y-103613137D01*
X126550000Y-103826863D01*
X126591696Y-104036483D01*
X126673485Y-104233940D01*
X126792225Y-104411647D01*
X126943353Y-104562775D01*
X127121060Y-104681515D01*
X127318517Y-104763304D01*
X127528137Y-104805000D01*
X127741863Y-104805000D01*
X127951483Y-104763304D01*
X128148940Y-104681515D01*
X128326647Y-104562775D01*
X128477775Y-104411647D01*
X128596515Y-104233940D01*
X128678304Y-104036483D01*
X128720000Y-103826863D01*
X128720000Y-103613137D01*
X134550000Y-103613137D01*
X134550000Y-103826863D01*
X134591696Y-104036483D01*
X134673485Y-104233940D01*
X134792225Y-104411647D01*
X134943353Y-104562775D01*
X135121060Y-104681515D01*
X135318517Y-104763304D01*
X135528137Y-104805000D01*
X135741863Y-104805000D01*
X135951483Y-104763304D01*
X136060709Y-104718061D01*
X146895000Y-104718061D01*
X146895000Y-104921939D01*
X146934774Y-105121898D01*
X147012795Y-105310256D01*
X147126063Y-105479774D01*
X147270226Y-105623937D01*
X147439744Y-105737205D01*
X147628102Y-105815226D01*
X147828061Y-105855000D01*
X148031939Y-105855000D01*
X148231898Y-105815226D01*
X148420256Y-105737205D01*
X148589774Y-105623937D01*
X148733937Y-105479774D01*
X148847205Y-105310256D01*
X148925226Y-105121898D01*
X148965000Y-104921939D01*
X148965000Y-104808061D01*
X150935000Y-104808061D01*
X150935000Y-105011939D01*
X150974774Y-105211898D01*
X151052795Y-105400256D01*
X151166063Y-105569774D01*
X151310226Y-105713937D01*
X151479744Y-105827205D01*
X151668102Y-105905226D01*
X151868061Y-105945000D01*
X152071939Y-105945000D01*
X152271898Y-105905226D01*
X152460256Y-105827205D01*
X152629774Y-105713937D01*
X152773937Y-105569774D01*
X152887205Y-105400256D01*
X152965226Y-105211898D01*
X153005000Y-105011939D01*
X153005000Y-104808061D01*
X152965226Y-104608102D01*
X152887205Y-104419744D01*
X152773937Y-104250226D01*
X152629774Y-104106063D01*
X152460256Y-103992795D01*
X152271898Y-103914774D01*
X152071939Y-103875000D01*
X151868061Y-103875000D01*
X151668102Y-103914774D01*
X151479744Y-103992795D01*
X151310226Y-104106063D01*
X151166063Y-104250226D01*
X151052795Y-104419744D01*
X150974774Y-104608102D01*
X150935000Y-104808061D01*
X148965000Y-104808061D01*
X148965000Y-104718061D01*
X148925226Y-104518102D01*
X148847205Y-104329744D01*
X148733937Y-104160226D01*
X148589774Y-104016063D01*
X148420256Y-103902795D01*
X148231898Y-103824774D01*
X148031939Y-103785000D01*
X147828061Y-103785000D01*
X147628102Y-103824774D01*
X147439744Y-103902795D01*
X147270226Y-104016063D01*
X147126063Y-104160226D01*
X147012795Y-104329744D01*
X146934774Y-104518102D01*
X146895000Y-104718061D01*
X136060709Y-104718061D01*
X136148940Y-104681515D01*
X136326647Y-104562775D01*
X136477775Y-104411647D01*
X136596515Y-104233940D01*
X136678304Y-104036483D01*
X136720000Y-103826863D01*
X136720000Y-103613137D01*
X136678304Y-103403517D01*
X136596515Y-103206060D01*
X136591171Y-103198061D01*
X148965000Y-103198061D01*
X148965000Y-103401939D01*
X149004774Y-103601898D01*
X149082795Y-103790256D01*
X149196063Y-103959774D01*
X149340226Y-104103937D01*
X149509744Y-104217205D01*
X149698102Y-104295226D01*
X149898061Y-104335000D01*
X150101939Y-104335000D01*
X150301898Y-104295226D01*
X150490256Y-104217205D01*
X150659774Y-104103937D01*
X150803937Y-103959774D01*
X150917205Y-103790256D01*
X150995226Y-103601898D01*
X151035000Y-103401939D01*
X151035000Y-103198061D01*
X150995226Y-102998102D01*
X150917205Y-102809744D01*
X150803937Y-102640226D01*
X150659774Y-102496063D01*
X150490256Y-102382795D01*
X150301898Y-102304774D01*
X150101939Y-102265000D01*
X149898061Y-102265000D01*
X149698102Y-102304774D01*
X149509744Y-102382795D01*
X149340226Y-102496063D01*
X149196063Y-102640226D01*
X149082795Y-102809744D01*
X149004774Y-102998102D01*
X148965000Y-103198061D01*
X136591171Y-103198061D01*
X136477775Y-103028353D01*
X136326647Y-102877225D01*
X136148940Y-102758485D01*
X135951483Y-102676696D01*
X135741863Y-102635000D01*
X135528137Y-102635000D01*
X135318517Y-102676696D01*
X135121060Y-102758485D01*
X134943353Y-102877225D01*
X134792225Y-103028353D01*
X134673485Y-103206060D01*
X134591696Y-103403517D01*
X134550000Y-103613137D01*
X128720000Y-103613137D01*
X128678304Y-103403517D01*
X128596515Y-103206060D01*
X128477775Y-103028353D01*
X128326647Y-102877225D01*
X128148940Y-102758485D01*
X127951483Y-102676696D01*
X127741863Y-102635000D01*
X127528137Y-102635000D01*
X127318517Y-102676696D01*
X127121060Y-102758485D01*
X126943353Y-102877225D01*
X126792225Y-103028353D01*
X126673485Y-103206060D01*
X126591696Y-103403517D01*
X126550000Y-103613137D01*
X120583459Y-103613137D01*
X120536518Y-103581772D01*
X120165179Y-103427958D01*
X119770967Y-103349545D01*
X119369033Y-103349545D01*
X118974821Y-103427958D01*
X118603482Y-103581772D01*
X118269286Y-103805075D01*
X117985075Y-104089286D01*
X117761772Y-104423482D01*
X117607958Y-104794821D01*
X117529545Y-105189033D01*
X116730000Y-105189033D01*
X116730000Y-101828061D01*
X150555000Y-101828061D01*
X150555000Y-102031939D01*
X150594774Y-102231898D01*
X150672795Y-102420256D01*
X150786063Y-102589774D01*
X150930226Y-102733937D01*
X151099744Y-102847205D01*
X151288102Y-102925226D01*
X151488061Y-102965000D01*
X151691939Y-102965000D01*
X151891898Y-102925226D01*
X152080256Y-102847205D01*
X152249774Y-102733937D01*
X152393937Y-102589774D01*
X152507205Y-102420256D01*
X152585226Y-102231898D01*
X152625000Y-102031939D01*
X152625000Y-101828061D01*
X152585226Y-101628102D01*
X152507205Y-101439744D01*
X152393937Y-101270226D01*
X152249774Y-101126063D01*
X152114727Y-101035828D01*
X152258102Y-101095216D01*
X152458061Y-101134990D01*
X152661939Y-101134990D01*
X152861898Y-101095216D01*
X153050256Y-101017195D01*
X153219774Y-100903927D01*
X153363937Y-100759764D01*
X153477205Y-100590246D01*
X153555226Y-100401888D01*
X153595000Y-100201929D01*
X153595000Y-99998051D01*
X153555226Y-99798092D01*
X153477205Y-99609734D01*
X153363937Y-99440216D01*
X153219774Y-99296053D01*
X153050256Y-99182785D01*
X152861898Y-99104764D01*
X152677379Y-99068061D01*
X154105000Y-99068061D01*
X154105000Y-99271939D01*
X154144774Y-99471898D01*
X154222795Y-99660256D01*
X154336063Y-99829774D01*
X154480226Y-99973937D01*
X154649744Y-100087205D01*
X154838102Y-100165226D01*
X155038061Y-100205000D01*
X155241939Y-100205000D01*
X155441898Y-100165226D01*
X155630256Y-100087205D01*
X155799774Y-99973937D01*
X155943937Y-99829774D01*
X156057205Y-99660256D01*
X156135226Y-99471898D01*
X156175000Y-99271939D01*
X156175000Y-99068061D01*
X156135226Y-98868102D01*
X156057205Y-98679744D01*
X156029354Y-98638061D01*
X158865000Y-98638061D01*
X158865000Y-98841939D01*
X158904774Y-99041898D01*
X158982795Y-99230256D01*
X159096063Y-99399774D01*
X159240226Y-99543937D01*
X159409744Y-99657205D01*
X159598102Y-99735226D01*
X159798061Y-99775000D01*
X160001939Y-99775000D01*
X160201898Y-99735226D01*
X160390256Y-99657205D01*
X160559774Y-99543937D01*
X160703937Y-99399774D01*
X160817205Y-99230256D01*
X160880246Y-99078061D01*
X161705000Y-99078061D01*
X161705000Y-99281939D01*
X161744774Y-99481898D01*
X161822795Y-99670256D01*
X161936063Y-99839774D01*
X162080226Y-99983937D01*
X162249744Y-100097205D01*
X162438102Y-100175226D01*
X162638061Y-100215000D01*
X162841939Y-100215000D01*
X163041898Y-100175226D01*
X163230256Y-100097205D01*
X163293909Y-100054674D01*
X163436204Y-100113615D01*
X163636163Y-100153389D01*
X163840041Y-100153389D01*
X164040000Y-100113615D01*
X164228358Y-100035594D01*
X164281751Y-99999918D01*
X164434943Y-100063373D01*
X164634902Y-100103147D01*
X164838780Y-100103147D01*
X165038739Y-100063373D01*
X165227097Y-99985352D01*
X165396615Y-99872084D01*
X165540778Y-99727921D01*
X165596097Y-99645130D01*
X165686063Y-99779774D01*
X165830226Y-99923937D01*
X165999744Y-100037205D01*
X166188102Y-100115226D01*
X166388061Y-100155000D01*
X166591939Y-100155000D01*
X166791898Y-100115226D01*
X166980256Y-100037205D01*
X167149774Y-99923937D01*
X167293937Y-99779774D01*
X167407205Y-99610256D01*
X167485226Y-99421898D01*
X167525000Y-99221939D01*
X167525000Y-99018061D01*
X167485226Y-98818102D01*
X167407205Y-98629744D01*
X167293937Y-98460226D01*
X167149774Y-98316063D01*
X166980256Y-98202795D01*
X166791898Y-98124774D01*
X166742760Y-98115000D01*
X166881939Y-98115000D01*
X167081898Y-98075226D01*
X167270256Y-97997205D01*
X167325000Y-97960626D01*
X167379744Y-97997205D01*
X167568102Y-98075226D01*
X167768061Y-98115000D01*
X167971939Y-98115000D01*
X168171898Y-98075226D01*
X168360256Y-97997205D01*
X168529774Y-97883937D01*
X168673937Y-97739774D01*
X168787205Y-97570256D01*
X168865226Y-97381898D01*
X168905000Y-97181939D01*
X168905000Y-96978061D01*
X168865226Y-96778102D01*
X168787205Y-96589744D01*
X168673937Y-96420226D01*
X168529774Y-96276063D01*
X168528500Y-96275211D01*
X168553937Y-96249774D01*
X168570810Y-96224521D01*
X168670226Y-96323937D01*
X168839744Y-96437205D01*
X169028102Y-96515226D01*
X169228061Y-96555000D01*
X169431939Y-96555000D01*
X169631898Y-96515226D01*
X169820256Y-96437205D01*
X169989774Y-96323937D01*
X170133937Y-96179774D01*
X170247205Y-96010256D01*
X170306104Y-95868061D01*
X176945000Y-95868061D01*
X176945000Y-96071939D01*
X176984774Y-96271898D01*
X177062795Y-96460256D01*
X177176063Y-96629774D01*
X177320226Y-96773937D01*
X177489744Y-96887205D01*
X177678102Y-96965226D01*
X177878061Y-97005000D01*
X178081939Y-97005000D01*
X178281898Y-96965226D01*
X178470256Y-96887205D01*
X178639774Y-96773937D01*
X178783937Y-96629774D01*
X178897205Y-96460256D01*
X178975226Y-96271898D01*
X179015000Y-96071939D01*
X179015000Y-95868061D01*
X178975226Y-95668102D01*
X178897205Y-95479744D01*
X178783937Y-95310226D01*
X178639774Y-95166063D01*
X178470256Y-95052795D01*
X178281898Y-94974774D01*
X178081939Y-94935000D01*
X177878061Y-94935000D01*
X177678102Y-94974774D01*
X177489744Y-95052795D01*
X177320226Y-95166063D01*
X177176063Y-95310226D01*
X177062795Y-95479744D01*
X176984774Y-95668102D01*
X176945000Y-95868061D01*
X170306104Y-95868061D01*
X170325226Y-95821898D01*
X170365000Y-95621939D01*
X170365000Y-95418061D01*
X170325226Y-95218102D01*
X170247205Y-95029744D01*
X170246020Y-95027970D01*
X170272826Y-94987851D01*
X170350847Y-94799493D01*
X170390621Y-94599534D01*
X170390621Y-94395656D01*
X170350847Y-94195697D01*
X170272826Y-94007339D01*
X170263484Y-93993358D01*
X170267154Y-93987865D01*
X170345175Y-93799507D01*
X170384949Y-93599548D01*
X170384949Y-93395670D01*
X170345175Y-93195711D01*
X170321296Y-93138061D01*
X173314998Y-93138061D01*
X173314998Y-93341939D01*
X173354772Y-93541898D01*
X173432793Y-93730256D01*
X173546061Y-93899774D01*
X173690224Y-94043937D01*
X173859742Y-94157205D01*
X174048100Y-94235226D01*
X174248059Y-94275000D01*
X174451937Y-94275000D01*
X174651896Y-94235226D01*
X174840254Y-94157205D01*
X175009772Y-94043937D01*
X175153935Y-93899774D01*
X175267203Y-93730256D01*
X175345224Y-93541898D01*
X175356542Y-93485000D01*
X175531939Y-93485000D01*
X175731898Y-93445226D01*
X175920256Y-93367205D01*
X176089774Y-93253937D01*
X176233937Y-93109774D01*
X176347205Y-92940256D01*
X176425226Y-92751898D01*
X176465000Y-92551939D01*
X176465000Y-92348061D01*
X176425226Y-92148102D01*
X176347205Y-91959744D01*
X176233937Y-91790226D01*
X176089774Y-91646063D01*
X175920256Y-91532795D01*
X175731898Y-91454774D01*
X175531939Y-91415000D01*
X175328061Y-91415000D01*
X175128102Y-91454774D01*
X174939744Y-91532795D01*
X174770226Y-91646063D01*
X174626063Y-91790226D01*
X174512795Y-91959744D01*
X174434774Y-92148102D01*
X174423456Y-92205000D01*
X174248059Y-92205000D01*
X174048100Y-92244774D01*
X173859742Y-92322795D01*
X173690224Y-92436063D01*
X173546061Y-92580226D01*
X173432793Y-92749744D01*
X173354772Y-92938102D01*
X173314998Y-93138061D01*
X170321296Y-93138061D01*
X170267154Y-93007353D01*
X170153886Y-92837835D01*
X170009723Y-92693672D01*
X169840205Y-92580404D01*
X169651847Y-92502383D01*
X169451888Y-92462609D01*
X169248010Y-92462609D01*
X169048051Y-92502383D01*
X168859693Y-92580404D01*
X168690175Y-92693672D01*
X168546012Y-92837835D01*
X168432744Y-93007353D01*
X168354723Y-93195711D01*
X168314949Y-93395670D01*
X168314949Y-93599548D01*
X168354723Y-93799507D01*
X168432744Y-93987865D01*
X168442086Y-94001846D01*
X168438416Y-94007339D01*
X168360395Y-94195697D01*
X168320621Y-94395656D01*
X168320621Y-94599534D01*
X168349745Y-94745953D01*
X168240256Y-94672795D01*
X168051898Y-94594774D01*
X167851939Y-94555000D01*
X167648061Y-94555000D01*
X167448102Y-94594774D01*
X167259744Y-94672795D01*
X167090226Y-94786063D01*
X166946063Y-94930226D01*
X166832795Y-95099744D01*
X166754774Y-95288102D01*
X166715000Y-95488061D01*
X166715000Y-95691939D01*
X166754774Y-95891898D01*
X166818191Y-96045000D01*
X166678061Y-96045000D01*
X166478102Y-96084774D01*
X166289744Y-96162795D01*
X166120226Y-96276063D01*
X165976063Y-96420226D01*
X165862795Y-96589744D01*
X165784774Y-96778102D01*
X165745000Y-96978061D01*
X165745000Y-97181939D01*
X165784774Y-97381898D01*
X165862795Y-97570256D01*
X165976063Y-97739774D01*
X166120226Y-97883937D01*
X166289744Y-97997205D01*
X166478102Y-98075226D01*
X166527240Y-98085000D01*
X166388061Y-98085000D01*
X166188102Y-98124774D01*
X165999744Y-98202795D01*
X165830226Y-98316063D01*
X165686063Y-98460226D01*
X165630744Y-98543017D01*
X165540778Y-98408373D01*
X165396615Y-98264210D01*
X165385864Y-98257026D01*
X165457205Y-98150256D01*
X165535226Y-97961898D01*
X165575000Y-97761939D01*
X165575000Y-97558061D01*
X165535226Y-97358102D01*
X165457205Y-97169744D01*
X165343937Y-97000226D01*
X165199774Y-96856063D01*
X165030256Y-96742795D01*
X164841898Y-96664774D01*
X164641939Y-96625000D01*
X164438061Y-96625000D01*
X164238102Y-96664774D01*
X164049744Y-96742795D01*
X163948270Y-96810598D01*
X163927205Y-96759744D01*
X163813937Y-96590226D01*
X163669774Y-96446063D01*
X163500256Y-96332795D01*
X163311898Y-96254774D01*
X163111939Y-96215000D01*
X162908061Y-96215000D01*
X162708102Y-96254774D01*
X162519744Y-96332795D01*
X162350226Y-96446063D01*
X162206063Y-96590226D01*
X162092795Y-96759744D01*
X162014774Y-96948102D01*
X161975000Y-97148061D01*
X161975000Y-97351939D01*
X162014774Y-97551898D01*
X162092795Y-97740256D01*
X162206063Y-97909774D01*
X162350226Y-98053937D01*
X162519744Y-98167205D01*
X162521912Y-98168103D01*
X162438102Y-98184774D01*
X162249744Y-98262795D01*
X162080226Y-98376063D01*
X161936063Y-98520226D01*
X161822795Y-98689744D01*
X161744774Y-98878102D01*
X161705000Y-99078061D01*
X160880246Y-99078061D01*
X160895226Y-99041898D01*
X160935000Y-98841939D01*
X160935000Y-98638061D01*
X160895226Y-98438102D01*
X160817205Y-98249744D01*
X160703937Y-98080226D01*
X160559774Y-97936063D01*
X160390256Y-97822795D01*
X160201898Y-97744774D01*
X160001939Y-97705000D01*
X159798061Y-97705000D01*
X159598102Y-97744774D01*
X159409744Y-97822795D01*
X159240226Y-97936063D01*
X159096063Y-98080226D01*
X158982795Y-98249744D01*
X158904774Y-98438102D01*
X158865000Y-98638061D01*
X156029354Y-98638061D01*
X155943937Y-98510226D01*
X155799774Y-98366063D01*
X155630256Y-98252795D01*
X155441898Y-98174774D01*
X155241939Y-98135000D01*
X155038061Y-98135000D01*
X154838102Y-98174774D01*
X154649744Y-98252795D01*
X154480226Y-98366063D01*
X154336063Y-98510226D01*
X154222795Y-98679744D01*
X154144774Y-98868102D01*
X154105000Y-99068061D01*
X152677379Y-99068061D01*
X152661939Y-99064990D01*
X152458061Y-99064990D01*
X152258102Y-99104764D01*
X152069744Y-99182785D01*
X151900226Y-99296053D01*
X151756063Y-99440216D01*
X151642795Y-99609734D01*
X151564774Y-99798092D01*
X151525000Y-99998051D01*
X151525000Y-100201929D01*
X151564774Y-100401888D01*
X151642795Y-100590246D01*
X151756063Y-100759764D01*
X151900226Y-100903927D01*
X152035273Y-100994162D01*
X151891898Y-100934774D01*
X151691939Y-100895000D01*
X151488061Y-100895000D01*
X151288102Y-100934774D01*
X151099744Y-101012795D01*
X150930226Y-101126063D01*
X150786063Y-101270226D01*
X150672795Y-101439744D01*
X150594774Y-101628102D01*
X150555000Y-101828061D01*
X116730000Y-101828061D01*
X116730000Y-99098061D01*
X143325000Y-99098061D01*
X143325000Y-99301939D01*
X143364774Y-99501898D01*
X143442795Y-99690256D01*
X143556063Y-99859774D01*
X143700226Y-100003937D01*
X143869744Y-100117205D01*
X144058102Y-100195226D01*
X144258061Y-100235000D01*
X144461939Y-100235000D01*
X144661898Y-100195226D01*
X144850256Y-100117205D01*
X145019774Y-100003937D01*
X145163937Y-99859774D01*
X145277205Y-99690256D01*
X145355226Y-99501898D01*
X145395000Y-99301939D01*
X145395000Y-99098061D01*
X145355226Y-98898102D01*
X145277205Y-98709744D01*
X145256036Y-98678061D01*
X148585000Y-98678061D01*
X148585000Y-98881939D01*
X148624774Y-99081898D01*
X148702795Y-99270256D01*
X148816063Y-99439774D01*
X148960226Y-99583937D01*
X149129744Y-99697205D01*
X149318102Y-99775226D01*
X149518061Y-99815000D01*
X149721939Y-99815000D01*
X149921898Y-99775226D01*
X150110256Y-99697205D01*
X150279774Y-99583937D01*
X150423937Y-99439774D01*
X150537205Y-99270256D01*
X150615226Y-99081898D01*
X150655000Y-98881939D01*
X150655000Y-98678061D01*
X150615226Y-98478102D01*
X150537205Y-98289744D01*
X150423937Y-98120226D01*
X150279774Y-97976063D01*
X150110256Y-97862795D01*
X149921898Y-97784774D01*
X149721939Y-97745000D01*
X149518061Y-97745000D01*
X149318102Y-97784774D01*
X149129744Y-97862795D01*
X148960226Y-97976063D01*
X148816063Y-98120226D01*
X148702795Y-98289744D01*
X148624774Y-98478102D01*
X148585000Y-98678061D01*
X145256036Y-98678061D01*
X145163937Y-98540226D01*
X145019774Y-98396063D01*
X144850256Y-98282795D01*
X144661898Y-98204774D01*
X144461939Y-98165000D01*
X144258061Y-98165000D01*
X144058102Y-98204774D01*
X143869744Y-98282795D01*
X143700226Y-98396063D01*
X143556063Y-98540226D01*
X143442795Y-98709744D01*
X143364774Y-98898102D01*
X143325000Y-99098061D01*
X116730000Y-99098061D01*
X116730000Y-98845000D01*
X116904476Y-98845000D01*
X117099606Y-98806186D01*
X117283414Y-98730050D01*
X117448837Y-98619518D01*
X117589518Y-98478837D01*
X117700050Y-98313414D01*
X117776186Y-98129606D01*
X117815000Y-97934476D01*
X117815000Y-97735524D01*
X118545000Y-97735524D01*
X118545000Y-97934476D01*
X118583814Y-98129606D01*
X118659950Y-98313414D01*
X118770482Y-98478837D01*
X118911163Y-98619518D01*
X119076586Y-98730050D01*
X119260394Y-98806186D01*
X119455524Y-98845000D01*
X119654476Y-98845000D01*
X119849606Y-98806186D01*
X120033414Y-98730050D01*
X120198837Y-98619518D01*
X120339518Y-98478837D01*
X120450050Y-98313414D01*
X120526186Y-98129606D01*
X120565000Y-97934476D01*
X120565000Y-97735524D01*
X120526186Y-97540394D01*
X120450050Y-97356586D01*
X120357491Y-97218061D01*
X153055000Y-97218061D01*
X153055000Y-97421939D01*
X153094774Y-97621898D01*
X153172795Y-97810256D01*
X153286063Y-97979774D01*
X153430226Y-98123937D01*
X153599744Y-98237205D01*
X153788102Y-98315226D01*
X153988061Y-98355000D01*
X154191939Y-98355000D01*
X154391898Y-98315226D01*
X154580256Y-98237205D01*
X154749774Y-98123937D01*
X154893937Y-97979774D01*
X155007205Y-97810256D01*
X155085226Y-97621898D01*
X155125000Y-97421939D01*
X155125000Y-97218061D01*
X155085226Y-97018102D01*
X155007205Y-96829744D01*
X154893937Y-96660226D01*
X154749774Y-96516063D01*
X154580256Y-96402795D01*
X154391898Y-96324774D01*
X154191939Y-96285000D01*
X153988061Y-96285000D01*
X153788102Y-96324774D01*
X153599744Y-96402795D01*
X153430226Y-96516063D01*
X153286063Y-96660226D01*
X153172795Y-96829744D01*
X153094774Y-97018102D01*
X153055000Y-97218061D01*
X120357491Y-97218061D01*
X120339518Y-97191163D01*
X120198837Y-97050482D01*
X120033414Y-96939950D01*
X119849606Y-96863814D01*
X119654476Y-96825000D01*
X119455524Y-96825000D01*
X119260394Y-96863814D01*
X119076586Y-96939950D01*
X118911163Y-97050482D01*
X118770482Y-97191163D01*
X118659950Y-97356586D01*
X118583814Y-97540394D01*
X118545000Y-97735524D01*
X117815000Y-97735524D01*
X117776186Y-97540394D01*
X117700050Y-97356586D01*
X117589518Y-97191163D01*
X117448837Y-97050482D01*
X117283414Y-96939950D01*
X117099606Y-96863814D01*
X116904476Y-96825000D01*
X116730000Y-96825000D01*
X116730000Y-94683036D01*
X126760025Y-94683036D01*
X126760025Y-94886914D01*
X126799799Y-95086873D01*
X126877820Y-95275231D01*
X126991088Y-95444749D01*
X127135251Y-95588912D01*
X127304769Y-95702180D01*
X127493127Y-95780201D01*
X127565000Y-95794497D01*
X127565000Y-95851939D01*
X127604774Y-96051898D01*
X127682795Y-96240256D01*
X127796063Y-96409774D01*
X127940226Y-96553937D01*
X128109744Y-96667205D01*
X128298102Y-96745226D01*
X128498061Y-96785000D01*
X128701939Y-96785000D01*
X128901898Y-96745226D01*
X129090256Y-96667205D01*
X129259774Y-96553937D01*
X129403937Y-96409774D01*
X129517205Y-96240256D01*
X129595226Y-96051898D01*
X129635000Y-95851939D01*
X129635000Y-95648061D01*
X129595226Y-95448102D01*
X129517205Y-95259744D01*
X129403937Y-95090226D01*
X129259774Y-94946063D01*
X129090256Y-94832795D01*
X128901898Y-94754774D01*
X128830025Y-94740478D01*
X128830025Y-94683036D01*
X128829036Y-94678061D01*
X129415000Y-94678061D01*
X129415000Y-94881939D01*
X129454774Y-95081898D01*
X129532795Y-95270256D01*
X129646063Y-95439774D01*
X129790226Y-95583937D01*
X129959744Y-95697205D01*
X130148102Y-95775226D01*
X130348061Y-95815000D01*
X130551939Y-95815000D01*
X130751898Y-95775226D01*
X130940256Y-95697205D01*
X131109774Y-95583937D01*
X131253937Y-95439774D01*
X131367205Y-95270256D01*
X131415944Y-95152590D01*
X131428061Y-95155000D01*
X131631939Y-95155000D01*
X131788638Y-95123831D01*
X131846063Y-95209774D01*
X131990226Y-95353937D01*
X132159744Y-95467205D01*
X132348102Y-95545226D01*
X132548061Y-95585000D01*
X132751939Y-95585000D01*
X132794014Y-95576631D01*
X132832795Y-95670256D01*
X132946063Y-95839774D01*
X133090226Y-95983937D01*
X133259744Y-96097205D01*
X133448102Y-96175226D01*
X133648061Y-96215000D01*
X133851939Y-96215000D01*
X134051898Y-96175226D01*
X134240256Y-96097205D01*
X134328787Y-96038050D01*
X156485000Y-96038050D01*
X156485000Y-96241928D01*
X156524774Y-96441887D01*
X156602795Y-96630245D01*
X156716063Y-96799763D01*
X156860226Y-96943926D01*
X157029744Y-97057194D01*
X157218102Y-97135215D01*
X157418061Y-97174989D01*
X157621939Y-97174989D01*
X157821898Y-97135215D01*
X158010256Y-97057194D01*
X158179774Y-96943926D01*
X158323937Y-96799763D01*
X158437205Y-96630245D01*
X158515226Y-96441887D01*
X158555000Y-96241928D01*
X158555000Y-96038422D01*
X158676061Y-96014574D01*
X158846351Y-95944408D01*
X158849425Y-95942763D01*
X158859936Y-95749541D01*
X158405000Y-95294605D01*
X158390858Y-95308748D01*
X158211253Y-95129143D01*
X158225395Y-95115000D01*
X158584605Y-95115000D01*
X158761969Y-95292364D01*
X158780426Y-95386061D01*
X158850592Y-95556351D01*
X158852237Y-95559425D01*
X159039201Y-95569596D01*
X159039541Y-95569936D01*
X159042500Y-95569775D01*
X159045459Y-95569936D01*
X159045799Y-95569596D01*
X159232763Y-95559425D01*
X159303562Y-95389397D01*
X159323055Y-95292340D01*
X159500395Y-95115000D01*
X159323031Y-94937636D01*
X159304574Y-94843939D01*
X159234408Y-94673649D01*
X159232763Y-94670575D01*
X159045799Y-94660404D01*
X159045459Y-94660064D01*
X159042500Y-94660225D01*
X159039541Y-94660064D01*
X159039201Y-94660404D01*
X158852237Y-94670575D01*
X158781438Y-94840603D01*
X158761945Y-94937660D01*
X158584605Y-95115000D01*
X158225395Y-95115000D01*
X157770459Y-94660064D01*
X157577237Y-94670575D01*
X157506438Y-94840603D01*
X157470172Y-95021176D01*
X157470016Y-95104989D01*
X157418061Y-95104989D01*
X157218102Y-95144763D01*
X157029744Y-95222784D01*
X156860226Y-95336052D01*
X156716063Y-95480215D01*
X156602795Y-95649733D01*
X156524774Y-95838091D01*
X156485000Y-96038050D01*
X134328787Y-96038050D01*
X134409774Y-95983937D01*
X134553937Y-95839774D01*
X134667205Y-95670256D01*
X134697571Y-95596946D01*
X134738061Y-95605000D01*
X134941939Y-95605000D01*
X135141898Y-95565226D01*
X135330256Y-95487205D01*
X135499774Y-95373937D01*
X135643937Y-95229774D01*
X135757205Y-95060256D01*
X135835226Y-94871898D01*
X135875000Y-94671939D01*
X135875000Y-94474541D01*
X157950064Y-94474541D01*
X157950225Y-94477500D01*
X157950064Y-94480459D01*
X157950404Y-94480799D01*
X157960575Y-94667763D01*
X158130603Y-94738562D01*
X158227660Y-94758055D01*
X158405000Y-94935395D01*
X158582364Y-94758031D01*
X158676061Y-94739574D01*
X158846351Y-94669408D01*
X158849425Y-94667763D01*
X158859596Y-94480799D01*
X158859936Y-94480459D01*
X158859775Y-94477500D01*
X158859936Y-94474541D01*
X159225064Y-94474541D01*
X159225225Y-94477500D01*
X159225064Y-94480459D01*
X159225404Y-94480799D01*
X159235575Y-94667763D01*
X159405603Y-94738562D01*
X159502660Y-94758055D01*
X159680000Y-94935395D01*
X159857364Y-94758031D01*
X159951061Y-94739574D01*
X160121351Y-94669408D01*
X160124425Y-94667763D01*
X160134596Y-94480799D01*
X160134936Y-94480459D01*
X160134775Y-94477500D01*
X160134936Y-94474541D01*
X160134596Y-94474201D01*
X160124425Y-94287237D01*
X159954397Y-94216438D01*
X159857340Y-94196945D01*
X159680000Y-94019605D01*
X159502636Y-94196969D01*
X159408939Y-94215426D01*
X159238649Y-94285592D01*
X159235575Y-94287237D01*
X159225404Y-94474201D01*
X159225064Y-94474541D01*
X158859936Y-94474541D01*
X158859596Y-94474201D01*
X158849425Y-94287237D01*
X158679397Y-94216438D01*
X158582340Y-94196945D01*
X158405000Y-94019605D01*
X158227636Y-94196969D01*
X158133939Y-94215426D01*
X157963649Y-94285592D01*
X157960575Y-94287237D01*
X157950404Y-94474201D01*
X157950064Y-94474541D01*
X135875000Y-94474541D01*
X135875000Y-94468061D01*
X135835226Y-94268102D01*
X135757205Y-94079744D01*
X135657387Y-93930355D01*
X157469829Y-93930355D01*
X157505426Y-94111061D01*
X157575592Y-94281351D01*
X157577237Y-94284425D01*
X157770459Y-94294936D01*
X158225395Y-93840000D01*
X158584605Y-93840000D01*
X158761969Y-94017364D01*
X158780426Y-94111061D01*
X158850592Y-94281351D01*
X158852237Y-94284425D01*
X159039201Y-94294596D01*
X159039541Y-94294936D01*
X159042500Y-94294775D01*
X159045459Y-94294936D01*
X159045799Y-94294596D01*
X159232763Y-94284425D01*
X159303562Y-94114397D01*
X159323055Y-94017340D01*
X159500395Y-93840000D01*
X159859605Y-93840000D01*
X160036969Y-94017364D01*
X160055426Y-94111061D01*
X160125592Y-94281351D01*
X160127237Y-94284425D01*
X160314201Y-94294596D01*
X160314541Y-94294936D01*
X160317500Y-94294775D01*
X160320459Y-94294936D01*
X160320799Y-94294596D01*
X160507763Y-94284425D01*
X160578562Y-94114397D01*
X160598055Y-94017340D01*
X160775395Y-93840000D01*
X160598031Y-93662636D01*
X160579574Y-93568939D01*
X160509408Y-93398649D01*
X160507763Y-93395575D01*
X160320799Y-93385404D01*
X160320459Y-93385064D01*
X160317500Y-93385225D01*
X160314541Y-93385064D01*
X160314201Y-93385404D01*
X160127237Y-93395575D01*
X160056438Y-93565603D01*
X160036945Y-93662660D01*
X159859605Y-93840000D01*
X159500395Y-93840000D01*
X159323031Y-93662636D01*
X159304574Y-93568939D01*
X159234408Y-93398649D01*
X159232763Y-93395575D01*
X159045799Y-93385404D01*
X159045459Y-93385064D01*
X159042500Y-93385225D01*
X159039541Y-93385064D01*
X159039201Y-93385404D01*
X158852237Y-93395575D01*
X158781438Y-93565603D01*
X158761945Y-93662660D01*
X158584605Y-93840000D01*
X158225395Y-93840000D01*
X157770459Y-93385064D01*
X157577237Y-93395575D01*
X157506438Y-93565603D01*
X157470172Y-93746176D01*
X157469829Y-93930355D01*
X135657387Y-93930355D01*
X135643937Y-93910226D01*
X135499774Y-93766063D01*
X135330256Y-93652795D01*
X135141898Y-93574774D01*
X134941939Y-93535000D01*
X134738061Y-93535000D01*
X134538102Y-93574774D01*
X134349744Y-93652795D01*
X134180226Y-93766063D01*
X134036063Y-93910226D01*
X133922795Y-94079744D01*
X133892429Y-94153054D01*
X133851939Y-94145000D01*
X133648061Y-94145000D01*
X133605986Y-94153369D01*
X133567205Y-94059744D01*
X133453937Y-93890226D01*
X133309774Y-93746063D01*
X133140256Y-93632795D01*
X132951898Y-93554774D01*
X132751939Y-93515000D01*
X132548061Y-93515000D01*
X132391362Y-93546169D01*
X132333937Y-93460226D01*
X132189774Y-93316063D01*
X132020256Y-93202795D01*
X132012401Y-93199541D01*
X157950064Y-93199541D01*
X157950225Y-93202500D01*
X157950064Y-93205459D01*
X157950404Y-93205799D01*
X157960575Y-93392763D01*
X158130603Y-93463562D01*
X158227660Y-93483055D01*
X158405000Y-93660395D01*
X158582364Y-93483031D01*
X158676061Y-93464574D01*
X158846351Y-93394408D01*
X158849425Y-93392763D01*
X158859596Y-93205799D01*
X158859936Y-93205459D01*
X158859775Y-93202500D01*
X158859936Y-93199541D01*
X159225064Y-93199541D01*
X159225225Y-93202500D01*
X159225064Y-93205459D01*
X159225404Y-93205799D01*
X159235575Y-93392763D01*
X159405603Y-93463562D01*
X159502660Y-93483055D01*
X159680000Y-93660395D01*
X159857364Y-93483031D01*
X159951061Y-93464574D01*
X160121351Y-93394408D01*
X160124425Y-93392763D01*
X160134596Y-93205799D01*
X160134936Y-93205459D01*
X160134775Y-93202500D01*
X160134936Y-93199541D01*
X160134596Y-93199201D01*
X160124425Y-93012237D01*
X159954397Y-92941438D01*
X159857340Y-92921945D01*
X159680000Y-92744605D01*
X159502636Y-92921969D01*
X159408939Y-92940426D01*
X159238649Y-93010592D01*
X159235575Y-93012237D01*
X159225404Y-93199201D01*
X159225064Y-93199541D01*
X158859936Y-93199541D01*
X158859596Y-93199201D01*
X158849425Y-93012237D01*
X158679397Y-92941438D01*
X158582340Y-92921945D01*
X158405000Y-92744605D01*
X158227636Y-92921969D01*
X158133939Y-92940426D01*
X157963649Y-93010592D01*
X157960575Y-93012237D01*
X157950404Y-93199201D01*
X157950064Y-93199541D01*
X132012401Y-93199541D01*
X131831898Y-93124774D01*
X131631939Y-93085000D01*
X131428061Y-93085000D01*
X131228102Y-93124774D01*
X131039744Y-93202795D01*
X130870226Y-93316063D01*
X130726063Y-93460226D01*
X130612795Y-93629744D01*
X130564056Y-93747410D01*
X130551939Y-93745000D01*
X130348061Y-93745000D01*
X130148102Y-93784774D01*
X129959744Y-93862795D01*
X129790226Y-93976063D01*
X129646063Y-94120226D01*
X129532795Y-94289744D01*
X129454774Y-94478102D01*
X129415000Y-94678061D01*
X128829036Y-94678061D01*
X128790251Y-94483077D01*
X128712230Y-94294719D01*
X128598962Y-94125201D01*
X128454799Y-93981038D01*
X128285281Y-93867770D01*
X128096923Y-93789749D01*
X127896964Y-93749975D01*
X127693086Y-93749975D01*
X127493127Y-93789749D01*
X127304769Y-93867770D01*
X127135251Y-93981038D01*
X126991088Y-94125201D01*
X126877820Y-94294719D01*
X126799799Y-94483077D01*
X126760025Y-94683036D01*
X116730000Y-94683036D01*
X116730000Y-90910000D01*
X116904476Y-90910000D01*
X117099606Y-90871186D01*
X117283414Y-90795050D01*
X117448837Y-90684518D01*
X117589518Y-90543837D01*
X117700050Y-90378414D01*
X117776186Y-90194606D01*
X117815000Y-89999476D01*
X117815000Y-89800524D01*
X118545000Y-89800524D01*
X118545000Y-89999476D01*
X118583814Y-90194606D01*
X118659950Y-90378414D01*
X118770482Y-90543837D01*
X118911163Y-90684518D01*
X119076586Y-90795050D01*
X119260394Y-90871186D01*
X119455524Y-90910000D01*
X119654476Y-90910000D01*
X119849606Y-90871186D01*
X120033414Y-90795050D01*
X120198837Y-90684518D01*
X120339518Y-90543837D01*
X120450050Y-90378414D01*
X120526186Y-90194606D01*
X120565000Y-89999476D01*
X120565000Y-89800524D01*
X120560532Y-89778061D01*
X127845000Y-89778061D01*
X127845000Y-89981939D01*
X127884774Y-90181898D01*
X127962795Y-90370256D01*
X128076063Y-90539774D01*
X128220226Y-90683937D01*
X128389744Y-90797205D01*
X128578102Y-90875226D01*
X128778061Y-90915000D01*
X128981939Y-90915000D01*
X129181898Y-90875226D01*
X129370256Y-90797205D01*
X129505000Y-90707172D01*
X129505000Y-90861939D01*
X129544774Y-91061898D01*
X129622795Y-91250256D01*
X129736063Y-91419774D01*
X129880226Y-91563937D01*
X130049744Y-91677205D01*
X130238102Y-91755226D01*
X130438061Y-91795000D01*
X130641939Y-91795000D01*
X130841898Y-91755226D01*
X131030256Y-91677205D01*
X131199774Y-91563937D01*
X131343937Y-91419774D01*
X131457205Y-91250256D01*
X131535226Y-91061898D01*
X131575000Y-90861939D01*
X131575000Y-90658061D01*
X131535226Y-90458102D01*
X131457205Y-90269744D01*
X131343937Y-90100226D01*
X131199774Y-89956063D01*
X131030256Y-89842795D01*
X130841898Y-89764774D01*
X130808150Y-89758061D01*
X134885000Y-89758061D01*
X134885000Y-89961939D01*
X134924774Y-90161898D01*
X135002795Y-90350256D01*
X135116063Y-90519774D01*
X135260226Y-90663937D01*
X135429744Y-90777205D01*
X135618102Y-90855226D01*
X135818061Y-90895000D01*
X136021939Y-90895000D01*
X136221898Y-90855226D01*
X136410256Y-90777205D01*
X136515194Y-90707088D01*
X136515000Y-90708061D01*
X136515000Y-90911939D01*
X136554774Y-91111898D01*
X136632795Y-91300256D01*
X136746063Y-91469774D01*
X136890226Y-91613937D01*
X137059744Y-91727205D01*
X137248102Y-91805226D01*
X137448061Y-91845000D01*
X137651939Y-91845000D01*
X137851898Y-91805226D01*
X138040256Y-91727205D01*
X138095115Y-91690549D01*
X156437133Y-91690549D01*
X156437133Y-91894427D01*
X156476907Y-92094386D01*
X156554928Y-92282744D01*
X156668196Y-92452262D01*
X156812359Y-92596425D01*
X156981877Y-92709693D01*
X157170235Y-92787714D01*
X157370194Y-92827488D01*
X157503737Y-92827488D01*
X157505426Y-92836061D01*
X157575592Y-93006351D01*
X157577237Y-93009425D01*
X157770459Y-93019936D01*
X158225395Y-92565000D01*
X158211253Y-92550858D01*
X158390858Y-92371253D01*
X158405000Y-92385395D01*
X158419143Y-92371253D01*
X158598748Y-92550858D01*
X158584605Y-92565000D01*
X158761969Y-92742364D01*
X158780426Y-92836061D01*
X158850592Y-93006351D01*
X158852237Y-93009425D01*
X159039201Y-93019596D01*
X159039541Y-93019936D01*
X159042500Y-93019775D01*
X159045459Y-93019936D01*
X159045799Y-93019596D01*
X159232763Y-93009425D01*
X159303562Y-92839397D01*
X159323055Y-92742340D01*
X159500395Y-92565000D01*
X159486253Y-92550858D01*
X159598777Y-92438333D01*
X159679201Y-92384596D01*
X159680000Y-92385395D01*
X159684019Y-92381376D01*
X159696156Y-92373266D01*
X159873748Y-92550858D01*
X159859605Y-92565000D01*
X160036969Y-92742364D01*
X160055426Y-92836061D01*
X160125592Y-93006351D01*
X160127237Y-93009425D01*
X160314201Y-93019596D01*
X160314541Y-93019936D01*
X160317500Y-93019775D01*
X160320459Y-93019936D01*
X160320799Y-93019596D01*
X160507763Y-93009425D01*
X160578562Y-92839397D01*
X160598055Y-92742340D01*
X160775395Y-92565000D01*
X160768249Y-92557854D01*
X160881904Y-92535247D01*
X161050766Y-92465302D01*
X161024753Y-92528102D01*
X160984979Y-92728061D01*
X160984979Y-92742911D01*
X160969143Y-92758748D01*
X160955000Y-92744605D01*
X160777636Y-92921969D01*
X160683939Y-92940426D01*
X160513649Y-93010592D01*
X160510575Y-93012237D01*
X160500404Y-93199201D01*
X160500064Y-93199541D01*
X160500225Y-93202500D01*
X160500064Y-93205459D01*
X160500404Y-93205799D01*
X160510575Y-93392763D01*
X160680603Y-93463562D01*
X160777660Y-93483055D01*
X160955000Y-93660395D01*
X160969143Y-93646253D01*
X161148748Y-93825858D01*
X161134605Y-93840000D01*
X161148748Y-93854143D01*
X160969143Y-94033748D01*
X160955000Y-94019605D01*
X160777636Y-94196969D01*
X160683939Y-94215426D01*
X160513649Y-94285592D01*
X160510575Y-94287237D01*
X160500404Y-94474201D01*
X160500064Y-94474541D01*
X160500225Y-94477500D01*
X160500064Y-94480459D01*
X160500404Y-94480799D01*
X160510575Y-94667763D01*
X160680603Y-94738562D01*
X160777660Y-94758055D01*
X160955000Y-94935395D01*
X160969143Y-94921253D01*
X160980044Y-94932154D01*
X160955000Y-95058061D01*
X160955000Y-95062446D01*
X160794417Y-95128962D01*
X160774428Y-95142318D01*
X160761253Y-95129143D01*
X160775395Y-95115000D01*
X160598031Y-94937636D01*
X160579574Y-94843939D01*
X160509408Y-94673649D01*
X160507763Y-94670575D01*
X160320799Y-94660404D01*
X160320459Y-94660064D01*
X160317500Y-94660225D01*
X160314541Y-94660064D01*
X160314201Y-94660404D01*
X160127237Y-94670575D01*
X160056438Y-94840603D01*
X160036945Y-94937660D01*
X159859605Y-95115000D01*
X159863678Y-95119073D01*
X159794590Y-95147690D01*
X159625072Y-95260958D01*
X159480909Y-95405121D01*
X159367641Y-95574639D01*
X159344783Y-95629822D01*
X159225064Y-95749541D01*
X159235575Y-95942763D01*
X159252464Y-95949795D01*
X159249846Y-95962956D01*
X159249846Y-96166834D01*
X159289620Y-96366793D01*
X159367641Y-96555151D01*
X159480909Y-96724669D01*
X159625072Y-96868832D01*
X159794590Y-96982100D01*
X159982948Y-97060121D01*
X160182907Y-97099895D01*
X160386785Y-97099895D01*
X160586744Y-97060121D01*
X160775102Y-96982100D01*
X160799796Y-96965600D01*
X160982775Y-97041393D01*
X161182734Y-97081167D01*
X161386612Y-97081167D01*
X161586571Y-97041393D01*
X161774929Y-96963372D01*
X161944447Y-96850104D01*
X162088610Y-96705941D01*
X162201878Y-96536423D01*
X162279899Y-96348065D01*
X162319673Y-96148106D01*
X162319673Y-96143721D01*
X162480256Y-96077205D01*
X162649774Y-95963937D01*
X162793937Y-95819774D01*
X162907205Y-95650256D01*
X162985226Y-95461898D01*
X163025000Y-95261939D01*
X163025000Y-95058061D01*
X162985226Y-94858102D01*
X162907205Y-94669744D01*
X162793937Y-94500226D01*
X162649774Y-94356063D01*
X162480256Y-94242795D01*
X162291898Y-94164774D01*
X162091939Y-94125000D01*
X161888061Y-94125000D01*
X161845633Y-94133439D01*
X161853562Y-94114397D01*
X161889828Y-93933824D01*
X161889967Y-93859416D01*
X161918040Y-93865000D01*
X162121918Y-93865000D01*
X162321877Y-93825226D01*
X162510235Y-93747205D01*
X162679753Y-93633937D01*
X162823916Y-93489774D01*
X162937184Y-93320256D01*
X163015205Y-93131898D01*
X163054979Y-92931939D01*
X163054979Y-92728061D01*
X163015205Y-92528102D01*
X162937184Y-92339744D01*
X162823916Y-92170226D01*
X162752296Y-92098606D01*
X162797394Y-91989731D01*
X162837168Y-91789772D01*
X162837168Y-91585894D01*
X162797394Y-91385935D01*
X162719373Y-91197577D01*
X162606105Y-91028059D01*
X162461942Y-90883896D01*
X162292424Y-90770628D01*
X162104066Y-90692607D01*
X161904107Y-90652833D01*
X161700229Y-90652833D01*
X161500270Y-90692607D01*
X161311912Y-90770628D01*
X161289380Y-90785684D01*
X161239780Y-90736084D01*
X161070262Y-90622816D01*
X160881904Y-90544795D01*
X160681945Y-90505021D01*
X160478067Y-90505021D01*
X160278108Y-90544795D01*
X160089750Y-90622816D01*
X159920232Y-90736084D01*
X159830138Y-90826178D01*
X159740034Y-90736074D01*
X159570516Y-90622806D01*
X159382158Y-90544785D01*
X159182199Y-90505011D01*
X158978321Y-90505011D01*
X158778362Y-90544785D01*
X158590004Y-90622806D01*
X158420486Y-90736074D01*
X158276323Y-90880237D01*
X158175094Y-91031738D01*
X158131907Y-90988551D01*
X157962389Y-90875283D01*
X157774031Y-90797262D01*
X157574072Y-90757488D01*
X157370194Y-90757488D01*
X157170235Y-90797262D01*
X156981877Y-90875283D01*
X156812359Y-90988551D01*
X156668196Y-91132714D01*
X156554928Y-91302232D01*
X156476907Y-91490590D01*
X156437133Y-91690549D01*
X138095115Y-91690549D01*
X138209774Y-91613937D01*
X138353937Y-91469774D01*
X138467205Y-91300256D01*
X138545226Y-91111898D01*
X138585000Y-90911939D01*
X138585000Y-90708061D01*
X138545226Y-90508102D01*
X138467205Y-90319744D01*
X138435672Y-90272551D01*
X138437205Y-90270256D01*
X138515226Y-90081898D01*
X138555000Y-89881939D01*
X138555000Y-89678061D01*
X138515226Y-89478102D01*
X138437205Y-89289744D01*
X138323937Y-89120226D01*
X138179774Y-88976063D01*
X138107934Y-88928061D01*
X141405000Y-88928061D01*
X141405000Y-89131939D01*
X141444774Y-89331898D01*
X141522795Y-89520256D01*
X141636063Y-89689774D01*
X141780226Y-89833937D01*
X141949744Y-89947205D01*
X142138102Y-90025226D01*
X142338061Y-90065000D01*
X142541939Y-90065000D01*
X142741898Y-90025226D01*
X142930256Y-89947205D01*
X143099774Y-89833937D01*
X143243937Y-89689774D01*
X143357205Y-89520256D01*
X143435226Y-89331898D01*
X143475000Y-89131939D01*
X143475000Y-88928061D01*
X143435226Y-88728102D01*
X143357205Y-88539744D01*
X143243937Y-88370226D01*
X143099774Y-88226063D01*
X142930256Y-88112795D01*
X142741898Y-88034774D01*
X142541939Y-87995000D01*
X142338061Y-87995000D01*
X142138102Y-88034774D01*
X141949744Y-88112795D01*
X141780226Y-88226063D01*
X141636063Y-88370226D01*
X141522795Y-88539744D01*
X141444774Y-88728102D01*
X141405000Y-88928061D01*
X138107934Y-88928061D01*
X138010256Y-88862795D01*
X137821898Y-88784774D01*
X137621939Y-88745000D01*
X137418061Y-88745000D01*
X137218102Y-88784774D01*
X137029744Y-88862795D01*
X136860226Y-88976063D01*
X136716063Y-89120226D01*
X136687173Y-89163462D01*
X136579774Y-89056063D01*
X136410256Y-88942795D01*
X136221898Y-88864774D01*
X136021939Y-88825000D01*
X135818061Y-88825000D01*
X135618102Y-88864774D01*
X135429744Y-88942795D01*
X135260226Y-89056063D01*
X135116063Y-89200226D01*
X135002795Y-89369744D01*
X134924774Y-89558102D01*
X134885000Y-89758061D01*
X130808150Y-89758061D01*
X130641939Y-89725000D01*
X130438061Y-89725000D01*
X130238102Y-89764774D01*
X130049744Y-89842795D01*
X129915000Y-89932828D01*
X129915000Y-89778061D01*
X129875226Y-89578102D01*
X129797205Y-89389744D01*
X129683937Y-89220226D01*
X129539774Y-89076063D01*
X129370256Y-88962795D01*
X129181898Y-88884774D01*
X128981939Y-88845000D01*
X128778061Y-88845000D01*
X128578102Y-88884774D01*
X128389744Y-88962795D01*
X128220226Y-89076063D01*
X128076063Y-89220226D01*
X127962795Y-89389744D01*
X127884774Y-89578102D01*
X127845000Y-89778061D01*
X120560532Y-89778061D01*
X120526186Y-89605394D01*
X120450050Y-89421586D01*
X120339518Y-89256163D01*
X120198837Y-89115482D01*
X120033414Y-89004950D01*
X119849606Y-88928814D01*
X119654476Y-88890000D01*
X119455524Y-88890000D01*
X119260394Y-88928814D01*
X119076586Y-89004950D01*
X118911163Y-89115482D01*
X118770482Y-89256163D01*
X118659950Y-89421586D01*
X118583814Y-89605394D01*
X118545000Y-89800524D01*
X117815000Y-89800524D01*
X117776186Y-89605394D01*
X117700050Y-89421586D01*
X117589518Y-89256163D01*
X117448837Y-89115482D01*
X117283414Y-89004950D01*
X117099606Y-88928814D01*
X116904476Y-88890000D01*
X116730000Y-88890000D01*
X116730000Y-86358061D01*
X119485000Y-86358061D01*
X119485000Y-86561939D01*
X119524774Y-86761898D01*
X119602795Y-86950256D01*
X119716063Y-87119774D01*
X119860226Y-87263937D01*
X120029744Y-87377205D01*
X120218102Y-87455226D01*
X120418061Y-87495000D01*
X120621939Y-87495000D01*
X120821898Y-87455226D01*
X121010256Y-87377205D01*
X121179774Y-87263937D01*
X121323937Y-87119774D01*
X121437205Y-86950256D01*
X121475394Y-86858059D01*
X125885000Y-86858059D01*
X125885000Y-87061937D01*
X125924774Y-87261896D01*
X126002795Y-87450254D01*
X126116063Y-87619772D01*
X126260226Y-87763935D01*
X126429744Y-87877203D01*
X126618102Y-87955224D01*
X126818061Y-87994998D01*
X127021939Y-87994998D01*
X127221898Y-87955224D01*
X127410256Y-87877203D01*
X127579774Y-87763935D01*
X127723937Y-87619772D01*
X127837205Y-87450254D01*
X127915226Y-87261896D01*
X127955000Y-87061937D01*
X127955000Y-86998061D01*
X129525000Y-86998061D01*
X129525000Y-87201939D01*
X129564774Y-87401898D01*
X129642795Y-87590256D01*
X129756063Y-87759774D01*
X129900226Y-87903937D01*
X130069744Y-88017205D01*
X130258102Y-88095226D01*
X130458061Y-88135000D01*
X130485000Y-88135000D01*
X130485000Y-88221939D01*
X130524774Y-88421898D01*
X130602795Y-88610256D01*
X130716063Y-88779774D01*
X130860226Y-88923937D01*
X131029744Y-89037205D01*
X131218102Y-89115226D01*
X131418061Y-89155000D01*
X131621939Y-89155000D01*
X131821898Y-89115226D01*
X132010256Y-89037205D01*
X132179774Y-88923937D01*
X132323937Y-88779774D01*
X132437205Y-88610256D01*
X132515226Y-88421898D01*
X132555000Y-88221939D01*
X132555000Y-88018061D01*
X132515226Y-87818102D01*
X132437205Y-87629744D01*
X132402424Y-87577690D01*
X134854629Y-87577690D01*
X134854629Y-87781568D01*
X134894403Y-87981527D01*
X134972424Y-88169885D01*
X135085692Y-88339403D01*
X135229855Y-88483566D01*
X135399373Y-88596834D01*
X135587731Y-88674855D01*
X135787690Y-88714629D01*
X135991568Y-88714629D01*
X136191527Y-88674855D01*
X136379885Y-88596834D01*
X136549403Y-88483566D01*
X136693566Y-88339403D01*
X136806834Y-88169885D01*
X136884855Y-87981527D01*
X136924629Y-87781568D01*
X136924629Y-87577690D01*
X136884855Y-87377731D01*
X136806834Y-87189373D01*
X136737156Y-87085092D01*
X136807205Y-86980256D01*
X136885226Y-86791898D01*
X136925000Y-86591939D01*
X136925000Y-86388061D01*
X136885226Y-86188102D01*
X136807205Y-85999744D01*
X136693937Y-85830226D01*
X136549774Y-85686063D01*
X136380256Y-85572795D01*
X136191898Y-85494774D01*
X135991939Y-85455000D01*
X135788061Y-85455000D01*
X135588102Y-85494774D01*
X135399744Y-85572795D01*
X135230226Y-85686063D01*
X135086063Y-85830226D01*
X134972795Y-85999744D01*
X134894774Y-86188102D01*
X134855000Y-86388061D01*
X134855000Y-86591939D01*
X134894774Y-86791898D01*
X134972795Y-86980256D01*
X135042473Y-87084537D01*
X134972424Y-87189373D01*
X134894403Y-87377731D01*
X134854629Y-87577690D01*
X132402424Y-87577690D01*
X132323937Y-87460226D01*
X132179774Y-87316063D01*
X132010256Y-87202795D01*
X131821898Y-87124774D01*
X131621939Y-87085000D01*
X131595000Y-87085000D01*
X131595000Y-86998061D01*
X131555226Y-86798102D01*
X131477205Y-86609744D01*
X131363937Y-86440226D01*
X131219774Y-86296063D01*
X131050256Y-86182795D01*
X130861898Y-86104774D01*
X130661939Y-86065000D01*
X130458061Y-86065000D01*
X130258102Y-86104774D01*
X130069744Y-86182795D01*
X129900226Y-86296063D01*
X129756063Y-86440226D01*
X129642795Y-86609744D01*
X129564774Y-86798102D01*
X129525000Y-86998061D01*
X127955000Y-86998061D01*
X127955000Y-86858059D01*
X127915226Y-86658100D01*
X127837205Y-86469742D01*
X127723937Y-86300224D01*
X127579774Y-86156061D01*
X127410256Y-86042793D01*
X127221898Y-85964772D01*
X127021939Y-85924998D01*
X126818061Y-85924998D01*
X126618102Y-85964772D01*
X126429744Y-86042793D01*
X126260226Y-86156061D01*
X126116063Y-86300224D01*
X126002795Y-86469742D01*
X125924774Y-86658100D01*
X125885000Y-86858059D01*
X121475394Y-86858059D01*
X121515226Y-86761898D01*
X121555000Y-86561939D01*
X121555000Y-86358061D01*
X121515226Y-86158102D01*
X121437205Y-85969744D01*
X121323937Y-85800226D01*
X121179774Y-85656063D01*
X121010256Y-85542795D01*
X120821898Y-85464774D01*
X120621939Y-85425000D01*
X120418061Y-85425000D01*
X120218102Y-85464774D01*
X120029744Y-85542795D01*
X119860226Y-85656063D01*
X119716063Y-85800226D01*
X119602795Y-85969744D01*
X119524774Y-86158102D01*
X119485000Y-86358061D01*
X116730000Y-86358061D01*
X116730000Y-82189033D01*
X117529545Y-82189033D01*
X117529545Y-82590967D01*
X117607958Y-82985179D01*
X117761772Y-83356518D01*
X117985075Y-83690714D01*
X118269286Y-83974925D01*
X118603482Y-84198228D01*
X118974821Y-84352042D01*
X119369033Y-84430455D01*
X119770967Y-84430455D01*
X120165179Y-84352042D01*
X120536518Y-84198228D01*
X120870714Y-83974925D01*
X121154925Y-83690714D01*
X121378228Y-83356518D01*
X121532042Y-82985179D01*
X121572854Y-82780000D01*
X123051928Y-82780000D01*
X123051928Y-84480000D01*
X123064188Y-84604482D01*
X123100498Y-84724180D01*
X123159463Y-84834494D01*
X123238815Y-84931185D01*
X123335506Y-85010537D01*
X123445820Y-85069502D01*
X123565518Y-85105812D01*
X123690000Y-85118072D01*
X125390000Y-85118072D01*
X125514482Y-85105812D01*
X125634180Y-85069502D01*
X125744494Y-85010537D01*
X125841185Y-84931185D01*
X125920537Y-84834494D01*
X125979502Y-84724180D01*
X126001513Y-84651620D01*
X126133368Y-84783475D01*
X126376589Y-84945990D01*
X126646842Y-85057932D01*
X126933740Y-85115000D01*
X127226260Y-85115000D01*
X127513158Y-85057932D01*
X127783411Y-84945990D01*
X128026632Y-84783475D01*
X128233475Y-84576632D01*
X128350000Y-84402240D01*
X128466525Y-84576632D01*
X128673368Y-84783475D01*
X128916589Y-84945990D01*
X129186842Y-85057932D01*
X129473740Y-85115000D01*
X129766260Y-85115000D01*
X130053158Y-85057932D01*
X130323411Y-84945990D01*
X130566632Y-84783475D01*
X130773475Y-84576632D01*
X130890000Y-84402240D01*
X131006525Y-84576632D01*
X131213368Y-84783475D01*
X131456589Y-84945990D01*
X131726842Y-85057932D01*
X132013740Y-85115000D01*
X132306260Y-85115000D01*
X132593158Y-85057932D01*
X132863411Y-84945990D01*
X133106632Y-84783475D01*
X133313475Y-84576632D01*
X133430000Y-84402240D01*
X133546525Y-84576632D01*
X133753368Y-84783475D01*
X133996589Y-84945990D01*
X134266842Y-85057932D01*
X134553740Y-85115000D01*
X134846260Y-85115000D01*
X135133158Y-85057932D01*
X135403411Y-84945990D01*
X135646632Y-84783475D01*
X135853475Y-84576632D01*
X135970000Y-84402240D01*
X136086525Y-84576632D01*
X136293368Y-84783475D01*
X136536589Y-84945990D01*
X136806842Y-85057932D01*
X137093740Y-85115000D01*
X137386260Y-85115000D01*
X137673158Y-85057932D01*
X137943411Y-84945990D01*
X138186632Y-84783475D01*
X138393475Y-84576632D01*
X138510000Y-84402240D01*
X138626525Y-84576632D01*
X138833368Y-84783475D01*
X139076589Y-84945990D01*
X139346842Y-85057932D01*
X139633740Y-85115000D01*
X139636444Y-85115000D01*
X139470226Y-85226063D01*
X139326063Y-85370226D01*
X139212795Y-85539744D01*
X139134774Y-85728102D01*
X139095000Y-85928061D01*
X139095000Y-86131939D01*
X139134774Y-86331898D01*
X139212795Y-86520256D01*
X139326063Y-86689774D01*
X139470226Y-86833937D01*
X139639744Y-86947205D01*
X139828102Y-87025226D01*
X140028061Y-87065000D01*
X140231939Y-87065000D01*
X140431898Y-87025226D01*
X140620256Y-86947205D01*
X140789774Y-86833937D01*
X140933937Y-86689774D01*
X140935081Y-86688061D01*
X144575000Y-86688061D01*
X144575000Y-86891939D01*
X144614774Y-87091898D01*
X144692795Y-87280256D01*
X144806063Y-87449774D01*
X144950226Y-87593937D01*
X144989265Y-87620022D01*
X144980223Y-87626063D01*
X144836060Y-87770226D01*
X144722792Y-87939744D01*
X144644771Y-88128102D01*
X144604997Y-88328061D01*
X144604997Y-88531939D01*
X144644771Y-88731898D01*
X144722792Y-88920256D01*
X144836060Y-89089774D01*
X144980223Y-89233937D01*
X145149741Y-89347205D01*
X145338099Y-89425226D01*
X145538058Y-89465000D01*
X145741936Y-89465000D01*
X145941895Y-89425226D01*
X146130253Y-89347205D01*
X146139999Y-89340693D01*
X146149744Y-89347205D01*
X146338102Y-89425226D01*
X146538061Y-89465000D01*
X146741939Y-89465000D01*
X146941898Y-89425226D01*
X147130256Y-89347205D01*
X147230102Y-89280490D01*
X147338102Y-89325226D01*
X147538061Y-89365000D01*
X147741939Y-89365000D01*
X147941898Y-89325226D01*
X148130256Y-89247205D01*
X148150068Y-89233967D01*
X148229744Y-89287205D01*
X148418102Y-89365226D01*
X148618061Y-89405000D01*
X148821939Y-89405000D01*
X149021898Y-89365226D01*
X149210256Y-89287205D01*
X149379774Y-89173937D01*
X149523937Y-89029774D01*
X149637205Y-88860256D01*
X149715226Y-88671898D01*
X149731902Y-88588061D01*
X152355000Y-88588061D01*
X152355000Y-88791939D01*
X152394774Y-88991898D01*
X152472795Y-89180256D01*
X152586063Y-89349774D01*
X152730226Y-89493937D01*
X152899744Y-89607205D01*
X153088102Y-89685226D01*
X153288061Y-89725000D01*
X153491939Y-89725000D01*
X153691898Y-89685226D01*
X153880256Y-89607205D01*
X154049774Y-89493937D01*
X154193937Y-89349774D01*
X154307205Y-89180256D01*
X154324682Y-89138061D01*
X161275000Y-89138061D01*
X161275000Y-89341939D01*
X161314774Y-89541898D01*
X161392795Y-89730256D01*
X161506063Y-89899774D01*
X161650226Y-90043937D01*
X161819744Y-90157205D01*
X162008102Y-90235226D01*
X162208061Y-90275000D01*
X162334049Y-90275000D01*
X162352795Y-90320256D01*
X162466063Y-90489774D01*
X162610226Y-90633937D01*
X162779744Y-90747205D01*
X162968102Y-90825226D01*
X163168061Y-90865000D01*
X163371939Y-90865000D01*
X163571898Y-90825226D01*
X163591981Y-90816907D01*
X163663945Y-90888871D01*
X163833463Y-91002139D01*
X164021821Y-91080160D01*
X164221780Y-91119934D01*
X164276508Y-91119934D01*
X164255000Y-91228061D01*
X164255000Y-91431939D01*
X164293767Y-91626834D01*
X164160226Y-91716063D01*
X164016063Y-91860226D01*
X163902795Y-92029744D01*
X163824774Y-92218102D01*
X163785000Y-92418061D01*
X163785000Y-92621939D01*
X163824774Y-92821898D01*
X163902795Y-93010256D01*
X164016063Y-93179774D01*
X164160226Y-93323937D01*
X164329744Y-93437205D01*
X164518102Y-93515226D01*
X164718061Y-93555000D01*
X164921939Y-93555000D01*
X165121898Y-93515226D01*
X165310256Y-93437205D01*
X165479774Y-93323937D01*
X165623937Y-93179774D01*
X165737205Y-93010256D01*
X165815226Y-92821898D01*
X165855000Y-92621939D01*
X165855000Y-92418061D01*
X165816233Y-92223166D01*
X165949774Y-92133937D01*
X166093937Y-91989774D01*
X166207205Y-91820256D01*
X166285226Y-91631898D01*
X166325000Y-91431939D01*
X166325000Y-91228061D01*
X166285226Y-91028102D01*
X166207205Y-90839744D01*
X166181875Y-90801836D01*
X166203937Y-90779774D01*
X166317205Y-90610256D01*
X166395226Y-90421898D01*
X166435000Y-90221939D01*
X166435000Y-90018061D01*
X166395226Y-89818102D01*
X166317205Y-89629744D01*
X166203937Y-89460226D01*
X166059774Y-89316063D01*
X165890256Y-89202795D01*
X165701898Y-89124774D01*
X165501939Y-89085000D01*
X165298061Y-89085000D01*
X165098102Y-89124774D01*
X164909744Y-89202795D01*
X164888100Y-89217257D01*
X164813975Y-89167729D01*
X164625617Y-89089708D01*
X164425658Y-89049934D01*
X164221780Y-89049934D01*
X164021821Y-89089708D01*
X164001738Y-89098027D01*
X163929774Y-89026063D01*
X163760256Y-88912795D01*
X163571898Y-88834774D01*
X163371939Y-88795000D01*
X163245951Y-88795000D01*
X163227205Y-88749744D01*
X163113937Y-88580226D01*
X162969774Y-88436063D01*
X162800256Y-88322795D01*
X162611898Y-88244774D01*
X162427328Y-88208061D01*
X172315000Y-88208061D01*
X172315000Y-88411939D01*
X172354774Y-88611898D01*
X172432795Y-88800256D01*
X172546063Y-88969774D01*
X172690226Y-89113937D01*
X172859744Y-89227205D01*
X173048102Y-89305226D01*
X173248061Y-89345000D01*
X173451939Y-89345000D01*
X173651898Y-89305226D01*
X173840256Y-89227205D01*
X174009774Y-89113937D01*
X174135000Y-88988711D01*
X174135000Y-89061939D01*
X174174774Y-89261898D01*
X174252795Y-89450256D01*
X174366063Y-89619774D01*
X174510226Y-89763937D01*
X174679744Y-89877205D01*
X174868102Y-89955226D01*
X175068061Y-89995000D01*
X175271939Y-89995000D01*
X175471898Y-89955226D01*
X175660256Y-89877205D01*
X175829774Y-89763937D01*
X175973937Y-89619774D01*
X176087205Y-89450256D01*
X176165226Y-89261898D01*
X176205000Y-89061939D01*
X176205000Y-88858061D01*
X176165226Y-88658102D01*
X176087205Y-88469744D01*
X176033900Y-88389967D01*
X176107205Y-88280258D01*
X176185226Y-88091900D01*
X176225000Y-87891941D01*
X176225000Y-87688063D01*
X176185226Y-87488104D01*
X176107205Y-87299746D01*
X175993937Y-87130228D01*
X175849774Y-86986065D01*
X175680256Y-86872797D01*
X175491898Y-86794776D01*
X175432146Y-86782891D01*
X175425226Y-86748102D01*
X175347205Y-86559744D01*
X175233937Y-86390226D01*
X175089774Y-86246063D01*
X174920256Y-86132795D01*
X174731898Y-86054774D01*
X174531939Y-86015000D01*
X174328061Y-86015000D01*
X174128102Y-86054774D01*
X173939744Y-86132795D01*
X173770226Y-86246063D01*
X173626063Y-86390226D01*
X173512795Y-86559744D01*
X173434774Y-86748102D01*
X173395000Y-86948061D01*
X173395000Y-87151939D01*
X173419478Y-87275000D01*
X173248061Y-87275000D01*
X173048102Y-87314774D01*
X172859744Y-87392795D01*
X172690226Y-87506063D01*
X172546063Y-87650226D01*
X172432795Y-87819744D01*
X172354774Y-88008102D01*
X172315000Y-88208061D01*
X162427328Y-88208061D01*
X162411939Y-88205000D01*
X162208061Y-88205000D01*
X162008102Y-88244774D01*
X161819744Y-88322795D01*
X161650226Y-88436063D01*
X161506063Y-88580226D01*
X161392795Y-88749744D01*
X161314774Y-88938102D01*
X161275000Y-89138061D01*
X154324682Y-89138061D01*
X154385226Y-88991898D01*
X154425000Y-88791939D01*
X154425000Y-88588061D01*
X154385226Y-88388102D01*
X154307205Y-88199744D01*
X154193937Y-88030226D01*
X154049774Y-87886063D01*
X153880256Y-87772795D01*
X153691898Y-87694774D01*
X153491939Y-87655000D01*
X153288061Y-87655000D01*
X153088102Y-87694774D01*
X152899744Y-87772795D01*
X152730226Y-87886063D01*
X152586063Y-88030226D01*
X152472795Y-88199744D01*
X152394774Y-88388102D01*
X152355000Y-88588061D01*
X149731902Y-88588061D01*
X149755000Y-88471939D01*
X149755000Y-88268061D01*
X149715226Y-88068102D01*
X149668479Y-87955247D01*
X149818061Y-87985000D01*
X150021939Y-87985000D01*
X150221898Y-87945226D01*
X150410256Y-87867205D01*
X150539932Y-87780558D01*
X150609744Y-87827205D01*
X150798102Y-87905226D01*
X150998061Y-87945000D01*
X151201939Y-87945000D01*
X151401898Y-87905226D01*
X151590256Y-87827205D01*
X151759774Y-87713937D01*
X151903937Y-87569774D01*
X152017205Y-87400256D01*
X152047109Y-87328061D01*
X155125000Y-87328061D01*
X155125000Y-87531939D01*
X155164774Y-87731898D01*
X155242795Y-87920256D01*
X155356063Y-88089774D01*
X155500226Y-88233937D01*
X155669744Y-88347205D01*
X155858102Y-88425226D01*
X156058061Y-88465000D01*
X156261939Y-88465000D01*
X156461898Y-88425226D01*
X156650256Y-88347205D01*
X156819774Y-88233937D01*
X156963937Y-88089774D01*
X157077205Y-87920256D01*
X157096793Y-87872966D01*
X159400145Y-87872966D01*
X159400145Y-88076844D01*
X159439919Y-88276803D01*
X159517940Y-88465161D01*
X159631208Y-88634679D01*
X159775371Y-88778842D01*
X159944889Y-88892110D01*
X160133247Y-88970131D01*
X160333206Y-89009905D01*
X160537084Y-89009905D01*
X160737043Y-88970131D01*
X160925401Y-88892110D01*
X161094919Y-88778842D01*
X161239082Y-88634679D01*
X161352350Y-88465161D01*
X161430371Y-88276803D01*
X161470145Y-88076844D01*
X161470145Y-87872966D01*
X161430371Y-87673007D01*
X161352350Y-87484649D01*
X161239082Y-87315131D01*
X161094919Y-87170968D01*
X160925401Y-87057700D01*
X160737043Y-86979679D01*
X160537084Y-86939905D01*
X160333206Y-86939905D01*
X160133247Y-86979679D01*
X159944889Y-87057700D01*
X159775371Y-87170968D01*
X159631208Y-87315131D01*
X159517940Y-87484649D01*
X159439919Y-87673007D01*
X159400145Y-87872966D01*
X157096793Y-87872966D01*
X157155226Y-87731898D01*
X157195000Y-87531939D01*
X157195000Y-87328061D01*
X157155226Y-87128102D01*
X157077205Y-86939744D01*
X157062308Y-86917449D01*
X157107205Y-86850256D01*
X157185226Y-86661898D01*
X157225000Y-86461939D01*
X157225000Y-86258061D01*
X157185226Y-86058102D01*
X157107205Y-85869744D01*
X156993937Y-85700226D01*
X156849774Y-85556063D01*
X156680256Y-85442795D01*
X156491898Y-85364774D01*
X156291939Y-85325000D01*
X156088061Y-85325000D01*
X155888102Y-85364774D01*
X155699744Y-85442795D01*
X155530226Y-85556063D01*
X155386063Y-85700226D01*
X155272795Y-85869744D01*
X155194774Y-86058102D01*
X155155000Y-86258061D01*
X155155000Y-86461939D01*
X155194774Y-86661898D01*
X155272795Y-86850256D01*
X155287692Y-86872551D01*
X155242795Y-86939744D01*
X155164774Y-87128102D01*
X155125000Y-87328061D01*
X152047109Y-87328061D01*
X152095226Y-87211898D01*
X152135000Y-87011939D01*
X152135000Y-86808061D01*
X152095226Y-86608102D01*
X152017205Y-86419744D01*
X151903937Y-86250226D01*
X151759774Y-86106063D01*
X151590256Y-85992795D01*
X151401898Y-85914774D01*
X151201939Y-85875000D01*
X150998061Y-85875000D01*
X150798102Y-85914774D01*
X150609744Y-85992795D01*
X150480068Y-86079442D01*
X150410256Y-86032795D01*
X150221898Y-85954774D01*
X150021939Y-85915000D01*
X149818061Y-85915000D01*
X149618102Y-85954774D01*
X149429744Y-86032795D01*
X149403825Y-86050114D01*
X149399774Y-86046063D01*
X149230256Y-85932795D01*
X149041898Y-85854774D01*
X148841939Y-85815000D01*
X148638061Y-85815000D01*
X148438102Y-85854774D01*
X148249744Y-85932795D01*
X148212449Y-85957715D01*
X148130256Y-85902795D01*
X147941898Y-85824774D01*
X147741939Y-85785000D01*
X147538061Y-85785000D01*
X147338102Y-85824774D01*
X147149744Y-85902795D01*
X146980226Y-86016063D01*
X146836063Y-86160226D01*
X146722795Y-86329744D01*
X146644774Y-86518102D01*
X146627984Y-86602513D01*
X146605226Y-86488102D01*
X146527205Y-86299744D01*
X146413937Y-86130226D01*
X146269774Y-85986063D01*
X146100256Y-85872795D01*
X145911898Y-85794774D01*
X145711939Y-85755000D01*
X145508061Y-85755000D01*
X145308102Y-85794774D01*
X145119744Y-85872795D01*
X144950226Y-85986063D01*
X144806063Y-86130226D01*
X144692795Y-86299744D01*
X144614774Y-86488102D01*
X144575000Y-86688061D01*
X140935081Y-86688061D01*
X141047205Y-86520256D01*
X141125226Y-86331898D01*
X141165000Y-86131939D01*
X141165000Y-85928061D01*
X141125226Y-85728102D01*
X141047205Y-85539744D01*
X140933937Y-85370226D01*
X140789774Y-85226063D01*
X140620256Y-85112795D01*
X140431898Y-85034774D01*
X140321893Y-85012893D01*
X140483411Y-84945990D01*
X140726632Y-84783475D01*
X140933475Y-84576632D01*
X141050000Y-84402240D01*
X141166525Y-84576632D01*
X141373368Y-84783475D01*
X141616589Y-84945990D01*
X141886842Y-85057932D01*
X142173740Y-85115000D01*
X142466260Y-85115000D01*
X142753158Y-85057932D01*
X143023411Y-84945990D01*
X143266632Y-84783475D01*
X143473475Y-84576632D01*
X143590000Y-84402240D01*
X143706525Y-84576632D01*
X143913368Y-84783475D01*
X144156589Y-84945990D01*
X144426842Y-85057932D01*
X144713740Y-85115000D01*
X145006260Y-85115000D01*
X145293158Y-85057932D01*
X145563411Y-84945990D01*
X145806632Y-84783475D01*
X146013475Y-84576632D01*
X146130000Y-84402240D01*
X146246525Y-84576632D01*
X146453368Y-84783475D01*
X146696589Y-84945990D01*
X146966842Y-85057932D01*
X147253740Y-85115000D01*
X147546260Y-85115000D01*
X147833158Y-85057932D01*
X148103411Y-84945990D01*
X148346632Y-84783475D01*
X148553475Y-84576632D01*
X148670000Y-84402240D01*
X148786525Y-84576632D01*
X148993368Y-84783475D01*
X149236589Y-84945990D01*
X149506842Y-85057932D01*
X149793740Y-85115000D01*
X150086260Y-85115000D01*
X150373158Y-85057932D01*
X150643411Y-84945990D01*
X150886632Y-84783475D01*
X151093475Y-84576632D01*
X151210000Y-84402240D01*
X151326525Y-84576632D01*
X151533368Y-84783475D01*
X151776589Y-84945990D01*
X152046842Y-85057932D01*
X152333740Y-85115000D01*
X152626260Y-85115000D01*
X152913158Y-85057932D01*
X153183411Y-84945990D01*
X153426632Y-84783475D01*
X153633475Y-84576632D01*
X153750000Y-84402240D01*
X153866525Y-84576632D01*
X154073368Y-84783475D01*
X154316589Y-84945990D01*
X154586842Y-85057932D01*
X154873740Y-85115000D01*
X155166260Y-85115000D01*
X155453158Y-85057932D01*
X155723411Y-84945990D01*
X155966632Y-84783475D01*
X156173475Y-84576632D01*
X156290000Y-84402240D01*
X156406525Y-84576632D01*
X156613368Y-84783475D01*
X156856589Y-84945990D01*
X157126842Y-85057932D01*
X157413740Y-85115000D01*
X157706260Y-85115000D01*
X157993158Y-85057932D01*
X158263411Y-84945990D01*
X158506632Y-84783475D01*
X158713475Y-84576632D01*
X158830000Y-84402240D01*
X158946525Y-84576632D01*
X159153368Y-84783475D01*
X159396589Y-84945990D01*
X159666842Y-85057932D01*
X159953740Y-85115000D01*
X160246260Y-85115000D01*
X160533158Y-85057932D01*
X160803411Y-84945990D01*
X161046632Y-84783475D01*
X161253475Y-84576632D01*
X161370000Y-84402240D01*
X161486525Y-84576632D01*
X161693368Y-84783475D01*
X161936589Y-84945990D01*
X162206842Y-85057932D01*
X162493740Y-85115000D01*
X162786260Y-85115000D01*
X163073158Y-85057932D01*
X163343411Y-84945990D01*
X163586632Y-84783475D01*
X163793475Y-84576632D01*
X163910000Y-84402240D01*
X164026525Y-84576632D01*
X164233368Y-84783475D01*
X164476589Y-84945990D01*
X164746842Y-85057932D01*
X165033740Y-85115000D01*
X165326260Y-85115000D01*
X165613158Y-85057932D01*
X165883411Y-84945990D01*
X166126632Y-84783475D01*
X166333475Y-84576632D01*
X166450000Y-84402240D01*
X166566525Y-84576632D01*
X166773368Y-84783475D01*
X167016589Y-84945990D01*
X167286842Y-85057932D01*
X167573740Y-85115000D01*
X167866260Y-85115000D01*
X168153158Y-85057932D01*
X168423411Y-84945990D01*
X168666632Y-84783475D01*
X168873475Y-84576632D01*
X168990000Y-84402240D01*
X169106525Y-84576632D01*
X169313368Y-84783475D01*
X169556589Y-84945990D01*
X169826842Y-85057932D01*
X170113740Y-85115000D01*
X170406260Y-85115000D01*
X170693158Y-85057932D01*
X170963411Y-84945990D01*
X171206632Y-84783475D01*
X171413475Y-84576632D01*
X171530000Y-84402240D01*
X171646525Y-84576632D01*
X171853368Y-84783475D01*
X172096589Y-84945990D01*
X172366842Y-85057932D01*
X172653740Y-85115000D01*
X172946260Y-85115000D01*
X173233158Y-85057932D01*
X173503411Y-84945990D01*
X173746632Y-84783475D01*
X173953475Y-84576632D01*
X174115990Y-84333411D01*
X174227932Y-84063158D01*
X174285000Y-83776260D01*
X174285000Y-83483740D01*
X174227932Y-83196842D01*
X174115990Y-82926589D01*
X173953475Y-82683368D01*
X173746632Y-82476525D01*
X173572240Y-82360000D01*
X173746632Y-82243475D01*
X173801074Y-82189033D01*
X175529545Y-82189033D01*
X175529545Y-82590967D01*
X175607958Y-82985179D01*
X175761772Y-83356518D01*
X175985075Y-83690714D01*
X176269286Y-83974925D01*
X176603482Y-84198228D01*
X176974821Y-84352042D01*
X177369033Y-84430455D01*
X177770967Y-84430455D01*
X178165179Y-84352042D01*
X178536518Y-84198228D01*
X178870714Y-83974925D01*
X179154925Y-83690714D01*
X179378228Y-83356518D01*
X179532042Y-82985179D01*
X179610455Y-82590967D01*
X179610455Y-82189033D01*
X179532042Y-81794821D01*
X179378228Y-81423482D01*
X179154925Y-81089286D01*
X178870714Y-80805075D01*
X178536518Y-80581772D01*
X178165179Y-80427958D01*
X177770967Y-80349545D01*
X177369033Y-80349545D01*
X176974821Y-80427958D01*
X176603482Y-80581772D01*
X176269286Y-80805075D01*
X175985075Y-81089286D01*
X175761772Y-81423482D01*
X175607958Y-81794821D01*
X175529545Y-82189033D01*
X173801074Y-82189033D01*
X173953475Y-82036632D01*
X174115990Y-81793411D01*
X174227932Y-81523158D01*
X174285000Y-81236260D01*
X174285000Y-80943740D01*
X174227932Y-80656842D01*
X174115990Y-80386589D01*
X173953475Y-80143368D01*
X173746632Y-79936525D01*
X173503411Y-79774010D01*
X173233158Y-79662068D01*
X172946260Y-79605000D01*
X172653740Y-79605000D01*
X172366842Y-79662068D01*
X172096589Y-79774010D01*
X171853368Y-79936525D01*
X171646525Y-80143368D01*
X171530000Y-80317760D01*
X171413475Y-80143368D01*
X171206632Y-79936525D01*
X170963411Y-79774010D01*
X170693158Y-79662068D01*
X170406260Y-79605000D01*
X170113740Y-79605000D01*
X169826842Y-79662068D01*
X169556589Y-79774010D01*
X169313368Y-79936525D01*
X169106525Y-80143368D01*
X168990000Y-80317760D01*
X168873475Y-80143368D01*
X168666632Y-79936525D01*
X168423411Y-79774010D01*
X168153158Y-79662068D01*
X167866260Y-79605000D01*
X167573740Y-79605000D01*
X167286842Y-79662068D01*
X167016589Y-79774010D01*
X166773368Y-79936525D01*
X166566525Y-80143368D01*
X166450000Y-80317760D01*
X166333475Y-80143368D01*
X166126632Y-79936525D01*
X165883411Y-79774010D01*
X165613158Y-79662068D01*
X165326260Y-79605000D01*
X165033740Y-79605000D01*
X164746842Y-79662068D01*
X164476589Y-79774010D01*
X164233368Y-79936525D01*
X164026525Y-80143368D01*
X163910000Y-80317760D01*
X163793475Y-80143368D01*
X163586632Y-79936525D01*
X163343411Y-79774010D01*
X163073158Y-79662068D01*
X162786260Y-79605000D01*
X162493740Y-79605000D01*
X162206842Y-79662068D01*
X161936589Y-79774010D01*
X161693368Y-79936525D01*
X161486525Y-80143368D01*
X161370000Y-80317760D01*
X161253475Y-80143368D01*
X161046632Y-79936525D01*
X160803411Y-79774010D01*
X160533158Y-79662068D01*
X160246260Y-79605000D01*
X159953740Y-79605000D01*
X159666842Y-79662068D01*
X159396589Y-79774010D01*
X159153368Y-79936525D01*
X158946525Y-80143368D01*
X158830000Y-80317760D01*
X158713475Y-80143368D01*
X158506632Y-79936525D01*
X158263411Y-79774010D01*
X157993158Y-79662068D01*
X157706260Y-79605000D01*
X157413740Y-79605000D01*
X157126842Y-79662068D01*
X156856589Y-79774010D01*
X156613368Y-79936525D01*
X156406525Y-80143368D01*
X156290000Y-80317760D01*
X156173475Y-80143368D01*
X155966632Y-79936525D01*
X155723411Y-79774010D01*
X155453158Y-79662068D01*
X155166260Y-79605000D01*
X154873740Y-79605000D01*
X154586842Y-79662068D01*
X154316589Y-79774010D01*
X154073368Y-79936525D01*
X153866525Y-80143368D01*
X153744805Y-80325534D01*
X153675178Y-80208645D01*
X153480269Y-79992412D01*
X153246920Y-79818359D01*
X152984099Y-79693175D01*
X152836890Y-79648524D01*
X152607000Y-79769845D01*
X152607000Y-80963000D01*
X152627000Y-80963000D01*
X152627000Y-81217000D01*
X152607000Y-81217000D01*
X152607000Y-81237000D01*
X152353000Y-81237000D01*
X152353000Y-81217000D01*
X152333000Y-81217000D01*
X152333000Y-80963000D01*
X152353000Y-80963000D01*
X152353000Y-79769845D01*
X152123110Y-79648524D01*
X151975901Y-79693175D01*
X151713080Y-79818359D01*
X151479731Y-79992412D01*
X151284822Y-80208645D01*
X151215195Y-80325534D01*
X151093475Y-80143368D01*
X150886632Y-79936525D01*
X150643411Y-79774010D01*
X150373158Y-79662068D01*
X150086260Y-79605000D01*
X149793740Y-79605000D01*
X149506842Y-79662068D01*
X149236589Y-79774010D01*
X148993368Y-79936525D01*
X148786525Y-80143368D01*
X148670000Y-80317760D01*
X148553475Y-80143368D01*
X148346632Y-79936525D01*
X148103411Y-79774010D01*
X147833158Y-79662068D01*
X147546260Y-79605000D01*
X147253740Y-79605000D01*
X146966842Y-79662068D01*
X146696589Y-79774010D01*
X146453368Y-79936525D01*
X146246525Y-80143368D01*
X146130000Y-80317760D01*
X146013475Y-80143368D01*
X145806632Y-79936525D01*
X145563411Y-79774010D01*
X145293158Y-79662068D01*
X145006260Y-79605000D01*
X144713740Y-79605000D01*
X144426842Y-79662068D01*
X144156589Y-79774010D01*
X143913368Y-79936525D01*
X143706525Y-80143368D01*
X143590000Y-80317760D01*
X143473475Y-80143368D01*
X143266632Y-79936525D01*
X143023411Y-79774010D01*
X142753158Y-79662068D01*
X142466260Y-79605000D01*
X142173740Y-79605000D01*
X141886842Y-79662068D01*
X141616589Y-79774010D01*
X141373368Y-79936525D01*
X141166525Y-80143368D01*
X141050000Y-80317760D01*
X140933475Y-80143368D01*
X140726632Y-79936525D01*
X140483411Y-79774010D01*
X140213158Y-79662068D01*
X139926260Y-79605000D01*
X139633740Y-79605000D01*
X139346842Y-79662068D01*
X139076589Y-79774010D01*
X138833368Y-79936525D01*
X138626525Y-80143368D01*
X138510000Y-80317760D01*
X138393475Y-80143368D01*
X138186632Y-79936525D01*
X137943411Y-79774010D01*
X137673158Y-79662068D01*
X137386260Y-79605000D01*
X137093740Y-79605000D01*
X136806842Y-79662068D01*
X136536589Y-79774010D01*
X136293368Y-79936525D01*
X136086525Y-80143368D01*
X135970000Y-80317760D01*
X135853475Y-80143368D01*
X135646632Y-79936525D01*
X135403411Y-79774010D01*
X135133158Y-79662068D01*
X134846260Y-79605000D01*
X134553740Y-79605000D01*
X134266842Y-79662068D01*
X133996589Y-79774010D01*
X133753368Y-79936525D01*
X133546525Y-80143368D01*
X133424805Y-80325534D01*
X133355178Y-80208645D01*
X133160269Y-79992412D01*
X132926920Y-79818359D01*
X132664099Y-79693175D01*
X132516890Y-79648524D01*
X132287000Y-79769845D01*
X132287000Y-80963000D01*
X132307000Y-80963000D01*
X132307000Y-81217000D01*
X132287000Y-81217000D01*
X132287000Y-81237000D01*
X132033000Y-81237000D01*
X132033000Y-81217000D01*
X132013000Y-81217000D01*
X132013000Y-80963000D01*
X132033000Y-80963000D01*
X132033000Y-79769845D01*
X131803110Y-79648524D01*
X131655901Y-79693175D01*
X131393080Y-79818359D01*
X131159731Y-79992412D01*
X130964822Y-80208645D01*
X130895195Y-80325534D01*
X130773475Y-80143368D01*
X130566632Y-79936525D01*
X130323411Y-79774010D01*
X130053158Y-79662068D01*
X129766260Y-79605000D01*
X129473740Y-79605000D01*
X129186842Y-79662068D01*
X128916589Y-79774010D01*
X128673368Y-79936525D01*
X128466525Y-80143368D01*
X128350000Y-80317760D01*
X128233475Y-80143368D01*
X128026632Y-79936525D01*
X127783411Y-79774010D01*
X127513158Y-79662068D01*
X127226260Y-79605000D01*
X126933740Y-79605000D01*
X126646842Y-79662068D01*
X126376589Y-79774010D01*
X126133368Y-79936525D01*
X125926525Y-80143368D01*
X125810000Y-80317760D01*
X125693475Y-80143368D01*
X125486632Y-79936525D01*
X125243411Y-79774010D01*
X124973158Y-79662068D01*
X124686260Y-79605000D01*
X124393740Y-79605000D01*
X124106842Y-79662068D01*
X123836589Y-79774010D01*
X123593368Y-79936525D01*
X123386525Y-80143368D01*
X123224010Y-80386589D01*
X123112068Y-80656842D01*
X123055000Y-80943740D01*
X123055000Y-81236260D01*
X123112068Y-81523158D01*
X123224010Y-81793411D01*
X123386525Y-82036632D01*
X123518380Y-82168487D01*
X123445820Y-82190498D01*
X123335506Y-82249463D01*
X123238815Y-82328815D01*
X123159463Y-82425506D01*
X123100498Y-82535820D01*
X123064188Y-82655518D01*
X123051928Y-82780000D01*
X121572854Y-82780000D01*
X121610455Y-82590967D01*
X121610455Y-82189033D01*
X121532042Y-81794821D01*
X121378228Y-81423482D01*
X121154925Y-81089286D01*
X120870714Y-80805075D01*
X120536518Y-80581772D01*
X120165179Y-80427958D01*
X119770967Y-80349545D01*
X119369033Y-80349545D01*
X118974821Y-80427958D01*
X118603482Y-80581772D01*
X118269286Y-80805075D01*
X117985075Y-81089286D01*
X117761772Y-81423482D01*
X117607958Y-81794821D01*
X117529545Y-82189033D01*
X116730000Y-82189033D01*
X116730000Y-81922279D01*
X116777670Y-81436107D01*
X116909489Y-80999502D01*
X117123600Y-80596815D01*
X117411848Y-80243388D01*
X117763261Y-79952673D01*
X118164439Y-79735758D01*
X118600113Y-79600894D01*
X119084344Y-79550000D01*
X178037721Y-79550000D01*
X178523893Y-79597670D01*
%TA.AperFunction,Conductor*%
D18*
G36*
X178523893Y-79597670D02*
G01*
X178960498Y-79729489D01*
X179363185Y-79943600D01*
X179716612Y-80231848D01*
X180007327Y-80583261D01*
X180224242Y-80984439D01*
X180359106Y-81420113D01*
X180410000Y-81904344D01*
X180410000Y-84446694D01*
X180327731Y-84391724D01*
X180098081Y-84296600D01*
X179854286Y-84248106D01*
X179605714Y-84248106D01*
X179361919Y-84296600D01*
X179132269Y-84391724D01*
X178925589Y-84529823D01*
X178749823Y-84705589D01*
X178611724Y-84912269D01*
X178516600Y-85141919D01*
X178468106Y-85385714D01*
X178468106Y-85634286D01*
X178516600Y-85878081D01*
X178611724Y-86107731D01*
X178749823Y-86314411D01*
X178925589Y-86490177D01*
X179132269Y-86628276D01*
X179361919Y-86723400D01*
X179605714Y-86771894D01*
X179854286Y-86771894D01*
X180098081Y-86723400D01*
X180327731Y-86628276D01*
X180410000Y-86573306D01*
X180410001Y-100919487D01*
X180280256Y-100832795D01*
X180091898Y-100754774D01*
X179891939Y-100715000D01*
X179688061Y-100715000D01*
X179488102Y-100754774D01*
X179299744Y-100832795D01*
X179130226Y-100946063D01*
X178986063Y-101090226D01*
X178872795Y-101259744D01*
X178794774Y-101448102D01*
X178755000Y-101648061D01*
X178755000Y-101851939D01*
X178794774Y-102051898D01*
X178872795Y-102240256D01*
X178986063Y-102409774D01*
X179130226Y-102553937D01*
X179299744Y-102667205D01*
X179488102Y-102745226D01*
X179688061Y-102785000D01*
X179891939Y-102785000D01*
X180091898Y-102745226D01*
X180280256Y-102667205D01*
X180410001Y-102580512D01*
X180410001Y-105857711D01*
X180362330Y-106343894D01*
X180230512Y-106780497D01*
X180016399Y-107183186D01*
X179728150Y-107536613D01*
X179376739Y-107827327D01*
X178975564Y-108044240D01*
X178539886Y-108179106D01*
X178055664Y-108230000D01*
X164176637Y-108230000D01*
X164198284Y-108203623D01*
X164303676Y-108006446D01*
X164368577Y-107792498D01*
X164385000Y-107625751D01*
X164385000Y-106914248D01*
X164368577Y-106747501D01*
X164303676Y-106533553D01*
X164198284Y-106336377D01*
X164135000Y-106259265D01*
X164135000Y-105189033D01*
X175529545Y-105189033D01*
X175529545Y-105590967D01*
X175607958Y-105985179D01*
X175761772Y-106356518D01*
X175985075Y-106690714D01*
X176269286Y-106974925D01*
X176603482Y-107198228D01*
X176974821Y-107352042D01*
X177369033Y-107430455D01*
X177770967Y-107430455D01*
X178165179Y-107352042D01*
X178536518Y-107198228D01*
X178870714Y-106974925D01*
X179154925Y-106690714D01*
X179378228Y-106356518D01*
X179532042Y-105985179D01*
X179610455Y-105590967D01*
X179610455Y-105189033D01*
X179532042Y-104794821D01*
X179378228Y-104423482D01*
X179154925Y-104089286D01*
X178870714Y-103805075D01*
X178536518Y-103581772D01*
X178165179Y-103427958D01*
X177770967Y-103349545D01*
X177369033Y-103349545D01*
X176974821Y-103427958D01*
X176603482Y-103581772D01*
X176269286Y-103805075D01*
X175985075Y-104089286D01*
X175761772Y-104423482D01*
X175607958Y-104794821D01*
X175529545Y-105189033D01*
X164135000Y-105189033D01*
X164135000Y-104350735D01*
X164198284Y-104273623D01*
X164303676Y-104076447D01*
X164368577Y-103862499D01*
X164385000Y-103695752D01*
X164385000Y-102484248D01*
X164368577Y-102317501D01*
X164303676Y-102103553D01*
X164199185Y-101908061D01*
X170315000Y-101908061D01*
X170315000Y-102111939D01*
X170354774Y-102311898D01*
X170432795Y-102500256D01*
X170546063Y-102669774D01*
X170690226Y-102813937D01*
X170859744Y-102927205D01*
X171048102Y-103005226D01*
X171248061Y-103045000D01*
X171451939Y-103045000D01*
X171651898Y-103005226D01*
X171840256Y-102927205D01*
X172009774Y-102813937D01*
X172153937Y-102669774D01*
X172267205Y-102500256D01*
X172345226Y-102311898D01*
X172385000Y-102111939D01*
X172385000Y-101908061D01*
X172345226Y-101708102D01*
X172267205Y-101519744D01*
X172153937Y-101350226D01*
X172009774Y-101206063D01*
X171840256Y-101092795D01*
X171651898Y-101014774D01*
X171451939Y-100975000D01*
X171248061Y-100975000D01*
X171048102Y-101014774D01*
X170859744Y-101092795D01*
X170690226Y-101206063D01*
X170546063Y-101350226D01*
X170432795Y-101519744D01*
X170354774Y-101708102D01*
X170315000Y-101908061D01*
X164199185Y-101908061D01*
X164198284Y-101906377D01*
X164056449Y-101733551D01*
X163883623Y-101591716D01*
X163686446Y-101486324D01*
X163472498Y-101421423D01*
X163250000Y-101399509D01*
X163027501Y-101421423D01*
X162813553Y-101486324D01*
X162616377Y-101591716D01*
X162443551Y-101733551D01*
X162301716Y-101906377D01*
X162196324Y-102103554D01*
X162131423Y-102317502D01*
X162115000Y-102484249D01*
X162115000Y-102703096D01*
X162100022Y-102696892D01*
X161914552Y-102660000D01*
X161725448Y-102660000D01*
X161539978Y-102696892D01*
X161365269Y-102769259D01*
X161208036Y-102874319D01*
X161074319Y-103008036D01*
X160969259Y-103165269D01*
X160896892Y-103339978D01*
X160860000Y-103525448D01*
X160860000Y-103714552D01*
X160896892Y-103900022D01*
X160969259Y-104074731D01*
X161074319Y-104231964D01*
X161208036Y-104365681D01*
X161365269Y-104470741D01*
X161539978Y-104543108D01*
X161725448Y-104580000D01*
X161914552Y-104580000D01*
X162100022Y-104543108D01*
X162274731Y-104470741D01*
X162365001Y-104410425D01*
X162365000Y-106259265D01*
X162301716Y-106336377D01*
X162275727Y-106385000D01*
X155584273Y-106385000D01*
X155558284Y-106336377D01*
X155495000Y-106259265D01*
X155495000Y-104410425D01*
X155585269Y-104470741D01*
X155759978Y-104543108D01*
X155945448Y-104580000D01*
X156134552Y-104580000D01*
X156320022Y-104543108D01*
X156494731Y-104470741D01*
X156651964Y-104365681D01*
X156785681Y-104231964D01*
X156890741Y-104074731D01*
X156963108Y-103900022D01*
X157000000Y-103714552D01*
X157000000Y-103525448D01*
X156963108Y-103339978D01*
X156890741Y-103165269D01*
X156785681Y-103008036D01*
X156651964Y-102874319D01*
X156494731Y-102769259D01*
X156320022Y-102696892D01*
X156134552Y-102660000D01*
X155945448Y-102660000D01*
X155759978Y-102696892D01*
X155745000Y-102703096D01*
X155745000Y-102484248D01*
X155728577Y-102317501D01*
X155663676Y-102103553D01*
X155558284Y-101906377D01*
X155416449Y-101733551D01*
X155243623Y-101591716D01*
X155046446Y-101486324D01*
X154832498Y-101421423D01*
X154610000Y-101399509D01*
X154387501Y-101421423D01*
X154173553Y-101486324D01*
X153976377Y-101591716D01*
X153803551Y-101733551D01*
X153661716Y-101906377D01*
X153556324Y-102103554D01*
X153491423Y-102317502D01*
X153475000Y-102484249D01*
X153475000Y-103695752D01*
X153491423Y-103862499D01*
X153556324Y-104076447D01*
X153661717Y-104273623D01*
X153725001Y-104350734D01*
X153725000Y-106259265D01*
X153661716Y-106336377D01*
X153556324Y-106533554D01*
X153491423Y-106747502D01*
X153475000Y-106914249D01*
X153475000Y-107625752D01*
X153491423Y-107792499D01*
X153556324Y-108006447D01*
X153661717Y-108203623D01*
X153683364Y-108230000D01*
X123921478Y-108230000D01*
X124013400Y-108008081D01*
X124061894Y-107764286D01*
X124061894Y-107515714D01*
X124013400Y-107271919D01*
X123918276Y-107042269D01*
X123780177Y-106835589D01*
X123604411Y-106659823D01*
X123397731Y-106521724D01*
X123168081Y-106426600D01*
X122924286Y-106378106D01*
X122675714Y-106378106D01*
X122431919Y-106426600D01*
X122202269Y-106521724D01*
X121995589Y-106659823D01*
X121819823Y-106835589D01*
X121681724Y-107042269D01*
X121586600Y-107271919D01*
X121538106Y-107515714D01*
X121538106Y-107764286D01*
X121586600Y-108008081D01*
X121678522Y-108230000D01*
X119102279Y-108230000D01*
X118616106Y-108182330D01*
X118179503Y-108050512D01*
X117776814Y-107836399D01*
X117423387Y-107548150D01*
X117132673Y-107196739D01*
X116915760Y-106795564D01*
X116780894Y-106359886D01*
X116730000Y-105875664D01*
X116730000Y-105189033D01*
X117529545Y-105189033D01*
X117529545Y-105590967D01*
X117607958Y-105985179D01*
X117761772Y-106356518D01*
X117985075Y-106690714D01*
X118269286Y-106974925D01*
X118603482Y-107198228D01*
X118974821Y-107352042D01*
X119369033Y-107430455D01*
X119770967Y-107430455D01*
X120165179Y-107352042D01*
X120536518Y-107198228D01*
X120870714Y-106974925D01*
X121154925Y-106690714D01*
X121378228Y-106356518D01*
X121532042Y-105985179D01*
X121610455Y-105590967D01*
X121610455Y-105189033D01*
X121532042Y-104794821D01*
X121378228Y-104423482D01*
X121154925Y-104089286D01*
X120870714Y-103805075D01*
X120583459Y-103613137D01*
X126550000Y-103613137D01*
X126550000Y-103826863D01*
X126591696Y-104036483D01*
X126673485Y-104233940D01*
X126792225Y-104411647D01*
X126943353Y-104562775D01*
X127121060Y-104681515D01*
X127318517Y-104763304D01*
X127528137Y-104805000D01*
X127741863Y-104805000D01*
X127951483Y-104763304D01*
X128148940Y-104681515D01*
X128326647Y-104562775D01*
X128477775Y-104411647D01*
X128596515Y-104233940D01*
X128678304Y-104036483D01*
X128720000Y-103826863D01*
X128720000Y-103613137D01*
X134550000Y-103613137D01*
X134550000Y-103826863D01*
X134591696Y-104036483D01*
X134673485Y-104233940D01*
X134792225Y-104411647D01*
X134943353Y-104562775D01*
X135121060Y-104681515D01*
X135318517Y-104763304D01*
X135528137Y-104805000D01*
X135741863Y-104805000D01*
X135951483Y-104763304D01*
X136060709Y-104718061D01*
X146895000Y-104718061D01*
X146895000Y-104921939D01*
X146934774Y-105121898D01*
X147012795Y-105310256D01*
X147126063Y-105479774D01*
X147270226Y-105623937D01*
X147439744Y-105737205D01*
X147628102Y-105815226D01*
X147828061Y-105855000D01*
X148031939Y-105855000D01*
X148231898Y-105815226D01*
X148420256Y-105737205D01*
X148589774Y-105623937D01*
X148733937Y-105479774D01*
X148847205Y-105310256D01*
X148925226Y-105121898D01*
X148965000Y-104921939D01*
X148965000Y-104808061D01*
X150935000Y-104808061D01*
X150935000Y-105011939D01*
X150974774Y-105211898D01*
X151052795Y-105400256D01*
X151166063Y-105569774D01*
X151310226Y-105713937D01*
X151479744Y-105827205D01*
X151668102Y-105905226D01*
X151868061Y-105945000D01*
X152071939Y-105945000D01*
X152271898Y-105905226D01*
X152460256Y-105827205D01*
X152629774Y-105713937D01*
X152773937Y-105569774D01*
X152887205Y-105400256D01*
X152965226Y-105211898D01*
X153005000Y-105011939D01*
X153005000Y-104808061D01*
X152965226Y-104608102D01*
X152887205Y-104419744D01*
X152773937Y-104250226D01*
X152629774Y-104106063D01*
X152460256Y-103992795D01*
X152271898Y-103914774D01*
X152071939Y-103875000D01*
X151868061Y-103875000D01*
X151668102Y-103914774D01*
X151479744Y-103992795D01*
X151310226Y-104106063D01*
X151166063Y-104250226D01*
X151052795Y-104419744D01*
X150974774Y-104608102D01*
X150935000Y-104808061D01*
X148965000Y-104808061D01*
X148965000Y-104718061D01*
X148925226Y-104518102D01*
X148847205Y-104329744D01*
X148733937Y-104160226D01*
X148589774Y-104016063D01*
X148420256Y-103902795D01*
X148231898Y-103824774D01*
X148031939Y-103785000D01*
X147828061Y-103785000D01*
X147628102Y-103824774D01*
X147439744Y-103902795D01*
X147270226Y-104016063D01*
X147126063Y-104160226D01*
X147012795Y-104329744D01*
X146934774Y-104518102D01*
X146895000Y-104718061D01*
X136060709Y-104718061D01*
X136148940Y-104681515D01*
X136326647Y-104562775D01*
X136477775Y-104411647D01*
X136596515Y-104233940D01*
X136678304Y-104036483D01*
X136720000Y-103826863D01*
X136720000Y-103613137D01*
X136678304Y-103403517D01*
X136596515Y-103206060D01*
X136591171Y-103198061D01*
X148965000Y-103198061D01*
X148965000Y-103401939D01*
X149004774Y-103601898D01*
X149082795Y-103790256D01*
X149196063Y-103959774D01*
X149340226Y-104103937D01*
X149509744Y-104217205D01*
X149698102Y-104295226D01*
X149898061Y-104335000D01*
X150101939Y-104335000D01*
X150301898Y-104295226D01*
X150490256Y-104217205D01*
X150659774Y-104103937D01*
X150803937Y-103959774D01*
X150917205Y-103790256D01*
X150995226Y-103601898D01*
X151035000Y-103401939D01*
X151035000Y-103198061D01*
X150995226Y-102998102D01*
X150917205Y-102809744D01*
X150803937Y-102640226D01*
X150659774Y-102496063D01*
X150490256Y-102382795D01*
X150301898Y-102304774D01*
X150101939Y-102265000D01*
X149898061Y-102265000D01*
X149698102Y-102304774D01*
X149509744Y-102382795D01*
X149340226Y-102496063D01*
X149196063Y-102640226D01*
X149082795Y-102809744D01*
X149004774Y-102998102D01*
X148965000Y-103198061D01*
X136591171Y-103198061D01*
X136477775Y-103028353D01*
X136326647Y-102877225D01*
X136148940Y-102758485D01*
X135951483Y-102676696D01*
X135741863Y-102635000D01*
X135528137Y-102635000D01*
X135318517Y-102676696D01*
X135121060Y-102758485D01*
X134943353Y-102877225D01*
X134792225Y-103028353D01*
X134673485Y-103206060D01*
X134591696Y-103403517D01*
X134550000Y-103613137D01*
X128720000Y-103613137D01*
X128678304Y-103403517D01*
X128596515Y-103206060D01*
X128477775Y-103028353D01*
X128326647Y-102877225D01*
X128148940Y-102758485D01*
X127951483Y-102676696D01*
X127741863Y-102635000D01*
X127528137Y-102635000D01*
X127318517Y-102676696D01*
X127121060Y-102758485D01*
X126943353Y-102877225D01*
X126792225Y-103028353D01*
X126673485Y-103206060D01*
X126591696Y-103403517D01*
X126550000Y-103613137D01*
X120583459Y-103613137D01*
X120536518Y-103581772D01*
X120165179Y-103427958D01*
X119770967Y-103349545D01*
X119369033Y-103349545D01*
X118974821Y-103427958D01*
X118603482Y-103581772D01*
X118269286Y-103805075D01*
X117985075Y-104089286D01*
X117761772Y-104423482D01*
X117607958Y-104794821D01*
X117529545Y-105189033D01*
X116730000Y-105189033D01*
X116730000Y-101828061D01*
X150555000Y-101828061D01*
X150555000Y-102031939D01*
X150594774Y-102231898D01*
X150672795Y-102420256D01*
X150786063Y-102589774D01*
X150930226Y-102733937D01*
X151099744Y-102847205D01*
X151288102Y-102925226D01*
X151488061Y-102965000D01*
X151691939Y-102965000D01*
X151891898Y-102925226D01*
X152080256Y-102847205D01*
X152249774Y-102733937D01*
X152393937Y-102589774D01*
X152507205Y-102420256D01*
X152585226Y-102231898D01*
X152625000Y-102031939D01*
X152625000Y-101828061D01*
X152585226Y-101628102D01*
X152507205Y-101439744D01*
X152393937Y-101270226D01*
X152249774Y-101126063D01*
X152114727Y-101035828D01*
X152258102Y-101095216D01*
X152458061Y-101134990D01*
X152661939Y-101134990D01*
X152861898Y-101095216D01*
X153050256Y-101017195D01*
X153219774Y-100903927D01*
X153363937Y-100759764D01*
X153477205Y-100590246D01*
X153555226Y-100401888D01*
X153595000Y-100201929D01*
X153595000Y-99998051D01*
X153555226Y-99798092D01*
X153477205Y-99609734D01*
X153363937Y-99440216D01*
X153219774Y-99296053D01*
X153050256Y-99182785D01*
X152861898Y-99104764D01*
X152677379Y-99068061D01*
X154105000Y-99068061D01*
X154105000Y-99271939D01*
X154144774Y-99471898D01*
X154222795Y-99660256D01*
X154336063Y-99829774D01*
X154480226Y-99973937D01*
X154649744Y-100087205D01*
X154838102Y-100165226D01*
X155038061Y-100205000D01*
X155241939Y-100205000D01*
X155441898Y-100165226D01*
X155630256Y-100087205D01*
X155799774Y-99973937D01*
X155943937Y-99829774D01*
X156057205Y-99660256D01*
X156135226Y-99471898D01*
X156175000Y-99271939D01*
X156175000Y-99068061D01*
X156135226Y-98868102D01*
X156057205Y-98679744D01*
X156029354Y-98638061D01*
X158865000Y-98638061D01*
X158865000Y-98841939D01*
X158904774Y-99041898D01*
X158982795Y-99230256D01*
X159096063Y-99399774D01*
X159240226Y-99543937D01*
X159409744Y-99657205D01*
X159598102Y-99735226D01*
X159798061Y-99775000D01*
X160001939Y-99775000D01*
X160201898Y-99735226D01*
X160390256Y-99657205D01*
X160559774Y-99543937D01*
X160703937Y-99399774D01*
X160817205Y-99230256D01*
X160880246Y-99078061D01*
X161705000Y-99078061D01*
X161705000Y-99281939D01*
X161744774Y-99481898D01*
X161822795Y-99670256D01*
X161936063Y-99839774D01*
X162080226Y-99983937D01*
X162249744Y-100097205D01*
X162438102Y-100175226D01*
X162638061Y-100215000D01*
X162841939Y-100215000D01*
X163041898Y-100175226D01*
X163230256Y-100097205D01*
X163293909Y-100054674D01*
X163436204Y-100113615D01*
X163636163Y-100153389D01*
X163840041Y-100153389D01*
X164040000Y-100113615D01*
X164228358Y-100035594D01*
X164281751Y-99999918D01*
X164434943Y-100063373D01*
X164634902Y-100103147D01*
X164838780Y-100103147D01*
X165038739Y-100063373D01*
X165227097Y-99985352D01*
X165396615Y-99872084D01*
X165540778Y-99727921D01*
X165596097Y-99645130D01*
X165686063Y-99779774D01*
X165830226Y-99923937D01*
X165999744Y-100037205D01*
X166188102Y-100115226D01*
X166388061Y-100155000D01*
X166591939Y-100155000D01*
X166791898Y-100115226D01*
X166980256Y-100037205D01*
X167149774Y-99923937D01*
X167293937Y-99779774D01*
X167407205Y-99610256D01*
X167485226Y-99421898D01*
X167525000Y-99221939D01*
X167525000Y-99018061D01*
X167485226Y-98818102D01*
X167407205Y-98629744D01*
X167293937Y-98460226D01*
X167149774Y-98316063D01*
X166980256Y-98202795D01*
X166791898Y-98124774D01*
X166742760Y-98115000D01*
X166881939Y-98115000D01*
X167081898Y-98075226D01*
X167270256Y-97997205D01*
X167325000Y-97960626D01*
X167379744Y-97997205D01*
X167568102Y-98075226D01*
X167768061Y-98115000D01*
X167971939Y-98115000D01*
X168171898Y-98075226D01*
X168360256Y-97997205D01*
X168529774Y-97883937D01*
X168673937Y-97739774D01*
X168787205Y-97570256D01*
X168865226Y-97381898D01*
X168905000Y-97181939D01*
X168905000Y-96978061D01*
X168865226Y-96778102D01*
X168787205Y-96589744D01*
X168673937Y-96420226D01*
X168529774Y-96276063D01*
X168528500Y-96275211D01*
X168553937Y-96249774D01*
X168570810Y-96224521D01*
X168670226Y-96323937D01*
X168839744Y-96437205D01*
X169028102Y-96515226D01*
X169228061Y-96555000D01*
X169431939Y-96555000D01*
X169631898Y-96515226D01*
X169820256Y-96437205D01*
X169989774Y-96323937D01*
X170133937Y-96179774D01*
X170247205Y-96010256D01*
X170306104Y-95868061D01*
X176945000Y-95868061D01*
X176945000Y-96071939D01*
X176984774Y-96271898D01*
X177062795Y-96460256D01*
X177176063Y-96629774D01*
X177320226Y-96773937D01*
X177489744Y-96887205D01*
X177678102Y-96965226D01*
X177878061Y-97005000D01*
X178081939Y-97005000D01*
X178281898Y-96965226D01*
X178470256Y-96887205D01*
X178639774Y-96773937D01*
X178783937Y-96629774D01*
X178897205Y-96460256D01*
X178975226Y-96271898D01*
X179015000Y-96071939D01*
X179015000Y-95868061D01*
X178975226Y-95668102D01*
X178897205Y-95479744D01*
X178783937Y-95310226D01*
X178639774Y-95166063D01*
X178470256Y-95052795D01*
X178281898Y-94974774D01*
X178081939Y-94935000D01*
X177878061Y-94935000D01*
X177678102Y-94974774D01*
X177489744Y-95052795D01*
X177320226Y-95166063D01*
X177176063Y-95310226D01*
X177062795Y-95479744D01*
X176984774Y-95668102D01*
X176945000Y-95868061D01*
X170306104Y-95868061D01*
X170325226Y-95821898D01*
X170365000Y-95621939D01*
X170365000Y-95418061D01*
X170325226Y-95218102D01*
X170247205Y-95029744D01*
X170246020Y-95027970D01*
X170272826Y-94987851D01*
X170350847Y-94799493D01*
X170390621Y-94599534D01*
X170390621Y-94395656D01*
X170350847Y-94195697D01*
X170272826Y-94007339D01*
X170263484Y-93993358D01*
X170267154Y-93987865D01*
X170345175Y-93799507D01*
X170384949Y-93599548D01*
X170384949Y-93395670D01*
X170345175Y-93195711D01*
X170321296Y-93138061D01*
X173314998Y-93138061D01*
X173314998Y-93341939D01*
X173354772Y-93541898D01*
X173432793Y-93730256D01*
X173546061Y-93899774D01*
X173690224Y-94043937D01*
X173859742Y-94157205D01*
X174048100Y-94235226D01*
X174248059Y-94275000D01*
X174451937Y-94275000D01*
X174651896Y-94235226D01*
X174840254Y-94157205D01*
X175009772Y-94043937D01*
X175153935Y-93899774D01*
X175267203Y-93730256D01*
X175345224Y-93541898D01*
X175356542Y-93485000D01*
X175531939Y-93485000D01*
X175731898Y-93445226D01*
X175920256Y-93367205D01*
X176089774Y-93253937D01*
X176233937Y-93109774D01*
X176347205Y-92940256D01*
X176425226Y-92751898D01*
X176465000Y-92551939D01*
X176465000Y-92348061D01*
X176425226Y-92148102D01*
X176347205Y-91959744D01*
X176233937Y-91790226D01*
X176089774Y-91646063D01*
X175920256Y-91532795D01*
X175731898Y-91454774D01*
X175531939Y-91415000D01*
X175328061Y-91415000D01*
X175128102Y-91454774D01*
X174939744Y-91532795D01*
X174770226Y-91646063D01*
X174626063Y-91790226D01*
X174512795Y-91959744D01*
X174434774Y-92148102D01*
X174423456Y-92205000D01*
X174248059Y-92205000D01*
X174048100Y-92244774D01*
X173859742Y-92322795D01*
X173690224Y-92436063D01*
X173546061Y-92580226D01*
X173432793Y-92749744D01*
X173354772Y-92938102D01*
X173314998Y-93138061D01*
X170321296Y-93138061D01*
X170267154Y-93007353D01*
X170153886Y-92837835D01*
X170009723Y-92693672D01*
X169840205Y-92580404D01*
X169651847Y-92502383D01*
X169451888Y-92462609D01*
X169248010Y-92462609D01*
X169048051Y-92502383D01*
X168859693Y-92580404D01*
X168690175Y-92693672D01*
X168546012Y-92837835D01*
X168432744Y-93007353D01*
X168354723Y-93195711D01*
X168314949Y-93395670D01*
X168314949Y-93599548D01*
X168354723Y-93799507D01*
X168432744Y-93987865D01*
X168442086Y-94001846D01*
X168438416Y-94007339D01*
X168360395Y-94195697D01*
X168320621Y-94395656D01*
X168320621Y-94599534D01*
X168349745Y-94745953D01*
X168240256Y-94672795D01*
X168051898Y-94594774D01*
X167851939Y-94555000D01*
X167648061Y-94555000D01*
X167448102Y-94594774D01*
X167259744Y-94672795D01*
X167090226Y-94786063D01*
X166946063Y-94930226D01*
X166832795Y-95099744D01*
X166754774Y-95288102D01*
X166715000Y-95488061D01*
X166715000Y-95691939D01*
X166754774Y-95891898D01*
X166818191Y-96045000D01*
X166678061Y-96045000D01*
X166478102Y-96084774D01*
X166289744Y-96162795D01*
X166120226Y-96276063D01*
X165976063Y-96420226D01*
X165862795Y-96589744D01*
X165784774Y-96778102D01*
X165745000Y-96978061D01*
X165745000Y-97181939D01*
X165784774Y-97381898D01*
X165862795Y-97570256D01*
X165976063Y-97739774D01*
X166120226Y-97883937D01*
X166289744Y-97997205D01*
X166478102Y-98075226D01*
X166527240Y-98085000D01*
X166388061Y-98085000D01*
X166188102Y-98124774D01*
X165999744Y-98202795D01*
X165830226Y-98316063D01*
X165686063Y-98460226D01*
X165630744Y-98543017D01*
X165540778Y-98408373D01*
X165396615Y-98264210D01*
X165385864Y-98257026D01*
X165457205Y-98150256D01*
X165535226Y-97961898D01*
X165575000Y-97761939D01*
X165575000Y-97558061D01*
X165535226Y-97358102D01*
X165457205Y-97169744D01*
X165343937Y-97000226D01*
X165199774Y-96856063D01*
X165030256Y-96742795D01*
X164841898Y-96664774D01*
X164641939Y-96625000D01*
X164438061Y-96625000D01*
X164238102Y-96664774D01*
X164049744Y-96742795D01*
X163948270Y-96810598D01*
X163927205Y-96759744D01*
X163813937Y-96590226D01*
X163669774Y-96446063D01*
X163500256Y-96332795D01*
X163311898Y-96254774D01*
X163111939Y-96215000D01*
X162908061Y-96215000D01*
X162708102Y-96254774D01*
X162519744Y-96332795D01*
X162350226Y-96446063D01*
X162206063Y-96590226D01*
X162092795Y-96759744D01*
X162014774Y-96948102D01*
X161975000Y-97148061D01*
X161975000Y-97351939D01*
X162014774Y-97551898D01*
X162092795Y-97740256D01*
X162206063Y-97909774D01*
X162350226Y-98053937D01*
X162519744Y-98167205D01*
X162521912Y-98168103D01*
X162438102Y-98184774D01*
X162249744Y-98262795D01*
X162080226Y-98376063D01*
X161936063Y-98520226D01*
X161822795Y-98689744D01*
X161744774Y-98878102D01*
X161705000Y-99078061D01*
X160880246Y-99078061D01*
X160895226Y-99041898D01*
X160935000Y-98841939D01*
X160935000Y-98638061D01*
X160895226Y-98438102D01*
X160817205Y-98249744D01*
X160703937Y-98080226D01*
X160559774Y-97936063D01*
X160390256Y-97822795D01*
X160201898Y-97744774D01*
X160001939Y-97705000D01*
X159798061Y-97705000D01*
X159598102Y-97744774D01*
X159409744Y-97822795D01*
X159240226Y-97936063D01*
X159096063Y-98080226D01*
X158982795Y-98249744D01*
X158904774Y-98438102D01*
X158865000Y-98638061D01*
X156029354Y-98638061D01*
X155943937Y-98510226D01*
X155799774Y-98366063D01*
X155630256Y-98252795D01*
X155441898Y-98174774D01*
X155241939Y-98135000D01*
X155038061Y-98135000D01*
X154838102Y-98174774D01*
X154649744Y-98252795D01*
X154480226Y-98366063D01*
X154336063Y-98510226D01*
X154222795Y-98679744D01*
X154144774Y-98868102D01*
X154105000Y-99068061D01*
X152677379Y-99068061D01*
X152661939Y-99064990D01*
X152458061Y-99064990D01*
X152258102Y-99104764D01*
X152069744Y-99182785D01*
X151900226Y-99296053D01*
X151756063Y-99440216D01*
X151642795Y-99609734D01*
X151564774Y-99798092D01*
X151525000Y-99998051D01*
X151525000Y-100201929D01*
X151564774Y-100401888D01*
X151642795Y-100590246D01*
X151756063Y-100759764D01*
X151900226Y-100903927D01*
X152035273Y-100994162D01*
X151891898Y-100934774D01*
X151691939Y-100895000D01*
X151488061Y-100895000D01*
X151288102Y-100934774D01*
X151099744Y-101012795D01*
X150930226Y-101126063D01*
X150786063Y-101270226D01*
X150672795Y-101439744D01*
X150594774Y-101628102D01*
X150555000Y-101828061D01*
X116730000Y-101828061D01*
X116730000Y-99098061D01*
X143325000Y-99098061D01*
X143325000Y-99301939D01*
X143364774Y-99501898D01*
X143442795Y-99690256D01*
X143556063Y-99859774D01*
X143700226Y-100003937D01*
X143869744Y-100117205D01*
X144058102Y-100195226D01*
X144258061Y-100235000D01*
X144461939Y-100235000D01*
X144661898Y-100195226D01*
X144850256Y-100117205D01*
X145019774Y-100003937D01*
X145163937Y-99859774D01*
X145277205Y-99690256D01*
X145355226Y-99501898D01*
X145395000Y-99301939D01*
X145395000Y-99098061D01*
X145355226Y-98898102D01*
X145277205Y-98709744D01*
X145256036Y-98678061D01*
X148585000Y-98678061D01*
X148585000Y-98881939D01*
X148624774Y-99081898D01*
X148702795Y-99270256D01*
X148816063Y-99439774D01*
X148960226Y-99583937D01*
X149129744Y-99697205D01*
X149318102Y-99775226D01*
X149518061Y-99815000D01*
X149721939Y-99815000D01*
X149921898Y-99775226D01*
X150110256Y-99697205D01*
X150279774Y-99583937D01*
X150423937Y-99439774D01*
X150537205Y-99270256D01*
X150615226Y-99081898D01*
X150655000Y-98881939D01*
X150655000Y-98678061D01*
X150615226Y-98478102D01*
X150537205Y-98289744D01*
X150423937Y-98120226D01*
X150279774Y-97976063D01*
X150110256Y-97862795D01*
X149921898Y-97784774D01*
X149721939Y-97745000D01*
X149518061Y-97745000D01*
X149318102Y-97784774D01*
X149129744Y-97862795D01*
X148960226Y-97976063D01*
X148816063Y-98120226D01*
X148702795Y-98289744D01*
X148624774Y-98478102D01*
X148585000Y-98678061D01*
X145256036Y-98678061D01*
X145163937Y-98540226D01*
X145019774Y-98396063D01*
X144850256Y-98282795D01*
X144661898Y-98204774D01*
X144461939Y-98165000D01*
X144258061Y-98165000D01*
X144058102Y-98204774D01*
X143869744Y-98282795D01*
X143700226Y-98396063D01*
X143556063Y-98540226D01*
X143442795Y-98709744D01*
X143364774Y-98898102D01*
X143325000Y-99098061D01*
X116730000Y-99098061D01*
X116730000Y-98845000D01*
X116904476Y-98845000D01*
X117099606Y-98806186D01*
X117283414Y-98730050D01*
X117448837Y-98619518D01*
X117589518Y-98478837D01*
X117700050Y-98313414D01*
X117776186Y-98129606D01*
X117815000Y-97934476D01*
X117815000Y-97735524D01*
X118545000Y-97735524D01*
X118545000Y-97934476D01*
X118583814Y-98129606D01*
X118659950Y-98313414D01*
X118770482Y-98478837D01*
X118911163Y-98619518D01*
X119076586Y-98730050D01*
X119260394Y-98806186D01*
X119455524Y-98845000D01*
X119654476Y-98845000D01*
X119849606Y-98806186D01*
X120033414Y-98730050D01*
X120198837Y-98619518D01*
X120339518Y-98478837D01*
X120450050Y-98313414D01*
X120526186Y-98129606D01*
X120565000Y-97934476D01*
X120565000Y-97735524D01*
X120526186Y-97540394D01*
X120450050Y-97356586D01*
X120357491Y-97218061D01*
X153055000Y-97218061D01*
X153055000Y-97421939D01*
X153094774Y-97621898D01*
X153172795Y-97810256D01*
X153286063Y-97979774D01*
X153430226Y-98123937D01*
X153599744Y-98237205D01*
X153788102Y-98315226D01*
X153988061Y-98355000D01*
X154191939Y-98355000D01*
X154391898Y-98315226D01*
X154580256Y-98237205D01*
X154749774Y-98123937D01*
X154893937Y-97979774D01*
X155007205Y-97810256D01*
X155085226Y-97621898D01*
X155125000Y-97421939D01*
X155125000Y-97218061D01*
X155085226Y-97018102D01*
X155007205Y-96829744D01*
X154893937Y-96660226D01*
X154749774Y-96516063D01*
X154580256Y-96402795D01*
X154391898Y-96324774D01*
X154191939Y-96285000D01*
X153988061Y-96285000D01*
X153788102Y-96324774D01*
X153599744Y-96402795D01*
X153430226Y-96516063D01*
X153286063Y-96660226D01*
X153172795Y-96829744D01*
X153094774Y-97018102D01*
X153055000Y-97218061D01*
X120357491Y-97218061D01*
X120339518Y-97191163D01*
X120198837Y-97050482D01*
X120033414Y-96939950D01*
X119849606Y-96863814D01*
X119654476Y-96825000D01*
X119455524Y-96825000D01*
X119260394Y-96863814D01*
X119076586Y-96939950D01*
X118911163Y-97050482D01*
X118770482Y-97191163D01*
X118659950Y-97356586D01*
X118583814Y-97540394D01*
X118545000Y-97735524D01*
X117815000Y-97735524D01*
X117776186Y-97540394D01*
X117700050Y-97356586D01*
X117589518Y-97191163D01*
X117448837Y-97050482D01*
X117283414Y-96939950D01*
X117099606Y-96863814D01*
X116904476Y-96825000D01*
X116730000Y-96825000D01*
X116730000Y-94683036D01*
X126760025Y-94683036D01*
X126760025Y-94886914D01*
X126799799Y-95086873D01*
X126877820Y-95275231D01*
X126991088Y-95444749D01*
X127135251Y-95588912D01*
X127304769Y-95702180D01*
X127493127Y-95780201D01*
X127565000Y-95794497D01*
X127565000Y-95851939D01*
X127604774Y-96051898D01*
X127682795Y-96240256D01*
X127796063Y-96409774D01*
X127940226Y-96553937D01*
X128109744Y-96667205D01*
X128298102Y-96745226D01*
X128498061Y-96785000D01*
X128701939Y-96785000D01*
X128901898Y-96745226D01*
X129090256Y-96667205D01*
X129259774Y-96553937D01*
X129403937Y-96409774D01*
X129517205Y-96240256D01*
X129595226Y-96051898D01*
X129635000Y-95851939D01*
X129635000Y-95648061D01*
X129595226Y-95448102D01*
X129517205Y-95259744D01*
X129403937Y-95090226D01*
X129259774Y-94946063D01*
X129090256Y-94832795D01*
X128901898Y-94754774D01*
X128830025Y-94740478D01*
X128830025Y-94683036D01*
X128829036Y-94678061D01*
X129415000Y-94678061D01*
X129415000Y-94881939D01*
X129454774Y-95081898D01*
X129532795Y-95270256D01*
X129646063Y-95439774D01*
X129790226Y-95583937D01*
X129959744Y-95697205D01*
X130148102Y-95775226D01*
X130348061Y-95815000D01*
X130551939Y-95815000D01*
X130751898Y-95775226D01*
X130940256Y-95697205D01*
X131109774Y-95583937D01*
X131253937Y-95439774D01*
X131367205Y-95270256D01*
X131415944Y-95152590D01*
X131428061Y-95155000D01*
X131631939Y-95155000D01*
X131788638Y-95123831D01*
X131846063Y-95209774D01*
X131990226Y-95353937D01*
X132159744Y-95467205D01*
X132348102Y-95545226D01*
X132548061Y-95585000D01*
X132751939Y-95585000D01*
X132794014Y-95576631D01*
X132832795Y-95670256D01*
X132946063Y-95839774D01*
X133090226Y-95983937D01*
X133259744Y-96097205D01*
X133448102Y-96175226D01*
X133648061Y-96215000D01*
X133851939Y-96215000D01*
X134051898Y-96175226D01*
X134240256Y-96097205D01*
X134328787Y-96038050D01*
X156485000Y-96038050D01*
X156485000Y-96241928D01*
X156524774Y-96441887D01*
X156602795Y-96630245D01*
X156716063Y-96799763D01*
X156860226Y-96943926D01*
X157029744Y-97057194D01*
X157218102Y-97135215D01*
X157418061Y-97174989D01*
X157621939Y-97174989D01*
X157821898Y-97135215D01*
X158010256Y-97057194D01*
X158179774Y-96943926D01*
X158323937Y-96799763D01*
X158437205Y-96630245D01*
X158515226Y-96441887D01*
X158555000Y-96241928D01*
X158555000Y-96038422D01*
X158676061Y-96014574D01*
X158846351Y-95944408D01*
X158849425Y-95942763D01*
X158859936Y-95749541D01*
X158405000Y-95294605D01*
X158390858Y-95308748D01*
X158211253Y-95129143D01*
X158225395Y-95115000D01*
X158584605Y-95115000D01*
X158761969Y-95292364D01*
X158780426Y-95386061D01*
X158850592Y-95556351D01*
X158852237Y-95559425D01*
X159039201Y-95569596D01*
X159039541Y-95569936D01*
X159042500Y-95569775D01*
X159045459Y-95569936D01*
X159045799Y-95569596D01*
X159232763Y-95559425D01*
X159303562Y-95389397D01*
X159323055Y-95292340D01*
X159500395Y-95115000D01*
X159323031Y-94937636D01*
X159304574Y-94843939D01*
X159234408Y-94673649D01*
X159232763Y-94670575D01*
X159045799Y-94660404D01*
X159045459Y-94660064D01*
X159042500Y-94660225D01*
X159039541Y-94660064D01*
X159039201Y-94660404D01*
X158852237Y-94670575D01*
X158781438Y-94840603D01*
X158761945Y-94937660D01*
X158584605Y-95115000D01*
X158225395Y-95115000D01*
X157770459Y-94660064D01*
X157577237Y-94670575D01*
X157506438Y-94840603D01*
X157470172Y-95021176D01*
X157470016Y-95104989D01*
X157418061Y-95104989D01*
X157218102Y-95144763D01*
X157029744Y-95222784D01*
X156860226Y-95336052D01*
X156716063Y-95480215D01*
X156602795Y-95649733D01*
X156524774Y-95838091D01*
X156485000Y-96038050D01*
X134328787Y-96038050D01*
X134409774Y-95983937D01*
X134553937Y-95839774D01*
X134667205Y-95670256D01*
X134697571Y-95596946D01*
X134738061Y-95605000D01*
X134941939Y-95605000D01*
X135141898Y-95565226D01*
X135330256Y-95487205D01*
X135499774Y-95373937D01*
X135643937Y-95229774D01*
X135757205Y-95060256D01*
X135835226Y-94871898D01*
X135875000Y-94671939D01*
X135875000Y-94474541D01*
X157950064Y-94474541D01*
X157950225Y-94477500D01*
X157950064Y-94480459D01*
X157950404Y-94480799D01*
X157960575Y-94667763D01*
X158130603Y-94738562D01*
X158227660Y-94758055D01*
X158405000Y-94935395D01*
X158582364Y-94758031D01*
X158676061Y-94739574D01*
X158846351Y-94669408D01*
X158849425Y-94667763D01*
X158859596Y-94480799D01*
X158859936Y-94480459D01*
X158859775Y-94477500D01*
X158859936Y-94474541D01*
X159225064Y-94474541D01*
X159225225Y-94477500D01*
X159225064Y-94480459D01*
X159225404Y-94480799D01*
X159235575Y-94667763D01*
X159405603Y-94738562D01*
X159502660Y-94758055D01*
X159680000Y-94935395D01*
X159857364Y-94758031D01*
X159951061Y-94739574D01*
X160121351Y-94669408D01*
X160124425Y-94667763D01*
X160134596Y-94480799D01*
X160134936Y-94480459D01*
X160134775Y-94477500D01*
X160134936Y-94474541D01*
X160134596Y-94474201D01*
X160124425Y-94287237D01*
X159954397Y-94216438D01*
X159857340Y-94196945D01*
X159680000Y-94019605D01*
X159502636Y-94196969D01*
X159408939Y-94215426D01*
X159238649Y-94285592D01*
X159235575Y-94287237D01*
X159225404Y-94474201D01*
X159225064Y-94474541D01*
X158859936Y-94474541D01*
X158859596Y-94474201D01*
X158849425Y-94287237D01*
X158679397Y-94216438D01*
X158582340Y-94196945D01*
X158405000Y-94019605D01*
X158227636Y-94196969D01*
X158133939Y-94215426D01*
X157963649Y-94285592D01*
X157960575Y-94287237D01*
X157950404Y-94474201D01*
X157950064Y-94474541D01*
X135875000Y-94474541D01*
X135875000Y-94468061D01*
X135835226Y-94268102D01*
X135757205Y-94079744D01*
X135657387Y-93930355D01*
X157469829Y-93930355D01*
X157505426Y-94111061D01*
X157575592Y-94281351D01*
X157577237Y-94284425D01*
X157770459Y-94294936D01*
X158225395Y-93840000D01*
X158584605Y-93840000D01*
X158761969Y-94017364D01*
X158780426Y-94111061D01*
X158850592Y-94281351D01*
X158852237Y-94284425D01*
X159039201Y-94294596D01*
X159039541Y-94294936D01*
X159042500Y-94294775D01*
X159045459Y-94294936D01*
X159045799Y-94294596D01*
X159232763Y-94284425D01*
X159303562Y-94114397D01*
X159323055Y-94017340D01*
X159500395Y-93840000D01*
X159859605Y-93840000D01*
X160036969Y-94017364D01*
X160055426Y-94111061D01*
X160125592Y-94281351D01*
X160127237Y-94284425D01*
X160314201Y-94294596D01*
X160314541Y-94294936D01*
X160317500Y-94294775D01*
X160320459Y-94294936D01*
X160320799Y-94294596D01*
X160507763Y-94284425D01*
X160578562Y-94114397D01*
X160598055Y-94017340D01*
X160775395Y-93840000D01*
X160598031Y-93662636D01*
X160579574Y-93568939D01*
X160509408Y-93398649D01*
X160507763Y-93395575D01*
X160320799Y-93385404D01*
X160320459Y-93385064D01*
X160317500Y-93385225D01*
X160314541Y-93385064D01*
X160314201Y-93385404D01*
X160127237Y-93395575D01*
X160056438Y-93565603D01*
X160036945Y-93662660D01*
X159859605Y-93840000D01*
X159500395Y-93840000D01*
X159323031Y-93662636D01*
X159304574Y-93568939D01*
X159234408Y-93398649D01*
X159232763Y-93395575D01*
X159045799Y-93385404D01*
X159045459Y-93385064D01*
X159042500Y-93385225D01*
X159039541Y-93385064D01*
X159039201Y-93385404D01*
X158852237Y-93395575D01*
X158781438Y-93565603D01*
X158761945Y-93662660D01*
X158584605Y-93840000D01*
X158225395Y-93840000D01*
X157770459Y-93385064D01*
X157577237Y-93395575D01*
X157506438Y-93565603D01*
X157470172Y-93746176D01*
X157469829Y-93930355D01*
X135657387Y-93930355D01*
X135643937Y-93910226D01*
X135499774Y-93766063D01*
X135330256Y-93652795D01*
X135141898Y-93574774D01*
X134941939Y-93535000D01*
X134738061Y-93535000D01*
X134538102Y-93574774D01*
X134349744Y-93652795D01*
X134180226Y-93766063D01*
X134036063Y-93910226D01*
X133922795Y-94079744D01*
X133892429Y-94153054D01*
X133851939Y-94145000D01*
X133648061Y-94145000D01*
X133605986Y-94153369D01*
X133567205Y-94059744D01*
X133453937Y-93890226D01*
X133309774Y-93746063D01*
X133140256Y-93632795D01*
X132951898Y-93554774D01*
X132751939Y-93515000D01*
X132548061Y-93515000D01*
X132391362Y-93546169D01*
X132333937Y-93460226D01*
X132189774Y-93316063D01*
X132020256Y-93202795D01*
X132012401Y-93199541D01*
X157950064Y-93199541D01*
X157950225Y-93202500D01*
X157950064Y-93205459D01*
X157950404Y-93205799D01*
X157960575Y-93392763D01*
X158130603Y-93463562D01*
X158227660Y-93483055D01*
X158405000Y-93660395D01*
X158582364Y-93483031D01*
X158676061Y-93464574D01*
X158846351Y-93394408D01*
X158849425Y-93392763D01*
X158859596Y-93205799D01*
X158859936Y-93205459D01*
X158859775Y-93202500D01*
X158859936Y-93199541D01*
X159225064Y-93199541D01*
X159225225Y-93202500D01*
X159225064Y-93205459D01*
X159225404Y-93205799D01*
X159235575Y-93392763D01*
X159405603Y-93463562D01*
X159502660Y-93483055D01*
X159680000Y-93660395D01*
X159857364Y-93483031D01*
X159951061Y-93464574D01*
X160121351Y-93394408D01*
X160124425Y-93392763D01*
X160134596Y-93205799D01*
X160134936Y-93205459D01*
X160134775Y-93202500D01*
X160134936Y-93199541D01*
X160134596Y-93199201D01*
X160124425Y-93012237D01*
X159954397Y-92941438D01*
X159857340Y-92921945D01*
X159680000Y-92744605D01*
X159502636Y-92921969D01*
X159408939Y-92940426D01*
X159238649Y-93010592D01*
X159235575Y-93012237D01*
X159225404Y-93199201D01*
X159225064Y-93199541D01*
X158859936Y-93199541D01*
X158859596Y-93199201D01*
X158849425Y-93012237D01*
X158679397Y-92941438D01*
X158582340Y-92921945D01*
X158405000Y-92744605D01*
X158227636Y-92921969D01*
X158133939Y-92940426D01*
X157963649Y-93010592D01*
X157960575Y-93012237D01*
X157950404Y-93199201D01*
X157950064Y-93199541D01*
X132012401Y-93199541D01*
X131831898Y-93124774D01*
X131631939Y-93085000D01*
X131428061Y-93085000D01*
X131228102Y-93124774D01*
X131039744Y-93202795D01*
X130870226Y-93316063D01*
X130726063Y-93460226D01*
X130612795Y-93629744D01*
X130564056Y-93747410D01*
X130551939Y-93745000D01*
X130348061Y-93745000D01*
X130148102Y-93784774D01*
X129959744Y-93862795D01*
X129790226Y-93976063D01*
X129646063Y-94120226D01*
X129532795Y-94289744D01*
X129454774Y-94478102D01*
X129415000Y-94678061D01*
X128829036Y-94678061D01*
X128790251Y-94483077D01*
X128712230Y-94294719D01*
X128598962Y-94125201D01*
X128454799Y-93981038D01*
X128285281Y-93867770D01*
X128096923Y-93789749D01*
X127896964Y-93749975D01*
X127693086Y-93749975D01*
X127493127Y-93789749D01*
X127304769Y-93867770D01*
X127135251Y-93981038D01*
X126991088Y-94125201D01*
X126877820Y-94294719D01*
X126799799Y-94483077D01*
X126760025Y-94683036D01*
X116730000Y-94683036D01*
X116730000Y-90910000D01*
X116904476Y-90910000D01*
X117099606Y-90871186D01*
X117283414Y-90795050D01*
X117448837Y-90684518D01*
X117589518Y-90543837D01*
X117700050Y-90378414D01*
X117776186Y-90194606D01*
X117815000Y-89999476D01*
X117815000Y-89800524D01*
X118545000Y-89800524D01*
X118545000Y-89999476D01*
X118583814Y-90194606D01*
X118659950Y-90378414D01*
X118770482Y-90543837D01*
X118911163Y-90684518D01*
X119076586Y-90795050D01*
X119260394Y-90871186D01*
X119455524Y-90910000D01*
X119654476Y-90910000D01*
X119849606Y-90871186D01*
X120033414Y-90795050D01*
X120198837Y-90684518D01*
X120339518Y-90543837D01*
X120450050Y-90378414D01*
X120526186Y-90194606D01*
X120565000Y-89999476D01*
X120565000Y-89800524D01*
X120560532Y-89778061D01*
X127845000Y-89778061D01*
X127845000Y-89981939D01*
X127884774Y-90181898D01*
X127962795Y-90370256D01*
X128076063Y-90539774D01*
X128220226Y-90683937D01*
X128389744Y-90797205D01*
X128578102Y-90875226D01*
X128778061Y-90915000D01*
X128981939Y-90915000D01*
X129181898Y-90875226D01*
X129370256Y-90797205D01*
X129505000Y-90707172D01*
X129505000Y-90861939D01*
X129544774Y-91061898D01*
X129622795Y-91250256D01*
X129736063Y-91419774D01*
X129880226Y-91563937D01*
X130049744Y-91677205D01*
X130238102Y-91755226D01*
X130438061Y-91795000D01*
X130641939Y-91795000D01*
X130841898Y-91755226D01*
X131030256Y-91677205D01*
X131199774Y-91563937D01*
X131343937Y-91419774D01*
X131457205Y-91250256D01*
X131535226Y-91061898D01*
X131575000Y-90861939D01*
X131575000Y-90658061D01*
X131535226Y-90458102D01*
X131457205Y-90269744D01*
X131343937Y-90100226D01*
X131199774Y-89956063D01*
X131030256Y-89842795D01*
X130841898Y-89764774D01*
X130808150Y-89758061D01*
X134885000Y-89758061D01*
X134885000Y-89961939D01*
X134924774Y-90161898D01*
X135002795Y-90350256D01*
X135116063Y-90519774D01*
X135260226Y-90663937D01*
X135429744Y-90777205D01*
X135618102Y-90855226D01*
X135818061Y-90895000D01*
X136021939Y-90895000D01*
X136221898Y-90855226D01*
X136410256Y-90777205D01*
X136515194Y-90707088D01*
X136515000Y-90708061D01*
X136515000Y-90911939D01*
X136554774Y-91111898D01*
X136632795Y-91300256D01*
X136746063Y-91469774D01*
X136890226Y-91613937D01*
X137059744Y-91727205D01*
X137248102Y-91805226D01*
X137448061Y-91845000D01*
X137651939Y-91845000D01*
X137851898Y-91805226D01*
X138040256Y-91727205D01*
X138095115Y-91690549D01*
X156437133Y-91690549D01*
X156437133Y-91894427D01*
X156476907Y-92094386D01*
X156554928Y-92282744D01*
X156668196Y-92452262D01*
X156812359Y-92596425D01*
X156981877Y-92709693D01*
X157170235Y-92787714D01*
X157370194Y-92827488D01*
X157503737Y-92827488D01*
X157505426Y-92836061D01*
X157575592Y-93006351D01*
X157577237Y-93009425D01*
X157770459Y-93019936D01*
X158225395Y-92565000D01*
X158211253Y-92550858D01*
X158390858Y-92371253D01*
X158405000Y-92385395D01*
X158419143Y-92371253D01*
X158598748Y-92550858D01*
X158584605Y-92565000D01*
X158761969Y-92742364D01*
X158780426Y-92836061D01*
X158850592Y-93006351D01*
X158852237Y-93009425D01*
X159039201Y-93019596D01*
X159039541Y-93019936D01*
X159042500Y-93019775D01*
X159045459Y-93019936D01*
X159045799Y-93019596D01*
X159232763Y-93009425D01*
X159303562Y-92839397D01*
X159323055Y-92742340D01*
X159500395Y-92565000D01*
X159486253Y-92550858D01*
X159598777Y-92438333D01*
X159679201Y-92384596D01*
X159680000Y-92385395D01*
X159684019Y-92381376D01*
X159696156Y-92373266D01*
X159873748Y-92550858D01*
X159859605Y-92565000D01*
X160036969Y-92742364D01*
X160055426Y-92836061D01*
X160125592Y-93006351D01*
X160127237Y-93009425D01*
X160314201Y-93019596D01*
X160314541Y-93019936D01*
X160317500Y-93019775D01*
X160320459Y-93019936D01*
X160320799Y-93019596D01*
X160507763Y-93009425D01*
X160578562Y-92839397D01*
X160598055Y-92742340D01*
X160775395Y-92565000D01*
X160768249Y-92557854D01*
X160881904Y-92535247D01*
X161050766Y-92465302D01*
X161024753Y-92528102D01*
X160984979Y-92728061D01*
X160984979Y-92742911D01*
X160969143Y-92758748D01*
X160955000Y-92744605D01*
X160777636Y-92921969D01*
X160683939Y-92940426D01*
X160513649Y-93010592D01*
X160510575Y-93012237D01*
X160500404Y-93199201D01*
X160500064Y-93199541D01*
X160500225Y-93202500D01*
X160500064Y-93205459D01*
X160500404Y-93205799D01*
X160510575Y-93392763D01*
X160680603Y-93463562D01*
X160777660Y-93483055D01*
X160955000Y-93660395D01*
X160969143Y-93646253D01*
X161148748Y-93825858D01*
X161134605Y-93840000D01*
X161148748Y-93854143D01*
X160969143Y-94033748D01*
X160955000Y-94019605D01*
X160777636Y-94196969D01*
X160683939Y-94215426D01*
X160513649Y-94285592D01*
X160510575Y-94287237D01*
X160500404Y-94474201D01*
X160500064Y-94474541D01*
X160500225Y-94477500D01*
X160500064Y-94480459D01*
X160500404Y-94480799D01*
X160510575Y-94667763D01*
X160680603Y-94738562D01*
X160777660Y-94758055D01*
X160955000Y-94935395D01*
X160969143Y-94921253D01*
X160980044Y-94932154D01*
X160955000Y-95058061D01*
X160955000Y-95062446D01*
X160794417Y-95128962D01*
X160774428Y-95142318D01*
X160761253Y-95129143D01*
X160775395Y-95115000D01*
X160598031Y-94937636D01*
X160579574Y-94843939D01*
X160509408Y-94673649D01*
X160507763Y-94670575D01*
X160320799Y-94660404D01*
X160320459Y-94660064D01*
X160317500Y-94660225D01*
X160314541Y-94660064D01*
X160314201Y-94660404D01*
X160127237Y-94670575D01*
X160056438Y-94840603D01*
X160036945Y-94937660D01*
X159859605Y-95115000D01*
X159863678Y-95119073D01*
X159794590Y-95147690D01*
X159625072Y-95260958D01*
X159480909Y-95405121D01*
X159367641Y-95574639D01*
X159344783Y-95629822D01*
X159225064Y-95749541D01*
X159235575Y-95942763D01*
X159252464Y-95949795D01*
X159249846Y-95962956D01*
X159249846Y-96166834D01*
X159289620Y-96366793D01*
X159367641Y-96555151D01*
X159480909Y-96724669D01*
X159625072Y-96868832D01*
X159794590Y-96982100D01*
X159982948Y-97060121D01*
X160182907Y-97099895D01*
X160386785Y-97099895D01*
X160586744Y-97060121D01*
X160775102Y-96982100D01*
X160799796Y-96965600D01*
X160982775Y-97041393D01*
X161182734Y-97081167D01*
X161386612Y-97081167D01*
X161586571Y-97041393D01*
X161774929Y-96963372D01*
X161944447Y-96850104D01*
X162088610Y-96705941D01*
X162201878Y-96536423D01*
X162279899Y-96348065D01*
X162319673Y-96148106D01*
X162319673Y-96143721D01*
X162480256Y-96077205D01*
X162649774Y-95963937D01*
X162793937Y-95819774D01*
X162907205Y-95650256D01*
X162985226Y-95461898D01*
X163025000Y-95261939D01*
X163025000Y-95058061D01*
X162985226Y-94858102D01*
X162907205Y-94669744D01*
X162793937Y-94500226D01*
X162649774Y-94356063D01*
X162480256Y-94242795D01*
X162291898Y-94164774D01*
X162091939Y-94125000D01*
X161888061Y-94125000D01*
X161845633Y-94133439D01*
X161853562Y-94114397D01*
X161889828Y-93933824D01*
X161889967Y-93859416D01*
X161918040Y-93865000D01*
X162121918Y-93865000D01*
X162321877Y-93825226D01*
X162510235Y-93747205D01*
X162679753Y-93633937D01*
X162823916Y-93489774D01*
X162937184Y-93320256D01*
X163015205Y-93131898D01*
X163054979Y-92931939D01*
X163054979Y-92728061D01*
X163015205Y-92528102D01*
X162937184Y-92339744D01*
X162823916Y-92170226D01*
X162752296Y-92098606D01*
X162797394Y-91989731D01*
X162837168Y-91789772D01*
X162837168Y-91585894D01*
X162797394Y-91385935D01*
X162719373Y-91197577D01*
X162606105Y-91028059D01*
X162461942Y-90883896D01*
X162292424Y-90770628D01*
X162104066Y-90692607D01*
X161904107Y-90652833D01*
X161700229Y-90652833D01*
X161500270Y-90692607D01*
X161311912Y-90770628D01*
X161289380Y-90785684D01*
X161239780Y-90736084D01*
X161070262Y-90622816D01*
X160881904Y-90544795D01*
X160681945Y-90505021D01*
X160478067Y-90505021D01*
X160278108Y-90544795D01*
X160089750Y-90622816D01*
X159920232Y-90736084D01*
X159830138Y-90826178D01*
X159740034Y-90736074D01*
X159570516Y-90622806D01*
X159382158Y-90544785D01*
X159182199Y-90505011D01*
X158978321Y-90505011D01*
X158778362Y-90544785D01*
X158590004Y-90622806D01*
X158420486Y-90736074D01*
X158276323Y-90880237D01*
X158175094Y-91031738D01*
X158131907Y-90988551D01*
X157962389Y-90875283D01*
X157774031Y-90797262D01*
X157574072Y-90757488D01*
X157370194Y-90757488D01*
X157170235Y-90797262D01*
X156981877Y-90875283D01*
X156812359Y-90988551D01*
X156668196Y-91132714D01*
X156554928Y-91302232D01*
X156476907Y-91490590D01*
X156437133Y-91690549D01*
X138095115Y-91690549D01*
X138209774Y-91613937D01*
X138353937Y-91469774D01*
X138467205Y-91300256D01*
X138545226Y-91111898D01*
X138585000Y-90911939D01*
X138585000Y-90708061D01*
X138545226Y-90508102D01*
X138467205Y-90319744D01*
X138435672Y-90272551D01*
X138437205Y-90270256D01*
X138515226Y-90081898D01*
X138555000Y-89881939D01*
X138555000Y-89678061D01*
X138515226Y-89478102D01*
X138437205Y-89289744D01*
X138323937Y-89120226D01*
X138179774Y-88976063D01*
X138107934Y-88928061D01*
X141405000Y-88928061D01*
X141405000Y-89131939D01*
X141444774Y-89331898D01*
X141522795Y-89520256D01*
X141636063Y-89689774D01*
X141780226Y-89833937D01*
X141949744Y-89947205D01*
X142138102Y-90025226D01*
X142338061Y-90065000D01*
X142541939Y-90065000D01*
X142741898Y-90025226D01*
X142930256Y-89947205D01*
X143099774Y-89833937D01*
X143243937Y-89689774D01*
X143357205Y-89520256D01*
X143435226Y-89331898D01*
X143475000Y-89131939D01*
X143475000Y-88928061D01*
X143435226Y-88728102D01*
X143357205Y-88539744D01*
X143243937Y-88370226D01*
X143099774Y-88226063D01*
X142930256Y-88112795D01*
X142741898Y-88034774D01*
X142541939Y-87995000D01*
X142338061Y-87995000D01*
X142138102Y-88034774D01*
X141949744Y-88112795D01*
X141780226Y-88226063D01*
X141636063Y-88370226D01*
X141522795Y-88539744D01*
X141444774Y-88728102D01*
X141405000Y-88928061D01*
X138107934Y-88928061D01*
X138010256Y-88862795D01*
X137821898Y-88784774D01*
X137621939Y-88745000D01*
X137418061Y-88745000D01*
X137218102Y-88784774D01*
X137029744Y-88862795D01*
X136860226Y-88976063D01*
X136716063Y-89120226D01*
X136687173Y-89163462D01*
X136579774Y-89056063D01*
X136410256Y-88942795D01*
X136221898Y-88864774D01*
X136021939Y-88825000D01*
X135818061Y-88825000D01*
X135618102Y-88864774D01*
X135429744Y-88942795D01*
X135260226Y-89056063D01*
X135116063Y-89200226D01*
X135002795Y-89369744D01*
X134924774Y-89558102D01*
X134885000Y-89758061D01*
X130808150Y-89758061D01*
X130641939Y-89725000D01*
X130438061Y-89725000D01*
X130238102Y-89764774D01*
X130049744Y-89842795D01*
X129915000Y-89932828D01*
X129915000Y-89778061D01*
X129875226Y-89578102D01*
X129797205Y-89389744D01*
X129683937Y-89220226D01*
X129539774Y-89076063D01*
X129370256Y-88962795D01*
X129181898Y-88884774D01*
X128981939Y-88845000D01*
X128778061Y-88845000D01*
X128578102Y-88884774D01*
X128389744Y-88962795D01*
X128220226Y-89076063D01*
X128076063Y-89220226D01*
X127962795Y-89389744D01*
X127884774Y-89578102D01*
X127845000Y-89778061D01*
X120560532Y-89778061D01*
X120526186Y-89605394D01*
X120450050Y-89421586D01*
X120339518Y-89256163D01*
X120198837Y-89115482D01*
X120033414Y-89004950D01*
X119849606Y-88928814D01*
X119654476Y-88890000D01*
X119455524Y-88890000D01*
X119260394Y-88928814D01*
X119076586Y-89004950D01*
X118911163Y-89115482D01*
X118770482Y-89256163D01*
X118659950Y-89421586D01*
X118583814Y-89605394D01*
X118545000Y-89800524D01*
X117815000Y-89800524D01*
X117776186Y-89605394D01*
X117700050Y-89421586D01*
X117589518Y-89256163D01*
X117448837Y-89115482D01*
X117283414Y-89004950D01*
X117099606Y-88928814D01*
X116904476Y-88890000D01*
X116730000Y-88890000D01*
X116730000Y-86358061D01*
X119485000Y-86358061D01*
X119485000Y-86561939D01*
X119524774Y-86761898D01*
X119602795Y-86950256D01*
X119716063Y-87119774D01*
X119860226Y-87263937D01*
X120029744Y-87377205D01*
X120218102Y-87455226D01*
X120418061Y-87495000D01*
X120621939Y-87495000D01*
X120821898Y-87455226D01*
X121010256Y-87377205D01*
X121179774Y-87263937D01*
X121323937Y-87119774D01*
X121437205Y-86950256D01*
X121475394Y-86858059D01*
X125885000Y-86858059D01*
X125885000Y-87061937D01*
X125924774Y-87261896D01*
X126002795Y-87450254D01*
X126116063Y-87619772D01*
X126260226Y-87763935D01*
X126429744Y-87877203D01*
X126618102Y-87955224D01*
X126818061Y-87994998D01*
X127021939Y-87994998D01*
X127221898Y-87955224D01*
X127410256Y-87877203D01*
X127579774Y-87763935D01*
X127723937Y-87619772D01*
X127837205Y-87450254D01*
X127915226Y-87261896D01*
X127955000Y-87061937D01*
X127955000Y-86998061D01*
X129525000Y-86998061D01*
X129525000Y-87201939D01*
X129564774Y-87401898D01*
X129642795Y-87590256D01*
X129756063Y-87759774D01*
X129900226Y-87903937D01*
X130069744Y-88017205D01*
X130258102Y-88095226D01*
X130458061Y-88135000D01*
X130485000Y-88135000D01*
X130485000Y-88221939D01*
X130524774Y-88421898D01*
X130602795Y-88610256D01*
X130716063Y-88779774D01*
X130860226Y-88923937D01*
X131029744Y-89037205D01*
X131218102Y-89115226D01*
X131418061Y-89155000D01*
X131621939Y-89155000D01*
X131821898Y-89115226D01*
X132010256Y-89037205D01*
X132179774Y-88923937D01*
X132323937Y-88779774D01*
X132437205Y-88610256D01*
X132515226Y-88421898D01*
X132555000Y-88221939D01*
X132555000Y-88018061D01*
X132515226Y-87818102D01*
X132437205Y-87629744D01*
X132402424Y-87577690D01*
X134854629Y-87577690D01*
X134854629Y-87781568D01*
X134894403Y-87981527D01*
X134972424Y-88169885D01*
X135085692Y-88339403D01*
X135229855Y-88483566D01*
X135399373Y-88596834D01*
X135587731Y-88674855D01*
X135787690Y-88714629D01*
X135991568Y-88714629D01*
X136191527Y-88674855D01*
X136379885Y-88596834D01*
X136549403Y-88483566D01*
X136693566Y-88339403D01*
X136806834Y-88169885D01*
X136884855Y-87981527D01*
X136924629Y-87781568D01*
X136924629Y-87577690D01*
X136884855Y-87377731D01*
X136806834Y-87189373D01*
X136737156Y-87085092D01*
X136807205Y-86980256D01*
X136885226Y-86791898D01*
X136925000Y-86591939D01*
X136925000Y-86388061D01*
X136885226Y-86188102D01*
X136807205Y-85999744D01*
X136693937Y-85830226D01*
X136549774Y-85686063D01*
X136380256Y-85572795D01*
X136191898Y-85494774D01*
X135991939Y-85455000D01*
X135788061Y-85455000D01*
X135588102Y-85494774D01*
X135399744Y-85572795D01*
X135230226Y-85686063D01*
X135086063Y-85830226D01*
X134972795Y-85999744D01*
X134894774Y-86188102D01*
X134855000Y-86388061D01*
X134855000Y-86591939D01*
X134894774Y-86791898D01*
X134972795Y-86980256D01*
X135042473Y-87084537D01*
X134972424Y-87189373D01*
X134894403Y-87377731D01*
X134854629Y-87577690D01*
X132402424Y-87577690D01*
X132323937Y-87460226D01*
X132179774Y-87316063D01*
X132010256Y-87202795D01*
X131821898Y-87124774D01*
X131621939Y-87085000D01*
X131595000Y-87085000D01*
X131595000Y-86998061D01*
X131555226Y-86798102D01*
X131477205Y-86609744D01*
X131363937Y-86440226D01*
X131219774Y-86296063D01*
X131050256Y-86182795D01*
X130861898Y-86104774D01*
X130661939Y-86065000D01*
X130458061Y-86065000D01*
X130258102Y-86104774D01*
X130069744Y-86182795D01*
X129900226Y-86296063D01*
X129756063Y-86440226D01*
X129642795Y-86609744D01*
X129564774Y-86798102D01*
X129525000Y-86998061D01*
X127955000Y-86998061D01*
X127955000Y-86858059D01*
X127915226Y-86658100D01*
X127837205Y-86469742D01*
X127723937Y-86300224D01*
X127579774Y-86156061D01*
X127410256Y-86042793D01*
X127221898Y-85964772D01*
X127021939Y-85924998D01*
X126818061Y-85924998D01*
X126618102Y-85964772D01*
X126429744Y-86042793D01*
X126260226Y-86156061D01*
X126116063Y-86300224D01*
X126002795Y-86469742D01*
X125924774Y-86658100D01*
X125885000Y-86858059D01*
X121475394Y-86858059D01*
X121515226Y-86761898D01*
X121555000Y-86561939D01*
X121555000Y-86358061D01*
X121515226Y-86158102D01*
X121437205Y-85969744D01*
X121323937Y-85800226D01*
X121179774Y-85656063D01*
X121010256Y-85542795D01*
X120821898Y-85464774D01*
X120621939Y-85425000D01*
X120418061Y-85425000D01*
X120218102Y-85464774D01*
X120029744Y-85542795D01*
X119860226Y-85656063D01*
X119716063Y-85800226D01*
X119602795Y-85969744D01*
X119524774Y-86158102D01*
X119485000Y-86358061D01*
X116730000Y-86358061D01*
X116730000Y-82189033D01*
X117529545Y-82189033D01*
X117529545Y-82590967D01*
X117607958Y-82985179D01*
X117761772Y-83356518D01*
X117985075Y-83690714D01*
X118269286Y-83974925D01*
X118603482Y-84198228D01*
X118974821Y-84352042D01*
X119369033Y-84430455D01*
X119770967Y-84430455D01*
X120165179Y-84352042D01*
X120536518Y-84198228D01*
X120870714Y-83974925D01*
X121154925Y-83690714D01*
X121378228Y-83356518D01*
X121532042Y-82985179D01*
X121572854Y-82780000D01*
X123051928Y-82780000D01*
X123051928Y-84480000D01*
X123064188Y-84604482D01*
X123100498Y-84724180D01*
X123159463Y-84834494D01*
X123238815Y-84931185D01*
X123335506Y-85010537D01*
X123445820Y-85069502D01*
X123565518Y-85105812D01*
X123690000Y-85118072D01*
X125390000Y-85118072D01*
X125514482Y-85105812D01*
X125634180Y-85069502D01*
X125744494Y-85010537D01*
X125841185Y-84931185D01*
X125920537Y-84834494D01*
X125979502Y-84724180D01*
X126001513Y-84651620D01*
X126133368Y-84783475D01*
X126376589Y-84945990D01*
X126646842Y-85057932D01*
X126933740Y-85115000D01*
X127226260Y-85115000D01*
X127513158Y-85057932D01*
X127783411Y-84945990D01*
X128026632Y-84783475D01*
X128233475Y-84576632D01*
X128350000Y-84402240D01*
X128466525Y-84576632D01*
X128673368Y-84783475D01*
X128916589Y-84945990D01*
X129186842Y-85057932D01*
X129473740Y-85115000D01*
X129766260Y-85115000D01*
X130053158Y-85057932D01*
X130323411Y-84945990D01*
X130566632Y-84783475D01*
X130773475Y-84576632D01*
X130890000Y-84402240D01*
X131006525Y-84576632D01*
X131213368Y-84783475D01*
X131456589Y-84945990D01*
X131726842Y-85057932D01*
X132013740Y-85115000D01*
X132306260Y-85115000D01*
X132593158Y-85057932D01*
X132863411Y-84945990D01*
X133106632Y-84783475D01*
X133313475Y-84576632D01*
X133430000Y-84402240D01*
X133546525Y-84576632D01*
X133753368Y-84783475D01*
X133996589Y-84945990D01*
X134266842Y-85057932D01*
X134553740Y-85115000D01*
X134846260Y-85115000D01*
X135133158Y-85057932D01*
X135403411Y-84945990D01*
X135646632Y-84783475D01*
X135853475Y-84576632D01*
X135970000Y-84402240D01*
X136086525Y-84576632D01*
X136293368Y-84783475D01*
X136536589Y-84945990D01*
X136806842Y-85057932D01*
X137093740Y-85115000D01*
X137386260Y-85115000D01*
X137673158Y-85057932D01*
X137943411Y-84945990D01*
X138186632Y-84783475D01*
X138393475Y-84576632D01*
X138510000Y-84402240D01*
X138626525Y-84576632D01*
X138833368Y-84783475D01*
X139076589Y-84945990D01*
X139346842Y-85057932D01*
X139633740Y-85115000D01*
X139636444Y-85115000D01*
X139470226Y-85226063D01*
X139326063Y-85370226D01*
X139212795Y-85539744D01*
X139134774Y-85728102D01*
X139095000Y-85928061D01*
X139095000Y-86131939D01*
X139134774Y-86331898D01*
X139212795Y-86520256D01*
X139326063Y-86689774D01*
X139470226Y-86833937D01*
X139639744Y-86947205D01*
X139828102Y-87025226D01*
X140028061Y-87065000D01*
X140231939Y-87065000D01*
X140431898Y-87025226D01*
X140620256Y-86947205D01*
X140789774Y-86833937D01*
X140933937Y-86689774D01*
X140935081Y-86688061D01*
X144575000Y-86688061D01*
X144575000Y-86891939D01*
X144614774Y-87091898D01*
X144692795Y-87280256D01*
X144806063Y-87449774D01*
X144950226Y-87593937D01*
X144989265Y-87620022D01*
X144980223Y-87626063D01*
X144836060Y-87770226D01*
X144722792Y-87939744D01*
X144644771Y-88128102D01*
X144604997Y-88328061D01*
X144604997Y-88531939D01*
X144644771Y-88731898D01*
X144722792Y-88920256D01*
X144836060Y-89089774D01*
X144980223Y-89233937D01*
X145149741Y-89347205D01*
X145338099Y-89425226D01*
X145538058Y-89465000D01*
X145741936Y-89465000D01*
X145941895Y-89425226D01*
X146130253Y-89347205D01*
X146139999Y-89340693D01*
X146149744Y-89347205D01*
X146338102Y-89425226D01*
X146538061Y-89465000D01*
X146741939Y-89465000D01*
X146941898Y-89425226D01*
X147130256Y-89347205D01*
X147230102Y-89280490D01*
X147338102Y-89325226D01*
X147538061Y-89365000D01*
X147741939Y-89365000D01*
X147941898Y-89325226D01*
X148130256Y-89247205D01*
X148150068Y-89233967D01*
X148229744Y-89287205D01*
X148418102Y-89365226D01*
X148618061Y-89405000D01*
X148821939Y-89405000D01*
X149021898Y-89365226D01*
X149210256Y-89287205D01*
X149379774Y-89173937D01*
X149523937Y-89029774D01*
X149637205Y-88860256D01*
X149715226Y-88671898D01*
X149731902Y-88588061D01*
X152355000Y-88588061D01*
X152355000Y-88791939D01*
X152394774Y-88991898D01*
X152472795Y-89180256D01*
X152586063Y-89349774D01*
X152730226Y-89493937D01*
X152899744Y-89607205D01*
X153088102Y-89685226D01*
X153288061Y-89725000D01*
X153491939Y-89725000D01*
X153691898Y-89685226D01*
X153880256Y-89607205D01*
X154049774Y-89493937D01*
X154193937Y-89349774D01*
X154307205Y-89180256D01*
X154324682Y-89138061D01*
X161275000Y-89138061D01*
X161275000Y-89341939D01*
X161314774Y-89541898D01*
X161392795Y-89730256D01*
X161506063Y-89899774D01*
X161650226Y-90043937D01*
X161819744Y-90157205D01*
X162008102Y-90235226D01*
X162208061Y-90275000D01*
X162334049Y-90275000D01*
X162352795Y-90320256D01*
X162466063Y-90489774D01*
X162610226Y-90633937D01*
X162779744Y-90747205D01*
X162968102Y-90825226D01*
X163168061Y-90865000D01*
X163371939Y-90865000D01*
X163571898Y-90825226D01*
X163591981Y-90816907D01*
X163663945Y-90888871D01*
X163833463Y-91002139D01*
X164021821Y-91080160D01*
X164221780Y-91119934D01*
X164276508Y-91119934D01*
X164255000Y-91228061D01*
X164255000Y-91431939D01*
X164293767Y-91626834D01*
X164160226Y-91716063D01*
X164016063Y-91860226D01*
X163902795Y-92029744D01*
X163824774Y-92218102D01*
X163785000Y-92418061D01*
X163785000Y-92621939D01*
X163824774Y-92821898D01*
X163902795Y-93010256D01*
X164016063Y-93179774D01*
X164160226Y-93323937D01*
X164329744Y-93437205D01*
X164518102Y-93515226D01*
X164718061Y-93555000D01*
X164921939Y-93555000D01*
X165121898Y-93515226D01*
X165310256Y-93437205D01*
X165479774Y-93323937D01*
X165623937Y-93179774D01*
X165737205Y-93010256D01*
X165815226Y-92821898D01*
X165855000Y-92621939D01*
X165855000Y-92418061D01*
X165816233Y-92223166D01*
X165949774Y-92133937D01*
X166093937Y-91989774D01*
X166207205Y-91820256D01*
X166285226Y-91631898D01*
X166325000Y-91431939D01*
X166325000Y-91228061D01*
X166285226Y-91028102D01*
X166207205Y-90839744D01*
X166181875Y-90801836D01*
X166203937Y-90779774D01*
X166317205Y-90610256D01*
X166395226Y-90421898D01*
X166435000Y-90221939D01*
X166435000Y-90018061D01*
X166395226Y-89818102D01*
X166317205Y-89629744D01*
X166203937Y-89460226D01*
X166059774Y-89316063D01*
X165890256Y-89202795D01*
X165701898Y-89124774D01*
X165501939Y-89085000D01*
X165298061Y-89085000D01*
X165098102Y-89124774D01*
X164909744Y-89202795D01*
X164888100Y-89217257D01*
X164813975Y-89167729D01*
X164625617Y-89089708D01*
X164425658Y-89049934D01*
X164221780Y-89049934D01*
X164021821Y-89089708D01*
X164001738Y-89098027D01*
X163929774Y-89026063D01*
X163760256Y-88912795D01*
X163571898Y-88834774D01*
X163371939Y-88795000D01*
X163245951Y-88795000D01*
X163227205Y-88749744D01*
X163113937Y-88580226D01*
X162969774Y-88436063D01*
X162800256Y-88322795D01*
X162611898Y-88244774D01*
X162427328Y-88208061D01*
X172315000Y-88208061D01*
X172315000Y-88411939D01*
X172354774Y-88611898D01*
X172432795Y-88800256D01*
X172546063Y-88969774D01*
X172690226Y-89113937D01*
X172859744Y-89227205D01*
X173048102Y-89305226D01*
X173248061Y-89345000D01*
X173451939Y-89345000D01*
X173651898Y-89305226D01*
X173840256Y-89227205D01*
X174009774Y-89113937D01*
X174135000Y-88988711D01*
X174135000Y-89061939D01*
X174174774Y-89261898D01*
X174252795Y-89450256D01*
X174366063Y-89619774D01*
X174510226Y-89763937D01*
X174679744Y-89877205D01*
X174868102Y-89955226D01*
X175068061Y-89995000D01*
X175271939Y-89995000D01*
X175471898Y-89955226D01*
X175660256Y-89877205D01*
X175829774Y-89763937D01*
X175973937Y-89619774D01*
X176087205Y-89450256D01*
X176165226Y-89261898D01*
X176205000Y-89061939D01*
X176205000Y-88858061D01*
X176165226Y-88658102D01*
X176087205Y-88469744D01*
X176033900Y-88389967D01*
X176107205Y-88280258D01*
X176185226Y-88091900D01*
X176225000Y-87891941D01*
X176225000Y-87688063D01*
X176185226Y-87488104D01*
X176107205Y-87299746D01*
X175993937Y-87130228D01*
X175849774Y-86986065D01*
X175680256Y-86872797D01*
X175491898Y-86794776D01*
X175432146Y-86782891D01*
X175425226Y-86748102D01*
X175347205Y-86559744D01*
X175233937Y-86390226D01*
X175089774Y-86246063D01*
X174920256Y-86132795D01*
X174731898Y-86054774D01*
X174531939Y-86015000D01*
X174328061Y-86015000D01*
X174128102Y-86054774D01*
X173939744Y-86132795D01*
X173770226Y-86246063D01*
X173626063Y-86390226D01*
X173512795Y-86559744D01*
X173434774Y-86748102D01*
X173395000Y-86948061D01*
X173395000Y-87151939D01*
X173419478Y-87275000D01*
X173248061Y-87275000D01*
X173048102Y-87314774D01*
X172859744Y-87392795D01*
X172690226Y-87506063D01*
X172546063Y-87650226D01*
X172432795Y-87819744D01*
X172354774Y-88008102D01*
X172315000Y-88208061D01*
X162427328Y-88208061D01*
X162411939Y-88205000D01*
X162208061Y-88205000D01*
X162008102Y-88244774D01*
X161819744Y-88322795D01*
X161650226Y-88436063D01*
X161506063Y-88580226D01*
X161392795Y-88749744D01*
X161314774Y-88938102D01*
X161275000Y-89138061D01*
X154324682Y-89138061D01*
X154385226Y-88991898D01*
X154425000Y-88791939D01*
X154425000Y-88588061D01*
X154385226Y-88388102D01*
X154307205Y-88199744D01*
X154193937Y-88030226D01*
X154049774Y-87886063D01*
X153880256Y-87772795D01*
X153691898Y-87694774D01*
X153491939Y-87655000D01*
X153288061Y-87655000D01*
X153088102Y-87694774D01*
X152899744Y-87772795D01*
X152730226Y-87886063D01*
X152586063Y-88030226D01*
X152472795Y-88199744D01*
X152394774Y-88388102D01*
X152355000Y-88588061D01*
X149731902Y-88588061D01*
X149755000Y-88471939D01*
X149755000Y-88268061D01*
X149715226Y-88068102D01*
X149668479Y-87955247D01*
X149818061Y-87985000D01*
X150021939Y-87985000D01*
X150221898Y-87945226D01*
X150410256Y-87867205D01*
X150539932Y-87780558D01*
X150609744Y-87827205D01*
X150798102Y-87905226D01*
X150998061Y-87945000D01*
X151201939Y-87945000D01*
X151401898Y-87905226D01*
X151590256Y-87827205D01*
X151759774Y-87713937D01*
X151903937Y-87569774D01*
X152017205Y-87400256D01*
X152047109Y-87328061D01*
X155125000Y-87328061D01*
X155125000Y-87531939D01*
X155164774Y-87731898D01*
X155242795Y-87920256D01*
X155356063Y-88089774D01*
X155500226Y-88233937D01*
X155669744Y-88347205D01*
X155858102Y-88425226D01*
X156058061Y-88465000D01*
X156261939Y-88465000D01*
X156461898Y-88425226D01*
X156650256Y-88347205D01*
X156819774Y-88233937D01*
X156963937Y-88089774D01*
X157077205Y-87920256D01*
X157096793Y-87872966D01*
X159400145Y-87872966D01*
X159400145Y-88076844D01*
X159439919Y-88276803D01*
X159517940Y-88465161D01*
X159631208Y-88634679D01*
X159775371Y-88778842D01*
X159944889Y-88892110D01*
X160133247Y-88970131D01*
X160333206Y-89009905D01*
X160537084Y-89009905D01*
X160737043Y-88970131D01*
X160925401Y-88892110D01*
X161094919Y-88778842D01*
X161239082Y-88634679D01*
X161352350Y-88465161D01*
X161430371Y-88276803D01*
X161470145Y-88076844D01*
X161470145Y-87872966D01*
X161430371Y-87673007D01*
X161352350Y-87484649D01*
X161239082Y-87315131D01*
X161094919Y-87170968D01*
X160925401Y-87057700D01*
X160737043Y-86979679D01*
X160537084Y-86939905D01*
X160333206Y-86939905D01*
X160133247Y-86979679D01*
X159944889Y-87057700D01*
X159775371Y-87170968D01*
X159631208Y-87315131D01*
X159517940Y-87484649D01*
X159439919Y-87673007D01*
X159400145Y-87872966D01*
X157096793Y-87872966D01*
X157155226Y-87731898D01*
X157195000Y-87531939D01*
X157195000Y-87328061D01*
X157155226Y-87128102D01*
X157077205Y-86939744D01*
X157062308Y-86917449D01*
X157107205Y-86850256D01*
X157185226Y-86661898D01*
X157225000Y-86461939D01*
X157225000Y-86258061D01*
X157185226Y-86058102D01*
X157107205Y-85869744D01*
X156993937Y-85700226D01*
X156849774Y-85556063D01*
X156680256Y-85442795D01*
X156491898Y-85364774D01*
X156291939Y-85325000D01*
X156088061Y-85325000D01*
X155888102Y-85364774D01*
X155699744Y-85442795D01*
X155530226Y-85556063D01*
X155386063Y-85700226D01*
X155272795Y-85869744D01*
X155194774Y-86058102D01*
X155155000Y-86258061D01*
X155155000Y-86461939D01*
X155194774Y-86661898D01*
X155272795Y-86850256D01*
X155287692Y-86872551D01*
X155242795Y-86939744D01*
X155164774Y-87128102D01*
X155125000Y-87328061D01*
X152047109Y-87328061D01*
X152095226Y-87211898D01*
X152135000Y-87011939D01*
X152135000Y-86808061D01*
X152095226Y-86608102D01*
X152017205Y-86419744D01*
X151903937Y-86250226D01*
X151759774Y-86106063D01*
X151590256Y-85992795D01*
X151401898Y-85914774D01*
X151201939Y-85875000D01*
X150998061Y-85875000D01*
X150798102Y-85914774D01*
X150609744Y-85992795D01*
X150480068Y-86079442D01*
X150410256Y-86032795D01*
X150221898Y-85954774D01*
X150021939Y-85915000D01*
X149818061Y-85915000D01*
X149618102Y-85954774D01*
X149429744Y-86032795D01*
X149403825Y-86050114D01*
X149399774Y-86046063D01*
X149230256Y-85932795D01*
X149041898Y-85854774D01*
X148841939Y-85815000D01*
X148638061Y-85815000D01*
X148438102Y-85854774D01*
X148249744Y-85932795D01*
X148212449Y-85957715D01*
X148130256Y-85902795D01*
X147941898Y-85824774D01*
X147741939Y-85785000D01*
X147538061Y-85785000D01*
X147338102Y-85824774D01*
X147149744Y-85902795D01*
X146980226Y-86016063D01*
X146836063Y-86160226D01*
X146722795Y-86329744D01*
X146644774Y-86518102D01*
X146627984Y-86602513D01*
X146605226Y-86488102D01*
X146527205Y-86299744D01*
X146413937Y-86130226D01*
X146269774Y-85986063D01*
X146100256Y-85872795D01*
X145911898Y-85794774D01*
X145711939Y-85755000D01*
X145508061Y-85755000D01*
X145308102Y-85794774D01*
X145119744Y-85872795D01*
X144950226Y-85986063D01*
X144806063Y-86130226D01*
X144692795Y-86299744D01*
X144614774Y-86488102D01*
X144575000Y-86688061D01*
X140935081Y-86688061D01*
X141047205Y-86520256D01*
X141125226Y-86331898D01*
X141165000Y-86131939D01*
X141165000Y-85928061D01*
X141125226Y-85728102D01*
X141047205Y-85539744D01*
X140933937Y-85370226D01*
X140789774Y-85226063D01*
X140620256Y-85112795D01*
X140431898Y-85034774D01*
X140321893Y-85012893D01*
X140483411Y-84945990D01*
X140726632Y-84783475D01*
X140933475Y-84576632D01*
X141050000Y-84402240D01*
X141166525Y-84576632D01*
X141373368Y-84783475D01*
X141616589Y-84945990D01*
X141886842Y-85057932D01*
X142173740Y-85115000D01*
X142466260Y-85115000D01*
X142753158Y-85057932D01*
X143023411Y-84945990D01*
X143266632Y-84783475D01*
X143473475Y-84576632D01*
X143590000Y-84402240D01*
X143706525Y-84576632D01*
X143913368Y-84783475D01*
X144156589Y-84945990D01*
X144426842Y-85057932D01*
X144713740Y-85115000D01*
X145006260Y-85115000D01*
X145293158Y-85057932D01*
X145563411Y-84945990D01*
X145806632Y-84783475D01*
X146013475Y-84576632D01*
X146130000Y-84402240D01*
X146246525Y-84576632D01*
X146453368Y-84783475D01*
X146696589Y-84945990D01*
X146966842Y-85057932D01*
X147253740Y-85115000D01*
X147546260Y-85115000D01*
X147833158Y-85057932D01*
X148103411Y-84945990D01*
X148346632Y-84783475D01*
X148553475Y-84576632D01*
X148670000Y-84402240D01*
X148786525Y-84576632D01*
X148993368Y-84783475D01*
X149236589Y-84945990D01*
X149506842Y-85057932D01*
X149793740Y-85115000D01*
X150086260Y-85115000D01*
X150373158Y-85057932D01*
X150643411Y-84945990D01*
X150886632Y-84783475D01*
X151093475Y-84576632D01*
X151210000Y-84402240D01*
X151326525Y-84576632D01*
X151533368Y-84783475D01*
X151776589Y-84945990D01*
X152046842Y-85057932D01*
X152333740Y-85115000D01*
X152626260Y-85115000D01*
X152913158Y-85057932D01*
X153183411Y-84945990D01*
X153426632Y-84783475D01*
X153633475Y-84576632D01*
X153750000Y-84402240D01*
X153866525Y-84576632D01*
X154073368Y-84783475D01*
X154316589Y-84945990D01*
X154586842Y-85057932D01*
X154873740Y-85115000D01*
X155166260Y-85115000D01*
X155453158Y-85057932D01*
X155723411Y-84945990D01*
X155966632Y-84783475D01*
X156173475Y-84576632D01*
X156290000Y-84402240D01*
X156406525Y-84576632D01*
X156613368Y-84783475D01*
X156856589Y-84945990D01*
X157126842Y-85057932D01*
X157413740Y-85115000D01*
X157706260Y-85115000D01*
X157993158Y-85057932D01*
X158263411Y-84945990D01*
X158506632Y-84783475D01*
X158713475Y-84576632D01*
X158830000Y-84402240D01*
X158946525Y-84576632D01*
X159153368Y-84783475D01*
X159396589Y-84945990D01*
X159666842Y-85057932D01*
X159953740Y-85115000D01*
X160246260Y-85115000D01*
X160533158Y-85057932D01*
X160803411Y-84945990D01*
X161046632Y-84783475D01*
X161253475Y-84576632D01*
X161370000Y-84402240D01*
X161486525Y-84576632D01*
X161693368Y-84783475D01*
X161936589Y-84945990D01*
X162206842Y-85057932D01*
X162493740Y-85115000D01*
X162786260Y-85115000D01*
X163073158Y-85057932D01*
X163343411Y-84945990D01*
X163586632Y-84783475D01*
X163793475Y-84576632D01*
X163910000Y-84402240D01*
X164026525Y-84576632D01*
X164233368Y-84783475D01*
X164476589Y-84945990D01*
X164746842Y-85057932D01*
X165033740Y-85115000D01*
X165326260Y-85115000D01*
X165613158Y-85057932D01*
X165883411Y-84945990D01*
X166126632Y-84783475D01*
X166333475Y-84576632D01*
X166450000Y-84402240D01*
X166566525Y-84576632D01*
X166773368Y-84783475D01*
X167016589Y-84945990D01*
X167286842Y-85057932D01*
X167573740Y-85115000D01*
X167866260Y-85115000D01*
X168153158Y-85057932D01*
X168423411Y-84945990D01*
X168666632Y-84783475D01*
X168873475Y-84576632D01*
X168990000Y-84402240D01*
X169106525Y-84576632D01*
X169313368Y-84783475D01*
X169556589Y-84945990D01*
X169826842Y-85057932D01*
X170113740Y-85115000D01*
X170406260Y-85115000D01*
X170693158Y-85057932D01*
X170963411Y-84945990D01*
X171206632Y-84783475D01*
X171413475Y-84576632D01*
X171530000Y-84402240D01*
X171646525Y-84576632D01*
X171853368Y-84783475D01*
X172096589Y-84945990D01*
X172366842Y-85057932D01*
X172653740Y-85115000D01*
X172946260Y-85115000D01*
X173233158Y-85057932D01*
X173503411Y-84945990D01*
X173746632Y-84783475D01*
X173953475Y-84576632D01*
X174115990Y-84333411D01*
X174227932Y-84063158D01*
X174285000Y-83776260D01*
X174285000Y-83483740D01*
X174227932Y-83196842D01*
X174115990Y-82926589D01*
X173953475Y-82683368D01*
X173746632Y-82476525D01*
X173572240Y-82360000D01*
X173746632Y-82243475D01*
X173801074Y-82189033D01*
X175529545Y-82189033D01*
X175529545Y-82590967D01*
X175607958Y-82985179D01*
X175761772Y-83356518D01*
X175985075Y-83690714D01*
X176269286Y-83974925D01*
X176603482Y-84198228D01*
X176974821Y-84352042D01*
X177369033Y-84430455D01*
X177770967Y-84430455D01*
X178165179Y-84352042D01*
X178536518Y-84198228D01*
X178870714Y-83974925D01*
X179154925Y-83690714D01*
X179378228Y-83356518D01*
X179532042Y-82985179D01*
X179610455Y-82590967D01*
X179610455Y-82189033D01*
X179532042Y-81794821D01*
X179378228Y-81423482D01*
X179154925Y-81089286D01*
X178870714Y-80805075D01*
X178536518Y-80581772D01*
X178165179Y-80427958D01*
X177770967Y-80349545D01*
X177369033Y-80349545D01*
X176974821Y-80427958D01*
X176603482Y-80581772D01*
X176269286Y-80805075D01*
X175985075Y-81089286D01*
X175761772Y-81423482D01*
X175607958Y-81794821D01*
X175529545Y-82189033D01*
X173801074Y-82189033D01*
X173953475Y-82036632D01*
X174115990Y-81793411D01*
X174227932Y-81523158D01*
X174285000Y-81236260D01*
X174285000Y-80943740D01*
X174227932Y-80656842D01*
X174115990Y-80386589D01*
X173953475Y-80143368D01*
X173746632Y-79936525D01*
X173503411Y-79774010D01*
X173233158Y-79662068D01*
X172946260Y-79605000D01*
X172653740Y-79605000D01*
X172366842Y-79662068D01*
X172096589Y-79774010D01*
X171853368Y-79936525D01*
X171646525Y-80143368D01*
X171530000Y-80317760D01*
X171413475Y-80143368D01*
X171206632Y-79936525D01*
X170963411Y-79774010D01*
X170693158Y-79662068D01*
X170406260Y-79605000D01*
X170113740Y-79605000D01*
X169826842Y-79662068D01*
X169556589Y-79774010D01*
X169313368Y-79936525D01*
X169106525Y-80143368D01*
X168990000Y-80317760D01*
X168873475Y-80143368D01*
X168666632Y-79936525D01*
X168423411Y-79774010D01*
X168153158Y-79662068D01*
X167866260Y-79605000D01*
X167573740Y-79605000D01*
X167286842Y-79662068D01*
X167016589Y-79774010D01*
X166773368Y-79936525D01*
X166566525Y-80143368D01*
X166450000Y-80317760D01*
X166333475Y-80143368D01*
X166126632Y-79936525D01*
X165883411Y-79774010D01*
X165613158Y-79662068D01*
X165326260Y-79605000D01*
X165033740Y-79605000D01*
X164746842Y-79662068D01*
X164476589Y-79774010D01*
X164233368Y-79936525D01*
X164026525Y-80143368D01*
X163910000Y-80317760D01*
X163793475Y-80143368D01*
X163586632Y-79936525D01*
X163343411Y-79774010D01*
X163073158Y-79662068D01*
X162786260Y-79605000D01*
X162493740Y-79605000D01*
X162206842Y-79662068D01*
X161936589Y-79774010D01*
X161693368Y-79936525D01*
X161486525Y-80143368D01*
X161370000Y-80317760D01*
X161253475Y-80143368D01*
X161046632Y-79936525D01*
X160803411Y-79774010D01*
X160533158Y-79662068D01*
X160246260Y-79605000D01*
X159953740Y-79605000D01*
X159666842Y-79662068D01*
X159396589Y-79774010D01*
X159153368Y-79936525D01*
X158946525Y-80143368D01*
X158830000Y-80317760D01*
X158713475Y-80143368D01*
X158506632Y-79936525D01*
X158263411Y-79774010D01*
X157993158Y-79662068D01*
X157706260Y-79605000D01*
X157413740Y-79605000D01*
X157126842Y-79662068D01*
X156856589Y-79774010D01*
X156613368Y-79936525D01*
X156406525Y-80143368D01*
X156290000Y-80317760D01*
X156173475Y-80143368D01*
X155966632Y-79936525D01*
X155723411Y-79774010D01*
X155453158Y-79662068D01*
X155166260Y-79605000D01*
X154873740Y-79605000D01*
X154586842Y-79662068D01*
X154316589Y-79774010D01*
X154073368Y-79936525D01*
X153866525Y-80143368D01*
X153744805Y-80325534D01*
X153675178Y-80208645D01*
X153480269Y-79992412D01*
X153246920Y-79818359D01*
X152984099Y-79693175D01*
X152836890Y-79648524D01*
X152607000Y-79769845D01*
X152607000Y-80963000D01*
X152627000Y-80963000D01*
X152627000Y-81217000D01*
X152607000Y-81217000D01*
X152607000Y-81237000D01*
X152353000Y-81237000D01*
X152353000Y-81217000D01*
X152333000Y-81217000D01*
X152333000Y-80963000D01*
X152353000Y-80963000D01*
X152353000Y-79769845D01*
X152123110Y-79648524D01*
X151975901Y-79693175D01*
X151713080Y-79818359D01*
X151479731Y-79992412D01*
X151284822Y-80208645D01*
X151215195Y-80325534D01*
X151093475Y-80143368D01*
X150886632Y-79936525D01*
X150643411Y-79774010D01*
X150373158Y-79662068D01*
X150086260Y-79605000D01*
X149793740Y-79605000D01*
X149506842Y-79662068D01*
X149236589Y-79774010D01*
X148993368Y-79936525D01*
X148786525Y-80143368D01*
X148670000Y-80317760D01*
X148553475Y-80143368D01*
X148346632Y-79936525D01*
X148103411Y-79774010D01*
X147833158Y-79662068D01*
X147546260Y-79605000D01*
X147253740Y-79605000D01*
X146966842Y-79662068D01*
X146696589Y-79774010D01*
X146453368Y-79936525D01*
X146246525Y-80143368D01*
X146130000Y-80317760D01*
X146013475Y-80143368D01*
X145806632Y-79936525D01*
X145563411Y-79774010D01*
X145293158Y-79662068D01*
X145006260Y-79605000D01*
X144713740Y-79605000D01*
X144426842Y-79662068D01*
X144156589Y-79774010D01*
X143913368Y-79936525D01*
X143706525Y-80143368D01*
X143590000Y-80317760D01*
X143473475Y-80143368D01*
X143266632Y-79936525D01*
X143023411Y-79774010D01*
X142753158Y-79662068D01*
X142466260Y-79605000D01*
X142173740Y-79605000D01*
X141886842Y-79662068D01*
X141616589Y-79774010D01*
X141373368Y-79936525D01*
X141166525Y-80143368D01*
X141050000Y-80317760D01*
X140933475Y-80143368D01*
X140726632Y-79936525D01*
X140483411Y-79774010D01*
X140213158Y-79662068D01*
X139926260Y-79605000D01*
X139633740Y-79605000D01*
X139346842Y-79662068D01*
X139076589Y-79774010D01*
X138833368Y-79936525D01*
X138626525Y-80143368D01*
X138510000Y-80317760D01*
X138393475Y-80143368D01*
X138186632Y-79936525D01*
X137943411Y-79774010D01*
X137673158Y-79662068D01*
X137386260Y-79605000D01*
X137093740Y-79605000D01*
X136806842Y-79662068D01*
X136536589Y-79774010D01*
X136293368Y-79936525D01*
X136086525Y-80143368D01*
X135970000Y-80317760D01*
X135853475Y-80143368D01*
X135646632Y-79936525D01*
X135403411Y-79774010D01*
X135133158Y-79662068D01*
X134846260Y-79605000D01*
X134553740Y-79605000D01*
X134266842Y-79662068D01*
X133996589Y-79774010D01*
X133753368Y-79936525D01*
X133546525Y-80143368D01*
X133424805Y-80325534D01*
X133355178Y-80208645D01*
X133160269Y-79992412D01*
X132926920Y-79818359D01*
X132664099Y-79693175D01*
X132516890Y-79648524D01*
X132287000Y-79769845D01*
X132287000Y-80963000D01*
X132307000Y-80963000D01*
X132307000Y-81217000D01*
X132287000Y-81217000D01*
X132287000Y-81237000D01*
X132033000Y-81237000D01*
X132033000Y-81217000D01*
X132013000Y-81217000D01*
X132013000Y-80963000D01*
X132033000Y-80963000D01*
X132033000Y-79769845D01*
X131803110Y-79648524D01*
X131655901Y-79693175D01*
X131393080Y-79818359D01*
X131159731Y-79992412D01*
X130964822Y-80208645D01*
X130895195Y-80325534D01*
X130773475Y-80143368D01*
X130566632Y-79936525D01*
X130323411Y-79774010D01*
X130053158Y-79662068D01*
X129766260Y-79605000D01*
X129473740Y-79605000D01*
X129186842Y-79662068D01*
X128916589Y-79774010D01*
X128673368Y-79936525D01*
X128466525Y-80143368D01*
X128350000Y-80317760D01*
X128233475Y-80143368D01*
X128026632Y-79936525D01*
X127783411Y-79774010D01*
X127513158Y-79662068D01*
X127226260Y-79605000D01*
X126933740Y-79605000D01*
X126646842Y-79662068D01*
X126376589Y-79774010D01*
X126133368Y-79936525D01*
X125926525Y-80143368D01*
X125810000Y-80317760D01*
X125693475Y-80143368D01*
X125486632Y-79936525D01*
X125243411Y-79774010D01*
X124973158Y-79662068D01*
X124686260Y-79605000D01*
X124393740Y-79605000D01*
X124106842Y-79662068D01*
X123836589Y-79774010D01*
X123593368Y-79936525D01*
X123386525Y-80143368D01*
X123224010Y-80386589D01*
X123112068Y-80656842D01*
X123055000Y-80943740D01*
X123055000Y-81236260D01*
X123112068Y-81523158D01*
X123224010Y-81793411D01*
X123386525Y-82036632D01*
X123518380Y-82168487D01*
X123445820Y-82190498D01*
X123335506Y-82249463D01*
X123238815Y-82328815D01*
X123159463Y-82425506D01*
X123100498Y-82535820D01*
X123064188Y-82655518D01*
X123051928Y-82780000D01*
X121572854Y-82780000D01*
X121610455Y-82590967D01*
X121610455Y-82189033D01*
X121532042Y-81794821D01*
X121378228Y-81423482D01*
X121154925Y-81089286D01*
X120870714Y-80805075D01*
X120536518Y-80581772D01*
X120165179Y-80427958D01*
X119770967Y-80349545D01*
X119369033Y-80349545D01*
X118974821Y-80427958D01*
X118603482Y-80581772D01*
X118269286Y-80805075D01*
X117985075Y-81089286D01*
X117761772Y-81423482D01*
X117607958Y-81794821D01*
X117529545Y-82189033D01*
X116730000Y-82189033D01*
X116730000Y-81922279D01*
X116777670Y-81436107D01*
X116909489Y-80999502D01*
X117123600Y-80596815D01*
X117411848Y-80243388D01*
X117763261Y-79952673D01*
X118164439Y-79735758D01*
X118600113Y-79600894D01*
X119084344Y-79550000D01*
X178037721Y-79550000D01*
X178523893Y-79597670D01*
G37*
%TD.AperFunction*%
%TD*%
M02*
