%TF.GenerationSoftware,KiCad,Pcbnew,(5.1.8-0-10_14)*%
%TF.CreationDate,2021-08-13T15:07:17+08:00*%
%TF.ProjectId,microbyte-rp2040,6d696372-6f62-4797-9465-2d7270323034,rev?*%
%TF.SameCoordinates,Original*%
%TF.FileFunction,Copper,L3,Inr*%
%TF.FilePolarity,Positive*%
%FSLAX46Y46*%
G04 Gerber Fmt 4.6, Leading zero omitted, Abs format (unit mm)*
G04 Created by KiCad (PCBNEW (5.1.8-0-10_14)) date 2021-08-13 15:07:17*
%MOMM*%
%LPD*%
G01*
G04 APERTURE LIST*
%TA.AperFunction,ComponentPad*%
%ADD10C,0.600000*%
%TD*%
%TA.AperFunction,ComponentPad*%
%ADD11O,1.700000X1.700000*%
%TD*%
%TA.AperFunction,ComponentPad*%
%ADD12R,1.700000X1.700000*%
%TD*%
%TA.AperFunction,ComponentPad*%
%ADD13O,1.000000X2.100000*%
%TD*%
%TA.AperFunction,ComponentPad*%
%ADD14O,1.000000X1.600000*%
%TD*%
%TA.AperFunction,ViaPad*%
%ADD15C,0.800000*%
%TD*%
%TA.AperFunction,Conductor*%
%ADD16C,0.500000*%
%TD*%
%TA.AperFunction,Conductor*%
%ADD17C,0.300000*%
%TD*%
%TA.AperFunction,Conductor*%
%ADD18C,0.200000*%
%TD*%
%TA.AperFunction,Conductor*%
%ADD19C,0.254000*%
%TD*%
%TA.AperFunction,Conductor*%
%ADD20C,0.100000*%
%TD*%
G04 APERTURE END LIST*
D10*
%TO.N,GND*%
%TO.C,U4*%
X160955000Y-95115000D03*
X159680000Y-95115000D03*
X158405000Y-95115000D03*
X160955000Y-93840000D03*
X159680000Y-93840000D03*
X158405000Y-93840000D03*
X160955000Y-92565000D03*
X159680000Y-92565000D03*
X158405000Y-92565000D03*
%TD*%
D11*
%TO.N,I2C1_SCL*%
%TO.C,J4*%
X172800000Y-81090000D03*
%TO.N,Net-(J4-Pad39)*%
X172800000Y-83630000D03*
%TO.N,I2C1_SDA*%
X170260000Y-81090000D03*
%TO.N,Net-(J4-Pad37)*%
X170260000Y-83630000D03*
%TO.N,GPIO5*%
X167720000Y-81090000D03*
%TO.N,Net-(J4-Pad35)*%
X167720000Y-83630000D03*
%TO.N,SPI0_MISO*%
X165180000Y-81090000D03*
%TO.N,Net-(J4-Pad33)*%
X165180000Y-83630000D03*
%TO.N,SPI0_MOSI*%
X162640000Y-81090000D03*
%TO.N,Net-(J4-Pad31)*%
X162640000Y-83630000D03*
%TO.N,SPI0_SCK*%
X160100000Y-81090000D03*
%TO.N,Net-(J4-Pad29)*%
X160100000Y-83630000D03*
%TO.N,UART0_RX*%
X157560000Y-81090000D03*
%TO.N,Net-(J4-Pad27)*%
X157560000Y-83630000D03*
%TO.N,UART0_TX*%
X155020000Y-81090000D03*
%TO.N,GPIO25*%
X155020000Y-83630000D03*
%TO.N,GND*%
X152480000Y-81090000D03*
%TO.N,GPIO24*%
X152480000Y-83630000D03*
%TO.N,SWDCK*%
X149940000Y-81090000D03*
%TO.N,GPIO23*%
X149940000Y-83630000D03*
%TO.N,SWDIO*%
X147400000Y-81090000D03*
%TO.N,GPIO22*%
X147400000Y-83630000D03*
%TO.N,Net-(J4-Pad18)*%
X144860000Y-81090000D03*
%TO.N,GPIO21*%
X144860000Y-83630000D03*
%TO.N,ADC3*%
X142320000Y-81090000D03*
%TO.N,GPIO20*%
X142320000Y-83630000D03*
%TO.N,ADC2*%
X139780000Y-81090000D03*
%TO.N,GPIO19*%
X139780000Y-83630000D03*
%TO.N,ADC1*%
X137240000Y-81090000D03*
%TO.N,GPIO18*%
X137240000Y-83630000D03*
%TO.N,ADC0*%
X134700000Y-81090000D03*
%TO.N,GPIO17*%
X134700000Y-83630000D03*
%TO.N,GND*%
X132160000Y-81090000D03*
%TO.N,GPIO16*%
X132160000Y-83630000D03*
%TO.N,+3.3VA*%
X129620000Y-81090000D03*
%TO.N,+5V*%
X129620000Y-83630000D03*
%TO.N,+3V3*%
X127080000Y-81090000D03*
%TO.N,EN*%
X127080000Y-83630000D03*
%TO.N,RESET*%
X124540000Y-81090000D03*
D12*
%TO.N,+BATT*%
X124540000Y-83630000D03*
%TD*%
D13*
%TO.N,Net-(J3-PadS1)*%
%TO.C,J3*%
X163250000Y-103090000D03*
X154610000Y-103090000D03*
D14*
X154610000Y-107270000D03*
X163250000Y-107270000D03*
%TD*%
D15*
%TO.N,GND*%
X169620000Y-98870000D03*
X162409447Y-101830442D03*
X154640000Y-100059979D03*
X165510000Y-102120000D03*
X119050000Y-91530000D03*
X119040000Y-88290000D03*
X119040000Y-96230000D03*
X119050000Y-99450000D03*
X163980000Y-88930000D03*
X165449174Y-98340826D03*
X162720000Y-85970000D03*
X166830000Y-92510000D03*
X132720000Y-90300000D03*
X173820000Y-96750000D03*
X160610000Y-100099990D03*
X153540000Y-102120000D03*
X167100000Y-87270000D03*
X174510000Y-90489998D03*
X177660010Y-99600000D03*
X173140000Y-90480000D03*
X158460000Y-87060000D03*
X159520000Y-87060000D03*
X144310000Y-87970000D03*
X152530000Y-96790000D03*
X152610000Y-92530000D03*
X140370000Y-93690000D03*
X137850000Y-97140000D03*
X137860000Y-98300000D03*
X139320000Y-97670000D03*
X139260000Y-95980000D03*
X137790000Y-95480000D03*
X137150000Y-94090000D03*
X136640000Y-96210000D03*
X136530000Y-98360000D03*
X130930000Y-97140000D03*
X132230000Y-98390000D03*
X137250000Y-103980000D03*
X138540000Y-104000000D03*
X142640000Y-104030000D03*
X123910000Y-99050000D03*
X123490000Y-101620000D03*
X125760000Y-100780000D03*
X121690000Y-94950000D03*
X132220000Y-106830000D03*
X122740000Y-100120000D03*
X126730000Y-102210000D03*
X135050000Y-107460000D03*
X137500000Y-107460000D03*
X140110000Y-107470000D03*
X151070000Y-97160000D03*
X151310000Y-88490000D03*
X167890000Y-100060000D03*
X167280000Y-91050000D03*
X168130000Y-89520000D03*
X178280000Y-89430000D03*
X178320000Y-90880000D03*
X178360000Y-92420000D03*
X121710000Y-93480000D03*
X129700000Y-104440000D03*
X130800000Y-105760000D03*
X176700000Y-101810000D03*
X152180000Y-107760000D03*
X146990000Y-104200000D03*
X143680000Y-107360000D03*
X127889704Y-88452413D03*
X122120000Y-87050000D03*
X129120000Y-91470000D03*
%TO.N,+3V3*%
X155140000Y-99170000D03*
X179790000Y-101750000D03*
X131530000Y-94120000D03*
X130560000Y-87100000D03*
X162740000Y-99180000D03*
X144360000Y-99200000D03*
X160435145Y-87974905D03*
X159900000Y-98740000D03*
X164540000Y-97660000D03*
X164820000Y-92520000D03*
X149620000Y-98780000D03*
X154090000Y-97320000D03*
X153390000Y-88690000D03*
X140130000Y-86030000D03*
X130540000Y-90760000D03*
%TO.N,+5V*%
X171350000Y-102010000D03*
X151590000Y-101930000D03*
X177980000Y-95970000D03*
X151970000Y-104910000D03*
%TO.N,+BATT*%
X150000000Y-103300000D03*
%TO.N,+1V1*%
X159080260Y-91540011D03*
X157520000Y-96139989D03*
%TO.N,+3.3VA*%
X152560000Y-100099990D03*
X126920000Y-86959998D03*
%TO.N,SDIO_DAT0*%
X163270000Y-89830000D03*
X128600000Y-95750000D03*
X175190000Y-87790002D03*
%TO.N,SDIO_CLK*%
X161802168Y-91687833D03*
X130450000Y-94780000D03*
X175170000Y-88960000D03*
%TO.N,SDIO_CMD*%
X132650000Y-94550000D03*
X160580006Y-91540021D03*
X175430000Y-92450000D03*
%TO.N,SDIO_DAT3*%
X165290000Y-91330000D03*
X133750000Y-95180000D03*
X174349998Y-93240000D03*
%TO.N,SDIO_DAT2*%
X165400000Y-90120000D03*
X134840000Y-94570000D03*
X173350000Y-88310000D03*
%TO.N,SDIO_DAT1*%
X164323719Y-90084934D03*
X127795025Y-94784975D03*
X174430000Y-87050000D03*
%TO.N,GPIO5*%
X169349949Y-93497609D03*
%TO.N,SPI0_MISO*%
X169355621Y-94497595D03*
%TO.N,SPI0_MOSI*%
X169330000Y-95520000D03*
%TO.N,SPI0_SCK*%
X167750000Y-95590000D03*
%TO.N,UART0_RX*%
X167870000Y-97080000D03*
%TO.N,UART0_TX*%
X166780000Y-97080000D03*
%TO.N,GPIO25*%
X148720000Y-88370000D03*
%TO.N,GPIO24*%
X148740000Y-86850000D03*
%TO.N,GPIO23*%
X149920000Y-86950000D03*
%TO.N,GPIO22*%
X151100000Y-86910000D03*
%TO.N,GPIO21*%
X147640000Y-86820000D03*
%TO.N,GPIO20*%
X145610000Y-86790000D03*
%TO.N,ADC2*%
X145639997Y-88430000D03*
%TO.N,ADC1*%
X146640000Y-88430000D03*
%TO.N,ADC0*%
X147640000Y-88330000D03*
%TO.N,GPIO17*%
X156160000Y-87430000D03*
%TO.N,GPIO16*%
X156190000Y-86360000D03*
%TO.N,EN*%
X147930000Y-104820000D03*
%TO.N,RESET*%
X120520000Y-86460000D03*
X157472133Y-91792488D03*
%TO.N,QSPI_CS*%
X163010000Y-97250000D03*
X135890000Y-86490000D03*
%TO.N,QSPI_D3*%
X160284846Y-96064895D03*
X137520000Y-89780000D03*
%TO.N,QSPI_CLK*%
X161284673Y-96046167D03*
X142440000Y-89030000D03*
%TO.N,QSPI_D0*%
X163738102Y-99118389D03*
X137550000Y-90810000D03*
%TO.N,QSPI_D2*%
X164736841Y-99068147D03*
X135920000Y-89860000D03*
%TO.N,QSPI_D1*%
X161990000Y-95160000D03*
X135889629Y-87679629D03*
%TO.N,LED2_BUILT_IN*%
X162310000Y-89240000D03*
X131520000Y-88120000D03*
%TO.N,LED1_BUILT_IN*%
X162019979Y-92830000D03*
X166490000Y-99120000D03*
X128880000Y-89880000D03*
%TD*%
D16*
%TO.N,+5V*%
X171350000Y-102010000D02*
X171350000Y-102050000D01*
X178790000Y-95970000D02*
X177980000Y-95970000D01*
X179130000Y-96310000D02*
X178790000Y-95970000D01*
X179130000Y-99910000D02*
X179130000Y-96310000D01*
X178390000Y-100650000D02*
X179130000Y-99910000D01*
X173610000Y-100650000D02*
X178390000Y-100650000D01*
X172250000Y-102010000D02*
X173610000Y-100650000D01*
X171350000Y-102010000D02*
X172250000Y-102010000D01*
X168320000Y-105040000D02*
X171350000Y-102010000D01*
X160180000Y-105040000D02*
X168320000Y-105040000D01*
X153330020Y-100909980D02*
X156049980Y-100909980D01*
X152310000Y-101930000D02*
X153330020Y-100909980D01*
X156049980Y-100909980D02*
X160180000Y-105040000D01*
X152050000Y-101930000D02*
X152310000Y-101930000D01*
X151590000Y-101930000D02*
X152050000Y-101930000D01*
X127770000Y-85480000D02*
X129620000Y-83630000D01*
X126931998Y-85480000D02*
X127770000Y-85480000D01*
X125520000Y-86891998D02*
X126931998Y-85480000D01*
X125520000Y-95640000D02*
X125520000Y-86891998D01*
X130830000Y-100950000D02*
X125520000Y-95640000D01*
X150610000Y-100950000D02*
X130830000Y-100950000D01*
X151590000Y-101930000D02*
X150610000Y-100950000D01*
X151590000Y-104530000D02*
X151970000Y-104910000D01*
X151590000Y-102390000D02*
X152050000Y-101930000D01*
X151590000Y-102630000D02*
X151590000Y-102390000D01*
X151590000Y-101930000D02*
X151590000Y-102630000D01*
X151590000Y-102630000D02*
X151590000Y-104530000D01*
%TO.N,+BATT*%
X149000000Y-103300000D02*
X150000000Y-103300000D01*
X148300000Y-102600000D02*
X149000000Y-103300000D01*
X123400000Y-84770000D02*
X123400000Y-96730000D01*
X124540000Y-83630000D02*
X123400000Y-84770000D01*
X129270000Y-102600000D02*
X148300000Y-102600000D01*
X123400000Y-96730000D02*
X129270000Y-102600000D01*
D17*
%TO.N,+1V1*%
X156240000Y-91560000D02*
X156240000Y-94859989D01*
X156240000Y-94859989D02*
X157520000Y-96139989D01*
X156820000Y-90980000D02*
X156240000Y-91560000D01*
X157950000Y-90980000D02*
X156820000Y-90980000D01*
X158510011Y-91540011D02*
X157950000Y-90980000D01*
X159080260Y-91540011D02*
X158510011Y-91540011D01*
D16*
%TO.N,+3.3VA*%
X152560000Y-100099990D02*
X131349990Y-100099990D01*
X126920000Y-95670000D02*
X126920000Y-86959998D01*
X131349990Y-100099990D02*
X126920000Y-95670000D01*
D18*
%TO.N,SDIO_DAT0*%
X175260000Y-87720002D02*
X175190000Y-87790002D01*
X163270000Y-89830000D02*
X163270000Y-87830000D01*
X173700000Y-85230000D02*
X175260000Y-86790000D01*
X165870000Y-85230000D02*
X173700000Y-85230000D01*
X163270000Y-87830000D02*
X165870000Y-85230000D01*
X175260000Y-86790000D02*
X175260000Y-87720002D01*
%TO.N,SDIO_CLK*%
X161982167Y-91687833D02*
X161802168Y-91687833D01*
X162280000Y-91390000D02*
X161982167Y-91687833D01*
X161609999Y-89549999D02*
X162280000Y-90220000D01*
X175990000Y-86720000D02*
X174100000Y-84830000D01*
X165683998Y-84830000D02*
X161609999Y-88903999D01*
X174100000Y-84830000D02*
X165683998Y-84830000D01*
X162280000Y-90220000D02*
X162280000Y-91390000D01*
X175990000Y-88026004D02*
X175990000Y-86720000D01*
X175170000Y-88846004D02*
X175990000Y-88026004D01*
X161609999Y-88903999D02*
X161609999Y-89549999D01*
X175170000Y-88960000D02*
X175170000Y-88846004D01*
%TO.N,SDIO_CMD*%
X174340000Y-84250000D02*
X176390010Y-86300010D01*
X176390010Y-86300010D02*
X176390010Y-90769990D01*
X173790000Y-82350000D02*
X174340000Y-82900000D01*
X175430000Y-91730000D02*
X175430000Y-92450000D01*
X163890000Y-83217998D02*
X164757998Y-82350000D01*
X174340000Y-82900000D02*
X174340000Y-84250000D01*
X164757998Y-82350000D02*
X173790000Y-82350000D01*
X163890000Y-86058300D02*
X163890000Y-83217998D01*
X176390010Y-90769990D02*
X175430000Y-91730000D01*
X160580006Y-89368294D02*
X163890000Y-86058300D01*
X160580006Y-91540021D02*
X160580006Y-89368294D01*
%TO.N,SDIO_DAT3*%
X173233998Y-89230000D02*
X172590000Y-88586002D01*
X166100001Y-86799999D02*
X166100001Y-90519999D01*
X166100001Y-90519999D02*
X165290000Y-91330000D01*
X171880010Y-86430010D02*
X166469990Y-86430010D01*
X172590000Y-87140000D02*
X171880010Y-86430010D01*
X166469990Y-86430010D02*
X166100001Y-86799999D01*
X172590000Y-88586002D02*
X172590000Y-87140000D01*
X175290000Y-90233996D02*
X174286004Y-89230000D01*
X175290000Y-91020000D02*
X175290000Y-90233996D01*
X174349998Y-93240000D02*
X174349998Y-91960002D01*
X174286004Y-89230000D02*
X173233998Y-89230000D01*
X174349998Y-91960002D02*
X175290000Y-91020000D01*
%TO.N,SDIO_DAT2*%
X166250000Y-86030000D02*
X165400000Y-86880000D01*
X172400000Y-86030000D02*
X166250000Y-86030000D01*
X165400000Y-86880000D02*
X165400000Y-90120000D01*
X173350000Y-86980000D02*
X172400000Y-86030000D01*
X173350000Y-88310000D02*
X173350000Y-86980000D01*
%TO.N,SDIO_DAT1*%
X173010000Y-85630000D02*
X174300000Y-86920000D01*
X166050000Y-85630000D02*
X173010000Y-85630000D01*
X164723718Y-86956282D02*
X166050000Y-85630000D01*
X174300000Y-86920000D02*
X174430000Y-87050000D01*
X164723718Y-89684935D02*
X164723718Y-86956282D01*
X164323719Y-90084934D02*
X164723718Y-89684935D01*
%TO.N,GPIO25*%
X155020000Y-86170000D02*
X155020000Y-83630000D01*
X148940000Y-87660000D02*
X153530000Y-87660000D01*
X148720000Y-87880000D02*
X148940000Y-87660000D01*
X153530000Y-87660000D02*
X155020000Y-86170000D01*
X148720000Y-88370000D02*
X148720000Y-87880000D01*
%TO.N,GPIO24*%
X148690000Y-82940000D02*
X149330000Y-82300000D01*
X148690000Y-86800000D02*
X148690000Y-82940000D01*
X151150000Y-82300000D02*
X152480000Y-83630000D01*
X149330000Y-82300000D02*
X151150000Y-82300000D01*
X148740000Y-86850000D02*
X148690000Y-86800000D01*
%TO.N,GPIO23*%
X149920000Y-83650000D02*
X149940000Y-83630000D01*
X149920000Y-86950000D02*
X149920000Y-83650000D01*
%TO.N,ADC2*%
X141080000Y-84332000D02*
X141080000Y-82390000D01*
X146489990Y-85891366D02*
X145984312Y-85385688D01*
X141080000Y-82390000D02*
X139780000Y-81090000D01*
X142133688Y-85385688D02*
X141080000Y-84332000D01*
X145639997Y-88430000D02*
X145639997Y-87796005D01*
X145984312Y-85385688D02*
X142133688Y-85385688D01*
X146489990Y-86946012D02*
X146489990Y-85891366D01*
X145639997Y-87796005D02*
X146489990Y-86946012D01*
%TO.N,ADC1*%
X138520000Y-84072002D02*
X138520000Y-82370000D01*
X139457998Y-85010000D02*
X138520000Y-84072002D01*
X141192301Y-85010000D02*
X139457998Y-85010000D01*
X143580000Y-86170000D02*
X143195698Y-85785698D01*
X144433999Y-89130001D02*
X143580000Y-88276002D01*
X138520000Y-82370000D02*
X137240000Y-81090000D01*
X145939999Y-89130001D02*
X144433999Y-89130001D01*
X143195698Y-85785698D02*
X141967999Y-85785698D01*
X143580000Y-88276002D02*
X143580000Y-86170000D01*
X141967999Y-85785698D02*
X141192301Y-85010000D01*
X146640000Y-88430000D02*
X145939999Y-89130001D01*
D17*
%TO.N,EN*%
X150810000Y-102500000D02*
X150810000Y-104080000D01*
X150070000Y-104820000D02*
X147930000Y-104820000D01*
X150810000Y-104080000D02*
X150070000Y-104820000D01*
X129860000Y-101760000D02*
X150070000Y-101760000D01*
X124510000Y-96410000D02*
X129860000Y-101760000D01*
X127080000Y-83630000D02*
X124510000Y-86200000D01*
X124510000Y-86200000D02*
X124510000Y-96410000D01*
X150070000Y-101760000D02*
X150810000Y-102500000D01*
D18*
%TO.N,LED1_BUILT_IN*%
X162019979Y-93379979D02*
X162019979Y-92830000D01*
X162390000Y-93750000D02*
X162019979Y-93379979D01*
X165990000Y-97280001D02*
X165990000Y-95060000D01*
X164680000Y-93750000D02*
X162390000Y-93750000D01*
X165990000Y-95060000D02*
X164680000Y-93750000D01*
X166490000Y-97780001D02*
X165990000Y-97280001D01*
X166490000Y-99120000D02*
X166490000Y-97780001D01*
%TD*%
D19*
%TO.N,+3V3*%
X178523893Y-79597670D02*
X178960498Y-79729489D01*
X179363185Y-79943600D01*
X179716612Y-80231848D01*
X180007327Y-80583261D01*
X180224242Y-80984439D01*
X180359106Y-81420113D01*
X180410000Y-81904344D01*
X180410000Y-84446694D01*
X180327731Y-84391724D01*
X180098081Y-84296600D01*
X179854286Y-84248106D01*
X179605714Y-84248106D01*
X179361919Y-84296600D01*
X179132269Y-84391724D01*
X178925589Y-84529823D01*
X178749823Y-84705589D01*
X178611724Y-84912269D01*
X178516600Y-85141919D01*
X178468106Y-85385714D01*
X178468106Y-85634286D01*
X178516600Y-85878081D01*
X178611724Y-86107731D01*
X178749823Y-86314411D01*
X178925589Y-86490177D01*
X179132269Y-86628276D01*
X179361919Y-86723400D01*
X179605714Y-86771894D01*
X179854286Y-86771894D01*
X180098081Y-86723400D01*
X180327731Y-86628276D01*
X180410000Y-86573306D01*
X180410001Y-105857711D01*
X180362330Y-106343894D01*
X180230512Y-106780497D01*
X180016399Y-107183186D01*
X179728150Y-107536613D01*
X179376739Y-107827327D01*
X178975564Y-108044240D01*
X178539886Y-108179106D01*
X178055664Y-108230000D01*
X164176637Y-108230000D01*
X164198284Y-108203623D01*
X164303676Y-108006446D01*
X164368577Y-107792498D01*
X164385000Y-107625751D01*
X164385000Y-106914248D01*
X164368577Y-106747501D01*
X164303676Y-106533553D01*
X164198284Y-106336377D01*
X164056449Y-106163551D01*
X163883623Y-106021716D01*
X163702678Y-105925000D01*
X168276531Y-105925000D01*
X168320000Y-105929281D01*
X168363469Y-105925000D01*
X168363477Y-105925000D01*
X168493490Y-105912195D01*
X168660313Y-105861589D01*
X168814059Y-105779411D01*
X168948817Y-105668817D01*
X168976534Y-105635044D01*
X169422545Y-105189033D01*
X175529545Y-105189033D01*
X175529545Y-105590967D01*
X175607958Y-105985179D01*
X175761772Y-106356518D01*
X175985075Y-106690714D01*
X176269286Y-106974925D01*
X176603482Y-107198228D01*
X176974821Y-107352042D01*
X177369033Y-107430455D01*
X177770967Y-107430455D01*
X178165179Y-107352042D01*
X178536518Y-107198228D01*
X178870714Y-106974925D01*
X179154925Y-106690714D01*
X179378228Y-106356518D01*
X179532042Y-105985179D01*
X179610455Y-105590967D01*
X179610455Y-105189033D01*
X179532042Y-104794821D01*
X179378228Y-104423482D01*
X179154925Y-104089286D01*
X178870714Y-103805075D01*
X178536518Y-103581772D01*
X178165179Y-103427958D01*
X177770967Y-103349545D01*
X177369033Y-103349545D01*
X176974821Y-103427958D01*
X176603482Y-103581772D01*
X176269286Y-103805075D01*
X175985075Y-104089286D01*
X175761772Y-104423482D01*
X175607958Y-104794821D01*
X175529545Y-105189033D01*
X169422545Y-105189033D01*
X171595044Y-103016535D01*
X171651898Y-103005226D01*
X171840256Y-102927205D01*
X171888454Y-102895000D01*
X172206531Y-102895000D01*
X172250000Y-102899281D01*
X172293469Y-102895000D01*
X172293477Y-102895000D01*
X172423490Y-102882195D01*
X172590313Y-102831589D01*
X172744059Y-102749411D01*
X172878817Y-102638817D01*
X172906534Y-102605044D01*
X173976579Y-101535000D01*
X175699424Y-101535000D01*
X175665000Y-101708061D01*
X175665000Y-101911939D01*
X175704774Y-102111898D01*
X175782795Y-102300256D01*
X175896063Y-102469774D01*
X176040226Y-102613937D01*
X176209744Y-102727205D01*
X176398102Y-102805226D01*
X176598061Y-102845000D01*
X176801939Y-102845000D01*
X177001898Y-102805226D01*
X177190256Y-102727205D01*
X177359774Y-102613937D01*
X177503937Y-102469774D01*
X177617205Y-102300256D01*
X177695226Y-102111898D01*
X177735000Y-101911939D01*
X177735000Y-101708061D01*
X177700576Y-101535000D01*
X178346531Y-101535000D01*
X178390000Y-101539281D01*
X178433469Y-101535000D01*
X178433477Y-101535000D01*
X178563490Y-101522195D01*
X178730313Y-101471589D01*
X178884059Y-101389411D01*
X179018817Y-101278817D01*
X179046534Y-101245044D01*
X179725050Y-100566529D01*
X179758817Y-100538817D01*
X179809952Y-100476510D01*
X179869410Y-100404060D01*
X179869411Y-100404059D01*
X179951589Y-100250313D01*
X180002195Y-100083490D01*
X180015000Y-99953477D01*
X180015000Y-99953467D01*
X180019281Y-99910001D01*
X180015000Y-99866534D01*
X180015000Y-96353469D01*
X180019281Y-96310000D01*
X180015000Y-96266531D01*
X180015000Y-96266523D01*
X180002195Y-96136510D01*
X179951589Y-95969687D01*
X179869411Y-95815941D01*
X179758817Y-95681183D01*
X179725044Y-95653466D01*
X179446534Y-95374956D01*
X179418817Y-95341183D01*
X179284059Y-95230589D01*
X179130313Y-95148411D01*
X178963490Y-95097805D01*
X178833477Y-95085000D01*
X178833469Y-95085000D01*
X178790000Y-95080719D01*
X178746531Y-95085000D01*
X178518454Y-95085000D01*
X178470256Y-95052795D01*
X178281898Y-94974774D01*
X178081939Y-94935000D01*
X177878061Y-94935000D01*
X177678102Y-94974774D01*
X177489744Y-95052795D01*
X177320226Y-95166063D01*
X177176063Y-95310226D01*
X177062795Y-95479744D01*
X176984774Y-95668102D01*
X176945000Y-95868061D01*
X176945000Y-96071939D01*
X176984774Y-96271898D01*
X177062795Y-96460256D01*
X177176063Y-96629774D01*
X177320226Y-96773937D01*
X177489744Y-96887205D01*
X177678102Y-96965226D01*
X177878061Y-97005000D01*
X178081939Y-97005000D01*
X178245001Y-96972565D01*
X178245000Y-98746094D01*
X178150266Y-98682795D01*
X177961908Y-98604774D01*
X177761949Y-98565000D01*
X177558071Y-98565000D01*
X177358112Y-98604774D01*
X177169754Y-98682795D01*
X177000236Y-98796063D01*
X176856073Y-98940226D01*
X176742805Y-99109744D01*
X176664784Y-99298102D01*
X176625010Y-99498061D01*
X176625010Y-99701939D01*
X176637554Y-99765000D01*
X173653465Y-99765000D01*
X173609999Y-99760719D01*
X173566533Y-99765000D01*
X173566523Y-99765000D01*
X173436510Y-99777805D01*
X173269687Y-99828411D01*
X173115941Y-99910589D01*
X173115939Y-99910590D01*
X173115940Y-99910590D01*
X173014953Y-99993468D01*
X173014951Y-99993470D01*
X172981183Y-100021183D01*
X172953470Y-100054951D01*
X171885438Y-101122984D01*
X171840256Y-101092795D01*
X171651898Y-101014774D01*
X171451939Y-100975000D01*
X171248061Y-100975000D01*
X171048102Y-101014774D01*
X170859744Y-101092795D01*
X170690226Y-101206063D01*
X170546063Y-101350226D01*
X170432795Y-101519744D01*
X170354774Y-101708102D01*
X170343465Y-101764956D01*
X167953422Y-104155000D01*
X164261689Y-104155000D01*
X164303676Y-104076447D01*
X164368577Y-103862499D01*
X164385000Y-103695752D01*
X164385000Y-102484248D01*
X164368577Y-102317501D01*
X164303676Y-102103553D01*
X164257980Y-102018061D01*
X164475000Y-102018061D01*
X164475000Y-102221939D01*
X164514774Y-102421898D01*
X164592795Y-102610256D01*
X164706063Y-102779774D01*
X164850226Y-102923937D01*
X165019744Y-103037205D01*
X165208102Y-103115226D01*
X165408061Y-103155000D01*
X165611939Y-103155000D01*
X165811898Y-103115226D01*
X166000256Y-103037205D01*
X166169774Y-102923937D01*
X166313937Y-102779774D01*
X166427205Y-102610256D01*
X166505226Y-102421898D01*
X166545000Y-102221939D01*
X166545000Y-102018061D01*
X166505226Y-101818102D01*
X166427205Y-101629744D01*
X166313937Y-101460226D01*
X166169774Y-101316063D01*
X166000256Y-101202795D01*
X165811898Y-101124774D01*
X165611939Y-101085000D01*
X165408061Y-101085000D01*
X165208102Y-101124774D01*
X165019744Y-101202795D01*
X164850226Y-101316063D01*
X164706063Y-101460226D01*
X164592795Y-101629744D01*
X164514774Y-101818102D01*
X164475000Y-102018061D01*
X164257980Y-102018061D01*
X164198284Y-101906377D01*
X164056449Y-101733551D01*
X163883623Y-101591716D01*
X163686446Y-101486324D01*
X163472498Y-101421423D01*
X163355530Y-101409903D01*
X163326652Y-101340186D01*
X163213384Y-101170668D01*
X163069221Y-101026505D01*
X162899703Y-100913237D01*
X162711345Y-100835216D01*
X162511386Y-100795442D01*
X162307508Y-100795442D01*
X162107549Y-100835216D01*
X161919191Y-100913237D01*
X161749673Y-101026505D01*
X161605510Y-101170668D01*
X161492242Y-101340186D01*
X161414221Y-101528544D01*
X161374447Y-101728503D01*
X161374447Y-101932381D01*
X161414221Y-102132340D01*
X161492242Y-102320698D01*
X161605510Y-102490216D01*
X161749673Y-102634379D01*
X161788018Y-102660000D01*
X161725448Y-102660000D01*
X161539978Y-102696892D01*
X161365269Y-102769259D01*
X161208036Y-102874319D01*
X161074319Y-103008036D01*
X160969259Y-103165269D01*
X160896892Y-103339978D01*
X160860000Y-103525448D01*
X160860000Y-103714552D01*
X160896892Y-103900022D01*
X160969259Y-104074731D01*
X161022893Y-104155000D01*
X160546579Y-104155000D01*
X156706514Y-100314936D01*
X156678797Y-100281163D01*
X156544039Y-100170569D01*
X156390293Y-100088391D01*
X156223470Y-100037785D01*
X156093457Y-100024980D01*
X156093449Y-100024980D01*
X156049980Y-100020699D01*
X156006511Y-100024980D01*
X155675000Y-100024980D01*
X155675000Y-99998051D01*
X159575000Y-99998051D01*
X159575000Y-100201929D01*
X159614774Y-100401888D01*
X159692795Y-100590246D01*
X159806063Y-100759764D01*
X159950226Y-100903927D01*
X160119744Y-101017195D01*
X160308102Y-101095216D01*
X160508061Y-101134990D01*
X160711939Y-101134990D01*
X160911898Y-101095216D01*
X161100256Y-101017195D01*
X161269774Y-100903927D01*
X161413937Y-100759764D01*
X161527205Y-100590246D01*
X161605226Y-100401888D01*
X161645000Y-100201929D01*
X161645000Y-99998051D01*
X161605226Y-99798092D01*
X161527205Y-99609734D01*
X161413937Y-99440216D01*
X161269774Y-99296053D01*
X161100256Y-99182785D01*
X160911898Y-99104764D01*
X160711939Y-99064990D01*
X160508061Y-99064990D01*
X160308102Y-99104764D01*
X160119744Y-99182785D01*
X159950226Y-99296053D01*
X159806063Y-99440216D01*
X159692795Y-99609734D01*
X159614774Y-99798092D01*
X159575000Y-99998051D01*
X155675000Y-99998051D01*
X155675000Y-99958040D01*
X155635226Y-99758081D01*
X155557205Y-99569723D01*
X155443937Y-99400205D01*
X155299774Y-99256042D01*
X155130256Y-99142774D01*
X154941898Y-99064753D01*
X154741939Y-99024979D01*
X154538061Y-99024979D01*
X154338102Y-99064753D01*
X154149744Y-99142774D01*
X153980226Y-99256042D01*
X153836063Y-99400205D01*
X153722795Y-99569723D01*
X153644774Y-99758081D01*
X153605000Y-99958040D01*
X153605000Y-100024980D01*
X153595000Y-100024980D01*
X153595000Y-99998051D01*
X153555226Y-99798092D01*
X153477205Y-99609734D01*
X153363937Y-99440216D01*
X153219774Y-99296053D01*
X153050256Y-99182785D01*
X152861898Y-99104764D01*
X152661939Y-99064990D01*
X152458061Y-99064990D01*
X152258102Y-99104764D01*
X152069744Y-99182785D01*
X152021546Y-99214990D01*
X138353571Y-99214990D01*
X138519774Y-99103937D01*
X138663937Y-98959774D01*
X138777205Y-98790256D01*
X138855226Y-98601898D01*
X138855986Y-98598075D01*
X139018102Y-98665226D01*
X139218061Y-98705000D01*
X139421939Y-98705000D01*
X139621898Y-98665226D01*
X139810256Y-98587205D01*
X139979774Y-98473937D01*
X140123937Y-98329774D01*
X140237205Y-98160256D01*
X140315226Y-97971898D01*
X140355000Y-97771939D01*
X140355000Y-97568061D01*
X140315226Y-97368102D01*
X140237205Y-97179744D01*
X140155900Y-97058061D01*
X150035000Y-97058061D01*
X150035000Y-97261939D01*
X150074774Y-97461898D01*
X150152795Y-97650256D01*
X150266063Y-97819774D01*
X150410226Y-97963937D01*
X150579744Y-98077205D01*
X150768102Y-98155226D01*
X150968061Y-98195000D01*
X151171939Y-98195000D01*
X151371898Y-98155226D01*
X151560256Y-98077205D01*
X151729774Y-97963937D01*
X151873937Y-97819774D01*
X151977115Y-97665357D01*
X152039744Y-97707205D01*
X152228102Y-97785226D01*
X152428061Y-97825000D01*
X152631939Y-97825000D01*
X152831898Y-97785226D01*
X153020256Y-97707205D01*
X153189774Y-97593937D01*
X153333937Y-97449774D01*
X153447205Y-97280256D01*
X153525226Y-97091898D01*
X153565000Y-96891939D01*
X153565000Y-96688061D01*
X153525226Y-96488102D01*
X153447205Y-96299744D01*
X153333937Y-96130226D01*
X153189774Y-95986063D01*
X153020256Y-95872795D01*
X152831898Y-95794774D01*
X152631939Y-95755000D01*
X152428061Y-95755000D01*
X152228102Y-95794774D01*
X152039744Y-95872795D01*
X151870226Y-95986063D01*
X151726063Y-96130226D01*
X151622885Y-96284643D01*
X151560256Y-96242795D01*
X151371898Y-96164774D01*
X151171939Y-96125000D01*
X150968061Y-96125000D01*
X150768102Y-96164774D01*
X150579744Y-96242795D01*
X150410226Y-96356063D01*
X150266063Y-96500226D01*
X150152795Y-96669744D01*
X150074774Y-96858102D01*
X150035000Y-97058061D01*
X140155900Y-97058061D01*
X140123937Y-97010226D01*
X139979774Y-96866063D01*
X139888319Y-96804955D01*
X139919774Y-96783937D01*
X140063937Y-96639774D01*
X140177205Y-96470256D01*
X140255226Y-96281898D01*
X140295000Y-96081939D01*
X140295000Y-95878061D01*
X140255226Y-95678102D01*
X140177205Y-95489744D01*
X140063937Y-95320226D01*
X139919774Y-95176063D01*
X139750256Y-95062795D01*
X139561898Y-94984774D01*
X139361939Y-94945000D01*
X139158061Y-94945000D01*
X138958102Y-94984774D01*
X138769744Y-95062795D01*
X138744461Y-95079688D01*
X138707205Y-94989744D01*
X138593937Y-94820226D01*
X138449774Y-94676063D01*
X138280256Y-94562795D01*
X138104579Y-94490027D01*
X138145226Y-94391898D01*
X138185000Y-94191939D01*
X138185000Y-93988061D01*
X138145226Y-93788102D01*
X138067205Y-93599744D01*
X138059399Y-93588061D01*
X139335000Y-93588061D01*
X139335000Y-93791939D01*
X139374774Y-93991898D01*
X139452795Y-94180256D01*
X139566063Y-94349774D01*
X139710226Y-94493937D01*
X139879744Y-94607205D01*
X140068102Y-94685226D01*
X140268061Y-94725000D01*
X140471939Y-94725000D01*
X140671898Y-94685226D01*
X140860256Y-94607205D01*
X141029774Y-94493937D01*
X141173937Y-94349774D01*
X141287205Y-94180256D01*
X141365226Y-93991898D01*
X141405000Y-93791939D01*
X141405000Y-93588061D01*
X141365226Y-93388102D01*
X141287205Y-93199744D01*
X141173937Y-93030226D01*
X141029774Y-92886063D01*
X140860256Y-92772795D01*
X140671898Y-92694774D01*
X140471939Y-92655000D01*
X140268061Y-92655000D01*
X140068102Y-92694774D01*
X139879744Y-92772795D01*
X139710226Y-92886063D01*
X139566063Y-93030226D01*
X139452795Y-93199744D01*
X139374774Y-93388102D01*
X139335000Y-93588061D01*
X138059399Y-93588061D01*
X137953937Y-93430226D01*
X137809774Y-93286063D01*
X137640256Y-93172795D01*
X137451898Y-93094774D01*
X137251939Y-93055000D01*
X137048061Y-93055000D01*
X136848102Y-93094774D01*
X136659744Y-93172795D01*
X136490226Y-93286063D01*
X136346063Y-93430226D01*
X136232795Y-93599744D01*
X136154774Y-93788102D01*
X136115000Y-93988061D01*
X136115000Y-94191939D01*
X136154774Y-94391898D01*
X136232795Y-94580256D01*
X136346063Y-94749774D01*
X136490226Y-94893937D01*
X136659744Y-95007205D01*
X136835421Y-95079973D01*
X136794774Y-95178102D01*
X136793357Y-95185228D01*
X136741939Y-95175000D01*
X136538061Y-95175000D01*
X136338102Y-95214774D01*
X136149744Y-95292795D01*
X135980226Y-95406063D01*
X135836063Y-95550226D01*
X135722795Y-95719744D01*
X135644774Y-95908102D01*
X135605000Y-96108061D01*
X135605000Y-96311939D01*
X135644774Y-96511898D01*
X135722795Y-96700256D01*
X135836063Y-96869774D01*
X135980226Y-97013937D01*
X136149744Y-97127205D01*
X136338102Y-97205226D01*
X136538061Y-97245000D01*
X136741939Y-97245000D01*
X136815000Y-97230467D01*
X136815000Y-97241939D01*
X136840110Y-97368175D01*
X136831898Y-97364774D01*
X136631939Y-97325000D01*
X136428061Y-97325000D01*
X136228102Y-97364774D01*
X136039744Y-97442795D01*
X135870226Y-97556063D01*
X135726063Y-97700226D01*
X135612795Y-97869744D01*
X135534774Y-98058102D01*
X135495000Y-98258061D01*
X135495000Y-98461939D01*
X135534774Y-98661898D01*
X135612795Y-98850256D01*
X135726063Y-99019774D01*
X135870226Y-99163937D01*
X135946632Y-99214990D01*
X132858266Y-99214990D01*
X132889774Y-99193937D01*
X133033937Y-99049774D01*
X133147205Y-98880256D01*
X133225226Y-98691898D01*
X133265000Y-98491939D01*
X133265000Y-98288061D01*
X133225226Y-98088102D01*
X133147205Y-97899744D01*
X133033937Y-97730226D01*
X132889774Y-97586063D01*
X132720256Y-97472795D01*
X132531898Y-97394774D01*
X132331939Y-97355000D01*
X132128061Y-97355000D01*
X131934867Y-97393428D01*
X131965000Y-97241939D01*
X131965000Y-97038061D01*
X131925226Y-96838102D01*
X131847205Y-96649744D01*
X131733937Y-96480226D01*
X131589774Y-96336063D01*
X131420256Y-96222795D01*
X131231898Y-96144774D01*
X131031939Y-96105000D01*
X130828061Y-96105000D01*
X130628102Y-96144774D01*
X130439744Y-96222795D01*
X130270226Y-96336063D01*
X130126063Y-96480226D01*
X130012795Y-96649744D01*
X129934774Y-96838102D01*
X129895000Y-97038061D01*
X129895000Y-97241939D01*
X129932613Y-97431035D01*
X129137330Y-96635751D01*
X129259774Y-96553937D01*
X129403937Y-96409774D01*
X129517205Y-96240256D01*
X129595226Y-96051898D01*
X129635000Y-95851939D01*
X129635000Y-95648061D01*
X129595226Y-95448102D01*
X129517205Y-95259744D01*
X129403937Y-95090226D01*
X129259774Y-94946063D01*
X129090256Y-94832795D01*
X128901898Y-94754774D01*
X128830025Y-94740478D01*
X128830025Y-94683036D01*
X128829036Y-94678061D01*
X129415000Y-94678061D01*
X129415000Y-94881939D01*
X129454774Y-95081898D01*
X129532795Y-95270256D01*
X129646063Y-95439774D01*
X129790226Y-95583937D01*
X129959744Y-95697205D01*
X130148102Y-95775226D01*
X130348061Y-95815000D01*
X130551939Y-95815000D01*
X130751898Y-95775226D01*
X130940256Y-95697205D01*
X131109774Y-95583937D01*
X131253937Y-95439774D01*
X131367205Y-95270256D01*
X131445226Y-95081898D01*
X131485000Y-94881939D01*
X131485000Y-94678061D01*
X131445226Y-94478102D01*
X131432783Y-94448061D01*
X131615000Y-94448061D01*
X131615000Y-94651939D01*
X131654774Y-94851898D01*
X131732795Y-95040256D01*
X131846063Y-95209774D01*
X131990226Y-95353937D01*
X132159744Y-95467205D01*
X132348102Y-95545226D01*
X132548061Y-95585000D01*
X132751939Y-95585000D01*
X132794014Y-95576631D01*
X132832795Y-95670256D01*
X132946063Y-95839774D01*
X133090226Y-95983937D01*
X133259744Y-96097205D01*
X133448102Y-96175226D01*
X133648061Y-96215000D01*
X133851939Y-96215000D01*
X134051898Y-96175226D01*
X134240256Y-96097205D01*
X134409774Y-95983937D01*
X134553937Y-95839774D01*
X134667205Y-95670256D01*
X134697571Y-95596946D01*
X134738061Y-95605000D01*
X134941939Y-95605000D01*
X135141898Y-95565226D01*
X135330256Y-95487205D01*
X135499774Y-95373937D01*
X135643937Y-95229774D01*
X135757205Y-95060256D01*
X135835226Y-94871898D01*
X135875000Y-94671939D01*
X135875000Y-94468061D01*
X135835226Y-94268102D01*
X135757205Y-94079744D01*
X135643937Y-93910226D01*
X135499774Y-93766063D01*
X135330256Y-93652795D01*
X135141898Y-93574774D01*
X134941939Y-93535000D01*
X134738061Y-93535000D01*
X134538102Y-93574774D01*
X134349744Y-93652795D01*
X134180226Y-93766063D01*
X134036063Y-93910226D01*
X133922795Y-94079744D01*
X133892429Y-94153054D01*
X133851939Y-94145000D01*
X133648061Y-94145000D01*
X133605986Y-94153369D01*
X133567205Y-94059744D01*
X133453937Y-93890226D01*
X133309774Y-93746063D01*
X133140256Y-93632795D01*
X132951898Y-93554774D01*
X132751939Y-93515000D01*
X132548061Y-93515000D01*
X132348102Y-93554774D01*
X132159744Y-93632795D01*
X131990226Y-93746063D01*
X131846063Y-93890226D01*
X131732795Y-94059744D01*
X131654774Y-94248102D01*
X131615000Y-94448061D01*
X131432783Y-94448061D01*
X131367205Y-94289744D01*
X131253937Y-94120226D01*
X131109774Y-93976063D01*
X130940256Y-93862795D01*
X130751898Y-93784774D01*
X130551939Y-93745000D01*
X130348061Y-93745000D01*
X130148102Y-93784774D01*
X129959744Y-93862795D01*
X129790226Y-93976063D01*
X129646063Y-94120226D01*
X129532795Y-94289744D01*
X129454774Y-94478102D01*
X129415000Y-94678061D01*
X128829036Y-94678061D01*
X128790251Y-94483077D01*
X128712230Y-94294719D01*
X128598962Y-94125201D01*
X128454799Y-93981038D01*
X128285281Y-93867770D01*
X128096923Y-93789749D01*
X127896964Y-93749975D01*
X127805000Y-93749975D01*
X127805000Y-89487413D01*
X127922339Y-89487413D01*
X127884774Y-89578102D01*
X127845000Y-89778061D01*
X127845000Y-89981939D01*
X127884774Y-90181898D01*
X127962795Y-90370256D01*
X128076063Y-90539774D01*
X128220226Y-90683937D01*
X128353381Y-90772908D01*
X128316063Y-90810226D01*
X128202795Y-90979744D01*
X128124774Y-91168102D01*
X128085000Y-91368061D01*
X128085000Y-91571939D01*
X128124774Y-91771898D01*
X128202795Y-91960256D01*
X128316063Y-92129774D01*
X128460226Y-92273937D01*
X128629744Y-92387205D01*
X128818102Y-92465226D01*
X129018061Y-92505000D01*
X129221939Y-92505000D01*
X129421898Y-92465226D01*
X129511621Y-92428061D01*
X151575000Y-92428061D01*
X151575000Y-92631939D01*
X151614774Y-92831898D01*
X151692795Y-93020256D01*
X151806063Y-93189774D01*
X151950226Y-93333937D01*
X152119744Y-93447205D01*
X152308102Y-93525226D01*
X152508061Y-93565000D01*
X152711939Y-93565000D01*
X152911898Y-93525226D01*
X153100256Y-93447205D01*
X153269774Y-93333937D01*
X153413937Y-93189774D01*
X153527205Y-93020256D01*
X153605226Y-92831898D01*
X153645000Y-92631939D01*
X153645000Y-92428061D01*
X153605226Y-92228102D01*
X153527205Y-92039744D01*
X153413937Y-91870226D01*
X153269774Y-91726063D01*
X153100256Y-91612795D01*
X152911898Y-91534774D01*
X152711939Y-91495000D01*
X152508061Y-91495000D01*
X152308102Y-91534774D01*
X152119744Y-91612795D01*
X151950226Y-91726063D01*
X151806063Y-91870226D01*
X151692795Y-92039744D01*
X151614774Y-92228102D01*
X151575000Y-92428061D01*
X129511621Y-92428061D01*
X129610256Y-92387205D01*
X129779774Y-92273937D01*
X129923937Y-92129774D01*
X130037205Y-91960256D01*
X130115226Y-91771898D01*
X130155000Y-91571939D01*
X130155000Y-91368061D01*
X130115226Y-91168102D01*
X130037205Y-90979744D01*
X129923937Y-90810226D01*
X129779774Y-90666063D01*
X129646619Y-90577092D01*
X129683937Y-90539774D01*
X129797205Y-90370256D01*
X129868531Y-90198061D01*
X131685000Y-90198061D01*
X131685000Y-90401939D01*
X131724774Y-90601898D01*
X131802795Y-90790256D01*
X131916063Y-90959774D01*
X132060226Y-91103937D01*
X132229744Y-91217205D01*
X132418102Y-91295226D01*
X132618061Y-91335000D01*
X132821939Y-91335000D01*
X133021898Y-91295226D01*
X133210256Y-91217205D01*
X133379774Y-91103937D01*
X133523937Y-90959774D01*
X133637205Y-90790256D01*
X133715226Y-90601898D01*
X133755000Y-90401939D01*
X133755000Y-90198061D01*
X133715226Y-89998102D01*
X133637205Y-89809744D01*
X133602672Y-89758061D01*
X134885000Y-89758061D01*
X134885000Y-89961939D01*
X134924774Y-90161898D01*
X135002795Y-90350256D01*
X135116063Y-90519774D01*
X135260226Y-90663937D01*
X135429744Y-90777205D01*
X135618102Y-90855226D01*
X135818061Y-90895000D01*
X136021939Y-90895000D01*
X136221898Y-90855226D01*
X136410256Y-90777205D01*
X136515194Y-90707088D01*
X136515000Y-90708061D01*
X136515000Y-90911939D01*
X136554774Y-91111898D01*
X136632795Y-91300256D01*
X136746063Y-91469774D01*
X136890226Y-91613937D01*
X137059744Y-91727205D01*
X137248102Y-91805226D01*
X137448061Y-91845000D01*
X137651939Y-91845000D01*
X137851898Y-91805226D01*
X138040256Y-91727205D01*
X138209774Y-91613937D01*
X138353937Y-91469774D01*
X138467205Y-91300256D01*
X138545226Y-91111898D01*
X138585000Y-90911939D01*
X138585000Y-90708061D01*
X138545226Y-90508102D01*
X138467205Y-90319744D01*
X138435672Y-90272551D01*
X138437205Y-90270256D01*
X138515226Y-90081898D01*
X138555000Y-89881939D01*
X138555000Y-89678061D01*
X138515226Y-89478102D01*
X138437205Y-89289744D01*
X138323937Y-89120226D01*
X138179774Y-88976063D01*
X138010256Y-88862795D01*
X137821898Y-88784774D01*
X137621939Y-88745000D01*
X137418061Y-88745000D01*
X137218102Y-88784774D01*
X137029744Y-88862795D01*
X136860226Y-88976063D01*
X136716063Y-89120226D01*
X136687173Y-89163462D01*
X136579774Y-89056063D01*
X136410256Y-88942795D01*
X136221898Y-88864774D01*
X136021939Y-88825000D01*
X135818061Y-88825000D01*
X135618102Y-88864774D01*
X135429744Y-88942795D01*
X135260226Y-89056063D01*
X135116063Y-89200226D01*
X135002795Y-89369744D01*
X134924774Y-89558102D01*
X134885000Y-89758061D01*
X133602672Y-89758061D01*
X133523937Y-89640226D01*
X133379774Y-89496063D01*
X133210256Y-89382795D01*
X133021898Y-89304774D01*
X132821939Y-89265000D01*
X132618061Y-89265000D01*
X132418102Y-89304774D01*
X132229744Y-89382795D01*
X132060226Y-89496063D01*
X131916063Y-89640226D01*
X131802795Y-89809744D01*
X131724774Y-89998102D01*
X131685000Y-90198061D01*
X129868531Y-90198061D01*
X129875226Y-90181898D01*
X129915000Y-89981939D01*
X129915000Y-89778061D01*
X129875226Y-89578102D01*
X129797205Y-89389744D01*
X129683937Y-89220226D01*
X129539774Y-89076063D01*
X129370256Y-88962795D01*
X129181898Y-88884774D01*
X128981939Y-88845000D01*
X128847365Y-88845000D01*
X128884930Y-88754311D01*
X128924704Y-88554352D01*
X128924704Y-88350474D01*
X128884930Y-88150515D01*
X128830066Y-88018061D01*
X130485000Y-88018061D01*
X130485000Y-88221939D01*
X130524774Y-88421898D01*
X130602795Y-88610256D01*
X130716063Y-88779774D01*
X130860226Y-88923937D01*
X131029744Y-89037205D01*
X131218102Y-89115226D01*
X131418061Y-89155000D01*
X131621939Y-89155000D01*
X131821898Y-89115226D01*
X132010256Y-89037205D01*
X132179774Y-88923937D01*
X132323937Y-88779774D01*
X132437205Y-88610256D01*
X132515226Y-88421898D01*
X132555000Y-88221939D01*
X132555000Y-88018061D01*
X132515226Y-87818102D01*
X132437205Y-87629744D01*
X132402424Y-87577690D01*
X134854629Y-87577690D01*
X134854629Y-87781568D01*
X134894403Y-87981527D01*
X134972424Y-88169885D01*
X135085692Y-88339403D01*
X135229855Y-88483566D01*
X135399373Y-88596834D01*
X135587731Y-88674855D01*
X135787690Y-88714629D01*
X135991568Y-88714629D01*
X136191527Y-88674855D01*
X136379885Y-88596834D01*
X136549403Y-88483566D01*
X136693566Y-88339403D01*
X136806834Y-88169885D01*
X136884855Y-87981527D01*
X136924629Y-87781568D01*
X136924629Y-87577690D01*
X136884855Y-87377731D01*
X136806834Y-87189373D01*
X136737156Y-87085092D01*
X136807205Y-86980256D01*
X136885226Y-86791898D01*
X136925000Y-86591939D01*
X136925000Y-86388061D01*
X136885226Y-86188102D01*
X136807205Y-85999744D01*
X136693937Y-85830226D01*
X136549774Y-85686063D01*
X136380256Y-85572795D01*
X136191898Y-85494774D01*
X135991939Y-85455000D01*
X135788061Y-85455000D01*
X135588102Y-85494774D01*
X135399744Y-85572795D01*
X135230226Y-85686063D01*
X135086063Y-85830226D01*
X134972795Y-85999744D01*
X134894774Y-86188102D01*
X134855000Y-86388061D01*
X134855000Y-86591939D01*
X134894774Y-86791898D01*
X134972795Y-86980256D01*
X135042473Y-87084537D01*
X134972424Y-87189373D01*
X134894403Y-87377731D01*
X134854629Y-87577690D01*
X132402424Y-87577690D01*
X132323937Y-87460226D01*
X132179774Y-87316063D01*
X132010256Y-87202795D01*
X131821898Y-87124774D01*
X131621939Y-87085000D01*
X131418061Y-87085000D01*
X131218102Y-87124774D01*
X131029744Y-87202795D01*
X130860226Y-87316063D01*
X130716063Y-87460226D01*
X130602795Y-87629744D01*
X130524774Y-87818102D01*
X130485000Y-88018061D01*
X128830066Y-88018061D01*
X128806909Y-87962157D01*
X128693641Y-87792639D01*
X128549478Y-87648476D01*
X128379960Y-87535208D01*
X128191602Y-87457187D01*
X127991643Y-87417413D01*
X127850808Y-87417413D01*
X127915226Y-87261896D01*
X127955000Y-87061937D01*
X127955000Y-86858059D01*
X127915226Y-86658100D01*
X127837205Y-86469742D01*
X127770074Y-86369274D01*
X127813469Y-86365000D01*
X127813477Y-86365000D01*
X127943490Y-86352195D01*
X128110313Y-86301589D01*
X128264059Y-86219411D01*
X128398817Y-86108817D01*
X128426534Y-86075044D01*
X129401040Y-85100539D01*
X129473740Y-85115000D01*
X129766260Y-85115000D01*
X130053158Y-85057932D01*
X130323411Y-84945990D01*
X130566632Y-84783475D01*
X130773475Y-84576632D01*
X130890000Y-84402240D01*
X131006525Y-84576632D01*
X131213368Y-84783475D01*
X131456589Y-84945990D01*
X131726842Y-85057932D01*
X132013740Y-85115000D01*
X132306260Y-85115000D01*
X132593158Y-85057932D01*
X132863411Y-84945990D01*
X133106632Y-84783475D01*
X133313475Y-84576632D01*
X133430000Y-84402240D01*
X133546525Y-84576632D01*
X133753368Y-84783475D01*
X133996589Y-84945990D01*
X134266842Y-85057932D01*
X134553740Y-85115000D01*
X134846260Y-85115000D01*
X135133158Y-85057932D01*
X135403411Y-84945990D01*
X135646632Y-84783475D01*
X135853475Y-84576632D01*
X135970000Y-84402240D01*
X136086525Y-84576632D01*
X136293368Y-84783475D01*
X136536589Y-84945990D01*
X136806842Y-85057932D01*
X137093740Y-85115000D01*
X137386260Y-85115000D01*
X137673158Y-85057932D01*
X137943411Y-84945990D01*
X138186632Y-84783475D01*
X138189329Y-84780778D01*
X138912744Y-85504193D01*
X138935760Y-85532238D01*
X139047678Y-85624087D01*
X139175365Y-85692337D01*
X139313913Y-85734365D01*
X139421893Y-85745000D01*
X139421902Y-85745000D01*
X139457997Y-85748555D01*
X139494092Y-85745000D01*
X140887855Y-85745000D01*
X141422745Y-86279891D01*
X141445761Y-86307936D01*
X141516406Y-86365913D01*
X141557679Y-86399785D01*
X141685365Y-86468035D01*
X141823914Y-86510063D01*
X141967999Y-86524254D01*
X142004104Y-86520698D01*
X142845001Y-86520698D01*
X142845000Y-88077481D01*
X142741898Y-88034774D01*
X142541939Y-87995000D01*
X142338061Y-87995000D01*
X142138102Y-88034774D01*
X141949744Y-88112795D01*
X141780226Y-88226063D01*
X141636063Y-88370226D01*
X141522795Y-88539744D01*
X141444774Y-88728102D01*
X141405000Y-88928061D01*
X141405000Y-89131939D01*
X141444774Y-89331898D01*
X141522795Y-89520256D01*
X141636063Y-89689774D01*
X141780226Y-89833937D01*
X141949744Y-89947205D01*
X142138102Y-90025226D01*
X142338061Y-90065000D01*
X142541939Y-90065000D01*
X142741898Y-90025226D01*
X142930256Y-89947205D01*
X143099774Y-89833937D01*
X143243937Y-89689774D01*
X143357205Y-89520256D01*
X143435226Y-89331898D01*
X143461975Y-89197423D01*
X143888745Y-89624194D01*
X143911761Y-89652239D01*
X144023679Y-89744088D01*
X144151366Y-89812338D01*
X144247885Y-89841617D01*
X144289913Y-89854366D01*
X144433999Y-89868557D01*
X144470104Y-89865001D01*
X145903894Y-89865001D01*
X145939999Y-89868557D01*
X145976104Y-89865001D01*
X146084084Y-89854366D01*
X146222632Y-89812338D01*
X146350319Y-89744088D01*
X146462237Y-89652239D01*
X146485257Y-89624189D01*
X146644446Y-89465000D01*
X146741939Y-89465000D01*
X146941898Y-89425226D01*
X147130256Y-89347205D01*
X147230102Y-89280490D01*
X147338102Y-89325226D01*
X147538061Y-89365000D01*
X147741939Y-89365000D01*
X147941898Y-89325226D01*
X148130256Y-89247205D01*
X148150068Y-89233967D01*
X148229744Y-89287205D01*
X148418102Y-89365226D01*
X148618061Y-89405000D01*
X148821939Y-89405000D01*
X149021898Y-89365226D01*
X149210256Y-89287205D01*
X149379774Y-89173937D01*
X149523937Y-89029774D01*
X149637205Y-88860256D01*
X149715226Y-88671898D01*
X149755000Y-88471939D01*
X149755000Y-88395000D01*
X150275000Y-88395000D01*
X150275000Y-88591939D01*
X150314774Y-88791898D01*
X150392795Y-88980256D01*
X150506063Y-89149774D01*
X150650226Y-89293937D01*
X150819744Y-89407205D01*
X151008102Y-89485226D01*
X151208061Y-89525000D01*
X151411939Y-89525000D01*
X151611898Y-89485226D01*
X151800256Y-89407205D01*
X151969774Y-89293937D01*
X152113937Y-89149774D01*
X152227205Y-88980256D01*
X152305226Y-88791898D01*
X152345000Y-88591939D01*
X152345000Y-88395000D01*
X153493895Y-88395000D01*
X153530000Y-88398556D01*
X153566105Y-88395000D01*
X153674085Y-88384365D01*
X153812633Y-88342337D01*
X153940320Y-88274087D01*
X154052238Y-88182238D01*
X154075258Y-88154188D01*
X155209626Y-87019821D01*
X155164774Y-87128102D01*
X155125000Y-87328061D01*
X155125000Y-87531939D01*
X155164774Y-87731898D01*
X155242795Y-87920256D01*
X155356063Y-88089774D01*
X155500226Y-88233937D01*
X155669744Y-88347205D01*
X155858102Y-88425226D01*
X156058061Y-88465000D01*
X156261939Y-88465000D01*
X156461898Y-88425226D01*
X156650256Y-88347205D01*
X156819774Y-88233937D01*
X156963937Y-88089774D01*
X157077205Y-87920256D01*
X157155226Y-87731898D01*
X157195000Y-87531939D01*
X157195000Y-87328061D01*
X157155226Y-87128102D01*
X157084793Y-86958061D01*
X157425000Y-86958061D01*
X157425000Y-87161939D01*
X157464774Y-87361898D01*
X157542795Y-87550256D01*
X157656063Y-87719774D01*
X157800226Y-87863937D01*
X157969744Y-87977205D01*
X158158102Y-88055226D01*
X158358061Y-88095000D01*
X158561939Y-88095000D01*
X158761898Y-88055226D01*
X158950256Y-87977205D01*
X158990000Y-87950649D01*
X159029744Y-87977205D01*
X159218102Y-88055226D01*
X159418061Y-88095000D01*
X159621939Y-88095000D01*
X159821898Y-88055226D01*
X160010256Y-87977205D01*
X160179774Y-87863937D01*
X160323937Y-87719774D01*
X160437205Y-87550256D01*
X160515226Y-87361898D01*
X160555000Y-87161939D01*
X160555000Y-86958061D01*
X160515226Y-86758102D01*
X160437205Y-86569744D01*
X160323937Y-86400226D01*
X160179774Y-86256063D01*
X160010256Y-86142795D01*
X159821898Y-86064774D01*
X159621939Y-86025000D01*
X159418061Y-86025000D01*
X159218102Y-86064774D01*
X159029744Y-86142795D01*
X158990000Y-86169351D01*
X158950256Y-86142795D01*
X158761898Y-86064774D01*
X158561939Y-86025000D01*
X158358061Y-86025000D01*
X158158102Y-86064774D01*
X157969744Y-86142795D01*
X157800226Y-86256063D01*
X157656063Y-86400226D01*
X157542795Y-86569744D01*
X157464774Y-86758102D01*
X157425000Y-86958061D01*
X157084793Y-86958061D01*
X157077205Y-86939744D01*
X157062308Y-86917449D01*
X157107205Y-86850256D01*
X157185226Y-86661898D01*
X157225000Y-86461939D01*
X157225000Y-86258061D01*
X157185226Y-86058102D01*
X157107205Y-85869744D01*
X156993937Y-85700226D01*
X156849774Y-85556063D01*
X156680256Y-85442795D01*
X156491898Y-85364774D01*
X156291939Y-85325000D01*
X156088061Y-85325000D01*
X155888102Y-85364774D01*
X155755000Y-85419907D01*
X155755000Y-84924883D01*
X155966632Y-84783475D01*
X156173475Y-84576632D01*
X156290000Y-84402240D01*
X156406525Y-84576632D01*
X156613368Y-84783475D01*
X156856589Y-84945990D01*
X157126842Y-85057932D01*
X157413740Y-85115000D01*
X157706260Y-85115000D01*
X157993158Y-85057932D01*
X158263411Y-84945990D01*
X158506632Y-84783475D01*
X158713475Y-84576632D01*
X158830000Y-84402240D01*
X158946525Y-84576632D01*
X159153368Y-84783475D01*
X159396589Y-84945990D01*
X159666842Y-85057932D01*
X159953740Y-85115000D01*
X160246260Y-85115000D01*
X160533158Y-85057932D01*
X160803411Y-84945990D01*
X161046632Y-84783475D01*
X161253475Y-84576632D01*
X161370000Y-84402240D01*
X161486525Y-84576632D01*
X161693368Y-84783475D01*
X161936589Y-84945990D01*
X162206842Y-85057932D01*
X162218566Y-85060264D01*
X162060226Y-85166063D01*
X161916063Y-85310226D01*
X161802795Y-85479744D01*
X161724774Y-85668102D01*
X161685000Y-85868061D01*
X161685000Y-86071939D01*
X161724774Y-86271898D01*
X161802795Y-86460256D01*
X161916063Y-86629774D01*
X162060226Y-86773937D01*
X162105000Y-86803854D01*
X160085814Y-88823040D01*
X160057769Y-88846056D01*
X159965920Y-88957974D01*
X159910350Y-89061939D01*
X159897670Y-89085661D01*
X159855641Y-89224209D01*
X159841450Y-89368294D01*
X159845007Y-89404409D01*
X159845006Y-90811310D01*
X159830138Y-90826178D01*
X159740034Y-90736074D01*
X159570516Y-90622806D01*
X159382158Y-90544785D01*
X159182199Y-90505011D01*
X158978321Y-90505011D01*
X158778362Y-90544785D01*
X158669878Y-90589721D01*
X158532346Y-90452189D01*
X158507764Y-90422236D01*
X158388233Y-90324138D01*
X158251860Y-90251246D01*
X158103887Y-90206359D01*
X157988561Y-90195000D01*
X157988553Y-90195000D01*
X157950000Y-90191203D01*
X157911447Y-90195000D01*
X156858556Y-90195000D01*
X156820000Y-90191203D01*
X156781444Y-90195000D01*
X156781439Y-90195000D01*
X156741026Y-90198980D01*
X156666113Y-90206358D01*
X156535226Y-90246063D01*
X156518140Y-90251246D01*
X156381767Y-90324138D01*
X156262236Y-90422236D01*
X156237653Y-90452190D01*
X155712190Y-90977653D01*
X155682236Y-91002236D01*
X155584138Y-91121768D01*
X155511246Y-91258141D01*
X155466359Y-91406114D01*
X155455000Y-91521440D01*
X155455000Y-91521447D01*
X155451203Y-91560000D01*
X155455000Y-91598553D01*
X155455001Y-94821426D01*
X155451203Y-94859989D01*
X155466359Y-95013875D01*
X155511246Y-95161848D01*
X155511247Y-95161849D01*
X155584139Y-95298222D01*
X155609962Y-95329687D01*
X155657655Y-95387801D01*
X155657659Y-95387805D01*
X155682237Y-95417753D01*
X155712185Y-95442331D01*
X156485000Y-96215147D01*
X156485000Y-96241928D01*
X156524774Y-96441887D01*
X156602795Y-96630245D01*
X156716063Y-96799763D01*
X156860226Y-96943926D01*
X157029744Y-97057194D01*
X157218102Y-97135215D01*
X157418061Y-97174989D01*
X157621939Y-97174989D01*
X157821898Y-97135215D01*
X158010256Y-97057194D01*
X158179774Y-96943926D01*
X158323937Y-96799763D01*
X158437205Y-96630245D01*
X158515226Y-96441887D01*
X158555000Y-96241928D01*
X158555000Y-96038481D01*
X158677729Y-96014068D01*
X158847889Y-95943586D01*
X159001028Y-95841262D01*
X159042500Y-95799790D01*
X159083972Y-95841262D01*
X159237111Y-95943586D01*
X159252436Y-95949934D01*
X159249846Y-95962956D01*
X159249846Y-96166834D01*
X159289620Y-96366793D01*
X159367641Y-96555151D01*
X159480909Y-96724669D01*
X159625072Y-96868832D01*
X159794590Y-96982100D01*
X159982948Y-97060121D01*
X160182907Y-97099895D01*
X160386785Y-97099895D01*
X160586744Y-97060121D01*
X160775102Y-96982100D01*
X160799796Y-96965600D01*
X160982775Y-97041393D01*
X161182734Y-97081167D01*
X161386612Y-97081167D01*
X161586571Y-97041393D01*
X161774929Y-96963372D01*
X161944447Y-96850104D01*
X162088610Y-96705941D01*
X162201878Y-96536423D01*
X162279899Y-96348065D01*
X162319673Y-96148106D01*
X162319673Y-96143721D01*
X162480256Y-96077205D01*
X162649774Y-95963937D01*
X162793937Y-95819774D01*
X162907205Y-95650256D01*
X162985226Y-95461898D01*
X163025000Y-95261939D01*
X163025000Y-95058061D01*
X162985226Y-94858102D01*
X162907205Y-94669744D01*
X162793937Y-94500226D01*
X162778711Y-94485000D01*
X164375554Y-94485000D01*
X165255001Y-95364448D01*
X165255000Y-97243896D01*
X165251444Y-97280001D01*
X165255779Y-97324018D01*
X165147276Y-97345600D01*
X164958918Y-97423621D01*
X164789400Y-97536889D01*
X164645237Y-97681052D01*
X164531969Y-97850570D01*
X164453948Y-98038928D01*
X164447691Y-98070385D01*
X164434943Y-98072921D01*
X164246585Y-98150942D01*
X164193192Y-98186618D01*
X164040000Y-98123163D01*
X163840041Y-98083389D01*
X163636163Y-98083389D01*
X163621259Y-98086354D01*
X163669774Y-98053937D01*
X163813937Y-97909774D01*
X163927205Y-97740256D01*
X164005226Y-97551898D01*
X164045000Y-97351939D01*
X164045000Y-97148061D01*
X164005226Y-96948102D01*
X163927205Y-96759744D01*
X163813937Y-96590226D01*
X163669774Y-96446063D01*
X163500256Y-96332795D01*
X163311898Y-96254774D01*
X163111939Y-96215000D01*
X162908061Y-96215000D01*
X162708102Y-96254774D01*
X162519744Y-96332795D01*
X162350226Y-96446063D01*
X162206063Y-96590226D01*
X162092795Y-96759744D01*
X162014774Y-96948102D01*
X161975000Y-97148061D01*
X161975000Y-97351939D01*
X162014774Y-97551898D01*
X162092795Y-97740256D01*
X162206063Y-97909774D01*
X162350226Y-98053937D01*
X162519744Y-98167205D01*
X162708102Y-98245226D01*
X162908061Y-98285000D01*
X163111939Y-98285000D01*
X163126843Y-98282035D01*
X163078328Y-98314452D01*
X162934165Y-98458615D01*
X162820897Y-98628133D01*
X162742876Y-98816491D01*
X162703102Y-99016450D01*
X162703102Y-99220328D01*
X162742876Y-99420287D01*
X162820897Y-99608645D01*
X162934165Y-99778163D01*
X163078328Y-99922326D01*
X163247846Y-100035594D01*
X163436204Y-100113615D01*
X163636163Y-100153389D01*
X163840041Y-100153389D01*
X164040000Y-100113615D01*
X164228358Y-100035594D01*
X164281751Y-99999918D01*
X164434943Y-100063373D01*
X164634902Y-100103147D01*
X164838780Y-100103147D01*
X165038739Y-100063373D01*
X165227097Y-99985352D01*
X165396615Y-99872084D01*
X165540778Y-99727921D01*
X165596097Y-99645130D01*
X165686063Y-99779774D01*
X165830226Y-99923937D01*
X165999744Y-100037205D01*
X166188102Y-100115226D01*
X166388061Y-100155000D01*
X166591939Y-100155000D01*
X166791898Y-100115226D01*
X166855000Y-100089088D01*
X166855000Y-100161939D01*
X166894774Y-100361898D01*
X166972795Y-100550256D01*
X167086063Y-100719774D01*
X167230226Y-100863937D01*
X167399744Y-100977205D01*
X167588102Y-101055226D01*
X167788061Y-101095000D01*
X167991939Y-101095000D01*
X168191898Y-101055226D01*
X168380256Y-100977205D01*
X168549774Y-100863937D01*
X168693937Y-100719774D01*
X168807205Y-100550256D01*
X168885226Y-100361898D01*
X168925000Y-100161939D01*
X168925000Y-99958061D01*
X168885226Y-99758102D01*
X168807205Y-99569744D01*
X168693937Y-99400226D01*
X168549774Y-99256063D01*
X168380256Y-99142795D01*
X168191898Y-99064774D01*
X167991939Y-99025000D01*
X167788061Y-99025000D01*
X167588102Y-99064774D01*
X167525000Y-99090912D01*
X167525000Y-99018061D01*
X167485226Y-98818102D01*
X167464499Y-98768061D01*
X168585000Y-98768061D01*
X168585000Y-98971939D01*
X168624774Y-99171898D01*
X168702795Y-99360256D01*
X168816063Y-99529774D01*
X168960226Y-99673937D01*
X169129744Y-99787205D01*
X169318102Y-99865226D01*
X169518061Y-99905000D01*
X169721939Y-99905000D01*
X169921898Y-99865226D01*
X170110256Y-99787205D01*
X170279774Y-99673937D01*
X170423937Y-99529774D01*
X170537205Y-99360256D01*
X170615226Y-99171898D01*
X170655000Y-98971939D01*
X170655000Y-98768061D01*
X170615226Y-98568102D01*
X170537205Y-98379744D01*
X170423937Y-98210226D01*
X170279774Y-98066063D01*
X170110256Y-97952795D01*
X169921898Y-97874774D01*
X169721939Y-97835000D01*
X169518061Y-97835000D01*
X169318102Y-97874774D01*
X169129744Y-97952795D01*
X168960226Y-98066063D01*
X168816063Y-98210226D01*
X168702795Y-98379744D01*
X168624774Y-98568102D01*
X168585000Y-98768061D01*
X167464499Y-98768061D01*
X167407205Y-98629744D01*
X167293937Y-98460226D01*
X167225000Y-98391289D01*
X167225000Y-98015951D01*
X167270256Y-97997205D01*
X167325000Y-97960626D01*
X167379744Y-97997205D01*
X167568102Y-98075226D01*
X167768061Y-98115000D01*
X167971939Y-98115000D01*
X168171898Y-98075226D01*
X168360256Y-97997205D01*
X168529774Y-97883937D01*
X168673937Y-97739774D01*
X168787205Y-97570256D01*
X168865226Y-97381898D01*
X168905000Y-97181939D01*
X168905000Y-96978061D01*
X168865226Y-96778102D01*
X168811361Y-96648061D01*
X172785000Y-96648061D01*
X172785000Y-96851939D01*
X172824774Y-97051898D01*
X172902795Y-97240256D01*
X173016063Y-97409774D01*
X173160226Y-97553937D01*
X173329744Y-97667205D01*
X173518102Y-97745226D01*
X173718061Y-97785000D01*
X173921939Y-97785000D01*
X174121898Y-97745226D01*
X174310256Y-97667205D01*
X174479774Y-97553937D01*
X174623937Y-97409774D01*
X174737205Y-97240256D01*
X174815226Y-97051898D01*
X174855000Y-96851939D01*
X174855000Y-96648061D01*
X174815226Y-96448102D01*
X174737205Y-96259744D01*
X174623937Y-96090226D01*
X174479774Y-95946063D01*
X174310256Y-95832795D01*
X174121898Y-95754774D01*
X173921939Y-95715000D01*
X173718061Y-95715000D01*
X173518102Y-95754774D01*
X173329744Y-95832795D01*
X173160226Y-95946063D01*
X173016063Y-96090226D01*
X172902795Y-96259744D01*
X172824774Y-96448102D01*
X172785000Y-96648061D01*
X168811361Y-96648061D01*
X168787205Y-96589744D01*
X168673937Y-96420226D01*
X168529774Y-96276063D01*
X168528500Y-96275211D01*
X168553937Y-96249774D01*
X168570810Y-96224521D01*
X168670226Y-96323937D01*
X168839744Y-96437205D01*
X169028102Y-96515226D01*
X169228061Y-96555000D01*
X169431939Y-96555000D01*
X169631898Y-96515226D01*
X169820256Y-96437205D01*
X169989774Y-96323937D01*
X170133937Y-96179774D01*
X170247205Y-96010256D01*
X170325226Y-95821898D01*
X170365000Y-95621939D01*
X170365000Y-95418061D01*
X170325226Y-95218102D01*
X170247205Y-95029744D01*
X170246020Y-95027970D01*
X170272826Y-94987851D01*
X170350847Y-94799493D01*
X170390621Y-94599534D01*
X170390621Y-94395656D01*
X170350847Y-94195697D01*
X170272826Y-94007339D01*
X170263484Y-93993358D01*
X170267154Y-93987865D01*
X170345175Y-93799507D01*
X170384949Y-93599548D01*
X170384949Y-93395670D01*
X170345175Y-93195711D01*
X170267154Y-93007353D01*
X170153886Y-92837835D01*
X170009723Y-92693672D01*
X169840205Y-92580404D01*
X169651847Y-92502383D01*
X169451888Y-92462609D01*
X169248010Y-92462609D01*
X169048051Y-92502383D01*
X168859693Y-92580404D01*
X168690175Y-92693672D01*
X168546012Y-92837835D01*
X168432744Y-93007353D01*
X168354723Y-93195711D01*
X168314949Y-93395670D01*
X168314949Y-93599548D01*
X168354723Y-93799507D01*
X168432744Y-93987865D01*
X168442086Y-94001846D01*
X168438416Y-94007339D01*
X168360395Y-94195697D01*
X168320621Y-94395656D01*
X168320621Y-94599534D01*
X168349745Y-94745953D01*
X168240256Y-94672795D01*
X168051898Y-94594774D01*
X167851939Y-94555000D01*
X167648061Y-94555000D01*
X167448102Y-94594774D01*
X167259744Y-94672795D01*
X167090226Y-94786063D01*
X166946063Y-94930226D01*
X166832795Y-95099744D01*
X166754774Y-95288102D01*
X166725000Y-95437787D01*
X166725000Y-95096105D01*
X166728556Y-95060000D01*
X166714365Y-94915915D01*
X166705568Y-94886914D01*
X166672337Y-94777367D01*
X166604087Y-94649680D01*
X166512238Y-94537762D01*
X166484193Y-94514746D01*
X165225258Y-93255812D01*
X165202238Y-93227762D01*
X165090320Y-93135913D01*
X164962633Y-93067663D01*
X164824085Y-93025635D01*
X164716105Y-93015000D01*
X164680000Y-93011444D01*
X164643895Y-93015000D01*
X163038457Y-93015000D01*
X163054979Y-92931939D01*
X163054979Y-92728061D01*
X163015205Y-92528102D01*
X162937184Y-92339744D01*
X162823916Y-92170226D01*
X162752296Y-92098606D01*
X162797394Y-91989731D01*
X162816190Y-91895238D01*
X162894087Y-91800320D01*
X162962337Y-91672633D01*
X163004365Y-91534085D01*
X163015000Y-91426105D01*
X163015000Y-91426096D01*
X163018555Y-91390001D01*
X163015000Y-91353906D01*
X163015000Y-90834555D01*
X163168061Y-90865000D01*
X163371939Y-90865000D01*
X163571898Y-90825226D01*
X163591981Y-90816907D01*
X163663945Y-90888871D01*
X163833463Y-91002139D01*
X164021821Y-91080160D01*
X164221780Y-91119934D01*
X164276508Y-91119934D01*
X164255000Y-91228061D01*
X164255000Y-91431939D01*
X164294774Y-91631898D01*
X164372795Y-91820256D01*
X164486063Y-91989774D01*
X164630226Y-92133937D01*
X164799744Y-92247205D01*
X164988102Y-92325226D01*
X165188061Y-92365000D01*
X165391939Y-92365000D01*
X165591898Y-92325226D01*
X165780256Y-92247205D01*
X165834160Y-92211187D01*
X165795000Y-92408061D01*
X165795000Y-92611939D01*
X165834774Y-92811898D01*
X165912795Y-93000256D01*
X166026063Y-93169774D01*
X166170226Y-93313937D01*
X166339744Y-93427205D01*
X166528102Y-93505226D01*
X166728061Y-93545000D01*
X166931939Y-93545000D01*
X167131898Y-93505226D01*
X167320256Y-93427205D01*
X167489774Y-93313937D01*
X167633937Y-93169774D01*
X167747205Y-93000256D01*
X167825226Y-92811898D01*
X167865000Y-92611939D01*
X167865000Y-92408061D01*
X167825226Y-92208102D01*
X167747205Y-92019744D01*
X167724706Y-91986072D01*
X167770256Y-91967205D01*
X167939774Y-91853937D01*
X168083937Y-91709774D01*
X168197205Y-91540256D01*
X168275226Y-91351898D01*
X168315000Y-91151939D01*
X168315000Y-90948061D01*
X168275226Y-90748102D01*
X168197205Y-90559744D01*
X168194035Y-90555000D01*
X168231939Y-90555000D01*
X168431898Y-90515226D01*
X168620256Y-90437205D01*
X168789774Y-90323937D01*
X168933937Y-90179774D01*
X169047205Y-90010256D01*
X169125226Y-89821898D01*
X169165000Y-89621939D01*
X169165000Y-89418061D01*
X169125226Y-89218102D01*
X169047205Y-89029744D01*
X168933937Y-88860226D01*
X168789774Y-88716063D01*
X168620256Y-88602795D01*
X168431898Y-88524774D01*
X168231939Y-88485000D01*
X168028061Y-88485000D01*
X167828102Y-88524774D01*
X167639744Y-88602795D01*
X167470226Y-88716063D01*
X167326063Y-88860226D01*
X167212795Y-89029744D01*
X167134774Y-89218102D01*
X167095000Y-89418061D01*
X167095000Y-89621939D01*
X167134774Y-89821898D01*
X167212795Y-90010256D01*
X167215965Y-90015000D01*
X167178061Y-90015000D01*
X166978102Y-90054774D01*
X166835001Y-90114049D01*
X166835001Y-88272566D01*
X166998061Y-88305000D01*
X167201939Y-88305000D01*
X167401898Y-88265226D01*
X167590256Y-88187205D01*
X167759774Y-88073937D01*
X167903937Y-87929774D01*
X168017205Y-87760256D01*
X168095226Y-87571898D01*
X168135000Y-87371939D01*
X168135000Y-87168061D01*
X168134393Y-87165010D01*
X171575564Y-87165010D01*
X171855001Y-87444447D01*
X171855000Y-88549897D01*
X171851444Y-88586002D01*
X171865635Y-88730087D01*
X171876093Y-88764560D01*
X171907663Y-88868634D01*
X171975913Y-88996321D01*
X172067762Y-89108239D01*
X172095808Y-89131256D01*
X172576372Y-89611821D01*
X172480226Y-89676063D01*
X172336063Y-89820226D01*
X172222795Y-89989744D01*
X172144774Y-90178102D01*
X172105000Y-90378061D01*
X172105000Y-90581939D01*
X172144774Y-90781898D01*
X172222795Y-90970256D01*
X172336063Y-91139774D01*
X172480226Y-91283937D01*
X172649744Y-91397205D01*
X172838102Y-91475226D01*
X173038061Y-91515000D01*
X173241939Y-91515000D01*
X173441898Y-91475226D01*
X173630256Y-91397205D01*
X173799774Y-91283937D01*
X173820001Y-91263710D01*
X173850226Y-91293935D01*
X173925993Y-91344561D01*
X173855806Y-91414748D01*
X173827761Y-91437764D01*
X173735912Y-91549682D01*
X173673775Y-91665932D01*
X173667662Y-91677369D01*
X173625633Y-91815917D01*
X173611442Y-91960002D01*
X173614999Y-91996117D01*
X173614999Y-92511288D01*
X173546061Y-92580226D01*
X173432793Y-92749744D01*
X173354772Y-92938102D01*
X173314998Y-93138061D01*
X173314998Y-93341939D01*
X173354772Y-93541898D01*
X173432793Y-93730256D01*
X173546061Y-93899774D01*
X173690224Y-94043937D01*
X173859742Y-94157205D01*
X174048100Y-94235226D01*
X174248059Y-94275000D01*
X174451937Y-94275000D01*
X174651896Y-94235226D01*
X174840254Y-94157205D01*
X175009772Y-94043937D01*
X175153935Y-93899774D01*
X175267203Y-93730256D01*
X175345224Y-93541898D01*
X175356542Y-93485000D01*
X175531939Y-93485000D01*
X175731898Y-93445226D01*
X175920256Y-93367205D01*
X176089774Y-93253937D01*
X176233937Y-93109774D01*
X176347205Y-92940256D01*
X176425226Y-92751898D01*
X176465000Y-92551939D01*
X176465000Y-92348061D01*
X176425226Y-92148102D01*
X176347205Y-91959744D01*
X176304146Y-91895301D01*
X176884203Y-91315244D01*
X176912248Y-91292228D01*
X177004097Y-91180310D01*
X177072347Y-91052623D01*
X177102618Y-90952833D01*
X177114375Y-90914076D01*
X177118133Y-90875915D01*
X177125010Y-90806095D01*
X177125010Y-90806088D01*
X177128565Y-90769991D01*
X177125010Y-90733894D01*
X177125010Y-89328061D01*
X177245000Y-89328061D01*
X177245000Y-89531939D01*
X177284774Y-89731898D01*
X177362795Y-89920256D01*
X177476063Y-90089774D01*
X177561289Y-90175000D01*
X177516063Y-90220226D01*
X177402795Y-90389744D01*
X177324774Y-90578102D01*
X177285000Y-90778061D01*
X177285000Y-90981939D01*
X177324774Y-91181898D01*
X177402795Y-91370256D01*
X177516063Y-91539774D01*
X177646289Y-91670000D01*
X177556063Y-91760226D01*
X177442795Y-91929744D01*
X177364774Y-92118102D01*
X177325000Y-92318061D01*
X177325000Y-92521939D01*
X177364774Y-92721898D01*
X177442795Y-92910256D01*
X177556063Y-93079774D01*
X177700226Y-93223937D01*
X177869744Y-93337205D01*
X178058102Y-93415226D01*
X178258061Y-93455000D01*
X178461939Y-93455000D01*
X178661898Y-93415226D01*
X178850256Y-93337205D01*
X179019774Y-93223937D01*
X179163937Y-93079774D01*
X179277205Y-92910256D01*
X179355226Y-92721898D01*
X179395000Y-92521939D01*
X179395000Y-92318061D01*
X179355226Y-92118102D01*
X179277205Y-91929744D01*
X179163937Y-91760226D01*
X179033711Y-91630000D01*
X179123937Y-91539774D01*
X179237205Y-91370256D01*
X179315226Y-91181898D01*
X179355000Y-90981939D01*
X179355000Y-90778061D01*
X179315226Y-90578102D01*
X179237205Y-90389744D01*
X179123937Y-90220226D01*
X179038711Y-90135000D01*
X179083937Y-90089774D01*
X179197205Y-89920256D01*
X179275226Y-89731898D01*
X179315000Y-89531939D01*
X179315000Y-89328061D01*
X179275226Y-89128102D01*
X179197205Y-88939744D01*
X179083937Y-88770226D01*
X178939774Y-88626063D01*
X178770256Y-88512795D01*
X178581898Y-88434774D01*
X178381939Y-88395000D01*
X178178061Y-88395000D01*
X177978102Y-88434774D01*
X177789744Y-88512795D01*
X177620226Y-88626063D01*
X177476063Y-88770226D01*
X177362795Y-88939744D01*
X177284774Y-89128102D01*
X177245000Y-89328061D01*
X177125010Y-89328061D01*
X177125010Y-86336115D01*
X177128566Y-86300010D01*
X177114375Y-86155925D01*
X177107692Y-86133895D01*
X177072347Y-86017377D01*
X177004097Y-85889690D01*
X176960127Y-85836113D01*
X176935263Y-85805816D01*
X176935260Y-85805813D01*
X176912247Y-85777772D01*
X176884207Y-85754760D01*
X175075000Y-83945554D01*
X175075000Y-82936094D01*
X175078555Y-82899999D01*
X175075000Y-82863904D01*
X175075000Y-82863895D01*
X175064365Y-82755915D01*
X175022337Y-82617367D01*
X174954087Y-82489680D01*
X174914137Y-82441001D01*
X174885253Y-82405806D01*
X174885250Y-82405803D01*
X174862237Y-82377762D01*
X174834197Y-82354750D01*
X174668480Y-82189033D01*
X175529545Y-82189033D01*
X175529545Y-82590967D01*
X175607958Y-82985179D01*
X175761772Y-83356518D01*
X175985075Y-83690714D01*
X176269286Y-83974925D01*
X176603482Y-84198228D01*
X176974821Y-84352042D01*
X177369033Y-84430455D01*
X177770967Y-84430455D01*
X178165179Y-84352042D01*
X178536518Y-84198228D01*
X178870714Y-83974925D01*
X179154925Y-83690714D01*
X179378228Y-83356518D01*
X179532042Y-82985179D01*
X179610455Y-82590967D01*
X179610455Y-82189033D01*
X179532042Y-81794821D01*
X179378228Y-81423482D01*
X179154925Y-81089286D01*
X178870714Y-80805075D01*
X178536518Y-80581772D01*
X178165179Y-80427958D01*
X177770967Y-80349545D01*
X177369033Y-80349545D01*
X176974821Y-80427958D01*
X176603482Y-80581772D01*
X176269286Y-80805075D01*
X175985075Y-81089286D01*
X175761772Y-81423482D01*
X175607958Y-81794821D01*
X175529545Y-82189033D01*
X174668480Y-82189033D01*
X174335258Y-81855812D01*
X174312238Y-81827762D01*
X174200320Y-81735913D01*
X174150776Y-81709431D01*
X174227932Y-81523158D01*
X174285000Y-81236260D01*
X174285000Y-80943740D01*
X174227932Y-80656842D01*
X174115990Y-80386589D01*
X173953475Y-80143368D01*
X173746632Y-79936525D01*
X173503411Y-79774010D01*
X173233158Y-79662068D01*
X172946260Y-79605000D01*
X172653740Y-79605000D01*
X172366842Y-79662068D01*
X172096589Y-79774010D01*
X171853368Y-79936525D01*
X171646525Y-80143368D01*
X171530000Y-80317760D01*
X171413475Y-80143368D01*
X171206632Y-79936525D01*
X170963411Y-79774010D01*
X170693158Y-79662068D01*
X170406260Y-79605000D01*
X170113740Y-79605000D01*
X169826842Y-79662068D01*
X169556589Y-79774010D01*
X169313368Y-79936525D01*
X169106525Y-80143368D01*
X168990000Y-80317760D01*
X168873475Y-80143368D01*
X168666632Y-79936525D01*
X168423411Y-79774010D01*
X168153158Y-79662068D01*
X167866260Y-79605000D01*
X167573740Y-79605000D01*
X167286842Y-79662068D01*
X167016589Y-79774010D01*
X166773368Y-79936525D01*
X166566525Y-80143368D01*
X166450000Y-80317760D01*
X166333475Y-80143368D01*
X166126632Y-79936525D01*
X165883411Y-79774010D01*
X165613158Y-79662068D01*
X165326260Y-79605000D01*
X165033740Y-79605000D01*
X164746842Y-79662068D01*
X164476589Y-79774010D01*
X164233368Y-79936525D01*
X164026525Y-80143368D01*
X163910000Y-80317760D01*
X163793475Y-80143368D01*
X163586632Y-79936525D01*
X163343411Y-79774010D01*
X163073158Y-79662068D01*
X162786260Y-79605000D01*
X162493740Y-79605000D01*
X162206842Y-79662068D01*
X161936589Y-79774010D01*
X161693368Y-79936525D01*
X161486525Y-80143368D01*
X161370000Y-80317760D01*
X161253475Y-80143368D01*
X161046632Y-79936525D01*
X160803411Y-79774010D01*
X160533158Y-79662068D01*
X160246260Y-79605000D01*
X159953740Y-79605000D01*
X159666842Y-79662068D01*
X159396589Y-79774010D01*
X159153368Y-79936525D01*
X158946525Y-80143368D01*
X158830000Y-80317760D01*
X158713475Y-80143368D01*
X158506632Y-79936525D01*
X158263411Y-79774010D01*
X157993158Y-79662068D01*
X157706260Y-79605000D01*
X157413740Y-79605000D01*
X157126842Y-79662068D01*
X156856589Y-79774010D01*
X156613368Y-79936525D01*
X156406525Y-80143368D01*
X156290000Y-80317760D01*
X156173475Y-80143368D01*
X155966632Y-79936525D01*
X155723411Y-79774010D01*
X155453158Y-79662068D01*
X155166260Y-79605000D01*
X154873740Y-79605000D01*
X154586842Y-79662068D01*
X154316589Y-79774010D01*
X154073368Y-79936525D01*
X153866525Y-80143368D01*
X153750000Y-80317760D01*
X153633475Y-80143368D01*
X153426632Y-79936525D01*
X153183411Y-79774010D01*
X152913158Y-79662068D01*
X152626260Y-79605000D01*
X152333740Y-79605000D01*
X152046842Y-79662068D01*
X151776589Y-79774010D01*
X151533368Y-79936525D01*
X151326525Y-80143368D01*
X151210000Y-80317760D01*
X151093475Y-80143368D01*
X150886632Y-79936525D01*
X150643411Y-79774010D01*
X150373158Y-79662068D01*
X150086260Y-79605000D01*
X149793740Y-79605000D01*
X149506842Y-79662068D01*
X149236589Y-79774010D01*
X148993368Y-79936525D01*
X148786525Y-80143368D01*
X148670000Y-80317760D01*
X148553475Y-80143368D01*
X148346632Y-79936525D01*
X148103411Y-79774010D01*
X147833158Y-79662068D01*
X147546260Y-79605000D01*
X147253740Y-79605000D01*
X146966842Y-79662068D01*
X146696589Y-79774010D01*
X146453368Y-79936525D01*
X146246525Y-80143368D01*
X146130000Y-80317760D01*
X146013475Y-80143368D01*
X145806632Y-79936525D01*
X145563411Y-79774010D01*
X145293158Y-79662068D01*
X145006260Y-79605000D01*
X144713740Y-79605000D01*
X144426842Y-79662068D01*
X144156589Y-79774010D01*
X143913368Y-79936525D01*
X143706525Y-80143368D01*
X143590000Y-80317760D01*
X143473475Y-80143368D01*
X143266632Y-79936525D01*
X143023411Y-79774010D01*
X142753158Y-79662068D01*
X142466260Y-79605000D01*
X142173740Y-79605000D01*
X141886842Y-79662068D01*
X141616589Y-79774010D01*
X141373368Y-79936525D01*
X141166525Y-80143368D01*
X141050000Y-80317760D01*
X140933475Y-80143368D01*
X140726632Y-79936525D01*
X140483411Y-79774010D01*
X140213158Y-79662068D01*
X139926260Y-79605000D01*
X139633740Y-79605000D01*
X139346842Y-79662068D01*
X139076589Y-79774010D01*
X138833368Y-79936525D01*
X138626525Y-80143368D01*
X138510000Y-80317760D01*
X138393475Y-80143368D01*
X138186632Y-79936525D01*
X137943411Y-79774010D01*
X137673158Y-79662068D01*
X137386260Y-79605000D01*
X137093740Y-79605000D01*
X136806842Y-79662068D01*
X136536589Y-79774010D01*
X136293368Y-79936525D01*
X136086525Y-80143368D01*
X135970000Y-80317760D01*
X135853475Y-80143368D01*
X135646632Y-79936525D01*
X135403411Y-79774010D01*
X135133158Y-79662068D01*
X134846260Y-79605000D01*
X134553740Y-79605000D01*
X134266842Y-79662068D01*
X133996589Y-79774010D01*
X133753368Y-79936525D01*
X133546525Y-80143368D01*
X133430000Y-80317760D01*
X133313475Y-80143368D01*
X133106632Y-79936525D01*
X132863411Y-79774010D01*
X132593158Y-79662068D01*
X132306260Y-79605000D01*
X132013740Y-79605000D01*
X131726842Y-79662068D01*
X131456589Y-79774010D01*
X131213368Y-79936525D01*
X131006525Y-80143368D01*
X130890000Y-80317760D01*
X130773475Y-80143368D01*
X130566632Y-79936525D01*
X130323411Y-79774010D01*
X130053158Y-79662068D01*
X129766260Y-79605000D01*
X129473740Y-79605000D01*
X129186842Y-79662068D01*
X128916589Y-79774010D01*
X128673368Y-79936525D01*
X128466525Y-80143368D01*
X128344805Y-80325534D01*
X128275178Y-80208645D01*
X128080269Y-79992412D01*
X127846920Y-79818359D01*
X127584099Y-79693175D01*
X127436890Y-79648524D01*
X127207000Y-79769845D01*
X127207000Y-80963000D01*
X127227000Y-80963000D01*
X127227000Y-81217000D01*
X127207000Y-81217000D01*
X127207000Y-81237000D01*
X126953000Y-81237000D01*
X126953000Y-81217000D01*
X126933000Y-81217000D01*
X126933000Y-80963000D01*
X126953000Y-80963000D01*
X126953000Y-79769845D01*
X126723110Y-79648524D01*
X126575901Y-79693175D01*
X126313080Y-79818359D01*
X126079731Y-79992412D01*
X125884822Y-80208645D01*
X125815195Y-80325534D01*
X125693475Y-80143368D01*
X125486632Y-79936525D01*
X125243411Y-79774010D01*
X124973158Y-79662068D01*
X124686260Y-79605000D01*
X124393740Y-79605000D01*
X124106842Y-79662068D01*
X123836589Y-79774010D01*
X123593368Y-79936525D01*
X123386525Y-80143368D01*
X123224010Y-80386589D01*
X123112068Y-80656842D01*
X123055000Y-80943740D01*
X123055000Y-81236260D01*
X123112068Y-81523158D01*
X123224010Y-81793411D01*
X123386525Y-82036632D01*
X123518380Y-82168487D01*
X123445820Y-82190498D01*
X123335506Y-82249463D01*
X123238815Y-82328815D01*
X123159463Y-82425506D01*
X123100498Y-82535820D01*
X123064188Y-82655518D01*
X123051928Y-82780000D01*
X123051928Y-83866494D01*
X122804956Y-84113466D01*
X122771183Y-84141183D01*
X122660589Y-84275942D01*
X122578411Y-84429688D01*
X122527805Y-84596511D01*
X122515000Y-84726524D01*
X122515000Y-84726531D01*
X122510719Y-84770000D01*
X122515000Y-84813469D01*
X122515000Y-86093338D01*
X122421898Y-86054774D01*
X122221939Y-86015000D01*
X122018061Y-86015000D01*
X121818102Y-86054774D01*
X121629744Y-86132795D01*
X121524217Y-86203305D01*
X121515226Y-86158102D01*
X121437205Y-85969744D01*
X121323937Y-85800226D01*
X121179774Y-85656063D01*
X121010256Y-85542795D01*
X120821898Y-85464774D01*
X120621939Y-85425000D01*
X120418061Y-85425000D01*
X120218102Y-85464774D01*
X120029744Y-85542795D01*
X119860226Y-85656063D01*
X119716063Y-85800226D01*
X119602795Y-85969744D01*
X119524774Y-86158102D01*
X119485000Y-86358061D01*
X119485000Y-86561939D01*
X119524774Y-86761898D01*
X119602795Y-86950256D01*
X119716063Y-87119774D01*
X119860226Y-87263937D01*
X120029744Y-87377205D01*
X120218102Y-87455226D01*
X120418061Y-87495000D01*
X120621939Y-87495000D01*
X120821898Y-87455226D01*
X121010256Y-87377205D01*
X121115783Y-87306695D01*
X121124774Y-87351898D01*
X121202795Y-87540256D01*
X121316063Y-87709774D01*
X121460226Y-87853937D01*
X121629744Y-87967205D01*
X121818102Y-88045226D01*
X122018061Y-88085000D01*
X122221939Y-88085000D01*
X122421898Y-88045226D01*
X122515000Y-88006661D01*
X122515001Y-92821818D01*
X122513937Y-92820226D01*
X122369774Y-92676063D01*
X122200256Y-92562795D01*
X122011898Y-92484774D01*
X121811939Y-92445000D01*
X121608061Y-92445000D01*
X121408102Y-92484774D01*
X121219744Y-92562795D01*
X121050226Y-92676063D01*
X120906063Y-92820226D01*
X120792795Y-92989744D01*
X120714774Y-93178102D01*
X120675000Y-93378061D01*
X120675000Y-93581939D01*
X120714774Y-93781898D01*
X120792795Y-93970256D01*
X120906063Y-94139774D01*
X120971289Y-94205000D01*
X120886063Y-94290226D01*
X120772795Y-94459744D01*
X120694774Y-94648102D01*
X120655000Y-94848061D01*
X120655000Y-95051939D01*
X120694774Y-95251898D01*
X120772795Y-95440256D01*
X120886063Y-95609774D01*
X121030226Y-95753937D01*
X121199744Y-95867205D01*
X121388102Y-95945226D01*
X121588061Y-95985000D01*
X121791939Y-95985000D01*
X121991898Y-95945226D01*
X122180256Y-95867205D01*
X122349774Y-95753937D01*
X122493937Y-95609774D01*
X122515001Y-95578250D01*
X122515001Y-96686521D01*
X122510719Y-96730000D01*
X122527805Y-96903490D01*
X122578412Y-97070313D01*
X122660590Y-97224059D01*
X122743468Y-97325046D01*
X122743471Y-97325049D01*
X122771184Y-97358817D01*
X122804952Y-97386530D01*
X123512709Y-98094287D01*
X123419744Y-98132795D01*
X123250226Y-98246063D01*
X123106063Y-98390226D01*
X122992795Y-98559744D01*
X122914774Y-98748102D01*
X122875000Y-98948061D01*
X122875000Y-99091576D01*
X122841939Y-99085000D01*
X122638061Y-99085000D01*
X122438102Y-99124774D01*
X122249744Y-99202795D01*
X122080226Y-99316063D01*
X121936063Y-99460226D01*
X121822795Y-99629744D01*
X121744774Y-99818102D01*
X121705000Y-100018061D01*
X121705000Y-100221939D01*
X121744774Y-100421898D01*
X121822795Y-100610256D01*
X121936063Y-100779774D01*
X122080226Y-100923937D01*
X122249744Y-101037205D01*
X122438102Y-101115226D01*
X122568098Y-101141084D01*
X122494774Y-101318102D01*
X122455000Y-101518061D01*
X122455000Y-101721939D01*
X122494774Y-101921898D01*
X122572795Y-102110256D01*
X122686063Y-102279774D01*
X122830226Y-102423937D01*
X122999744Y-102537205D01*
X123188102Y-102615226D01*
X123388061Y-102655000D01*
X123591939Y-102655000D01*
X123791898Y-102615226D01*
X123980256Y-102537205D01*
X124149774Y-102423937D01*
X124293937Y-102279774D01*
X124407205Y-102110256D01*
X124485226Y-101921898D01*
X124525000Y-101721939D01*
X124525000Y-101518061D01*
X124485226Y-101318102D01*
X124407205Y-101129744D01*
X124293937Y-100960226D01*
X124149774Y-100816063D01*
X123980256Y-100702795D01*
X123791898Y-100624774D01*
X123661902Y-100598916D01*
X123735226Y-100421898D01*
X123775000Y-100221939D01*
X123775000Y-100078424D01*
X123808061Y-100085000D01*
X124011939Y-100085000D01*
X124211898Y-100045226D01*
X124400256Y-99967205D01*
X124569774Y-99853937D01*
X124713937Y-99709774D01*
X124827205Y-99540256D01*
X124865713Y-99447291D01*
X125277856Y-99859435D01*
X125269744Y-99862795D01*
X125100226Y-99976063D01*
X124956063Y-100120226D01*
X124842795Y-100289744D01*
X124764774Y-100478102D01*
X124725000Y-100678061D01*
X124725000Y-100881939D01*
X124764774Y-101081898D01*
X124842795Y-101270256D01*
X124956063Y-101439774D01*
X125100226Y-101583937D01*
X125269744Y-101697205D01*
X125458102Y-101775226D01*
X125658061Y-101815000D01*
X125773338Y-101815000D01*
X125734774Y-101908102D01*
X125695000Y-102108061D01*
X125695000Y-102311939D01*
X125734774Y-102511898D01*
X125812795Y-102700256D01*
X125926063Y-102869774D01*
X126070226Y-103013937D01*
X126239744Y-103127205D01*
X126428102Y-103205226D01*
X126628061Y-103245000D01*
X126657356Y-103245000D01*
X126591696Y-103403517D01*
X126550000Y-103613137D01*
X126550000Y-103826863D01*
X126591696Y-104036483D01*
X126673485Y-104233940D01*
X126792225Y-104411647D01*
X126943353Y-104562775D01*
X127121060Y-104681515D01*
X127318517Y-104763304D01*
X127528137Y-104805000D01*
X127741863Y-104805000D01*
X127951483Y-104763304D01*
X128148940Y-104681515D01*
X128326647Y-104562775D01*
X128477775Y-104411647D01*
X128596515Y-104233940D01*
X128678304Y-104036483D01*
X128720000Y-103826863D01*
X128720000Y-103613137D01*
X128678304Y-103403517D01*
X128596515Y-103206060D01*
X128540201Y-103121780D01*
X128613470Y-103195049D01*
X128641183Y-103228817D01*
X128674951Y-103256530D01*
X128674953Y-103256532D01*
X128775941Y-103339411D01*
X128929686Y-103421589D01*
X128950682Y-103427958D01*
X129096510Y-103472195D01*
X129226523Y-103485000D01*
X129226531Y-103485000D01*
X129270000Y-103489281D01*
X129297096Y-103486613D01*
X129209744Y-103522795D01*
X129040226Y-103636063D01*
X128896063Y-103780226D01*
X128782795Y-103949744D01*
X128704774Y-104138102D01*
X128665000Y-104338061D01*
X128665000Y-104541939D01*
X128704774Y-104741898D01*
X128782795Y-104930256D01*
X128896063Y-105099774D01*
X129040226Y-105243937D01*
X129209744Y-105357205D01*
X129398102Y-105435226D01*
X129598061Y-105475000D01*
X129801413Y-105475000D01*
X129765000Y-105658061D01*
X129765000Y-105861939D01*
X129804774Y-106061898D01*
X129882795Y-106250256D01*
X129996063Y-106419774D01*
X130140226Y-106563937D01*
X130309744Y-106677205D01*
X130498102Y-106755226D01*
X130698061Y-106795000D01*
X130901939Y-106795000D01*
X131101898Y-106755226D01*
X131186573Y-106720152D01*
X131185000Y-106728061D01*
X131185000Y-106931939D01*
X131224774Y-107131898D01*
X131302795Y-107320256D01*
X131416063Y-107489774D01*
X131560226Y-107633937D01*
X131729744Y-107747205D01*
X131918102Y-107825226D01*
X132118061Y-107865000D01*
X132321939Y-107865000D01*
X132521898Y-107825226D01*
X132710256Y-107747205D01*
X132879774Y-107633937D01*
X133023937Y-107489774D01*
X133137205Y-107320256D01*
X133215226Y-107131898D01*
X133255000Y-106931939D01*
X133255000Y-106728061D01*
X133215226Y-106528102D01*
X133137205Y-106339744D01*
X133023937Y-106170226D01*
X132879774Y-106026063D01*
X132710256Y-105912795D01*
X132521898Y-105834774D01*
X132321939Y-105795000D01*
X132118061Y-105795000D01*
X131918102Y-105834774D01*
X131833427Y-105869848D01*
X131835000Y-105861939D01*
X131835000Y-105658061D01*
X131795226Y-105458102D01*
X131717205Y-105269744D01*
X131603937Y-105100226D01*
X131459774Y-104956063D01*
X131290256Y-104842795D01*
X131101898Y-104764774D01*
X130901939Y-104725000D01*
X130698587Y-104725000D01*
X130735000Y-104541939D01*
X130735000Y-104338061D01*
X130695226Y-104138102D01*
X130617205Y-103949744D01*
X130503937Y-103780226D01*
X130359774Y-103636063D01*
X130190256Y-103522795D01*
X130099011Y-103485000D01*
X134575488Y-103485000D01*
X134550000Y-103613137D01*
X134550000Y-103826863D01*
X134591696Y-104036483D01*
X134673485Y-104233940D01*
X134792225Y-104411647D01*
X134943353Y-104562775D01*
X135121060Y-104681515D01*
X135318517Y-104763304D01*
X135528137Y-104805000D01*
X135741863Y-104805000D01*
X135951483Y-104763304D01*
X136148940Y-104681515D01*
X136326647Y-104562775D01*
X136367390Y-104522032D01*
X136446063Y-104639774D01*
X136590226Y-104783937D01*
X136759744Y-104897205D01*
X136948102Y-104975226D01*
X137148061Y-105015000D01*
X137351939Y-105015000D01*
X137551898Y-104975226D01*
X137740256Y-104897205D01*
X137880072Y-104803783D01*
X137880226Y-104803937D01*
X138049744Y-104917205D01*
X138238102Y-104995226D01*
X138438061Y-105035000D01*
X138641939Y-105035000D01*
X138841898Y-104995226D01*
X139030256Y-104917205D01*
X139199774Y-104803937D01*
X139343937Y-104659774D01*
X139457205Y-104490256D01*
X139535226Y-104301898D01*
X139575000Y-104101939D01*
X139575000Y-103898061D01*
X139535226Y-103698102D01*
X139457205Y-103509744D01*
X139440672Y-103485000D01*
X141759374Y-103485000D01*
X141722795Y-103539744D01*
X141644774Y-103728102D01*
X141605000Y-103928061D01*
X141605000Y-104131939D01*
X141644774Y-104331898D01*
X141722795Y-104520256D01*
X141836063Y-104689774D01*
X141980226Y-104833937D01*
X142149744Y-104947205D01*
X142338102Y-105025226D01*
X142538061Y-105065000D01*
X142741939Y-105065000D01*
X142941898Y-105025226D01*
X143130256Y-104947205D01*
X143299774Y-104833937D01*
X143443937Y-104689774D01*
X143557205Y-104520256D01*
X143635226Y-104331898D01*
X143675000Y-104131939D01*
X143675000Y-103928061D01*
X143635226Y-103728102D01*
X143557205Y-103539744D01*
X143520626Y-103485000D01*
X146241289Y-103485000D01*
X146186063Y-103540226D01*
X146072795Y-103709744D01*
X145994774Y-103898102D01*
X145955000Y-104098061D01*
X145955000Y-104301939D01*
X145994774Y-104501898D01*
X146072795Y-104690256D01*
X146186063Y-104859774D01*
X146330226Y-105003937D01*
X146499744Y-105117205D01*
X146688102Y-105195226D01*
X146888061Y-105235000D01*
X146981623Y-105235000D01*
X147012795Y-105310256D01*
X147126063Y-105479774D01*
X147270226Y-105623937D01*
X147439744Y-105737205D01*
X147628102Y-105815226D01*
X147828061Y-105855000D01*
X148031939Y-105855000D01*
X148231898Y-105815226D01*
X148420256Y-105737205D01*
X148589774Y-105623937D01*
X148608711Y-105605000D01*
X150031447Y-105605000D01*
X150070000Y-105608797D01*
X150108553Y-105605000D01*
X150108561Y-105605000D01*
X150223887Y-105593641D01*
X150371860Y-105548754D01*
X150508233Y-105475862D01*
X150627764Y-105377764D01*
X150652347Y-105347811D01*
X150907163Y-105092994D01*
X150933468Y-105125046D01*
X150933471Y-105125049D01*
X150961184Y-105158817D01*
X150964807Y-105161790D01*
X150974774Y-105211898D01*
X151052795Y-105400256D01*
X151166063Y-105569774D01*
X151310226Y-105713937D01*
X151479744Y-105827205D01*
X151668102Y-105905226D01*
X151868061Y-105945000D01*
X152071939Y-105945000D01*
X152271898Y-105905226D01*
X152460256Y-105827205D01*
X152629774Y-105713937D01*
X152773937Y-105569774D01*
X152887205Y-105400256D01*
X152965226Y-105211898D01*
X153005000Y-105011939D01*
X153005000Y-104808061D01*
X152965226Y-104608102D01*
X152887205Y-104419744D01*
X152773937Y-104250226D01*
X152629774Y-104106063D01*
X152475000Y-104002647D01*
X152475000Y-102803031D01*
X152483490Y-102802195D01*
X152650313Y-102751589D01*
X152699621Y-102725234D01*
X152736063Y-102779774D01*
X152880226Y-102923937D01*
X153049744Y-103037205D01*
X153238102Y-103115226D01*
X153438061Y-103155000D01*
X153475000Y-103155000D01*
X153475000Y-103695752D01*
X153491423Y-103862499D01*
X153556324Y-104076447D01*
X153661717Y-104273623D01*
X153803552Y-104446449D01*
X153976378Y-104588284D01*
X154173554Y-104693676D01*
X154387502Y-104758577D01*
X154610000Y-104780491D01*
X154832499Y-104758577D01*
X155046447Y-104693676D01*
X155243623Y-104588284D01*
X155416449Y-104446449D01*
X155463362Y-104389285D01*
X155585269Y-104470741D01*
X155759978Y-104543108D01*
X155945448Y-104580000D01*
X156134552Y-104580000D01*
X156320022Y-104543108D01*
X156494731Y-104470741D01*
X156651964Y-104365681D01*
X156785681Y-104231964D01*
X156890741Y-104074731D01*
X156963108Y-103900022D01*
X157000000Y-103714552D01*
X157000000Y-103525448D01*
X156963108Y-103339978D01*
X156890741Y-103165269D01*
X156785681Y-103008036D01*
X156651964Y-102874319D01*
X156494731Y-102769259D01*
X156320022Y-102696892D01*
X156134552Y-102660000D01*
X155945448Y-102660000D01*
X155759978Y-102696892D01*
X155745000Y-102703096D01*
X155745000Y-102484248D01*
X155728577Y-102317501D01*
X155663676Y-102103553D01*
X155558284Y-101906377D01*
X155466863Y-101794980D01*
X155683402Y-101794980D01*
X159523470Y-105635049D01*
X159551183Y-105668817D01*
X159584951Y-105696530D01*
X159584953Y-105696532D01*
X159588253Y-105699240D01*
X159685941Y-105779411D01*
X159839687Y-105861589D01*
X160006510Y-105912195D01*
X160136523Y-105925000D01*
X160136533Y-105925000D01*
X160179999Y-105929281D01*
X160223465Y-105925000D01*
X162797321Y-105925000D01*
X162616377Y-106021716D01*
X162443551Y-106163551D01*
X162301716Y-106336377D01*
X162196324Y-106533554D01*
X162131423Y-106747502D01*
X162115000Y-106914249D01*
X162115000Y-107625752D01*
X162131423Y-107792499D01*
X162196324Y-108006447D01*
X162301717Y-108203623D01*
X162323364Y-108230000D01*
X155536637Y-108230000D01*
X155558284Y-108203623D01*
X155663676Y-108006446D01*
X155728577Y-107792498D01*
X155745000Y-107625751D01*
X155745000Y-106914248D01*
X155728577Y-106747501D01*
X155663676Y-106533553D01*
X155558284Y-106336377D01*
X155416449Y-106163551D01*
X155243623Y-106021716D01*
X155046446Y-105916324D01*
X154832498Y-105851423D01*
X154610000Y-105829509D01*
X154387501Y-105851423D01*
X154173553Y-105916324D01*
X153976377Y-106021716D01*
X153803551Y-106163551D01*
X153661716Y-106336377D01*
X153556324Y-106533554D01*
X153491423Y-106747502D01*
X153475000Y-106914249D01*
X153475000Y-107625752D01*
X153491423Y-107792499D01*
X153556324Y-108006447D01*
X153661717Y-108203623D01*
X153683364Y-108230000D01*
X153105595Y-108230000D01*
X153175226Y-108061898D01*
X153215000Y-107861939D01*
X153215000Y-107658061D01*
X153175226Y-107458102D01*
X153097205Y-107269744D01*
X152983937Y-107100226D01*
X152839774Y-106956063D01*
X152670256Y-106842795D01*
X152481898Y-106764774D01*
X152281939Y-106725000D01*
X152078061Y-106725000D01*
X151878102Y-106764774D01*
X151689744Y-106842795D01*
X151520226Y-106956063D01*
X151376063Y-107100226D01*
X151262795Y-107269744D01*
X151184774Y-107458102D01*
X151145000Y-107658061D01*
X151145000Y-107861939D01*
X151184774Y-108061898D01*
X151254405Y-108230000D01*
X144240903Y-108230000D01*
X144339774Y-108163937D01*
X144483937Y-108019774D01*
X144597205Y-107850256D01*
X144675226Y-107661898D01*
X144715000Y-107461939D01*
X144715000Y-107258061D01*
X144675226Y-107058102D01*
X144597205Y-106869744D01*
X144483937Y-106700226D01*
X144339774Y-106556063D01*
X144170256Y-106442795D01*
X143981898Y-106364774D01*
X143781939Y-106325000D01*
X143578061Y-106325000D01*
X143378102Y-106364774D01*
X143189744Y-106442795D01*
X143020226Y-106556063D01*
X142876063Y-106700226D01*
X142762795Y-106869744D01*
X142684774Y-107058102D01*
X142645000Y-107258061D01*
X142645000Y-107461939D01*
X142684774Y-107661898D01*
X142762795Y-107850256D01*
X142876063Y-108019774D01*
X143020226Y-108163937D01*
X143119097Y-108230000D01*
X140813711Y-108230000D01*
X140913937Y-108129774D01*
X141027205Y-107960256D01*
X141105226Y-107771898D01*
X141145000Y-107571939D01*
X141145000Y-107368061D01*
X141105226Y-107168102D01*
X141027205Y-106979744D01*
X140913937Y-106810226D01*
X140769774Y-106666063D01*
X140600256Y-106552795D01*
X140411898Y-106474774D01*
X140211939Y-106435000D01*
X140008061Y-106435000D01*
X139808102Y-106474774D01*
X139619744Y-106552795D01*
X139450226Y-106666063D01*
X139306063Y-106810226D01*
X139192795Y-106979744D01*
X139114774Y-107168102D01*
X139075000Y-107368061D01*
X139075000Y-107571939D01*
X139114774Y-107771898D01*
X139192795Y-107960256D01*
X139306063Y-108129774D01*
X139406289Y-108230000D01*
X138193711Y-108230000D01*
X138303937Y-108119774D01*
X138417205Y-107950256D01*
X138495226Y-107761898D01*
X138535000Y-107561939D01*
X138535000Y-107358061D01*
X138495226Y-107158102D01*
X138417205Y-106969744D01*
X138303937Y-106800226D01*
X138159774Y-106656063D01*
X137990256Y-106542795D01*
X137801898Y-106464774D01*
X137601939Y-106425000D01*
X137398061Y-106425000D01*
X137198102Y-106464774D01*
X137009744Y-106542795D01*
X136840226Y-106656063D01*
X136696063Y-106800226D01*
X136582795Y-106969744D01*
X136504774Y-107158102D01*
X136465000Y-107358061D01*
X136465000Y-107561939D01*
X136504774Y-107761898D01*
X136582795Y-107950256D01*
X136696063Y-108119774D01*
X136806289Y-108230000D01*
X135743711Y-108230000D01*
X135853937Y-108119774D01*
X135967205Y-107950256D01*
X136045226Y-107761898D01*
X136085000Y-107561939D01*
X136085000Y-107358061D01*
X136045226Y-107158102D01*
X135967205Y-106969744D01*
X135853937Y-106800226D01*
X135709774Y-106656063D01*
X135540256Y-106542795D01*
X135351898Y-106464774D01*
X135151939Y-106425000D01*
X134948061Y-106425000D01*
X134748102Y-106464774D01*
X134559744Y-106542795D01*
X134390226Y-106656063D01*
X134246063Y-106800226D01*
X134132795Y-106969744D01*
X134054774Y-107158102D01*
X134015000Y-107358061D01*
X134015000Y-107561939D01*
X134054774Y-107761898D01*
X134132795Y-107950256D01*
X134246063Y-108119774D01*
X134356289Y-108230000D01*
X123921478Y-108230000D01*
X124013400Y-108008081D01*
X124061894Y-107764286D01*
X124061894Y-107515714D01*
X124013400Y-107271919D01*
X123918276Y-107042269D01*
X123780177Y-106835589D01*
X123604411Y-106659823D01*
X123397731Y-106521724D01*
X123168081Y-106426600D01*
X122924286Y-106378106D01*
X122675714Y-106378106D01*
X122431919Y-106426600D01*
X122202269Y-106521724D01*
X121995589Y-106659823D01*
X121819823Y-106835589D01*
X121681724Y-107042269D01*
X121586600Y-107271919D01*
X121538106Y-107515714D01*
X121538106Y-107764286D01*
X121586600Y-108008081D01*
X121678522Y-108230000D01*
X119102279Y-108230000D01*
X118616106Y-108182330D01*
X118179503Y-108050512D01*
X117776814Y-107836399D01*
X117423387Y-107548150D01*
X117132673Y-107196739D01*
X116915760Y-106795564D01*
X116780894Y-106359886D01*
X116730000Y-105875664D01*
X116730000Y-105189033D01*
X117529545Y-105189033D01*
X117529545Y-105590967D01*
X117607958Y-105985179D01*
X117761772Y-106356518D01*
X117985075Y-106690714D01*
X118269286Y-106974925D01*
X118603482Y-107198228D01*
X118974821Y-107352042D01*
X119369033Y-107430455D01*
X119770967Y-107430455D01*
X120165179Y-107352042D01*
X120536518Y-107198228D01*
X120870714Y-106974925D01*
X121154925Y-106690714D01*
X121378228Y-106356518D01*
X121532042Y-105985179D01*
X121610455Y-105590967D01*
X121610455Y-105189033D01*
X121532042Y-104794821D01*
X121378228Y-104423482D01*
X121154925Y-104089286D01*
X120870714Y-103805075D01*
X120536518Y-103581772D01*
X120165179Y-103427958D01*
X119770967Y-103349545D01*
X119369033Y-103349545D01*
X118974821Y-103427958D01*
X118603482Y-103581772D01*
X118269286Y-103805075D01*
X117985075Y-104089286D01*
X117761772Y-104423482D01*
X117607958Y-104794821D01*
X117529545Y-105189033D01*
X116730000Y-105189033D01*
X116730000Y-98845000D01*
X116904476Y-98845000D01*
X117099606Y-98806186D01*
X117283414Y-98730050D01*
X117448837Y-98619518D01*
X117589518Y-98478837D01*
X117700050Y-98313414D01*
X117776186Y-98129606D01*
X117815000Y-97934476D01*
X117815000Y-97735524D01*
X117776186Y-97540394D01*
X117700050Y-97356586D01*
X117589518Y-97191163D01*
X117448837Y-97050482D01*
X117283414Y-96939950D01*
X117099606Y-96863814D01*
X116904476Y-96825000D01*
X116730000Y-96825000D01*
X116730000Y-96128061D01*
X118005000Y-96128061D01*
X118005000Y-96331939D01*
X118044774Y-96531898D01*
X118122795Y-96720256D01*
X118236063Y-96889774D01*
X118380226Y-97033937D01*
X118549744Y-97147205D01*
X118738102Y-97225226D01*
X118746593Y-97226915D01*
X118659950Y-97356586D01*
X118583814Y-97540394D01*
X118545000Y-97735524D01*
X118545000Y-97934476D01*
X118583814Y-98129606D01*
X118659950Y-98313414D01*
X118753664Y-98453668D01*
X118748102Y-98454774D01*
X118559744Y-98532795D01*
X118390226Y-98646063D01*
X118246063Y-98790226D01*
X118132795Y-98959744D01*
X118054774Y-99148102D01*
X118015000Y-99348061D01*
X118015000Y-99551939D01*
X118054774Y-99751898D01*
X118132795Y-99940256D01*
X118246063Y-100109774D01*
X118390226Y-100253937D01*
X118559744Y-100367205D01*
X118748102Y-100445226D01*
X118948061Y-100485000D01*
X119151939Y-100485000D01*
X119351898Y-100445226D01*
X119540256Y-100367205D01*
X119709774Y-100253937D01*
X119853937Y-100109774D01*
X119967205Y-99940256D01*
X120045226Y-99751898D01*
X120085000Y-99551939D01*
X120085000Y-99348061D01*
X120045226Y-99148102D01*
X119967205Y-98959744D01*
X119861351Y-98801321D01*
X120033414Y-98730050D01*
X120198837Y-98619518D01*
X120339518Y-98478837D01*
X120450050Y-98313414D01*
X120526186Y-98129606D01*
X120565000Y-97934476D01*
X120565000Y-97735524D01*
X120526186Y-97540394D01*
X120450050Y-97356586D01*
X120339518Y-97191163D01*
X120198837Y-97050482D01*
X120033414Y-96939950D01*
X119858752Y-96867602D01*
X119957205Y-96720256D01*
X120035226Y-96531898D01*
X120075000Y-96331939D01*
X120075000Y-96128061D01*
X120035226Y-95928102D01*
X119957205Y-95739744D01*
X119843937Y-95570226D01*
X119699774Y-95426063D01*
X119530256Y-95312795D01*
X119341898Y-95234774D01*
X119141939Y-95195000D01*
X118938061Y-95195000D01*
X118738102Y-95234774D01*
X118549744Y-95312795D01*
X118380226Y-95426063D01*
X118236063Y-95570226D01*
X118122795Y-95739744D01*
X118044774Y-95928102D01*
X118005000Y-96128061D01*
X116730000Y-96128061D01*
X116730000Y-90910000D01*
X116904476Y-90910000D01*
X117099606Y-90871186D01*
X117283414Y-90795050D01*
X117448837Y-90684518D01*
X117589518Y-90543837D01*
X117700050Y-90378414D01*
X117776186Y-90194606D01*
X117815000Y-89999476D01*
X117815000Y-89800524D01*
X117776186Y-89605394D01*
X117700050Y-89421586D01*
X117589518Y-89256163D01*
X117448837Y-89115482D01*
X117283414Y-89004950D01*
X117099606Y-88928814D01*
X116904476Y-88890000D01*
X116730000Y-88890000D01*
X116730000Y-88188061D01*
X118005000Y-88188061D01*
X118005000Y-88391939D01*
X118044774Y-88591898D01*
X118122795Y-88780256D01*
X118236063Y-88949774D01*
X118380226Y-89093937D01*
X118549744Y-89207205D01*
X118738102Y-89285226D01*
X118749542Y-89287502D01*
X118659950Y-89421586D01*
X118583814Y-89605394D01*
X118545000Y-89800524D01*
X118545000Y-89999476D01*
X118583814Y-90194606D01*
X118659950Y-90378414D01*
X118762511Y-90531908D01*
X118748102Y-90534774D01*
X118559744Y-90612795D01*
X118390226Y-90726063D01*
X118246063Y-90870226D01*
X118132795Y-91039744D01*
X118054774Y-91228102D01*
X118015000Y-91428061D01*
X118015000Y-91631939D01*
X118054774Y-91831898D01*
X118132795Y-92020256D01*
X118246063Y-92189774D01*
X118390226Y-92333937D01*
X118559744Y-92447205D01*
X118748102Y-92525226D01*
X118948061Y-92565000D01*
X119151939Y-92565000D01*
X119351898Y-92525226D01*
X119540256Y-92447205D01*
X119709774Y-92333937D01*
X119853937Y-92189774D01*
X119967205Y-92020256D01*
X120045226Y-91831898D01*
X120085000Y-91631939D01*
X120085000Y-91428061D01*
X120045226Y-91228102D01*
X119967205Y-91039744D01*
X119853937Y-90870226D01*
X119853347Y-90869636D01*
X120033414Y-90795050D01*
X120198837Y-90684518D01*
X120339518Y-90543837D01*
X120450050Y-90378414D01*
X120526186Y-90194606D01*
X120565000Y-89999476D01*
X120565000Y-89800524D01*
X120526186Y-89605394D01*
X120450050Y-89421586D01*
X120339518Y-89256163D01*
X120198837Y-89115482D01*
X120033414Y-89004950D01*
X119856135Y-88931518D01*
X119957205Y-88780256D01*
X120035226Y-88591898D01*
X120075000Y-88391939D01*
X120075000Y-88188061D01*
X120035226Y-87988102D01*
X119957205Y-87799744D01*
X119843937Y-87630226D01*
X119699774Y-87486063D01*
X119530256Y-87372795D01*
X119341898Y-87294774D01*
X119141939Y-87255000D01*
X118938061Y-87255000D01*
X118738102Y-87294774D01*
X118549744Y-87372795D01*
X118380226Y-87486063D01*
X118236063Y-87630226D01*
X118122795Y-87799744D01*
X118044774Y-87988102D01*
X118005000Y-88188061D01*
X116730000Y-88188061D01*
X116730000Y-82189033D01*
X117529545Y-82189033D01*
X117529545Y-82590967D01*
X117607958Y-82985179D01*
X117761772Y-83356518D01*
X117985075Y-83690714D01*
X118269286Y-83974925D01*
X118603482Y-84198228D01*
X118974821Y-84352042D01*
X119369033Y-84430455D01*
X119770967Y-84430455D01*
X120165179Y-84352042D01*
X120536518Y-84198228D01*
X120870714Y-83974925D01*
X121154925Y-83690714D01*
X121378228Y-83356518D01*
X121532042Y-82985179D01*
X121610455Y-82590967D01*
X121610455Y-82189033D01*
X121532042Y-81794821D01*
X121378228Y-81423482D01*
X121154925Y-81089286D01*
X120870714Y-80805075D01*
X120536518Y-80581772D01*
X120165179Y-80427958D01*
X119770967Y-80349545D01*
X119369033Y-80349545D01*
X118974821Y-80427958D01*
X118603482Y-80581772D01*
X118269286Y-80805075D01*
X117985075Y-81089286D01*
X117761772Y-81423482D01*
X117607958Y-81794821D01*
X117529545Y-82189033D01*
X116730000Y-82189033D01*
X116730000Y-81922279D01*
X116777670Y-81436107D01*
X116909489Y-80999502D01*
X117123600Y-80596815D01*
X117411848Y-80243388D01*
X117763261Y-79952673D01*
X118164439Y-79735758D01*
X118600113Y-79600894D01*
X119084344Y-79550000D01*
X178037721Y-79550000D01*
X178523893Y-79597670D01*
%TA.AperFunction,Conductor*%
D20*
G36*
X178523893Y-79597670D02*
G01*
X178960498Y-79729489D01*
X179363185Y-79943600D01*
X179716612Y-80231848D01*
X180007327Y-80583261D01*
X180224242Y-80984439D01*
X180359106Y-81420113D01*
X180410000Y-81904344D01*
X180410000Y-84446694D01*
X180327731Y-84391724D01*
X180098081Y-84296600D01*
X179854286Y-84248106D01*
X179605714Y-84248106D01*
X179361919Y-84296600D01*
X179132269Y-84391724D01*
X178925589Y-84529823D01*
X178749823Y-84705589D01*
X178611724Y-84912269D01*
X178516600Y-85141919D01*
X178468106Y-85385714D01*
X178468106Y-85634286D01*
X178516600Y-85878081D01*
X178611724Y-86107731D01*
X178749823Y-86314411D01*
X178925589Y-86490177D01*
X179132269Y-86628276D01*
X179361919Y-86723400D01*
X179605714Y-86771894D01*
X179854286Y-86771894D01*
X180098081Y-86723400D01*
X180327731Y-86628276D01*
X180410000Y-86573306D01*
X180410001Y-105857711D01*
X180362330Y-106343894D01*
X180230512Y-106780497D01*
X180016399Y-107183186D01*
X179728150Y-107536613D01*
X179376739Y-107827327D01*
X178975564Y-108044240D01*
X178539886Y-108179106D01*
X178055664Y-108230000D01*
X164176637Y-108230000D01*
X164198284Y-108203623D01*
X164303676Y-108006446D01*
X164368577Y-107792498D01*
X164385000Y-107625751D01*
X164385000Y-106914248D01*
X164368577Y-106747501D01*
X164303676Y-106533553D01*
X164198284Y-106336377D01*
X164056449Y-106163551D01*
X163883623Y-106021716D01*
X163702678Y-105925000D01*
X168276531Y-105925000D01*
X168320000Y-105929281D01*
X168363469Y-105925000D01*
X168363477Y-105925000D01*
X168493490Y-105912195D01*
X168660313Y-105861589D01*
X168814059Y-105779411D01*
X168948817Y-105668817D01*
X168976534Y-105635044D01*
X169422545Y-105189033D01*
X175529545Y-105189033D01*
X175529545Y-105590967D01*
X175607958Y-105985179D01*
X175761772Y-106356518D01*
X175985075Y-106690714D01*
X176269286Y-106974925D01*
X176603482Y-107198228D01*
X176974821Y-107352042D01*
X177369033Y-107430455D01*
X177770967Y-107430455D01*
X178165179Y-107352042D01*
X178536518Y-107198228D01*
X178870714Y-106974925D01*
X179154925Y-106690714D01*
X179378228Y-106356518D01*
X179532042Y-105985179D01*
X179610455Y-105590967D01*
X179610455Y-105189033D01*
X179532042Y-104794821D01*
X179378228Y-104423482D01*
X179154925Y-104089286D01*
X178870714Y-103805075D01*
X178536518Y-103581772D01*
X178165179Y-103427958D01*
X177770967Y-103349545D01*
X177369033Y-103349545D01*
X176974821Y-103427958D01*
X176603482Y-103581772D01*
X176269286Y-103805075D01*
X175985075Y-104089286D01*
X175761772Y-104423482D01*
X175607958Y-104794821D01*
X175529545Y-105189033D01*
X169422545Y-105189033D01*
X171595044Y-103016535D01*
X171651898Y-103005226D01*
X171840256Y-102927205D01*
X171888454Y-102895000D01*
X172206531Y-102895000D01*
X172250000Y-102899281D01*
X172293469Y-102895000D01*
X172293477Y-102895000D01*
X172423490Y-102882195D01*
X172590313Y-102831589D01*
X172744059Y-102749411D01*
X172878817Y-102638817D01*
X172906534Y-102605044D01*
X173976579Y-101535000D01*
X175699424Y-101535000D01*
X175665000Y-101708061D01*
X175665000Y-101911939D01*
X175704774Y-102111898D01*
X175782795Y-102300256D01*
X175896063Y-102469774D01*
X176040226Y-102613937D01*
X176209744Y-102727205D01*
X176398102Y-102805226D01*
X176598061Y-102845000D01*
X176801939Y-102845000D01*
X177001898Y-102805226D01*
X177190256Y-102727205D01*
X177359774Y-102613937D01*
X177503937Y-102469774D01*
X177617205Y-102300256D01*
X177695226Y-102111898D01*
X177735000Y-101911939D01*
X177735000Y-101708061D01*
X177700576Y-101535000D01*
X178346531Y-101535000D01*
X178390000Y-101539281D01*
X178433469Y-101535000D01*
X178433477Y-101535000D01*
X178563490Y-101522195D01*
X178730313Y-101471589D01*
X178884059Y-101389411D01*
X179018817Y-101278817D01*
X179046534Y-101245044D01*
X179725050Y-100566529D01*
X179758817Y-100538817D01*
X179809952Y-100476510D01*
X179869410Y-100404060D01*
X179869411Y-100404059D01*
X179951589Y-100250313D01*
X180002195Y-100083490D01*
X180015000Y-99953477D01*
X180015000Y-99953467D01*
X180019281Y-99910001D01*
X180015000Y-99866534D01*
X180015000Y-96353469D01*
X180019281Y-96310000D01*
X180015000Y-96266531D01*
X180015000Y-96266523D01*
X180002195Y-96136510D01*
X179951589Y-95969687D01*
X179869411Y-95815941D01*
X179758817Y-95681183D01*
X179725044Y-95653466D01*
X179446534Y-95374956D01*
X179418817Y-95341183D01*
X179284059Y-95230589D01*
X179130313Y-95148411D01*
X178963490Y-95097805D01*
X178833477Y-95085000D01*
X178833469Y-95085000D01*
X178790000Y-95080719D01*
X178746531Y-95085000D01*
X178518454Y-95085000D01*
X178470256Y-95052795D01*
X178281898Y-94974774D01*
X178081939Y-94935000D01*
X177878061Y-94935000D01*
X177678102Y-94974774D01*
X177489744Y-95052795D01*
X177320226Y-95166063D01*
X177176063Y-95310226D01*
X177062795Y-95479744D01*
X176984774Y-95668102D01*
X176945000Y-95868061D01*
X176945000Y-96071939D01*
X176984774Y-96271898D01*
X177062795Y-96460256D01*
X177176063Y-96629774D01*
X177320226Y-96773937D01*
X177489744Y-96887205D01*
X177678102Y-96965226D01*
X177878061Y-97005000D01*
X178081939Y-97005000D01*
X178245001Y-96972565D01*
X178245000Y-98746094D01*
X178150266Y-98682795D01*
X177961908Y-98604774D01*
X177761949Y-98565000D01*
X177558071Y-98565000D01*
X177358112Y-98604774D01*
X177169754Y-98682795D01*
X177000236Y-98796063D01*
X176856073Y-98940226D01*
X176742805Y-99109744D01*
X176664784Y-99298102D01*
X176625010Y-99498061D01*
X176625010Y-99701939D01*
X176637554Y-99765000D01*
X173653465Y-99765000D01*
X173609999Y-99760719D01*
X173566533Y-99765000D01*
X173566523Y-99765000D01*
X173436510Y-99777805D01*
X173269687Y-99828411D01*
X173115941Y-99910589D01*
X173115939Y-99910590D01*
X173115940Y-99910590D01*
X173014953Y-99993468D01*
X173014951Y-99993470D01*
X172981183Y-100021183D01*
X172953470Y-100054951D01*
X171885438Y-101122984D01*
X171840256Y-101092795D01*
X171651898Y-101014774D01*
X171451939Y-100975000D01*
X171248061Y-100975000D01*
X171048102Y-101014774D01*
X170859744Y-101092795D01*
X170690226Y-101206063D01*
X170546063Y-101350226D01*
X170432795Y-101519744D01*
X170354774Y-101708102D01*
X170343465Y-101764956D01*
X167953422Y-104155000D01*
X164261689Y-104155000D01*
X164303676Y-104076447D01*
X164368577Y-103862499D01*
X164385000Y-103695752D01*
X164385000Y-102484248D01*
X164368577Y-102317501D01*
X164303676Y-102103553D01*
X164257980Y-102018061D01*
X164475000Y-102018061D01*
X164475000Y-102221939D01*
X164514774Y-102421898D01*
X164592795Y-102610256D01*
X164706063Y-102779774D01*
X164850226Y-102923937D01*
X165019744Y-103037205D01*
X165208102Y-103115226D01*
X165408061Y-103155000D01*
X165611939Y-103155000D01*
X165811898Y-103115226D01*
X166000256Y-103037205D01*
X166169774Y-102923937D01*
X166313937Y-102779774D01*
X166427205Y-102610256D01*
X166505226Y-102421898D01*
X166545000Y-102221939D01*
X166545000Y-102018061D01*
X166505226Y-101818102D01*
X166427205Y-101629744D01*
X166313937Y-101460226D01*
X166169774Y-101316063D01*
X166000256Y-101202795D01*
X165811898Y-101124774D01*
X165611939Y-101085000D01*
X165408061Y-101085000D01*
X165208102Y-101124774D01*
X165019744Y-101202795D01*
X164850226Y-101316063D01*
X164706063Y-101460226D01*
X164592795Y-101629744D01*
X164514774Y-101818102D01*
X164475000Y-102018061D01*
X164257980Y-102018061D01*
X164198284Y-101906377D01*
X164056449Y-101733551D01*
X163883623Y-101591716D01*
X163686446Y-101486324D01*
X163472498Y-101421423D01*
X163355530Y-101409903D01*
X163326652Y-101340186D01*
X163213384Y-101170668D01*
X163069221Y-101026505D01*
X162899703Y-100913237D01*
X162711345Y-100835216D01*
X162511386Y-100795442D01*
X162307508Y-100795442D01*
X162107549Y-100835216D01*
X161919191Y-100913237D01*
X161749673Y-101026505D01*
X161605510Y-101170668D01*
X161492242Y-101340186D01*
X161414221Y-101528544D01*
X161374447Y-101728503D01*
X161374447Y-101932381D01*
X161414221Y-102132340D01*
X161492242Y-102320698D01*
X161605510Y-102490216D01*
X161749673Y-102634379D01*
X161788018Y-102660000D01*
X161725448Y-102660000D01*
X161539978Y-102696892D01*
X161365269Y-102769259D01*
X161208036Y-102874319D01*
X161074319Y-103008036D01*
X160969259Y-103165269D01*
X160896892Y-103339978D01*
X160860000Y-103525448D01*
X160860000Y-103714552D01*
X160896892Y-103900022D01*
X160969259Y-104074731D01*
X161022893Y-104155000D01*
X160546579Y-104155000D01*
X156706514Y-100314936D01*
X156678797Y-100281163D01*
X156544039Y-100170569D01*
X156390293Y-100088391D01*
X156223470Y-100037785D01*
X156093457Y-100024980D01*
X156093449Y-100024980D01*
X156049980Y-100020699D01*
X156006511Y-100024980D01*
X155675000Y-100024980D01*
X155675000Y-99998051D01*
X159575000Y-99998051D01*
X159575000Y-100201929D01*
X159614774Y-100401888D01*
X159692795Y-100590246D01*
X159806063Y-100759764D01*
X159950226Y-100903927D01*
X160119744Y-101017195D01*
X160308102Y-101095216D01*
X160508061Y-101134990D01*
X160711939Y-101134990D01*
X160911898Y-101095216D01*
X161100256Y-101017195D01*
X161269774Y-100903927D01*
X161413937Y-100759764D01*
X161527205Y-100590246D01*
X161605226Y-100401888D01*
X161645000Y-100201929D01*
X161645000Y-99998051D01*
X161605226Y-99798092D01*
X161527205Y-99609734D01*
X161413937Y-99440216D01*
X161269774Y-99296053D01*
X161100256Y-99182785D01*
X160911898Y-99104764D01*
X160711939Y-99064990D01*
X160508061Y-99064990D01*
X160308102Y-99104764D01*
X160119744Y-99182785D01*
X159950226Y-99296053D01*
X159806063Y-99440216D01*
X159692795Y-99609734D01*
X159614774Y-99798092D01*
X159575000Y-99998051D01*
X155675000Y-99998051D01*
X155675000Y-99958040D01*
X155635226Y-99758081D01*
X155557205Y-99569723D01*
X155443937Y-99400205D01*
X155299774Y-99256042D01*
X155130256Y-99142774D01*
X154941898Y-99064753D01*
X154741939Y-99024979D01*
X154538061Y-99024979D01*
X154338102Y-99064753D01*
X154149744Y-99142774D01*
X153980226Y-99256042D01*
X153836063Y-99400205D01*
X153722795Y-99569723D01*
X153644774Y-99758081D01*
X153605000Y-99958040D01*
X153605000Y-100024980D01*
X153595000Y-100024980D01*
X153595000Y-99998051D01*
X153555226Y-99798092D01*
X153477205Y-99609734D01*
X153363937Y-99440216D01*
X153219774Y-99296053D01*
X153050256Y-99182785D01*
X152861898Y-99104764D01*
X152661939Y-99064990D01*
X152458061Y-99064990D01*
X152258102Y-99104764D01*
X152069744Y-99182785D01*
X152021546Y-99214990D01*
X138353571Y-99214990D01*
X138519774Y-99103937D01*
X138663937Y-98959774D01*
X138777205Y-98790256D01*
X138855226Y-98601898D01*
X138855986Y-98598075D01*
X139018102Y-98665226D01*
X139218061Y-98705000D01*
X139421939Y-98705000D01*
X139621898Y-98665226D01*
X139810256Y-98587205D01*
X139979774Y-98473937D01*
X140123937Y-98329774D01*
X140237205Y-98160256D01*
X140315226Y-97971898D01*
X140355000Y-97771939D01*
X140355000Y-97568061D01*
X140315226Y-97368102D01*
X140237205Y-97179744D01*
X140155900Y-97058061D01*
X150035000Y-97058061D01*
X150035000Y-97261939D01*
X150074774Y-97461898D01*
X150152795Y-97650256D01*
X150266063Y-97819774D01*
X150410226Y-97963937D01*
X150579744Y-98077205D01*
X150768102Y-98155226D01*
X150968061Y-98195000D01*
X151171939Y-98195000D01*
X151371898Y-98155226D01*
X151560256Y-98077205D01*
X151729774Y-97963937D01*
X151873937Y-97819774D01*
X151977115Y-97665357D01*
X152039744Y-97707205D01*
X152228102Y-97785226D01*
X152428061Y-97825000D01*
X152631939Y-97825000D01*
X152831898Y-97785226D01*
X153020256Y-97707205D01*
X153189774Y-97593937D01*
X153333937Y-97449774D01*
X153447205Y-97280256D01*
X153525226Y-97091898D01*
X153565000Y-96891939D01*
X153565000Y-96688061D01*
X153525226Y-96488102D01*
X153447205Y-96299744D01*
X153333937Y-96130226D01*
X153189774Y-95986063D01*
X153020256Y-95872795D01*
X152831898Y-95794774D01*
X152631939Y-95755000D01*
X152428061Y-95755000D01*
X152228102Y-95794774D01*
X152039744Y-95872795D01*
X151870226Y-95986063D01*
X151726063Y-96130226D01*
X151622885Y-96284643D01*
X151560256Y-96242795D01*
X151371898Y-96164774D01*
X151171939Y-96125000D01*
X150968061Y-96125000D01*
X150768102Y-96164774D01*
X150579744Y-96242795D01*
X150410226Y-96356063D01*
X150266063Y-96500226D01*
X150152795Y-96669744D01*
X150074774Y-96858102D01*
X150035000Y-97058061D01*
X140155900Y-97058061D01*
X140123937Y-97010226D01*
X139979774Y-96866063D01*
X139888319Y-96804955D01*
X139919774Y-96783937D01*
X140063937Y-96639774D01*
X140177205Y-96470256D01*
X140255226Y-96281898D01*
X140295000Y-96081939D01*
X140295000Y-95878061D01*
X140255226Y-95678102D01*
X140177205Y-95489744D01*
X140063937Y-95320226D01*
X139919774Y-95176063D01*
X139750256Y-95062795D01*
X139561898Y-94984774D01*
X139361939Y-94945000D01*
X139158061Y-94945000D01*
X138958102Y-94984774D01*
X138769744Y-95062795D01*
X138744461Y-95079688D01*
X138707205Y-94989744D01*
X138593937Y-94820226D01*
X138449774Y-94676063D01*
X138280256Y-94562795D01*
X138104579Y-94490027D01*
X138145226Y-94391898D01*
X138185000Y-94191939D01*
X138185000Y-93988061D01*
X138145226Y-93788102D01*
X138067205Y-93599744D01*
X138059399Y-93588061D01*
X139335000Y-93588061D01*
X139335000Y-93791939D01*
X139374774Y-93991898D01*
X139452795Y-94180256D01*
X139566063Y-94349774D01*
X139710226Y-94493937D01*
X139879744Y-94607205D01*
X140068102Y-94685226D01*
X140268061Y-94725000D01*
X140471939Y-94725000D01*
X140671898Y-94685226D01*
X140860256Y-94607205D01*
X141029774Y-94493937D01*
X141173937Y-94349774D01*
X141287205Y-94180256D01*
X141365226Y-93991898D01*
X141405000Y-93791939D01*
X141405000Y-93588061D01*
X141365226Y-93388102D01*
X141287205Y-93199744D01*
X141173937Y-93030226D01*
X141029774Y-92886063D01*
X140860256Y-92772795D01*
X140671898Y-92694774D01*
X140471939Y-92655000D01*
X140268061Y-92655000D01*
X140068102Y-92694774D01*
X139879744Y-92772795D01*
X139710226Y-92886063D01*
X139566063Y-93030226D01*
X139452795Y-93199744D01*
X139374774Y-93388102D01*
X139335000Y-93588061D01*
X138059399Y-93588061D01*
X137953937Y-93430226D01*
X137809774Y-93286063D01*
X137640256Y-93172795D01*
X137451898Y-93094774D01*
X137251939Y-93055000D01*
X137048061Y-93055000D01*
X136848102Y-93094774D01*
X136659744Y-93172795D01*
X136490226Y-93286063D01*
X136346063Y-93430226D01*
X136232795Y-93599744D01*
X136154774Y-93788102D01*
X136115000Y-93988061D01*
X136115000Y-94191939D01*
X136154774Y-94391898D01*
X136232795Y-94580256D01*
X136346063Y-94749774D01*
X136490226Y-94893937D01*
X136659744Y-95007205D01*
X136835421Y-95079973D01*
X136794774Y-95178102D01*
X136793357Y-95185228D01*
X136741939Y-95175000D01*
X136538061Y-95175000D01*
X136338102Y-95214774D01*
X136149744Y-95292795D01*
X135980226Y-95406063D01*
X135836063Y-95550226D01*
X135722795Y-95719744D01*
X135644774Y-95908102D01*
X135605000Y-96108061D01*
X135605000Y-96311939D01*
X135644774Y-96511898D01*
X135722795Y-96700256D01*
X135836063Y-96869774D01*
X135980226Y-97013937D01*
X136149744Y-97127205D01*
X136338102Y-97205226D01*
X136538061Y-97245000D01*
X136741939Y-97245000D01*
X136815000Y-97230467D01*
X136815000Y-97241939D01*
X136840110Y-97368175D01*
X136831898Y-97364774D01*
X136631939Y-97325000D01*
X136428061Y-97325000D01*
X136228102Y-97364774D01*
X136039744Y-97442795D01*
X135870226Y-97556063D01*
X135726063Y-97700226D01*
X135612795Y-97869744D01*
X135534774Y-98058102D01*
X135495000Y-98258061D01*
X135495000Y-98461939D01*
X135534774Y-98661898D01*
X135612795Y-98850256D01*
X135726063Y-99019774D01*
X135870226Y-99163937D01*
X135946632Y-99214990D01*
X132858266Y-99214990D01*
X132889774Y-99193937D01*
X133033937Y-99049774D01*
X133147205Y-98880256D01*
X133225226Y-98691898D01*
X133265000Y-98491939D01*
X133265000Y-98288061D01*
X133225226Y-98088102D01*
X133147205Y-97899744D01*
X133033937Y-97730226D01*
X132889774Y-97586063D01*
X132720256Y-97472795D01*
X132531898Y-97394774D01*
X132331939Y-97355000D01*
X132128061Y-97355000D01*
X131934867Y-97393428D01*
X131965000Y-97241939D01*
X131965000Y-97038061D01*
X131925226Y-96838102D01*
X131847205Y-96649744D01*
X131733937Y-96480226D01*
X131589774Y-96336063D01*
X131420256Y-96222795D01*
X131231898Y-96144774D01*
X131031939Y-96105000D01*
X130828061Y-96105000D01*
X130628102Y-96144774D01*
X130439744Y-96222795D01*
X130270226Y-96336063D01*
X130126063Y-96480226D01*
X130012795Y-96649744D01*
X129934774Y-96838102D01*
X129895000Y-97038061D01*
X129895000Y-97241939D01*
X129932613Y-97431035D01*
X129137330Y-96635751D01*
X129259774Y-96553937D01*
X129403937Y-96409774D01*
X129517205Y-96240256D01*
X129595226Y-96051898D01*
X129635000Y-95851939D01*
X129635000Y-95648061D01*
X129595226Y-95448102D01*
X129517205Y-95259744D01*
X129403937Y-95090226D01*
X129259774Y-94946063D01*
X129090256Y-94832795D01*
X128901898Y-94754774D01*
X128830025Y-94740478D01*
X128830025Y-94683036D01*
X128829036Y-94678061D01*
X129415000Y-94678061D01*
X129415000Y-94881939D01*
X129454774Y-95081898D01*
X129532795Y-95270256D01*
X129646063Y-95439774D01*
X129790226Y-95583937D01*
X129959744Y-95697205D01*
X130148102Y-95775226D01*
X130348061Y-95815000D01*
X130551939Y-95815000D01*
X130751898Y-95775226D01*
X130940256Y-95697205D01*
X131109774Y-95583937D01*
X131253937Y-95439774D01*
X131367205Y-95270256D01*
X131445226Y-95081898D01*
X131485000Y-94881939D01*
X131485000Y-94678061D01*
X131445226Y-94478102D01*
X131432783Y-94448061D01*
X131615000Y-94448061D01*
X131615000Y-94651939D01*
X131654774Y-94851898D01*
X131732795Y-95040256D01*
X131846063Y-95209774D01*
X131990226Y-95353937D01*
X132159744Y-95467205D01*
X132348102Y-95545226D01*
X132548061Y-95585000D01*
X132751939Y-95585000D01*
X132794014Y-95576631D01*
X132832795Y-95670256D01*
X132946063Y-95839774D01*
X133090226Y-95983937D01*
X133259744Y-96097205D01*
X133448102Y-96175226D01*
X133648061Y-96215000D01*
X133851939Y-96215000D01*
X134051898Y-96175226D01*
X134240256Y-96097205D01*
X134409774Y-95983937D01*
X134553937Y-95839774D01*
X134667205Y-95670256D01*
X134697571Y-95596946D01*
X134738061Y-95605000D01*
X134941939Y-95605000D01*
X135141898Y-95565226D01*
X135330256Y-95487205D01*
X135499774Y-95373937D01*
X135643937Y-95229774D01*
X135757205Y-95060256D01*
X135835226Y-94871898D01*
X135875000Y-94671939D01*
X135875000Y-94468061D01*
X135835226Y-94268102D01*
X135757205Y-94079744D01*
X135643937Y-93910226D01*
X135499774Y-93766063D01*
X135330256Y-93652795D01*
X135141898Y-93574774D01*
X134941939Y-93535000D01*
X134738061Y-93535000D01*
X134538102Y-93574774D01*
X134349744Y-93652795D01*
X134180226Y-93766063D01*
X134036063Y-93910226D01*
X133922795Y-94079744D01*
X133892429Y-94153054D01*
X133851939Y-94145000D01*
X133648061Y-94145000D01*
X133605986Y-94153369D01*
X133567205Y-94059744D01*
X133453937Y-93890226D01*
X133309774Y-93746063D01*
X133140256Y-93632795D01*
X132951898Y-93554774D01*
X132751939Y-93515000D01*
X132548061Y-93515000D01*
X132348102Y-93554774D01*
X132159744Y-93632795D01*
X131990226Y-93746063D01*
X131846063Y-93890226D01*
X131732795Y-94059744D01*
X131654774Y-94248102D01*
X131615000Y-94448061D01*
X131432783Y-94448061D01*
X131367205Y-94289744D01*
X131253937Y-94120226D01*
X131109774Y-93976063D01*
X130940256Y-93862795D01*
X130751898Y-93784774D01*
X130551939Y-93745000D01*
X130348061Y-93745000D01*
X130148102Y-93784774D01*
X129959744Y-93862795D01*
X129790226Y-93976063D01*
X129646063Y-94120226D01*
X129532795Y-94289744D01*
X129454774Y-94478102D01*
X129415000Y-94678061D01*
X128829036Y-94678061D01*
X128790251Y-94483077D01*
X128712230Y-94294719D01*
X128598962Y-94125201D01*
X128454799Y-93981038D01*
X128285281Y-93867770D01*
X128096923Y-93789749D01*
X127896964Y-93749975D01*
X127805000Y-93749975D01*
X127805000Y-89487413D01*
X127922339Y-89487413D01*
X127884774Y-89578102D01*
X127845000Y-89778061D01*
X127845000Y-89981939D01*
X127884774Y-90181898D01*
X127962795Y-90370256D01*
X128076063Y-90539774D01*
X128220226Y-90683937D01*
X128353381Y-90772908D01*
X128316063Y-90810226D01*
X128202795Y-90979744D01*
X128124774Y-91168102D01*
X128085000Y-91368061D01*
X128085000Y-91571939D01*
X128124774Y-91771898D01*
X128202795Y-91960256D01*
X128316063Y-92129774D01*
X128460226Y-92273937D01*
X128629744Y-92387205D01*
X128818102Y-92465226D01*
X129018061Y-92505000D01*
X129221939Y-92505000D01*
X129421898Y-92465226D01*
X129511621Y-92428061D01*
X151575000Y-92428061D01*
X151575000Y-92631939D01*
X151614774Y-92831898D01*
X151692795Y-93020256D01*
X151806063Y-93189774D01*
X151950226Y-93333937D01*
X152119744Y-93447205D01*
X152308102Y-93525226D01*
X152508061Y-93565000D01*
X152711939Y-93565000D01*
X152911898Y-93525226D01*
X153100256Y-93447205D01*
X153269774Y-93333937D01*
X153413937Y-93189774D01*
X153527205Y-93020256D01*
X153605226Y-92831898D01*
X153645000Y-92631939D01*
X153645000Y-92428061D01*
X153605226Y-92228102D01*
X153527205Y-92039744D01*
X153413937Y-91870226D01*
X153269774Y-91726063D01*
X153100256Y-91612795D01*
X152911898Y-91534774D01*
X152711939Y-91495000D01*
X152508061Y-91495000D01*
X152308102Y-91534774D01*
X152119744Y-91612795D01*
X151950226Y-91726063D01*
X151806063Y-91870226D01*
X151692795Y-92039744D01*
X151614774Y-92228102D01*
X151575000Y-92428061D01*
X129511621Y-92428061D01*
X129610256Y-92387205D01*
X129779774Y-92273937D01*
X129923937Y-92129774D01*
X130037205Y-91960256D01*
X130115226Y-91771898D01*
X130155000Y-91571939D01*
X130155000Y-91368061D01*
X130115226Y-91168102D01*
X130037205Y-90979744D01*
X129923937Y-90810226D01*
X129779774Y-90666063D01*
X129646619Y-90577092D01*
X129683937Y-90539774D01*
X129797205Y-90370256D01*
X129868531Y-90198061D01*
X131685000Y-90198061D01*
X131685000Y-90401939D01*
X131724774Y-90601898D01*
X131802795Y-90790256D01*
X131916063Y-90959774D01*
X132060226Y-91103937D01*
X132229744Y-91217205D01*
X132418102Y-91295226D01*
X132618061Y-91335000D01*
X132821939Y-91335000D01*
X133021898Y-91295226D01*
X133210256Y-91217205D01*
X133379774Y-91103937D01*
X133523937Y-90959774D01*
X133637205Y-90790256D01*
X133715226Y-90601898D01*
X133755000Y-90401939D01*
X133755000Y-90198061D01*
X133715226Y-89998102D01*
X133637205Y-89809744D01*
X133602672Y-89758061D01*
X134885000Y-89758061D01*
X134885000Y-89961939D01*
X134924774Y-90161898D01*
X135002795Y-90350256D01*
X135116063Y-90519774D01*
X135260226Y-90663937D01*
X135429744Y-90777205D01*
X135618102Y-90855226D01*
X135818061Y-90895000D01*
X136021939Y-90895000D01*
X136221898Y-90855226D01*
X136410256Y-90777205D01*
X136515194Y-90707088D01*
X136515000Y-90708061D01*
X136515000Y-90911939D01*
X136554774Y-91111898D01*
X136632795Y-91300256D01*
X136746063Y-91469774D01*
X136890226Y-91613937D01*
X137059744Y-91727205D01*
X137248102Y-91805226D01*
X137448061Y-91845000D01*
X137651939Y-91845000D01*
X137851898Y-91805226D01*
X138040256Y-91727205D01*
X138209774Y-91613937D01*
X138353937Y-91469774D01*
X138467205Y-91300256D01*
X138545226Y-91111898D01*
X138585000Y-90911939D01*
X138585000Y-90708061D01*
X138545226Y-90508102D01*
X138467205Y-90319744D01*
X138435672Y-90272551D01*
X138437205Y-90270256D01*
X138515226Y-90081898D01*
X138555000Y-89881939D01*
X138555000Y-89678061D01*
X138515226Y-89478102D01*
X138437205Y-89289744D01*
X138323937Y-89120226D01*
X138179774Y-88976063D01*
X138010256Y-88862795D01*
X137821898Y-88784774D01*
X137621939Y-88745000D01*
X137418061Y-88745000D01*
X137218102Y-88784774D01*
X137029744Y-88862795D01*
X136860226Y-88976063D01*
X136716063Y-89120226D01*
X136687173Y-89163462D01*
X136579774Y-89056063D01*
X136410256Y-88942795D01*
X136221898Y-88864774D01*
X136021939Y-88825000D01*
X135818061Y-88825000D01*
X135618102Y-88864774D01*
X135429744Y-88942795D01*
X135260226Y-89056063D01*
X135116063Y-89200226D01*
X135002795Y-89369744D01*
X134924774Y-89558102D01*
X134885000Y-89758061D01*
X133602672Y-89758061D01*
X133523937Y-89640226D01*
X133379774Y-89496063D01*
X133210256Y-89382795D01*
X133021898Y-89304774D01*
X132821939Y-89265000D01*
X132618061Y-89265000D01*
X132418102Y-89304774D01*
X132229744Y-89382795D01*
X132060226Y-89496063D01*
X131916063Y-89640226D01*
X131802795Y-89809744D01*
X131724774Y-89998102D01*
X131685000Y-90198061D01*
X129868531Y-90198061D01*
X129875226Y-90181898D01*
X129915000Y-89981939D01*
X129915000Y-89778061D01*
X129875226Y-89578102D01*
X129797205Y-89389744D01*
X129683937Y-89220226D01*
X129539774Y-89076063D01*
X129370256Y-88962795D01*
X129181898Y-88884774D01*
X128981939Y-88845000D01*
X128847365Y-88845000D01*
X128884930Y-88754311D01*
X128924704Y-88554352D01*
X128924704Y-88350474D01*
X128884930Y-88150515D01*
X128830066Y-88018061D01*
X130485000Y-88018061D01*
X130485000Y-88221939D01*
X130524774Y-88421898D01*
X130602795Y-88610256D01*
X130716063Y-88779774D01*
X130860226Y-88923937D01*
X131029744Y-89037205D01*
X131218102Y-89115226D01*
X131418061Y-89155000D01*
X131621939Y-89155000D01*
X131821898Y-89115226D01*
X132010256Y-89037205D01*
X132179774Y-88923937D01*
X132323937Y-88779774D01*
X132437205Y-88610256D01*
X132515226Y-88421898D01*
X132555000Y-88221939D01*
X132555000Y-88018061D01*
X132515226Y-87818102D01*
X132437205Y-87629744D01*
X132402424Y-87577690D01*
X134854629Y-87577690D01*
X134854629Y-87781568D01*
X134894403Y-87981527D01*
X134972424Y-88169885D01*
X135085692Y-88339403D01*
X135229855Y-88483566D01*
X135399373Y-88596834D01*
X135587731Y-88674855D01*
X135787690Y-88714629D01*
X135991568Y-88714629D01*
X136191527Y-88674855D01*
X136379885Y-88596834D01*
X136549403Y-88483566D01*
X136693566Y-88339403D01*
X136806834Y-88169885D01*
X136884855Y-87981527D01*
X136924629Y-87781568D01*
X136924629Y-87577690D01*
X136884855Y-87377731D01*
X136806834Y-87189373D01*
X136737156Y-87085092D01*
X136807205Y-86980256D01*
X136885226Y-86791898D01*
X136925000Y-86591939D01*
X136925000Y-86388061D01*
X136885226Y-86188102D01*
X136807205Y-85999744D01*
X136693937Y-85830226D01*
X136549774Y-85686063D01*
X136380256Y-85572795D01*
X136191898Y-85494774D01*
X135991939Y-85455000D01*
X135788061Y-85455000D01*
X135588102Y-85494774D01*
X135399744Y-85572795D01*
X135230226Y-85686063D01*
X135086063Y-85830226D01*
X134972795Y-85999744D01*
X134894774Y-86188102D01*
X134855000Y-86388061D01*
X134855000Y-86591939D01*
X134894774Y-86791898D01*
X134972795Y-86980256D01*
X135042473Y-87084537D01*
X134972424Y-87189373D01*
X134894403Y-87377731D01*
X134854629Y-87577690D01*
X132402424Y-87577690D01*
X132323937Y-87460226D01*
X132179774Y-87316063D01*
X132010256Y-87202795D01*
X131821898Y-87124774D01*
X131621939Y-87085000D01*
X131418061Y-87085000D01*
X131218102Y-87124774D01*
X131029744Y-87202795D01*
X130860226Y-87316063D01*
X130716063Y-87460226D01*
X130602795Y-87629744D01*
X130524774Y-87818102D01*
X130485000Y-88018061D01*
X128830066Y-88018061D01*
X128806909Y-87962157D01*
X128693641Y-87792639D01*
X128549478Y-87648476D01*
X128379960Y-87535208D01*
X128191602Y-87457187D01*
X127991643Y-87417413D01*
X127850808Y-87417413D01*
X127915226Y-87261896D01*
X127955000Y-87061937D01*
X127955000Y-86858059D01*
X127915226Y-86658100D01*
X127837205Y-86469742D01*
X127770074Y-86369274D01*
X127813469Y-86365000D01*
X127813477Y-86365000D01*
X127943490Y-86352195D01*
X128110313Y-86301589D01*
X128264059Y-86219411D01*
X128398817Y-86108817D01*
X128426534Y-86075044D01*
X129401040Y-85100539D01*
X129473740Y-85115000D01*
X129766260Y-85115000D01*
X130053158Y-85057932D01*
X130323411Y-84945990D01*
X130566632Y-84783475D01*
X130773475Y-84576632D01*
X130890000Y-84402240D01*
X131006525Y-84576632D01*
X131213368Y-84783475D01*
X131456589Y-84945990D01*
X131726842Y-85057932D01*
X132013740Y-85115000D01*
X132306260Y-85115000D01*
X132593158Y-85057932D01*
X132863411Y-84945990D01*
X133106632Y-84783475D01*
X133313475Y-84576632D01*
X133430000Y-84402240D01*
X133546525Y-84576632D01*
X133753368Y-84783475D01*
X133996589Y-84945990D01*
X134266842Y-85057932D01*
X134553740Y-85115000D01*
X134846260Y-85115000D01*
X135133158Y-85057932D01*
X135403411Y-84945990D01*
X135646632Y-84783475D01*
X135853475Y-84576632D01*
X135970000Y-84402240D01*
X136086525Y-84576632D01*
X136293368Y-84783475D01*
X136536589Y-84945990D01*
X136806842Y-85057932D01*
X137093740Y-85115000D01*
X137386260Y-85115000D01*
X137673158Y-85057932D01*
X137943411Y-84945990D01*
X138186632Y-84783475D01*
X138189329Y-84780778D01*
X138912744Y-85504193D01*
X138935760Y-85532238D01*
X139047678Y-85624087D01*
X139175365Y-85692337D01*
X139313913Y-85734365D01*
X139421893Y-85745000D01*
X139421902Y-85745000D01*
X139457997Y-85748555D01*
X139494092Y-85745000D01*
X140887855Y-85745000D01*
X141422745Y-86279891D01*
X141445761Y-86307936D01*
X141516406Y-86365913D01*
X141557679Y-86399785D01*
X141685365Y-86468035D01*
X141823914Y-86510063D01*
X141967999Y-86524254D01*
X142004104Y-86520698D01*
X142845001Y-86520698D01*
X142845000Y-88077481D01*
X142741898Y-88034774D01*
X142541939Y-87995000D01*
X142338061Y-87995000D01*
X142138102Y-88034774D01*
X141949744Y-88112795D01*
X141780226Y-88226063D01*
X141636063Y-88370226D01*
X141522795Y-88539744D01*
X141444774Y-88728102D01*
X141405000Y-88928061D01*
X141405000Y-89131939D01*
X141444774Y-89331898D01*
X141522795Y-89520256D01*
X141636063Y-89689774D01*
X141780226Y-89833937D01*
X141949744Y-89947205D01*
X142138102Y-90025226D01*
X142338061Y-90065000D01*
X142541939Y-90065000D01*
X142741898Y-90025226D01*
X142930256Y-89947205D01*
X143099774Y-89833937D01*
X143243937Y-89689774D01*
X143357205Y-89520256D01*
X143435226Y-89331898D01*
X143461975Y-89197423D01*
X143888745Y-89624194D01*
X143911761Y-89652239D01*
X144023679Y-89744088D01*
X144151366Y-89812338D01*
X144247885Y-89841617D01*
X144289913Y-89854366D01*
X144433999Y-89868557D01*
X144470104Y-89865001D01*
X145903894Y-89865001D01*
X145939999Y-89868557D01*
X145976104Y-89865001D01*
X146084084Y-89854366D01*
X146222632Y-89812338D01*
X146350319Y-89744088D01*
X146462237Y-89652239D01*
X146485257Y-89624189D01*
X146644446Y-89465000D01*
X146741939Y-89465000D01*
X146941898Y-89425226D01*
X147130256Y-89347205D01*
X147230102Y-89280490D01*
X147338102Y-89325226D01*
X147538061Y-89365000D01*
X147741939Y-89365000D01*
X147941898Y-89325226D01*
X148130256Y-89247205D01*
X148150068Y-89233967D01*
X148229744Y-89287205D01*
X148418102Y-89365226D01*
X148618061Y-89405000D01*
X148821939Y-89405000D01*
X149021898Y-89365226D01*
X149210256Y-89287205D01*
X149379774Y-89173937D01*
X149523937Y-89029774D01*
X149637205Y-88860256D01*
X149715226Y-88671898D01*
X149755000Y-88471939D01*
X149755000Y-88395000D01*
X150275000Y-88395000D01*
X150275000Y-88591939D01*
X150314774Y-88791898D01*
X150392795Y-88980256D01*
X150506063Y-89149774D01*
X150650226Y-89293937D01*
X150819744Y-89407205D01*
X151008102Y-89485226D01*
X151208061Y-89525000D01*
X151411939Y-89525000D01*
X151611898Y-89485226D01*
X151800256Y-89407205D01*
X151969774Y-89293937D01*
X152113937Y-89149774D01*
X152227205Y-88980256D01*
X152305226Y-88791898D01*
X152345000Y-88591939D01*
X152345000Y-88395000D01*
X153493895Y-88395000D01*
X153530000Y-88398556D01*
X153566105Y-88395000D01*
X153674085Y-88384365D01*
X153812633Y-88342337D01*
X153940320Y-88274087D01*
X154052238Y-88182238D01*
X154075258Y-88154188D01*
X155209626Y-87019821D01*
X155164774Y-87128102D01*
X155125000Y-87328061D01*
X155125000Y-87531939D01*
X155164774Y-87731898D01*
X155242795Y-87920256D01*
X155356063Y-88089774D01*
X155500226Y-88233937D01*
X155669744Y-88347205D01*
X155858102Y-88425226D01*
X156058061Y-88465000D01*
X156261939Y-88465000D01*
X156461898Y-88425226D01*
X156650256Y-88347205D01*
X156819774Y-88233937D01*
X156963937Y-88089774D01*
X157077205Y-87920256D01*
X157155226Y-87731898D01*
X157195000Y-87531939D01*
X157195000Y-87328061D01*
X157155226Y-87128102D01*
X157084793Y-86958061D01*
X157425000Y-86958061D01*
X157425000Y-87161939D01*
X157464774Y-87361898D01*
X157542795Y-87550256D01*
X157656063Y-87719774D01*
X157800226Y-87863937D01*
X157969744Y-87977205D01*
X158158102Y-88055226D01*
X158358061Y-88095000D01*
X158561939Y-88095000D01*
X158761898Y-88055226D01*
X158950256Y-87977205D01*
X158990000Y-87950649D01*
X159029744Y-87977205D01*
X159218102Y-88055226D01*
X159418061Y-88095000D01*
X159621939Y-88095000D01*
X159821898Y-88055226D01*
X160010256Y-87977205D01*
X160179774Y-87863937D01*
X160323937Y-87719774D01*
X160437205Y-87550256D01*
X160515226Y-87361898D01*
X160555000Y-87161939D01*
X160555000Y-86958061D01*
X160515226Y-86758102D01*
X160437205Y-86569744D01*
X160323937Y-86400226D01*
X160179774Y-86256063D01*
X160010256Y-86142795D01*
X159821898Y-86064774D01*
X159621939Y-86025000D01*
X159418061Y-86025000D01*
X159218102Y-86064774D01*
X159029744Y-86142795D01*
X158990000Y-86169351D01*
X158950256Y-86142795D01*
X158761898Y-86064774D01*
X158561939Y-86025000D01*
X158358061Y-86025000D01*
X158158102Y-86064774D01*
X157969744Y-86142795D01*
X157800226Y-86256063D01*
X157656063Y-86400226D01*
X157542795Y-86569744D01*
X157464774Y-86758102D01*
X157425000Y-86958061D01*
X157084793Y-86958061D01*
X157077205Y-86939744D01*
X157062308Y-86917449D01*
X157107205Y-86850256D01*
X157185226Y-86661898D01*
X157225000Y-86461939D01*
X157225000Y-86258061D01*
X157185226Y-86058102D01*
X157107205Y-85869744D01*
X156993937Y-85700226D01*
X156849774Y-85556063D01*
X156680256Y-85442795D01*
X156491898Y-85364774D01*
X156291939Y-85325000D01*
X156088061Y-85325000D01*
X155888102Y-85364774D01*
X155755000Y-85419907D01*
X155755000Y-84924883D01*
X155966632Y-84783475D01*
X156173475Y-84576632D01*
X156290000Y-84402240D01*
X156406525Y-84576632D01*
X156613368Y-84783475D01*
X156856589Y-84945990D01*
X157126842Y-85057932D01*
X157413740Y-85115000D01*
X157706260Y-85115000D01*
X157993158Y-85057932D01*
X158263411Y-84945990D01*
X158506632Y-84783475D01*
X158713475Y-84576632D01*
X158830000Y-84402240D01*
X158946525Y-84576632D01*
X159153368Y-84783475D01*
X159396589Y-84945990D01*
X159666842Y-85057932D01*
X159953740Y-85115000D01*
X160246260Y-85115000D01*
X160533158Y-85057932D01*
X160803411Y-84945990D01*
X161046632Y-84783475D01*
X161253475Y-84576632D01*
X161370000Y-84402240D01*
X161486525Y-84576632D01*
X161693368Y-84783475D01*
X161936589Y-84945990D01*
X162206842Y-85057932D01*
X162218566Y-85060264D01*
X162060226Y-85166063D01*
X161916063Y-85310226D01*
X161802795Y-85479744D01*
X161724774Y-85668102D01*
X161685000Y-85868061D01*
X161685000Y-86071939D01*
X161724774Y-86271898D01*
X161802795Y-86460256D01*
X161916063Y-86629774D01*
X162060226Y-86773937D01*
X162105000Y-86803854D01*
X160085814Y-88823040D01*
X160057769Y-88846056D01*
X159965920Y-88957974D01*
X159910350Y-89061939D01*
X159897670Y-89085661D01*
X159855641Y-89224209D01*
X159841450Y-89368294D01*
X159845007Y-89404409D01*
X159845006Y-90811310D01*
X159830138Y-90826178D01*
X159740034Y-90736074D01*
X159570516Y-90622806D01*
X159382158Y-90544785D01*
X159182199Y-90505011D01*
X158978321Y-90505011D01*
X158778362Y-90544785D01*
X158669878Y-90589721D01*
X158532346Y-90452189D01*
X158507764Y-90422236D01*
X158388233Y-90324138D01*
X158251860Y-90251246D01*
X158103887Y-90206359D01*
X157988561Y-90195000D01*
X157988553Y-90195000D01*
X157950000Y-90191203D01*
X157911447Y-90195000D01*
X156858556Y-90195000D01*
X156820000Y-90191203D01*
X156781444Y-90195000D01*
X156781439Y-90195000D01*
X156741026Y-90198980D01*
X156666113Y-90206358D01*
X156535226Y-90246063D01*
X156518140Y-90251246D01*
X156381767Y-90324138D01*
X156262236Y-90422236D01*
X156237653Y-90452190D01*
X155712190Y-90977653D01*
X155682236Y-91002236D01*
X155584138Y-91121768D01*
X155511246Y-91258141D01*
X155466359Y-91406114D01*
X155455000Y-91521440D01*
X155455000Y-91521447D01*
X155451203Y-91560000D01*
X155455000Y-91598553D01*
X155455001Y-94821426D01*
X155451203Y-94859989D01*
X155466359Y-95013875D01*
X155511246Y-95161848D01*
X155511247Y-95161849D01*
X155584139Y-95298222D01*
X155609962Y-95329687D01*
X155657655Y-95387801D01*
X155657659Y-95387805D01*
X155682237Y-95417753D01*
X155712185Y-95442331D01*
X156485000Y-96215147D01*
X156485000Y-96241928D01*
X156524774Y-96441887D01*
X156602795Y-96630245D01*
X156716063Y-96799763D01*
X156860226Y-96943926D01*
X157029744Y-97057194D01*
X157218102Y-97135215D01*
X157418061Y-97174989D01*
X157621939Y-97174989D01*
X157821898Y-97135215D01*
X158010256Y-97057194D01*
X158179774Y-96943926D01*
X158323937Y-96799763D01*
X158437205Y-96630245D01*
X158515226Y-96441887D01*
X158555000Y-96241928D01*
X158555000Y-96038481D01*
X158677729Y-96014068D01*
X158847889Y-95943586D01*
X159001028Y-95841262D01*
X159042500Y-95799790D01*
X159083972Y-95841262D01*
X159237111Y-95943586D01*
X159252436Y-95949934D01*
X159249846Y-95962956D01*
X159249846Y-96166834D01*
X159289620Y-96366793D01*
X159367641Y-96555151D01*
X159480909Y-96724669D01*
X159625072Y-96868832D01*
X159794590Y-96982100D01*
X159982948Y-97060121D01*
X160182907Y-97099895D01*
X160386785Y-97099895D01*
X160586744Y-97060121D01*
X160775102Y-96982100D01*
X160799796Y-96965600D01*
X160982775Y-97041393D01*
X161182734Y-97081167D01*
X161386612Y-97081167D01*
X161586571Y-97041393D01*
X161774929Y-96963372D01*
X161944447Y-96850104D01*
X162088610Y-96705941D01*
X162201878Y-96536423D01*
X162279899Y-96348065D01*
X162319673Y-96148106D01*
X162319673Y-96143721D01*
X162480256Y-96077205D01*
X162649774Y-95963937D01*
X162793937Y-95819774D01*
X162907205Y-95650256D01*
X162985226Y-95461898D01*
X163025000Y-95261939D01*
X163025000Y-95058061D01*
X162985226Y-94858102D01*
X162907205Y-94669744D01*
X162793937Y-94500226D01*
X162778711Y-94485000D01*
X164375554Y-94485000D01*
X165255001Y-95364448D01*
X165255000Y-97243896D01*
X165251444Y-97280001D01*
X165255779Y-97324018D01*
X165147276Y-97345600D01*
X164958918Y-97423621D01*
X164789400Y-97536889D01*
X164645237Y-97681052D01*
X164531969Y-97850570D01*
X164453948Y-98038928D01*
X164447691Y-98070385D01*
X164434943Y-98072921D01*
X164246585Y-98150942D01*
X164193192Y-98186618D01*
X164040000Y-98123163D01*
X163840041Y-98083389D01*
X163636163Y-98083389D01*
X163621259Y-98086354D01*
X163669774Y-98053937D01*
X163813937Y-97909774D01*
X163927205Y-97740256D01*
X164005226Y-97551898D01*
X164045000Y-97351939D01*
X164045000Y-97148061D01*
X164005226Y-96948102D01*
X163927205Y-96759744D01*
X163813937Y-96590226D01*
X163669774Y-96446063D01*
X163500256Y-96332795D01*
X163311898Y-96254774D01*
X163111939Y-96215000D01*
X162908061Y-96215000D01*
X162708102Y-96254774D01*
X162519744Y-96332795D01*
X162350226Y-96446063D01*
X162206063Y-96590226D01*
X162092795Y-96759744D01*
X162014774Y-96948102D01*
X161975000Y-97148061D01*
X161975000Y-97351939D01*
X162014774Y-97551898D01*
X162092795Y-97740256D01*
X162206063Y-97909774D01*
X162350226Y-98053937D01*
X162519744Y-98167205D01*
X162708102Y-98245226D01*
X162908061Y-98285000D01*
X163111939Y-98285000D01*
X163126843Y-98282035D01*
X163078328Y-98314452D01*
X162934165Y-98458615D01*
X162820897Y-98628133D01*
X162742876Y-98816491D01*
X162703102Y-99016450D01*
X162703102Y-99220328D01*
X162742876Y-99420287D01*
X162820897Y-99608645D01*
X162934165Y-99778163D01*
X163078328Y-99922326D01*
X163247846Y-100035594D01*
X163436204Y-100113615D01*
X163636163Y-100153389D01*
X163840041Y-100153389D01*
X164040000Y-100113615D01*
X164228358Y-100035594D01*
X164281751Y-99999918D01*
X164434943Y-100063373D01*
X164634902Y-100103147D01*
X164838780Y-100103147D01*
X165038739Y-100063373D01*
X165227097Y-99985352D01*
X165396615Y-99872084D01*
X165540778Y-99727921D01*
X165596097Y-99645130D01*
X165686063Y-99779774D01*
X165830226Y-99923937D01*
X165999744Y-100037205D01*
X166188102Y-100115226D01*
X166388061Y-100155000D01*
X166591939Y-100155000D01*
X166791898Y-100115226D01*
X166855000Y-100089088D01*
X166855000Y-100161939D01*
X166894774Y-100361898D01*
X166972795Y-100550256D01*
X167086063Y-100719774D01*
X167230226Y-100863937D01*
X167399744Y-100977205D01*
X167588102Y-101055226D01*
X167788061Y-101095000D01*
X167991939Y-101095000D01*
X168191898Y-101055226D01*
X168380256Y-100977205D01*
X168549774Y-100863937D01*
X168693937Y-100719774D01*
X168807205Y-100550256D01*
X168885226Y-100361898D01*
X168925000Y-100161939D01*
X168925000Y-99958061D01*
X168885226Y-99758102D01*
X168807205Y-99569744D01*
X168693937Y-99400226D01*
X168549774Y-99256063D01*
X168380256Y-99142795D01*
X168191898Y-99064774D01*
X167991939Y-99025000D01*
X167788061Y-99025000D01*
X167588102Y-99064774D01*
X167525000Y-99090912D01*
X167525000Y-99018061D01*
X167485226Y-98818102D01*
X167464499Y-98768061D01*
X168585000Y-98768061D01*
X168585000Y-98971939D01*
X168624774Y-99171898D01*
X168702795Y-99360256D01*
X168816063Y-99529774D01*
X168960226Y-99673937D01*
X169129744Y-99787205D01*
X169318102Y-99865226D01*
X169518061Y-99905000D01*
X169721939Y-99905000D01*
X169921898Y-99865226D01*
X170110256Y-99787205D01*
X170279774Y-99673937D01*
X170423937Y-99529774D01*
X170537205Y-99360256D01*
X170615226Y-99171898D01*
X170655000Y-98971939D01*
X170655000Y-98768061D01*
X170615226Y-98568102D01*
X170537205Y-98379744D01*
X170423937Y-98210226D01*
X170279774Y-98066063D01*
X170110256Y-97952795D01*
X169921898Y-97874774D01*
X169721939Y-97835000D01*
X169518061Y-97835000D01*
X169318102Y-97874774D01*
X169129744Y-97952795D01*
X168960226Y-98066063D01*
X168816063Y-98210226D01*
X168702795Y-98379744D01*
X168624774Y-98568102D01*
X168585000Y-98768061D01*
X167464499Y-98768061D01*
X167407205Y-98629744D01*
X167293937Y-98460226D01*
X167225000Y-98391289D01*
X167225000Y-98015951D01*
X167270256Y-97997205D01*
X167325000Y-97960626D01*
X167379744Y-97997205D01*
X167568102Y-98075226D01*
X167768061Y-98115000D01*
X167971939Y-98115000D01*
X168171898Y-98075226D01*
X168360256Y-97997205D01*
X168529774Y-97883937D01*
X168673937Y-97739774D01*
X168787205Y-97570256D01*
X168865226Y-97381898D01*
X168905000Y-97181939D01*
X168905000Y-96978061D01*
X168865226Y-96778102D01*
X168811361Y-96648061D01*
X172785000Y-96648061D01*
X172785000Y-96851939D01*
X172824774Y-97051898D01*
X172902795Y-97240256D01*
X173016063Y-97409774D01*
X173160226Y-97553937D01*
X173329744Y-97667205D01*
X173518102Y-97745226D01*
X173718061Y-97785000D01*
X173921939Y-97785000D01*
X174121898Y-97745226D01*
X174310256Y-97667205D01*
X174479774Y-97553937D01*
X174623937Y-97409774D01*
X174737205Y-97240256D01*
X174815226Y-97051898D01*
X174855000Y-96851939D01*
X174855000Y-96648061D01*
X174815226Y-96448102D01*
X174737205Y-96259744D01*
X174623937Y-96090226D01*
X174479774Y-95946063D01*
X174310256Y-95832795D01*
X174121898Y-95754774D01*
X173921939Y-95715000D01*
X173718061Y-95715000D01*
X173518102Y-95754774D01*
X173329744Y-95832795D01*
X173160226Y-95946063D01*
X173016063Y-96090226D01*
X172902795Y-96259744D01*
X172824774Y-96448102D01*
X172785000Y-96648061D01*
X168811361Y-96648061D01*
X168787205Y-96589744D01*
X168673937Y-96420226D01*
X168529774Y-96276063D01*
X168528500Y-96275211D01*
X168553937Y-96249774D01*
X168570810Y-96224521D01*
X168670226Y-96323937D01*
X168839744Y-96437205D01*
X169028102Y-96515226D01*
X169228061Y-96555000D01*
X169431939Y-96555000D01*
X169631898Y-96515226D01*
X169820256Y-96437205D01*
X169989774Y-96323937D01*
X170133937Y-96179774D01*
X170247205Y-96010256D01*
X170325226Y-95821898D01*
X170365000Y-95621939D01*
X170365000Y-95418061D01*
X170325226Y-95218102D01*
X170247205Y-95029744D01*
X170246020Y-95027970D01*
X170272826Y-94987851D01*
X170350847Y-94799493D01*
X170390621Y-94599534D01*
X170390621Y-94395656D01*
X170350847Y-94195697D01*
X170272826Y-94007339D01*
X170263484Y-93993358D01*
X170267154Y-93987865D01*
X170345175Y-93799507D01*
X170384949Y-93599548D01*
X170384949Y-93395670D01*
X170345175Y-93195711D01*
X170267154Y-93007353D01*
X170153886Y-92837835D01*
X170009723Y-92693672D01*
X169840205Y-92580404D01*
X169651847Y-92502383D01*
X169451888Y-92462609D01*
X169248010Y-92462609D01*
X169048051Y-92502383D01*
X168859693Y-92580404D01*
X168690175Y-92693672D01*
X168546012Y-92837835D01*
X168432744Y-93007353D01*
X168354723Y-93195711D01*
X168314949Y-93395670D01*
X168314949Y-93599548D01*
X168354723Y-93799507D01*
X168432744Y-93987865D01*
X168442086Y-94001846D01*
X168438416Y-94007339D01*
X168360395Y-94195697D01*
X168320621Y-94395656D01*
X168320621Y-94599534D01*
X168349745Y-94745953D01*
X168240256Y-94672795D01*
X168051898Y-94594774D01*
X167851939Y-94555000D01*
X167648061Y-94555000D01*
X167448102Y-94594774D01*
X167259744Y-94672795D01*
X167090226Y-94786063D01*
X166946063Y-94930226D01*
X166832795Y-95099744D01*
X166754774Y-95288102D01*
X166725000Y-95437787D01*
X166725000Y-95096105D01*
X166728556Y-95060000D01*
X166714365Y-94915915D01*
X166705568Y-94886914D01*
X166672337Y-94777367D01*
X166604087Y-94649680D01*
X166512238Y-94537762D01*
X166484193Y-94514746D01*
X165225258Y-93255812D01*
X165202238Y-93227762D01*
X165090320Y-93135913D01*
X164962633Y-93067663D01*
X164824085Y-93025635D01*
X164716105Y-93015000D01*
X164680000Y-93011444D01*
X164643895Y-93015000D01*
X163038457Y-93015000D01*
X163054979Y-92931939D01*
X163054979Y-92728061D01*
X163015205Y-92528102D01*
X162937184Y-92339744D01*
X162823916Y-92170226D01*
X162752296Y-92098606D01*
X162797394Y-91989731D01*
X162816190Y-91895238D01*
X162894087Y-91800320D01*
X162962337Y-91672633D01*
X163004365Y-91534085D01*
X163015000Y-91426105D01*
X163015000Y-91426096D01*
X163018555Y-91390001D01*
X163015000Y-91353906D01*
X163015000Y-90834555D01*
X163168061Y-90865000D01*
X163371939Y-90865000D01*
X163571898Y-90825226D01*
X163591981Y-90816907D01*
X163663945Y-90888871D01*
X163833463Y-91002139D01*
X164021821Y-91080160D01*
X164221780Y-91119934D01*
X164276508Y-91119934D01*
X164255000Y-91228061D01*
X164255000Y-91431939D01*
X164294774Y-91631898D01*
X164372795Y-91820256D01*
X164486063Y-91989774D01*
X164630226Y-92133937D01*
X164799744Y-92247205D01*
X164988102Y-92325226D01*
X165188061Y-92365000D01*
X165391939Y-92365000D01*
X165591898Y-92325226D01*
X165780256Y-92247205D01*
X165834160Y-92211187D01*
X165795000Y-92408061D01*
X165795000Y-92611939D01*
X165834774Y-92811898D01*
X165912795Y-93000256D01*
X166026063Y-93169774D01*
X166170226Y-93313937D01*
X166339744Y-93427205D01*
X166528102Y-93505226D01*
X166728061Y-93545000D01*
X166931939Y-93545000D01*
X167131898Y-93505226D01*
X167320256Y-93427205D01*
X167489774Y-93313937D01*
X167633937Y-93169774D01*
X167747205Y-93000256D01*
X167825226Y-92811898D01*
X167865000Y-92611939D01*
X167865000Y-92408061D01*
X167825226Y-92208102D01*
X167747205Y-92019744D01*
X167724706Y-91986072D01*
X167770256Y-91967205D01*
X167939774Y-91853937D01*
X168083937Y-91709774D01*
X168197205Y-91540256D01*
X168275226Y-91351898D01*
X168315000Y-91151939D01*
X168315000Y-90948061D01*
X168275226Y-90748102D01*
X168197205Y-90559744D01*
X168194035Y-90555000D01*
X168231939Y-90555000D01*
X168431898Y-90515226D01*
X168620256Y-90437205D01*
X168789774Y-90323937D01*
X168933937Y-90179774D01*
X169047205Y-90010256D01*
X169125226Y-89821898D01*
X169165000Y-89621939D01*
X169165000Y-89418061D01*
X169125226Y-89218102D01*
X169047205Y-89029744D01*
X168933937Y-88860226D01*
X168789774Y-88716063D01*
X168620256Y-88602795D01*
X168431898Y-88524774D01*
X168231939Y-88485000D01*
X168028061Y-88485000D01*
X167828102Y-88524774D01*
X167639744Y-88602795D01*
X167470226Y-88716063D01*
X167326063Y-88860226D01*
X167212795Y-89029744D01*
X167134774Y-89218102D01*
X167095000Y-89418061D01*
X167095000Y-89621939D01*
X167134774Y-89821898D01*
X167212795Y-90010256D01*
X167215965Y-90015000D01*
X167178061Y-90015000D01*
X166978102Y-90054774D01*
X166835001Y-90114049D01*
X166835001Y-88272566D01*
X166998061Y-88305000D01*
X167201939Y-88305000D01*
X167401898Y-88265226D01*
X167590256Y-88187205D01*
X167759774Y-88073937D01*
X167903937Y-87929774D01*
X168017205Y-87760256D01*
X168095226Y-87571898D01*
X168135000Y-87371939D01*
X168135000Y-87168061D01*
X168134393Y-87165010D01*
X171575564Y-87165010D01*
X171855001Y-87444447D01*
X171855000Y-88549897D01*
X171851444Y-88586002D01*
X171865635Y-88730087D01*
X171876093Y-88764560D01*
X171907663Y-88868634D01*
X171975913Y-88996321D01*
X172067762Y-89108239D01*
X172095808Y-89131256D01*
X172576372Y-89611821D01*
X172480226Y-89676063D01*
X172336063Y-89820226D01*
X172222795Y-89989744D01*
X172144774Y-90178102D01*
X172105000Y-90378061D01*
X172105000Y-90581939D01*
X172144774Y-90781898D01*
X172222795Y-90970256D01*
X172336063Y-91139774D01*
X172480226Y-91283937D01*
X172649744Y-91397205D01*
X172838102Y-91475226D01*
X173038061Y-91515000D01*
X173241939Y-91515000D01*
X173441898Y-91475226D01*
X173630256Y-91397205D01*
X173799774Y-91283937D01*
X173820001Y-91263710D01*
X173850226Y-91293935D01*
X173925993Y-91344561D01*
X173855806Y-91414748D01*
X173827761Y-91437764D01*
X173735912Y-91549682D01*
X173673775Y-91665932D01*
X173667662Y-91677369D01*
X173625633Y-91815917D01*
X173611442Y-91960002D01*
X173614999Y-91996117D01*
X173614999Y-92511288D01*
X173546061Y-92580226D01*
X173432793Y-92749744D01*
X173354772Y-92938102D01*
X173314998Y-93138061D01*
X173314998Y-93341939D01*
X173354772Y-93541898D01*
X173432793Y-93730256D01*
X173546061Y-93899774D01*
X173690224Y-94043937D01*
X173859742Y-94157205D01*
X174048100Y-94235226D01*
X174248059Y-94275000D01*
X174451937Y-94275000D01*
X174651896Y-94235226D01*
X174840254Y-94157205D01*
X175009772Y-94043937D01*
X175153935Y-93899774D01*
X175267203Y-93730256D01*
X175345224Y-93541898D01*
X175356542Y-93485000D01*
X175531939Y-93485000D01*
X175731898Y-93445226D01*
X175920256Y-93367205D01*
X176089774Y-93253937D01*
X176233937Y-93109774D01*
X176347205Y-92940256D01*
X176425226Y-92751898D01*
X176465000Y-92551939D01*
X176465000Y-92348061D01*
X176425226Y-92148102D01*
X176347205Y-91959744D01*
X176304146Y-91895301D01*
X176884203Y-91315244D01*
X176912248Y-91292228D01*
X177004097Y-91180310D01*
X177072347Y-91052623D01*
X177102618Y-90952833D01*
X177114375Y-90914076D01*
X177118133Y-90875915D01*
X177125010Y-90806095D01*
X177125010Y-90806088D01*
X177128565Y-90769991D01*
X177125010Y-90733894D01*
X177125010Y-89328061D01*
X177245000Y-89328061D01*
X177245000Y-89531939D01*
X177284774Y-89731898D01*
X177362795Y-89920256D01*
X177476063Y-90089774D01*
X177561289Y-90175000D01*
X177516063Y-90220226D01*
X177402795Y-90389744D01*
X177324774Y-90578102D01*
X177285000Y-90778061D01*
X177285000Y-90981939D01*
X177324774Y-91181898D01*
X177402795Y-91370256D01*
X177516063Y-91539774D01*
X177646289Y-91670000D01*
X177556063Y-91760226D01*
X177442795Y-91929744D01*
X177364774Y-92118102D01*
X177325000Y-92318061D01*
X177325000Y-92521939D01*
X177364774Y-92721898D01*
X177442795Y-92910256D01*
X177556063Y-93079774D01*
X177700226Y-93223937D01*
X177869744Y-93337205D01*
X178058102Y-93415226D01*
X178258061Y-93455000D01*
X178461939Y-93455000D01*
X178661898Y-93415226D01*
X178850256Y-93337205D01*
X179019774Y-93223937D01*
X179163937Y-93079774D01*
X179277205Y-92910256D01*
X179355226Y-92721898D01*
X179395000Y-92521939D01*
X179395000Y-92318061D01*
X179355226Y-92118102D01*
X179277205Y-91929744D01*
X179163937Y-91760226D01*
X179033711Y-91630000D01*
X179123937Y-91539774D01*
X179237205Y-91370256D01*
X179315226Y-91181898D01*
X179355000Y-90981939D01*
X179355000Y-90778061D01*
X179315226Y-90578102D01*
X179237205Y-90389744D01*
X179123937Y-90220226D01*
X179038711Y-90135000D01*
X179083937Y-90089774D01*
X179197205Y-89920256D01*
X179275226Y-89731898D01*
X179315000Y-89531939D01*
X179315000Y-89328061D01*
X179275226Y-89128102D01*
X179197205Y-88939744D01*
X179083937Y-88770226D01*
X178939774Y-88626063D01*
X178770256Y-88512795D01*
X178581898Y-88434774D01*
X178381939Y-88395000D01*
X178178061Y-88395000D01*
X177978102Y-88434774D01*
X177789744Y-88512795D01*
X177620226Y-88626063D01*
X177476063Y-88770226D01*
X177362795Y-88939744D01*
X177284774Y-89128102D01*
X177245000Y-89328061D01*
X177125010Y-89328061D01*
X177125010Y-86336115D01*
X177128566Y-86300010D01*
X177114375Y-86155925D01*
X177107692Y-86133895D01*
X177072347Y-86017377D01*
X177004097Y-85889690D01*
X176960127Y-85836113D01*
X176935263Y-85805816D01*
X176935260Y-85805813D01*
X176912247Y-85777772D01*
X176884207Y-85754760D01*
X175075000Y-83945554D01*
X175075000Y-82936094D01*
X175078555Y-82899999D01*
X175075000Y-82863904D01*
X175075000Y-82863895D01*
X175064365Y-82755915D01*
X175022337Y-82617367D01*
X174954087Y-82489680D01*
X174914137Y-82441001D01*
X174885253Y-82405806D01*
X174885250Y-82405803D01*
X174862237Y-82377762D01*
X174834197Y-82354750D01*
X174668480Y-82189033D01*
X175529545Y-82189033D01*
X175529545Y-82590967D01*
X175607958Y-82985179D01*
X175761772Y-83356518D01*
X175985075Y-83690714D01*
X176269286Y-83974925D01*
X176603482Y-84198228D01*
X176974821Y-84352042D01*
X177369033Y-84430455D01*
X177770967Y-84430455D01*
X178165179Y-84352042D01*
X178536518Y-84198228D01*
X178870714Y-83974925D01*
X179154925Y-83690714D01*
X179378228Y-83356518D01*
X179532042Y-82985179D01*
X179610455Y-82590967D01*
X179610455Y-82189033D01*
X179532042Y-81794821D01*
X179378228Y-81423482D01*
X179154925Y-81089286D01*
X178870714Y-80805075D01*
X178536518Y-80581772D01*
X178165179Y-80427958D01*
X177770967Y-80349545D01*
X177369033Y-80349545D01*
X176974821Y-80427958D01*
X176603482Y-80581772D01*
X176269286Y-80805075D01*
X175985075Y-81089286D01*
X175761772Y-81423482D01*
X175607958Y-81794821D01*
X175529545Y-82189033D01*
X174668480Y-82189033D01*
X174335258Y-81855812D01*
X174312238Y-81827762D01*
X174200320Y-81735913D01*
X174150776Y-81709431D01*
X174227932Y-81523158D01*
X174285000Y-81236260D01*
X174285000Y-80943740D01*
X174227932Y-80656842D01*
X174115990Y-80386589D01*
X173953475Y-80143368D01*
X173746632Y-79936525D01*
X173503411Y-79774010D01*
X173233158Y-79662068D01*
X172946260Y-79605000D01*
X172653740Y-79605000D01*
X172366842Y-79662068D01*
X172096589Y-79774010D01*
X171853368Y-79936525D01*
X171646525Y-80143368D01*
X171530000Y-80317760D01*
X171413475Y-80143368D01*
X171206632Y-79936525D01*
X170963411Y-79774010D01*
X170693158Y-79662068D01*
X170406260Y-79605000D01*
X170113740Y-79605000D01*
X169826842Y-79662068D01*
X169556589Y-79774010D01*
X169313368Y-79936525D01*
X169106525Y-80143368D01*
X168990000Y-80317760D01*
X168873475Y-80143368D01*
X168666632Y-79936525D01*
X168423411Y-79774010D01*
X168153158Y-79662068D01*
X167866260Y-79605000D01*
X167573740Y-79605000D01*
X167286842Y-79662068D01*
X167016589Y-79774010D01*
X166773368Y-79936525D01*
X166566525Y-80143368D01*
X166450000Y-80317760D01*
X166333475Y-80143368D01*
X166126632Y-79936525D01*
X165883411Y-79774010D01*
X165613158Y-79662068D01*
X165326260Y-79605000D01*
X165033740Y-79605000D01*
X164746842Y-79662068D01*
X164476589Y-79774010D01*
X164233368Y-79936525D01*
X164026525Y-80143368D01*
X163910000Y-80317760D01*
X163793475Y-80143368D01*
X163586632Y-79936525D01*
X163343411Y-79774010D01*
X163073158Y-79662068D01*
X162786260Y-79605000D01*
X162493740Y-79605000D01*
X162206842Y-79662068D01*
X161936589Y-79774010D01*
X161693368Y-79936525D01*
X161486525Y-80143368D01*
X161370000Y-80317760D01*
X161253475Y-80143368D01*
X161046632Y-79936525D01*
X160803411Y-79774010D01*
X160533158Y-79662068D01*
X160246260Y-79605000D01*
X159953740Y-79605000D01*
X159666842Y-79662068D01*
X159396589Y-79774010D01*
X159153368Y-79936525D01*
X158946525Y-80143368D01*
X158830000Y-80317760D01*
X158713475Y-80143368D01*
X158506632Y-79936525D01*
X158263411Y-79774010D01*
X157993158Y-79662068D01*
X157706260Y-79605000D01*
X157413740Y-79605000D01*
X157126842Y-79662068D01*
X156856589Y-79774010D01*
X156613368Y-79936525D01*
X156406525Y-80143368D01*
X156290000Y-80317760D01*
X156173475Y-80143368D01*
X155966632Y-79936525D01*
X155723411Y-79774010D01*
X155453158Y-79662068D01*
X155166260Y-79605000D01*
X154873740Y-79605000D01*
X154586842Y-79662068D01*
X154316589Y-79774010D01*
X154073368Y-79936525D01*
X153866525Y-80143368D01*
X153750000Y-80317760D01*
X153633475Y-80143368D01*
X153426632Y-79936525D01*
X153183411Y-79774010D01*
X152913158Y-79662068D01*
X152626260Y-79605000D01*
X152333740Y-79605000D01*
X152046842Y-79662068D01*
X151776589Y-79774010D01*
X151533368Y-79936525D01*
X151326525Y-80143368D01*
X151210000Y-80317760D01*
X151093475Y-80143368D01*
X150886632Y-79936525D01*
X150643411Y-79774010D01*
X150373158Y-79662068D01*
X150086260Y-79605000D01*
X149793740Y-79605000D01*
X149506842Y-79662068D01*
X149236589Y-79774010D01*
X148993368Y-79936525D01*
X148786525Y-80143368D01*
X148670000Y-80317760D01*
X148553475Y-80143368D01*
X148346632Y-79936525D01*
X148103411Y-79774010D01*
X147833158Y-79662068D01*
X147546260Y-79605000D01*
X147253740Y-79605000D01*
X146966842Y-79662068D01*
X146696589Y-79774010D01*
X146453368Y-79936525D01*
X146246525Y-80143368D01*
X146130000Y-80317760D01*
X146013475Y-80143368D01*
X145806632Y-79936525D01*
X145563411Y-79774010D01*
X145293158Y-79662068D01*
X145006260Y-79605000D01*
X144713740Y-79605000D01*
X144426842Y-79662068D01*
X144156589Y-79774010D01*
X143913368Y-79936525D01*
X143706525Y-80143368D01*
X143590000Y-80317760D01*
X143473475Y-80143368D01*
X143266632Y-79936525D01*
X143023411Y-79774010D01*
X142753158Y-79662068D01*
X142466260Y-79605000D01*
X142173740Y-79605000D01*
X141886842Y-79662068D01*
X141616589Y-79774010D01*
X141373368Y-79936525D01*
X141166525Y-80143368D01*
X141050000Y-80317760D01*
X140933475Y-80143368D01*
X140726632Y-79936525D01*
X140483411Y-79774010D01*
X140213158Y-79662068D01*
X139926260Y-79605000D01*
X139633740Y-79605000D01*
X139346842Y-79662068D01*
X139076589Y-79774010D01*
X138833368Y-79936525D01*
X138626525Y-80143368D01*
X138510000Y-80317760D01*
X138393475Y-80143368D01*
X138186632Y-79936525D01*
X137943411Y-79774010D01*
X137673158Y-79662068D01*
X137386260Y-79605000D01*
X137093740Y-79605000D01*
X136806842Y-79662068D01*
X136536589Y-79774010D01*
X136293368Y-79936525D01*
X136086525Y-80143368D01*
X135970000Y-80317760D01*
X135853475Y-80143368D01*
X135646632Y-79936525D01*
X135403411Y-79774010D01*
X135133158Y-79662068D01*
X134846260Y-79605000D01*
X134553740Y-79605000D01*
X134266842Y-79662068D01*
X133996589Y-79774010D01*
X133753368Y-79936525D01*
X133546525Y-80143368D01*
X133430000Y-80317760D01*
X133313475Y-80143368D01*
X133106632Y-79936525D01*
X132863411Y-79774010D01*
X132593158Y-79662068D01*
X132306260Y-79605000D01*
X132013740Y-79605000D01*
X131726842Y-79662068D01*
X131456589Y-79774010D01*
X131213368Y-79936525D01*
X131006525Y-80143368D01*
X130890000Y-80317760D01*
X130773475Y-80143368D01*
X130566632Y-79936525D01*
X130323411Y-79774010D01*
X130053158Y-79662068D01*
X129766260Y-79605000D01*
X129473740Y-79605000D01*
X129186842Y-79662068D01*
X128916589Y-79774010D01*
X128673368Y-79936525D01*
X128466525Y-80143368D01*
X128344805Y-80325534D01*
X128275178Y-80208645D01*
X128080269Y-79992412D01*
X127846920Y-79818359D01*
X127584099Y-79693175D01*
X127436890Y-79648524D01*
X127207000Y-79769845D01*
X127207000Y-80963000D01*
X127227000Y-80963000D01*
X127227000Y-81217000D01*
X127207000Y-81217000D01*
X127207000Y-81237000D01*
X126953000Y-81237000D01*
X126953000Y-81217000D01*
X126933000Y-81217000D01*
X126933000Y-80963000D01*
X126953000Y-80963000D01*
X126953000Y-79769845D01*
X126723110Y-79648524D01*
X126575901Y-79693175D01*
X126313080Y-79818359D01*
X126079731Y-79992412D01*
X125884822Y-80208645D01*
X125815195Y-80325534D01*
X125693475Y-80143368D01*
X125486632Y-79936525D01*
X125243411Y-79774010D01*
X124973158Y-79662068D01*
X124686260Y-79605000D01*
X124393740Y-79605000D01*
X124106842Y-79662068D01*
X123836589Y-79774010D01*
X123593368Y-79936525D01*
X123386525Y-80143368D01*
X123224010Y-80386589D01*
X123112068Y-80656842D01*
X123055000Y-80943740D01*
X123055000Y-81236260D01*
X123112068Y-81523158D01*
X123224010Y-81793411D01*
X123386525Y-82036632D01*
X123518380Y-82168487D01*
X123445820Y-82190498D01*
X123335506Y-82249463D01*
X123238815Y-82328815D01*
X123159463Y-82425506D01*
X123100498Y-82535820D01*
X123064188Y-82655518D01*
X123051928Y-82780000D01*
X123051928Y-83866494D01*
X122804956Y-84113466D01*
X122771183Y-84141183D01*
X122660589Y-84275942D01*
X122578411Y-84429688D01*
X122527805Y-84596511D01*
X122515000Y-84726524D01*
X122515000Y-84726531D01*
X122510719Y-84770000D01*
X122515000Y-84813469D01*
X122515000Y-86093338D01*
X122421898Y-86054774D01*
X122221939Y-86015000D01*
X122018061Y-86015000D01*
X121818102Y-86054774D01*
X121629744Y-86132795D01*
X121524217Y-86203305D01*
X121515226Y-86158102D01*
X121437205Y-85969744D01*
X121323937Y-85800226D01*
X121179774Y-85656063D01*
X121010256Y-85542795D01*
X120821898Y-85464774D01*
X120621939Y-85425000D01*
X120418061Y-85425000D01*
X120218102Y-85464774D01*
X120029744Y-85542795D01*
X119860226Y-85656063D01*
X119716063Y-85800226D01*
X119602795Y-85969744D01*
X119524774Y-86158102D01*
X119485000Y-86358061D01*
X119485000Y-86561939D01*
X119524774Y-86761898D01*
X119602795Y-86950256D01*
X119716063Y-87119774D01*
X119860226Y-87263937D01*
X120029744Y-87377205D01*
X120218102Y-87455226D01*
X120418061Y-87495000D01*
X120621939Y-87495000D01*
X120821898Y-87455226D01*
X121010256Y-87377205D01*
X121115783Y-87306695D01*
X121124774Y-87351898D01*
X121202795Y-87540256D01*
X121316063Y-87709774D01*
X121460226Y-87853937D01*
X121629744Y-87967205D01*
X121818102Y-88045226D01*
X122018061Y-88085000D01*
X122221939Y-88085000D01*
X122421898Y-88045226D01*
X122515000Y-88006661D01*
X122515001Y-92821818D01*
X122513937Y-92820226D01*
X122369774Y-92676063D01*
X122200256Y-92562795D01*
X122011898Y-92484774D01*
X121811939Y-92445000D01*
X121608061Y-92445000D01*
X121408102Y-92484774D01*
X121219744Y-92562795D01*
X121050226Y-92676063D01*
X120906063Y-92820226D01*
X120792795Y-92989744D01*
X120714774Y-93178102D01*
X120675000Y-93378061D01*
X120675000Y-93581939D01*
X120714774Y-93781898D01*
X120792795Y-93970256D01*
X120906063Y-94139774D01*
X120971289Y-94205000D01*
X120886063Y-94290226D01*
X120772795Y-94459744D01*
X120694774Y-94648102D01*
X120655000Y-94848061D01*
X120655000Y-95051939D01*
X120694774Y-95251898D01*
X120772795Y-95440256D01*
X120886063Y-95609774D01*
X121030226Y-95753937D01*
X121199744Y-95867205D01*
X121388102Y-95945226D01*
X121588061Y-95985000D01*
X121791939Y-95985000D01*
X121991898Y-95945226D01*
X122180256Y-95867205D01*
X122349774Y-95753937D01*
X122493937Y-95609774D01*
X122515001Y-95578250D01*
X122515001Y-96686521D01*
X122510719Y-96730000D01*
X122527805Y-96903490D01*
X122578412Y-97070313D01*
X122660590Y-97224059D01*
X122743468Y-97325046D01*
X122743471Y-97325049D01*
X122771184Y-97358817D01*
X122804952Y-97386530D01*
X123512709Y-98094287D01*
X123419744Y-98132795D01*
X123250226Y-98246063D01*
X123106063Y-98390226D01*
X122992795Y-98559744D01*
X122914774Y-98748102D01*
X122875000Y-98948061D01*
X122875000Y-99091576D01*
X122841939Y-99085000D01*
X122638061Y-99085000D01*
X122438102Y-99124774D01*
X122249744Y-99202795D01*
X122080226Y-99316063D01*
X121936063Y-99460226D01*
X121822795Y-99629744D01*
X121744774Y-99818102D01*
X121705000Y-100018061D01*
X121705000Y-100221939D01*
X121744774Y-100421898D01*
X121822795Y-100610256D01*
X121936063Y-100779774D01*
X122080226Y-100923937D01*
X122249744Y-101037205D01*
X122438102Y-101115226D01*
X122568098Y-101141084D01*
X122494774Y-101318102D01*
X122455000Y-101518061D01*
X122455000Y-101721939D01*
X122494774Y-101921898D01*
X122572795Y-102110256D01*
X122686063Y-102279774D01*
X122830226Y-102423937D01*
X122999744Y-102537205D01*
X123188102Y-102615226D01*
X123388061Y-102655000D01*
X123591939Y-102655000D01*
X123791898Y-102615226D01*
X123980256Y-102537205D01*
X124149774Y-102423937D01*
X124293937Y-102279774D01*
X124407205Y-102110256D01*
X124485226Y-101921898D01*
X124525000Y-101721939D01*
X124525000Y-101518061D01*
X124485226Y-101318102D01*
X124407205Y-101129744D01*
X124293937Y-100960226D01*
X124149774Y-100816063D01*
X123980256Y-100702795D01*
X123791898Y-100624774D01*
X123661902Y-100598916D01*
X123735226Y-100421898D01*
X123775000Y-100221939D01*
X123775000Y-100078424D01*
X123808061Y-100085000D01*
X124011939Y-100085000D01*
X124211898Y-100045226D01*
X124400256Y-99967205D01*
X124569774Y-99853937D01*
X124713937Y-99709774D01*
X124827205Y-99540256D01*
X124865713Y-99447291D01*
X125277856Y-99859435D01*
X125269744Y-99862795D01*
X125100226Y-99976063D01*
X124956063Y-100120226D01*
X124842795Y-100289744D01*
X124764774Y-100478102D01*
X124725000Y-100678061D01*
X124725000Y-100881939D01*
X124764774Y-101081898D01*
X124842795Y-101270256D01*
X124956063Y-101439774D01*
X125100226Y-101583937D01*
X125269744Y-101697205D01*
X125458102Y-101775226D01*
X125658061Y-101815000D01*
X125773338Y-101815000D01*
X125734774Y-101908102D01*
X125695000Y-102108061D01*
X125695000Y-102311939D01*
X125734774Y-102511898D01*
X125812795Y-102700256D01*
X125926063Y-102869774D01*
X126070226Y-103013937D01*
X126239744Y-103127205D01*
X126428102Y-103205226D01*
X126628061Y-103245000D01*
X126657356Y-103245000D01*
X126591696Y-103403517D01*
X126550000Y-103613137D01*
X126550000Y-103826863D01*
X126591696Y-104036483D01*
X126673485Y-104233940D01*
X126792225Y-104411647D01*
X126943353Y-104562775D01*
X127121060Y-104681515D01*
X127318517Y-104763304D01*
X127528137Y-104805000D01*
X127741863Y-104805000D01*
X127951483Y-104763304D01*
X128148940Y-104681515D01*
X128326647Y-104562775D01*
X128477775Y-104411647D01*
X128596515Y-104233940D01*
X128678304Y-104036483D01*
X128720000Y-103826863D01*
X128720000Y-103613137D01*
X128678304Y-103403517D01*
X128596515Y-103206060D01*
X128540201Y-103121780D01*
X128613470Y-103195049D01*
X128641183Y-103228817D01*
X128674951Y-103256530D01*
X128674953Y-103256532D01*
X128775941Y-103339411D01*
X128929686Y-103421589D01*
X128950682Y-103427958D01*
X129096510Y-103472195D01*
X129226523Y-103485000D01*
X129226531Y-103485000D01*
X129270000Y-103489281D01*
X129297096Y-103486613D01*
X129209744Y-103522795D01*
X129040226Y-103636063D01*
X128896063Y-103780226D01*
X128782795Y-103949744D01*
X128704774Y-104138102D01*
X128665000Y-104338061D01*
X128665000Y-104541939D01*
X128704774Y-104741898D01*
X128782795Y-104930256D01*
X128896063Y-105099774D01*
X129040226Y-105243937D01*
X129209744Y-105357205D01*
X129398102Y-105435226D01*
X129598061Y-105475000D01*
X129801413Y-105475000D01*
X129765000Y-105658061D01*
X129765000Y-105861939D01*
X129804774Y-106061898D01*
X129882795Y-106250256D01*
X129996063Y-106419774D01*
X130140226Y-106563937D01*
X130309744Y-106677205D01*
X130498102Y-106755226D01*
X130698061Y-106795000D01*
X130901939Y-106795000D01*
X131101898Y-106755226D01*
X131186573Y-106720152D01*
X131185000Y-106728061D01*
X131185000Y-106931939D01*
X131224774Y-107131898D01*
X131302795Y-107320256D01*
X131416063Y-107489774D01*
X131560226Y-107633937D01*
X131729744Y-107747205D01*
X131918102Y-107825226D01*
X132118061Y-107865000D01*
X132321939Y-107865000D01*
X132521898Y-107825226D01*
X132710256Y-107747205D01*
X132879774Y-107633937D01*
X133023937Y-107489774D01*
X133137205Y-107320256D01*
X133215226Y-107131898D01*
X133255000Y-106931939D01*
X133255000Y-106728061D01*
X133215226Y-106528102D01*
X133137205Y-106339744D01*
X133023937Y-106170226D01*
X132879774Y-106026063D01*
X132710256Y-105912795D01*
X132521898Y-105834774D01*
X132321939Y-105795000D01*
X132118061Y-105795000D01*
X131918102Y-105834774D01*
X131833427Y-105869848D01*
X131835000Y-105861939D01*
X131835000Y-105658061D01*
X131795226Y-105458102D01*
X131717205Y-105269744D01*
X131603937Y-105100226D01*
X131459774Y-104956063D01*
X131290256Y-104842795D01*
X131101898Y-104764774D01*
X130901939Y-104725000D01*
X130698587Y-104725000D01*
X130735000Y-104541939D01*
X130735000Y-104338061D01*
X130695226Y-104138102D01*
X130617205Y-103949744D01*
X130503937Y-103780226D01*
X130359774Y-103636063D01*
X130190256Y-103522795D01*
X130099011Y-103485000D01*
X134575488Y-103485000D01*
X134550000Y-103613137D01*
X134550000Y-103826863D01*
X134591696Y-104036483D01*
X134673485Y-104233940D01*
X134792225Y-104411647D01*
X134943353Y-104562775D01*
X135121060Y-104681515D01*
X135318517Y-104763304D01*
X135528137Y-104805000D01*
X135741863Y-104805000D01*
X135951483Y-104763304D01*
X136148940Y-104681515D01*
X136326647Y-104562775D01*
X136367390Y-104522032D01*
X136446063Y-104639774D01*
X136590226Y-104783937D01*
X136759744Y-104897205D01*
X136948102Y-104975226D01*
X137148061Y-105015000D01*
X137351939Y-105015000D01*
X137551898Y-104975226D01*
X137740256Y-104897205D01*
X137880072Y-104803783D01*
X137880226Y-104803937D01*
X138049744Y-104917205D01*
X138238102Y-104995226D01*
X138438061Y-105035000D01*
X138641939Y-105035000D01*
X138841898Y-104995226D01*
X139030256Y-104917205D01*
X139199774Y-104803937D01*
X139343937Y-104659774D01*
X139457205Y-104490256D01*
X139535226Y-104301898D01*
X139575000Y-104101939D01*
X139575000Y-103898061D01*
X139535226Y-103698102D01*
X139457205Y-103509744D01*
X139440672Y-103485000D01*
X141759374Y-103485000D01*
X141722795Y-103539744D01*
X141644774Y-103728102D01*
X141605000Y-103928061D01*
X141605000Y-104131939D01*
X141644774Y-104331898D01*
X141722795Y-104520256D01*
X141836063Y-104689774D01*
X141980226Y-104833937D01*
X142149744Y-104947205D01*
X142338102Y-105025226D01*
X142538061Y-105065000D01*
X142741939Y-105065000D01*
X142941898Y-105025226D01*
X143130256Y-104947205D01*
X143299774Y-104833937D01*
X143443937Y-104689774D01*
X143557205Y-104520256D01*
X143635226Y-104331898D01*
X143675000Y-104131939D01*
X143675000Y-103928061D01*
X143635226Y-103728102D01*
X143557205Y-103539744D01*
X143520626Y-103485000D01*
X146241289Y-103485000D01*
X146186063Y-103540226D01*
X146072795Y-103709744D01*
X145994774Y-103898102D01*
X145955000Y-104098061D01*
X145955000Y-104301939D01*
X145994774Y-104501898D01*
X146072795Y-104690256D01*
X146186063Y-104859774D01*
X146330226Y-105003937D01*
X146499744Y-105117205D01*
X146688102Y-105195226D01*
X146888061Y-105235000D01*
X146981623Y-105235000D01*
X147012795Y-105310256D01*
X147126063Y-105479774D01*
X147270226Y-105623937D01*
X147439744Y-105737205D01*
X147628102Y-105815226D01*
X147828061Y-105855000D01*
X148031939Y-105855000D01*
X148231898Y-105815226D01*
X148420256Y-105737205D01*
X148589774Y-105623937D01*
X148608711Y-105605000D01*
X150031447Y-105605000D01*
X150070000Y-105608797D01*
X150108553Y-105605000D01*
X150108561Y-105605000D01*
X150223887Y-105593641D01*
X150371860Y-105548754D01*
X150508233Y-105475862D01*
X150627764Y-105377764D01*
X150652347Y-105347811D01*
X150907163Y-105092994D01*
X150933468Y-105125046D01*
X150933471Y-105125049D01*
X150961184Y-105158817D01*
X150964807Y-105161790D01*
X150974774Y-105211898D01*
X151052795Y-105400256D01*
X151166063Y-105569774D01*
X151310226Y-105713937D01*
X151479744Y-105827205D01*
X151668102Y-105905226D01*
X151868061Y-105945000D01*
X152071939Y-105945000D01*
X152271898Y-105905226D01*
X152460256Y-105827205D01*
X152629774Y-105713937D01*
X152773937Y-105569774D01*
X152887205Y-105400256D01*
X152965226Y-105211898D01*
X153005000Y-105011939D01*
X153005000Y-104808061D01*
X152965226Y-104608102D01*
X152887205Y-104419744D01*
X152773937Y-104250226D01*
X152629774Y-104106063D01*
X152475000Y-104002647D01*
X152475000Y-102803031D01*
X152483490Y-102802195D01*
X152650313Y-102751589D01*
X152699621Y-102725234D01*
X152736063Y-102779774D01*
X152880226Y-102923937D01*
X153049744Y-103037205D01*
X153238102Y-103115226D01*
X153438061Y-103155000D01*
X153475000Y-103155000D01*
X153475000Y-103695752D01*
X153491423Y-103862499D01*
X153556324Y-104076447D01*
X153661717Y-104273623D01*
X153803552Y-104446449D01*
X153976378Y-104588284D01*
X154173554Y-104693676D01*
X154387502Y-104758577D01*
X154610000Y-104780491D01*
X154832499Y-104758577D01*
X155046447Y-104693676D01*
X155243623Y-104588284D01*
X155416449Y-104446449D01*
X155463362Y-104389285D01*
X155585269Y-104470741D01*
X155759978Y-104543108D01*
X155945448Y-104580000D01*
X156134552Y-104580000D01*
X156320022Y-104543108D01*
X156494731Y-104470741D01*
X156651964Y-104365681D01*
X156785681Y-104231964D01*
X156890741Y-104074731D01*
X156963108Y-103900022D01*
X157000000Y-103714552D01*
X157000000Y-103525448D01*
X156963108Y-103339978D01*
X156890741Y-103165269D01*
X156785681Y-103008036D01*
X156651964Y-102874319D01*
X156494731Y-102769259D01*
X156320022Y-102696892D01*
X156134552Y-102660000D01*
X155945448Y-102660000D01*
X155759978Y-102696892D01*
X155745000Y-102703096D01*
X155745000Y-102484248D01*
X155728577Y-102317501D01*
X155663676Y-102103553D01*
X155558284Y-101906377D01*
X155466863Y-101794980D01*
X155683402Y-101794980D01*
X159523470Y-105635049D01*
X159551183Y-105668817D01*
X159584951Y-105696530D01*
X159584953Y-105696532D01*
X159588253Y-105699240D01*
X159685941Y-105779411D01*
X159839687Y-105861589D01*
X160006510Y-105912195D01*
X160136523Y-105925000D01*
X160136533Y-105925000D01*
X160179999Y-105929281D01*
X160223465Y-105925000D01*
X162797321Y-105925000D01*
X162616377Y-106021716D01*
X162443551Y-106163551D01*
X162301716Y-106336377D01*
X162196324Y-106533554D01*
X162131423Y-106747502D01*
X162115000Y-106914249D01*
X162115000Y-107625752D01*
X162131423Y-107792499D01*
X162196324Y-108006447D01*
X162301717Y-108203623D01*
X162323364Y-108230000D01*
X155536637Y-108230000D01*
X155558284Y-108203623D01*
X155663676Y-108006446D01*
X155728577Y-107792498D01*
X155745000Y-107625751D01*
X155745000Y-106914248D01*
X155728577Y-106747501D01*
X155663676Y-106533553D01*
X155558284Y-106336377D01*
X155416449Y-106163551D01*
X155243623Y-106021716D01*
X155046446Y-105916324D01*
X154832498Y-105851423D01*
X154610000Y-105829509D01*
X154387501Y-105851423D01*
X154173553Y-105916324D01*
X153976377Y-106021716D01*
X153803551Y-106163551D01*
X153661716Y-106336377D01*
X153556324Y-106533554D01*
X153491423Y-106747502D01*
X153475000Y-106914249D01*
X153475000Y-107625752D01*
X153491423Y-107792499D01*
X153556324Y-108006447D01*
X153661717Y-108203623D01*
X153683364Y-108230000D01*
X153105595Y-108230000D01*
X153175226Y-108061898D01*
X153215000Y-107861939D01*
X153215000Y-107658061D01*
X153175226Y-107458102D01*
X153097205Y-107269744D01*
X152983937Y-107100226D01*
X152839774Y-106956063D01*
X152670256Y-106842795D01*
X152481898Y-106764774D01*
X152281939Y-106725000D01*
X152078061Y-106725000D01*
X151878102Y-106764774D01*
X151689744Y-106842795D01*
X151520226Y-106956063D01*
X151376063Y-107100226D01*
X151262795Y-107269744D01*
X151184774Y-107458102D01*
X151145000Y-107658061D01*
X151145000Y-107861939D01*
X151184774Y-108061898D01*
X151254405Y-108230000D01*
X144240903Y-108230000D01*
X144339774Y-108163937D01*
X144483937Y-108019774D01*
X144597205Y-107850256D01*
X144675226Y-107661898D01*
X144715000Y-107461939D01*
X144715000Y-107258061D01*
X144675226Y-107058102D01*
X144597205Y-106869744D01*
X144483937Y-106700226D01*
X144339774Y-106556063D01*
X144170256Y-106442795D01*
X143981898Y-106364774D01*
X143781939Y-106325000D01*
X143578061Y-106325000D01*
X143378102Y-106364774D01*
X143189744Y-106442795D01*
X143020226Y-106556063D01*
X142876063Y-106700226D01*
X142762795Y-106869744D01*
X142684774Y-107058102D01*
X142645000Y-107258061D01*
X142645000Y-107461939D01*
X142684774Y-107661898D01*
X142762795Y-107850256D01*
X142876063Y-108019774D01*
X143020226Y-108163937D01*
X143119097Y-108230000D01*
X140813711Y-108230000D01*
X140913937Y-108129774D01*
X141027205Y-107960256D01*
X141105226Y-107771898D01*
X141145000Y-107571939D01*
X141145000Y-107368061D01*
X141105226Y-107168102D01*
X141027205Y-106979744D01*
X140913937Y-106810226D01*
X140769774Y-106666063D01*
X140600256Y-106552795D01*
X140411898Y-106474774D01*
X140211939Y-106435000D01*
X140008061Y-106435000D01*
X139808102Y-106474774D01*
X139619744Y-106552795D01*
X139450226Y-106666063D01*
X139306063Y-106810226D01*
X139192795Y-106979744D01*
X139114774Y-107168102D01*
X139075000Y-107368061D01*
X139075000Y-107571939D01*
X139114774Y-107771898D01*
X139192795Y-107960256D01*
X139306063Y-108129774D01*
X139406289Y-108230000D01*
X138193711Y-108230000D01*
X138303937Y-108119774D01*
X138417205Y-107950256D01*
X138495226Y-107761898D01*
X138535000Y-107561939D01*
X138535000Y-107358061D01*
X138495226Y-107158102D01*
X138417205Y-106969744D01*
X138303937Y-106800226D01*
X138159774Y-106656063D01*
X137990256Y-106542795D01*
X137801898Y-106464774D01*
X137601939Y-106425000D01*
X137398061Y-106425000D01*
X137198102Y-106464774D01*
X137009744Y-106542795D01*
X136840226Y-106656063D01*
X136696063Y-106800226D01*
X136582795Y-106969744D01*
X136504774Y-107158102D01*
X136465000Y-107358061D01*
X136465000Y-107561939D01*
X136504774Y-107761898D01*
X136582795Y-107950256D01*
X136696063Y-108119774D01*
X136806289Y-108230000D01*
X135743711Y-108230000D01*
X135853937Y-108119774D01*
X135967205Y-107950256D01*
X136045226Y-107761898D01*
X136085000Y-107561939D01*
X136085000Y-107358061D01*
X136045226Y-107158102D01*
X135967205Y-106969744D01*
X135853937Y-106800226D01*
X135709774Y-106656063D01*
X135540256Y-106542795D01*
X135351898Y-106464774D01*
X135151939Y-106425000D01*
X134948061Y-106425000D01*
X134748102Y-106464774D01*
X134559744Y-106542795D01*
X134390226Y-106656063D01*
X134246063Y-106800226D01*
X134132795Y-106969744D01*
X134054774Y-107158102D01*
X134015000Y-107358061D01*
X134015000Y-107561939D01*
X134054774Y-107761898D01*
X134132795Y-107950256D01*
X134246063Y-108119774D01*
X134356289Y-108230000D01*
X123921478Y-108230000D01*
X124013400Y-108008081D01*
X124061894Y-107764286D01*
X124061894Y-107515714D01*
X124013400Y-107271919D01*
X123918276Y-107042269D01*
X123780177Y-106835589D01*
X123604411Y-106659823D01*
X123397731Y-106521724D01*
X123168081Y-106426600D01*
X122924286Y-106378106D01*
X122675714Y-106378106D01*
X122431919Y-106426600D01*
X122202269Y-106521724D01*
X121995589Y-106659823D01*
X121819823Y-106835589D01*
X121681724Y-107042269D01*
X121586600Y-107271919D01*
X121538106Y-107515714D01*
X121538106Y-107764286D01*
X121586600Y-108008081D01*
X121678522Y-108230000D01*
X119102279Y-108230000D01*
X118616106Y-108182330D01*
X118179503Y-108050512D01*
X117776814Y-107836399D01*
X117423387Y-107548150D01*
X117132673Y-107196739D01*
X116915760Y-106795564D01*
X116780894Y-106359886D01*
X116730000Y-105875664D01*
X116730000Y-105189033D01*
X117529545Y-105189033D01*
X117529545Y-105590967D01*
X117607958Y-105985179D01*
X117761772Y-106356518D01*
X117985075Y-106690714D01*
X118269286Y-106974925D01*
X118603482Y-107198228D01*
X118974821Y-107352042D01*
X119369033Y-107430455D01*
X119770967Y-107430455D01*
X120165179Y-107352042D01*
X120536518Y-107198228D01*
X120870714Y-106974925D01*
X121154925Y-106690714D01*
X121378228Y-106356518D01*
X121532042Y-105985179D01*
X121610455Y-105590967D01*
X121610455Y-105189033D01*
X121532042Y-104794821D01*
X121378228Y-104423482D01*
X121154925Y-104089286D01*
X120870714Y-103805075D01*
X120536518Y-103581772D01*
X120165179Y-103427958D01*
X119770967Y-103349545D01*
X119369033Y-103349545D01*
X118974821Y-103427958D01*
X118603482Y-103581772D01*
X118269286Y-103805075D01*
X117985075Y-104089286D01*
X117761772Y-104423482D01*
X117607958Y-104794821D01*
X117529545Y-105189033D01*
X116730000Y-105189033D01*
X116730000Y-98845000D01*
X116904476Y-98845000D01*
X117099606Y-98806186D01*
X117283414Y-98730050D01*
X117448837Y-98619518D01*
X117589518Y-98478837D01*
X117700050Y-98313414D01*
X117776186Y-98129606D01*
X117815000Y-97934476D01*
X117815000Y-97735524D01*
X117776186Y-97540394D01*
X117700050Y-97356586D01*
X117589518Y-97191163D01*
X117448837Y-97050482D01*
X117283414Y-96939950D01*
X117099606Y-96863814D01*
X116904476Y-96825000D01*
X116730000Y-96825000D01*
X116730000Y-96128061D01*
X118005000Y-96128061D01*
X118005000Y-96331939D01*
X118044774Y-96531898D01*
X118122795Y-96720256D01*
X118236063Y-96889774D01*
X118380226Y-97033937D01*
X118549744Y-97147205D01*
X118738102Y-97225226D01*
X118746593Y-97226915D01*
X118659950Y-97356586D01*
X118583814Y-97540394D01*
X118545000Y-97735524D01*
X118545000Y-97934476D01*
X118583814Y-98129606D01*
X118659950Y-98313414D01*
X118753664Y-98453668D01*
X118748102Y-98454774D01*
X118559744Y-98532795D01*
X118390226Y-98646063D01*
X118246063Y-98790226D01*
X118132795Y-98959744D01*
X118054774Y-99148102D01*
X118015000Y-99348061D01*
X118015000Y-99551939D01*
X118054774Y-99751898D01*
X118132795Y-99940256D01*
X118246063Y-100109774D01*
X118390226Y-100253937D01*
X118559744Y-100367205D01*
X118748102Y-100445226D01*
X118948061Y-100485000D01*
X119151939Y-100485000D01*
X119351898Y-100445226D01*
X119540256Y-100367205D01*
X119709774Y-100253937D01*
X119853937Y-100109774D01*
X119967205Y-99940256D01*
X120045226Y-99751898D01*
X120085000Y-99551939D01*
X120085000Y-99348061D01*
X120045226Y-99148102D01*
X119967205Y-98959744D01*
X119861351Y-98801321D01*
X120033414Y-98730050D01*
X120198837Y-98619518D01*
X120339518Y-98478837D01*
X120450050Y-98313414D01*
X120526186Y-98129606D01*
X120565000Y-97934476D01*
X120565000Y-97735524D01*
X120526186Y-97540394D01*
X120450050Y-97356586D01*
X120339518Y-97191163D01*
X120198837Y-97050482D01*
X120033414Y-96939950D01*
X119858752Y-96867602D01*
X119957205Y-96720256D01*
X120035226Y-96531898D01*
X120075000Y-96331939D01*
X120075000Y-96128061D01*
X120035226Y-95928102D01*
X119957205Y-95739744D01*
X119843937Y-95570226D01*
X119699774Y-95426063D01*
X119530256Y-95312795D01*
X119341898Y-95234774D01*
X119141939Y-95195000D01*
X118938061Y-95195000D01*
X118738102Y-95234774D01*
X118549744Y-95312795D01*
X118380226Y-95426063D01*
X118236063Y-95570226D01*
X118122795Y-95739744D01*
X118044774Y-95928102D01*
X118005000Y-96128061D01*
X116730000Y-96128061D01*
X116730000Y-90910000D01*
X116904476Y-90910000D01*
X117099606Y-90871186D01*
X117283414Y-90795050D01*
X117448837Y-90684518D01*
X117589518Y-90543837D01*
X117700050Y-90378414D01*
X117776186Y-90194606D01*
X117815000Y-89999476D01*
X117815000Y-89800524D01*
X117776186Y-89605394D01*
X117700050Y-89421586D01*
X117589518Y-89256163D01*
X117448837Y-89115482D01*
X117283414Y-89004950D01*
X117099606Y-88928814D01*
X116904476Y-88890000D01*
X116730000Y-88890000D01*
X116730000Y-88188061D01*
X118005000Y-88188061D01*
X118005000Y-88391939D01*
X118044774Y-88591898D01*
X118122795Y-88780256D01*
X118236063Y-88949774D01*
X118380226Y-89093937D01*
X118549744Y-89207205D01*
X118738102Y-89285226D01*
X118749542Y-89287502D01*
X118659950Y-89421586D01*
X118583814Y-89605394D01*
X118545000Y-89800524D01*
X118545000Y-89999476D01*
X118583814Y-90194606D01*
X118659950Y-90378414D01*
X118762511Y-90531908D01*
X118748102Y-90534774D01*
X118559744Y-90612795D01*
X118390226Y-90726063D01*
X118246063Y-90870226D01*
X118132795Y-91039744D01*
X118054774Y-91228102D01*
X118015000Y-91428061D01*
X118015000Y-91631939D01*
X118054774Y-91831898D01*
X118132795Y-92020256D01*
X118246063Y-92189774D01*
X118390226Y-92333937D01*
X118559744Y-92447205D01*
X118748102Y-92525226D01*
X118948061Y-92565000D01*
X119151939Y-92565000D01*
X119351898Y-92525226D01*
X119540256Y-92447205D01*
X119709774Y-92333937D01*
X119853937Y-92189774D01*
X119967205Y-92020256D01*
X120045226Y-91831898D01*
X120085000Y-91631939D01*
X120085000Y-91428061D01*
X120045226Y-91228102D01*
X119967205Y-91039744D01*
X119853937Y-90870226D01*
X119853347Y-90869636D01*
X120033414Y-90795050D01*
X120198837Y-90684518D01*
X120339518Y-90543837D01*
X120450050Y-90378414D01*
X120526186Y-90194606D01*
X120565000Y-89999476D01*
X120565000Y-89800524D01*
X120526186Y-89605394D01*
X120450050Y-89421586D01*
X120339518Y-89256163D01*
X120198837Y-89115482D01*
X120033414Y-89004950D01*
X119856135Y-88931518D01*
X119957205Y-88780256D01*
X120035226Y-88591898D01*
X120075000Y-88391939D01*
X120075000Y-88188061D01*
X120035226Y-87988102D01*
X119957205Y-87799744D01*
X119843937Y-87630226D01*
X119699774Y-87486063D01*
X119530256Y-87372795D01*
X119341898Y-87294774D01*
X119141939Y-87255000D01*
X118938061Y-87255000D01*
X118738102Y-87294774D01*
X118549744Y-87372795D01*
X118380226Y-87486063D01*
X118236063Y-87630226D01*
X118122795Y-87799744D01*
X118044774Y-87988102D01*
X118005000Y-88188061D01*
X116730000Y-88188061D01*
X116730000Y-82189033D01*
X117529545Y-82189033D01*
X117529545Y-82590967D01*
X117607958Y-82985179D01*
X117761772Y-83356518D01*
X117985075Y-83690714D01*
X118269286Y-83974925D01*
X118603482Y-84198228D01*
X118974821Y-84352042D01*
X119369033Y-84430455D01*
X119770967Y-84430455D01*
X120165179Y-84352042D01*
X120536518Y-84198228D01*
X120870714Y-83974925D01*
X121154925Y-83690714D01*
X121378228Y-83356518D01*
X121532042Y-82985179D01*
X121610455Y-82590967D01*
X121610455Y-82189033D01*
X121532042Y-81794821D01*
X121378228Y-81423482D01*
X121154925Y-81089286D01*
X120870714Y-80805075D01*
X120536518Y-80581772D01*
X120165179Y-80427958D01*
X119770967Y-80349545D01*
X119369033Y-80349545D01*
X118974821Y-80427958D01*
X118603482Y-80581772D01*
X118269286Y-80805075D01*
X117985075Y-81089286D01*
X117761772Y-81423482D01*
X117607958Y-81794821D01*
X117529545Y-82189033D01*
X116730000Y-82189033D01*
X116730000Y-81922279D01*
X116777670Y-81436107D01*
X116909489Y-80999502D01*
X117123600Y-80596815D01*
X117411848Y-80243388D01*
X117763261Y-79952673D01*
X118164439Y-79735758D01*
X118600113Y-79600894D01*
X119084344Y-79550000D01*
X178037721Y-79550000D01*
X178523893Y-79597670D01*
G37*
%TD.AperFunction*%
%TD*%
M02*
