M48
; DRILL file {KiCad (5.1.8-0-10_14)} date Friday, August 13, 2021 at 03:07:14 PM
; FORMAT={3:3/ absolute / metric / suppress leading zeros}
; #@! TF.CreationDate,2021-08-13T15:07:14+08:00
; #@! TF.GenerationSoftware,Kicad,Pcbnew,(5.1.8-0-10_14)
FMAT,2
METRIC,TZ
T1C0.350
T2C0.400
T3C0.600
T4C1.000
T5C0.650
T6C0.750
T7C0.900
%
G90
G05
T1
X158405Y-92565
X158405Y-93840
X158405Y-95115
X159680Y-92565
X159680Y-93840
X159680Y-95115
X160955Y-92565
X160955Y-93840
X160955Y-95115
T2
X119040Y-88290
X119040Y-96230
X119050Y-91530
X119050Y-99450
X120520Y-86460
X121690Y-94950
X121710Y-93480
X122120Y-87050
X122740Y-100120
X123490Y-101620
X123910Y-99050
X125760Y-100780
X126730Y-102210
X126920Y-86960
X127795Y-94785
X127890Y-88452
X128600Y-95750
X128880Y-89880
X129120Y-91470
X129700Y-104440
X130450Y-94780
X130540Y-90760
X130560Y-87100
X130800Y-105760
X130930Y-97140
X131520Y-88120
X131530Y-94120
X132220Y-106830
X132230Y-98390
X132650Y-94550
X132720Y-90300
X133750Y-95180
X134840Y-94570
X135050Y-107460
X135890Y-87680
X135890Y-86490
X135920Y-89860
X136530Y-98360
X136640Y-96210
X137150Y-94090
X137250Y-103980
X137500Y-107460
X137520Y-89780
X137550Y-90810
X137790Y-95480
X137850Y-97140
X137860Y-98300
X138540Y-104000
X139260Y-95980
X139320Y-97670
X140110Y-107470
X140130Y-86030
X140370Y-93690
X142440Y-89030
X142640Y-104030
X143680Y-107360
X144310Y-87970
X144360Y-99200
X145610Y-86790
X145640Y-88430
X146640Y-88430
X146990Y-104200
X147640Y-86820
X147640Y-88330
X147930Y-104820
X148720Y-88370
X148740Y-86850
X149620Y-98780
X149920Y-86950
X150000Y-103300
X151070Y-97160
X151100Y-86910
X151310Y-88490
X151590Y-101930
X151970Y-104910
X152180Y-107760
X152530Y-96790
X152560Y-100100
X152610Y-92530
X153390Y-88690
X153540Y-102120
X154090Y-97320
X154640Y-100060
X155140Y-99170
X156160Y-87430
X156190Y-86360
X157472Y-91792
X157520Y-96140
X158460Y-87060
X159080Y-91540
X159520Y-87060
X159900Y-98740
X160285Y-96065
X160435Y-87975
X160580Y-91540
X160610Y-100100
X161285Y-96046
X161802Y-91688
X161990Y-95160
X162020Y-92830
X162310Y-89240
X162409Y-101830
X162720Y-85970
X162740Y-99180
X163010Y-97250
X163270Y-89830
X163738Y-99118
X163980Y-88930
X164324Y-90085
X164540Y-97660
X164737Y-99068
X164820Y-92520
X165290Y-91330
X165400Y-90120
X165449Y-98341
X165510Y-102120
X166490Y-99120
X166780Y-97080
X166830Y-92510
X167100Y-87270
X167280Y-91050
X167750Y-95590
X167870Y-97080
X167890Y-100060
X168130Y-89520
X169330Y-95520
X169350Y-93498
X169356Y-94498
X169620Y-98870
X171350Y-102010
X173140Y-90480
X173350Y-88310
X173820Y-96750
X174350Y-93240
X174430Y-87050
X174510Y-90490
X175170Y-88960
X175190Y-87790
X175430Y-92450
X176700Y-101810
X177660Y-99600
X177980Y-95970
X178280Y-89430
X178320Y-90880
X178360Y-92420
X179790Y-101750
T4
X124540Y-81090
X124540Y-83630
X127080Y-81090
X127080Y-83630
X129620Y-81090
X129620Y-83630
X132160Y-81090
X132160Y-83630
X134700Y-81090
X134700Y-83630
X137240Y-81090
X137240Y-83630
X139780Y-81090
X139780Y-83630
X142320Y-81090
X142320Y-83630
X144860Y-81090
X144860Y-83630
X147400Y-81090
X147400Y-83630
X149940Y-81090
X149940Y-83630
X152480Y-81090
X152480Y-83630
X155020Y-81090
X155020Y-83630
X157560Y-81090
X157560Y-83630
X160100Y-81090
X160100Y-83630
X162640Y-81090
X162640Y-83630
X165180Y-81090
X165180Y-83630
X167720Y-81090
X167720Y-83630
X170260Y-81090
X170260Y-83630
X172800Y-81090
X172800Y-83630
T5
X156040Y-103620
X161820Y-103620
T6
X116805Y-89900
X119555Y-89900
X116805Y-97835
X119555Y-97835
T7
X127635Y-103720
X135635Y-103720
T3
G00X154610Y-102540
M15
G01X154610Y-103640
M16
G05
G00X154610Y-106970
M15
G01X154610Y-107570
M16
G05
G00X163250Y-102540
M15
G01X163250Y-103640
M16
G05
G00X163250Y-106970
M15
G01X163250Y-107570
M16
G05
T0
M30
