%TF.GenerationSoftware,KiCad,Pcbnew,(5.1.8-0-10_14)*%
%TF.CreationDate,2021-08-20T13:19:01+08:00*%
%TF.ProjectId,microbyte-rp2040,6d696372-6f62-4797-9465-2d7270323034,rev?*%
%TF.SameCoordinates,Original*%
%TF.FileFunction,Copper,L2,Inr*%
%TF.FilePolarity,Positive*%
%FSLAX46Y46*%
G04 Gerber Fmt 4.6, Leading zero omitted, Abs format (unit mm)*
G04 Created by KiCad (PCBNEW (5.1.8-0-10_14)) date 2021-08-20 13:19:01*
%MOMM*%
%LPD*%
G01*
G04 APERTURE LIST*
%TA.AperFunction,ComponentPad*%
%ADD10C,0.600000*%
%TD*%
%TA.AperFunction,ComponentPad*%
%ADD11O,1.700000X1.700000*%
%TD*%
%TA.AperFunction,ComponentPad*%
%ADD12R,1.700000X1.700000*%
%TD*%
%TA.AperFunction,ComponentPad*%
%ADD13O,1.000000X2.100000*%
%TD*%
%TA.AperFunction,ComponentPad*%
%ADD14O,1.000000X1.600000*%
%TD*%
%TA.AperFunction,ViaPad*%
%ADD15C,0.800000*%
%TD*%
%TA.AperFunction,Conductor*%
%ADD16C,0.500000*%
%TD*%
%TA.AperFunction,Conductor*%
%ADD17C,0.254000*%
%TD*%
%TA.AperFunction,Conductor*%
%ADD18C,0.100000*%
%TD*%
G04 APERTURE END LIST*
D10*
%TO.N,GND*%
%TO.C,U4*%
X160955000Y-95115000D03*
X159680000Y-95115000D03*
X158405000Y-95115000D03*
X160955000Y-93840000D03*
X159680000Y-93840000D03*
X158405000Y-93840000D03*
X160955000Y-92565000D03*
X159680000Y-92565000D03*
X158405000Y-92565000D03*
%TD*%
D11*
%TO.N,SPI0_MISO*%
%TO.C,J4*%
X172800000Y-81090000D03*
%TO.N,GND*%
X172800000Y-83630000D03*
%TO.N,SPI0_MOSI*%
X170260000Y-81090000D03*
%TO.N,+BATT*%
X170260000Y-83630000D03*
%TO.N,SPI0_SCK*%
X167720000Y-81090000D03*
%TO.N,GPIO16*%
X167720000Y-83630000D03*
%TO.N,GND*%
X165180000Y-81090000D03*
%TO.N,GPIO17*%
X165180000Y-83630000D03*
%TO.N,GPIO5*%
X162640000Y-81090000D03*
%TO.N,GPIO18*%
X162640000Y-83630000D03*
%TO.N,GND*%
X160100000Y-81090000D03*
%TO.N,GPIO19*%
X160100000Y-83630000D03*
%TO.N,SWDCK*%
X157560000Y-81090000D03*
%TO.N,GPIO20*%
X157560000Y-83630000D03*
%TO.N,SWDIO*%
X155020000Y-81090000D03*
%TO.N,GND*%
X155020000Y-83630000D03*
%TO.N,ADC0*%
X152480000Y-81090000D03*
%TO.N,GPIO21*%
X152480000Y-83630000D03*
%TO.N,ADC1*%
X149940000Y-81090000D03*
%TO.N,GPIO22*%
X149940000Y-83630000D03*
%TO.N,GND*%
X147400000Y-81090000D03*
%TO.N,GPIO23*%
X147400000Y-83630000D03*
%TO.N,ADC2*%
X144860000Y-81090000D03*
%TO.N,+3V3*%
X144860000Y-83630000D03*
%TO.N,ADC3*%
X142320000Y-81090000D03*
%TO.N,GPIO24*%
X142320000Y-83630000D03*
%TO.N,GND*%
X139780000Y-81090000D03*
%TO.N,GPIO25*%
X139780000Y-83630000D03*
%TO.N,Net-(J4-Pad12)*%
X137240000Y-81090000D03*
%TO.N,Net-(J4-Pad11)*%
X137240000Y-83630000D03*
%TO.N,UART0_RX*%
X134700000Y-81090000D03*
%TO.N,GND*%
X134700000Y-83630000D03*
%TO.N,UART0_TX*%
X132160000Y-81090000D03*
%TO.N,+3.3VA*%
X132160000Y-83630000D03*
%TO.N,GND*%
X129620000Y-81090000D03*
%TO.N,I2C1_SCL*%
X129620000Y-83630000D03*
%TO.N,+5V*%
X127080000Y-81090000D03*
%TO.N,I2C1_SDA*%
X127080000Y-83630000D03*
%TO.N,+5V*%
X124540000Y-81090000D03*
D12*
%TO.N,+3V3*%
X124540000Y-83630000D03*
%TD*%
D13*
%TO.N,Net-(J3-PadS1)*%
%TO.C,J3*%
X163250000Y-103090000D03*
X154610000Y-103090000D03*
D14*
X154610000Y-107270000D03*
X163250000Y-107270000D03*
%TD*%
D15*
%TO.N,GND*%
X162409447Y-101830442D03*
X154640000Y-100059979D03*
X163980000Y-88930000D03*
X165449174Y-98340826D03*
X162720000Y-85970000D03*
X166830000Y-92510000D03*
X132720000Y-90300000D03*
X160610000Y-100099990D03*
X153540000Y-102120000D03*
X158460000Y-87060000D03*
X159520000Y-87060000D03*
X152530000Y-96790000D03*
X138680000Y-99000000D03*
X136610000Y-99010000D03*
X137250000Y-103980000D03*
X138540000Y-104000000D03*
X125630000Y-99590000D03*
X132220000Y-106830000D03*
X126730000Y-104920000D03*
X128440000Y-105910000D03*
X129790000Y-106800000D03*
X126620000Y-106900000D03*
X151190000Y-91600000D03*
X167280000Y-91050000D03*
X129700000Y-104440000D03*
X130800000Y-105760000D03*
X152180000Y-107760000D03*
X146990000Y-104200000D03*
X143680000Y-107360000D03*
X127889704Y-88452413D03*
X164937026Y-101566582D03*
X171450000Y-97660000D03*
X171000000Y-102890000D03*
X171779990Y-100850000D03*
X167390000Y-86580000D03*
X124290000Y-87940000D03*
X124600000Y-94950000D03*
X140340000Y-104880000D03*
X118550000Y-86250000D03*
X117690000Y-87450000D03*
X117690000Y-91270000D03*
X118560000Y-92560000D03*
X118600000Y-95220000D03*
X117690000Y-96500000D03*
X118590000Y-101520000D03*
X117690000Y-100250000D03*
X176950000Y-99370000D03*
X126050000Y-91909998D03*
X129330000Y-91920000D03*
X126980000Y-98880000D03*
X130400000Y-99000000D03*
X131780000Y-99920000D03*
X134160000Y-104480000D03*
X152480000Y-92350000D03*
X144310000Y-87970000D03*
%TO.N,+3V3*%
X155140000Y-99170000D03*
X130560000Y-87100000D03*
X162740000Y-99180000D03*
X160435145Y-87974905D03*
X159900000Y-98740000D03*
X164540000Y-97660000D03*
X164820000Y-92520000D03*
X149620000Y-98780000D03*
X154090000Y-97320000D03*
X140130000Y-86030000D03*
X130540000Y-90760000D03*
X145670000Y-98810000D03*
X146530000Y-98800000D03*
X145670000Y-99650000D03*
X146540000Y-99650000D03*
X175540000Y-99370000D03*
X131530000Y-94320010D03*
X153168022Y-91329967D03*
%TO.N,+5V*%
X149440000Y-104860000D03*
X143190000Y-94390000D03*
%TO.N,+1V1*%
X159080260Y-91540011D03*
X157520000Y-96139989D03*
%TO.N,+3.3VA*%
X151860000Y-97880000D03*
%TO.N,SDIO_DAT0*%
X163270000Y-89830000D03*
X128600000Y-95750000D03*
X172520000Y-88960000D03*
%TO.N,SDIO_CLK*%
X161802168Y-91687833D03*
X130450000Y-94780000D03*
X172500000Y-90090000D03*
%TO.N,SDIO_CMD*%
X132650000Y-94550000D03*
X160580006Y-91540021D03*
X172530000Y-91300000D03*
%TO.N,SDIO_DAT3*%
X165290000Y-91330000D03*
X133750000Y-95180000D03*
X172480000Y-93850000D03*
%TO.N,SDIO_DAT2*%
X165400000Y-90120000D03*
X134840000Y-94570000D03*
X172490000Y-92590000D03*
%TO.N,SDIO_DAT1*%
X164323719Y-90084934D03*
X127795025Y-94784975D03*
X172510000Y-87840000D03*
%TO.N,GPIO5*%
X169349949Y-93497609D03*
%TO.N,SPI0_MISO*%
X169355621Y-94497595D03*
%TO.N,SPI0_MOSI*%
X169330000Y-95520000D03*
%TO.N,SPI0_SCK*%
X167750000Y-95590000D03*
%TO.N,UART0_RX*%
X167870000Y-97080000D03*
%TO.N,UART0_TX*%
X166780000Y-97080000D03*
%TO.N,SWDCK*%
X157760000Y-86300000D03*
%TO.N,SWDIO*%
X156760081Y-86312819D03*
%TO.N,ADC3*%
X145840059Y-86890070D03*
%TO.N,ADC2*%
X146840060Y-86888890D03*
%TO.N,ADC1*%
X147840000Y-86900000D03*
%TO.N,ADC0*%
X147840000Y-87970000D03*
%TO.N,GPIO16*%
X156530000Y-87790000D03*
%TO.N,RESET*%
X157472133Y-91792488D03*
X127840000Y-90580000D03*
%TO.N,QSPI_CS*%
X163010000Y-97250000D03*
X135890000Y-86490000D03*
%TO.N,QSPI_D3*%
X160284846Y-96064895D03*
X137520000Y-89780000D03*
%TO.N,QSPI_CLK*%
X161284673Y-96046167D03*
X142440000Y-89030000D03*
%TO.N,QSPI_D0*%
X163738102Y-99118389D03*
X137550000Y-90810000D03*
%TO.N,QSPI_D2*%
X164736841Y-99068147D03*
X135920000Y-89860000D03*
%TO.N,QSPI_D1*%
X161990000Y-95160000D03*
X135889629Y-87679629D03*
%TO.N,LED2_BUILT_IN*%
X162310000Y-89240000D03*
X131520000Y-88120000D03*
%TO.N,LED1_BUILT_IN*%
X162019979Y-92830000D03*
X166490000Y-99120000D03*
X128880000Y-89880000D03*
%TO.N,Net-(J3-PadA4)*%
X163590000Y-101380020D03*
X148900000Y-99980000D03*
%TD*%
D16*
%TO.N,Net-(J3-PadS1)*%
X163250000Y-107270000D02*
X163250000Y-103090000D01*
X154610000Y-107270000D02*
X154610000Y-103090000D01*
X163250000Y-107270000D02*
X154610000Y-107270000D01*
%TD*%
D17*
%TO.N,GND*%
X178523893Y-79597670D02*
X178960498Y-79729489D01*
X179363185Y-79943600D01*
X179716612Y-80231848D01*
X180007327Y-80583261D01*
X180224242Y-80984439D01*
X180359106Y-81420113D01*
X180410000Y-81904344D01*
X180410000Y-84446694D01*
X180327731Y-84391724D01*
X180098081Y-84296600D01*
X179854286Y-84248106D01*
X179605714Y-84248106D01*
X179361919Y-84296600D01*
X179132269Y-84391724D01*
X178925589Y-84529823D01*
X178749823Y-84705589D01*
X178611724Y-84912269D01*
X178516600Y-85141919D01*
X178468106Y-85385714D01*
X178468106Y-85634286D01*
X178516600Y-85878081D01*
X178611724Y-86107731D01*
X178749823Y-86314411D01*
X178925589Y-86490177D01*
X179132269Y-86628276D01*
X179361919Y-86723400D01*
X179605714Y-86771894D01*
X179854286Y-86771894D01*
X180098081Y-86723400D01*
X180327731Y-86628276D01*
X180410000Y-86573306D01*
X180410001Y-105857711D01*
X180362330Y-106343894D01*
X180230512Y-106780497D01*
X180016399Y-107183186D01*
X179728150Y-107536613D01*
X179376739Y-107827327D01*
X178975564Y-108044240D01*
X178539886Y-108179106D01*
X178055664Y-108230000D01*
X164176637Y-108230000D01*
X164198284Y-108203623D01*
X164303676Y-108006446D01*
X164368577Y-107792498D01*
X164385000Y-107625751D01*
X164385000Y-106914248D01*
X164368577Y-106747501D01*
X164303676Y-106533553D01*
X164198284Y-106336377D01*
X164135000Y-106259265D01*
X164135000Y-105189033D01*
X175529545Y-105189033D01*
X175529545Y-105590967D01*
X175607958Y-105985179D01*
X175761772Y-106356518D01*
X175985075Y-106690714D01*
X176269286Y-106974925D01*
X176603482Y-107198228D01*
X176974821Y-107352042D01*
X177369033Y-107430455D01*
X177770967Y-107430455D01*
X178165179Y-107352042D01*
X178536518Y-107198228D01*
X178870714Y-106974925D01*
X179154925Y-106690714D01*
X179378228Y-106356518D01*
X179532042Y-105985179D01*
X179610455Y-105590967D01*
X179610455Y-105189033D01*
X179532042Y-104794821D01*
X179378228Y-104423482D01*
X179154925Y-104089286D01*
X178870714Y-103805075D01*
X178536518Y-103581772D01*
X178165179Y-103427958D01*
X177770967Y-103349545D01*
X177369033Y-103349545D01*
X176974821Y-103427958D01*
X176603482Y-103581772D01*
X176269286Y-103805075D01*
X175985075Y-104089286D01*
X175761772Y-104423482D01*
X175607958Y-104794821D01*
X175529545Y-105189033D01*
X164135000Y-105189033D01*
X164135000Y-104350735D01*
X164198284Y-104273623D01*
X164303676Y-104076447D01*
X164368577Y-103862499D01*
X164385000Y-103695752D01*
X164385000Y-102484248D01*
X164368577Y-102317501D01*
X164309844Y-102123887D01*
X164393937Y-102039794D01*
X164507205Y-101870276D01*
X164585226Y-101681918D01*
X164625000Y-101481959D01*
X164625000Y-101278081D01*
X164585226Y-101078122D01*
X164507205Y-100889764D01*
X164393937Y-100720246D01*
X164249774Y-100576083D01*
X164080256Y-100462815D01*
X163891898Y-100384794D01*
X163691939Y-100345020D01*
X163488061Y-100345020D01*
X163288102Y-100384794D01*
X163099744Y-100462815D01*
X162930226Y-100576083D01*
X162786063Y-100720246D01*
X162672795Y-100889764D01*
X162594774Y-101078122D01*
X162555000Y-101278081D01*
X162555000Y-101481959D01*
X162582381Y-101619616D01*
X162443551Y-101733551D01*
X162301716Y-101906377D01*
X162196324Y-102103554D01*
X162131423Y-102317502D01*
X162115000Y-102484249D01*
X162115000Y-102703096D01*
X162100022Y-102696892D01*
X161914552Y-102660000D01*
X161725448Y-102660000D01*
X161539978Y-102696892D01*
X161365269Y-102769259D01*
X161208036Y-102874319D01*
X161074319Y-103008036D01*
X160969259Y-103165269D01*
X160896892Y-103339978D01*
X160860000Y-103525448D01*
X160860000Y-103714552D01*
X160896892Y-103900022D01*
X160969259Y-104074731D01*
X161074319Y-104231964D01*
X161208036Y-104365681D01*
X161365269Y-104470741D01*
X161539978Y-104543108D01*
X161725448Y-104580000D01*
X161914552Y-104580000D01*
X162100022Y-104543108D01*
X162274731Y-104470741D01*
X162365001Y-104410425D01*
X162365000Y-106259265D01*
X162301716Y-106336377D01*
X162275727Y-106385000D01*
X155584273Y-106385000D01*
X155558284Y-106336377D01*
X155495000Y-106259265D01*
X155495000Y-104410425D01*
X155585269Y-104470741D01*
X155759978Y-104543108D01*
X155945448Y-104580000D01*
X156134552Y-104580000D01*
X156320022Y-104543108D01*
X156494731Y-104470741D01*
X156651964Y-104365681D01*
X156785681Y-104231964D01*
X156890741Y-104074731D01*
X156963108Y-103900022D01*
X157000000Y-103714552D01*
X157000000Y-103525448D01*
X156963108Y-103339978D01*
X156890741Y-103165269D01*
X156785681Y-103008036D01*
X156651964Y-102874319D01*
X156494731Y-102769259D01*
X156320022Y-102696892D01*
X156134552Y-102660000D01*
X155945448Y-102660000D01*
X155759978Y-102696892D01*
X155745000Y-102703096D01*
X155745000Y-102484248D01*
X155728577Y-102317501D01*
X155663676Y-102103553D01*
X155558284Y-101906377D01*
X155416449Y-101733551D01*
X155243623Y-101591716D01*
X155046446Y-101486324D01*
X154832498Y-101421423D01*
X154610000Y-101399509D01*
X154387501Y-101421423D01*
X154173553Y-101486324D01*
X153976377Y-101591716D01*
X153803551Y-101733551D01*
X153661716Y-101906377D01*
X153556324Y-102103554D01*
X153491423Y-102317502D01*
X153475000Y-102484249D01*
X153475000Y-103695752D01*
X153491423Y-103862499D01*
X153556324Y-104076447D01*
X153661717Y-104273623D01*
X153725001Y-104350734D01*
X153725000Y-106259265D01*
X153661716Y-106336377D01*
X153556324Y-106533554D01*
X153491423Y-106747502D01*
X153475000Y-106914249D01*
X153475000Y-107625752D01*
X153491423Y-107792499D01*
X153556324Y-108006447D01*
X153661717Y-108203623D01*
X153683364Y-108230000D01*
X123921478Y-108230000D01*
X124013400Y-108008081D01*
X124061894Y-107764286D01*
X124061894Y-107515714D01*
X124013400Y-107271919D01*
X123918276Y-107042269D01*
X123780177Y-106835589D01*
X123604411Y-106659823D01*
X123397731Y-106521724D01*
X123168081Y-106426600D01*
X122924286Y-106378106D01*
X122675714Y-106378106D01*
X122431919Y-106426600D01*
X122202269Y-106521724D01*
X121995589Y-106659823D01*
X121819823Y-106835589D01*
X121681724Y-107042269D01*
X121586600Y-107271919D01*
X121538106Y-107515714D01*
X121538106Y-107764286D01*
X121586600Y-108008081D01*
X121678522Y-108230000D01*
X119102279Y-108230000D01*
X118616106Y-108182330D01*
X118179503Y-108050512D01*
X117776814Y-107836399D01*
X117423387Y-107548150D01*
X117132673Y-107196739D01*
X116915760Y-106795564D01*
X116780894Y-106359886D01*
X116730000Y-105875664D01*
X116730000Y-105189033D01*
X117529545Y-105189033D01*
X117529545Y-105590967D01*
X117607958Y-105985179D01*
X117761772Y-106356518D01*
X117985075Y-106690714D01*
X118269286Y-106974925D01*
X118603482Y-107198228D01*
X118974821Y-107352042D01*
X119369033Y-107430455D01*
X119770967Y-107430455D01*
X120165179Y-107352042D01*
X120536518Y-107198228D01*
X120870714Y-106974925D01*
X121154925Y-106690714D01*
X121378228Y-106356518D01*
X121532042Y-105985179D01*
X121610455Y-105590967D01*
X121610455Y-105189033D01*
X121532042Y-104794821D01*
X121378228Y-104423482D01*
X121154925Y-104089286D01*
X120870714Y-103805075D01*
X120583459Y-103613137D01*
X126550000Y-103613137D01*
X126550000Y-103826863D01*
X126591696Y-104036483D01*
X126673485Y-104233940D01*
X126792225Y-104411647D01*
X126943353Y-104562775D01*
X127121060Y-104681515D01*
X127318517Y-104763304D01*
X127528137Y-104805000D01*
X127741863Y-104805000D01*
X127951483Y-104763304D01*
X128148940Y-104681515D01*
X128326647Y-104562775D01*
X128477775Y-104411647D01*
X128596515Y-104233940D01*
X128678304Y-104036483D01*
X128720000Y-103826863D01*
X128720000Y-103613137D01*
X134550000Y-103613137D01*
X134550000Y-103826863D01*
X134591696Y-104036483D01*
X134673485Y-104233940D01*
X134792225Y-104411647D01*
X134943353Y-104562775D01*
X135121060Y-104681515D01*
X135318517Y-104763304D01*
X135528137Y-104805000D01*
X135741863Y-104805000D01*
X135951483Y-104763304D01*
X135964140Y-104758061D01*
X148405000Y-104758061D01*
X148405000Y-104961939D01*
X148444774Y-105161898D01*
X148522795Y-105350256D01*
X148636063Y-105519774D01*
X148780226Y-105663937D01*
X148949744Y-105777205D01*
X149138102Y-105855226D01*
X149338061Y-105895000D01*
X149541939Y-105895000D01*
X149741898Y-105855226D01*
X149930256Y-105777205D01*
X150099774Y-105663937D01*
X150243937Y-105519774D01*
X150357205Y-105350256D01*
X150435226Y-105161898D01*
X150475000Y-104961939D01*
X150475000Y-104758061D01*
X150435226Y-104558102D01*
X150357205Y-104369744D01*
X150243937Y-104200226D01*
X150099774Y-104056063D01*
X149930256Y-103942795D01*
X149741898Y-103864774D01*
X149541939Y-103825000D01*
X149338061Y-103825000D01*
X149138102Y-103864774D01*
X148949744Y-103942795D01*
X148780226Y-104056063D01*
X148636063Y-104200226D01*
X148522795Y-104369744D01*
X148444774Y-104558102D01*
X148405000Y-104758061D01*
X135964140Y-104758061D01*
X136148940Y-104681515D01*
X136326647Y-104562775D01*
X136477775Y-104411647D01*
X136596515Y-104233940D01*
X136678304Y-104036483D01*
X136720000Y-103826863D01*
X136720000Y-103613137D01*
X136678304Y-103403517D01*
X136596515Y-103206060D01*
X136477775Y-103028353D01*
X136326647Y-102877225D01*
X136148940Y-102758485D01*
X135951483Y-102676696D01*
X135741863Y-102635000D01*
X135528137Y-102635000D01*
X135318517Y-102676696D01*
X135121060Y-102758485D01*
X134943353Y-102877225D01*
X134792225Y-103028353D01*
X134673485Y-103206060D01*
X134591696Y-103403517D01*
X134550000Y-103613137D01*
X128720000Y-103613137D01*
X128678304Y-103403517D01*
X128596515Y-103206060D01*
X128477775Y-103028353D01*
X128326647Y-102877225D01*
X128148940Y-102758485D01*
X127951483Y-102676696D01*
X127741863Y-102635000D01*
X127528137Y-102635000D01*
X127318517Y-102676696D01*
X127121060Y-102758485D01*
X126943353Y-102877225D01*
X126792225Y-103028353D01*
X126673485Y-103206060D01*
X126591696Y-103403517D01*
X126550000Y-103613137D01*
X120583459Y-103613137D01*
X120536518Y-103581772D01*
X120165179Y-103427958D01*
X119770967Y-103349545D01*
X119369033Y-103349545D01*
X118974821Y-103427958D01*
X118603482Y-103581772D01*
X118269286Y-103805075D01*
X117985075Y-104089286D01*
X117761772Y-104423482D01*
X117607958Y-104794821D01*
X117529545Y-105189033D01*
X116730000Y-105189033D01*
X116730000Y-98708061D01*
X144635000Y-98708061D01*
X144635000Y-98911939D01*
X144674774Y-99111898D01*
X144723694Y-99230000D01*
X144674774Y-99348102D01*
X144635000Y-99548061D01*
X144635000Y-99751939D01*
X144674774Y-99951898D01*
X144752795Y-100140256D01*
X144866063Y-100309774D01*
X145010226Y-100453937D01*
X145179744Y-100567205D01*
X145368102Y-100645226D01*
X145568061Y-100685000D01*
X145771939Y-100685000D01*
X145971898Y-100645226D01*
X146105000Y-100590093D01*
X146238102Y-100645226D01*
X146438061Y-100685000D01*
X146641939Y-100685000D01*
X146841898Y-100645226D01*
X147030256Y-100567205D01*
X147199774Y-100453937D01*
X147343937Y-100309774D01*
X147457205Y-100140256D01*
X147535226Y-99951898D01*
X147549912Y-99878061D01*
X147865000Y-99878061D01*
X147865000Y-100081939D01*
X147904774Y-100281898D01*
X147982795Y-100470256D01*
X148096063Y-100639774D01*
X148240226Y-100783937D01*
X148409744Y-100897205D01*
X148598102Y-100975226D01*
X148798061Y-101015000D01*
X149001939Y-101015000D01*
X149201898Y-100975226D01*
X149390256Y-100897205D01*
X149559774Y-100783937D01*
X149703937Y-100639774D01*
X149817205Y-100470256D01*
X149895226Y-100281898D01*
X149935000Y-100081939D01*
X149935000Y-99878061D01*
X149914825Y-99776633D01*
X149921898Y-99775226D01*
X150110256Y-99697205D01*
X150279774Y-99583937D01*
X150423937Y-99439774D01*
X150537205Y-99270256D01*
X150615226Y-99081898D01*
X150617978Y-99068061D01*
X154105000Y-99068061D01*
X154105000Y-99271939D01*
X154144774Y-99471898D01*
X154222795Y-99660256D01*
X154336063Y-99829774D01*
X154480226Y-99973937D01*
X154649744Y-100087205D01*
X154838102Y-100165226D01*
X155038061Y-100205000D01*
X155241939Y-100205000D01*
X155441898Y-100165226D01*
X155630256Y-100087205D01*
X155799774Y-99973937D01*
X155943937Y-99829774D01*
X156057205Y-99660256D01*
X156135226Y-99471898D01*
X156175000Y-99271939D01*
X156175000Y-99068061D01*
X156135226Y-98868102D01*
X156057205Y-98679744D01*
X156029354Y-98638061D01*
X158865000Y-98638061D01*
X158865000Y-98841939D01*
X158904774Y-99041898D01*
X158982795Y-99230256D01*
X159096063Y-99399774D01*
X159240226Y-99543937D01*
X159409744Y-99657205D01*
X159598102Y-99735226D01*
X159798061Y-99775000D01*
X160001939Y-99775000D01*
X160201898Y-99735226D01*
X160390256Y-99657205D01*
X160559774Y-99543937D01*
X160703937Y-99399774D01*
X160817205Y-99230256D01*
X160880246Y-99078061D01*
X161705000Y-99078061D01*
X161705000Y-99281939D01*
X161744774Y-99481898D01*
X161822795Y-99670256D01*
X161936063Y-99839774D01*
X162080226Y-99983937D01*
X162249744Y-100097205D01*
X162438102Y-100175226D01*
X162638061Y-100215000D01*
X162841939Y-100215000D01*
X163041898Y-100175226D01*
X163230256Y-100097205D01*
X163293909Y-100054674D01*
X163436204Y-100113615D01*
X163636163Y-100153389D01*
X163840041Y-100153389D01*
X164040000Y-100113615D01*
X164228358Y-100035594D01*
X164281751Y-99999918D01*
X164434943Y-100063373D01*
X164634902Y-100103147D01*
X164838780Y-100103147D01*
X165038739Y-100063373D01*
X165227097Y-99985352D01*
X165396615Y-99872084D01*
X165540778Y-99727921D01*
X165596097Y-99645130D01*
X165686063Y-99779774D01*
X165830226Y-99923937D01*
X165999744Y-100037205D01*
X166188102Y-100115226D01*
X166388061Y-100155000D01*
X166591939Y-100155000D01*
X166791898Y-100115226D01*
X166980256Y-100037205D01*
X167149774Y-99923937D01*
X167293937Y-99779774D01*
X167407205Y-99610256D01*
X167485226Y-99421898D01*
X167515825Y-99268061D01*
X174505000Y-99268061D01*
X174505000Y-99471939D01*
X174544774Y-99671898D01*
X174622795Y-99860256D01*
X174736063Y-100029774D01*
X174880226Y-100173937D01*
X175049744Y-100287205D01*
X175238102Y-100365226D01*
X175438061Y-100405000D01*
X175641939Y-100405000D01*
X175841898Y-100365226D01*
X176030256Y-100287205D01*
X176199774Y-100173937D01*
X176343937Y-100029774D01*
X176457205Y-99860256D01*
X176535226Y-99671898D01*
X176575000Y-99471939D01*
X176575000Y-99268061D01*
X176535226Y-99068102D01*
X176457205Y-98879744D01*
X176343937Y-98710226D01*
X176199774Y-98566063D01*
X176030256Y-98452795D01*
X175841898Y-98374774D01*
X175641939Y-98335000D01*
X175438061Y-98335000D01*
X175238102Y-98374774D01*
X175049744Y-98452795D01*
X174880226Y-98566063D01*
X174736063Y-98710226D01*
X174622795Y-98879744D01*
X174544774Y-99068102D01*
X174505000Y-99268061D01*
X167515825Y-99268061D01*
X167525000Y-99221939D01*
X167525000Y-99018061D01*
X167485226Y-98818102D01*
X167407205Y-98629744D01*
X167293937Y-98460226D01*
X167149774Y-98316063D01*
X166980256Y-98202795D01*
X166791898Y-98124774D01*
X166742760Y-98115000D01*
X166881939Y-98115000D01*
X167081898Y-98075226D01*
X167270256Y-97997205D01*
X167325000Y-97960626D01*
X167379744Y-97997205D01*
X167568102Y-98075226D01*
X167768061Y-98115000D01*
X167971939Y-98115000D01*
X168171898Y-98075226D01*
X168360256Y-97997205D01*
X168529774Y-97883937D01*
X168673937Y-97739774D01*
X168787205Y-97570256D01*
X168865226Y-97381898D01*
X168905000Y-97181939D01*
X168905000Y-96978061D01*
X168865226Y-96778102D01*
X168787205Y-96589744D01*
X168673937Y-96420226D01*
X168529774Y-96276063D01*
X168528500Y-96275211D01*
X168553937Y-96249774D01*
X168570810Y-96224521D01*
X168670226Y-96323937D01*
X168839744Y-96437205D01*
X169028102Y-96515226D01*
X169228061Y-96555000D01*
X169431939Y-96555000D01*
X169631898Y-96515226D01*
X169820256Y-96437205D01*
X169989774Y-96323937D01*
X170133937Y-96179774D01*
X170247205Y-96010256D01*
X170325226Y-95821898D01*
X170365000Y-95621939D01*
X170365000Y-95418061D01*
X170325226Y-95218102D01*
X170247205Y-95029744D01*
X170246020Y-95027970D01*
X170272826Y-94987851D01*
X170350847Y-94799493D01*
X170390621Y-94599534D01*
X170390621Y-94395656D01*
X170350847Y-94195697D01*
X170272826Y-94007339D01*
X170263484Y-93993358D01*
X170267154Y-93987865D01*
X170345175Y-93799507D01*
X170355408Y-93748061D01*
X171445000Y-93748061D01*
X171445000Y-93951939D01*
X171484774Y-94151898D01*
X171562795Y-94340256D01*
X171676063Y-94509774D01*
X171820226Y-94653937D01*
X171989744Y-94767205D01*
X172178102Y-94845226D01*
X172378061Y-94885000D01*
X172581939Y-94885000D01*
X172781898Y-94845226D01*
X172970256Y-94767205D01*
X173139774Y-94653937D01*
X173283937Y-94509774D01*
X173397205Y-94340256D01*
X173475226Y-94151898D01*
X173515000Y-93951939D01*
X173515000Y-93748061D01*
X173475226Y-93548102D01*
X173397205Y-93359744D01*
X173308831Y-93227483D01*
X173407205Y-93080256D01*
X173485226Y-92891898D01*
X173525000Y-92691939D01*
X173525000Y-92488061D01*
X173485226Y-92288102D01*
X173407205Y-92099744D01*
X173321794Y-91971917D01*
X173333937Y-91959774D01*
X173447205Y-91790256D01*
X173525226Y-91601898D01*
X173565000Y-91401939D01*
X173565000Y-91198061D01*
X173525226Y-90998102D01*
X173447205Y-90809744D01*
X173355536Y-90672551D01*
X173417205Y-90580256D01*
X173495226Y-90391898D01*
X173535000Y-90191939D01*
X173535000Y-89988061D01*
X173495226Y-89788102D01*
X173417205Y-89599744D01*
X173377263Y-89539966D01*
X173437205Y-89450256D01*
X173515226Y-89261898D01*
X173555000Y-89061939D01*
X173555000Y-88858061D01*
X173515226Y-88658102D01*
X173437205Y-88469744D01*
X173385604Y-88392517D01*
X173427205Y-88330256D01*
X173505226Y-88141898D01*
X173545000Y-87941939D01*
X173545000Y-87738061D01*
X173505226Y-87538102D01*
X173427205Y-87349744D01*
X173313937Y-87180226D01*
X173169774Y-87036063D01*
X173000256Y-86922795D01*
X172811898Y-86844774D01*
X172611939Y-86805000D01*
X172408061Y-86805000D01*
X172208102Y-86844774D01*
X172019744Y-86922795D01*
X171850226Y-87036063D01*
X171706063Y-87180226D01*
X171592795Y-87349744D01*
X171514774Y-87538102D01*
X171475000Y-87738061D01*
X171475000Y-87941939D01*
X171514774Y-88141898D01*
X171592795Y-88330256D01*
X171644396Y-88407483D01*
X171602795Y-88469744D01*
X171524774Y-88658102D01*
X171485000Y-88858061D01*
X171485000Y-89061939D01*
X171524774Y-89261898D01*
X171602795Y-89450256D01*
X171642737Y-89510034D01*
X171582795Y-89599744D01*
X171504774Y-89788102D01*
X171465000Y-89988061D01*
X171465000Y-90191939D01*
X171504774Y-90391898D01*
X171582795Y-90580256D01*
X171674464Y-90717449D01*
X171612795Y-90809744D01*
X171534774Y-90998102D01*
X171495000Y-91198061D01*
X171495000Y-91401939D01*
X171534774Y-91601898D01*
X171612795Y-91790256D01*
X171698206Y-91918083D01*
X171686063Y-91930226D01*
X171572795Y-92099744D01*
X171494774Y-92288102D01*
X171455000Y-92488061D01*
X171455000Y-92691939D01*
X171494774Y-92891898D01*
X171572795Y-93080256D01*
X171661169Y-93212517D01*
X171562795Y-93359744D01*
X171484774Y-93548102D01*
X171445000Y-93748061D01*
X170355408Y-93748061D01*
X170384949Y-93599548D01*
X170384949Y-93395670D01*
X170345175Y-93195711D01*
X170267154Y-93007353D01*
X170153886Y-92837835D01*
X170009723Y-92693672D01*
X169840205Y-92580404D01*
X169651847Y-92502383D01*
X169451888Y-92462609D01*
X169248010Y-92462609D01*
X169048051Y-92502383D01*
X168859693Y-92580404D01*
X168690175Y-92693672D01*
X168546012Y-92837835D01*
X168432744Y-93007353D01*
X168354723Y-93195711D01*
X168314949Y-93395670D01*
X168314949Y-93599548D01*
X168354723Y-93799507D01*
X168432744Y-93987865D01*
X168442086Y-94001846D01*
X168438416Y-94007339D01*
X168360395Y-94195697D01*
X168320621Y-94395656D01*
X168320621Y-94599534D01*
X168349745Y-94745953D01*
X168240256Y-94672795D01*
X168051898Y-94594774D01*
X167851939Y-94555000D01*
X167648061Y-94555000D01*
X167448102Y-94594774D01*
X167259744Y-94672795D01*
X167090226Y-94786063D01*
X166946063Y-94930226D01*
X166832795Y-95099744D01*
X166754774Y-95288102D01*
X166715000Y-95488061D01*
X166715000Y-95691939D01*
X166754774Y-95891898D01*
X166818191Y-96045000D01*
X166678061Y-96045000D01*
X166478102Y-96084774D01*
X166289744Y-96162795D01*
X166120226Y-96276063D01*
X165976063Y-96420226D01*
X165862795Y-96589744D01*
X165784774Y-96778102D01*
X165745000Y-96978061D01*
X165745000Y-97181939D01*
X165784774Y-97381898D01*
X165862795Y-97570256D01*
X165976063Y-97739774D01*
X166120226Y-97883937D01*
X166289744Y-97997205D01*
X166478102Y-98075226D01*
X166527240Y-98085000D01*
X166388061Y-98085000D01*
X166188102Y-98124774D01*
X165999744Y-98202795D01*
X165830226Y-98316063D01*
X165686063Y-98460226D01*
X165630744Y-98543017D01*
X165540778Y-98408373D01*
X165396615Y-98264210D01*
X165385864Y-98257026D01*
X165457205Y-98150256D01*
X165535226Y-97961898D01*
X165575000Y-97761939D01*
X165575000Y-97558061D01*
X165535226Y-97358102D01*
X165457205Y-97169744D01*
X165343937Y-97000226D01*
X165199774Y-96856063D01*
X165030256Y-96742795D01*
X164841898Y-96664774D01*
X164641939Y-96625000D01*
X164438061Y-96625000D01*
X164238102Y-96664774D01*
X164049744Y-96742795D01*
X163948270Y-96810598D01*
X163927205Y-96759744D01*
X163813937Y-96590226D01*
X163669774Y-96446063D01*
X163500256Y-96332795D01*
X163311898Y-96254774D01*
X163111939Y-96215000D01*
X162908061Y-96215000D01*
X162708102Y-96254774D01*
X162519744Y-96332795D01*
X162350226Y-96446063D01*
X162206063Y-96590226D01*
X162092795Y-96759744D01*
X162014774Y-96948102D01*
X161975000Y-97148061D01*
X161975000Y-97351939D01*
X162014774Y-97551898D01*
X162092795Y-97740256D01*
X162206063Y-97909774D01*
X162350226Y-98053937D01*
X162519744Y-98167205D01*
X162521912Y-98168103D01*
X162438102Y-98184774D01*
X162249744Y-98262795D01*
X162080226Y-98376063D01*
X161936063Y-98520226D01*
X161822795Y-98689744D01*
X161744774Y-98878102D01*
X161705000Y-99078061D01*
X160880246Y-99078061D01*
X160895226Y-99041898D01*
X160935000Y-98841939D01*
X160935000Y-98638061D01*
X160895226Y-98438102D01*
X160817205Y-98249744D01*
X160703937Y-98080226D01*
X160559774Y-97936063D01*
X160390256Y-97822795D01*
X160201898Y-97744774D01*
X160001939Y-97705000D01*
X159798061Y-97705000D01*
X159598102Y-97744774D01*
X159409744Y-97822795D01*
X159240226Y-97936063D01*
X159096063Y-98080226D01*
X158982795Y-98249744D01*
X158904774Y-98438102D01*
X158865000Y-98638061D01*
X156029354Y-98638061D01*
X155943937Y-98510226D01*
X155799774Y-98366063D01*
X155630256Y-98252795D01*
X155441898Y-98174774D01*
X155241939Y-98135000D01*
X155038061Y-98135000D01*
X154838102Y-98174774D01*
X154649744Y-98252795D01*
X154480226Y-98366063D01*
X154336063Y-98510226D01*
X154222795Y-98679744D01*
X154144774Y-98868102D01*
X154105000Y-99068061D01*
X150617978Y-99068061D01*
X150655000Y-98881939D01*
X150655000Y-98678061D01*
X150615226Y-98478102D01*
X150537205Y-98289744D01*
X150423937Y-98120226D01*
X150279774Y-97976063D01*
X150110256Y-97862795D01*
X149921898Y-97784774D01*
X149888150Y-97778061D01*
X150825000Y-97778061D01*
X150825000Y-97981939D01*
X150864774Y-98181898D01*
X150942795Y-98370256D01*
X151056063Y-98539774D01*
X151200226Y-98683937D01*
X151369744Y-98797205D01*
X151558102Y-98875226D01*
X151758061Y-98915000D01*
X151961939Y-98915000D01*
X152161898Y-98875226D01*
X152350256Y-98797205D01*
X152519774Y-98683937D01*
X152663937Y-98539774D01*
X152777205Y-98370256D01*
X152855226Y-98181898D01*
X152895000Y-97981939D01*
X152895000Y-97778061D01*
X152855226Y-97578102D01*
X152777205Y-97389744D01*
X152663937Y-97220226D01*
X152661772Y-97218061D01*
X153055000Y-97218061D01*
X153055000Y-97421939D01*
X153094774Y-97621898D01*
X153172795Y-97810256D01*
X153286063Y-97979774D01*
X153430226Y-98123937D01*
X153599744Y-98237205D01*
X153788102Y-98315226D01*
X153988061Y-98355000D01*
X154191939Y-98355000D01*
X154391898Y-98315226D01*
X154580256Y-98237205D01*
X154749774Y-98123937D01*
X154893937Y-97979774D01*
X155007205Y-97810256D01*
X155085226Y-97621898D01*
X155125000Y-97421939D01*
X155125000Y-97218061D01*
X155085226Y-97018102D01*
X155007205Y-96829744D01*
X154893937Y-96660226D01*
X154749774Y-96516063D01*
X154580256Y-96402795D01*
X154391898Y-96324774D01*
X154191939Y-96285000D01*
X153988061Y-96285000D01*
X153788102Y-96324774D01*
X153599744Y-96402795D01*
X153430226Y-96516063D01*
X153286063Y-96660226D01*
X153172795Y-96829744D01*
X153094774Y-97018102D01*
X153055000Y-97218061D01*
X152661772Y-97218061D01*
X152519774Y-97076063D01*
X152350256Y-96962795D01*
X152161898Y-96884774D01*
X151961939Y-96845000D01*
X151758061Y-96845000D01*
X151558102Y-96884774D01*
X151369744Y-96962795D01*
X151200226Y-97076063D01*
X151056063Y-97220226D01*
X150942795Y-97389744D01*
X150864774Y-97578102D01*
X150825000Y-97778061D01*
X149888150Y-97778061D01*
X149721939Y-97745000D01*
X149518061Y-97745000D01*
X149318102Y-97784774D01*
X149129744Y-97862795D01*
X148960226Y-97976063D01*
X148816063Y-98120226D01*
X148702795Y-98289744D01*
X148624774Y-98478102D01*
X148585000Y-98678061D01*
X148585000Y-98881939D01*
X148605175Y-98983367D01*
X148598102Y-98984774D01*
X148409744Y-99062795D01*
X148240226Y-99176063D01*
X148096063Y-99320226D01*
X147982795Y-99489744D01*
X147904774Y-99678102D01*
X147865000Y-99878061D01*
X147549912Y-99878061D01*
X147575000Y-99751939D01*
X147575000Y-99548061D01*
X147535226Y-99348102D01*
X147479235Y-99212929D01*
X147525226Y-99101898D01*
X147565000Y-98901939D01*
X147565000Y-98698061D01*
X147525226Y-98498102D01*
X147447205Y-98309744D01*
X147333937Y-98140226D01*
X147189774Y-97996063D01*
X147020256Y-97882795D01*
X146831898Y-97804774D01*
X146631939Y-97765000D01*
X146428061Y-97765000D01*
X146228102Y-97804774D01*
X146087929Y-97862836D01*
X145971898Y-97814774D01*
X145771939Y-97775000D01*
X145568061Y-97775000D01*
X145368102Y-97814774D01*
X145179744Y-97892795D01*
X145010226Y-98006063D01*
X144866063Y-98150226D01*
X144752795Y-98319744D01*
X144674774Y-98508102D01*
X144635000Y-98708061D01*
X116730000Y-98708061D01*
X116730000Y-94683036D01*
X126760025Y-94683036D01*
X126760025Y-94886914D01*
X126799799Y-95086873D01*
X126877820Y-95275231D01*
X126991088Y-95444749D01*
X127135251Y-95588912D01*
X127304769Y-95702180D01*
X127493127Y-95780201D01*
X127565000Y-95794497D01*
X127565000Y-95851939D01*
X127604774Y-96051898D01*
X127682795Y-96240256D01*
X127796063Y-96409774D01*
X127940226Y-96553937D01*
X128109744Y-96667205D01*
X128298102Y-96745226D01*
X128498061Y-96785000D01*
X128701939Y-96785000D01*
X128901898Y-96745226D01*
X129090256Y-96667205D01*
X129259774Y-96553937D01*
X129403937Y-96409774D01*
X129517205Y-96240256D01*
X129595226Y-96051898D01*
X129635000Y-95851939D01*
X129635000Y-95648061D01*
X129595226Y-95448102D01*
X129517205Y-95259744D01*
X129403937Y-95090226D01*
X129259774Y-94946063D01*
X129090256Y-94832795D01*
X128901898Y-94754774D01*
X128830025Y-94740478D01*
X128830025Y-94683036D01*
X128829036Y-94678061D01*
X129415000Y-94678061D01*
X129415000Y-94881939D01*
X129454774Y-95081898D01*
X129532795Y-95270256D01*
X129646063Y-95439774D01*
X129790226Y-95583937D01*
X129959744Y-95697205D01*
X130148102Y-95775226D01*
X130348061Y-95815000D01*
X130551939Y-95815000D01*
X130751898Y-95775226D01*
X130940256Y-95697205D01*
X131109774Y-95583937D01*
X131253937Y-95439774D01*
X131324357Y-95334382D01*
X131428061Y-95355010D01*
X131631939Y-95355010D01*
X131831898Y-95315236D01*
X131916487Y-95280198D01*
X131990226Y-95353937D01*
X132159744Y-95467205D01*
X132348102Y-95545226D01*
X132548061Y-95585000D01*
X132751939Y-95585000D01*
X132794014Y-95576631D01*
X132832795Y-95670256D01*
X132946063Y-95839774D01*
X133090226Y-95983937D01*
X133259744Y-96097205D01*
X133448102Y-96175226D01*
X133648061Y-96215000D01*
X133851939Y-96215000D01*
X134051898Y-96175226D01*
X134240256Y-96097205D01*
X134328787Y-96038050D01*
X156485000Y-96038050D01*
X156485000Y-96241928D01*
X156524774Y-96441887D01*
X156602795Y-96630245D01*
X156716063Y-96799763D01*
X156860226Y-96943926D01*
X157029744Y-97057194D01*
X157218102Y-97135215D01*
X157418061Y-97174989D01*
X157621939Y-97174989D01*
X157821898Y-97135215D01*
X158010256Y-97057194D01*
X158179774Y-96943926D01*
X158323937Y-96799763D01*
X158437205Y-96630245D01*
X158515226Y-96441887D01*
X158555000Y-96241928D01*
X158555000Y-96038422D01*
X158676061Y-96014574D01*
X158846351Y-95944408D01*
X158849425Y-95942763D01*
X158859936Y-95749541D01*
X158405000Y-95294605D01*
X158390858Y-95308748D01*
X158211253Y-95129143D01*
X158225395Y-95115000D01*
X158584605Y-95115000D01*
X158761969Y-95292364D01*
X158780426Y-95386061D01*
X158850592Y-95556351D01*
X158852237Y-95559425D01*
X159039201Y-95569596D01*
X159039541Y-95569936D01*
X159042500Y-95569775D01*
X159045459Y-95569936D01*
X159045799Y-95569596D01*
X159232763Y-95559425D01*
X159303562Y-95389397D01*
X159323055Y-95292340D01*
X159500395Y-95115000D01*
X159323031Y-94937636D01*
X159304574Y-94843939D01*
X159234408Y-94673649D01*
X159232763Y-94670575D01*
X159045799Y-94660404D01*
X159045459Y-94660064D01*
X159042500Y-94660225D01*
X159039541Y-94660064D01*
X159039201Y-94660404D01*
X158852237Y-94670575D01*
X158781438Y-94840603D01*
X158761945Y-94937660D01*
X158584605Y-95115000D01*
X158225395Y-95115000D01*
X157770459Y-94660064D01*
X157577237Y-94670575D01*
X157506438Y-94840603D01*
X157470172Y-95021176D01*
X157470016Y-95104989D01*
X157418061Y-95104989D01*
X157218102Y-95144763D01*
X157029744Y-95222784D01*
X156860226Y-95336052D01*
X156716063Y-95480215D01*
X156602795Y-95649733D01*
X156524774Y-95838091D01*
X156485000Y-96038050D01*
X134328787Y-96038050D01*
X134409774Y-95983937D01*
X134553937Y-95839774D01*
X134667205Y-95670256D01*
X134697571Y-95596946D01*
X134738061Y-95605000D01*
X134941939Y-95605000D01*
X135141898Y-95565226D01*
X135330256Y-95487205D01*
X135499774Y-95373937D01*
X135643937Y-95229774D01*
X135757205Y-95060256D01*
X135835226Y-94871898D01*
X135875000Y-94671939D01*
X135875000Y-94468061D01*
X135839197Y-94288061D01*
X142155000Y-94288061D01*
X142155000Y-94491939D01*
X142194774Y-94691898D01*
X142272795Y-94880256D01*
X142386063Y-95049774D01*
X142530226Y-95193937D01*
X142699744Y-95307205D01*
X142888102Y-95385226D01*
X143088061Y-95425000D01*
X143291939Y-95425000D01*
X143491898Y-95385226D01*
X143680256Y-95307205D01*
X143849774Y-95193937D01*
X143993937Y-95049774D01*
X144107205Y-94880256D01*
X144185226Y-94691898D01*
X144225000Y-94491939D01*
X144225000Y-94474541D01*
X157950064Y-94474541D01*
X157950225Y-94477500D01*
X157950064Y-94480459D01*
X157950404Y-94480799D01*
X157960575Y-94667763D01*
X158130603Y-94738562D01*
X158227660Y-94758055D01*
X158405000Y-94935395D01*
X158582364Y-94758031D01*
X158676061Y-94739574D01*
X158846351Y-94669408D01*
X158849425Y-94667763D01*
X158859596Y-94480799D01*
X158859936Y-94480459D01*
X158859775Y-94477500D01*
X158859936Y-94474541D01*
X159225064Y-94474541D01*
X159225225Y-94477500D01*
X159225064Y-94480459D01*
X159225404Y-94480799D01*
X159235575Y-94667763D01*
X159405603Y-94738562D01*
X159502660Y-94758055D01*
X159680000Y-94935395D01*
X159857364Y-94758031D01*
X159951061Y-94739574D01*
X160121351Y-94669408D01*
X160124425Y-94667763D01*
X160134596Y-94480799D01*
X160134936Y-94480459D01*
X160134775Y-94477500D01*
X160134936Y-94474541D01*
X160134596Y-94474201D01*
X160124425Y-94287237D01*
X159954397Y-94216438D01*
X159857340Y-94196945D01*
X159680000Y-94019605D01*
X159502636Y-94196969D01*
X159408939Y-94215426D01*
X159238649Y-94285592D01*
X159235575Y-94287237D01*
X159225404Y-94474201D01*
X159225064Y-94474541D01*
X158859936Y-94474541D01*
X158859596Y-94474201D01*
X158849425Y-94287237D01*
X158679397Y-94216438D01*
X158582340Y-94196945D01*
X158405000Y-94019605D01*
X158227636Y-94196969D01*
X158133939Y-94215426D01*
X157963649Y-94285592D01*
X157960575Y-94287237D01*
X157950404Y-94474201D01*
X157950064Y-94474541D01*
X144225000Y-94474541D01*
X144225000Y-94288061D01*
X144185226Y-94088102D01*
X144119885Y-93930355D01*
X157469829Y-93930355D01*
X157505426Y-94111061D01*
X157575592Y-94281351D01*
X157577237Y-94284425D01*
X157770459Y-94294936D01*
X158225395Y-93840000D01*
X158584605Y-93840000D01*
X158761969Y-94017364D01*
X158780426Y-94111061D01*
X158850592Y-94281351D01*
X158852237Y-94284425D01*
X159039201Y-94294596D01*
X159039541Y-94294936D01*
X159042500Y-94294775D01*
X159045459Y-94294936D01*
X159045799Y-94294596D01*
X159232763Y-94284425D01*
X159303562Y-94114397D01*
X159323055Y-94017340D01*
X159500395Y-93840000D01*
X159859605Y-93840000D01*
X160036969Y-94017364D01*
X160055426Y-94111061D01*
X160125592Y-94281351D01*
X160127237Y-94284425D01*
X160314201Y-94294596D01*
X160314541Y-94294936D01*
X160317500Y-94294775D01*
X160320459Y-94294936D01*
X160320799Y-94294596D01*
X160507763Y-94284425D01*
X160578562Y-94114397D01*
X160598055Y-94017340D01*
X160775395Y-93840000D01*
X160598031Y-93662636D01*
X160579574Y-93568939D01*
X160509408Y-93398649D01*
X160507763Y-93395575D01*
X160320799Y-93385404D01*
X160320459Y-93385064D01*
X160317500Y-93385225D01*
X160314541Y-93385064D01*
X160314201Y-93385404D01*
X160127237Y-93395575D01*
X160056438Y-93565603D01*
X160036945Y-93662660D01*
X159859605Y-93840000D01*
X159500395Y-93840000D01*
X159323031Y-93662636D01*
X159304574Y-93568939D01*
X159234408Y-93398649D01*
X159232763Y-93395575D01*
X159045799Y-93385404D01*
X159045459Y-93385064D01*
X159042500Y-93385225D01*
X159039541Y-93385064D01*
X159039201Y-93385404D01*
X158852237Y-93395575D01*
X158781438Y-93565603D01*
X158761945Y-93662660D01*
X158584605Y-93840000D01*
X158225395Y-93840000D01*
X157770459Y-93385064D01*
X157577237Y-93395575D01*
X157506438Y-93565603D01*
X157470172Y-93746176D01*
X157469829Y-93930355D01*
X144119885Y-93930355D01*
X144107205Y-93899744D01*
X143993937Y-93730226D01*
X143849774Y-93586063D01*
X143680256Y-93472795D01*
X143491898Y-93394774D01*
X143291939Y-93355000D01*
X143088061Y-93355000D01*
X142888102Y-93394774D01*
X142699744Y-93472795D01*
X142530226Y-93586063D01*
X142386063Y-93730226D01*
X142272795Y-93899744D01*
X142194774Y-94088102D01*
X142155000Y-94288061D01*
X135839197Y-94288061D01*
X135835226Y-94268102D01*
X135757205Y-94079744D01*
X135643937Y-93910226D01*
X135499774Y-93766063D01*
X135330256Y-93652795D01*
X135141898Y-93574774D01*
X134941939Y-93535000D01*
X134738061Y-93535000D01*
X134538102Y-93574774D01*
X134349744Y-93652795D01*
X134180226Y-93766063D01*
X134036063Y-93910226D01*
X133922795Y-94079744D01*
X133892429Y-94153054D01*
X133851939Y-94145000D01*
X133648061Y-94145000D01*
X133605986Y-94153369D01*
X133567205Y-94059744D01*
X133453937Y-93890226D01*
X133309774Y-93746063D01*
X133140256Y-93632795D01*
X132951898Y-93554774D01*
X132751939Y-93515000D01*
X132548061Y-93515000D01*
X132348102Y-93554774D01*
X132263513Y-93589812D01*
X132189774Y-93516073D01*
X132020256Y-93402805D01*
X131831898Y-93324784D01*
X131631939Y-93285010D01*
X131428061Y-93285010D01*
X131228102Y-93324784D01*
X131039744Y-93402805D01*
X130870226Y-93516073D01*
X130726063Y-93660236D01*
X130655643Y-93765628D01*
X130551939Y-93745000D01*
X130348061Y-93745000D01*
X130148102Y-93784774D01*
X129959744Y-93862795D01*
X129790226Y-93976063D01*
X129646063Y-94120226D01*
X129532795Y-94289744D01*
X129454774Y-94478102D01*
X129415000Y-94678061D01*
X128829036Y-94678061D01*
X128790251Y-94483077D01*
X128712230Y-94294719D01*
X128598962Y-94125201D01*
X128454799Y-93981038D01*
X128285281Y-93867770D01*
X128096923Y-93789749D01*
X127896964Y-93749975D01*
X127693086Y-93749975D01*
X127493127Y-93789749D01*
X127304769Y-93867770D01*
X127135251Y-93981038D01*
X126991088Y-94125201D01*
X126877820Y-94294719D01*
X126799799Y-94483077D01*
X126760025Y-94683036D01*
X116730000Y-94683036D01*
X116730000Y-93199541D01*
X157950064Y-93199541D01*
X157950225Y-93202500D01*
X157950064Y-93205459D01*
X157950404Y-93205799D01*
X157960575Y-93392763D01*
X158130603Y-93463562D01*
X158227660Y-93483055D01*
X158405000Y-93660395D01*
X158582364Y-93483031D01*
X158676061Y-93464574D01*
X158846351Y-93394408D01*
X158849425Y-93392763D01*
X158859596Y-93205799D01*
X158859936Y-93205459D01*
X158859775Y-93202500D01*
X158859936Y-93199541D01*
X159225064Y-93199541D01*
X159225225Y-93202500D01*
X159225064Y-93205459D01*
X159225404Y-93205799D01*
X159235575Y-93392763D01*
X159405603Y-93463562D01*
X159502660Y-93483055D01*
X159680000Y-93660395D01*
X159857364Y-93483031D01*
X159951061Y-93464574D01*
X160121351Y-93394408D01*
X160124425Y-93392763D01*
X160134596Y-93205799D01*
X160134936Y-93205459D01*
X160134775Y-93202500D01*
X160134936Y-93199541D01*
X160134596Y-93199201D01*
X160124425Y-93012237D01*
X159954397Y-92941438D01*
X159857340Y-92921945D01*
X159680000Y-92744605D01*
X159502636Y-92921969D01*
X159408939Y-92940426D01*
X159238649Y-93010592D01*
X159235575Y-93012237D01*
X159225404Y-93199201D01*
X159225064Y-93199541D01*
X158859936Y-93199541D01*
X158859596Y-93199201D01*
X158849425Y-93012237D01*
X158679397Y-92941438D01*
X158582340Y-92921945D01*
X158405000Y-92744605D01*
X158227636Y-92921969D01*
X158133939Y-92940426D01*
X157963649Y-93010592D01*
X157960575Y-93012237D01*
X157950404Y-93199201D01*
X157950064Y-93199541D01*
X116730000Y-93199541D01*
X116730000Y-90478061D01*
X126805000Y-90478061D01*
X126805000Y-90681939D01*
X126844774Y-90881898D01*
X126922795Y-91070256D01*
X127036063Y-91239774D01*
X127180226Y-91383937D01*
X127349744Y-91497205D01*
X127538102Y-91575226D01*
X127738061Y-91615000D01*
X127941939Y-91615000D01*
X128141898Y-91575226D01*
X128330256Y-91497205D01*
X128499774Y-91383937D01*
X128643937Y-91239774D01*
X128757205Y-91070256D01*
X128821515Y-90915000D01*
X128981939Y-90915000D01*
X129181898Y-90875226D01*
X129370256Y-90797205D01*
X129505000Y-90707172D01*
X129505000Y-90861939D01*
X129544774Y-91061898D01*
X129622795Y-91250256D01*
X129736063Y-91419774D01*
X129880226Y-91563937D01*
X130049744Y-91677205D01*
X130238102Y-91755226D01*
X130438061Y-91795000D01*
X130641939Y-91795000D01*
X130841898Y-91755226D01*
X131030256Y-91677205D01*
X131199774Y-91563937D01*
X131343937Y-91419774D01*
X131457205Y-91250256D01*
X131535226Y-91061898D01*
X131575000Y-90861939D01*
X131575000Y-90658061D01*
X131535226Y-90458102D01*
X131457205Y-90269744D01*
X131343937Y-90100226D01*
X131199774Y-89956063D01*
X131030256Y-89842795D01*
X130841898Y-89764774D01*
X130808150Y-89758061D01*
X134885000Y-89758061D01*
X134885000Y-89961939D01*
X134924774Y-90161898D01*
X135002795Y-90350256D01*
X135116063Y-90519774D01*
X135260226Y-90663937D01*
X135429744Y-90777205D01*
X135618102Y-90855226D01*
X135818061Y-90895000D01*
X136021939Y-90895000D01*
X136221898Y-90855226D01*
X136410256Y-90777205D01*
X136515194Y-90707088D01*
X136515000Y-90708061D01*
X136515000Y-90911939D01*
X136554774Y-91111898D01*
X136632795Y-91300256D01*
X136746063Y-91469774D01*
X136890226Y-91613937D01*
X137059744Y-91727205D01*
X137248102Y-91805226D01*
X137448061Y-91845000D01*
X137651939Y-91845000D01*
X137851898Y-91805226D01*
X138040256Y-91727205D01*
X138209774Y-91613937D01*
X138353937Y-91469774D01*
X138467205Y-91300256D01*
X138497123Y-91228028D01*
X152133022Y-91228028D01*
X152133022Y-91431906D01*
X152172796Y-91631865D01*
X152250817Y-91820223D01*
X152364085Y-91989741D01*
X152508248Y-92133904D01*
X152677766Y-92247172D01*
X152866124Y-92325193D01*
X153066083Y-92364967D01*
X153269961Y-92364967D01*
X153469920Y-92325193D01*
X153658278Y-92247172D01*
X153827796Y-92133904D01*
X153971959Y-91989741D01*
X154085227Y-91820223D01*
X154138940Y-91690549D01*
X156437133Y-91690549D01*
X156437133Y-91894427D01*
X156476907Y-92094386D01*
X156554928Y-92282744D01*
X156668196Y-92452262D01*
X156812359Y-92596425D01*
X156981877Y-92709693D01*
X157170235Y-92787714D01*
X157370194Y-92827488D01*
X157503737Y-92827488D01*
X157505426Y-92836061D01*
X157575592Y-93006351D01*
X157577237Y-93009425D01*
X157770459Y-93019936D01*
X158225395Y-92565000D01*
X158211253Y-92550858D01*
X158390858Y-92371253D01*
X158405000Y-92385395D01*
X158419143Y-92371253D01*
X158598748Y-92550858D01*
X158584605Y-92565000D01*
X158761969Y-92742364D01*
X158780426Y-92836061D01*
X158850592Y-93006351D01*
X158852237Y-93009425D01*
X159039201Y-93019596D01*
X159039541Y-93019936D01*
X159042500Y-93019775D01*
X159045459Y-93019936D01*
X159045799Y-93019596D01*
X159232763Y-93009425D01*
X159303562Y-92839397D01*
X159323055Y-92742340D01*
X159500395Y-92565000D01*
X159486253Y-92550858D01*
X159598777Y-92438333D01*
X159679201Y-92384596D01*
X159680000Y-92385395D01*
X159684019Y-92381376D01*
X159696156Y-92373266D01*
X159873748Y-92550858D01*
X159859605Y-92565000D01*
X160036969Y-92742364D01*
X160055426Y-92836061D01*
X160125592Y-93006351D01*
X160127237Y-93009425D01*
X160314201Y-93019596D01*
X160314541Y-93019936D01*
X160317500Y-93019775D01*
X160320459Y-93019936D01*
X160320799Y-93019596D01*
X160507763Y-93009425D01*
X160578562Y-92839397D01*
X160598055Y-92742340D01*
X160775395Y-92565000D01*
X160768249Y-92557854D01*
X160881904Y-92535247D01*
X161050766Y-92465302D01*
X161024753Y-92528102D01*
X160984979Y-92728061D01*
X160984979Y-92742911D01*
X160969143Y-92758748D01*
X160955000Y-92744605D01*
X160777636Y-92921969D01*
X160683939Y-92940426D01*
X160513649Y-93010592D01*
X160510575Y-93012237D01*
X160500404Y-93199201D01*
X160500064Y-93199541D01*
X160500225Y-93202500D01*
X160500064Y-93205459D01*
X160500404Y-93205799D01*
X160510575Y-93392763D01*
X160680603Y-93463562D01*
X160777660Y-93483055D01*
X160955000Y-93660395D01*
X160969143Y-93646253D01*
X161148748Y-93825858D01*
X161134605Y-93840000D01*
X161148748Y-93854143D01*
X160969143Y-94033748D01*
X160955000Y-94019605D01*
X160777636Y-94196969D01*
X160683939Y-94215426D01*
X160513649Y-94285592D01*
X160510575Y-94287237D01*
X160500404Y-94474201D01*
X160500064Y-94474541D01*
X160500225Y-94477500D01*
X160500064Y-94480459D01*
X160500404Y-94480799D01*
X160510575Y-94667763D01*
X160680603Y-94738562D01*
X160777660Y-94758055D01*
X160955000Y-94935395D01*
X160969143Y-94921253D01*
X160980044Y-94932154D01*
X160955000Y-95058061D01*
X160955000Y-95062446D01*
X160794417Y-95128962D01*
X160774428Y-95142318D01*
X160761253Y-95129143D01*
X160775395Y-95115000D01*
X160598031Y-94937636D01*
X160579574Y-94843939D01*
X160509408Y-94673649D01*
X160507763Y-94670575D01*
X160320799Y-94660404D01*
X160320459Y-94660064D01*
X160317500Y-94660225D01*
X160314541Y-94660064D01*
X160314201Y-94660404D01*
X160127237Y-94670575D01*
X160056438Y-94840603D01*
X160036945Y-94937660D01*
X159859605Y-95115000D01*
X159863678Y-95119073D01*
X159794590Y-95147690D01*
X159625072Y-95260958D01*
X159480909Y-95405121D01*
X159367641Y-95574639D01*
X159344783Y-95629822D01*
X159225064Y-95749541D01*
X159235575Y-95942763D01*
X159252464Y-95949795D01*
X159249846Y-95962956D01*
X159249846Y-96166834D01*
X159289620Y-96366793D01*
X159367641Y-96555151D01*
X159480909Y-96724669D01*
X159625072Y-96868832D01*
X159794590Y-96982100D01*
X159982948Y-97060121D01*
X160182907Y-97099895D01*
X160386785Y-97099895D01*
X160586744Y-97060121D01*
X160775102Y-96982100D01*
X160799796Y-96965600D01*
X160982775Y-97041393D01*
X161182734Y-97081167D01*
X161386612Y-97081167D01*
X161586571Y-97041393D01*
X161774929Y-96963372D01*
X161944447Y-96850104D01*
X162088610Y-96705941D01*
X162201878Y-96536423D01*
X162279899Y-96348065D01*
X162319673Y-96148106D01*
X162319673Y-96143721D01*
X162480256Y-96077205D01*
X162649774Y-95963937D01*
X162793937Y-95819774D01*
X162907205Y-95650256D01*
X162985226Y-95461898D01*
X163025000Y-95261939D01*
X163025000Y-95058061D01*
X162985226Y-94858102D01*
X162907205Y-94669744D01*
X162793937Y-94500226D01*
X162649774Y-94356063D01*
X162480256Y-94242795D01*
X162291898Y-94164774D01*
X162091939Y-94125000D01*
X161888061Y-94125000D01*
X161845633Y-94133439D01*
X161853562Y-94114397D01*
X161889828Y-93933824D01*
X161889967Y-93859416D01*
X161918040Y-93865000D01*
X162121918Y-93865000D01*
X162321877Y-93825226D01*
X162510235Y-93747205D01*
X162679753Y-93633937D01*
X162823916Y-93489774D01*
X162937184Y-93320256D01*
X163015205Y-93131898D01*
X163054979Y-92931939D01*
X163054979Y-92728061D01*
X163015205Y-92528102D01*
X162937184Y-92339744D01*
X162823916Y-92170226D01*
X162752296Y-92098606D01*
X162797394Y-91989731D01*
X162837168Y-91789772D01*
X162837168Y-91585894D01*
X162797394Y-91385935D01*
X162719373Y-91197577D01*
X162606105Y-91028059D01*
X162461942Y-90883896D01*
X162292424Y-90770628D01*
X162104066Y-90692607D01*
X161904107Y-90652833D01*
X161700229Y-90652833D01*
X161500270Y-90692607D01*
X161311912Y-90770628D01*
X161289380Y-90785684D01*
X161239780Y-90736084D01*
X161070262Y-90622816D01*
X160881904Y-90544795D01*
X160681945Y-90505021D01*
X160478067Y-90505021D01*
X160278108Y-90544795D01*
X160089750Y-90622816D01*
X159920232Y-90736084D01*
X159830138Y-90826178D01*
X159740034Y-90736074D01*
X159570516Y-90622806D01*
X159382158Y-90544785D01*
X159182199Y-90505011D01*
X158978321Y-90505011D01*
X158778362Y-90544785D01*
X158590004Y-90622806D01*
X158420486Y-90736074D01*
X158276323Y-90880237D01*
X158175094Y-91031738D01*
X158131907Y-90988551D01*
X157962389Y-90875283D01*
X157774031Y-90797262D01*
X157574072Y-90757488D01*
X157370194Y-90757488D01*
X157170235Y-90797262D01*
X156981877Y-90875283D01*
X156812359Y-90988551D01*
X156668196Y-91132714D01*
X156554928Y-91302232D01*
X156476907Y-91490590D01*
X156437133Y-91690549D01*
X154138940Y-91690549D01*
X154163248Y-91631865D01*
X154203022Y-91431906D01*
X154203022Y-91228028D01*
X154163248Y-91028069D01*
X154085227Y-90839711D01*
X153971959Y-90670193D01*
X153827796Y-90526030D01*
X153658278Y-90412762D01*
X153469920Y-90334741D01*
X153269961Y-90294967D01*
X153066083Y-90294967D01*
X152866124Y-90334741D01*
X152677766Y-90412762D01*
X152508248Y-90526030D01*
X152364085Y-90670193D01*
X152250817Y-90839711D01*
X152172796Y-91028069D01*
X152133022Y-91228028D01*
X138497123Y-91228028D01*
X138545226Y-91111898D01*
X138585000Y-90911939D01*
X138585000Y-90708061D01*
X138545226Y-90508102D01*
X138467205Y-90319744D01*
X138435672Y-90272551D01*
X138437205Y-90270256D01*
X138515226Y-90081898D01*
X138555000Y-89881939D01*
X138555000Y-89678061D01*
X138515226Y-89478102D01*
X138437205Y-89289744D01*
X138323937Y-89120226D01*
X138179774Y-88976063D01*
X138107934Y-88928061D01*
X141405000Y-88928061D01*
X141405000Y-89131939D01*
X141444774Y-89331898D01*
X141522795Y-89520256D01*
X141636063Y-89689774D01*
X141780226Y-89833937D01*
X141949744Y-89947205D01*
X142138102Y-90025226D01*
X142338061Y-90065000D01*
X142541939Y-90065000D01*
X142741898Y-90025226D01*
X142930256Y-89947205D01*
X143099774Y-89833937D01*
X143243937Y-89689774D01*
X143357205Y-89520256D01*
X143435226Y-89331898D01*
X143473782Y-89138061D01*
X161275000Y-89138061D01*
X161275000Y-89341939D01*
X161314774Y-89541898D01*
X161392795Y-89730256D01*
X161506063Y-89899774D01*
X161650226Y-90043937D01*
X161819744Y-90157205D01*
X162008102Y-90235226D01*
X162208061Y-90275000D01*
X162334049Y-90275000D01*
X162352795Y-90320256D01*
X162466063Y-90489774D01*
X162610226Y-90633937D01*
X162779744Y-90747205D01*
X162968102Y-90825226D01*
X163168061Y-90865000D01*
X163371939Y-90865000D01*
X163571898Y-90825226D01*
X163591981Y-90816907D01*
X163663945Y-90888871D01*
X163833463Y-91002139D01*
X164021821Y-91080160D01*
X164221780Y-91119934D01*
X164276508Y-91119934D01*
X164255000Y-91228061D01*
X164255000Y-91431939D01*
X164293767Y-91626834D01*
X164160226Y-91716063D01*
X164016063Y-91860226D01*
X163902795Y-92029744D01*
X163824774Y-92218102D01*
X163785000Y-92418061D01*
X163785000Y-92621939D01*
X163824774Y-92821898D01*
X163902795Y-93010256D01*
X164016063Y-93179774D01*
X164160226Y-93323937D01*
X164329744Y-93437205D01*
X164518102Y-93515226D01*
X164718061Y-93555000D01*
X164921939Y-93555000D01*
X165121898Y-93515226D01*
X165310256Y-93437205D01*
X165479774Y-93323937D01*
X165623937Y-93179774D01*
X165737205Y-93010256D01*
X165815226Y-92821898D01*
X165855000Y-92621939D01*
X165855000Y-92418061D01*
X165816233Y-92223166D01*
X165949774Y-92133937D01*
X166093937Y-91989774D01*
X166207205Y-91820256D01*
X166285226Y-91631898D01*
X166325000Y-91431939D01*
X166325000Y-91228061D01*
X166285226Y-91028102D01*
X166207205Y-90839744D01*
X166181875Y-90801836D01*
X166203937Y-90779774D01*
X166317205Y-90610256D01*
X166395226Y-90421898D01*
X166435000Y-90221939D01*
X166435000Y-90018061D01*
X166395226Y-89818102D01*
X166317205Y-89629744D01*
X166203937Y-89460226D01*
X166059774Y-89316063D01*
X165890256Y-89202795D01*
X165701898Y-89124774D01*
X165501939Y-89085000D01*
X165298061Y-89085000D01*
X165098102Y-89124774D01*
X164909744Y-89202795D01*
X164888100Y-89217257D01*
X164813975Y-89167729D01*
X164625617Y-89089708D01*
X164425658Y-89049934D01*
X164221780Y-89049934D01*
X164021821Y-89089708D01*
X164001738Y-89098027D01*
X163929774Y-89026063D01*
X163760256Y-88912795D01*
X163571898Y-88834774D01*
X163371939Y-88795000D01*
X163245951Y-88795000D01*
X163227205Y-88749744D01*
X163113937Y-88580226D01*
X162969774Y-88436063D01*
X162800256Y-88322795D01*
X162611898Y-88244774D01*
X162411939Y-88205000D01*
X162208061Y-88205000D01*
X162008102Y-88244774D01*
X161819744Y-88322795D01*
X161650226Y-88436063D01*
X161506063Y-88580226D01*
X161392795Y-88749744D01*
X161314774Y-88938102D01*
X161275000Y-89138061D01*
X143473782Y-89138061D01*
X143475000Y-89131939D01*
X143475000Y-88928061D01*
X143435226Y-88728102D01*
X143357205Y-88539744D01*
X143243937Y-88370226D01*
X143099774Y-88226063D01*
X142930256Y-88112795D01*
X142741898Y-88034774D01*
X142541939Y-87995000D01*
X142338061Y-87995000D01*
X142138102Y-88034774D01*
X141949744Y-88112795D01*
X141780226Y-88226063D01*
X141636063Y-88370226D01*
X141522795Y-88539744D01*
X141444774Y-88728102D01*
X141405000Y-88928061D01*
X138107934Y-88928061D01*
X138010256Y-88862795D01*
X137821898Y-88784774D01*
X137621939Y-88745000D01*
X137418061Y-88745000D01*
X137218102Y-88784774D01*
X137029744Y-88862795D01*
X136860226Y-88976063D01*
X136716063Y-89120226D01*
X136687173Y-89163462D01*
X136579774Y-89056063D01*
X136410256Y-88942795D01*
X136221898Y-88864774D01*
X136021939Y-88825000D01*
X135818061Y-88825000D01*
X135618102Y-88864774D01*
X135429744Y-88942795D01*
X135260226Y-89056063D01*
X135116063Y-89200226D01*
X135002795Y-89369744D01*
X134924774Y-89558102D01*
X134885000Y-89758061D01*
X130808150Y-89758061D01*
X130641939Y-89725000D01*
X130438061Y-89725000D01*
X130238102Y-89764774D01*
X130049744Y-89842795D01*
X129915000Y-89932828D01*
X129915000Y-89778061D01*
X129875226Y-89578102D01*
X129797205Y-89389744D01*
X129683937Y-89220226D01*
X129539774Y-89076063D01*
X129370256Y-88962795D01*
X129181898Y-88884774D01*
X128981939Y-88845000D01*
X128778061Y-88845000D01*
X128578102Y-88884774D01*
X128389744Y-88962795D01*
X128220226Y-89076063D01*
X128076063Y-89220226D01*
X127962795Y-89389744D01*
X127898485Y-89545000D01*
X127738061Y-89545000D01*
X127538102Y-89584774D01*
X127349744Y-89662795D01*
X127180226Y-89776063D01*
X127036063Y-89920226D01*
X126922795Y-90089744D01*
X126844774Y-90278102D01*
X126805000Y-90478061D01*
X116730000Y-90478061D01*
X116730000Y-86998061D01*
X129525000Y-86998061D01*
X129525000Y-87201939D01*
X129564774Y-87401898D01*
X129642795Y-87590256D01*
X129756063Y-87759774D01*
X129900226Y-87903937D01*
X130069744Y-88017205D01*
X130258102Y-88095226D01*
X130458061Y-88135000D01*
X130485000Y-88135000D01*
X130485000Y-88221939D01*
X130524774Y-88421898D01*
X130602795Y-88610256D01*
X130716063Y-88779774D01*
X130860226Y-88923937D01*
X131029744Y-89037205D01*
X131218102Y-89115226D01*
X131418061Y-89155000D01*
X131621939Y-89155000D01*
X131821898Y-89115226D01*
X132010256Y-89037205D01*
X132179774Y-88923937D01*
X132323937Y-88779774D01*
X132437205Y-88610256D01*
X132515226Y-88421898D01*
X132555000Y-88221939D01*
X132555000Y-88018061D01*
X132515226Y-87818102D01*
X132437205Y-87629744D01*
X132402424Y-87577690D01*
X134854629Y-87577690D01*
X134854629Y-87781568D01*
X134894403Y-87981527D01*
X134972424Y-88169885D01*
X135085692Y-88339403D01*
X135229855Y-88483566D01*
X135399373Y-88596834D01*
X135587731Y-88674855D01*
X135787690Y-88714629D01*
X135991568Y-88714629D01*
X136191527Y-88674855D01*
X136379885Y-88596834D01*
X136549403Y-88483566D01*
X136693566Y-88339403D01*
X136806834Y-88169885D01*
X136884855Y-87981527D01*
X136924629Y-87781568D01*
X136924629Y-87577690D01*
X136884855Y-87377731D01*
X136806834Y-87189373D01*
X136737156Y-87085092D01*
X136807205Y-86980256D01*
X136885226Y-86791898D01*
X136925000Y-86591939D01*
X136925000Y-86388061D01*
X136885226Y-86188102D01*
X136807205Y-85999744D01*
X136693937Y-85830226D01*
X136549774Y-85686063D01*
X136380256Y-85572795D01*
X136191898Y-85494774D01*
X135991939Y-85455000D01*
X135788061Y-85455000D01*
X135588102Y-85494774D01*
X135399744Y-85572795D01*
X135230226Y-85686063D01*
X135086063Y-85830226D01*
X134972795Y-85999744D01*
X134894774Y-86188102D01*
X134855000Y-86388061D01*
X134855000Y-86591939D01*
X134894774Y-86791898D01*
X134972795Y-86980256D01*
X135042473Y-87084537D01*
X134972424Y-87189373D01*
X134894403Y-87377731D01*
X134854629Y-87577690D01*
X132402424Y-87577690D01*
X132323937Y-87460226D01*
X132179774Y-87316063D01*
X132010256Y-87202795D01*
X131821898Y-87124774D01*
X131621939Y-87085000D01*
X131595000Y-87085000D01*
X131595000Y-86998061D01*
X131555226Y-86798102D01*
X131477205Y-86609744D01*
X131363937Y-86440226D01*
X131219774Y-86296063D01*
X131050256Y-86182795D01*
X130861898Y-86104774D01*
X130661939Y-86065000D01*
X130458061Y-86065000D01*
X130258102Y-86104774D01*
X130069744Y-86182795D01*
X129900226Y-86296063D01*
X129756063Y-86440226D01*
X129642795Y-86609744D01*
X129564774Y-86798102D01*
X129525000Y-86998061D01*
X116730000Y-86998061D01*
X116730000Y-82189033D01*
X117529545Y-82189033D01*
X117529545Y-82590967D01*
X117607958Y-82985179D01*
X117761772Y-83356518D01*
X117985075Y-83690714D01*
X118269286Y-83974925D01*
X118603482Y-84198228D01*
X118974821Y-84352042D01*
X119369033Y-84430455D01*
X119770967Y-84430455D01*
X120165179Y-84352042D01*
X120536518Y-84198228D01*
X120870714Y-83974925D01*
X121154925Y-83690714D01*
X121378228Y-83356518D01*
X121532042Y-82985179D01*
X121572854Y-82780000D01*
X123051928Y-82780000D01*
X123051928Y-84480000D01*
X123064188Y-84604482D01*
X123100498Y-84724180D01*
X123159463Y-84834494D01*
X123238815Y-84931185D01*
X123335506Y-85010537D01*
X123445820Y-85069502D01*
X123565518Y-85105812D01*
X123690000Y-85118072D01*
X125390000Y-85118072D01*
X125514482Y-85105812D01*
X125634180Y-85069502D01*
X125744494Y-85010537D01*
X125841185Y-84931185D01*
X125920537Y-84834494D01*
X125979502Y-84724180D01*
X126001513Y-84651620D01*
X126133368Y-84783475D01*
X126376589Y-84945990D01*
X126646842Y-85057932D01*
X126933740Y-85115000D01*
X127226260Y-85115000D01*
X127513158Y-85057932D01*
X127783411Y-84945990D01*
X128026632Y-84783475D01*
X128233475Y-84576632D01*
X128350000Y-84402240D01*
X128466525Y-84576632D01*
X128673368Y-84783475D01*
X128916589Y-84945990D01*
X129186842Y-85057932D01*
X129473740Y-85115000D01*
X129766260Y-85115000D01*
X130053158Y-85057932D01*
X130323411Y-84945990D01*
X130566632Y-84783475D01*
X130773475Y-84576632D01*
X130890000Y-84402240D01*
X131006525Y-84576632D01*
X131213368Y-84783475D01*
X131456589Y-84945990D01*
X131726842Y-85057932D01*
X132013740Y-85115000D01*
X132306260Y-85115000D01*
X132593158Y-85057932D01*
X132863411Y-84945990D01*
X133106632Y-84783475D01*
X133313475Y-84576632D01*
X133435195Y-84394466D01*
X133504822Y-84511355D01*
X133699731Y-84727588D01*
X133933080Y-84901641D01*
X134195901Y-85026825D01*
X134343110Y-85071476D01*
X134573000Y-84950155D01*
X134573000Y-83757000D01*
X134553000Y-83757000D01*
X134553000Y-83503000D01*
X134573000Y-83503000D01*
X134573000Y-83483000D01*
X134827000Y-83483000D01*
X134827000Y-83503000D01*
X134847000Y-83503000D01*
X134847000Y-83757000D01*
X134827000Y-83757000D01*
X134827000Y-84950155D01*
X135056890Y-85071476D01*
X135204099Y-85026825D01*
X135466920Y-84901641D01*
X135700269Y-84727588D01*
X135895178Y-84511355D01*
X135964805Y-84394466D01*
X136086525Y-84576632D01*
X136293368Y-84783475D01*
X136536589Y-84945990D01*
X136806842Y-85057932D01*
X137093740Y-85115000D01*
X137386260Y-85115000D01*
X137673158Y-85057932D01*
X137943411Y-84945990D01*
X138186632Y-84783475D01*
X138393475Y-84576632D01*
X138510000Y-84402240D01*
X138626525Y-84576632D01*
X138833368Y-84783475D01*
X139076589Y-84945990D01*
X139346842Y-85057932D01*
X139633740Y-85115000D01*
X139636444Y-85115000D01*
X139470226Y-85226063D01*
X139326063Y-85370226D01*
X139212795Y-85539744D01*
X139134774Y-85728102D01*
X139095000Y-85928061D01*
X139095000Y-86131939D01*
X139134774Y-86331898D01*
X139212795Y-86520256D01*
X139326063Y-86689774D01*
X139470226Y-86833937D01*
X139639744Y-86947205D01*
X139828102Y-87025226D01*
X140028061Y-87065000D01*
X140231939Y-87065000D01*
X140431898Y-87025226D01*
X140620256Y-86947205D01*
X140789774Y-86833937D01*
X140835580Y-86788131D01*
X144805059Y-86788131D01*
X144805059Y-86992009D01*
X144844833Y-87191968D01*
X144922854Y-87380326D01*
X145036122Y-87549844D01*
X145180285Y-87694007D01*
X145349803Y-87807275D01*
X145538161Y-87885296D01*
X145738120Y-87925070D01*
X145941998Y-87925070D01*
X146141957Y-87885296D01*
X146330315Y-87807275D01*
X146340942Y-87800174D01*
X146349804Y-87806095D01*
X146538162Y-87884116D01*
X146738121Y-87923890D01*
X146805000Y-87923890D01*
X146805000Y-88071939D01*
X146844774Y-88271898D01*
X146922795Y-88460256D01*
X147036063Y-88629774D01*
X147180226Y-88773937D01*
X147349744Y-88887205D01*
X147538102Y-88965226D01*
X147738061Y-89005000D01*
X147941939Y-89005000D01*
X148141898Y-88965226D01*
X148330256Y-88887205D01*
X148499774Y-88773937D01*
X148643937Y-88629774D01*
X148757205Y-88460256D01*
X148835226Y-88271898D01*
X148875000Y-88071939D01*
X148875000Y-87868061D01*
X148839197Y-87688061D01*
X155495000Y-87688061D01*
X155495000Y-87891939D01*
X155534774Y-88091898D01*
X155612795Y-88280256D01*
X155726063Y-88449774D01*
X155870226Y-88593937D01*
X156039744Y-88707205D01*
X156228102Y-88785226D01*
X156428061Y-88825000D01*
X156631939Y-88825000D01*
X156831898Y-88785226D01*
X157020256Y-88707205D01*
X157189774Y-88593937D01*
X157333937Y-88449774D01*
X157447205Y-88280256D01*
X157525226Y-88091898D01*
X157565000Y-87891939D01*
X157565000Y-87872966D01*
X159400145Y-87872966D01*
X159400145Y-88076844D01*
X159439919Y-88276803D01*
X159517940Y-88465161D01*
X159631208Y-88634679D01*
X159775371Y-88778842D01*
X159944889Y-88892110D01*
X160133247Y-88970131D01*
X160333206Y-89009905D01*
X160537084Y-89009905D01*
X160737043Y-88970131D01*
X160925401Y-88892110D01*
X161094919Y-88778842D01*
X161239082Y-88634679D01*
X161352350Y-88465161D01*
X161430371Y-88276803D01*
X161470145Y-88076844D01*
X161470145Y-87872966D01*
X161430371Y-87673007D01*
X161352350Y-87484649D01*
X161239082Y-87315131D01*
X161094919Y-87170968D01*
X160925401Y-87057700D01*
X160737043Y-86979679D01*
X160537084Y-86939905D01*
X160333206Y-86939905D01*
X160133247Y-86979679D01*
X159944889Y-87057700D01*
X159775371Y-87170968D01*
X159631208Y-87315131D01*
X159517940Y-87484649D01*
X159439919Y-87673007D01*
X159400145Y-87872966D01*
X157565000Y-87872966D01*
X157565000Y-87688061D01*
X157525226Y-87488102D01*
X157447205Y-87299744D01*
X157438861Y-87287256D01*
X157458102Y-87295226D01*
X157658061Y-87335000D01*
X157861939Y-87335000D01*
X158061898Y-87295226D01*
X158250256Y-87217205D01*
X158419774Y-87103937D01*
X158563937Y-86959774D01*
X158677205Y-86790256D01*
X158755226Y-86601898D01*
X158795000Y-86401939D01*
X158795000Y-86198061D01*
X158755226Y-85998102D01*
X158677205Y-85809744D01*
X158563937Y-85640226D01*
X158419774Y-85496063D01*
X158250256Y-85382795D01*
X158061898Y-85304774D01*
X157861939Y-85265000D01*
X157658061Y-85265000D01*
X157458102Y-85304774D01*
X157269744Y-85382795D01*
X157250448Y-85395688D01*
X157250337Y-85395614D01*
X157061979Y-85317593D01*
X156862020Y-85277819D01*
X156658142Y-85277819D01*
X156458183Y-85317593D01*
X156269825Y-85395614D01*
X156100307Y-85508882D01*
X155956144Y-85653045D01*
X155842876Y-85822563D01*
X155764855Y-86010921D01*
X155725081Y-86210880D01*
X155725081Y-86414758D01*
X155764855Y-86614717D01*
X155842876Y-86803075D01*
X155935847Y-86942216D01*
X155870226Y-86986063D01*
X155726063Y-87130226D01*
X155612795Y-87299744D01*
X155534774Y-87488102D01*
X155495000Y-87688061D01*
X148839197Y-87688061D01*
X148835226Y-87668102D01*
X148757205Y-87479744D01*
X148727308Y-87435000D01*
X148757205Y-87390256D01*
X148835226Y-87201898D01*
X148875000Y-87001939D01*
X148875000Y-86798061D01*
X148835226Y-86598102D01*
X148757205Y-86409744D01*
X148643937Y-86240226D01*
X148499774Y-86096063D01*
X148330256Y-85982795D01*
X148141898Y-85904774D01*
X147941939Y-85865000D01*
X147738061Y-85865000D01*
X147538102Y-85904774D01*
X147349744Y-85982795D01*
X147348344Y-85983731D01*
X147330316Y-85971685D01*
X147141958Y-85893664D01*
X146941999Y-85853890D01*
X146738121Y-85853890D01*
X146538162Y-85893664D01*
X146349804Y-85971685D01*
X146339177Y-85978786D01*
X146330315Y-85972865D01*
X146141957Y-85894844D01*
X145941998Y-85855070D01*
X145738120Y-85855070D01*
X145538161Y-85894844D01*
X145349803Y-85972865D01*
X145180285Y-86086133D01*
X145036122Y-86230296D01*
X144922854Y-86399814D01*
X144844833Y-86588172D01*
X144805059Y-86788131D01*
X140835580Y-86788131D01*
X140933937Y-86689774D01*
X141047205Y-86520256D01*
X141125226Y-86331898D01*
X141165000Y-86131939D01*
X141165000Y-85928061D01*
X141125226Y-85728102D01*
X141047205Y-85539744D01*
X140933937Y-85370226D01*
X140789774Y-85226063D01*
X140620256Y-85112795D01*
X140431898Y-85034774D01*
X140321893Y-85012893D01*
X140483411Y-84945990D01*
X140726632Y-84783475D01*
X140933475Y-84576632D01*
X141050000Y-84402240D01*
X141166525Y-84576632D01*
X141373368Y-84783475D01*
X141616589Y-84945990D01*
X141886842Y-85057932D01*
X142173740Y-85115000D01*
X142466260Y-85115000D01*
X142753158Y-85057932D01*
X143023411Y-84945990D01*
X143266632Y-84783475D01*
X143473475Y-84576632D01*
X143590000Y-84402240D01*
X143706525Y-84576632D01*
X143913368Y-84783475D01*
X144156589Y-84945990D01*
X144426842Y-85057932D01*
X144713740Y-85115000D01*
X145006260Y-85115000D01*
X145293158Y-85057932D01*
X145563411Y-84945990D01*
X145806632Y-84783475D01*
X146013475Y-84576632D01*
X146130000Y-84402240D01*
X146246525Y-84576632D01*
X146453368Y-84783475D01*
X146696589Y-84945990D01*
X146966842Y-85057932D01*
X147253740Y-85115000D01*
X147546260Y-85115000D01*
X147833158Y-85057932D01*
X148103411Y-84945990D01*
X148346632Y-84783475D01*
X148553475Y-84576632D01*
X148670000Y-84402240D01*
X148786525Y-84576632D01*
X148993368Y-84783475D01*
X149236589Y-84945990D01*
X149506842Y-85057932D01*
X149793740Y-85115000D01*
X150086260Y-85115000D01*
X150373158Y-85057932D01*
X150643411Y-84945990D01*
X150886632Y-84783475D01*
X151093475Y-84576632D01*
X151210000Y-84402240D01*
X151326525Y-84576632D01*
X151533368Y-84783475D01*
X151776589Y-84945990D01*
X152046842Y-85057932D01*
X152333740Y-85115000D01*
X152626260Y-85115000D01*
X152913158Y-85057932D01*
X153183411Y-84945990D01*
X153426632Y-84783475D01*
X153633475Y-84576632D01*
X153755195Y-84394466D01*
X153824822Y-84511355D01*
X154019731Y-84727588D01*
X154253080Y-84901641D01*
X154515901Y-85026825D01*
X154663110Y-85071476D01*
X154893000Y-84950155D01*
X154893000Y-83757000D01*
X154873000Y-83757000D01*
X154873000Y-83503000D01*
X154893000Y-83503000D01*
X154893000Y-83483000D01*
X155147000Y-83483000D01*
X155147000Y-83503000D01*
X155167000Y-83503000D01*
X155167000Y-83757000D01*
X155147000Y-83757000D01*
X155147000Y-84950155D01*
X155376890Y-85071476D01*
X155524099Y-85026825D01*
X155786920Y-84901641D01*
X156020269Y-84727588D01*
X156215178Y-84511355D01*
X156284805Y-84394466D01*
X156406525Y-84576632D01*
X156613368Y-84783475D01*
X156856589Y-84945990D01*
X157126842Y-85057932D01*
X157413740Y-85115000D01*
X157706260Y-85115000D01*
X157993158Y-85057932D01*
X158263411Y-84945990D01*
X158506632Y-84783475D01*
X158713475Y-84576632D01*
X158830000Y-84402240D01*
X158946525Y-84576632D01*
X159153368Y-84783475D01*
X159396589Y-84945990D01*
X159666842Y-85057932D01*
X159953740Y-85115000D01*
X160246260Y-85115000D01*
X160533158Y-85057932D01*
X160803411Y-84945990D01*
X161046632Y-84783475D01*
X161253475Y-84576632D01*
X161370000Y-84402240D01*
X161486525Y-84576632D01*
X161693368Y-84783475D01*
X161936589Y-84945990D01*
X162206842Y-85057932D01*
X162493740Y-85115000D01*
X162786260Y-85115000D01*
X163073158Y-85057932D01*
X163343411Y-84945990D01*
X163586632Y-84783475D01*
X163793475Y-84576632D01*
X163910000Y-84402240D01*
X164026525Y-84576632D01*
X164233368Y-84783475D01*
X164476589Y-84945990D01*
X164746842Y-85057932D01*
X165033740Y-85115000D01*
X165326260Y-85115000D01*
X165613158Y-85057932D01*
X165883411Y-84945990D01*
X166126632Y-84783475D01*
X166333475Y-84576632D01*
X166450000Y-84402240D01*
X166566525Y-84576632D01*
X166773368Y-84783475D01*
X167016589Y-84945990D01*
X167286842Y-85057932D01*
X167573740Y-85115000D01*
X167866260Y-85115000D01*
X168153158Y-85057932D01*
X168423411Y-84945990D01*
X168666632Y-84783475D01*
X168873475Y-84576632D01*
X168990000Y-84402240D01*
X169106525Y-84576632D01*
X169313368Y-84783475D01*
X169556589Y-84945990D01*
X169826842Y-85057932D01*
X170113740Y-85115000D01*
X170406260Y-85115000D01*
X170693158Y-85057932D01*
X170963411Y-84945990D01*
X171206632Y-84783475D01*
X171413475Y-84576632D01*
X171535195Y-84394466D01*
X171604822Y-84511355D01*
X171799731Y-84727588D01*
X172033080Y-84901641D01*
X172295901Y-85026825D01*
X172443110Y-85071476D01*
X172673000Y-84950155D01*
X172673000Y-83757000D01*
X172927000Y-83757000D01*
X172927000Y-84950155D01*
X173156890Y-85071476D01*
X173304099Y-85026825D01*
X173566920Y-84901641D01*
X173800269Y-84727588D01*
X173995178Y-84511355D01*
X174144157Y-84261252D01*
X174241481Y-83986891D01*
X174120814Y-83757000D01*
X172927000Y-83757000D01*
X172673000Y-83757000D01*
X172653000Y-83757000D01*
X172653000Y-83503000D01*
X172673000Y-83503000D01*
X172673000Y-83483000D01*
X172927000Y-83483000D01*
X172927000Y-83503000D01*
X174120814Y-83503000D01*
X174241481Y-83273109D01*
X174144157Y-82998748D01*
X173995178Y-82748645D01*
X173800269Y-82532412D01*
X173570594Y-82361100D01*
X173746632Y-82243475D01*
X173801074Y-82189033D01*
X175529545Y-82189033D01*
X175529545Y-82590967D01*
X175607958Y-82985179D01*
X175761772Y-83356518D01*
X175985075Y-83690714D01*
X176269286Y-83974925D01*
X176603482Y-84198228D01*
X176974821Y-84352042D01*
X177369033Y-84430455D01*
X177770967Y-84430455D01*
X178165179Y-84352042D01*
X178536518Y-84198228D01*
X178870714Y-83974925D01*
X179154925Y-83690714D01*
X179378228Y-83356518D01*
X179532042Y-82985179D01*
X179610455Y-82590967D01*
X179610455Y-82189033D01*
X179532042Y-81794821D01*
X179378228Y-81423482D01*
X179154925Y-81089286D01*
X178870714Y-80805075D01*
X178536518Y-80581772D01*
X178165179Y-80427958D01*
X177770967Y-80349545D01*
X177369033Y-80349545D01*
X176974821Y-80427958D01*
X176603482Y-80581772D01*
X176269286Y-80805075D01*
X175985075Y-81089286D01*
X175761772Y-81423482D01*
X175607958Y-81794821D01*
X175529545Y-82189033D01*
X173801074Y-82189033D01*
X173953475Y-82036632D01*
X174115990Y-81793411D01*
X174227932Y-81523158D01*
X174285000Y-81236260D01*
X174285000Y-80943740D01*
X174227932Y-80656842D01*
X174115990Y-80386589D01*
X173953475Y-80143368D01*
X173746632Y-79936525D01*
X173503411Y-79774010D01*
X173233158Y-79662068D01*
X172946260Y-79605000D01*
X172653740Y-79605000D01*
X172366842Y-79662068D01*
X172096589Y-79774010D01*
X171853368Y-79936525D01*
X171646525Y-80143368D01*
X171530000Y-80317760D01*
X171413475Y-80143368D01*
X171206632Y-79936525D01*
X170963411Y-79774010D01*
X170693158Y-79662068D01*
X170406260Y-79605000D01*
X170113740Y-79605000D01*
X169826842Y-79662068D01*
X169556589Y-79774010D01*
X169313368Y-79936525D01*
X169106525Y-80143368D01*
X168990000Y-80317760D01*
X168873475Y-80143368D01*
X168666632Y-79936525D01*
X168423411Y-79774010D01*
X168153158Y-79662068D01*
X167866260Y-79605000D01*
X167573740Y-79605000D01*
X167286842Y-79662068D01*
X167016589Y-79774010D01*
X166773368Y-79936525D01*
X166566525Y-80143368D01*
X166444805Y-80325534D01*
X166375178Y-80208645D01*
X166180269Y-79992412D01*
X165946920Y-79818359D01*
X165684099Y-79693175D01*
X165536890Y-79648524D01*
X165307000Y-79769845D01*
X165307000Y-80963000D01*
X165327000Y-80963000D01*
X165327000Y-81217000D01*
X165307000Y-81217000D01*
X165307000Y-81237000D01*
X165053000Y-81237000D01*
X165053000Y-81217000D01*
X165033000Y-81217000D01*
X165033000Y-80963000D01*
X165053000Y-80963000D01*
X165053000Y-79769845D01*
X164823110Y-79648524D01*
X164675901Y-79693175D01*
X164413080Y-79818359D01*
X164179731Y-79992412D01*
X163984822Y-80208645D01*
X163915195Y-80325534D01*
X163793475Y-80143368D01*
X163586632Y-79936525D01*
X163343411Y-79774010D01*
X163073158Y-79662068D01*
X162786260Y-79605000D01*
X162493740Y-79605000D01*
X162206842Y-79662068D01*
X161936589Y-79774010D01*
X161693368Y-79936525D01*
X161486525Y-80143368D01*
X161364805Y-80325534D01*
X161295178Y-80208645D01*
X161100269Y-79992412D01*
X160866920Y-79818359D01*
X160604099Y-79693175D01*
X160456890Y-79648524D01*
X160227000Y-79769845D01*
X160227000Y-80963000D01*
X160247000Y-80963000D01*
X160247000Y-81217000D01*
X160227000Y-81217000D01*
X160227000Y-81237000D01*
X159973000Y-81237000D01*
X159973000Y-81217000D01*
X159953000Y-81217000D01*
X159953000Y-80963000D01*
X159973000Y-80963000D01*
X159973000Y-79769845D01*
X159743110Y-79648524D01*
X159595901Y-79693175D01*
X159333080Y-79818359D01*
X159099731Y-79992412D01*
X158904822Y-80208645D01*
X158835195Y-80325534D01*
X158713475Y-80143368D01*
X158506632Y-79936525D01*
X158263411Y-79774010D01*
X157993158Y-79662068D01*
X157706260Y-79605000D01*
X157413740Y-79605000D01*
X157126842Y-79662068D01*
X156856589Y-79774010D01*
X156613368Y-79936525D01*
X156406525Y-80143368D01*
X156290000Y-80317760D01*
X156173475Y-80143368D01*
X155966632Y-79936525D01*
X155723411Y-79774010D01*
X155453158Y-79662068D01*
X155166260Y-79605000D01*
X154873740Y-79605000D01*
X154586842Y-79662068D01*
X154316589Y-79774010D01*
X154073368Y-79936525D01*
X153866525Y-80143368D01*
X153750000Y-80317760D01*
X153633475Y-80143368D01*
X153426632Y-79936525D01*
X153183411Y-79774010D01*
X152913158Y-79662068D01*
X152626260Y-79605000D01*
X152333740Y-79605000D01*
X152046842Y-79662068D01*
X151776589Y-79774010D01*
X151533368Y-79936525D01*
X151326525Y-80143368D01*
X151210000Y-80317760D01*
X151093475Y-80143368D01*
X150886632Y-79936525D01*
X150643411Y-79774010D01*
X150373158Y-79662068D01*
X150086260Y-79605000D01*
X149793740Y-79605000D01*
X149506842Y-79662068D01*
X149236589Y-79774010D01*
X148993368Y-79936525D01*
X148786525Y-80143368D01*
X148664805Y-80325534D01*
X148595178Y-80208645D01*
X148400269Y-79992412D01*
X148166920Y-79818359D01*
X147904099Y-79693175D01*
X147756890Y-79648524D01*
X147527000Y-79769845D01*
X147527000Y-80963000D01*
X147547000Y-80963000D01*
X147547000Y-81217000D01*
X147527000Y-81217000D01*
X147527000Y-81237000D01*
X147273000Y-81237000D01*
X147273000Y-81217000D01*
X147253000Y-81217000D01*
X147253000Y-80963000D01*
X147273000Y-80963000D01*
X147273000Y-79769845D01*
X147043110Y-79648524D01*
X146895901Y-79693175D01*
X146633080Y-79818359D01*
X146399731Y-79992412D01*
X146204822Y-80208645D01*
X146135195Y-80325534D01*
X146013475Y-80143368D01*
X145806632Y-79936525D01*
X145563411Y-79774010D01*
X145293158Y-79662068D01*
X145006260Y-79605000D01*
X144713740Y-79605000D01*
X144426842Y-79662068D01*
X144156589Y-79774010D01*
X143913368Y-79936525D01*
X143706525Y-80143368D01*
X143590000Y-80317760D01*
X143473475Y-80143368D01*
X143266632Y-79936525D01*
X143023411Y-79774010D01*
X142753158Y-79662068D01*
X142466260Y-79605000D01*
X142173740Y-79605000D01*
X141886842Y-79662068D01*
X141616589Y-79774010D01*
X141373368Y-79936525D01*
X141166525Y-80143368D01*
X141044805Y-80325534D01*
X140975178Y-80208645D01*
X140780269Y-79992412D01*
X140546920Y-79818359D01*
X140284099Y-79693175D01*
X140136890Y-79648524D01*
X139907000Y-79769845D01*
X139907000Y-80963000D01*
X139927000Y-80963000D01*
X139927000Y-81217000D01*
X139907000Y-81217000D01*
X139907000Y-81237000D01*
X139653000Y-81237000D01*
X139653000Y-81217000D01*
X139633000Y-81217000D01*
X139633000Y-80963000D01*
X139653000Y-80963000D01*
X139653000Y-79769845D01*
X139423110Y-79648524D01*
X139275901Y-79693175D01*
X139013080Y-79818359D01*
X138779731Y-79992412D01*
X138584822Y-80208645D01*
X138515195Y-80325534D01*
X138393475Y-80143368D01*
X138186632Y-79936525D01*
X137943411Y-79774010D01*
X137673158Y-79662068D01*
X137386260Y-79605000D01*
X137093740Y-79605000D01*
X136806842Y-79662068D01*
X136536589Y-79774010D01*
X136293368Y-79936525D01*
X136086525Y-80143368D01*
X135970000Y-80317760D01*
X135853475Y-80143368D01*
X135646632Y-79936525D01*
X135403411Y-79774010D01*
X135133158Y-79662068D01*
X134846260Y-79605000D01*
X134553740Y-79605000D01*
X134266842Y-79662068D01*
X133996589Y-79774010D01*
X133753368Y-79936525D01*
X133546525Y-80143368D01*
X133430000Y-80317760D01*
X133313475Y-80143368D01*
X133106632Y-79936525D01*
X132863411Y-79774010D01*
X132593158Y-79662068D01*
X132306260Y-79605000D01*
X132013740Y-79605000D01*
X131726842Y-79662068D01*
X131456589Y-79774010D01*
X131213368Y-79936525D01*
X131006525Y-80143368D01*
X130884805Y-80325534D01*
X130815178Y-80208645D01*
X130620269Y-79992412D01*
X130386920Y-79818359D01*
X130124099Y-79693175D01*
X129976890Y-79648524D01*
X129747000Y-79769845D01*
X129747000Y-80963000D01*
X129767000Y-80963000D01*
X129767000Y-81217000D01*
X129747000Y-81217000D01*
X129747000Y-81237000D01*
X129493000Y-81237000D01*
X129493000Y-81217000D01*
X129473000Y-81217000D01*
X129473000Y-80963000D01*
X129493000Y-80963000D01*
X129493000Y-79769845D01*
X129263110Y-79648524D01*
X129115901Y-79693175D01*
X128853080Y-79818359D01*
X128619731Y-79992412D01*
X128424822Y-80208645D01*
X128355195Y-80325534D01*
X128233475Y-80143368D01*
X128026632Y-79936525D01*
X127783411Y-79774010D01*
X127513158Y-79662068D01*
X127226260Y-79605000D01*
X126933740Y-79605000D01*
X126646842Y-79662068D01*
X126376589Y-79774010D01*
X126133368Y-79936525D01*
X125926525Y-80143368D01*
X125810000Y-80317760D01*
X125693475Y-80143368D01*
X125486632Y-79936525D01*
X125243411Y-79774010D01*
X124973158Y-79662068D01*
X124686260Y-79605000D01*
X124393740Y-79605000D01*
X124106842Y-79662068D01*
X123836589Y-79774010D01*
X123593368Y-79936525D01*
X123386525Y-80143368D01*
X123224010Y-80386589D01*
X123112068Y-80656842D01*
X123055000Y-80943740D01*
X123055000Y-81236260D01*
X123112068Y-81523158D01*
X123224010Y-81793411D01*
X123386525Y-82036632D01*
X123518380Y-82168487D01*
X123445820Y-82190498D01*
X123335506Y-82249463D01*
X123238815Y-82328815D01*
X123159463Y-82425506D01*
X123100498Y-82535820D01*
X123064188Y-82655518D01*
X123051928Y-82780000D01*
X121572854Y-82780000D01*
X121610455Y-82590967D01*
X121610455Y-82189033D01*
X121532042Y-81794821D01*
X121378228Y-81423482D01*
X121154925Y-81089286D01*
X120870714Y-80805075D01*
X120536518Y-80581772D01*
X120165179Y-80427958D01*
X119770967Y-80349545D01*
X119369033Y-80349545D01*
X118974821Y-80427958D01*
X118603482Y-80581772D01*
X118269286Y-80805075D01*
X117985075Y-81089286D01*
X117761772Y-81423482D01*
X117607958Y-81794821D01*
X117529545Y-82189033D01*
X116730000Y-82189033D01*
X116730000Y-81922279D01*
X116777670Y-81436107D01*
X116909489Y-80999502D01*
X117123600Y-80596815D01*
X117411848Y-80243388D01*
X117763261Y-79952673D01*
X118164439Y-79735758D01*
X118600113Y-79600894D01*
X119084344Y-79550000D01*
X178037721Y-79550000D01*
X178523893Y-79597670D01*
%TA.AperFunction,Conductor*%
D18*
G36*
X178523893Y-79597670D02*
G01*
X178960498Y-79729489D01*
X179363185Y-79943600D01*
X179716612Y-80231848D01*
X180007327Y-80583261D01*
X180224242Y-80984439D01*
X180359106Y-81420113D01*
X180410000Y-81904344D01*
X180410000Y-84446694D01*
X180327731Y-84391724D01*
X180098081Y-84296600D01*
X179854286Y-84248106D01*
X179605714Y-84248106D01*
X179361919Y-84296600D01*
X179132269Y-84391724D01*
X178925589Y-84529823D01*
X178749823Y-84705589D01*
X178611724Y-84912269D01*
X178516600Y-85141919D01*
X178468106Y-85385714D01*
X178468106Y-85634286D01*
X178516600Y-85878081D01*
X178611724Y-86107731D01*
X178749823Y-86314411D01*
X178925589Y-86490177D01*
X179132269Y-86628276D01*
X179361919Y-86723400D01*
X179605714Y-86771894D01*
X179854286Y-86771894D01*
X180098081Y-86723400D01*
X180327731Y-86628276D01*
X180410000Y-86573306D01*
X180410001Y-105857711D01*
X180362330Y-106343894D01*
X180230512Y-106780497D01*
X180016399Y-107183186D01*
X179728150Y-107536613D01*
X179376739Y-107827327D01*
X178975564Y-108044240D01*
X178539886Y-108179106D01*
X178055664Y-108230000D01*
X164176637Y-108230000D01*
X164198284Y-108203623D01*
X164303676Y-108006446D01*
X164368577Y-107792498D01*
X164385000Y-107625751D01*
X164385000Y-106914248D01*
X164368577Y-106747501D01*
X164303676Y-106533553D01*
X164198284Y-106336377D01*
X164135000Y-106259265D01*
X164135000Y-105189033D01*
X175529545Y-105189033D01*
X175529545Y-105590967D01*
X175607958Y-105985179D01*
X175761772Y-106356518D01*
X175985075Y-106690714D01*
X176269286Y-106974925D01*
X176603482Y-107198228D01*
X176974821Y-107352042D01*
X177369033Y-107430455D01*
X177770967Y-107430455D01*
X178165179Y-107352042D01*
X178536518Y-107198228D01*
X178870714Y-106974925D01*
X179154925Y-106690714D01*
X179378228Y-106356518D01*
X179532042Y-105985179D01*
X179610455Y-105590967D01*
X179610455Y-105189033D01*
X179532042Y-104794821D01*
X179378228Y-104423482D01*
X179154925Y-104089286D01*
X178870714Y-103805075D01*
X178536518Y-103581772D01*
X178165179Y-103427958D01*
X177770967Y-103349545D01*
X177369033Y-103349545D01*
X176974821Y-103427958D01*
X176603482Y-103581772D01*
X176269286Y-103805075D01*
X175985075Y-104089286D01*
X175761772Y-104423482D01*
X175607958Y-104794821D01*
X175529545Y-105189033D01*
X164135000Y-105189033D01*
X164135000Y-104350735D01*
X164198284Y-104273623D01*
X164303676Y-104076447D01*
X164368577Y-103862499D01*
X164385000Y-103695752D01*
X164385000Y-102484248D01*
X164368577Y-102317501D01*
X164309844Y-102123887D01*
X164393937Y-102039794D01*
X164507205Y-101870276D01*
X164585226Y-101681918D01*
X164625000Y-101481959D01*
X164625000Y-101278081D01*
X164585226Y-101078122D01*
X164507205Y-100889764D01*
X164393937Y-100720246D01*
X164249774Y-100576083D01*
X164080256Y-100462815D01*
X163891898Y-100384794D01*
X163691939Y-100345020D01*
X163488061Y-100345020D01*
X163288102Y-100384794D01*
X163099744Y-100462815D01*
X162930226Y-100576083D01*
X162786063Y-100720246D01*
X162672795Y-100889764D01*
X162594774Y-101078122D01*
X162555000Y-101278081D01*
X162555000Y-101481959D01*
X162582381Y-101619616D01*
X162443551Y-101733551D01*
X162301716Y-101906377D01*
X162196324Y-102103554D01*
X162131423Y-102317502D01*
X162115000Y-102484249D01*
X162115000Y-102703096D01*
X162100022Y-102696892D01*
X161914552Y-102660000D01*
X161725448Y-102660000D01*
X161539978Y-102696892D01*
X161365269Y-102769259D01*
X161208036Y-102874319D01*
X161074319Y-103008036D01*
X160969259Y-103165269D01*
X160896892Y-103339978D01*
X160860000Y-103525448D01*
X160860000Y-103714552D01*
X160896892Y-103900022D01*
X160969259Y-104074731D01*
X161074319Y-104231964D01*
X161208036Y-104365681D01*
X161365269Y-104470741D01*
X161539978Y-104543108D01*
X161725448Y-104580000D01*
X161914552Y-104580000D01*
X162100022Y-104543108D01*
X162274731Y-104470741D01*
X162365001Y-104410425D01*
X162365000Y-106259265D01*
X162301716Y-106336377D01*
X162275727Y-106385000D01*
X155584273Y-106385000D01*
X155558284Y-106336377D01*
X155495000Y-106259265D01*
X155495000Y-104410425D01*
X155585269Y-104470741D01*
X155759978Y-104543108D01*
X155945448Y-104580000D01*
X156134552Y-104580000D01*
X156320022Y-104543108D01*
X156494731Y-104470741D01*
X156651964Y-104365681D01*
X156785681Y-104231964D01*
X156890741Y-104074731D01*
X156963108Y-103900022D01*
X157000000Y-103714552D01*
X157000000Y-103525448D01*
X156963108Y-103339978D01*
X156890741Y-103165269D01*
X156785681Y-103008036D01*
X156651964Y-102874319D01*
X156494731Y-102769259D01*
X156320022Y-102696892D01*
X156134552Y-102660000D01*
X155945448Y-102660000D01*
X155759978Y-102696892D01*
X155745000Y-102703096D01*
X155745000Y-102484248D01*
X155728577Y-102317501D01*
X155663676Y-102103553D01*
X155558284Y-101906377D01*
X155416449Y-101733551D01*
X155243623Y-101591716D01*
X155046446Y-101486324D01*
X154832498Y-101421423D01*
X154610000Y-101399509D01*
X154387501Y-101421423D01*
X154173553Y-101486324D01*
X153976377Y-101591716D01*
X153803551Y-101733551D01*
X153661716Y-101906377D01*
X153556324Y-102103554D01*
X153491423Y-102317502D01*
X153475000Y-102484249D01*
X153475000Y-103695752D01*
X153491423Y-103862499D01*
X153556324Y-104076447D01*
X153661717Y-104273623D01*
X153725001Y-104350734D01*
X153725000Y-106259265D01*
X153661716Y-106336377D01*
X153556324Y-106533554D01*
X153491423Y-106747502D01*
X153475000Y-106914249D01*
X153475000Y-107625752D01*
X153491423Y-107792499D01*
X153556324Y-108006447D01*
X153661717Y-108203623D01*
X153683364Y-108230000D01*
X123921478Y-108230000D01*
X124013400Y-108008081D01*
X124061894Y-107764286D01*
X124061894Y-107515714D01*
X124013400Y-107271919D01*
X123918276Y-107042269D01*
X123780177Y-106835589D01*
X123604411Y-106659823D01*
X123397731Y-106521724D01*
X123168081Y-106426600D01*
X122924286Y-106378106D01*
X122675714Y-106378106D01*
X122431919Y-106426600D01*
X122202269Y-106521724D01*
X121995589Y-106659823D01*
X121819823Y-106835589D01*
X121681724Y-107042269D01*
X121586600Y-107271919D01*
X121538106Y-107515714D01*
X121538106Y-107764286D01*
X121586600Y-108008081D01*
X121678522Y-108230000D01*
X119102279Y-108230000D01*
X118616106Y-108182330D01*
X118179503Y-108050512D01*
X117776814Y-107836399D01*
X117423387Y-107548150D01*
X117132673Y-107196739D01*
X116915760Y-106795564D01*
X116780894Y-106359886D01*
X116730000Y-105875664D01*
X116730000Y-105189033D01*
X117529545Y-105189033D01*
X117529545Y-105590967D01*
X117607958Y-105985179D01*
X117761772Y-106356518D01*
X117985075Y-106690714D01*
X118269286Y-106974925D01*
X118603482Y-107198228D01*
X118974821Y-107352042D01*
X119369033Y-107430455D01*
X119770967Y-107430455D01*
X120165179Y-107352042D01*
X120536518Y-107198228D01*
X120870714Y-106974925D01*
X121154925Y-106690714D01*
X121378228Y-106356518D01*
X121532042Y-105985179D01*
X121610455Y-105590967D01*
X121610455Y-105189033D01*
X121532042Y-104794821D01*
X121378228Y-104423482D01*
X121154925Y-104089286D01*
X120870714Y-103805075D01*
X120583459Y-103613137D01*
X126550000Y-103613137D01*
X126550000Y-103826863D01*
X126591696Y-104036483D01*
X126673485Y-104233940D01*
X126792225Y-104411647D01*
X126943353Y-104562775D01*
X127121060Y-104681515D01*
X127318517Y-104763304D01*
X127528137Y-104805000D01*
X127741863Y-104805000D01*
X127951483Y-104763304D01*
X128148940Y-104681515D01*
X128326647Y-104562775D01*
X128477775Y-104411647D01*
X128596515Y-104233940D01*
X128678304Y-104036483D01*
X128720000Y-103826863D01*
X128720000Y-103613137D01*
X134550000Y-103613137D01*
X134550000Y-103826863D01*
X134591696Y-104036483D01*
X134673485Y-104233940D01*
X134792225Y-104411647D01*
X134943353Y-104562775D01*
X135121060Y-104681515D01*
X135318517Y-104763304D01*
X135528137Y-104805000D01*
X135741863Y-104805000D01*
X135951483Y-104763304D01*
X135964140Y-104758061D01*
X148405000Y-104758061D01*
X148405000Y-104961939D01*
X148444774Y-105161898D01*
X148522795Y-105350256D01*
X148636063Y-105519774D01*
X148780226Y-105663937D01*
X148949744Y-105777205D01*
X149138102Y-105855226D01*
X149338061Y-105895000D01*
X149541939Y-105895000D01*
X149741898Y-105855226D01*
X149930256Y-105777205D01*
X150099774Y-105663937D01*
X150243937Y-105519774D01*
X150357205Y-105350256D01*
X150435226Y-105161898D01*
X150475000Y-104961939D01*
X150475000Y-104758061D01*
X150435226Y-104558102D01*
X150357205Y-104369744D01*
X150243937Y-104200226D01*
X150099774Y-104056063D01*
X149930256Y-103942795D01*
X149741898Y-103864774D01*
X149541939Y-103825000D01*
X149338061Y-103825000D01*
X149138102Y-103864774D01*
X148949744Y-103942795D01*
X148780226Y-104056063D01*
X148636063Y-104200226D01*
X148522795Y-104369744D01*
X148444774Y-104558102D01*
X148405000Y-104758061D01*
X135964140Y-104758061D01*
X136148940Y-104681515D01*
X136326647Y-104562775D01*
X136477775Y-104411647D01*
X136596515Y-104233940D01*
X136678304Y-104036483D01*
X136720000Y-103826863D01*
X136720000Y-103613137D01*
X136678304Y-103403517D01*
X136596515Y-103206060D01*
X136477775Y-103028353D01*
X136326647Y-102877225D01*
X136148940Y-102758485D01*
X135951483Y-102676696D01*
X135741863Y-102635000D01*
X135528137Y-102635000D01*
X135318517Y-102676696D01*
X135121060Y-102758485D01*
X134943353Y-102877225D01*
X134792225Y-103028353D01*
X134673485Y-103206060D01*
X134591696Y-103403517D01*
X134550000Y-103613137D01*
X128720000Y-103613137D01*
X128678304Y-103403517D01*
X128596515Y-103206060D01*
X128477775Y-103028353D01*
X128326647Y-102877225D01*
X128148940Y-102758485D01*
X127951483Y-102676696D01*
X127741863Y-102635000D01*
X127528137Y-102635000D01*
X127318517Y-102676696D01*
X127121060Y-102758485D01*
X126943353Y-102877225D01*
X126792225Y-103028353D01*
X126673485Y-103206060D01*
X126591696Y-103403517D01*
X126550000Y-103613137D01*
X120583459Y-103613137D01*
X120536518Y-103581772D01*
X120165179Y-103427958D01*
X119770967Y-103349545D01*
X119369033Y-103349545D01*
X118974821Y-103427958D01*
X118603482Y-103581772D01*
X118269286Y-103805075D01*
X117985075Y-104089286D01*
X117761772Y-104423482D01*
X117607958Y-104794821D01*
X117529545Y-105189033D01*
X116730000Y-105189033D01*
X116730000Y-98708061D01*
X144635000Y-98708061D01*
X144635000Y-98911939D01*
X144674774Y-99111898D01*
X144723694Y-99230000D01*
X144674774Y-99348102D01*
X144635000Y-99548061D01*
X144635000Y-99751939D01*
X144674774Y-99951898D01*
X144752795Y-100140256D01*
X144866063Y-100309774D01*
X145010226Y-100453937D01*
X145179744Y-100567205D01*
X145368102Y-100645226D01*
X145568061Y-100685000D01*
X145771939Y-100685000D01*
X145971898Y-100645226D01*
X146105000Y-100590093D01*
X146238102Y-100645226D01*
X146438061Y-100685000D01*
X146641939Y-100685000D01*
X146841898Y-100645226D01*
X147030256Y-100567205D01*
X147199774Y-100453937D01*
X147343937Y-100309774D01*
X147457205Y-100140256D01*
X147535226Y-99951898D01*
X147549912Y-99878061D01*
X147865000Y-99878061D01*
X147865000Y-100081939D01*
X147904774Y-100281898D01*
X147982795Y-100470256D01*
X148096063Y-100639774D01*
X148240226Y-100783937D01*
X148409744Y-100897205D01*
X148598102Y-100975226D01*
X148798061Y-101015000D01*
X149001939Y-101015000D01*
X149201898Y-100975226D01*
X149390256Y-100897205D01*
X149559774Y-100783937D01*
X149703937Y-100639774D01*
X149817205Y-100470256D01*
X149895226Y-100281898D01*
X149935000Y-100081939D01*
X149935000Y-99878061D01*
X149914825Y-99776633D01*
X149921898Y-99775226D01*
X150110256Y-99697205D01*
X150279774Y-99583937D01*
X150423937Y-99439774D01*
X150537205Y-99270256D01*
X150615226Y-99081898D01*
X150617978Y-99068061D01*
X154105000Y-99068061D01*
X154105000Y-99271939D01*
X154144774Y-99471898D01*
X154222795Y-99660256D01*
X154336063Y-99829774D01*
X154480226Y-99973937D01*
X154649744Y-100087205D01*
X154838102Y-100165226D01*
X155038061Y-100205000D01*
X155241939Y-100205000D01*
X155441898Y-100165226D01*
X155630256Y-100087205D01*
X155799774Y-99973937D01*
X155943937Y-99829774D01*
X156057205Y-99660256D01*
X156135226Y-99471898D01*
X156175000Y-99271939D01*
X156175000Y-99068061D01*
X156135226Y-98868102D01*
X156057205Y-98679744D01*
X156029354Y-98638061D01*
X158865000Y-98638061D01*
X158865000Y-98841939D01*
X158904774Y-99041898D01*
X158982795Y-99230256D01*
X159096063Y-99399774D01*
X159240226Y-99543937D01*
X159409744Y-99657205D01*
X159598102Y-99735226D01*
X159798061Y-99775000D01*
X160001939Y-99775000D01*
X160201898Y-99735226D01*
X160390256Y-99657205D01*
X160559774Y-99543937D01*
X160703937Y-99399774D01*
X160817205Y-99230256D01*
X160880246Y-99078061D01*
X161705000Y-99078061D01*
X161705000Y-99281939D01*
X161744774Y-99481898D01*
X161822795Y-99670256D01*
X161936063Y-99839774D01*
X162080226Y-99983937D01*
X162249744Y-100097205D01*
X162438102Y-100175226D01*
X162638061Y-100215000D01*
X162841939Y-100215000D01*
X163041898Y-100175226D01*
X163230256Y-100097205D01*
X163293909Y-100054674D01*
X163436204Y-100113615D01*
X163636163Y-100153389D01*
X163840041Y-100153389D01*
X164040000Y-100113615D01*
X164228358Y-100035594D01*
X164281751Y-99999918D01*
X164434943Y-100063373D01*
X164634902Y-100103147D01*
X164838780Y-100103147D01*
X165038739Y-100063373D01*
X165227097Y-99985352D01*
X165396615Y-99872084D01*
X165540778Y-99727921D01*
X165596097Y-99645130D01*
X165686063Y-99779774D01*
X165830226Y-99923937D01*
X165999744Y-100037205D01*
X166188102Y-100115226D01*
X166388061Y-100155000D01*
X166591939Y-100155000D01*
X166791898Y-100115226D01*
X166980256Y-100037205D01*
X167149774Y-99923937D01*
X167293937Y-99779774D01*
X167407205Y-99610256D01*
X167485226Y-99421898D01*
X167515825Y-99268061D01*
X174505000Y-99268061D01*
X174505000Y-99471939D01*
X174544774Y-99671898D01*
X174622795Y-99860256D01*
X174736063Y-100029774D01*
X174880226Y-100173937D01*
X175049744Y-100287205D01*
X175238102Y-100365226D01*
X175438061Y-100405000D01*
X175641939Y-100405000D01*
X175841898Y-100365226D01*
X176030256Y-100287205D01*
X176199774Y-100173937D01*
X176343937Y-100029774D01*
X176457205Y-99860256D01*
X176535226Y-99671898D01*
X176575000Y-99471939D01*
X176575000Y-99268061D01*
X176535226Y-99068102D01*
X176457205Y-98879744D01*
X176343937Y-98710226D01*
X176199774Y-98566063D01*
X176030256Y-98452795D01*
X175841898Y-98374774D01*
X175641939Y-98335000D01*
X175438061Y-98335000D01*
X175238102Y-98374774D01*
X175049744Y-98452795D01*
X174880226Y-98566063D01*
X174736063Y-98710226D01*
X174622795Y-98879744D01*
X174544774Y-99068102D01*
X174505000Y-99268061D01*
X167515825Y-99268061D01*
X167525000Y-99221939D01*
X167525000Y-99018061D01*
X167485226Y-98818102D01*
X167407205Y-98629744D01*
X167293937Y-98460226D01*
X167149774Y-98316063D01*
X166980256Y-98202795D01*
X166791898Y-98124774D01*
X166742760Y-98115000D01*
X166881939Y-98115000D01*
X167081898Y-98075226D01*
X167270256Y-97997205D01*
X167325000Y-97960626D01*
X167379744Y-97997205D01*
X167568102Y-98075226D01*
X167768061Y-98115000D01*
X167971939Y-98115000D01*
X168171898Y-98075226D01*
X168360256Y-97997205D01*
X168529774Y-97883937D01*
X168673937Y-97739774D01*
X168787205Y-97570256D01*
X168865226Y-97381898D01*
X168905000Y-97181939D01*
X168905000Y-96978061D01*
X168865226Y-96778102D01*
X168787205Y-96589744D01*
X168673937Y-96420226D01*
X168529774Y-96276063D01*
X168528500Y-96275211D01*
X168553937Y-96249774D01*
X168570810Y-96224521D01*
X168670226Y-96323937D01*
X168839744Y-96437205D01*
X169028102Y-96515226D01*
X169228061Y-96555000D01*
X169431939Y-96555000D01*
X169631898Y-96515226D01*
X169820256Y-96437205D01*
X169989774Y-96323937D01*
X170133937Y-96179774D01*
X170247205Y-96010256D01*
X170325226Y-95821898D01*
X170365000Y-95621939D01*
X170365000Y-95418061D01*
X170325226Y-95218102D01*
X170247205Y-95029744D01*
X170246020Y-95027970D01*
X170272826Y-94987851D01*
X170350847Y-94799493D01*
X170390621Y-94599534D01*
X170390621Y-94395656D01*
X170350847Y-94195697D01*
X170272826Y-94007339D01*
X170263484Y-93993358D01*
X170267154Y-93987865D01*
X170345175Y-93799507D01*
X170355408Y-93748061D01*
X171445000Y-93748061D01*
X171445000Y-93951939D01*
X171484774Y-94151898D01*
X171562795Y-94340256D01*
X171676063Y-94509774D01*
X171820226Y-94653937D01*
X171989744Y-94767205D01*
X172178102Y-94845226D01*
X172378061Y-94885000D01*
X172581939Y-94885000D01*
X172781898Y-94845226D01*
X172970256Y-94767205D01*
X173139774Y-94653937D01*
X173283937Y-94509774D01*
X173397205Y-94340256D01*
X173475226Y-94151898D01*
X173515000Y-93951939D01*
X173515000Y-93748061D01*
X173475226Y-93548102D01*
X173397205Y-93359744D01*
X173308831Y-93227483D01*
X173407205Y-93080256D01*
X173485226Y-92891898D01*
X173525000Y-92691939D01*
X173525000Y-92488061D01*
X173485226Y-92288102D01*
X173407205Y-92099744D01*
X173321794Y-91971917D01*
X173333937Y-91959774D01*
X173447205Y-91790256D01*
X173525226Y-91601898D01*
X173565000Y-91401939D01*
X173565000Y-91198061D01*
X173525226Y-90998102D01*
X173447205Y-90809744D01*
X173355536Y-90672551D01*
X173417205Y-90580256D01*
X173495226Y-90391898D01*
X173535000Y-90191939D01*
X173535000Y-89988061D01*
X173495226Y-89788102D01*
X173417205Y-89599744D01*
X173377263Y-89539966D01*
X173437205Y-89450256D01*
X173515226Y-89261898D01*
X173555000Y-89061939D01*
X173555000Y-88858061D01*
X173515226Y-88658102D01*
X173437205Y-88469744D01*
X173385604Y-88392517D01*
X173427205Y-88330256D01*
X173505226Y-88141898D01*
X173545000Y-87941939D01*
X173545000Y-87738061D01*
X173505226Y-87538102D01*
X173427205Y-87349744D01*
X173313937Y-87180226D01*
X173169774Y-87036063D01*
X173000256Y-86922795D01*
X172811898Y-86844774D01*
X172611939Y-86805000D01*
X172408061Y-86805000D01*
X172208102Y-86844774D01*
X172019744Y-86922795D01*
X171850226Y-87036063D01*
X171706063Y-87180226D01*
X171592795Y-87349744D01*
X171514774Y-87538102D01*
X171475000Y-87738061D01*
X171475000Y-87941939D01*
X171514774Y-88141898D01*
X171592795Y-88330256D01*
X171644396Y-88407483D01*
X171602795Y-88469744D01*
X171524774Y-88658102D01*
X171485000Y-88858061D01*
X171485000Y-89061939D01*
X171524774Y-89261898D01*
X171602795Y-89450256D01*
X171642737Y-89510034D01*
X171582795Y-89599744D01*
X171504774Y-89788102D01*
X171465000Y-89988061D01*
X171465000Y-90191939D01*
X171504774Y-90391898D01*
X171582795Y-90580256D01*
X171674464Y-90717449D01*
X171612795Y-90809744D01*
X171534774Y-90998102D01*
X171495000Y-91198061D01*
X171495000Y-91401939D01*
X171534774Y-91601898D01*
X171612795Y-91790256D01*
X171698206Y-91918083D01*
X171686063Y-91930226D01*
X171572795Y-92099744D01*
X171494774Y-92288102D01*
X171455000Y-92488061D01*
X171455000Y-92691939D01*
X171494774Y-92891898D01*
X171572795Y-93080256D01*
X171661169Y-93212517D01*
X171562795Y-93359744D01*
X171484774Y-93548102D01*
X171445000Y-93748061D01*
X170355408Y-93748061D01*
X170384949Y-93599548D01*
X170384949Y-93395670D01*
X170345175Y-93195711D01*
X170267154Y-93007353D01*
X170153886Y-92837835D01*
X170009723Y-92693672D01*
X169840205Y-92580404D01*
X169651847Y-92502383D01*
X169451888Y-92462609D01*
X169248010Y-92462609D01*
X169048051Y-92502383D01*
X168859693Y-92580404D01*
X168690175Y-92693672D01*
X168546012Y-92837835D01*
X168432744Y-93007353D01*
X168354723Y-93195711D01*
X168314949Y-93395670D01*
X168314949Y-93599548D01*
X168354723Y-93799507D01*
X168432744Y-93987865D01*
X168442086Y-94001846D01*
X168438416Y-94007339D01*
X168360395Y-94195697D01*
X168320621Y-94395656D01*
X168320621Y-94599534D01*
X168349745Y-94745953D01*
X168240256Y-94672795D01*
X168051898Y-94594774D01*
X167851939Y-94555000D01*
X167648061Y-94555000D01*
X167448102Y-94594774D01*
X167259744Y-94672795D01*
X167090226Y-94786063D01*
X166946063Y-94930226D01*
X166832795Y-95099744D01*
X166754774Y-95288102D01*
X166715000Y-95488061D01*
X166715000Y-95691939D01*
X166754774Y-95891898D01*
X166818191Y-96045000D01*
X166678061Y-96045000D01*
X166478102Y-96084774D01*
X166289744Y-96162795D01*
X166120226Y-96276063D01*
X165976063Y-96420226D01*
X165862795Y-96589744D01*
X165784774Y-96778102D01*
X165745000Y-96978061D01*
X165745000Y-97181939D01*
X165784774Y-97381898D01*
X165862795Y-97570256D01*
X165976063Y-97739774D01*
X166120226Y-97883937D01*
X166289744Y-97997205D01*
X166478102Y-98075226D01*
X166527240Y-98085000D01*
X166388061Y-98085000D01*
X166188102Y-98124774D01*
X165999744Y-98202795D01*
X165830226Y-98316063D01*
X165686063Y-98460226D01*
X165630744Y-98543017D01*
X165540778Y-98408373D01*
X165396615Y-98264210D01*
X165385864Y-98257026D01*
X165457205Y-98150256D01*
X165535226Y-97961898D01*
X165575000Y-97761939D01*
X165575000Y-97558061D01*
X165535226Y-97358102D01*
X165457205Y-97169744D01*
X165343937Y-97000226D01*
X165199774Y-96856063D01*
X165030256Y-96742795D01*
X164841898Y-96664774D01*
X164641939Y-96625000D01*
X164438061Y-96625000D01*
X164238102Y-96664774D01*
X164049744Y-96742795D01*
X163948270Y-96810598D01*
X163927205Y-96759744D01*
X163813937Y-96590226D01*
X163669774Y-96446063D01*
X163500256Y-96332795D01*
X163311898Y-96254774D01*
X163111939Y-96215000D01*
X162908061Y-96215000D01*
X162708102Y-96254774D01*
X162519744Y-96332795D01*
X162350226Y-96446063D01*
X162206063Y-96590226D01*
X162092795Y-96759744D01*
X162014774Y-96948102D01*
X161975000Y-97148061D01*
X161975000Y-97351939D01*
X162014774Y-97551898D01*
X162092795Y-97740256D01*
X162206063Y-97909774D01*
X162350226Y-98053937D01*
X162519744Y-98167205D01*
X162521912Y-98168103D01*
X162438102Y-98184774D01*
X162249744Y-98262795D01*
X162080226Y-98376063D01*
X161936063Y-98520226D01*
X161822795Y-98689744D01*
X161744774Y-98878102D01*
X161705000Y-99078061D01*
X160880246Y-99078061D01*
X160895226Y-99041898D01*
X160935000Y-98841939D01*
X160935000Y-98638061D01*
X160895226Y-98438102D01*
X160817205Y-98249744D01*
X160703937Y-98080226D01*
X160559774Y-97936063D01*
X160390256Y-97822795D01*
X160201898Y-97744774D01*
X160001939Y-97705000D01*
X159798061Y-97705000D01*
X159598102Y-97744774D01*
X159409744Y-97822795D01*
X159240226Y-97936063D01*
X159096063Y-98080226D01*
X158982795Y-98249744D01*
X158904774Y-98438102D01*
X158865000Y-98638061D01*
X156029354Y-98638061D01*
X155943937Y-98510226D01*
X155799774Y-98366063D01*
X155630256Y-98252795D01*
X155441898Y-98174774D01*
X155241939Y-98135000D01*
X155038061Y-98135000D01*
X154838102Y-98174774D01*
X154649744Y-98252795D01*
X154480226Y-98366063D01*
X154336063Y-98510226D01*
X154222795Y-98679744D01*
X154144774Y-98868102D01*
X154105000Y-99068061D01*
X150617978Y-99068061D01*
X150655000Y-98881939D01*
X150655000Y-98678061D01*
X150615226Y-98478102D01*
X150537205Y-98289744D01*
X150423937Y-98120226D01*
X150279774Y-97976063D01*
X150110256Y-97862795D01*
X149921898Y-97784774D01*
X149888150Y-97778061D01*
X150825000Y-97778061D01*
X150825000Y-97981939D01*
X150864774Y-98181898D01*
X150942795Y-98370256D01*
X151056063Y-98539774D01*
X151200226Y-98683937D01*
X151369744Y-98797205D01*
X151558102Y-98875226D01*
X151758061Y-98915000D01*
X151961939Y-98915000D01*
X152161898Y-98875226D01*
X152350256Y-98797205D01*
X152519774Y-98683937D01*
X152663937Y-98539774D01*
X152777205Y-98370256D01*
X152855226Y-98181898D01*
X152895000Y-97981939D01*
X152895000Y-97778061D01*
X152855226Y-97578102D01*
X152777205Y-97389744D01*
X152663937Y-97220226D01*
X152661772Y-97218061D01*
X153055000Y-97218061D01*
X153055000Y-97421939D01*
X153094774Y-97621898D01*
X153172795Y-97810256D01*
X153286063Y-97979774D01*
X153430226Y-98123937D01*
X153599744Y-98237205D01*
X153788102Y-98315226D01*
X153988061Y-98355000D01*
X154191939Y-98355000D01*
X154391898Y-98315226D01*
X154580256Y-98237205D01*
X154749774Y-98123937D01*
X154893937Y-97979774D01*
X155007205Y-97810256D01*
X155085226Y-97621898D01*
X155125000Y-97421939D01*
X155125000Y-97218061D01*
X155085226Y-97018102D01*
X155007205Y-96829744D01*
X154893937Y-96660226D01*
X154749774Y-96516063D01*
X154580256Y-96402795D01*
X154391898Y-96324774D01*
X154191939Y-96285000D01*
X153988061Y-96285000D01*
X153788102Y-96324774D01*
X153599744Y-96402795D01*
X153430226Y-96516063D01*
X153286063Y-96660226D01*
X153172795Y-96829744D01*
X153094774Y-97018102D01*
X153055000Y-97218061D01*
X152661772Y-97218061D01*
X152519774Y-97076063D01*
X152350256Y-96962795D01*
X152161898Y-96884774D01*
X151961939Y-96845000D01*
X151758061Y-96845000D01*
X151558102Y-96884774D01*
X151369744Y-96962795D01*
X151200226Y-97076063D01*
X151056063Y-97220226D01*
X150942795Y-97389744D01*
X150864774Y-97578102D01*
X150825000Y-97778061D01*
X149888150Y-97778061D01*
X149721939Y-97745000D01*
X149518061Y-97745000D01*
X149318102Y-97784774D01*
X149129744Y-97862795D01*
X148960226Y-97976063D01*
X148816063Y-98120226D01*
X148702795Y-98289744D01*
X148624774Y-98478102D01*
X148585000Y-98678061D01*
X148585000Y-98881939D01*
X148605175Y-98983367D01*
X148598102Y-98984774D01*
X148409744Y-99062795D01*
X148240226Y-99176063D01*
X148096063Y-99320226D01*
X147982795Y-99489744D01*
X147904774Y-99678102D01*
X147865000Y-99878061D01*
X147549912Y-99878061D01*
X147575000Y-99751939D01*
X147575000Y-99548061D01*
X147535226Y-99348102D01*
X147479235Y-99212929D01*
X147525226Y-99101898D01*
X147565000Y-98901939D01*
X147565000Y-98698061D01*
X147525226Y-98498102D01*
X147447205Y-98309744D01*
X147333937Y-98140226D01*
X147189774Y-97996063D01*
X147020256Y-97882795D01*
X146831898Y-97804774D01*
X146631939Y-97765000D01*
X146428061Y-97765000D01*
X146228102Y-97804774D01*
X146087929Y-97862836D01*
X145971898Y-97814774D01*
X145771939Y-97775000D01*
X145568061Y-97775000D01*
X145368102Y-97814774D01*
X145179744Y-97892795D01*
X145010226Y-98006063D01*
X144866063Y-98150226D01*
X144752795Y-98319744D01*
X144674774Y-98508102D01*
X144635000Y-98708061D01*
X116730000Y-98708061D01*
X116730000Y-94683036D01*
X126760025Y-94683036D01*
X126760025Y-94886914D01*
X126799799Y-95086873D01*
X126877820Y-95275231D01*
X126991088Y-95444749D01*
X127135251Y-95588912D01*
X127304769Y-95702180D01*
X127493127Y-95780201D01*
X127565000Y-95794497D01*
X127565000Y-95851939D01*
X127604774Y-96051898D01*
X127682795Y-96240256D01*
X127796063Y-96409774D01*
X127940226Y-96553937D01*
X128109744Y-96667205D01*
X128298102Y-96745226D01*
X128498061Y-96785000D01*
X128701939Y-96785000D01*
X128901898Y-96745226D01*
X129090256Y-96667205D01*
X129259774Y-96553937D01*
X129403937Y-96409774D01*
X129517205Y-96240256D01*
X129595226Y-96051898D01*
X129635000Y-95851939D01*
X129635000Y-95648061D01*
X129595226Y-95448102D01*
X129517205Y-95259744D01*
X129403937Y-95090226D01*
X129259774Y-94946063D01*
X129090256Y-94832795D01*
X128901898Y-94754774D01*
X128830025Y-94740478D01*
X128830025Y-94683036D01*
X128829036Y-94678061D01*
X129415000Y-94678061D01*
X129415000Y-94881939D01*
X129454774Y-95081898D01*
X129532795Y-95270256D01*
X129646063Y-95439774D01*
X129790226Y-95583937D01*
X129959744Y-95697205D01*
X130148102Y-95775226D01*
X130348061Y-95815000D01*
X130551939Y-95815000D01*
X130751898Y-95775226D01*
X130940256Y-95697205D01*
X131109774Y-95583937D01*
X131253937Y-95439774D01*
X131324357Y-95334382D01*
X131428061Y-95355010D01*
X131631939Y-95355010D01*
X131831898Y-95315236D01*
X131916487Y-95280198D01*
X131990226Y-95353937D01*
X132159744Y-95467205D01*
X132348102Y-95545226D01*
X132548061Y-95585000D01*
X132751939Y-95585000D01*
X132794014Y-95576631D01*
X132832795Y-95670256D01*
X132946063Y-95839774D01*
X133090226Y-95983937D01*
X133259744Y-96097205D01*
X133448102Y-96175226D01*
X133648061Y-96215000D01*
X133851939Y-96215000D01*
X134051898Y-96175226D01*
X134240256Y-96097205D01*
X134328787Y-96038050D01*
X156485000Y-96038050D01*
X156485000Y-96241928D01*
X156524774Y-96441887D01*
X156602795Y-96630245D01*
X156716063Y-96799763D01*
X156860226Y-96943926D01*
X157029744Y-97057194D01*
X157218102Y-97135215D01*
X157418061Y-97174989D01*
X157621939Y-97174989D01*
X157821898Y-97135215D01*
X158010256Y-97057194D01*
X158179774Y-96943926D01*
X158323937Y-96799763D01*
X158437205Y-96630245D01*
X158515226Y-96441887D01*
X158555000Y-96241928D01*
X158555000Y-96038422D01*
X158676061Y-96014574D01*
X158846351Y-95944408D01*
X158849425Y-95942763D01*
X158859936Y-95749541D01*
X158405000Y-95294605D01*
X158390858Y-95308748D01*
X158211253Y-95129143D01*
X158225395Y-95115000D01*
X158584605Y-95115000D01*
X158761969Y-95292364D01*
X158780426Y-95386061D01*
X158850592Y-95556351D01*
X158852237Y-95559425D01*
X159039201Y-95569596D01*
X159039541Y-95569936D01*
X159042500Y-95569775D01*
X159045459Y-95569936D01*
X159045799Y-95569596D01*
X159232763Y-95559425D01*
X159303562Y-95389397D01*
X159323055Y-95292340D01*
X159500395Y-95115000D01*
X159323031Y-94937636D01*
X159304574Y-94843939D01*
X159234408Y-94673649D01*
X159232763Y-94670575D01*
X159045799Y-94660404D01*
X159045459Y-94660064D01*
X159042500Y-94660225D01*
X159039541Y-94660064D01*
X159039201Y-94660404D01*
X158852237Y-94670575D01*
X158781438Y-94840603D01*
X158761945Y-94937660D01*
X158584605Y-95115000D01*
X158225395Y-95115000D01*
X157770459Y-94660064D01*
X157577237Y-94670575D01*
X157506438Y-94840603D01*
X157470172Y-95021176D01*
X157470016Y-95104989D01*
X157418061Y-95104989D01*
X157218102Y-95144763D01*
X157029744Y-95222784D01*
X156860226Y-95336052D01*
X156716063Y-95480215D01*
X156602795Y-95649733D01*
X156524774Y-95838091D01*
X156485000Y-96038050D01*
X134328787Y-96038050D01*
X134409774Y-95983937D01*
X134553937Y-95839774D01*
X134667205Y-95670256D01*
X134697571Y-95596946D01*
X134738061Y-95605000D01*
X134941939Y-95605000D01*
X135141898Y-95565226D01*
X135330256Y-95487205D01*
X135499774Y-95373937D01*
X135643937Y-95229774D01*
X135757205Y-95060256D01*
X135835226Y-94871898D01*
X135875000Y-94671939D01*
X135875000Y-94468061D01*
X135839197Y-94288061D01*
X142155000Y-94288061D01*
X142155000Y-94491939D01*
X142194774Y-94691898D01*
X142272795Y-94880256D01*
X142386063Y-95049774D01*
X142530226Y-95193937D01*
X142699744Y-95307205D01*
X142888102Y-95385226D01*
X143088061Y-95425000D01*
X143291939Y-95425000D01*
X143491898Y-95385226D01*
X143680256Y-95307205D01*
X143849774Y-95193937D01*
X143993937Y-95049774D01*
X144107205Y-94880256D01*
X144185226Y-94691898D01*
X144225000Y-94491939D01*
X144225000Y-94474541D01*
X157950064Y-94474541D01*
X157950225Y-94477500D01*
X157950064Y-94480459D01*
X157950404Y-94480799D01*
X157960575Y-94667763D01*
X158130603Y-94738562D01*
X158227660Y-94758055D01*
X158405000Y-94935395D01*
X158582364Y-94758031D01*
X158676061Y-94739574D01*
X158846351Y-94669408D01*
X158849425Y-94667763D01*
X158859596Y-94480799D01*
X158859936Y-94480459D01*
X158859775Y-94477500D01*
X158859936Y-94474541D01*
X159225064Y-94474541D01*
X159225225Y-94477500D01*
X159225064Y-94480459D01*
X159225404Y-94480799D01*
X159235575Y-94667763D01*
X159405603Y-94738562D01*
X159502660Y-94758055D01*
X159680000Y-94935395D01*
X159857364Y-94758031D01*
X159951061Y-94739574D01*
X160121351Y-94669408D01*
X160124425Y-94667763D01*
X160134596Y-94480799D01*
X160134936Y-94480459D01*
X160134775Y-94477500D01*
X160134936Y-94474541D01*
X160134596Y-94474201D01*
X160124425Y-94287237D01*
X159954397Y-94216438D01*
X159857340Y-94196945D01*
X159680000Y-94019605D01*
X159502636Y-94196969D01*
X159408939Y-94215426D01*
X159238649Y-94285592D01*
X159235575Y-94287237D01*
X159225404Y-94474201D01*
X159225064Y-94474541D01*
X158859936Y-94474541D01*
X158859596Y-94474201D01*
X158849425Y-94287237D01*
X158679397Y-94216438D01*
X158582340Y-94196945D01*
X158405000Y-94019605D01*
X158227636Y-94196969D01*
X158133939Y-94215426D01*
X157963649Y-94285592D01*
X157960575Y-94287237D01*
X157950404Y-94474201D01*
X157950064Y-94474541D01*
X144225000Y-94474541D01*
X144225000Y-94288061D01*
X144185226Y-94088102D01*
X144119885Y-93930355D01*
X157469829Y-93930355D01*
X157505426Y-94111061D01*
X157575592Y-94281351D01*
X157577237Y-94284425D01*
X157770459Y-94294936D01*
X158225395Y-93840000D01*
X158584605Y-93840000D01*
X158761969Y-94017364D01*
X158780426Y-94111061D01*
X158850592Y-94281351D01*
X158852237Y-94284425D01*
X159039201Y-94294596D01*
X159039541Y-94294936D01*
X159042500Y-94294775D01*
X159045459Y-94294936D01*
X159045799Y-94294596D01*
X159232763Y-94284425D01*
X159303562Y-94114397D01*
X159323055Y-94017340D01*
X159500395Y-93840000D01*
X159859605Y-93840000D01*
X160036969Y-94017364D01*
X160055426Y-94111061D01*
X160125592Y-94281351D01*
X160127237Y-94284425D01*
X160314201Y-94294596D01*
X160314541Y-94294936D01*
X160317500Y-94294775D01*
X160320459Y-94294936D01*
X160320799Y-94294596D01*
X160507763Y-94284425D01*
X160578562Y-94114397D01*
X160598055Y-94017340D01*
X160775395Y-93840000D01*
X160598031Y-93662636D01*
X160579574Y-93568939D01*
X160509408Y-93398649D01*
X160507763Y-93395575D01*
X160320799Y-93385404D01*
X160320459Y-93385064D01*
X160317500Y-93385225D01*
X160314541Y-93385064D01*
X160314201Y-93385404D01*
X160127237Y-93395575D01*
X160056438Y-93565603D01*
X160036945Y-93662660D01*
X159859605Y-93840000D01*
X159500395Y-93840000D01*
X159323031Y-93662636D01*
X159304574Y-93568939D01*
X159234408Y-93398649D01*
X159232763Y-93395575D01*
X159045799Y-93385404D01*
X159045459Y-93385064D01*
X159042500Y-93385225D01*
X159039541Y-93385064D01*
X159039201Y-93385404D01*
X158852237Y-93395575D01*
X158781438Y-93565603D01*
X158761945Y-93662660D01*
X158584605Y-93840000D01*
X158225395Y-93840000D01*
X157770459Y-93385064D01*
X157577237Y-93395575D01*
X157506438Y-93565603D01*
X157470172Y-93746176D01*
X157469829Y-93930355D01*
X144119885Y-93930355D01*
X144107205Y-93899744D01*
X143993937Y-93730226D01*
X143849774Y-93586063D01*
X143680256Y-93472795D01*
X143491898Y-93394774D01*
X143291939Y-93355000D01*
X143088061Y-93355000D01*
X142888102Y-93394774D01*
X142699744Y-93472795D01*
X142530226Y-93586063D01*
X142386063Y-93730226D01*
X142272795Y-93899744D01*
X142194774Y-94088102D01*
X142155000Y-94288061D01*
X135839197Y-94288061D01*
X135835226Y-94268102D01*
X135757205Y-94079744D01*
X135643937Y-93910226D01*
X135499774Y-93766063D01*
X135330256Y-93652795D01*
X135141898Y-93574774D01*
X134941939Y-93535000D01*
X134738061Y-93535000D01*
X134538102Y-93574774D01*
X134349744Y-93652795D01*
X134180226Y-93766063D01*
X134036063Y-93910226D01*
X133922795Y-94079744D01*
X133892429Y-94153054D01*
X133851939Y-94145000D01*
X133648061Y-94145000D01*
X133605986Y-94153369D01*
X133567205Y-94059744D01*
X133453937Y-93890226D01*
X133309774Y-93746063D01*
X133140256Y-93632795D01*
X132951898Y-93554774D01*
X132751939Y-93515000D01*
X132548061Y-93515000D01*
X132348102Y-93554774D01*
X132263513Y-93589812D01*
X132189774Y-93516073D01*
X132020256Y-93402805D01*
X131831898Y-93324784D01*
X131631939Y-93285010D01*
X131428061Y-93285010D01*
X131228102Y-93324784D01*
X131039744Y-93402805D01*
X130870226Y-93516073D01*
X130726063Y-93660236D01*
X130655643Y-93765628D01*
X130551939Y-93745000D01*
X130348061Y-93745000D01*
X130148102Y-93784774D01*
X129959744Y-93862795D01*
X129790226Y-93976063D01*
X129646063Y-94120226D01*
X129532795Y-94289744D01*
X129454774Y-94478102D01*
X129415000Y-94678061D01*
X128829036Y-94678061D01*
X128790251Y-94483077D01*
X128712230Y-94294719D01*
X128598962Y-94125201D01*
X128454799Y-93981038D01*
X128285281Y-93867770D01*
X128096923Y-93789749D01*
X127896964Y-93749975D01*
X127693086Y-93749975D01*
X127493127Y-93789749D01*
X127304769Y-93867770D01*
X127135251Y-93981038D01*
X126991088Y-94125201D01*
X126877820Y-94294719D01*
X126799799Y-94483077D01*
X126760025Y-94683036D01*
X116730000Y-94683036D01*
X116730000Y-93199541D01*
X157950064Y-93199541D01*
X157950225Y-93202500D01*
X157950064Y-93205459D01*
X157950404Y-93205799D01*
X157960575Y-93392763D01*
X158130603Y-93463562D01*
X158227660Y-93483055D01*
X158405000Y-93660395D01*
X158582364Y-93483031D01*
X158676061Y-93464574D01*
X158846351Y-93394408D01*
X158849425Y-93392763D01*
X158859596Y-93205799D01*
X158859936Y-93205459D01*
X158859775Y-93202500D01*
X158859936Y-93199541D01*
X159225064Y-93199541D01*
X159225225Y-93202500D01*
X159225064Y-93205459D01*
X159225404Y-93205799D01*
X159235575Y-93392763D01*
X159405603Y-93463562D01*
X159502660Y-93483055D01*
X159680000Y-93660395D01*
X159857364Y-93483031D01*
X159951061Y-93464574D01*
X160121351Y-93394408D01*
X160124425Y-93392763D01*
X160134596Y-93205799D01*
X160134936Y-93205459D01*
X160134775Y-93202500D01*
X160134936Y-93199541D01*
X160134596Y-93199201D01*
X160124425Y-93012237D01*
X159954397Y-92941438D01*
X159857340Y-92921945D01*
X159680000Y-92744605D01*
X159502636Y-92921969D01*
X159408939Y-92940426D01*
X159238649Y-93010592D01*
X159235575Y-93012237D01*
X159225404Y-93199201D01*
X159225064Y-93199541D01*
X158859936Y-93199541D01*
X158859596Y-93199201D01*
X158849425Y-93012237D01*
X158679397Y-92941438D01*
X158582340Y-92921945D01*
X158405000Y-92744605D01*
X158227636Y-92921969D01*
X158133939Y-92940426D01*
X157963649Y-93010592D01*
X157960575Y-93012237D01*
X157950404Y-93199201D01*
X157950064Y-93199541D01*
X116730000Y-93199541D01*
X116730000Y-90478061D01*
X126805000Y-90478061D01*
X126805000Y-90681939D01*
X126844774Y-90881898D01*
X126922795Y-91070256D01*
X127036063Y-91239774D01*
X127180226Y-91383937D01*
X127349744Y-91497205D01*
X127538102Y-91575226D01*
X127738061Y-91615000D01*
X127941939Y-91615000D01*
X128141898Y-91575226D01*
X128330256Y-91497205D01*
X128499774Y-91383937D01*
X128643937Y-91239774D01*
X128757205Y-91070256D01*
X128821515Y-90915000D01*
X128981939Y-90915000D01*
X129181898Y-90875226D01*
X129370256Y-90797205D01*
X129505000Y-90707172D01*
X129505000Y-90861939D01*
X129544774Y-91061898D01*
X129622795Y-91250256D01*
X129736063Y-91419774D01*
X129880226Y-91563937D01*
X130049744Y-91677205D01*
X130238102Y-91755226D01*
X130438061Y-91795000D01*
X130641939Y-91795000D01*
X130841898Y-91755226D01*
X131030256Y-91677205D01*
X131199774Y-91563937D01*
X131343937Y-91419774D01*
X131457205Y-91250256D01*
X131535226Y-91061898D01*
X131575000Y-90861939D01*
X131575000Y-90658061D01*
X131535226Y-90458102D01*
X131457205Y-90269744D01*
X131343937Y-90100226D01*
X131199774Y-89956063D01*
X131030256Y-89842795D01*
X130841898Y-89764774D01*
X130808150Y-89758061D01*
X134885000Y-89758061D01*
X134885000Y-89961939D01*
X134924774Y-90161898D01*
X135002795Y-90350256D01*
X135116063Y-90519774D01*
X135260226Y-90663937D01*
X135429744Y-90777205D01*
X135618102Y-90855226D01*
X135818061Y-90895000D01*
X136021939Y-90895000D01*
X136221898Y-90855226D01*
X136410256Y-90777205D01*
X136515194Y-90707088D01*
X136515000Y-90708061D01*
X136515000Y-90911939D01*
X136554774Y-91111898D01*
X136632795Y-91300256D01*
X136746063Y-91469774D01*
X136890226Y-91613937D01*
X137059744Y-91727205D01*
X137248102Y-91805226D01*
X137448061Y-91845000D01*
X137651939Y-91845000D01*
X137851898Y-91805226D01*
X138040256Y-91727205D01*
X138209774Y-91613937D01*
X138353937Y-91469774D01*
X138467205Y-91300256D01*
X138497123Y-91228028D01*
X152133022Y-91228028D01*
X152133022Y-91431906D01*
X152172796Y-91631865D01*
X152250817Y-91820223D01*
X152364085Y-91989741D01*
X152508248Y-92133904D01*
X152677766Y-92247172D01*
X152866124Y-92325193D01*
X153066083Y-92364967D01*
X153269961Y-92364967D01*
X153469920Y-92325193D01*
X153658278Y-92247172D01*
X153827796Y-92133904D01*
X153971959Y-91989741D01*
X154085227Y-91820223D01*
X154138940Y-91690549D01*
X156437133Y-91690549D01*
X156437133Y-91894427D01*
X156476907Y-92094386D01*
X156554928Y-92282744D01*
X156668196Y-92452262D01*
X156812359Y-92596425D01*
X156981877Y-92709693D01*
X157170235Y-92787714D01*
X157370194Y-92827488D01*
X157503737Y-92827488D01*
X157505426Y-92836061D01*
X157575592Y-93006351D01*
X157577237Y-93009425D01*
X157770459Y-93019936D01*
X158225395Y-92565000D01*
X158211253Y-92550858D01*
X158390858Y-92371253D01*
X158405000Y-92385395D01*
X158419143Y-92371253D01*
X158598748Y-92550858D01*
X158584605Y-92565000D01*
X158761969Y-92742364D01*
X158780426Y-92836061D01*
X158850592Y-93006351D01*
X158852237Y-93009425D01*
X159039201Y-93019596D01*
X159039541Y-93019936D01*
X159042500Y-93019775D01*
X159045459Y-93019936D01*
X159045799Y-93019596D01*
X159232763Y-93009425D01*
X159303562Y-92839397D01*
X159323055Y-92742340D01*
X159500395Y-92565000D01*
X159486253Y-92550858D01*
X159598777Y-92438333D01*
X159679201Y-92384596D01*
X159680000Y-92385395D01*
X159684019Y-92381376D01*
X159696156Y-92373266D01*
X159873748Y-92550858D01*
X159859605Y-92565000D01*
X160036969Y-92742364D01*
X160055426Y-92836061D01*
X160125592Y-93006351D01*
X160127237Y-93009425D01*
X160314201Y-93019596D01*
X160314541Y-93019936D01*
X160317500Y-93019775D01*
X160320459Y-93019936D01*
X160320799Y-93019596D01*
X160507763Y-93009425D01*
X160578562Y-92839397D01*
X160598055Y-92742340D01*
X160775395Y-92565000D01*
X160768249Y-92557854D01*
X160881904Y-92535247D01*
X161050766Y-92465302D01*
X161024753Y-92528102D01*
X160984979Y-92728061D01*
X160984979Y-92742911D01*
X160969143Y-92758748D01*
X160955000Y-92744605D01*
X160777636Y-92921969D01*
X160683939Y-92940426D01*
X160513649Y-93010592D01*
X160510575Y-93012237D01*
X160500404Y-93199201D01*
X160500064Y-93199541D01*
X160500225Y-93202500D01*
X160500064Y-93205459D01*
X160500404Y-93205799D01*
X160510575Y-93392763D01*
X160680603Y-93463562D01*
X160777660Y-93483055D01*
X160955000Y-93660395D01*
X160969143Y-93646253D01*
X161148748Y-93825858D01*
X161134605Y-93840000D01*
X161148748Y-93854143D01*
X160969143Y-94033748D01*
X160955000Y-94019605D01*
X160777636Y-94196969D01*
X160683939Y-94215426D01*
X160513649Y-94285592D01*
X160510575Y-94287237D01*
X160500404Y-94474201D01*
X160500064Y-94474541D01*
X160500225Y-94477500D01*
X160500064Y-94480459D01*
X160500404Y-94480799D01*
X160510575Y-94667763D01*
X160680603Y-94738562D01*
X160777660Y-94758055D01*
X160955000Y-94935395D01*
X160969143Y-94921253D01*
X160980044Y-94932154D01*
X160955000Y-95058061D01*
X160955000Y-95062446D01*
X160794417Y-95128962D01*
X160774428Y-95142318D01*
X160761253Y-95129143D01*
X160775395Y-95115000D01*
X160598031Y-94937636D01*
X160579574Y-94843939D01*
X160509408Y-94673649D01*
X160507763Y-94670575D01*
X160320799Y-94660404D01*
X160320459Y-94660064D01*
X160317500Y-94660225D01*
X160314541Y-94660064D01*
X160314201Y-94660404D01*
X160127237Y-94670575D01*
X160056438Y-94840603D01*
X160036945Y-94937660D01*
X159859605Y-95115000D01*
X159863678Y-95119073D01*
X159794590Y-95147690D01*
X159625072Y-95260958D01*
X159480909Y-95405121D01*
X159367641Y-95574639D01*
X159344783Y-95629822D01*
X159225064Y-95749541D01*
X159235575Y-95942763D01*
X159252464Y-95949795D01*
X159249846Y-95962956D01*
X159249846Y-96166834D01*
X159289620Y-96366793D01*
X159367641Y-96555151D01*
X159480909Y-96724669D01*
X159625072Y-96868832D01*
X159794590Y-96982100D01*
X159982948Y-97060121D01*
X160182907Y-97099895D01*
X160386785Y-97099895D01*
X160586744Y-97060121D01*
X160775102Y-96982100D01*
X160799796Y-96965600D01*
X160982775Y-97041393D01*
X161182734Y-97081167D01*
X161386612Y-97081167D01*
X161586571Y-97041393D01*
X161774929Y-96963372D01*
X161944447Y-96850104D01*
X162088610Y-96705941D01*
X162201878Y-96536423D01*
X162279899Y-96348065D01*
X162319673Y-96148106D01*
X162319673Y-96143721D01*
X162480256Y-96077205D01*
X162649774Y-95963937D01*
X162793937Y-95819774D01*
X162907205Y-95650256D01*
X162985226Y-95461898D01*
X163025000Y-95261939D01*
X163025000Y-95058061D01*
X162985226Y-94858102D01*
X162907205Y-94669744D01*
X162793937Y-94500226D01*
X162649774Y-94356063D01*
X162480256Y-94242795D01*
X162291898Y-94164774D01*
X162091939Y-94125000D01*
X161888061Y-94125000D01*
X161845633Y-94133439D01*
X161853562Y-94114397D01*
X161889828Y-93933824D01*
X161889967Y-93859416D01*
X161918040Y-93865000D01*
X162121918Y-93865000D01*
X162321877Y-93825226D01*
X162510235Y-93747205D01*
X162679753Y-93633937D01*
X162823916Y-93489774D01*
X162937184Y-93320256D01*
X163015205Y-93131898D01*
X163054979Y-92931939D01*
X163054979Y-92728061D01*
X163015205Y-92528102D01*
X162937184Y-92339744D01*
X162823916Y-92170226D01*
X162752296Y-92098606D01*
X162797394Y-91989731D01*
X162837168Y-91789772D01*
X162837168Y-91585894D01*
X162797394Y-91385935D01*
X162719373Y-91197577D01*
X162606105Y-91028059D01*
X162461942Y-90883896D01*
X162292424Y-90770628D01*
X162104066Y-90692607D01*
X161904107Y-90652833D01*
X161700229Y-90652833D01*
X161500270Y-90692607D01*
X161311912Y-90770628D01*
X161289380Y-90785684D01*
X161239780Y-90736084D01*
X161070262Y-90622816D01*
X160881904Y-90544795D01*
X160681945Y-90505021D01*
X160478067Y-90505021D01*
X160278108Y-90544795D01*
X160089750Y-90622816D01*
X159920232Y-90736084D01*
X159830138Y-90826178D01*
X159740034Y-90736074D01*
X159570516Y-90622806D01*
X159382158Y-90544785D01*
X159182199Y-90505011D01*
X158978321Y-90505011D01*
X158778362Y-90544785D01*
X158590004Y-90622806D01*
X158420486Y-90736074D01*
X158276323Y-90880237D01*
X158175094Y-91031738D01*
X158131907Y-90988551D01*
X157962389Y-90875283D01*
X157774031Y-90797262D01*
X157574072Y-90757488D01*
X157370194Y-90757488D01*
X157170235Y-90797262D01*
X156981877Y-90875283D01*
X156812359Y-90988551D01*
X156668196Y-91132714D01*
X156554928Y-91302232D01*
X156476907Y-91490590D01*
X156437133Y-91690549D01*
X154138940Y-91690549D01*
X154163248Y-91631865D01*
X154203022Y-91431906D01*
X154203022Y-91228028D01*
X154163248Y-91028069D01*
X154085227Y-90839711D01*
X153971959Y-90670193D01*
X153827796Y-90526030D01*
X153658278Y-90412762D01*
X153469920Y-90334741D01*
X153269961Y-90294967D01*
X153066083Y-90294967D01*
X152866124Y-90334741D01*
X152677766Y-90412762D01*
X152508248Y-90526030D01*
X152364085Y-90670193D01*
X152250817Y-90839711D01*
X152172796Y-91028069D01*
X152133022Y-91228028D01*
X138497123Y-91228028D01*
X138545226Y-91111898D01*
X138585000Y-90911939D01*
X138585000Y-90708061D01*
X138545226Y-90508102D01*
X138467205Y-90319744D01*
X138435672Y-90272551D01*
X138437205Y-90270256D01*
X138515226Y-90081898D01*
X138555000Y-89881939D01*
X138555000Y-89678061D01*
X138515226Y-89478102D01*
X138437205Y-89289744D01*
X138323937Y-89120226D01*
X138179774Y-88976063D01*
X138107934Y-88928061D01*
X141405000Y-88928061D01*
X141405000Y-89131939D01*
X141444774Y-89331898D01*
X141522795Y-89520256D01*
X141636063Y-89689774D01*
X141780226Y-89833937D01*
X141949744Y-89947205D01*
X142138102Y-90025226D01*
X142338061Y-90065000D01*
X142541939Y-90065000D01*
X142741898Y-90025226D01*
X142930256Y-89947205D01*
X143099774Y-89833937D01*
X143243937Y-89689774D01*
X143357205Y-89520256D01*
X143435226Y-89331898D01*
X143473782Y-89138061D01*
X161275000Y-89138061D01*
X161275000Y-89341939D01*
X161314774Y-89541898D01*
X161392795Y-89730256D01*
X161506063Y-89899774D01*
X161650226Y-90043937D01*
X161819744Y-90157205D01*
X162008102Y-90235226D01*
X162208061Y-90275000D01*
X162334049Y-90275000D01*
X162352795Y-90320256D01*
X162466063Y-90489774D01*
X162610226Y-90633937D01*
X162779744Y-90747205D01*
X162968102Y-90825226D01*
X163168061Y-90865000D01*
X163371939Y-90865000D01*
X163571898Y-90825226D01*
X163591981Y-90816907D01*
X163663945Y-90888871D01*
X163833463Y-91002139D01*
X164021821Y-91080160D01*
X164221780Y-91119934D01*
X164276508Y-91119934D01*
X164255000Y-91228061D01*
X164255000Y-91431939D01*
X164293767Y-91626834D01*
X164160226Y-91716063D01*
X164016063Y-91860226D01*
X163902795Y-92029744D01*
X163824774Y-92218102D01*
X163785000Y-92418061D01*
X163785000Y-92621939D01*
X163824774Y-92821898D01*
X163902795Y-93010256D01*
X164016063Y-93179774D01*
X164160226Y-93323937D01*
X164329744Y-93437205D01*
X164518102Y-93515226D01*
X164718061Y-93555000D01*
X164921939Y-93555000D01*
X165121898Y-93515226D01*
X165310256Y-93437205D01*
X165479774Y-93323937D01*
X165623937Y-93179774D01*
X165737205Y-93010256D01*
X165815226Y-92821898D01*
X165855000Y-92621939D01*
X165855000Y-92418061D01*
X165816233Y-92223166D01*
X165949774Y-92133937D01*
X166093937Y-91989774D01*
X166207205Y-91820256D01*
X166285226Y-91631898D01*
X166325000Y-91431939D01*
X166325000Y-91228061D01*
X166285226Y-91028102D01*
X166207205Y-90839744D01*
X166181875Y-90801836D01*
X166203937Y-90779774D01*
X166317205Y-90610256D01*
X166395226Y-90421898D01*
X166435000Y-90221939D01*
X166435000Y-90018061D01*
X166395226Y-89818102D01*
X166317205Y-89629744D01*
X166203937Y-89460226D01*
X166059774Y-89316063D01*
X165890256Y-89202795D01*
X165701898Y-89124774D01*
X165501939Y-89085000D01*
X165298061Y-89085000D01*
X165098102Y-89124774D01*
X164909744Y-89202795D01*
X164888100Y-89217257D01*
X164813975Y-89167729D01*
X164625617Y-89089708D01*
X164425658Y-89049934D01*
X164221780Y-89049934D01*
X164021821Y-89089708D01*
X164001738Y-89098027D01*
X163929774Y-89026063D01*
X163760256Y-88912795D01*
X163571898Y-88834774D01*
X163371939Y-88795000D01*
X163245951Y-88795000D01*
X163227205Y-88749744D01*
X163113937Y-88580226D01*
X162969774Y-88436063D01*
X162800256Y-88322795D01*
X162611898Y-88244774D01*
X162411939Y-88205000D01*
X162208061Y-88205000D01*
X162008102Y-88244774D01*
X161819744Y-88322795D01*
X161650226Y-88436063D01*
X161506063Y-88580226D01*
X161392795Y-88749744D01*
X161314774Y-88938102D01*
X161275000Y-89138061D01*
X143473782Y-89138061D01*
X143475000Y-89131939D01*
X143475000Y-88928061D01*
X143435226Y-88728102D01*
X143357205Y-88539744D01*
X143243937Y-88370226D01*
X143099774Y-88226063D01*
X142930256Y-88112795D01*
X142741898Y-88034774D01*
X142541939Y-87995000D01*
X142338061Y-87995000D01*
X142138102Y-88034774D01*
X141949744Y-88112795D01*
X141780226Y-88226063D01*
X141636063Y-88370226D01*
X141522795Y-88539744D01*
X141444774Y-88728102D01*
X141405000Y-88928061D01*
X138107934Y-88928061D01*
X138010256Y-88862795D01*
X137821898Y-88784774D01*
X137621939Y-88745000D01*
X137418061Y-88745000D01*
X137218102Y-88784774D01*
X137029744Y-88862795D01*
X136860226Y-88976063D01*
X136716063Y-89120226D01*
X136687173Y-89163462D01*
X136579774Y-89056063D01*
X136410256Y-88942795D01*
X136221898Y-88864774D01*
X136021939Y-88825000D01*
X135818061Y-88825000D01*
X135618102Y-88864774D01*
X135429744Y-88942795D01*
X135260226Y-89056063D01*
X135116063Y-89200226D01*
X135002795Y-89369744D01*
X134924774Y-89558102D01*
X134885000Y-89758061D01*
X130808150Y-89758061D01*
X130641939Y-89725000D01*
X130438061Y-89725000D01*
X130238102Y-89764774D01*
X130049744Y-89842795D01*
X129915000Y-89932828D01*
X129915000Y-89778061D01*
X129875226Y-89578102D01*
X129797205Y-89389744D01*
X129683937Y-89220226D01*
X129539774Y-89076063D01*
X129370256Y-88962795D01*
X129181898Y-88884774D01*
X128981939Y-88845000D01*
X128778061Y-88845000D01*
X128578102Y-88884774D01*
X128389744Y-88962795D01*
X128220226Y-89076063D01*
X128076063Y-89220226D01*
X127962795Y-89389744D01*
X127898485Y-89545000D01*
X127738061Y-89545000D01*
X127538102Y-89584774D01*
X127349744Y-89662795D01*
X127180226Y-89776063D01*
X127036063Y-89920226D01*
X126922795Y-90089744D01*
X126844774Y-90278102D01*
X126805000Y-90478061D01*
X116730000Y-90478061D01*
X116730000Y-86998061D01*
X129525000Y-86998061D01*
X129525000Y-87201939D01*
X129564774Y-87401898D01*
X129642795Y-87590256D01*
X129756063Y-87759774D01*
X129900226Y-87903937D01*
X130069744Y-88017205D01*
X130258102Y-88095226D01*
X130458061Y-88135000D01*
X130485000Y-88135000D01*
X130485000Y-88221939D01*
X130524774Y-88421898D01*
X130602795Y-88610256D01*
X130716063Y-88779774D01*
X130860226Y-88923937D01*
X131029744Y-89037205D01*
X131218102Y-89115226D01*
X131418061Y-89155000D01*
X131621939Y-89155000D01*
X131821898Y-89115226D01*
X132010256Y-89037205D01*
X132179774Y-88923937D01*
X132323937Y-88779774D01*
X132437205Y-88610256D01*
X132515226Y-88421898D01*
X132555000Y-88221939D01*
X132555000Y-88018061D01*
X132515226Y-87818102D01*
X132437205Y-87629744D01*
X132402424Y-87577690D01*
X134854629Y-87577690D01*
X134854629Y-87781568D01*
X134894403Y-87981527D01*
X134972424Y-88169885D01*
X135085692Y-88339403D01*
X135229855Y-88483566D01*
X135399373Y-88596834D01*
X135587731Y-88674855D01*
X135787690Y-88714629D01*
X135991568Y-88714629D01*
X136191527Y-88674855D01*
X136379885Y-88596834D01*
X136549403Y-88483566D01*
X136693566Y-88339403D01*
X136806834Y-88169885D01*
X136884855Y-87981527D01*
X136924629Y-87781568D01*
X136924629Y-87577690D01*
X136884855Y-87377731D01*
X136806834Y-87189373D01*
X136737156Y-87085092D01*
X136807205Y-86980256D01*
X136885226Y-86791898D01*
X136925000Y-86591939D01*
X136925000Y-86388061D01*
X136885226Y-86188102D01*
X136807205Y-85999744D01*
X136693937Y-85830226D01*
X136549774Y-85686063D01*
X136380256Y-85572795D01*
X136191898Y-85494774D01*
X135991939Y-85455000D01*
X135788061Y-85455000D01*
X135588102Y-85494774D01*
X135399744Y-85572795D01*
X135230226Y-85686063D01*
X135086063Y-85830226D01*
X134972795Y-85999744D01*
X134894774Y-86188102D01*
X134855000Y-86388061D01*
X134855000Y-86591939D01*
X134894774Y-86791898D01*
X134972795Y-86980256D01*
X135042473Y-87084537D01*
X134972424Y-87189373D01*
X134894403Y-87377731D01*
X134854629Y-87577690D01*
X132402424Y-87577690D01*
X132323937Y-87460226D01*
X132179774Y-87316063D01*
X132010256Y-87202795D01*
X131821898Y-87124774D01*
X131621939Y-87085000D01*
X131595000Y-87085000D01*
X131595000Y-86998061D01*
X131555226Y-86798102D01*
X131477205Y-86609744D01*
X131363937Y-86440226D01*
X131219774Y-86296063D01*
X131050256Y-86182795D01*
X130861898Y-86104774D01*
X130661939Y-86065000D01*
X130458061Y-86065000D01*
X130258102Y-86104774D01*
X130069744Y-86182795D01*
X129900226Y-86296063D01*
X129756063Y-86440226D01*
X129642795Y-86609744D01*
X129564774Y-86798102D01*
X129525000Y-86998061D01*
X116730000Y-86998061D01*
X116730000Y-82189033D01*
X117529545Y-82189033D01*
X117529545Y-82590967D01*
X117607958Y-82985179D01*
X117761772Y-83356518D01*
X117985075Y-83690714D01*
X118269286Y-83974925D01*
X118603482Y-84198228D01*
X118974821Y-84352042D01*
X119369033Y-84430455D01*
X119770967Y-84430455D01*
X120165179Y-84352042D01*
X120536518Y-84198228D01*
X120870714Y-83974925D01*
X121154925Y-83690714D01*
X121378228Y-83356518D01*
X121532042Y-82985179D01*
X121572854Y-82780000D01*
X123051928Y-82780000D01*
X123051928Y-84480000D01*
X123064188Y-84604482D01*
X123100498Y-84724180D01*
X123159463Y-84834494D01*
X123238815Y-84931185D01*
X123335506Y-85010537D01*
X123445820Y-85069502D01*
X123565518Y-85105812D01*
X123690000Y-85118072D01*
X125390000Y-85118072D01*
X125514482Y-85105812D01*
X125634180Y-85069502D01*
X125744494Y-85010537D01*
X125841185Y-84931185D01*
X125920537Y-84834494D01*
X125979502Y-84724180D01*
X126001513Y-84651620D01*
X126133368Y-84783475D01*
X126376589Y-84945990D01*
X126646842Y-85057932D01*
X126933740Y-85115000D01*
X127226260Y-85115000D01*
X127513158Y-85057932D01*
X127783411Y-84945990D01*
X128026632Y-84783475D01*
X128233475Y-84576632D01*
X128350000Y-84402240D01*
X128466525Y-84576632D01*
X128673368Y-84783475D01*
X128916589Y-84945990D01*
X129186842Y-85057932D01*
X129473740Y-85115000D01*
X129766260Y-85115000D01*
X130053158Y-85057932D01*
X130323411Y-84945990D01*
X130566632Y-84783475D01*
X130773475Y-84576632D01*
X130890000Y-84402240D01*
X131006525Y-84576632D01*
X131213368Y-84783475D01*
X131456589Y-84945990D01*
X131726842Y-85057932D01*
X132013740Y-85115000D01*
X132306260Y-85115000D01*
X132593158Y-85057932D01*
X132863411Y-84945990D01*
X133106632Y-84783475D01*
X133313475Y-84576632D01*
X133435195Y-84394466D01*
X133504822Y-84511355D01*
X133699731Y-84727588D01*
X133933080Y-84901641D01*
X134195901Y-85026825D01*
X134343110Y-85071476D01*
X134573000Y-84950155D01*
X134573000Y-83757000D01*
X134553000Y-83757000D01*
X134553000Y-83503000D01*
X134573000Y-83503000D01*
X134573000Y-83483000D01*
X134827000Y-83483000D01*
X134827000Y-83503000D01*
X134847000Y-83503000D01*
X134847000Y-83757000D01*
X134827000Y-83757000D01*
X134827000Y-84950155D01*
X135056890Y-85071476D01*
X135204099Y-85026825D01*
X135466920Y-84901641D01*
X135700269Y-84727588D01*
X135895178Y-84511355D01*
X135964805Y-84394466D01*
X136086525Y-84576632D01*
X136293368Y-84783475D01*
X136536589Y-84945990D01*
X136806842Y-85057932D01*
X137093740Y-85115000D01*
X137386260Y-85115000D01*
X137673158Y-85057932D01*
X137943411Y-84945990D01*
X138186632Y-84783475D01*
X138393475Y-84576632D01*
X138510000Y-84402240D01*
X138626525Y-84576632D01*
X138833368Y-84783475D01*
X139076589Y-84945990D01*
X139346842Y-85057932D01*
X139633740Y-85115000D01*
X139636444Y-85115000D01*
X139470226Y-85226063D01*
X139326063Y-85370226D01*
X139212795Y-85539744D01*
X139134774Y-85728102D01*
X139095000Y-85928061D01*
X139095000Y-86131939D01*
X139134774Y-86331898D01*
X139212795Y-86520256D01*
X139326063Y-86689774D01*
X139470226Y-86833937D01*
X139639744Y-86947205D01*
X139828102Y-87025226D01*
X140028061Y-87065000D01*
X140231939Y-87065000D01*
X140431898Y-87025226D01*
X140620256Y-86947205D01*
X140789774Y-86833937D01*
X140835580Y-86788131D01*
X144805059Y-86788131D01*
X144805059Y-86992009D01*
X144844833Y-87191968D01*
X144922854Y-87380326D01*
X145036122Y-87549844D01*
X145180285Y-87694007D01*
X145349803Y-87807275D01*
X145538161Y-87885296D01*
X145738120Y-87925070D01*
X145941998Y-87925070D01*
X146141957Y-87885296D01*
X146330315Y-87807275D01*
X146340942Y-87800174D01*
X146349804Y-87806095D01*
X146538162Y-87884116D01*
X146738121Y-87923890D01*
X146805000Y-87923890D01*
X146805000Y-88071939D01*
X146844774Y-88271898D01*
X146922795Y-88460256D01*
X147036063Y-88629774D01*
X147180226Y-88773937D01*
X147349744Y-88887205D01*
X147538102Y-88965226D01*
X147738061Y-89005000D01*
X147941939Y-89005000D01*
X148141898Y-88965226D01*
X148330256Y-88887205D01*
X148499774Y-88773937D01*
X148643937Y-88629774D01*
X148757205Y-88460256D01*
X148835226Y-88271898D01*
X148875000Y-88071939D01*
X148875000Y-87868061D01*
X148839197Y-87688061D01*
X155495000Y-87688061D01*
X155495000Y-87891939D01*
X155534774Y-88091898D01*
X155612795Y-88280256D01*
X155726063Y-88449774D01*
X155870226Y-88593937D01*
X156039744Y-88707205D01*
X156228102Y-88785226D01*
X156428061Y-88825000D01*
X156631939Y-88825000D01*
X156831898Y-88785226D01*
X157020256Y-88707205D01*
X157189774Y-88593937D01*
X157333937Y-88449774D01*
X157447205Y-88280256D01*
X157525226Y-88091898D01*
X157565000Y-87891939D01*
X157565000Y-87872966D01*
X159400145Y-87872966D01*
X159400145Y-88076844D01*
X159439919Y-88276803D01*
X159517940Y-88465161D01*
X159631208Y-88634679D01*
X159775371Y-88778842D01*
X159944889Y-88892110D01*
X160133247Y-88970131D01*
X160333206Y-89009905D01*
X160537084Y-89009905D01*
X160737043Y-88970131D01*
X160925401Y-88892110D01*
X161094919Y-88778842D01*
X161239082Y-88634679D01*
X161352350Y-88465161D01*
X161430371Y-88276803D01*
X161470145Y-88076844D01*
X161470145Y-87872966D01*
X161430371Y-87673007D01*
X161352350Y-87484649D01*
X161239082Y-87315131D01*
X161094919Y-87170968D01*
X160925401Y-87057700D01*
X160737043Y-86979679D01*
X160537084Y-86939905D01*
X160333206Y-86939905D01*
X160133247Y-86979679D01*
X159944889Y-87057700D01*
X159775371Y-87170968D01*
X159631208Y-87315131D01*
X159517940Y-87484649D01*
X159439919Y-87673007D01*
X159400145Y-87872966D01*
X157565000Y-87872966D01*
X157565000Y-87688061D01*
X157525226Y-87488102D01*
X157447205Y-87299744D01*
X157438861Y-87287256D01*
X157458102Y-87295226D01*
X157658061Y-87335000D01*
X157861939Y-87335000D01*
X158061898Y-87295226D01*
X158250256Y-87217205D01*
X158419774Y-87103937D01*
X158563937Y-86959774D01*
X158677205Y-86790256D01*
X158755226Y-86601898D01*
X158795000Y-86401939D01*
X158795000Y-86198061D01*
X158755226Y-85998102D01*
X158677205Y-85809744D01*
X158563937Y-85640226D01*
X158419774Y-85496063D01*
X158250256Y-85382795D01*
X158061898Y-85304774D01*
X157861939Y-85265000D01*
X157658061Y-85265000D01*
X157458102Y-85304774D01*
X157269744Y-85382795D01*
X157250448Y-85395688D01*
X157250337Y-85395614D01*
X157061979Y-85317593D01*
X156862020Y-85277819D01*
X156658142Y-85277819D01*
X156458183Y-85317593D01*
X156269825Y-85395614D01*
X156100307Y-85508882D01*
X155956144Y-85653045D01*
X155842876Y-85822563D01*
X155764855Y-86010921D01*
X155725081Y-86210880D01*
X155725081Y-86414758D01*
X155764855Y-86614717D01*
X155842876Y-86803075D01*
X155935847Y-86942216D01*
X155870226Y-86986063D01*
X155726063Y-87130226D01*
X155612795Y-87299744D01*
X155534774Y-87488102D01*
X155495000Y-87688061D01*
X148839197Y-87688061D01*
X148835226Y-87668102D01*
X148757205Y-87479744D01*
X148727308Y-87435000D01*
X148757205Y-87390256D01*
X148835226Y-87201898D01*
X148875000Y-87001939D01*
X148875000Y-86798061D01*
X148835226Y-86598102D01*
X148757205Y-86409744D01*
X148643937Y-86240226D01*
X148499774Y-86096063D01*
X148330256Y-85982795D01*
X148141898Y-85904774D01*
X147941939Y-85865000D01*
X147738061Y-85865000D01*
X147538102Y-85904774D01*
X147349744Y-85982795D01*
X147348344Y-85983731D01*
X147330316Y-85971685D01*
X147141958Y-85893664D01*
X146941999Y-85853890D01*
X146738121Y-85853890D01*
X146538162Y-85893664D01*
X146349804Y-85971685D01*
X146339177Y-85978786D01*
X146330315Y-85972865D01*
X146141957Y-85894844D01*
X145941998Y-85855070D01*
X145738120Y-85855070D01*
X145538161Y-85894844D01*
X145349803Y-85972865D01*
X145180285Y-86086133D01*
X145036122Y-86230296D01*
X144922854Y-86399814D01*
X144844833Y-86588172D01*
X144805059Y-86788131D01*
X140835580Y-86788131D01*
X140933937Y-86689774D01*
X141047205Y-86520256D01*
X141125226Y-86331898D01*
X141165000Y-86131939D01*
X141165000Y-85928061D01*
X141125226Y-85728102D01*
X141047205Y-85539744D01*
X140933937Y-85370226D01*
X140789774Y-85226063D01*
X140620256Y-85112795D01*
X140431898Y-85034774D01*
X140321893Y-85012893D01*
X140483411Y-84945990D01*
X140726632Y-84783475D01*
X140933475Y-84576632D01*
X141050000Y-84402240D01*
X141166525Y-84576632D01*
X141373368Y-84783475D01*
X141616589Y-84945990D01*
X141886842Y-85057932D01*
X142173740Y-85115000D01*
X142466260Y-85115000D01*
X142753158Y-85057932D01*
X143023411Y-84945990D01*
X143266632Y-84783475D01*
X143473475Y-84576632D01*
X143590000Y-84402240D01*
X143706525Y-84576632D01*
X143913368Y-84783475D01*
X144156589Y-84945990D01*
X144426842Y-85057932D01*
X144713740Y-85115000D01*
X145006260Y-85115000D01*
X145293158Y-85057932D01*
X145563411Y-84945990D01*
X145806632Y-84783475D01*
X146013475Y-84576632D01*
X146130000Y-84402240D01*
X146246525Y-84576632D01*
X146453368Y-84783475D01*
X146696589Y-84945990D01*
X146966842Y-85057932D01*
X147253740Y-85115000D01*
X147546260Y-85115000D01*
X147833158Y-85057932D01*
X148103411Y-84945990D01*
X148346632Y-84783475D01*
X148553475Y-84576632D01*
X148670000Y-84402240D01*
X148786525Y-84576632D01*
X148993368Y-84783475D01*
X149236589Y-84945990D01*
X149506842Y-85057932D01*
X149793740Y-85115000D01*
X150086260Y-85115000D01*
X150373158Y-85057932D01*
X150643411Y-84945990D01*
X150886632Y-84783475D01*
X151093475Y-84576632D01*
X151210000Y-84402240D01*
X151326525Y-84576632D01*
X151533368Y-84783475D01*
X151776589Y-84945990D01*
X152046842Y-85057932D01*
X152333740Y-85115000D01*
X152626260Y-85115000D01*
X152913158Y-85057932D01*
X153183411Y-84945990D01*
X153426632Y-84783475D01*
X153633475Y-84576632D01*
X153755195Y-84394466D01*
X153824822Y-84511355D01*
X154019731Y-84727588D01*
X154253080Y-84901641D01*
X154515901Y-85026825D01*
X154663110Y-85071476D01*
X154893000Y-84950155D01*
X154893000Y-83757000D01*
X154873000Y-83757000D01*
X154873000Y-83503000D01*
X154893000Y-83503000D01*
X154893000Y-83483000D01*
X155147000Y-83483000D01*
X155147000Y-83503000D01*
X155167000Y-83503000D01*
X155167000Y-83757000D01*
X155147000Y-83757000D01*
X155147000Y-84950155D01*
X155376890Y-85071476D01*
X155524099Y-85026825D01*
X155786920Y-84901641D01*
X156020269Y-84727588D01*
X156215178Y-84511355D01*
X156284805Y-84394466D01*
X156406525Y-84576632D01*
X156613368Y-84783475D01*
X156856589Y-84945990D01*
X157126842Y-85057932D01*
X157413740Y-85115000D01*
X157706260Y-85115000D01*
X157993158Y-85057932D01*
X158263411Y-84945990D01*
X158506632Y-84783475D01*
X158713475Y-84576632D01*
X158830000Y-84402240D01*
X158946525Y-84576632D01*
X159153368Y-84783475D01*
X159396589Y-84945990D01*
X159666842Y-85057932D01*
X159953740Y-85115000D01*
X160246260Y-85115000D01*
X160533158Y-85057932D01*
X160803411Y-84945990D01*
X161046632Y-84783475D01*
X161253475Y-84576632D01*
X161370000Y-84402240D01*
X161486525Y-84576632D01*
X161693368Y-84783475D01*
X161936589Y-84945990D01*
X162206842Y-85057932D01*
X162493740Y-85115000D01*
X162786260Y-85115000D01*
X163073158Y-85057932D01*
X163343411Y-84945990D01*
X163586632Y-84783475D01*
X163793475Y-84576632D01*
X163910000Y-84402240D01*
X164026525Y-84576632D01*
X164233368Y-84783475D01*
X164476589Y-84945990D01*
X164746842Y-85057932D01*
X165033740Y-85115000D01*
X165326260Y-85115000D01*
X165613158Y-85057932D01*
X165883411Y-84945990D01*
X166126632Y-84783475D01*
X166333475Y-84576632D01*
X166450000Y-84402240D01*
X166566525Y-84576632D01*
X166773368Y-84783475D01*
X167016589Y-84945990D01*
X167286842Y-85057932D01*
X167573740Y-85115000D01*
X167866260Y-85115000D01*
X168153158Y-85057932D01*
X168423411Y-84945990D01*
X168666632Y-84783475D01*
X168873475Y-84576632D01*
X168990000Y-84402240D01*
X169106525Y-84576632D01*
X169313368Y-84783475D01*
X169556589Y-84945990D01*
X169826842Y-85057932D01*
X170113740Y-85115000D01*
X170406260Y-85115000D01*
X170693158Y-85057932D01*
X170963411Y-84945990D01*
X171206632Y-84783475D01*
X171413475Y-84576632D01*
X171535195Y-84394466D01*
X171604822Y-84511355D01*
X171799731Y-84727588D01*
X172033080Y-84901641D01*
X172295901Y-85026825D01*
X172443110Y-85071476D01*
X172673000Y-84950155D01*
X172673000Y-83757000D01*
X172927000Y-83757000D01*
X172927000Y-84950155D01*
X173156890Y-85071476D01*
X173304099Y-85026825D01*
X173566920Y-84901641D01*
X173800269Y-84727588D01*
X173995178Y-84511355D01*
X174144157Y-84261252D01*
X174241481Y-83986891D01*
X174120814Y-83757000D01*
X172927000Y-83757000D01*
X172673000Y-83757000D01*
X172653000Y-83757000D01*
X172653000Y-83503000D01*
X172673000Y-83503000D01*
X172673000Y-83483000D01*
X172927000Y-83483000D01*
X172927000Y-83503000D01*
X174120814Y-83503000D01*
X174241481Y-83273109D01*
X174144157Y-82998748D01*
X173995178Y-82748645D01*
X173800269Y-82532412D01*
X173570594Y-82361100D01*
X173746632Y-82243475D01*
X173801074Y-82189033D01*
X175529545Y-82189033D01*
X175529545Y-82590967D01*
X175607958Y-82985179D01*
X175761772Y-83356518D01*
X175985075Y-83690714D01*
X176269286Y-83974925D01*
X176603482Y-84198228D01*
X176974821Y-84352042D01*
X177369033Y-84430455D01*
X177770967Y-84430455D01*
X178165179Y-84352042D01*
X178536518Y-84198228D01*
X178870714Y-83974925D01*
X179154925Y-83690714D01*
X179378228Y-83356518D01*
X179532042Y-82985179D01*
X179610455Y-82590967D01*
X179610455Y-82189033D01*
X179532042Y-81794821D01*
X179378228Y-81423482D01*
X179154925Y-81089286D01*
X178870714Y-80805075D01*
X178536518Y-80581772D01*
X178165179Y-80427958D01*
X177770967Y-80349545D01*
X177369033Y-80349545D01*
X176974821Y-80427958D01*
X176603482Y-80581772D01*
X176269286Y-80805075D01*
X175985075Y-81089286D01*
X175761772Y-81423482D01*
X175607958Y-81794821D01*
X175529545Y-82189033D01*
X173801074Y-82189033D01*
X173953475Y-82036632D01*
X174115990Y-81793411D01*
X174227932Y-81523158D01*
X174285000Y-81236260D01*
X174285000Y-80943740D01*
X174227932Y-80656842D01*
X174115990Y-80386589D01*
X173953475Y-80143368D01*
X173746632Y-79936525D01*
X173503411Y-79774010D01*
X173233158Y-79662068D01*
X172946260Y-79605000D01*
X172653740Y-79605000D01*
X172366842Y-79662068D01*
X172096589Y-79774010D01*
X171853368Y-79936525D01*
X171646525Y-80143368D01*
X171530000Y-80317760D01*
X171413475Y-80143368D01*
X171206632Y-79936525D01*
X170963411Y-79774010D01*
X170693158Y-79662068D01*
X170406260Y-79605000D01*
X170113740Y-79605000D01*
X169826842Y-79662068D01*
X169556589Y-79774010D01*
X169313368Y-79936525D01*
X169106525Y-80143368D01*
X168990000Y-80317760D01*
X168873475Y-80143368D01*
X168666632Y-79936525D01*
X168423411Y-79774010D01*
X168153158Y-79662068D01*
X167866260Y-79605000D01*
X167573740Y-79605000D01*
X167286842Y-79662068D01*
X167016589Y-79774010D01*
X166773368Y-79936525D01*
X166566525Y-80143368D01*
X166444805Y-80325534D01*
X166375178Y-80208645D01*
X166180269Y-79992412D01*
X165946920Y-79818359D01*
X165684099Y-79693175D01*
X165536890Y-79648524D01*
X165307000Y-79769845D01*
X165307000Y-80963000D01*
X165327000Y-80963000D01*
X165327000Y-81217000D01*
X165307000Y-81217000D01*
X165307000Y-81237000D01*
X165053000Y-81237000D01*
X165053000Y-81217000D01*
X165033000Y-81217000D01*
X165033000Y-80963000D01*
X165053000Y-80963000D01*
X165053000Y-79769845D01*
X164823110Y-79648524D01*
X164675901Y-79693175D01*
X164413080Y-79818359D01*
X164179731Y-79992412D01*
X163984822Y-80208645D01*
X163915195Y-80325534D01*
X163793475Y-80143368D01*
X163586632Y-79936525D01*
X163343411Y-79774010D01*
X163073158Y-79662068D01*
X162786260Y-79605000D01*
X162493740Y-79605000D01*
X162206842Y-79662068D01*
X161936589Y-79774010D01*
X161693368Y-79936525D01*
X161486525Y-80143368D01*
X161364805Y-80325534D01*
X161295178Y-80208645D01*
X161100269Y-79992412D01*
X160866920Y-79818359D01*
X160604099Y-79693175D01*
X160456890Y-79648524D01*
X160227000Y-79769845D01*
X160227000Y-80963000D01*
X160247000Y-80963000D01*
X160247000Y-81217000D01*
X160227000Y-81217000D01*
X160227000Y-81237000D01*
X159973000Y-81237000D01*
X159973000Y-81217000D01*
X159953000Y-81217000D01*
X159953000Y-80963000D01*
X159973000Y-80963000D01*
X159973000Y-79769845D01*
X159743110Y-79648524D01*
X159595901Y-79693175D01*
X159333080Y-79818359D01*
X159099731Y-79992412D01*
X158904822Y-80208645D01*
X158835195Y-80325534D01*
X158713475Y-80143368D01*
X158506632Y-79936525D01*
X158263411Y-79774010D01*
X157993158Y-79662068D01*
X157706260Y-79605000D01*
X157413740Y-79605000D01*
X157126842Y-79662068D01*
X156856589Y-79774010D01*
X156613368Y-79936525D01*
X156406525Y-80143368D01*
X156290000Y-80317760D01*
X156173475Y-80143368D01*
X155966632Y-79936525D01*
X155723411Y-79774010D01*
X155453158Y-79662068D01*
X155166260Y-79605000D01*
X154873740Y-79605000D01*
X154586842Y-79662068D01*
X154316589Y-79774010D01*
X154073368Y-79936525D01*
X153866525Y-80143368D01*
X153750000Y-80317760D01*
X153633475Y-80143368D01*
X153426632Y-79936525D01*
X153183411Y-79774010D01*
X152913158Y-79662068D01*
X152626260Y-79605000D01*
X152333740Y-79605000D01*
X152046842Y-79662068D01*
X151776589Y-79774010D01*
X151533368Y-79936525D01*
X151326525Y-80143368D01*
X151210000Y-80317760D01*
X151093475Y-80143368D01*
X150886632Y-79936525D01*
X150643411Y-79774010D01*
X150373158Y-79662068D01*
X150086260Y-79605000D01*
X149793740Y-79605000D01*
X149506842Y-79662068D01*
X149236589Y-79774010D01*
X148993368Y-79936525D01*
X148786525Y-80143368D01*
X148664805Y-80325534D01*
X148595178Y-80208645D01*
X148400269Y-79992412D01*
X148166920Y-79818359D01*
X147904099Y-79693175D01*
X147756890Y-79648524D01*
X147527000Y-79769845D01*
X147527000Y-80963000D01*
X147547000Y-80963000D01*
X147547000Y-81217000D01*
X147527000Y-81217000D01*
X147527000Y-81237000D01*
X147273000Y-81237000D01*
X147273000Y-81217000D01*
X147253000Y-81217000D01*
X147253000Y-80963000D01*
X147273000Y-80963000D01*
X147273000Y-79769845D01*
X147043110Y-79648524D01*
X146895901Y-79693175D01*
X146633080Y-79818359D01*
X146399731Y-79992412D01*
X146204822Y-80208645D01*
X146135195Y-80325534D01*
X146013475Y-80143368D01*
X145806632Y-79936525D01*
X145563411Y-79774010D01*
X145293158Y-79662068D01*
X145006260Y-79605000D01*
X144713740Y-79605000D01*
X144426842Y-79662068D01*
X144156589Y-79774010D01*
X143913368Y-79936525D01*
X143706525Y-80143368D01*
X143590000Y-80317760D01*
X143473475Y-80143368D01*
X143266632Y-79936525D01*
X143023411Y-79774010D01*
X142753158Y-79662068D01*
X142466260Y-79605000D01*
X142173740Y-79605000D01*
X141886842Y-79662068D01*
X141616589Y-79774010D01*
X141373368Y-79936525D01*
X141166525Y-80143368D01*
X141044805Y-80325534D01*
X140975178Y-80208645D01*
X140780269Y-79992412D01*
X140546920Y-79818359D01*
X140284099Y-79693175D01*
X140136890Y-79648524D01*
X139907000Y-79769845D01*
X139907000Y-80963000D01*
X139927000Y-80963000D01*
X139927000Y-81217000D01*
X139907000Y-81217000D01*
X139907000Y-81237000D01*
X139653000Y-81237000D01*
X139653000Y-81217000D01*
X139633000Y-81217000D01*
X139633000Y-80963000D01*
X139653000Y-80963000D01*
X139653000Y-79769845D01*
X139423110Y-79648524D01*
X139275901Y-79693175D01*
X139013080Y-79818359D01*
X138779731Y-79992412D01*
X138584822Y-80208645D01*
X138515195Y-80325534D01*
X138393475Y-80143368D01*
X138186632Y-79936525D01*
X137943411Y-79774010D01*
X137673158Y-79662068D01*
X137386260Y-79605000D01*
X137093740Y-79605000D01*
X136806842Y-79662068D01*
X136536589Y-79774010D01*
X136293368Y-79936525D01*
X136086525Y-80143368D01*
X135970000Y-80317760D01*
X135853475Y-80143368D01*
X135646632Y-79936525D01*
X135403411Y-79774010D01*
X135133158Y-79662068D01*
X134846260Y-79605000D01*
X134553740Y-79605000D01*
X134266842Y-79662068D01*
X133996589Y-79774010D01*
X133753368Y-79936525D01*
X133546525Y-80143368D01*
X133430000Y-80317760D01*
X133313475Y-80143368D01*
X133106632Y-79936525D01*
X132863411Y-79774010D01*
X132593158Y-79662068D01*
X132306260Y-79605000D01*
X132013740Y-79605000D01*
X131726842Y-79662068D01*
X131456589Y-79774010D01*
X131213368Y-79936525D01*
X131006525Y-80143368D01*
X130884805Y-80325534D01*
X130815178Y-80208645D01*
X130620269Y-79992412D01*
X130386920Y-79818359D01*
X130124099Y-79693175D01*
X129976890Y-79648524D01*
X129747000Y-79769845D01*
X129747000Y-80963000D01*
X129767000Y-80963000D01*
X129767000Y-81217000D01*
X129747000Y-81217000D01*
X129747000Y-81237000D01*
X129493000Y-81237000D01*
X129493000Y-81217000D01*
X129473000Y-81217000D01*
X129473000Y-80963000D01*
X129493000Y-80963000D01*
X129493000Y-79769845D01*
X129263110Y-79648524D01*
X129115901Y-79693175D01*
X128853080Y-79818359D01*
X128619731Y-79992412D01*
X128424822Y-80208645D01*
X128355195Y-80325534D01*
X128233475Y-80143368D01*
X128026632Y-79936525D01*
X127783411Y-79774010D01*
X127513158Y-79662068D01*
X127226260Y-79605000D01*
X126933740Y-79605000D01*
X126646842Y-79662068D01*
X126376589Y-79774010D01*
X126133368Y-79936525D01*
X125926525Y-80143368D01*
X125810000Y-80317760D01*
X125693475Y-80143368D01*
X125486632Y-79936525D01*
X125243411Y-79774010D01*
X124973158Y-79662068D01*
X124686260Y-79605000D01*
X124393740Y-79605000D01*
X124106842Y-79662068D01*
X123836589Y-79774010D01*
X123593368Y-79936525D01*
X123386525Y-80143368D01*
X123224010Y-80386589D01*
X123112068Y-80656842D01*
X123055000Y-80943740D01*
X123055000Y-81236260D01*
X123112068Y-81523158D01*
X123224010Y-81793411D01*
X123386525Y-82036632D01*
X123518380Y-82168487D01*
X123445820Y-82190498D01*
X123335506Y-82249463D01*
X123238815Y-82328815D01*
X123159463Y-82425506D01*
X123100498Y-82535820D01*
X123064188Y-82655518D01*
X123051928Y-82780000D01*
X121572854Y-82780000D01*
X121610455Y-82590967D01*
X121610455Y-82189033D01*
X121532042Y-81794821D01*
X121378228Y-81423482D01*
X121154925Y-81089286D01*
X120870714Y-80805075D01*
X120536518Y-80581772D01*
X120165179Y-80427958D01*
X119770967Y-80349545D01*
X119369033Y-80349545D01*
X118974821Y-80427958D01*
X118603482Y-80581772D01*
X118269286Y-80805075D01*
X117985075Y-81089286D01*
X117761772Y-81423482D01*
X117607958Y-81794821D01*
X117529545Y-82189033D01*
X116730000Y-82189033D01*
X116730000Y-81922279D01*
X116777670Y-81436107D01*
X116909489Y-80999502D01*
X117123600Y-80596815D01*
X117411848Y-80243388D01*
X117763261Y-79952673D01*
X118164439Y-79735758D01*
X118600113Y-79600894D01*
X119084344Y-79550000D01*
X178037721Y-79550000D01*
X178523893Y-79597670D01*
G37*
%TD.AperFunction*%
%TD*%
M02*
