%TF.GenerationSoftware,KiCad,Pcbnew,(5.1.8-0-10_14)*%
%TF.CreationDate,2021-08-13T15:07:17+08:00*%
%TF.ProjectId,microbyte-rp2040,6d696372-6f62-4797-9465-2d7270323034,rev?*%
%TF.SameCoordinates,Original*%
%TF.FileFunction,Copper,L4,Bot*%
%TF.FilePolarity,Positive*%
%FSLAX46Y46*%
G04 Gerber Fmt 4.6, Leading zero omitted, Abs format (unit mm)*
G04 Created by KiCad (PCBNEW (5.1.8-0-10_14)) date 2021-08-13 15:07:17*
%MOMM*%
%LPD*%
G01*
G04 APERTURE LIST*
%TA.AperFunction,ComponentPad*%
%ADD10C,0.600000*%
%TD*%
%TA.AperFunction,ComponentPad*%
%ADD11O,1.700000X1.700000*%
%TD*%
%TA.AperFunction,ComponentPad*%
%ADD12R,1.700000X1.700000*%
%TD*%
%TA.AperFunction,ComponentPad*%
%ADD13O,1.000000X2.100000*%
%TD*%
%TA.AperFunction,ComponentPad*%
%ADD14O,1.000000X1.600000*%
%TD*%
%TA.AperFunction,ViaPad*%
%ADD15C,0.800000*%
%TD*%
%TA.AperFunction,Conductor*%
%ADD16C,0.300000*%
%TD*%
%TA.AperFunction,Conductor*%
%ADD17C,0.200000*%
%TD*%
%TA.AperFunction,Conductor*%
%ADD18C,0.254000*%
%TD*%
%TA.AperFunction,Conductor*%
%ADD19C,0.100000*%
%TD*%
G04 APERTURE END LIST*
D10*
%TO.P,U4,57*%
%TO.N,GND*%
X160955000Y-95115000D03*
X159680000Y-95115000D03*
X158405000Y-95115000D03*
X160955000Y-93840000D03*
X159680000Y-93840000D03*
X158405000Y-93840000D03*
X160955000Y-92565000D03*
X159680000Y-92565000D03*
X158405000Y-92565000D03*
%TD*%
D11*
%TO.P,J4,40*%
%TO.N,I2C1_SCL*%
X172800000Y-81090000D03*
%TO.P,J4,39*%
%TO.N,Net-(J4-Pad39)*%
X172800000Y-83630000D03*
%TO.P,J4,38*%
%TO.N,I2C1_SDA*%
X170260000Y-81090000D03*
%TO.P,J4,37*%
%TO.N,Net-(J4-Pad37)*%
X170260000Y-83630000D03*
%TO.P,J4,36*%
%TO.N,GPIO5*%
X167720000Y-81090000D03*
%TO.P,J4,35*%
%TO.N,Net-(J4-Pad35)*%
X167720000Y-83630000D03*
%TO.P,J4,34*%
%TO.N,SPI0_MISO*%
X165180000Y-81090000D03*
%TO.P,J4,33*%
%TO.N,Net-(J4-Pad33)*%
X165180000Y-83630000D03*
%TO.P,J4,32*%
%TO.N,SPI0_MOSI*%
X162640000Y-81090000D03*
%TO.P,J4,31*%
%TO.N,Net-(J4-Pad31)*%
X162640000Y-83630000D03*
%TO.P,J4,30*%
%TO.N,SPI0_SCK*%
X160100000Y-81090000D03*
%TO.P,J4,29*%
%TO.N,Net-(J4-Pad29)*%
X160100000Y-83630000D03*
%TO.P,J4,28*%
%TO.N,UART0_RX*%
X157560000Y-81090000D03*
%TO.P,J4,27*%
%TO.N,Net-(J4-Pad27)*%
X157560000Y-83630000D03*
%TO.P,J4,26*%
%TO.N,UART0_TX*%
X155020000Y-81090000D03*
%TO.P,J4,25*%
%TO.N,GPIO25*%
X155020000Y-83630000D03*
%TO.P,J4,24*%
%TO.N,GND*%
X152480000Y-81090000D03*
%TO.P,J4,23*%
%TO.N,GPIO24*%
X152480000Y-83630000D03*
%TO.P,J4,22*%
%TO.N,SWDCK*%
X149940000Y-81090000D03*
%TO.P,J4,21*%
%TO.N,GPIO23*%
X149940000Y-83630000D03*
%TO.P,J4,20*%
%TO.N,SWDIO*%
X147400000Y-81090000D03*
%TO.P,J4,19*%
%TO.N,GPIO22*%
X147400000Y-83630000D03*
%TO.P,J4,18*%
%TO.N,Net-(J4-Pad18)*%
X144860000Y-81090000D03*
%TO.P,J4,17*%
%TO.N,GPIO21*%
X144860000Y-83630000D03*
%TO.P,J4,16*%
%TO.N,ADC3*%
X142320000Y-81090000D03*
%TO.P,J4,15*%
%TO.N,GPIO20*%
X142320000Y-83630000D03*
%TO.P,J4,14*%
%TO.N,ADC2*%
X139780000Y-81090000D03*
%TO.P,J4,13*%
%TO.N,GPIO19*%
X139780000Y-83630000D03*
%TO.P,J4,12*%
%TO.N,ADC1*%
X137240000Y-81090000D03*
%TO.P,J4,11*%
%TO.N,GPIO18*%
X137240000Y-83630000D03*
%TO.P,J4,10*%
%TO.N,ADC0*%
X134700000Y-81090000D03*
%TO.P,J4,9*%
%TO.N,GPIO17*%
X134700000Y-83630000D03*
%TO.P,J4,8*%
%TO.N,GND*%
X132160000Y-81090000D03*
%TO.P,J4,7*%
%TO.N,GPIO16*%
X132160000Y-83630000D03*
%TO.P,J4,6*%
%TO.N,+3.3VA*%
X129620000Y-81090000D03*
%TO.P,J4,5*%
%TO.N,+5V*%
X129620000Y-83630000D03*
%TO.P,J4,4*%
%TO.N,+3V3*%
X127080000Y-81090000D03*
%TO.P,J4,3*%
%TO.N,EN*%
X127080000Y-83630000D03*
%TO.P,J4,2*%
%TO.N,RESET*%
X124540000Y-81090000D03*
D12*
%TO.P,J4,1*%
%TO.N,+BATT*%
X124540000Y-83630000D03*
%TD*%
D13*
%TO.P,J3,S1*%
%TO.N,Net-(J3-PadS1)*%
X163250000Y-103090000D03*
X154610000Y-103090000D03*
D14*
X154610000Y-107270000D03*
X163250000Y-107270000D03*
%TD*%
D15*
%TO.N,GND*%
X169620000Y-98870000D03*
X162409447Y-101830442D03*
X154640000Y-100059979D03*
X165510000Y-102120000D03*
X119050000Y-91530000D03*
X119040000Y-88290000D03*
X119040000Y-96230000D03*
X119050000Y-99450000D03*
X163980000Y-88930000D03*
X165449174Y-98340826D03*
X162720000Y-85970000D03*
X166830000Y-92510000D03*
X132720000Y-90300000D03*
X173820000Y-96750000D03*
X160610000Y-100099990D03*
X153540000Y-102120000D03*
X167100000Y-87270000D03*
X174510000Y-90489998D03*
X177660010Y-99600000D03*
X173140000Y-90480000D03*
X158460000Y-87060000D03*
X159520000Y-87060000D03*
X144310000Y-87970000D03*
X152530000Y-96790000D03*
X152610000Y-92530000D03*
X140370000Y-93690000D03*
X137850000Y-97140000D03*
X137860000Y-98300000D03*
X139320000Y-97670000D03*
X139260000Y-95980000D03*
X137790000Y-95480000D03*
X137150000Y-94090000D03*
X136640000Y-96210000D03*
X136530000Y-98360000D03*
X130930000Y-97140000D03*
X132230000Y-98390000D03*
X137250000Y-103980000D03*
X138540000Y-104000000D03*
X142640000Y-104030000D03*
X123910000Y-99050000D03*
X123490000Y-101620000D03*
X125760000Y-100780000D03*
X121690000Y-94950000D03*
X132220000Y-106830000D03*
X122740000Y-100120000D03*
X126730000Y-102210000D03*
X135050000Y-107460000D03*
X137500000Y-107460000D03*
X140110000Y-107470000D03*
X151070000Y-97160000D03*
X151310000Y-88490000D03*
X167890000Y-100060000D03*
X167280000Y-91050000D03*
X168130000Y-89520000D03*
X178280000Y-89430000D03*
X178320000Y-90880000D03*
X178360000Y-92420000D03*
X121710000Y-93480000D03*
X129700000Y-104440000D03*
X130800000Y-105760000D03*
X176700000Y-101810000D03*
X152180000Y-107760000D03*
X146990000Y-104200000D03*
X143680000Y-107360000D03*
X127889704Y-88452413D03*
X122120000Y-87050000D03*
X129120000Y-91470000D03*
%TO.N,+3V3*%
X155140000Y-99170000D03*
X179790000Y-101750000D03*
X131530000Y-94120000D03*
X130560000Y-87100000D03*
X162740000Y-99180000D03*
X144360000Y-99200000D03*
X160435145Y-87974905D03*
X159900000Y-98740000D03*
X164540000Y-97660000D03*
X164820000Y-92520000D03*
X149620000Y-98780000D03*
X154090000Y-97320000D03*
X153390000Y-88690000D03*
X140130000Y-86030000D03*
X130540000Y-90760000D03*
%TO.N,+5V*%
X171350000Y-102010000D03*
X151590000Y-101930000D03*
X177980000Y-95970000D03*
X151970000Y-104910000D03*
%TO.N,+BATT*%
X150000000Y-103300000D03*
%TO.N,+1V1*%
X159080260Y-91540011D03*
X157520000Y-96139989D03*
%TO.N,+3.3VA*%
X152560000Y-100099990D03*
X126920000Y-86959998D03*
%TO.N,SDIO_DAT0*%
X163270000Y-89830000D03*
X128600000Y-95750000D03*
X175190000Y-87790002D03*
%TO.N,SDIO_CLK*%
X161802168Y-91687833D03*
X130450000Y-94780000D03*
X175170000Y-88960000D03*
%TO.N,SDIO_CMD*%
X132650000Y-94550000D03*
X160580006Y-91540021D03*
X175430000Y-92450000D03*
%TO.N,SDIO_DAT3*%
X165290000Y-91330000D03*
X133750000Y-95180000D03*
X174349998Y-93240000D03*
%TO.N,SDIO_DAT2*%
X165400000Y-90120000D03*
X134840000Y-94570000D03*
X173350000Y-88310000D03*
%TO.N,SDIO_DAT1*%
X164323719Y-90084934D03*
X127795025Y-94784975D03*
X174430000Y-87050000D03*
%TO.N,GPIO5*%
X169349949Y-93497609D03*
%TO.N,SPI0_MISO*%
X169355621Y-94497595D03*
%TO.N,SPI0_MOSI*%
X169330000Y-95520000D03*
%TO.N,SPI0_SCK*%
X167750000Y-95590000D03*
%TO.N,UART0_RX*%
X167870000Y-97080000D03*
%TO.N,UART0_TX*%
X166780000Y-97080000D03*
%TO.N,GPIO25*%
X148720000Y-88370000D03*
%TO.N,GPIO24*%
X148740000Y-86850000D03*
%TO.N,GPIO23*%
X149920000Y-86950000D03*
%TO.N,GPIO22*%
X151100000Y-86910000D03*
%TO.N,GPIO21*%
X147640000Y-86820000D03*
%TO.N,GPIO20*%
X145610000Y-86790000D03*
%TO.N,ADC2*%
X145639997Y-88430000D03*
%TO.N,ADC1*%
X146640000Y-88430000D03*
%TO.N,ADC0*%
X147640000Y-88330000D03*
%TO.N,GPIO17*%
X156160000Y-87430000D03*
%TO.N,GPIO16*%
X156190000Y-86360000D03*
%TO.N,EN*%
X147930000Y-104820000D03*
%TO.N,RESET*%
X120520000Y-86460000D03*
X157472133Y-91792488D03*
%TO.N,QSPI_CS*%
X163010000Y-97250000D03*
X135890000Y-86490000D03*
%TO.N,QSPI_D3*%
X160284846Y-96064895D03*
X137520000Y-89780000D03*
%TO.N,QSPI_CLK*%
X161284673Y-96046167D03*
X142440000Y-89030000D03*
%TO.N,QSPI_D0*%
X163738102Y-99118389D03*
X137550000Y-90810000D03*
%TO.N,QSPI_D2*%
X164736841Y-99068147D03*
X135920000Y-89860000D03*
%TO.N,QSPI_D1*%
X161990000Y-95160000D03*
X135889629Y-87679629D03*
%TO.N,LED2_BUILT_IN*%
X162310000Y-89240000D03*
X131520000Y-88120000D03*
%TO.N,LED1_BUILT_IN*%
X162019979Y-92830000D03*
X166490000Y-99120000D03*
X128880000Y-89880000D03*
%TD*%
D16*
%TO.N,+3.3VA*%
X128350000Y-82360000D02*
X128350000Y-85529998D01*
X128350000Y-85529998D02*
X126920000Y-86959998D01*
X129620000Y-81090000D02*
X128350000Y-82360000D01*
D17*
%TO.N,SDIO_DAT0*%
X176550000Y-89150002D02*
X175190000Y-87790002D01*
X176550000Y-100201398D02*
X176550000Y-89150002D01*
X153259989Y-105690011D02*
X171061388Y-105690011D01*
X133925747Y-106040051D02*
X152909949Y-106040051D01*
X152909949Y-106040051D02*
X153259989Y-105690011D01*
X171061388Y-105690011D02*
X176550000Y-100201398D01*
X128580000Y-100694304D02*
X133925747Y-106040051D01*
X128580000Y-95770000D02*
X128580000Y-100694304D01*
X128600000Y-95750000D02*
X128580000Y-95770000D01*
%TO.N,SDIO_CLK*%
X176130000Y-100055699D02*
X176130000Y-91080000D01*
X170895699Y-105290000D02*
X176130000Y-100055699D01*
X175170000Y-90120000D02*
X175170000Y-88960000D01*
X153010000Y-105290000D02*
X170895699Y-105290000D01*
X152659960Y-105640040D02*
X153010000Y-105290000D01*
X134091436Y-105640040D02*
X152659960Y-105640040D01*
X129010000Y-100558604D02*
X134091436Y-105640040D01*
X129010000Y-96900000D02*
X129010000Y-100558604D01*
X176130000Y-91080000D02*
X175170000Y-90120000D01*
X130450000Y-95460000D02*
X129010000Y-96900000D01*
X130450000Y-94780000D02*
X130450000Y-95460000D01*
%TO.N,SDIO_CMD*%
X175390000Y-92490000D02*
X175430000Y-92450000D01*
X175390000Y-93470000D02*
X175390000Y-92490000D01*
X175680000Y-93760000D02*
X175390000Y-93470000D01*
X175680000Y-99939999D02*
X175680000Y-93760000D01*
X170730010Y-104889989D02*
X175680000Y-99939999D01*
X152994291Y-104889989D02*
X170730010Y-104889989D01*
X150164280Y-102059978D02*
X152994291Y-104889989D01*
X133349990Y-96790000D02*
X133349990Y-99449990D01*
X133349990Y-99449990D02*
X135959978Y-102059978D01*
X132650000Y-94550000D02*
X132650000Y-96090010D01*
X135959978Y-102059978D02*
X150164280Y-102059978D01*
X132650000Y-96090010D02*
X133349990Y-96790000D01*
%TO.N,SDIO_DAT3*%
X175220000Y-94110002D02*
X174349998Y-93240000D01*
X175220000Y-99834300D02*
X175220000Y-94110002D01*
X150329967Y-101659967D02*
X153140000Y-104470000D01*
X170584300Y-104470000D02*
X175220000Y-99834300D01*
X133750000Y-95180000D02*
X133750000Y-99150000D01*
X136259967Y-101659967D02*
X150329967Y-101659967D01*
X153140000Y-104470000D02*
X170584300Y-104470000D01*
X133750000Y-99150000D02*
X136259967Y-101659967D01*
%TO.N,SDIO_DAT2*%
X134840000Y-96080010D02*
X134840000Y-94570000D01*
X136559999Y-101229999D02*
X134150000Y-98820000D01*
X161055699Y-101229999D02*
X136559999Y-101229999D01*
X161605678Y-100680020D02*
X161055699Y-101229999D01*
X165965982Y-100680020D02*
X161605678Y-100680020D01*
X172119997Y-94526005D02*
X165965982Y-100680020D01*
X173350000Y-88410000D02*
X172119997Y-89640003D01*
X172119997Y-89640003D02*
X172119997Y-94526005D01*
X134150000Y-96770010D02*
X134840000Y-96080010D01*
X134150000Y-98820000D02*
X134150000Y-96770010D01*
X173350000Y-88310000D02*
X173350000Y-88410000D01*
%TO.N,SDIO_DAT1*%
X176960000Y-88554315D02*
X175455685Y-87050000D01*
X153439978Y-106090022D02*
X171227077Y-106090022D01*
X153089938Y-106440062D02*
X153439978Y-106090022D01*
X175455685Y-87050000D02*
X174430000Y-87050000D01*
X133760058Y-106440062D02*
X153089938Y-106440062D01*
X128179990Y-100859994D02*
X133760058Y-106440062D01*
X128179990Y-96909990D02*
X128179990Y-100859994D01*
X127795025Y-96525025D02*
X128179990Y-96909990D01*
X176960000Y-100357097D02*
X176960000Y-88554315D01*
X171227077Y-106090022D02*
X176960000Y-100357097D01*
X127795025Y-94784975D02*
X127795025Y-96525025D01*
%TO.N,GPIO5*%
X170919965Y-89086932D02*
X171490000Y-88516897D01*
X170942000Y-82370000D02*
X169000000Y-82370000D01*
X169000000Y-82370000D02*
X167720000Y-81090000D01*
X171490000Y-88516897D02*
X171490000Y-82918000D01*
X171490000Y-82918000D02*
X170942000Y-82370000D01*
X169349949Y-93497609D02*
X170919965Y-91927593D01*
X170919965Y-91927593D02*
X170919965Y-89086932D01*
%TO.N,SPI0_MISO*%
X166520000Y-79750000D02*
X165180000Y-81090000D01*
X169355621Y-94497595D02*
X171319976Y-92533240D01*
X171949999Y-86470001D02*
X174039989Y-84380011D01*
X174039989Y-80399989D02*
X173390000Y-79750000D01*
X171949999Y-88622598D02*
X171949999Y-86470001D01*
X174039989Y-84380011D02*
X174039989Y-80399989D01*
X173390000Y-79750000D02*
X166520000Y-79750000D01*
X171319976Y-89252621D02*
X171949999Y-88622598D01*
X171319976Y-92533240D02*
X171319976Y-89252621D01*
%TO.N,SPI0_MOSI*%
X172350010Y-88788287D02*
X171719987Y-89418310D01*
X174440000Y-80220000D02*
X174440000Y-84580000D01*
X172350010Y-86669990D02*
X172350010Y-88788287D01*
X171719987Y-93130013D02*
X169330000Y-95520000D01*
X174440000Y-84580000D02*
X172350010Y-86669990D01*
X173569989Y-79349989D02*
X174440000Y-80220000D01*
X162640000Y-81090000D02*
X164380011Y-79349989D01*
X171719987Y-89418310D02*
X171719987Y-93130013D01*
X164380011Y-79349989D02*
X173569989Y-79349989D01*
%TO.N,SPI0_SCK*%
X169020000Y-84380000D02*
X169020000Y-83040000D01*
X169020000Y-83040000D02*
X168330000Y-82350000D01*
X167750000Y-95590000D02*
X167750000Y-94061557D01*
X168330000Y-82350000D02*
X161360000Y-82350000D01*
X170519954Y-85879954D02*
X169020000Y-84380000D01*
X170519954Y-91291603D02*
X170519954Y-85879954D01*
X167750000Y-94061557D02*
X170519954Y-91291603D01*
X161360000Y-82350000D02*
X160100000Y-81090000D01*
%TO.N,UART0_RX*%
X168864300Y-84790000D02*
X159557998Y-84790000D01*
X170119943Y-86045643D02*
X168864300Y-84790000D01*
X166079999Y-97416001D02*
X166079999Y-95165859D01*
X159557998Y-84790000D02*
X158830000Y-84062002D01*
X167169999Y-97780001D02*
X166443999Y-97780001D01*
X166079999Y-95165859D02*
X170119943Y-91125915D01*
X167870000Y-97080000D02*
X167169999Y-97780001D01*
X158830000Y-84062002D02*
X158830000Y-82360000D01*
X158830000Y-82360000D02*
X157560000Y-81090000D01*
X166443999Y-97780001D02*
X166079999Y-97416001D01*
X170119943Y-91125915D02*
X170119943Y-86045643D01*
%TO.N,UART0_TX*%
X169719933Y-90960227D02*
X169719933Y-86219933D01*
X157418008Y-85190010D02*
X156320000Y-84092002D01*
X169719933Y-86219933D02*
X168690010Y-85190010D01*
X165679989Y-94990011D02*
X168698611Y-91971389D01*
X168698611Y-91971389D02*
X168708771Y-91971389D01*
X165679988Y-97581690D02*
X165679989Y-94990011D01*
X156320000Y-84092002D02*
X156320000Y-82390000D01*
X167805991Y-98180011D02*
X166278310Y-98180012D01*
X168708771Y-91971389D02*
X169719933Y-90960227D01*
X167480001Y-96379999D02*
X168206001Y-96379999D01*
X168570001Y-97416001D02*
X167805991Y-98180011D01*
X156320000Y-82390000D02*
X155020000Y-81090000D01*
X166278310Y-98180012D02*
X165679988Y-97581690D01*
X168690010Y-85190010D02*
X157418008Y-85190010D01*
X168570001Y-96743999D02*
X168570001Y-97416001D01*
X168206001Y-96379999D02*
X168570001Y-96743999D01*
X166780000Y-97080000D02*
X167480001Y-96379999D01*
%TO.N,GPIO22*%
X147400000Y-84710000D02*
X147400000Y-83630000D01*
X148430000Y-85740000D02*
X147400000Y-84710000D01*
X150650000Y-85740000D02*
X148430000Y-85740000D01*
X151100000Y-86190000D02*
X150650000Y-85740000D01*
X151100000Y-86910000D02*
X151100000Y-86190000D01*
%TO.N,GPIO21*%
X144860000Y-84770000D02*
X144860000Y-83630000D01*
X146910000Y-86820000D02*
X144860000Y-84770000D01*
X147640000Y-86820000D02*
X146910000Y-86820000D01*
%TO.N,GPIO20*%
X142320000Y-85270000D02*
X143840000Y-86790000D01*
X143840000Y-86790000D02*
X145610000Y-86790000D01*
X142320000Y-83630000D02*
X142320000Y-85270000D01*
%TO.N,ADC0*%
X133410000Y-82610000D02*
X134700000Y-81320000D01*
X134030000Y-84960000D02*
X133410000Y-84340000D01*
X141444302Y-84960000D02*
X134030000Y-84960000D01*
X143674312Y-87190010D02*
X141444302Y-84960000D01*
X144860010Y-87190010D02*
X143674312Y-87190010D01*
X133410000Y-84340000D02*
X133410000Y-82610000D01*
X147040000Y-87730000D02*
X145400000Y-87730000D01*
X134700000Y-81320000D02*
X134700000Y-81090000D01*
X145400000Y-87730000D02*
X144860010Y-87190010D01*
X147640000Y-88330000D02*
X147040000Y-87730000D01*
%TO.N,GPIO17*%
X148030000Y-82340000D02*
X135990000Y-82340000D01*
X155986602Y-87430000D02*
X153886602Y-85330000D01*
X148690000Y-83000000D02*
X148030000Y-82340000D01*
X148690000Y-84790000D02*
X148690000Y-83000000D01*
X156160000Y-87430000D02*
X155986602Y-87430000D01*
X135990000Y-82340000D02*
X134700000Y-83630000D01*
X153886602Y-85330000D02*
X149230000Y-85330000D01*
X149230000Y-85330000D02*
X148690000Y-84790000D01*
%TO.N,GPIO16*%
X132160000Y-83180000D02*
X132160000Y-83630000D01*
X150312002Y-79760000D02*
X134327998Y-79760000D01*
X133400000Y-80687998D02*
X133400000Y-81940000D01*
X151220000Y-80667998D02*
X150312002Y-79760000D01*
X151220000Y-84310000D02*
X151220000Y-80667998D01*
X151839989Y-84929989D02*
X151220000Y-84310000D01*
X134327998Y-79760000D02*
X133400000Y-80687998D01*
X154052291Y-84929989D02*
X151839989Y-84929989D01*
X155482302Y-86360000D02*
X154052291Y-84929989D01*
X133400000Y-81940000D02*
X132160000Y-83180000D01*
X156190000Y-86360000D02*
X155482302Y-86360000D01*
D16*
%TO.N,RESET*%
X121440000Y-85540000D02*
X120520000Y-86460000D01*
X123130000Y-83850000D02*
X121440000Y-85540000D01*
X123130000Y-82500000D02*
X123130000Y-83850000D01*
X124540000Y-81090000D02*
X123130000Y-82500000D01*
D17*
X125389999Y-81939999D02*
X124540000Y-81090000D01*
X129516002Y-88910000D02*
X128266001Y-87659999D01*
X157472133Y-91792488D02*
X156309612Y-90629967D01*
X139405971Y-90629967D02*
X137686004Y-88910000D01*
X137686004Y-88910000D02*
X129516002Y-88910000D01*
X128266001Y-87659999D02*
X126583999Y-87659999D01*
X126583999Y-87659999D02*
X125840000Y-86916000D01*
X125840000Y-86916000D02*
X125840000Y-82390000D01*
X125840000Y-82390000D02*
X125389999Y-81939999D01*
X156309612Y-90629967D02*
X139405971Y-90629967D01*
%TO.N,QSPI_CS*%
X163010000Y-97250000D02*
X163409999Y-96850001D01*
X159324245Y-89829945D02*
X139795630Y-89829945D01*
X139795630Y-89829945D02*
X136455685Y-86490000D01*
X162110000Y-90440000D02*
X159934300Y-90440000D01*
X136455685Y-86490000D02*
X135890000Y-86490000D01*
X159934300Y-90440000D02*
X159324245Y-89829945D01*
X163409999Y-96850001D02*
X163409999Y-91739999D01*
X163409999Y-91739999D02*
X162110000Y-90440000D01*
%TO.N,QSPI_D3*%
X160284846Y-96064895D02*
X159509742Y-96839999D01*
X156930001Y-96839999D02*
X156580000Y-96489998D01*
X156580000Y-96489998D02*
X156580000Y-92670000D01*
X138769978Y-91029978D02*
X137520000Y-89780000D01*
X156580000Y-92670000D02*
X154939978Y-91029978D01*
X154939978Y-91029978D02*
X138769978Y-91029978D01*
X159509742Y-96839999D02*
X156930001Y-96839999D01*
%TO.N,QSPI_CLK*%
X163346001Y-97950001D02*
X162622822Y-97950001D01*
X163839999Y-97456003D02*
X163346001Y-97950001D01*
X163839999Y-91604299D02*
X163839999Y-97456003D01*
X162275689Y-90039989D02*
X163839999Y-91604299D01*
X160099989Y-90039989D02*
X162275689Y-90039989D01*
X162622822Y-97950001D02*
X161284673Y-96611852D01*
X159489934Y-89429935D02*
X160099989Y-90039989D01*
X143639935Y-89429935D02*
X159489934Y-89429935D01*
X143240000Y-89030000D02*
X143639935Y-89429935D01*
X161284673Y-96611852D02*
X161284673Y-96046167D01*
X142440000Y-89030000D02*
X143240000Y-89030000D01*
%TO.N,QSPI_D0*%
X154769989Y-91429989D02*
X137999989Y-91429989D01*
X156160000Y-96635698D02*
X156160000Y-92820000D01*
X137550000Y-90980000D02*
X137550000Y-90810000D01*
X160780012Y-97240010D02*
X156764312Y-97240010D01*
X137999989Y-91429989D02*
X137550000Y-90980000D01*
X163420000Y-98390000D02*
X161930002Y-98390000D01*
X156764312Y-97240010D02*
X156160000Y-96635698D01*
X163738102Y-98708102D02*
X163420000Y-98390000D01*
X161930002Y-98390000D02*
X160780012Y-97240010D01*
X156160000Y-92820000D02*
X154769989Y-91429989D01*
X163738102Y-99118389D02*
X163738102Y-98708102D01*
%TO.N,QSPI_D2*%
X154556002Y-91830000D02*
X140330000Y-91830000D01*
X155740000Y-93013998D02*
X154556002Y-91830000D01*
X164736841Y-99553159D02*
X164410000Y-99880000D01*
X164410000Y-99880000D02*
X162340000Y-99880000D01*
X164736841Y-99068147D02*
X164736841Y-99553159D01*
X155740000Y-94610000D02*
X155740000Y-93013998D01*
X162340000Y-99880000D02*
X161630000Y-99170000D01*
X160614323Y-97640021D02*
X156598623Y-97640021D01*
X161630000Y-99170000D02*
X161630000Y-98655698D01*
X135920000Y-91360000D02*
X135920000Y-89860000D01*
X161630000Y-98655698D02*
X160614323Y-97640021D01*
X140330000Y-91830000D02*
X139279999Y-92880001D01*
X156598623Y-97640021D02*
X155740000Y-96781398D01*
X155740000Y-96781398D02*
X155740000Y-94610000D01*
X155740000Y-94610000D02*
X155740000Y-94430000D01*
X139279999Y-92880001D02*
X137440001Y-92880001D01*
X137440001Y-92880001D02*
X135920000Y-91360000D01*
%TO.N,QSPI_D1*%
X159741408Y-90840011D02*
X159131353Y-90229956D01*
X161990000Y-95160000D02*
X162719989Y-94430011D01*
X159131353Y-90229956D02*
X139571660Y-90229956D01*
X162719989Y-94430011D02*
X162719989Y-91615689D01*
X162719989Y-91615689D02*
X161944311Y-90840011D01*
X161944311Y-90840011D02*
X159741408Y-90840011D01*
X139571660Y-90229956D02*
X137021333Y-87679629D01*
X137021333Y-87679629D02*
X135889629Y-87679629D01*
%TO.N,LED2_BUILT_IN*%
X130880000Y-80428000D02*
X130880000Y-85669998D01*
X131948000Y-79360000D02*
X130880000Y-80428000D01*
X152940000Y-79360000D02*
X131948000Y-79360000D01*
X153760000Y-84072002D02*
X153760000Y-80180000D01*
X131520000Y-86309998D02*
X131520000Y-87550000D01*
X130880000Y-85669998D02*
X131520000Y-86309998D01*
X155278018Y-85590020D02*
X153760000Y-84072002D01*
X162310000Y-86880020D02*
X161020000Y-85590020D01*
X153760000Y-80180000D02*
X152940000Y-79360000D01*
X161020000Y-85590020D02*
X155278018Y-85590020D01*
X162310000Y-89240000D02*
X162310000Y-86880020D01*
X131520000Y-87550000D02*
X131520000Y-88120000D01*
%TO.N,LED1_BUILT_IN*%
X161439990Y-100280010D02*
X165329990Y-100280010D01*
X160920000Y-100800000D02*
X161439990Y-100280010D01*
X136800000Y-100800000D02*
X160920000Y-100800000D01*
X135670000Y-99670000D02*
X136800000Y-100800000D01*
X165329990Y-100280010D02*
X166490000Y-99120000D01*
X135670000Y-93840000D02*
X135670000Y-99670000D01*
X133830000Y-92000000D02*
X135670000Y-93840000D01*
X133260000Y-89350000D02*
X133830000Y-89920000D01*
X133830000Y-89920000D02*
X133830000Y-92000000D01*
X133260000Y-89350000D02*
X129550000Y-89350000D01*
X129410000Y-89350000D02*
X128880000Y-89880000D01*
X129550000Y-89350000D02*
X129410000Y-89350000D01*
%TD*%
D18*
%TO.N,GND*%
X178523893Y-79597670D02*
X178960498Y-79729489D01*
X179363185Y-79943600D01*
X179716612Y-80231848D01*
X180007327Y-80583261D01*
X180224242Y-80984439D01*
X180359106Y-81420113D01*
X180410000Y-81904344D01*
X180410000Y-84446694D01*
X180327731Y-84391724D01*
X180098081Y-84296600D01*
X179854286Y-84248106D01*
X179605714Y-84248106D01*
X179361919Y-84296600D01*
X179132269Y-84391724D01*
X178925589Y-84529823D01*
X178749823Y-84705589D01*
X178611724Y-84912269D01*
X178516600Y-85141919D01*
X178468106Y-85385714D01*
X178468106Y-85634286D01*
X178516600Y-85878081D01*
X178611724Y-86107731D01*
X178749823Y-86314411D01*
X178925589Y-86490177D01*
X179132269Y-86628276D01*
X179361919Y-86723400D01*
X179605714Y-86771894D01*
X179854286Y-86771894D01*
X180098081Y-86723400D01*
X180327731Y-86628276D01*
X180410000Y-86573306D01*
X180410001Y-100919487D01*
X180280256Y-100832795D01*
X180091898Y-100754774D01*
X179891939Y-100715000D01*
X179688061Y-100715000D01*
X179488102Y-100754774D01*
X179299744Y-100832795D01*
X179130226Y-100946063D01*
X178986063Y-101090226D01*
X178872795Y-101259744D01*
X178794774Y-101448102D01*
X178755000Y-101648061D01*
X178755000Y-101851939D01*
X178794774Y-102051898D01*
X178872795Y-102240256D01*
X178986063Y-102409774D01*
X179130226Y-102553937D01*
X179299744Y-102667205D01*
X179488102Y-102745226D01*
X179688061Y-102785000D01*
X179891939Y-102785000D01*
X180091898Y-102745226D01*
X180280256Y-102667205D01*
X180410001Y-102580512D01*
X180410001Y-105857711D01*
X180362330Y-106343894D01*
X180230512Y-106780497D01*
X180016399Y-107183186D01*
X179728150Y-107536613D01*
X179376739Y-107827327D01*
X178975564Y-108044240D01*
X178539886Y-108179106D01*
X178055664Y-108230000D01*
X164176637Y-108230000D01*
X164198284Y-108203623D01*
X164303676Y-108006446D01*
X164368577Y-107792498D01*
X164385000Y-107625751D01*
X164385000Y-106914248D01*
X164376212Y-106825022D01*
X171190972Y-106825022D01*
X171227077Y-106828578D01*
X171263182Y-106825022D01*
X171371162Y-106814387D01*
X171509710Y-106772359D01*
X171637397Y-106704109D01*
X171749315Y-106612260D01*
X171772336Y-106584209D01*
X173167511Y-105189033D01*
X175529545Y-105189033D01*
X175529545Y-105590967D01*
X175607958Y-105985179D01*
X175761772Y-106356518D01*
X175985075Y-106690714D01*
X176269286Y-106974925D01*
X176603482Y-107198228D01*
X176974821Y-107352042D01*
X177369033Y-107430455D01*
X177770967Y-107430455D01*
X178165179Y-107352042D01*
X178536518Y-107198228D01*
X178870714Y-106974925D01*
X179154925Y-106690714D01*
X179378228Y-106356518D01*
X179532042Y-105985179D01*
X179610455Y-105590967D01*
X179610455Y-105189033D01*
X179532042Y-104794821D01*
X179378228Y-104423482D01*
X179154925Y-104089286D01*
X178870714Y-103805075D01*
X178536518Y-103581772D01*
X178165179Y-103427958D01*
X177770967Y-103349545D01*
X177369033Y-103349545D01*
X176974821Y-103427958D01*
X176603482Y-103581772D01*
X176269286Y-103805075D01*
X175985075Y-104089286D01*
X175761772Y-104423482D01*
X175607958Y-104794821D01*
X175529545Y-105189033D01*
X173167511Y-105189033D01*
X177454198Y-100902346D01*
X177482237Y-100879335D01*
X177505250Y-100851294D01*
X177505253Y-100851291D01*
X177574087Y-100767417D01*
X177597489Y-100723635D01*
X177642337Y-100639730D01*
X177684365Y-100501182D01*
X177695000Y-100393202D01*
X177695000Y-100393201D01*
X177698556Y-100357097D01*
X177695000Y-100320992D01*
X177695000Y-96968587D01*
X177878061Y-97005000D01*
X178081939Y-97005000D01*
X178281898Y-96965226D01*
X178470256Y-96887205D01*
X178639774Y-96773937D01*
X178783937Y-96629774D01*
X178897205Y-96460256D01*
X178975226Y-96271898D01*
X179015000Y-96071939D01*
X179015000Y-95868061D01*
X178975226Y-95668102D01*
X178897205Y-95479744D01*
X178783937Y-95310226D01*
X178639774Y-95166063D01*
X178470256Y-95052795D01*
X178281898Y-94974774D01*
X178081939Y-94935000D01*
X177878061Y-94935000D01*
X177695000Y-94971413D01*
X177695000Y-88590420D01*
X177698556Y-88554315D01*
X177684365Y-88410230D01*
X177642337Y-88271681D01*
X177574087Y-88143995D01*
X177548105Y-88112336D01*
X177482238Y-88032077D01*
X177454193Y-88009061D01*
X176000943Y-86555812D01*
X175977923Y-86527762D01*
X175866005Y-86435913D01*
X175738318Y-86367663D01*
X175599770Y-86325635D01*
X175491790Y-86315000D01*
X175455685Y-86311444D01*
X175419580Y-86315000D01*
X175158711Y-86315000D01*
X175089774Y-86246063D01*
X174920256Y-86132795D01*
X174731898Y-86054774D01*
X174531939Y-86015000D01*
X174328061Y-86015000D01*
X174128102Y-86054774D01*
X173939744Y-86132795D01*
X173900288Y-86159159D01*
X174934193Y-85125254D01*
X174962238Y-85102238D01*
X175054087Y-84990320D01*
X175122337Y-84862633D01*
X175164365Y-84724085D01*
X175175000Y-84616105D01*
X175175000Y-84616096D01*
X175178555Y-84580001D01*
X175175000Y-84543906D01*
X175175000Y-82189033D01*
X175529545Y-82189033D01*
X175529545Y-82590967D01*
X175607958Y-82985179D01*
X175761772Y-83356518D01*
X175985075Y-83690714D01*
X176269286Y-83974925D01*
X176603482Y-84198228D01*
X176974821Y-84352042D01*
X177369033Y-84430455D01*
X177770967Y-84430455D01*
X178165179Y-84352042D01*
X178536518Y-84198228D01*
X178870714Y-83974925D01*
X179154925Y-83690714D01*
X179378228Y-83356518D01*
X179532042Y-82985179D01*
X179610455Y-82590967D01*
X179610455Y-82189033D01*
X179532042Y-81794821D01*
X179378228Y-81423482D01*
X179154925Y-81089286D01*
X178870714Y-80805075D01*
X178536518Y-80581772D01*
X178165179Y-80427958D01*
X177770967Y-80349545D01*
X177369033Y-80349545D01*
X176974821Y-80427958D01*
X176603482Y-80581772D01*
X176269286Y-80805075D01*
X175985075Y-81089286D01*
X175761772Y-81423482D01*
X175607958Y-81794821D01*
X175529545Y-82189033D01*
X175175000Y-82189033D01*
X175175000Y-80256094D01*
X175178555Y-80219999D01*
X175175000Y-80183904D01*
X175175000Y-80183895D01*
X175164365Y-80075915D01*
X175122337Y-79937367D01*
X175054087Y-79809680D01*
X175021395Y-79769845D01*
X174985253Y-79725806D01*
X174985250Y-79725803D01*
X174962237Y-79697762D01*
X174934197Y-79674750D01*
X174809447Y-79550000D01*
X178037721Y-79550000D01*
X178523893Y-79597670D01*
%TA.AperFunction,Conductor*%
D19*
G36*
X178523893Y-79597670D02*
G01*
X178960498Y-79729489D01*
X179363185Y-79943600D01*
X179716612Y-80231848D01*
X180007327Y-80583261D01*
X180224242Y-80984439D01*
X180359106Y-81420113D01*
X180410000Y-81904344D01*
X180410000Y-84446694D01*
X180327731Y-84391724D01*
X180098081Y-84296600D01*
X179854286Y-84248106D01*
X179605714Y-84248106D01*
X179361919Y-84296600D01*
X179132269Y-84391724D01*
X178925589Y-84529823D01*
X178749823Y-84705589D01*
X178611724Y-84912269D01*
X178516600Y-85141919D01*
X178468106Y-85385714D01*
X178468106Y-85634286D01*
X178516600Y-85878081D01*
X178611724Y-86107731D01*
X178749823Y-86314411D01*
X178925589Y-86490177D01*
X179132269Y-86628276D01*
X179361919Y-86723400D01*
X179605714Y-86771894D01*
X179854286Y-86771894D01*
X180098081Y-86723400D01*
X180327731Y-86628276D01*
X180410000Y-86573306D01*
X180410001Y-100919487D01*
X180280256Y-100832795D01*
X180091898Y-100754774D01*
X179891939Y-100715000D01*
X179688061Y-100715000D01*
X179488102Y-100754774D01*
X179299744Y-100832795D01*
X179130226Y-100946063D01*
X178986063Y-101090226D01*
X178872795Y-101259744D01*
X178794774Y-101448102D01*
X178755000Y-101648061D01*
X178755000Y-101851939D01*
X178794774Y-102051898D01*
X178872795Y-102240256D01*
X178986063Y-102409774D01*
X179130226Y-102553937D01*
X179299744Y-102667205D01*
X179488102Y-102745226D01*
X179688061Y-102785000D01*
X179891939Y-102785000D01*
X180091898Y-102745226D01*
X180280256Y-102667205D01*
X180410001Y-102580512D01*
X180410001Y-105857711D01*
X180362330Y-106343894D01*
X180230512Y-106780497D01*
X180016399Y-107183186D01*
X179728150Y-107536613D01*
X179376739Y-107827327D01*
X178975564Y-108044240D01*
X178539886Y-108179106D01*
X178055664Y-108230000D01*
X164176637Y-108230000D01*
X164198284Y-108203623D01*
X164303676Y-108006446D01*
X164368577Y-107792498D01*
X164385000Y-107625751D01*
X164385000Y-106914248D01*
X164376212Y-106825022D01*
X171190972Y-106825022D01*
X171227077Y-106828578D01*
X171263182Y-106825022D01*
X171371162Y-106814387D01*
X171509710Y-106772359D01*
X171637397Y-106704109D01*
X171749315Y-106612260D01*
X171772336Y-106584209D01*
X173167511Y-105189033D01*
X175529545Y-105189033D01*
X175529545Y-105590967D01*
X175607958Y-105985179D01*
X175761772Y-106356518D01*
X175985075Y-106690714D01*
X176269286Y-106974925D01*
X176603482Y-107198228D01*
X176974821Y-107352042D01*
X177369033Y-107430455D01*
X177770967Y-107430455D01*
X178165179Y-107352042D01*
X178536518Y-107198228D01*
X178870714Y-106974925D01*
X179154925Y-106690714D01*
X179378228Y-106356518D01*
X179532042Y-105985179D01*
X179610455Y-105590967D01*
X179610455Y-105189033D01*
X179532042Y-104794821D01*
X179378228Y-104423482D01*
X179154925Y-104089286D01*
X178870714Y-103805075D01*
X178536518Y-103581772D01*
X178165179Y-103427958D01*
X177770967Y-103349545D01*
X177369033Y-103349545D01*
X176974821Y-103427958D01*
X176603482Y-103581772D01*
X176269286Y-103805075D01*
X175985075Y-104089286D01*
X175761772Y-104423482D01*
X175607958Y-104794821D01*
X175529545Y-105189033D01*
X173167511Y-105189033D01*
X177454198Y-100902346D01*
X177482237Y-100879335D01*
X177505250Y-100851294D01*
X177505253Y-100851291D01*
X177574087Y-100767417D01*
X177597489Y-100723635D01*
X177642337Y-100639730D01*
X177684365Y-100501182D01*
X177695000Y-100393202D01*
X177695000Y-100393201D01*
X177698556Y-100357097D01*
X177695000Y-100320992D01*
X177695000Y-96968587D01*
X177878061Y-97005000D01*
X178081939Y-97005000D01*
X178281898Y-96965226D01*
X178470256Y-96887205D01*
X178639774Y-96773937D01*
X178783937Y-96629774D01*
X178897205Y-96460256D01*
X178975226Y-96271898D01*
X179015000Y-96071939D01*
X179015000Y-95868061D01*
X178975226Y-95668102D01*
X178897205Y-95479744D01*
X178783937Y-95310226D01*
X178639774Y-95166063D01*
X178470256Y-95052795D01*
X178281898Y-94974774D01*
X178081939Y-94935000D01*
X177878061Y-94935000D01*
X177695000Y-94971413D01*
X177695000Y-88590420D01*
X177698556Y-88554315D01*
X177684365Y-88410230D01*
X177642337Y-88271681D01*
X177574087Y-88143995D01*
X177548105Y-88112336D01*
X177482238Y-88032077D01*
X177454193Y-88009061D01*
X176000943Y-86555812D01*
X175977923Y-86527762D01*
X175866005Y-86435913D01*
X175738318Y-86367663D01*
X175599770Y-86325635D01*
X175491790Y-86315000D01*
X175455685Y-86311444D01*
X175419580Y-86315000D01*
X175158711Y-86315000D01*
X175089774Y-86246063D01*
X174920256Y-86132795D01*
X174731898Y-86054774D01*
X174531939Y-86015000D01*
X174328061Y-86015000D01*
X174128102Y-86054774D01*
X173939744Y-86132795D01*
X173900288Y-86159159D01*
X174934193Y-85125254D01*
X174962238Y-85102238D01*
X175054087Y-84990320D01*
X175122337Y-84862633D01*
X175164365Y-84724085D01*
X175175000Y-84616105D01*
X175175000Y-84616096D01*
X175178555Y-84580001D01*
X175175000Y-84543906D01*
X175175000Y-82189033D01*
X175529545Y-82189033D01*
X175529545Y-82590967D01*
X175607958Y-82985179D01*
X175761772Y-83356518D01*
X175985075Y-83690714D01*
X176269286Y-83974925D01*
X176603482Y-84198228D01*
X176974821Y-84352042D01*
X177369033Y-84430455D01*
X177770967Y-84430455D01*
X178165179Y-84352042D01*
X178536518Y-84198228D01*
X178870714Y-83974925D01*
X179154925Y-83690714D01*
X179378228Y-83356518D01*
X179532042Y-82985179D01*
X179610455Y-82590967D01*
X179610455Y-82189033D01*
X179532042Y-81794821D01*
X179378228Y-81423482D01*
X179154925Y-81089286D01*
X178870714Y-80805075D01*
X178536518Y-80581772D01*
X178165179Y-80427958D01*
X177770967Y-80349545D01*
X177369033Y-80349545D01*
X176974821Y-80427958D01*
X176603482Y-80581772D01*
X176269286Y-80805075D01*
X175985075Y-81089286D01*
X175761772Y-81423482D01*
X175607958Y-81794821D01*
X175529545Y-82189033D01*
X175175000Y-82189033D01*
X175175000Y-80256094D01*
X175178555Y-80219999D01*
X175175000Y-80183904D01*
X175175000Y-80183895D01*
X175164365Y-80075915D01*
X175122337Y-79937367D01*
X175054087Y-79809680D01*
X175021395Y-79769845D01*
X174985253Y-79725806D01*
X174985250Y-79725803D01*
X174962237Y-79697762D01*
X174934197Y-79674750D01*
X174809447Y-79550000D01*
X178037721Y-79550000D01*
X178523893Y-79597670D01*
G37*
%TD.AperFunction*%
D18*
X130425998Y-79842556D02*
X130323411Y-79774010D01*
X130053158Y-79662068D01*
X129766260Y-79605000D01*
X129473740Y-79605000D01*
X129186842Y-79662068D01*
X128916589Y-79774010D01*
X128673368Y-79936525D01*
X128466525Y-80143368D01*
X128350000Y-80317760D01*
X128233475Y-80143368D01*
X128026632Y-79936525D01*
X127783411Y-79774010D01*
X127513158Y-79662068D01*
X127226260Y-79605000D01*
X126933740Y-79605000D01*
X126646842Y-79662068D01*
X126376589Y-79774010D01*
X126133368Y-79936525D01*
X125926525Y-80143368D01*
X125810000Y-80317760D01*
X125693475Y-80143368D01*
X125486632Y-79936525D01*
X125243411Y-79774010D01*
X124973158Y-79662068D01*
X124686260Y-79605000D01*
X124393740Y-79605000D01*
X124106842Y-79662068D01*
X123836589Y-79774010D01*
X123593368Y-79936525D01*
X123386525Y-80143368D01*
X123224010Y-80386589D01*
X123112068Y-80656842D01*
X123055000Y-80943740D01*
X123055000Y-81236260D01*
X123092925Y-81426918D01*
X122602190Y-81917653D01*
X122572236Y-81942236D01*
X122474138Y-82061768D01*
X122401246Y-82198141D01*
X122356359Y-82346114D01*
X122345000Y-82461440D01*
X122345000Y-82461447D01*
X122341203Y-82500000D01*
X122345000Y-82538553D01*
X122345001Y-83524841D01*
X120912192Y-84957651D01*
X120912187Y-84957655D01*
X120444842Y-85425000D01*
X120418061Y-85425000D01*
X120218102Y-85464774D01*
X120029744Y-85542795D01*
X119860226Y-85656063D01*
X119716063Y-85800226D01*
X119602795Y-85969744D01*
X119524774Y-86158102D01*
X119485000Y-86358061D01*
X119485000Y-86561939D01*
X119524774Y-86761898D01*
X119602795Y-86950256D01*
X119716063Y-87119774D01*
X119860226Y-87263937D01*
X120029744Y-87377205D01*
X120218102Y-87455226D01*
X120418061Y-87495000D01*
X120621939Y-87495000D01*
X120821898Y-87455226D01*
X121010256Y-87377205D01*
X121179774Y-87263937D01*
X121323937Y-87119774D01*
X121437205Y-86950256D01*
X121515226Y-86761898D01*
X121555000Y-86561939D01*
X121555000Y-86535158D01*
X122022345Y-86067813D01*
X122022349Y-86067808D01*
X123202826Y-84887332D01*
X123238815Y-84931185D01*
X123335506Y-85010537D01*
X123445820Y-85069502D01*
X123565518Y-85105812D01*
X123690000Y-85118072D01*
X125105000Y-85118072D01*
X125105000Y-86879895D01*
X125101444Y-86916000D01*
X125115635Y-87060085D01*
X125123193Y-87085000D01*
X125157663Y-87198632D01*
X125225913Y-87326319D01*
X125317762Y-87438237D01*
X125345808Y-87461254D01*
X126038745Y-88154192D01*
X126061761Y-88182237D01*
X126173679Y-88274086D01*
X126301366Y-88342336D01*
X126439914Y-88384364D01*
X126547894Y-88394999D01*
X126547903Y-88394999D01*
X126583998Y-88398554D01*
X126620093Y-88394999D01*
X127961555Y-88394999D01*
X128488460Y-88921905D01*
X128389744Y-88962795D01*
X128220226Y-89076063D01*
X128076063Y-89220226D01*
X127962795Y-89389744D01*
X127884774Y-89578102D01*
X127845000Y-89778061D01*
X127845000Y-89981939D01*
X127884774Y-90181898D01*
X127962795Y-90370256D01*
X128076063Y-90539774D01*
X128220226Y-90683937D01*
X128389744Y-90797205D01*
X128578102Y-90875226D01*
X128778061Y-90915000D01*
X128981939Y-90915000D01*
X129181898Y-90875226D01*
X129370256Y-90797205D01*
X129505000Y-90707172D01*
X129505000Y-90861939D01*
X129544774Y-91061898D01*
X129622795Y-91250256D01*
X129736063Y-91419774D01*
X129880226Y-91563937D01*
X130049744Y-91677205D01*
X130238102Y-91755226D01*
X130438061Y-91795000D01*
X130641939Y-91795000D01*
X130841898Y-91755226D01*
X131030256Y-91677205D01*
X131199774Y-91563937D01*
X131343937Y-91419774D01*
X131457205Y-91250256D01*
X131535226Y-91061898D01*
X131575000Y-90861939D01*
X131575000Y-90658061D01*
X131535226Y-90458102D01*
X131457205Y-90269744D01*
X131343937Y-90100226D01*
X131328711Y-90085000D01*
X132955554Y-90085000D01*
X133095000Y-90224447D01*
X133095001Y-91963885D01*
X133091444Y-92000000D01*
X133105635Y-92144085D01*
X133136917Y-92247205D01*
X133147664Y-92282633D01*
X133215914Y-92410320D01*
X133307763Y-92522238D01*
X133335808Y-92545254D01*
X134415932Y-93625379D01*
X134349744Y-93652795D01*
X134180226Y-93766063D01*
X134036063Y-93910226D01*
X133922795Y-94079744D01*
X133892429Y-94153054D01*
X133851939Y-94145000D01*
X133648061Y-94145000D01*
X133605986Y-94153369D01*
X133567205Y-94059744D01*
X133453937Y-93890226D01*
X133309774Y-93746063D01*
X133140256Y-93632795D01*
X132951898Y-93554774D01*
X132751939Y-93515000D01*
X132548061Y-93515000D01*
X132391362Y-93546169D01*
X132333937Y-93460226D01*
X132189774Y-93316063D01*
X132020256Y-93202795D01*
X131831898Y-93124774D01*
X131631939Y-93085000D01*
X131428061Y-93085000D01*
X131228102Y-93124774D01*
X131039744Y-93202795D01*
X130870226Y-93316063D01*
X130726063Y-93460226D01*
X130612795Y-93629744D01*
X130564056Y-93747410D01*
X130551939Y-93745000D01*
X130348061Y-93745000D01*
X130148102Y-93784774D01*
X129959744Y-93862795D01*
X129790226Y-93976063D01*
X129646063Y-94120226D01*
X129532795Y-94289744D01*
X129454774Y-94478102D01*
X129415000Y-94678061D01*
X129415000Y-94881939D01*
X129454774Y-95081898D01*
X129532795Y-95270256D01*
X129559833Y-95310721D01*
X129544621Y-95325932D01*
X129517205Y-95259744D01*
X129403937Y-95090226D01*
X129259774Y-94946063D01*
X129090256Y-94832795D01*
X128901898Y-94754774D01*
X128830025Y-94740478D01*
X128830025Y-94683036D01*
X128790251Y-94483077D01*
X128712230Y-94294719D01*
X128598962Y-94125201D01*
X128454799Y-93981038D01*
X128285281Y-93867770D01*
X128096923Y-93789749D01*
X127896964Y-93749975D01*
X127693086Y-93749975D01*
X127493127Y-93789749D01*
X127304769Y-93867770D01*
X127135251Y-93981038D01*
X126991088Y-94125201D01*
X126877820Y-94294719D01*
X126799799Y-94483077D01*
X126760025Y-94683036D01*
X126760025Y-94886914D01*
X126799799Y-95086873D01*
X126877820Y-95275231D01*
X126991088Y-95444749D01*
X127060025Y-95513686D01*
X127060026Y-96488910D01*
X127056469Y-96525025D01*
X127070660Y-96669110D01*
X127102460Y-96773937D01*
X127112689Y-96807658D01*
X127180939Y-96935345D01*
X127272788Y-97047263D01*
X127300833Y-97070279D01*
X127444990Y-97214436D01*
X127444991Y-100823879D01*
X127441434Y-100859994D01*
X127455625Y-101004079D01*
X127497654Y-101142627D01*
X127565904Y-101270314D01*
X127657753Y-101382232D01*
X127685798Y-101405248D01*
X133214804Y-106934255D01*
X133237820Y-106962300D01*
X133349738Y-107054149D01*
X133477425Y-107122399D01*
X133615973Y-107164427D01*
X133760058Y-107178618D01*
X133796163Y-107175062D01*
X153053833Y-107175062D01*
X153089938Y-107178618D01*
X153126043Y-107175062D01*
X153234023Y-107164427D01*
X153372571Y-107122399D01*
X153475000Y-107067650D01*
X153475000Y-107625752D01*
X153491423Y-107792499D01*
X153556324Y-108006447D01*
X153661717Y-108203623D01*
X153683364Y-108230000D01*
X123921478Y-108230000D01*
X124013400Y-108008081D01*
X124061894Y-107764286D01*
X124061894Y-107515714D01*
X124013400Y-107271919D01*
X123918276Y-107042269D01*
X123780177Y-106835589D01*
X123604411Y-106659823D01*
X123397731Y-106521724D01*
X123168081Y-106426600D01*
X122924286Y-106378106D01*
X122675714Y-106378106D01*
X122431919Y-106426600D01*
X122202269Y-106521724D01*
X121995589Y-106659823D01*
X121819823Y-106835589D01*
X121681724Y-107042269D01*
X121586600Y-107271919D01*
X121538106Y-107515714D01*
X121538106Y-107764286D01*
X121586600Y-108008081D01*
X121678522Y-108230000D01*
X119102279Y-108230000D01*
X118616106Y-108182330D01*
X118179503Y-108050512D01*
X117776814Y-107836399D01*
X117423387Y-107548150D01*
X117132673Y-107196739D01*
X116915760Y-106795564D01*
X116780894Y-106359886D01*
X116730000Y-105875664D01*
X116730000Y-105189033D01*
X117529545Y-105189033D01*
X117529545Y-105590967D01*
X117607958Y-105985179D01*
X117761772Y-106356518D01*
X117985075Y-106690714D01*
X118269286Y-106974925D01*
X118603482Y-107198228D01*
X118974821Y-107352042D01*
X119369033Y-107430455D01*
X119770967Y-107430455D01*
X120165179Y-107352042D01*
X120536518Y-107198228D01*
X120870714Y-106974925D01*
X121154925Y-106690714D01*
X121378228Y-106356518D01*
X121532042Y-105985179D01*
X121610455Y-105590967D01*
X121610455Y-105189033D01*
X121532042Y-104794821D01*
X121378228Y-104423482D01*
X121154925Y-104089286D01*
X120870714Y-103805075D01*
X120583459Y-103613137D01*
X126550000Y-103613137D01*
X126550000Y-103826863D01*
X126591696Y-104036483D01*
X126673485Y-104233940D01*
X126792225Y-104411647D01*
X126943353Y-104562775D01*
X127121060Y-104681515D01*
X127318517Y-104763304D01*
X127528137Y-104805000D01*
X127741863Y-104805000D01*
X127951483Y-104763304D01*
X128148940Y-104681515D01*
X128326647Y-104562775D01*
X128477775Y-104411647D01*
X128596515Y-104233940D01*
X128678304Y-104036483D01*
X128720000Y-103826863D01*
X128720000Y-103613137D01*
X128678304Y-103403517D01*
X128596515Y-103206060D01*
X128477775Y-103028353D01*
X128326647Y-102877225D01*
X128148940Y-102758485D01*
X127951483Y-102676696D01*
X127741863Y-102635000D01*
X127528137Y-102635000D01*
X127318517Y-102676696D01*
X127121060Y-102758485D01*
X126943353Y-102877225D01*
X126792225Y-103028353D01*
X126673485Y-103206060D01*
X126591696Y-103403517D01*
X126550000Y-103613137D01*
X120583459Y-103613137D01*
X120536518Y-103581772D01*
X120165179Y-103427958D01*
X119770967Y-103349545D01*
X119369033Y-103349545D01*
X118974821Y-103427958D01*
X118603482Y-103581772D01*
X118269286Y-103805075D01*
X117985075Y-104089286D01*
X117761772Y-104423482D01*
X117607958Y-104794821D01*
X117529545Y-105189033D01*
X116730000Y-105189033D01*
X116730000Y-98845000D01*
X116904476Y-98845000D01*
X117099606Y-98806186D01*
X117283414Y-98730050D01*
X117448837Y-98619518D01*
X117589518Y-98478837D01*
X117700050Y-98313414D01*
X117776186Y-98129606D01*
X117815000Y-97934476D01*
X117815000Y-97735524D01*
X118545000Y-97735524D01*
X118545000Y-97934476D01*
X118583814Y-98129606D01*
X118659950Y-98313414D01*
X118770482Y-98478837D01*
X118911163Y-98619518D01*
X119076586Y-98730050D01*
X119260394Y-98806186D01*
X119455524Y-98845000D01*
X119654476Y-98845000D01*
X119849606Y-98806186D01*
X120033414Y-98730050D01*
X120198837Y-98619518D01*
X120339518Y-98478837D01*
X120450050Y-98313414D01*
X120526186Y-98129606D01*
X120565000Y-97934476D01*
X120565000Y-97735524D01*
X120526186Y-97540394D01*
X120450050Y-97356586D01*
X120339518Y-97191163D01*
X120198837Y-97050482D01*
X120033414Y-96939950D01*
X119849606Y-96863814D01*
X119654476Y-96825000D01*
X119455524Y-96825000D01*
X119260394Y-96863814D01*
X119076586Y-96939950D01*
X118911163Y-97050482D01*
X118770482Y-97191163D01*
X118659950Y-97356586D01*
X118583814Y-97540394D01*
X118545000Y-97735524D01*
X117815000Y-97735524D01*
X117776186Y-97540394D01*
X117700050Y-97356586D01*
X117589518Y-97191163D01*
X117448837Y-97050482D01*
X117283414Y-96939950D01*
X117099606Y-96863814D01*
X116904476Y-96825000D01*
X116730000Y-96825000D01*
X116730000Y-90910000D01*
X116904476Y-90910000D01*
X117099606Y-90871186D01*
X117283414Y-90795050D01*
X117448837Y-90684518D01*
X117589518Y-90543837D01*
X117700050Y-90378414D01*
X117776186Y-90194606D01*
X117815000Y-89999476D01*
X117815000Y-89800524D01*
X118545000Y-89800524D01*
X118545000Y-89999476D01*
X118583814Y-90194606D01*
X118659950Y-90378414D01*
X118770482Y-90543837D01*
X118911163Y-90684518D01*
X119076586Y-90795050D01*
X119260394Y-90871186D01*
X119455524Y-90910000D01*
X119654476Y-90910000D01*
X119849606Y-90871186D01*
X120033414Y-90795050D01*
X120198837Y-90684518D01*
X120339518Y-90543837D01*
X120450050Y-90378414D01*
X120526186Y-90194606D01*
X120565000Y-89999476D01*
X120565000Y-89800524D01*
X120526186Y-89605394D01*
X120450050Y-89421586D01*
X120339518Y-89256163D01*
X120198837Y-89115482D01*
X120033414Y-89004950D01*
X119849606Y-88928814D01*
X119654476Y-88890000D01*
X119455524Y-88890000D01*
X119260394Y-88928814D01*
X119076586Y-89004950D01*
X118911163Y-89115482D01*
X118770482Y-89256163D01*
X118659950Y-89421586D01*
X118583814Y-89605394D01*
X118545000Y-89800524D01*
X117815000Y-89800524D01*
X117776186Y-89605394D01*
X117700050Y-89421586D01*
X117589518Y-89256163D01*
X117448837Y-89115482D01*
X117283414Y-89004950D01*
X117099606Y-88928814D01*
X116904476Y-88890000D01*
X116730000Y-88890000D01*
X116730000Y-82189033D01*
X117529545Y-82189033D01*
X117529545Y-82590967D01*
X117607958Y-82985179D01*
X117761772Y-83356518D01*
X117985075Y-83690714D01*
X118269286Y-83974925D01*
X118603482Y-84198228D01*
X118974821Y-84352042D01*
X119369033Y-84430455D01*
X119770967Y-84430455D01*
X120165179Y-84352042D01*
X120536518Y-84198228D01*
X120870714Y-83974925D01*
X121154925Y-83690714D01*
X121378228Y-83356518D01*
X121532042Y-82985179D01*
X121610455Y-82590967D01*
X121610455Y-82189033D01*
X121532042Y-81794821D01*
X121378228Y-81423482D01*
X121154925Y-81089286D01*
X120870714Y-80805075D01*
X120536518Y-80581772D01*
X120165179Y-80427958D01*
X119770967Y-80349545D01*
X119369033Y-80349545D01*
X118974821Y-80427958D01*
X118603482Y-80581772D01*
X118269286Y-80805075D01*
X117985075Y-81089286D01*
X117761772Y-81423482D01*
X117607958Y-81794821D01*
X117529545Y-82189033D01*
X116730000Y-82189033D01*
X116730000Y-81922279D01*
X116777670Y-81436107D01*
X116909489Y-80999502D01*
X117123600Y-80596815D01*
X117411848Y-80243388D01*
X117763261Y-79952673D01*
X118164439Y-79735758D01*
X118600113Y-79600894D01*
X119084344Y-79550000D01*
X130718554Y-79550000D01*
X130425998Y-79842556D01*
%TA.AperFunction,Conductor*%
D19*
G36*
X130425998Y-79842556D02*
G01*
X130323411Y-79774010D01*
X130053158Y-79662068D01*
X129766260Y-79605000D01*
X129473740Y-79605000D01*
X129186842Y-79662068D01*
X128916589Y-79774010D01*
X128673368Y-79936525D01*
X128466525Y-80143368D01*
X128350000Y-80317760D01*
X128233475Y-80143368D01*
X128026632Y-79936525D01*
X127783411Y-79774010D01*
X127513158Y-79662068D01*
X127226260Y-79605000D01*
X126933740Y-79605000D01*
X126646842Y-79662068D01*
X126376589Y-79774010D01*
X126133368Y-79936525D01*
X125926525Y-80143368D01*
X125810000Y-80317760D01*
X125693475Y-80143368D01*
X125486632Y-79936525D01*
X125243411Y-79774010D01*
X124973158Y-79662068D01*
X124686260Y-79605000D01*
X124393740Y-79605000D01*
X124106842Y-79662068D01*
X123836589Y-79774010D01*
X123593368Y-79936525D01*
X123386525Y-80143368D01*
X123224010Y-80386589D01*
X123112068Y-80656842D01*
X123055000Y-80943740D01*
X123055000Y-81236260D01*
X123092925Y-81426918D01*
X122602190Y-81917653D01*
X122572236Y-81942236D01*
X122474138Y-82061768D01*
X122401246Y-82198141D01*
X122356359Y-82346114D01*
X122345000Y-82461440D01*
X122345000Y-82461447D01*
X122341203Y-82500000D01*
X122345000Y-82538553D01*
X122345001Y-83524841D01*
X120912192Y-84957651D01*
X120912187Y-84957655D01*
X120444842Y-85425000D01*
X120418061Y-85425000D01*
X120218102Y-85464774D01*
X120029744Y-85542795D01*
X119860226Y-85656063D01*
X119716063Y-85800226D01*
X119602795Y-85969744D01*
X119524774Y-86158102D01*
X119485000Y-86358061D01*
X119485000Y-86561939D01*
X119524774Y-86761898D01*
X119602795Y-86950256D01*
X119716063Y-87119774D01*
X119860226Y-87263937D01*
X120029744Y-87377205D01*
X120218102Y-87455226D01*
X120418061Y-87495000D01*
X120621939Y-87495000D01*
X120821898Y-87455226D01*
X121010256Y-87377205D01*
X121179774Y-87263937D01*
X121323937Y-87119774D01*
X121437205Y-86950256D01*
X121515226Y-86761898D01*
X121555000Y-86561939D01*
X121555000Y-86535158D01*
X122022345Y-86067813D01*
X122022349Y-86067808D01*
X123202826Y-84887332D01*
X123238815Y-84931185D01*
X123335506Y-85010537D01*
X123445820Y-85069502D01*
X123565518Y-85105812D01*
X123690000Y-85118072D01*
X125105000Y-85118072D01*
X125105000Y-86879895D01*
X125101444Y-86916000D01*
X125115635Y-87060085D01*
X125123193Y-87085000D01*
X125157663Y-87198632D01*
X125225913Y-87326319D01*
X125317762Y-87438237D01*
X125345808Y-87461254D01*
X126038745Y-88154192D01*
X126061761Y-88182237D01*
X126173679Y-88274086D01*
X126301366Y-88342336D01*
X126439914Y-88384364D01*
X126547894Y-88394999D01*
X126547903Y-88394999D01*
X126583998Y-88398554D01*
X126620093Y-88394999D01*
X127961555Y-88394999D01*
X128488460Y-88921905D01*
X128389744Y-88962795D01*
X128220226Y-89076063D01*
X128076063Y-89220226D01*
X127962795Y-89389744D01*
X127884774Y-89578102D01*
X127845000Y-89778061D01*
X127845000Y-89981939D01*
X127884774Y-90181898D01*
X127962795Y-90370256D01*
X128076063Y-90539774D01*
X128220226Y-90683937D01*
X128389744Y-90797205D01*
X128578102Y-90875226D01*
X128778061Y-90915000D01*
X128981939Y-90915000D01*
X129181898Y-90875226D01*
X129370256Y-90797205D01*
X129505000Y-90707172D01*
X129505000Y-90861939D01*
X129544774Y-91061898D01*
X129622795Y-91250256D01*
X129736063Y-91419774D01*
X129880226Y-91563937D01*
X130049744Y-91677205D01*
X130238102Y-91755226D01*
X130438061Y-91795000D01*
X130641939Y-91795000D01*
X130841898Y-91755226D01*
X131030256Y-91677205D01*
X131199774Y-91563937D01*
X131343937Y-91419774D01*
X131457205Y-91250256D01*
X131535226Y-91061898D01*
X131575000Y-90861939D01*
X131575000Y-90658061D01*
X131535226Y-90458102D01*
X131457205Y-90269744D01*
X131343937Y-90100226D01*
X131328711Y-90085000D01*
X132955554Y-90085000D01*
X133095000Y-90224447D01*
X133095001Y-91963885D01*
X133091444Y-92000000D01*
X133105635Y-92144085D01*
X133136917Y-92247205D01*
X133147664Y-92282633D01*
X133215914Y-92410320D01*
X133307763Y-92522238D01*
X133335808Y-92545254D01*
X134415932Y-93625379D01*
X134349744Y-93652795D01*
X134180226Y-93766063D01*
X134036063Y-93910226D01*
X133922795Y-94079744D01*
X133892429Y-94153054D01*
X133851939Y-94145000D01*
X133648061Y-94145000D01*
X133605986Y-94153369D01*
X133567205Y-94059744D01*
X133453937Y-93890226D01*
X133309774Y-93746063D01*
X133140256Y-93632795D01*
X132951898Y-93554774D01*
X132751939Y-93515000D01*
X132548061Y-93515000D01*
X132391362Y-93546169D01*
X132333937Y-93460226D01*
X132189774Y-93316063D01*
X132020256Y-93202795D01*
X131831898Y-93124774D01*
X131631939Y-93085000D01*
X131428061Y-93085000D01*
X131228102Y-93124774D01*
X131039744Y-93202795D01*
X130870226Y-93316063D01*
X130726063Y-93460226D01*
X130612795Y-93629744D01*
X130564056Y-93747410D01*
X130551939Y-93745000D01*
X130348061Y-93745000D01*
X130148102Y-93784774D01*
X129959744Y-93862795D01*
X129790226Y-93976063D01*
X129646063Y-94120226D01*
X129532795Y-94289744D01*
X129454774Y-94478102D01*
X129415000Y-94678061D01*
X129415000Y-94881939D01*
X129454774Y-95081898D01*
X129532795Y-95270256D01*
X129559833Y-95310721D01*
X129544621Y-95325932D01*
X129517205Y-95259744D01*
X129403937Y-95090226D01*
X129259774Y-94946063D01*
X129090256Y-94832795D01*
X128901898Y-94754774D01*
X128830025Y-94740478D01*
X128830025Y-94683036D01*
X128790251Y-94483077D01*
X128712230Y-94294719D01*
X128598962Y-94125201D01*
X128454799Y-93981038D01*
X128285281Y-93867770D01*
X128096923Y-93789749D01*
X127896964Y-93749975D01*
X127693086Y-93749975D01*
X127493127Y-93789749D01*
X127304769Y-93867770D01*
X127135251Y-93981038D01*
X126991088Y-94125201D01*
X126877820Y-94294719D01*
X126799799Y-94483077D01*
X126760025Y-94683036D01*
X126760025Y-94886914D01*
X126799799Y-95086873D01*
X126877820Y-95275231D01*
X126991088Y-95444749D01*
X127060025Y-95513686D01*
X127060026Y-96488910D01*
X127056469Y-96525025D01*
X127070660Y-96669110D01*
X127102460Y-96773937D01*
X127112689Y-96807658D01*
X127180939Y-96935345D01*
X127272788Y-97047263D01*
X127300833Y-97070279D01*
X127444990Y-97214436D01*
X127444991Y-100823879D01*
X127441434Y-100859994D01*
X127455625Y-101004079D01*
X127497654Y-101142627D01*
X127565904Y-101270314D01*
X127657753Y-101382232D01*
X127685798Y-101405248D01*
X133214804Y-106934255D01*
X133237820Y-106962300D01*
X133349738Y-107054149D01*
X133477425Y-107122399D01*
X133615973Y-107164427D01*
X133760058Y-107178618D01*
X133796163Y-107175062D01*
X153053833Y-107175062D01*
X153089938Y-107178618D01*
X153126043Y-107175062D01*
X153234023Y-107164427D01*
X153372571Y-107122399D01*
X153475000Y-107067650D01*
X153475000Y-107625752D01*
X153491423Y-107792499D01*
X153556324Y-108006447D01*
X153661717Y-108203623D01*
X153683364Y-108230000D01*
X123921478Y-108230000D01*
X124013400Y-108008081D01*
X124061894Y-107764286D01*
X124061894Y-107515714D01*
X124013400Y-107271919D01*
X123918276Y-107042269D01*
X123780177Y-106835589D01*
X123604411Y-106659823D01*
X123397731Y-106521724D01*
X123168081Y-106426600D01*
X122924286Y-106378106D01*
X122675714Y-106378106D01*
X122431919Y-106426600D01*
X122202269Y-106521724D01*
X121995589Y-106659823D01*
X121819823Y-106835589D01*
X121681724Y-107042269D01*
X121586600Y-107271919D01*
X121538106Y-107515714D01*
X121538106Y-107764286D01*
X121586600Y-108008081D01*
X121678522Y-108230000D01*
X119102279Y-108230000D01*
X118616106Y-108182330D01*
X118179503Y-108050512D01*
X117776814Y-107836399D01*
X117423387Y-107548150D01*
X117132673Y-107196739D01*
X116915760Y-106795564D01*
X116780894Y-106359886D01*
X116730000Y-105875664D01*
X116730000Y-105189033D01*
X117529545Y-105189033D01*
X117529545Y-105590967D01*
X117607958Y-105985179D01*
X117761772Y-106356518D01*
X117985075Y-106690714D01*
X118269286Y-106974925D01*
X118603482Y-107198228D01*
X118974821Y-107352042D01*
X119369033Y-107430455D01*
X119770967Y-107430455D01*
X120165179Y-107352042D01*
X120536518Y-107198228D01*
X120870714Y-106974925D01*
X121154925Y-106690714D01*
X121378228Y-106356518D01*
X121532042Y-105985179D01*
X121610455Y-105590967D01*
X121610455Y-105189033D01*
X121532042Y-104794821D01*
X121378228Y-104423482D01*
X121154925Y-104089286D01*
X120870714Y-103805075D01*
X120583459Y-103613137D01*
X126550000Y-103613137D01*
X126550000Y-103826863D01*
X126591696Y-104036483D01*
X126673485Y-104233940D01*
X126792225Y-104411647D01*
X126943353Y-104562775D01*
X127121060Y-104681515D01*
X127318517Y-104763304D01*
X127528137Y-104805000D01*
X127741863Y-104805000D01*
X127951483Y-104763304D01*
X128148940Y-104681515D01*
X128326647Y-104562775D01*
X128477775Y-104411647D01*
X128596515Y-104233940D01*
X128678304Y-104036483D01*
X128720000Y-103826863D01*
X128720000Y-103613137D01*
X128678304Y-103403517D01*
X128596515Y-103206060D01*
X128477775Y-103028353D01*
X128326647Y-102877225D01*
X128148940Y-102758485D01*
X127951483Y-102676696D01*
X127741863Y-102635000D01*
X127528137Y-102635000D01*
X127318517Y-102676696D01*
X127121060Y-102758485D01*
X126943353Y-102877225D01*
X126792225Y-103028353D01*
X126673485Y-103206060D01*
X126591696Y-103403517D01*
X126550000Y-103613137D01*
X120583459Y-103613137D01*
X120536518Y-103581772D01*
X120165179Y-103427958D01*
X119770967Y-103349545D01*
X119369033Y-103349545D01*
X118974821Y-103427958D01*
X118603482Y-103581772D01*
X118269286Y-103805075D01*
X117985075Y-104089286D01*
X117761772Y-104423482D01*
X117607958Y-104794821D01*
X117529545Y-105189033D01*
X116730000Y-105189033D01*
X116730000Y-98845000D01*
X116904476Y-98845000D01*
X117099606Y-98806186D01*
X117283414Y-98730050D01*
X117448837Y-98619518D01*
X117589518Y-98478837D01*
X117700050Y-98313414D01*
X117776186Y-98129606D01*
X117815000Y-97934476D01*
X117815000Y-97735524D01*
X118545000Y-97735524D01*
X118545000Y-97934476D01*
X118583814Y-98129606D01*
X118659950Y-98313414D01*
X118770482Y-98478837D01*
X118911163Y-98619518D01*
X119076586Y-98730050D01*
X119260394Y-98806186D01*
X119455524Y-98845000D01*
X119654476Y-98845000D01*
X119849606Y-98806186D01*
X120033414Y-98730050D01*
X120198837Y-98619518D01*
X120339518Y-98478837D01*
X120450050Y-98313414D01*
X120526186Y-98129606D01*
X120565000Y-97934476D01*
X120565000Y-97735524D01*
X120526186Y-97540394D01*
X120450050Y-97356586D01*
X120339518Y-97191163D01*
X120198837Y-97050482D01*
X120033414Y-96939950D01*
X119849606Y-96863814D01*
X119654476Y-96825000D01*
X119455524Y-96825000D01*
X119260394Y-96863814D01*
X119076586Y-96939950D01*
X118911163Y-97050482D01*
X118770482Y-97191163D01*
X118659950Y-97356586D01*
X118583814Y-97540394D01*
X118545000Y-97735524D01*
X117815000Y-97735524D01*
X117776186Y-97540394D01*
X117700050Y-97356586D01*
X117589518Y-97191163D01*
X117448837Y-97050482D01*
X117283414Y-96939950D01*
X117099606Y-96863814D01*
X116904476Y-96825000D01*
X116730000Y-96825000D01*
X116730000Y-90910000D01*
X116904476Y-90910000D01*
X117099606Y-90871186D01*
X117283414Y-90795050D01*
X117448837Y-90684518D01*
X117589518Y-90543837D01*
X117700050Y-90378414D01*
X117776186Y-90194606D01*
X117815000Y-89999476D01*
X117815000Y-89800524D01*
X118545000Y-89800524D01*
X118545000Y-89999476D01*
X118583814Y-90194606D01*
X118659950Y-90378414D01*
X118770482Y-90543837D01*
X118911163Y-90684518D01*
X119076586Y-90795050D01*
X119260394Y-90871186D01*
X119455524Y-90910000D01*
X119654476Y-90910000D01*
X119849606Y-90871186D01*
X120033414Y-90795050D01*
X120198837Y-90684518D01*
X120339518Y-90543837D01*
X120450050Y-90378414D01*
X120526186Y-90194606D01*
X120565000Y-89999476D01*
X120565000Y-89800524D01*
X120526186Y-89605394D01*
X120450050Y-89421586D01*
X120339518Y-89256163D01*
X120198837Y-89115482D01*
X120033414Y-89004950D01*
X119849606Y-88928814D01*
X119654476Y-88890000D01*
X119455524Y-88890000D01*
X119260394Y-88928814D01*
X119076586Y-89004950D01*
X118911163Y-89115482D01*
X118770482Y-89256163D01*
X118659950Y-89421586D01*
X118583814Y-89605394D01*
X118545000Y-89800524D01*
X117815000Y-89800524D01*
X117776186Y-89605394D01*
X117700050Y-89421586D01*
X117589518Y-89256163D01*
X117448837Y-89115482D01*
X117283414Y-89004950D01*
X117099606Y-88928814D01*
X116904476Y-88890000D01*
X116730000Y-88890000D01*
X116730000Y-82189033D01*
X117529545Y-82189033D01*
X117529545Y-82590967D01*
X117607958Y-82985179D01*
X117761772Y-83356518D01*
X117985075Y-83690714D01*
X118269286Y-83974925D01*
X118603482Y-84198228D01*
X118974821Y-84352042D01*
X119369033Y-84430455D01*
X119770967Y-84430455D01*
X120165179Y-84352042D01*
X120536518Y-84198228D01*
X120870714Y-83974925D01*
X121154925Y-83690714D01*
X121378228Y-83356518D01*
X121532042Y-82985179D01*
X121610455Y-82590967D01*
X121610455Y-82189033D01*
X121532042Y-81794821D01*
X121378228Y-81423482D01*
X121154925Y-81089286D01*
X120870714Y-80805075D01*
X120536518Y-80581772D01*
X120165179Y-80427958D01*
X119770967Y-80349545D01*
X119369033Y-80349545D01*
X118974821Y-80427958D01*
X118603482Y-80581772D01*
X118269286Y-80805075D01*
X117985075Y-81089286D01*
X117761772Y-81423482D01*
X117607958Y-81794821D01*
X117529545Y-82189033D01*
X116730000Y-82189033D01*
X116730000Y-81922279D01*
X116777670Y-81436107D01*
X116909489Y-80999502D01*
X117123600Y-80596815D01*
X117411848Y-80243388D01*
X117763261Y-79952673D01*
X118164439Y-79735758D01*
X118600113Y-79600894D01*
X119084344Y-79550000D01*
X130718554Y-79550000D01*
X130425998Y-79842556D01*
G37*
%TD.AperFunction*%
D18*
X131846063Y-95209774D02*
X131915000Y-95278711D01*
X131915001Y-96053895D01*
X131911444Y-96090010D01*
X131925635Y-96234095D01*
X131964631Y-96362644D01*
X131967664Y-96372643D01*
X132035914Y-96500330D01*
X132127763Y-96612248D01*
X132155808Y-96635264D01*
X132614990Y-97094447D01*
X132614991Y-99413875D01*
X132611434Y-99449990D01*
X132625625Y-99594075D01*
X132654802Y-99690256D01*
X132667654Y-99732623D01*
X132735904Y-99860310D01*
X132827753Y-99972228D01*
X132855798Y-99995244D01*
X135414724Y-102554171D01*
X135437740Y-102582216D01*
X135507145Y-102639176D01*
X135318517Y-102676696D01*
X135121060Y-102758485D01*
X134943353Y-102877225D01*
X134792225Y-103028353D01*
X134673485Y-103206060D01*
X134591696Y-103403517D01*
X134550000Y-103613137D01*
X134550000Y-103826863D01*
X134591696Y-104036483D01*
X134673485Y-104233940D01*
X134792225Y-104411647D01*
X134943353Y-104562775D01*
X135121060Y-104681515D01*
X135318517Y-104763304D01*
X135528137Y-104805000D01*
X135741863Y-104805000D01*
X135951483Y-104763304D01*
X136148940Y-104681515D01*
X136326647Y-104562775D01*
X136477775Y-104411647D01*
X136596515Y-104233940D01*
X136678304Y-104036483D01*
X136720000Y-103826863D01*
X136720000Y-103613137D01*
X136678304Y-103403517D01*
X136596515Y-103206060D01*
X136477775Y-103028353D01*
X136326647Y-102877225D01*
X136203556Y-102794978D01*
X149092661Y-102794978D01*
X149082795Y-102809744D01*
X149004774Y-102998102D01*
X148965000Y-103198061D01*
X148965000Y-103401939D01*
X149004774Y-103601898D01*
X149082795Y-103790256D01*
X149196063Y-103959774D01*
X149340226Y-104103937D01*
X149509744Y-104217205D01*
X149698102Y-104295226D01*
X149898061Y-104335000D01*
X150101939Y-104335000D01*
X150301898Y-104295226D01*
X150490256Y-104217205D01*
X150659774Y-104103937D01*
X150803937Y-103959774D01*
X150892334Y-103827478D01*
X151240572Y-104175717D01*
X151166063Y-104250226D01*
X151052795Y-104419744D01*
X150974774Y-104608102D01*
X150935000Y-104808061D01*
X150935000Y-104905040D01*
X148965000Y-104905040D01*
X148965000Y-104718061D01*
X148925226Y-104518102D01*
X148847205Y-104329744D01*
X148733937Y-104160226D01*
X148589774Y-104016063D01*
X148420256Y-103902795D01*
X148231898Y-103824774D01*
X148031939Y-103785000D01*
X147828061Y-103785000D01*
X147628102Y-103824774D01*
X147439744Y-103902795D01*
X147270226Y-104016063D01*
X147126063Y-104160226D01*
X147012795Y-104329744D01*
X146934774Y-104518102D01*
X146895000Y-104718061D01*
X146895000Y-104905040D01*
X134395883Y-104905040D01*
X129745000Y-100254158D01*
X129745000Y-97204446D01*
X130944193Y-96005254D01*
X130972238Y-95982238D01*
X131064087Y-95870320D01*
X131090997Y-95819975D01*
X131132337Y-95742634D01*
X131174365Y-95604085D01*
X131183623Y-95510088D01*
X131253937Y-95439774D01*
X131367205Y-95270256D01*
X131415944Y-95152590D01*
X131428061Y-95155000D01*
X131631939Y-95155000D01*
X131788638Y-95123831D01*
X131846063Y-95209774D01*
%TA.AperFunction,Conductor*%
D19*
G36*
X131846063Y-95209774D02*
G01*
X131915000Y-95278711D01*
X131915001Y-96053895D01*
X131911444Y-96090010D01*
X131925635Y-96234095D01*
X131964631Y-96362644D01*
X131967664Y-96372643D01*
X132035914Y-96500330D01*
X132127763Y-96612248D01*
X132155808Y-96635264D01*
X132614990Y-97094447D01*
X132614991Y-99413875D01*
X132611434Y-99449990D01*
X132625625Y-99594075D01*
X132654802Y-99690256D01*
X132667654Y-99732623D01*
X132735904Y-99860310D01*
X132827753Y-99972228D01*
X132855798Y-99995244D01*
X135414724Y-102554171D01*
X135437740Y-102582216D01*
X135507145Y-102639176D01*
X135318517Y-102676696D01*
X135121060Y-102758485D01*
X134943353Y-102877225D01*
X134792225Y-103028353D01*
X134673485Y-103206060D01*
X134591696Y-103403517D01*
X134550000Y-103613137D01*
X134550000Y-103826863D01*
X134591696Y-104036483D01*
X134673485Y-104233940D01*
X134792225Y-104411647D01*
X134943353Y-104562775D01*
X135121060Y-104681515D01*
X135318517Y-104763304D01*
X135528137Y-104805000D01*
X135741863Y-104805000D01*
X135951483Y-104763304D01*
X136148940Y-104681515D01*
X136326647Y-104562775D01*
X136477775Y-104411647D01*
X136596515Y-104233940D01*
X136678304Y-104036483D01*
X136720000Y-103826863D01*
X136720000Y-103613137D01*
X136678304Y-103403517D01*
X136596515Y-103206060D01*
X136477775Y-103028353D01*
X136326647Y-102877225D01*
X136203556Y-102794978D01*
X149092661Y-102794978D01*
X149082795Y-102809744D01*
X149004774Y-102998102D01*
X148965000Y-103198061D01*
X148965000Y-103401939D01*
X149004774Y-103601898D01*
X149082795Y-103790256D01*
X149196063Y-103959774D01*
X149340226Y-104103937D01*
X149509744Y-104217205D01*
X149698102Y-104295226D01*
X149898061Y-104335000D01*
X150101939Y-104335000D01*
X150301898Y-104295226D01*
X150490256Y-104217205D01*
X150659774Y-104103937D01*
X150803937Y-103959774D01*
X150892334Y-103827478D01*
X151240572Y-104175717D01*
X151166063Y-104250226D01*
X151052795Y-104419744D01*
X150974774Y-104608102D01*
X150935000Y-104808061D01*
X150935000Y-104905040D01*
X148965000Y-104905040D01*
X148965000Y-104718061D01*
X148925226Y-104518102D01*
X148847205Y-104329744D01*
X148733937Y-104160226D01*
X148589774Y-104016063D01*
X148420256Y-103902795D01*
X148231898Y-103824774D01*
X148031939Y-103785000D01*
X147828061Y-103785000D01*
X147628102Y-103824774D01*
X147439744Y-103902795D01*
X147270226Y-104016063D01*
X147126063Y-104160226D01*
X147012795Y-104329744D01*
X146934774Y-104518102D01*
X146895000Y-104718061D01*
X146895000Y-104905040D01*
X134395883Y-104905040D01*
X129745000Y-100254158D01*
X129745000Y-97204446D01*
X130944193Y-96005254D01*
X130972238Y-95982238D01*
X131064087Y-95870320D01*
X131090997Y-95819975D01*
X131132337Y-95742634D01*
X131174365Y-95604085D01*
X131183623Y-95510088D01*
X131253937Y-95439774D01*
X131367205Y-95270256D01*
X131415944Y-95152590D01*
X131428061Y-95155000D01*
X131631939Y-95155000D01*
X131788638Y-95123831D01*
X131846063Y-95209774D01*
G37*
%TD.AperFunction*%
D18*
X174135000Y-89061939D02*
X174174774Y-89261898D01*
X174252795Y-89450256D01*
X174366063Y-89619774D01*
X174435000Y-89688711D01*
X174435000Y-90083894D01*
X174431444Y-90120000D01*
X174445635Y-90264085D01*
X174455291Y-90295915D01*
X174487663Y-90402632D01*
X174555913Y-90530319D01*
X174647762Y-90642237D01*
X174675808Y-90665254D01*
X175395001Y-91384448D01*
X175395001Y-91415000D01*
X175328061Y-91415000D01*
X175128102Y-91454774D01*
X174939744Y-91532795D01*
X174770226Y-91646063D01*
X174626063Y-91790226D01*
X174512795Y-91959744D01*
X174434774Y-92148102D01*
X174423456Y-92205000D01*
X174248059Y-92205000D01*
X174048100Y-92244774D01*
X173859742Y-92322795D01*
X173690224Y-92436063D01*
X173546061Y-92580226D01*
X173432793Y-92749744D01*
X173354772Y-92938102D01*
X173314998Y-93138061D01*
X173314998Y-93341939D01*
X173354772Y-93541898D01*
X173432793Y-93730256D01*
X173546061Y-93899774D01*
X173690224Y-94043937D01*
X173859742Y-94157205D01*
X174048100Y-94235226D01*
X174248059Y-94275000D01*
X174345551Y-94275000D01*
X174485001Y-94414450D01*
X174485000Y-99529853D01*
X172333957Y-101680896D01*
X172267205Y-101519744D01*
X172153937Y-101350226D01*
X172009774Y-101206063D01*
X171840256Y-101092795D01*
X171651898Y-101014774D01*
X171451939Y-100975000D01*
X171248061Y-100975000D01*
X171048102Y-101014774D01*
X170859744Y-101092795D01*
X170690226Y-101206063D01*
X170546063Y-101350226D01*
X170432795Y-101519744D01*
X170354774Y-101708102D01*
X170315000Y-101908061D01*
X170315000Y-102111939D01*
X170354774Y-102311898D01*
X170432795Y-102500256D01*
X170546063Y-102669774D01*
X170690226Y-102813937D01*
X170859744Y-102927205D01*
X171020897Y-102993957D01*
X170279854Y-103735000D01*
X164381134Y-103735000D01*
X164385000Y-103695752D01*
X164385000Y-102484248D01*
X164368577Y-102317501D01*
X164303676Y-102103553D01*
X164198284Y-101906377D01*
X164056449Y-101733551D01*
X163883623Y-101591716D01*
X163686446Y-101486324D01*
X163472498Y-101421423D01*
X163407487Y-101415020D01*
X165929877Y-101415020D01*
X165965982Y-101418576D01*
X166002087Y-101415020D01*
X166110067Y-101404385D01*
X166248615Y-101362357D01*
X166376302Y-101294107D01*
X166488220Y-101202258D01*
X166511241Y-101174207D01*
X172614190Y-95071259D01*
X172642235Y-95048243D01*
X172734084Y-94936325D01*
X172802334Y-94808638D01*
X172844362Y-94670090D01*
X172854997Y-94562110D01*
X172854997Y-94562101D01*
X172858552Y-94526006D01*
X172854997Y-94489911D01*
X172854997Y-89944449D01*
X173455069Y-89344377D01*
X173651898Y-89305226D01*
X173840256Y-89227205D01*
X174009774Y-89113937D01*
X174135000Y-88988711D01*
X174135000Y-89061939D01*
%TA.AperFunction,Conductor*%
D19*
G36*
X174135000Y-89061939D02*
G01*
X174174774Y-89261898D01*
X174252795Y-89450256D01*
X174366063Y-89619774D01*
X174435000Y-89688711D01*
X174435000Y-90083894D01*
X174431444Y-90120000D01*
X174445635Y-90264085D01*
X174455291Y-90295915D01*
X174487663Y-90402632D01*
X174555913Y-90530319D01*
X174647762Y-90642237D01*
X174675808Y-90665254D01*
X175395001Y-91384448D01*
X175395001Y-91415000D01*
X175328061Y-91415000D01*
X175128102Y-91454774D01*
X174939744Y-91532795D01*
X174770226Y-91646063D01*
X174626063Y-91790226D01*
X174512795Y-91959744D01*
X174434774Y-92148102D01*
X174423456Y-92205000D01*
X174248059Y-92205000D01*
X174048100Y-92244774D01*
X173859742Y-92322795D01*
X173690224Y-92436063D01*
X173546061Y-92580226D01*
X173432793Y-92749744D01*
X173354772Y-92938102D01*
X173314998Y-93138061D01*
X173314998Y-93341939D01*
X173354772Y-93541898D01*
X173432793Y-93730256D01*
X173546061Y-93899774D01*
X173690224Y-94043937D01*
X173859742Y-94157205D01*
X174048100Y-94235226D01*
X174248059Y-94275000D01*
X174345551Y-94275000D01*
X174485001Y-94414450D01*
X174485000Y-99529853D01*
X172333957Y-101680896D01*
X172267205Y-101519744D01*
X172153937Y-101350226D01*
X172009774Y-101206063D01*
X171840256Y-101092795D01*
X171651898Y-101014774D01*
X171451939Y-100975000D01*
X171248061Y-100975000D01*
X171048102Y-101014774D01*
X170859744Y-101092795D01*
X170690226Y-101206063D01*
X170546063Y-101350226D01*
X170432795Y-101519744D01*
X170354774Y-101708102D01*
X170315000Y-101908061D01*
X170315000Y-102111939D01*
X170354774Y-102311898D01*
X170432795Y-102500256D01*
X170546063Y-102669774D01*
X170690226Y-102813937D01*
X170859744Y-102927205D01*
X171020897Y-102993957D01*
X170279854Y-103735000D01*
X164381134Y-103735000D01*
X164385000Y-103695752D01*
X164385000Y-102484248D01*
X164368577Y-102317501D01*
X164303676Y-102103553D01*
X164198284Y-101906377D01*
X164056449Y-101733551D01*
X163883623Y-101591716D01*
X163686446Y-101486324D01*
X163472498Y-101421423D01*
X163407487Y-101415020D01*
X165929877Y-101415020D01*
X165965982Y-101418576D01*
X166002087Y-101415020D01*
X166110067Y-101404385D01*
X166248615Y-101362357D01*
X166376302Y-101294107D01*
X166488220Y-101202258D01*
X166511241Y-101174207D01*
X172614190Y-95071259D01*
X172642235Y-95048243D01*
X172734084Y-94936325D01*
X172802334Y-94808638D01*
X172844362Y-94670090D01*
X172854997Y-94562110D01*
X172854997Y-94562101D01*
X172858552Y-94526006D01*
X172854997Y-94489911D01*
X172854997Y-89944449D01*
X173455069Y-89344377D01*
X173651898Y-89305226D01*
X173840256Y-89227205D01*
X174009774Y-89113937D01*
X174135000Y-88988711D01*
X174135000Y-89061939D01*
G37*
%TD.AperFunction*%
D18*
X163027501Y-101421423D02*
X162813553Y-101486324D01*
X162616377Y-101591716D01*
X162443551Y-101733551D01*
X162301716Y-101906377D01*
X162196324Y-102103554D01*
X162131423Y-102317502D01*
X162115000Y-102484249D01*
X162115000Y-102703096D01*
X162100022Y-102696892D01*
X161914552Y-102660000D01*
X161725448Y-102660000D01*
X161539978Y-102696892D01*
X161365269Y-102769259D01*
X161208036Y-102874319D01*
X161074319Y-103008036D01*
X160969259Y-103165269D01*
X160896892Y-103339978D01*
X160860000Y-103525448D01*
X160860000Y-103714552D01*
X160864067Y-103735000D01*
X156995933Y-103735000D01*
X157000000Y-103714552D01*
X157000000Y-103525448D01*
X156963108Y-103339978D01*
X156890741Y-103165269D01*
X156785681Y-103008036D01*
X156651964Y-102874319D01*
X156494731Y-102769259D01*
X156320022Y-102696892D01*
X156134552Y-102660000D01*
X155945448Y-102660000D01*
X155759978Y-102696892D01*
X155745000Y-102703096D01*
X155745000Y-102484248D01*
X155728577Y-102317501D01*
X155663676Y-102103553D01*
X155589618Y-101964999D01*
X161019594Y-101964999D01*
X161055699Y-101968555D01*
X161091804Y-101964999D01*
X161199784Y-101954364D01*
X161338332Y-101912336D01*
X161466019Y-101844086D01*
X161577937Y-101752237D01*
X161600957Y-101724187D01*
X161910125Y-101415020D01*
X163092512Y-101415020D01*
X163027501Y-101421423D01*
%TA.AperFunction,Conductor*%
D19*
G36*
X163027501Y-101421423D02*
G01*
X162813553Y-101486324D01*
X162616377Y-101591716D01*
X162443551Y-101733551D01*
X162301716Y-101906377D01*
X162196324Y-102103554D01*
X162131423Y-102317502D01*
X162115000Y-102484249D01*
X162115000Y-102703096D01*
X162100022Y-102696892D01*
X161914552Y-102660000D01*
X161725448Y-102660000D01*
X161539978Y-102696892D01*
X161365269Y-102769259D01*
X161208036Y-102874319D01*
X161074319Y-103008036D01*
X160969259Y-103165269D01*
X160896892Y-103339978D01*
X160860000Y-103525448D01*
X160860000Y-103714552D01*
X160864067Y-103735000D01*
X156995933Y-103735000D01*
X157000000Y-103714552D01*
X157000000Y-103525448D01*
X156963108Y-103339978D01*
X156890741Y-103165269D01*
X156785681Y-103008036D01*
X156651964Y-102874319D01*
X156494731Y-102769259D01*
X156320022Y-102696892D01*
X156134552Y-102660000D01*
X155945448Y-102660000D01*
X155759978Y-102696892D01*
X155745000Y-102703096D01*
X155745000Y-102484248D01*
X155728577Y-102317501D01*
X155663676Y-102103553D01*
X155589618Y-101964999D01*
X161019594Y-101964999D01*
X161055699Y-101968555D01*
X161091804Y-101964999D01*
X161199784Y-101954364D01*
X161338332Y-101912336D01*
X161466019Y-101844086D01*
X161577937Y-101752237D01*
X161600957Y-101724187D01*
X161910125Y-101415020D01*
X163092512Y-101415020D01*
X163027501Y-101421423D01*
G37*
%TD.AperFunction*%
D18*
X153556324Y-102103554D02*
X153491423Y-102317502D01*
X153475000Y-102484249D01*
X153475000Y-103695752D01*
X153478866Y-103735000D01*
X153444447Y-103735000D01*
X152346579Y-102637132D01*
X152393937Y-102589774D01*
X152507205Y-102420256D01*
X152585226Y-102231898D01*
X152625000Y-102031939D01*
X152625000Y-101964999D01*
X153630382Y-101964999D01*
X153556324Y-102103554D01*
%TA.AperFunction,Conductor*%
D19*
G36*
X153556324Y-102103554D02*
G01*
X153491423Y-102317502D01*
X153475000Y-102484249D01*
X153475000Y-103695752D01*
X153478866Y-103735000D01*
X153444447Y-103735000D01*
X152346579Y-102637132D01*
X152393937Y-102589774D01*
X152507205Y-102420256D01*
X152585226Y-102231898D01*
X152625000Y-102031939D01*
X152625000Y-101964999D01*
X153630382Y-101964999D01*
X153556324Y-102103554D01*
G37*
%TD.AperFunction*%
D18*
X134885000Y-89758061D02*
X134885000Y-89961939D01*
X134924774Y-90161898D01*
X135002795Y-90350256D01*
X135116063Y-90519774D01*
X135185001Y-90588712D01*
X135185000Y-91323895D01*
X135181444Y-91360000D01*
X135189353Y-91440298D01*
X135195635Y-91504084D01*
X135237663Y-91642632D01*
X135305913Y-91770319D01*
X135397762Y-91882237D01*
X135425808Y-91905254D01*
X136894747Y-93374194D01*
X136917763Y-93402239D01*
X137029681Y-93494088D01*
X137157368Y-93562338D01*
X137253887Y-93591617D01*
X137295915Y-93604366D01*
X137440000Y-93618557D01*
X137476105Y-93615001D01*
X139243894Y-93615001D01*
X139279999Y-93618557D01*
X139316104Y-93615001D01*
X139424084Y-93604366D01*
X139562632Y-93562338D01*
X139690319Y-93494088D01*
X139802237Y-93402239D01*
X139825257Y-93374189D01*
X140634447Y-92565000D01*
X154251556Y-92565000D01*
X155005001Y-93318446D01*
X155005000Y-94393893D01*
X155005000Y-94646104D01*
X155005001Y-94646114D01*
X155005000Y-96745293D01*
X155001444Y-96781398D01*
X155006033Y-96827990D01*
X154893937Y-96660226D01*
X154749774Y-96516063D01*
X154580256Y-96402795D01*
X154391898Y-96324774D01*
X154191939Y-96285000D01*
X153988061Y-96285000D01*
X153788102Y-96324774D01*
X153599744Y-96402795D01*
X153430226Y-96516063D01*
X153286063Y-96660226D01*
X153172795Y-96829744D01*
X153094774Y-97018102D01*
X153055000Y-97218061D01*
X153055000Y-97421939D01*
X153094774Y-97621898D01*
X153172795Y-97810256D01*
X153286063Y-97979774D01*
X153430226Y-98123937D01*
X153599744Y-98237205D01*
X153788102Y-98315226D01*
X153988061Y-98355000D01*
X154191939Y-98355000D01*
X154391898Y-98315226D01*
X154580256Y-98237205D01*
X154749774Y-98123937D01*
X154893937Y-97979774D01*
X155007205Y-97810256D01*
X155085226Y-97621898D01*
X155125000Y-97421939D01*
X155125000Y-97218061D01*
X155116113Y-97173382D01*
X155125913Y-97191717D01*
X155217762Y-97303635D01*
X155245808Y-97326652D01*
X156053369Y-98134214D01*
X156076385Y-98162259D01*
X156188303Y-98254108D01*
X156315990Y-98322358D01*
X156454538Y-98364386D01*
X156562518Y-98375021D01*
X156562527Y-98375021D01*
X156598622Y-98378576D01*
X156634717Y-98375021D01*
X158930903Y-98375021D01*
X158904774Y-98438102D01*
X158865000Y-98638061D01*
X158865000Y-98841939D01*
X158904774Y-99041898D01*
X158982795Y-99230256D01*
X159096063Y-99399774D01*
X159240226Y-99543937D01*
X159409744Y-99657205D01*
X159598102Y-99735226D01*
X159798061Y-99775000D01*
X160001939Y-99775000D01*
X160201898Y-99735226D01*
X160390256Y-99657205D01*
X160559774Y-99543937D01*
X160703937Y-99399774D01*
X160817205Y-99230256D01*
X160895000Y-99042444D01*
X160895000Y-99133895D01*
X160891444Y-99170000D01*
X160900891Y-99265913D01*
X160905635Y-99314084D01*
X160947663Y-99452632D01*
X161015913Y-99580319D01*
X161068940Y-99644933D01*
X161029670Y-99665923D01*
X160917752Y-99757772D01*
X160894736Y-99785817D01*
X160615554Y-100065000D01*
X155663488Y-100065000D01*
X155799774Y-99973937D01*
X155943937Y-99829774D01*
X156057205Y-99660256D01*
X156135226Y-99471898D01*
X156175000Y-99271939D01*
X156175000Y-99068061D01*
X156135226Y-98868102D01*
X156057205Y-98679744D01*
X155943937Y-98510226D01*
X155799774Y-98366063D01*
X155630256Y-98252795D01*
X155441898Y-98174774D01*
X155241939Y-98135000D01*
X155038061Y-98135000D01*
X154838102Y-98174774D01*
X154649744Y-98252795D01*
X154480226Y-98366063D01*
X154336063Y-98510226D01*
X154222795Y-98679744D01*
X154144774Y-98868102D01*
X154105000Y-99068061D01*
X154105000Y-99271939D01*
X154144774Y-99471898D01*
X154222795Y-99660256D01*
X154336063Y-99829774D01*
X154480226Y-99973937D01*
X154616512Y-100065000D01*
X153595000Y-100065000D01*
X153595000Y-99998051D01*
X153555226Y-99798092D01*
X153477205Y-99609734D01*
X153363937Y-99440216D01*
X153219774Y-99296053D01*
X153050256Y-99182785D01*
X152861898Y-99104764D01*
X152661939Y-99064990D01*
X152458061Y-99064990D01*
X152258102Y-99104764D01*
X152069744Y-99182785D01*
X151900226Y-99296053D01*
X151756063Y-99440216D01*
X151642795Y-99609734D01*
X151564774Y-99798092D01*
X151525000Y-99998051D01*
X151525000Y-100065000D01*
X144928387Y-100065000D01*
X145019774Y-100003937D01*
X145163937Y-99859774D01*
X145277205Y-99690256D01*
X145355226Y-99501898D01*
X145395000Y-99301939D01*
X145395000Y-99098061D01*
X145355226Y-98898102D01*
X145277205Y-98709744D01*
X145256036Y-98678061D01*
X148585000Y-98678061D01*
X148585000Y-98881939D01*
X148624774Y-99081898D01*
X148702795Y-99270256D01*
X148816063Y-99439774D01*
X148960226Y-99583937D01*
X149129744Y-99697205D01*
X149318102Y-99775226D01*
X149518061Y-99815000D01*
X149721939Y-99815000D01*
X149921898Y-99775226D01*
X150110256Y-99697205D01*
X150279774Y-99583937D01*
X150423937Y-99439774D01*
X150537205Y-99270256D01*
X150615226Y-99081898D01*
X150655000Y-98881939D01*
X150655000Y-98678061D01*
X150615226Y-98478102D01*
X150537205Y-98289744D01*
X150423937Y-98120226D01*
X150279774Y-97976063D01*
X150110256Y-97862795D01*
X149921898Y-97784774D01*
X149721939Y-97745000D01*
X149518061Y-97745000D01*
X149318102Y-97784774D01*
X149129744Y-97862795D01*
X148960226Y-97976063D01*
X148816063Y-98120226D01*
X148702795Y-98289744D01*
X148624774Y-98478102D01*
X148585000Y-98678061D01*
X145256036Y-98678061D01*
X145163937Y-98540226D01*
X145019774Y-98396063D01*
X144850256Y-98282795D01*
X144661898Y-98204774D01*
X144461939Y-98165000D01*
X144258061Y-98165000D01*
X144058102Y-98204774D01*
X143869744Y-98282795D01*
X143700226Y-98396063D01*
X143556063Y-98540226D01*
X143442795Y-98709744D01*
X143364774Y-98898102D01*
X143325000Y-99098061D01*
X143325000Y-99301939D01*
X143364774Y-99501898D01*
X143442795Y-99690256D01*
X143556063Y-99859774D01*
X143700226Y-100003937D01*
X143791613Y-100065000D01*
X137104447Y-100065000D01*
X136405000Y-99365554D01*
X136405000Y-93876105D01*
X136408556Y-93840000D01*
X136394365Y-93695915D01*
X136383590Y-93660395D01*
X136352337Y-93557367D01*
X136284087Y-93429680D01*
X136236295Y-93371446D01*
X136215253Y-93345806D01*
X136215250Y-93345803D01*
X136192237Y-93317762D01*
X136164197Y-93294750D01*
X134565000Y-91695554D01*
X134565000Y-89956105D01*
X134568556Y-89920000D01*
X134554365Y-89775915D01*
X134514653Y-89645000D01*
X134907489Y-89645000D01*
X134885000Y-89758061D01*
%TA.AperFunction,Conductor*%
D19*
G36*
X134885000Y-89758061D02*
G01*
X134885000Y-89961939D01*
X134924774Y-90161898D01*
X135002795Y-90350256D01*
X135116063Y-90519774D01*
X135185001Y-90588712D01*
X135185000Y-91323895D01*
X135181444Y-91360000D01*
X135189353Y-91440298D01*
X135195635Y-91504084D01*
X135237663Y-91642632D01*
X135305913Y-91770319D01*
X135397762Y-91882237D01*
X135425808Y-91905254D01*
X136894747Y-93374194D01*
X136917763Y-93402239D01*
X137029681Y-93494088D01*
X137157368Y-93562338D01*
X137253887Y-93591617D01*
X137295915Y-93604366D01*
X137440000Y-93618557D01*
X137476105Y-93615001D01*
X139243894Y-93615001D01*
X139279999Y-93618557D01*
X139316104Y-93615001D01*
X139424084Y-93604366D01*
X139562632Y-93562338D01*
X139690319Y-93494088D01*
X139802237Y-93402239D01*
X139825257Y-93374189D01*
X140634447Y-92565000D01*
X154251556Y-92565000D01*
X155005001Y-93318446D01*
X155005000Y-94393893D01*
X155005000Y-94646104D01*
X155005001Y-94646114D01*
X155005000Y-96745293D01*
X155001444Y-96781398D01*
X155006033Y-96827990D01*
X154893937Y-96660226D01*
X154749774Y-96516063D01*
X154580256Y-96402795D01*
X154391898Y-96324774D01*
X154191939Y-96285000D01*
X153988061Y-96285000D01*
X153788102Y-96324774D01*
X153599744Y-96402795D01*
X153430226Y-96516063D01*
X153286063Y-96660226D01*
X153172795Y-96829744D01*
X153094774Y-97018102D01*
X153055000Y-97218061D01*
X153055000Y-97421939D01*
X153094774Y-97621898D01*
X153172795Y-97810256D01*
X153286063Y-97979774D01*
X153430226Y-98123937D01*
X153599744Y-98237205D01*
X153788102Y-98315226D01*
X153988061Y-98355000D01*
X154191939Y-98355000D01*
X154391898Y-98315226D01*
X154580256Y-98237205D01*
X154749774Y-98123937D01*
X154893937Y-97979774D01*
X155007205Y-97810256D01*
X155085226Y-97621898D01*
X155125000Y-97421939D01*
X155125000Y-97218061D01*
X155116113Y-97173382D01*
X155125913Y-97191717D01*
X155217762Y-97303635D01*
X155245808Y-97326652D01*
X156053369Y-98134214D01*
X156076385Y-98162259D01*
X156188303Y-98254108D01*
X156315990Y-98322358D01*
X156454538Y-98364386D01*
X156562518Y-98375021D01*
X156562527Y-98375021D01*
X156598622Y-98378576D01*
X156634717Y-98375021D01*
X158930903Y-98375021D01*
X158904774Y-98438102D01*
X158865000Y-98638061D01*
X158865000Y-98841939D01*
X158904774Y-99041898D01*
X158982795Y-99230256D01*
X159096063Y-99399774D01*
X159240226Y-99543937D01*
X159409744Y-99657205D01*
X159598102Y-99735226D01*
X159798061Y-99775000D01*
X160001939Y-99775000D01*
X160201898Y-99735226D01*
X160390256Y-99657205D01*
X160559774Y-99543937D01*
X160703937Y-99399774D01*
X160817205Y-99230256D01*
X160895000Y-99042444D01*
X160895000Y-99133895D01*
X160891444Y-99170000D01*
X160900891Y-99265913D01*
X160905635Y-99314084D01*
X160947663Y-99452632D01*
X161015913Y-99580319D01*
X161068940Y-99644933D01*
X161029670Y-99665923D01*
X160917752Y-99757772D01*
X160894736Y-99785817D01*
X160615554Y-100065000D01*
X155663488Y-100065000D01*
X155799774Y-99973937D01*
X155943937Y-99829774D01*
X156057205Y-99660256D01*
X156135226Y-99471898D01*
X156175000Y-99271939D01*
X156175000Y-99068061D01*
X156135226Y-98868102D01*
X156057205Y-98679744D01*
X155943937Y-98510226D01*
X155799774Y-98366063D01*
X155630256Y-98252795D01*
X155441898Y-98174774D01*
X155241939Y-98135000D01*
X155038061Y-98135000D01*
X154838102Y-98174774D01*
X154649744Y-98252795D01*
X154480226Y-98366063D01*
X154336063Y-98510226D01*
X154222795Y-98679744D01*
X154144774Y-98868102D01*
X154105000Y-99068061D01*
X154105000Y-99271939D01*
X154144774Y-99471898D01*
X154222795Y-99660256D01*
X154336063Y-99829774D01*
X154480226Y-99973937D01*
X154616512Y-100065000D01*
X153595000Y-100065000D01*
X153595000Y-99998051D01*
X153555226Y-99798092D01*
X153477205Y-99609734D01*
X153363937Y-99440216D01*
X153219774Y-99296053D01*
X153050256Y-99182785D01*
X152861898Y-99104764D01*
X152661939Y-99064990D01*
X152458061Y-99064990D01*
X152258102Y-99104764D01*
X152069744Y-99182785D01*
X151900226Y-99296053D01*
X151756063Y-99440216D01*
X151642795Y-99609734D01*
X151564774Y-99798092D01*
X151525000Y-99998051D01*
X151525000Y-100065000D01*
X144928387Y-100065000D01*
X145019774Y-100003937D01*
X145163937Y-99859774D01*
X145277205Y-99690256D01*
X145355226Y-99501898D01*
X145395000Y-99301939D01*
X145395000Y-99098061D01*
X145355226Y-98898102D01*
X145277205Y-98709744D01*
X145256036Y-98678061D01*
X148585000Y-98678061D01*
X148585000Y-98881939D01*
X148624774Y-99081898D01*
X148702795Y-99270256D01*
X148816063Y-99439774D01*
X148960226Y-99583937D01*
X149129744Y-99697205D01*
X149318102Y-99775226D01*
X149518061Y-99815000D01*
X149721939Y-99815000D01*
X149921898Y-99775226D01*
X150110256Y-99697205D01*
X150279774Y-99583937D01*
X150423937Y-99439774D01*
X150537205Y-99270256D01*
X150615226Y-99081898D01*
X150655000Y-98881939D01*
X150655000Y-98678061D01*
X150615226Y-98478102D01*
X150537205Y-98289744D01*
X150423937Y-98120226D01*
X150279774Y-97976063D01*
X150110256Y-97862795D01*
X149921898Y-97784774D01*
X149721939Y-97745000D01*
X149518061Y-97745000D01*
X149318102Y-97784774D01*
X149129744Y-97862795D01*
X148960226Y-97976063D01*
X148816063Y-98120226D01*
X148702795Y-98289744D01*
X148624774Y-98478102D01*
X148585000Y-98678061D01*
X145256036Y-98678061D01*
X145163937Y-98540226D01*
X145019774Y-98396063D01*
X144850256Y-98282795D01*
X144661898Y-98204774D01*
X144461939Y-98165000D01*
X144258061Y-98165000D01*
X144058102Y-98204774D01*
X143869744Y-98282795D01*
X143700226Y-98396063D01*
X143556063Y-98540226D01*
X143442795Y-98709744D01*
X143364774Y-98898102D01*
X143325000Y-99098061D01*
X143325000Y-99301939D01*
X143364774Y-99501898D01*
X143442795Y-99690256D01*
X143556063Y-99859774D01*
X143700226Y-100003937D01*
X143791613Y-100065000D01*
X137104447Y-100065000D01*
X136405000Y-99365554D01*
X136405000Y-93876105D01*
X136408556Y-93840000D01*
X136394365Y-93695915D01*
X136383590Y-93660395D01*
X136352337Y-93557367D01*
X136284087Y-93429680D01*
X136236295Y-93371446D01*
X136215253Y-93345806D01*
X136215250Y-93345803D01*
X136192237Y-93317762D01*
X136164197Y-93294750D01*
X134565000Y-91695554D01*
X134565000Y-89956105D01*
X134568556Y-89920000D01*
X134554365Y-89775915D01*
X134514653Y-89645000D01*
X134907489Y-89645000D01*
X134885000Y-89758061D01*
G37*
%TD.AperFunction*%
D18*
X168984934Y-86524381D02*
X168984933Y-90655780D01*
X168261082Y-91379632D01*
X168176373Y-91449151D01*
X168153357Y-91477196D01*
X165185797Y-94444757D01*
X165157752Y-94467773D01*
X165065903Y-94579691D01*
X165014616Y-94675643D01*
X164997653Y-94707378D01*
X164955624Y-94845926D01*
X164941433Y-94990011D01*
X164944990Y-95026126D01*
X164944989Y-96707476D01*
X164841898Y-96664774D01*
X164641939Y-96625000D01*
X164574999Y-96625000D01*
X164574999Y-93526543D01*
X164718061Y-93555000D01*
X164921939Y-93555000D01*
X165121898Y-93515226D01*
X165310256Y-93437205D01*
X165479774Y-93323937D01*
X165623937Y-93179774D01*
X165737205Y-93010256D01*
X165815226Y-92821898D01*
X165855000Y-92621939D01*
X165855000Y-92418061D01*
X165816233Y-92223166D01*
X165949774Y-92133937D01*
X166093937Y-91989774D01*
X166207205Y-91820256D01*
X166285226Y-91631898D01*
X166325000Y-91431939D01*
X166325000Y-91228061D01*
X166285226Y-91028102D01*
X166207205Y-90839744D01*
X166181875Y-90801836D01*
X166203937Y-90779774D01*
X166317205Y-90610256D01*
X166395226Y-90421898D01*
X166435000Y-90221939D01*
X166435000Y-90018061D01*
X166395226Y-89818102D01*
X166317205Y-89629744D01*
X166203937Y-89460226D01*
X166059774Y-89316063D01*
X165890256Y-89202795D01*
X165701898Y-89124774D01*
X165501939Y-89085000D01*
X165298061Y-89085000D01*
X165098102Y-89124774D01*
X164909744Y-89202795D01*
X164888100Y-89217257D01*
X164813975Y-89167729D01*
X164625617Y-89089708D01*
X164425658Y-89049934D01*
X164221780Y-89049934D01*
X164021821Y-89089708D01*
X164001738Y-89098027D01*
X163929774Y-89026063D01*
X163760256Y-88912795D01*
X163571898Y-88834774D01*
X163371939Y-88795000D01*
X163245951Y-88795000D01*
X163227205Y-88749744D01*
X163113937Y-88580226D01*
X163045000Y-88511289D01*
X163045000Y-86916114D01*
X163048555Y-86880019D01*
X163045000Y-86843924D01*
X163045000Y-86843915D01*
X163034365Y-86735935D01*
X162992337Y-86597387D01*
X162924087Y-86469700D01*
X162832238Y-86357782D01*
X162804193Y-86334766D01*
X162394437Y-85925010D01*
X168385564Y-85925010D01*
X168984934Y-86524381D01*
%TA.AperFunction,Conductor*%
D19*
G36*
X168984934Y-86524381D02*
G01*
X168984933Y-90655780D01*
X168261082Y-91379632D01*
X168176373Y-91449151D01*
X168153357Y-91477196D01*
X165185797Y-94444757D01*
X165157752Y-94467773D01*
X165065903Y-94579691D01*
X165014616Y-94675643D01*
X164997653Y-94707378D01*
X164955624Y-94845926D01*
X164941433Y-94990011D01*
X164944990Y-95026126D01*
X164944989Y-96707476D01*
X164841898Y-96664774D01*
X164641939Y-96625000D01*
X164574999Y-96625000D01*
X164574999Y-93526543D01*
X164718061Y-93555000D01*
X164921939Y-93555000D01*
X165121898Y-93515226D01*
X165310256Y-93437205D01*
X165479774Y-93323937D01*
X165623937Y-93179774D01*
X165737205Y-93010256D01*
X165815226Y-92821898D01*
X165855000Y-92621939D01*
X165855000Y-92418061D01*
X165816233Y-92223166D01*
X165949774Y-92133937D01*
X166093937Y-91989774D01*
X166207205Y-91820256D01*
X166285226Y-91631898D01*
X166325000Y-91431939D01*
X166325000Y-91228061D01*
X166285226Y-91028102D01*
X166207205Y-90839744D01*
X166181875Y-90801836D01*
X166203937Y-90779774D01*
X166317205Y-90610256D01*
X166395226Y-90421898D01*
X166435000Y-90221939D01*
X166435000Y-90018061D01*
X166395226Y-89818102D01*
X166317205Y-89629744D01*
X166203937Y-89460226D01*
X166059774Y-89316063D01*
X165890256Y-89202795D01*
X165701898Y-89124774D01*
X165501939Y-89085000D01*
X165298061Y-89085000D01*
X165098102Y-89124774D01*
X164909744Y-89202795D01*
X164888100Y-89217257D01*
X164813975Y-89167729D01*
X164625617Y-89089708D01*
X164425658Y-89049934D01*
X164221780Y-89049934D01*
X164021821Y-89089708D01*
X164001738Y-89098027D01*
X163929774Y-89026063D01*
X163760256Y-88912795D01*
X163571898Y-88834774D01*
X163371939Y-88795000D01*
X163245951Y-88795000D01*
X163227205Y-88749744D01*
X163113937Y-88580226D01*
X163045000Y-88511289D01*
X163045000Y-86916114D01*
X163048555Y-86880019D01*
X163045000Y-86843924D01*
X163045000Y-86843915D01*
X163034365Y-86735935D01*
X162992337Y-86597387D01*
X162924087Y-86469700D01*
X162832238Y-86357782D01*
X162804193Y-86334766D01*
X162394437Y-85925010D01*
X168385564Y-85925010D01*
X168984934Y-86524381D01*
G37*
%TD.AperFunction*%
D18*
X158598748Y-92550858D02*
X158584605Y-92565000D01*
X158761969Y-92742364D01*
X158780426Y-92836061D01*
X158850592Y-93006351D01*
X158852237Y-93009425D01*
X159039201Y-93019596D01*
X159039541Y-93019936D01*
X159042500Y-93019775D01*
X159045459Y-93019936D01*
X159045799Y-93019596D01*
X159232763Y-93009425D01*
X159303562Y-92839397D01*
X159323055Y-92742340D01*
X159500395Y-92565000D01*
X159486253Y-92550858D01*
X159598777Y-92438333D01*
X159679201Y-92384596D01*
X159680000Y-92385395D01*
X159684019Y-92381376D01*
X159696156Y-92373266D01*
X159873748Y-92550858D01*
X159859605Y-92565000D01*
X160036969Y-92742364D01*
X160055426Y-92836061D01*
X160125592Y-93006351D01*
X160127237Y-93009425D01*
X160314201Y-93019596D01*
X160314541Y-93019936D01*
X160317500Y-93019775D01*
X160320459Y-93019936D01*
X160320799Y-93019596D01*
X160507763Y-93009425D01*
X160578562Y-92839397D01*
X160598055Y-92742340D01*
X160775395Y-92565000D01*
X160768249Y-92557854D01*
X160881904Y-92535247D01*
X161050766Y-92465302D01*
X161024753Y-92528102D01*
X160984979Y-92728061D01*
X160984979Y-92742911D01*
X160969143Y-92758748D01*
X160955000Y-92744605D01*
X160777636Y-92921969D01*
X160683939Y-92940426D01*
X160513649Y-93010592D01*
X160510575Y-93012237D01*
X160500404Y-93199201D01*
X160500064Y-93199541D01*
X160500225Y-93202500D01*
X160500064Y-93205459D01*
X160500404Y-93205799D01*
X160510575Y-93392763D01*
X160680603Y-93463562D01*
X160777660Y-93483055D01*
X160955000Y-93660395D01*
X160969143Y-93646253D01*
X161148748Y-93825858D01*
X161134605Y-93840000D01*
X161148748Y-93854143D01*
X160969143Y-94033748D01*
X160955000Y-94019605D01*
X160777636Y-94196969D01*
X160683939Y-94215426D01*
X160513649Y-94285592D01*
X160510575Y-94287237D01*
X160500404Y-94474201D01*
X160500064Y-94474541D01*
X160500225Y-94477500D01*
X160500064Y-94480459D01*
X160500404Y-94480799D01*
X160510575Y-94667763D01*
X160680603Y-94738562D01*
X160777660Y-94758055D01*
X160955000Y-94935395D01*
X160969143Y-94921253D01*
X160980044Y-94932154D01*
X160955000Y-95058061D01*
X160955000Y-95062446D01*
X160794417Y-95128962D01*
X160774428Y-95142318D01*
X160761253Y-95129143D01*
X160775395Y-95115000D01*
X160598031Y-94937636D01*
X160579574Y-94843939D01*
X160509408Y-94673649D01*
X160507763Y-94670575D01*
X160320799Y-94660404D01*
X160320459Y-94660064D01*
X160317500Y-94660225D01*
X160314541Y-94660064D01*
X160314201Y-94660404D01*
X160127237Y-94670575D01*
X160056438Y-94840603D01*
X160036945Y-94937660D01*
X159859605Y-95115000D01*
X159863678Y-95119073D01*
X159794590Y-95147690D01*
X159625072Y-95260958D01*
X159480909Y-95405121D01*
X159367641Y-95574639D01*
X159344783Y-95629822D01*
X159225064Y-95749541D01*
X159235575Y-95942763D01*
X159252464Y-95949795D01*
X159249846Y-95962956D01*
X159249846Y-96060449D01*
X159205296Y-96104999D01*
X158555000Y-96104999D01*
X158555000Y-96038422D01*
X158676061Y-96014574D01*
X158846351Y-95944408D01*
X158849425Y-95942763D01*
X158859936Y-95749541D01*
X158405000Y-95294605D01*
X158390858Y-95308748D01*
X158211253Y-95129143D01*
X158225395Y-95115000D01*
X158584605Y-95115000D01*
X158761969Y-95292364D01*
X158780426Y-95386061D01*
X158850592Y-95556351D01*
X158852237Y-95559425D01*
X159039201Y-95569596D01*
X159039541Y-95569936D01*
X159042500Y-95569775D01*
X159045459Y-95569936D01*
X159045799Y-95569596D01*
X159232763Y-95559425D01*
X159303562Y-95389397D01*
X159323055Y-95292340D01*
X159500395Y-95115000D01*
X159323031Y-94937636D01*
X159304574Y-94843939D01*
X159234408Y-94673649D01*
X159232763Y-94670575D01*
X159045799Y-94660404D01*
X159045459Y-94660064D01*
X159042500Y-94660225D01*
X159039541Y-94660064D01*
X159039201Y-94660404D01*
X158852237Y-94670575D01*
X158781438Y-94840603D01*
X158761945Y-94937660D01*
X158584605Y-95115000D01*
X158225395Y-95115000D01*
X157770459Y-94660064D01*
X157577237Y-94670575D01*
X157506438Y-94840603D01*
X157470172Y-95021176D01*
X157470016Y-95104989D01*
X157418061Y-95104989D01*
X157315000Y-95125489D01*
X157315000Y-94474541D01*
X157950064Y-94474541D01*
X157950225Y-94477500D01*
X157950064Y-94480459D01*
X157950404Y-94480799D01*
X157960575Y-94667763D01*
X158130603Y-94738562D01*
X158227660Y-94758055D01*
X158405000Y-94935395D01*
X158582364Y-94758031D01*
X158676061Y-94739574D01*
X158846351Y-94669408D01*
X158849425Y-94667763D01*
X158859596Y-94480799D01*
X158859936Y-94480459D01*
X158859775Y-94477500D01*
X158859936Y-94474541D01*
X159225064Y-94474541D01*
X159225225Y-94477500D01*
X159225064Y-94480459D01*
X159225404Y-94480799D01*
X159235575Y-94667763D01*
X159405603Y-94738562D01*
X159502660Y-94758055D01*
X159680000Y-94935395D01*
X159857364Y-94758031D01*
X159951061Y-94739574D01*
X160121351Y-94669408D01*
X160124425Y-94667763D01*
X160134596Y-94480799D01*
X160134936Y-94480459D01*
X160134775Y-94477500D01*
X160134936Y-94474541D01*
X160134596Y-94474201D01*
X160124425Y-94287237D01*
X159954397Y-94216438D01*
X159857340Y-94196945D01*
X159680000Y-94019605D01*
X159502636Y-94196969D01*
X159408939Y-94215426D01*
X159238649Y-94285592D01*
X159235575Y-94287237D01*
X159225404Y-94474201D01*
X159225064Y-94474541D01*
X158859936Y-94474541D01*
X158859596Y-94474201D01*
X158849425Y-94287237D01*
X158679397Y-94216438D01*
X158582340Y-94196945D01*
X158405000Y-94019605D01*
X158227636Y-94196969D01*
X158133939Y-94215426D01*
X157963649Y-94285592D01*
X157960575Y-94287237D01*
X157950404Y-94474201D01*
X157950064Y-94474541D01*
X157315000Y-94474541D01*
X157315000Y-93930355D01*
X157469829Y-93930355D01*
X157505426Y-94111061D01*
X157575592Y-94281351D01*
X157577237Y-94284425D01*
X157770459Y-94294936D01*
X158225395Y-93840000D01*
X158584605Y-93840000D01*
X158761969Y-94017364D01*
X158780426Y-94111061D01*
X158850592Y-94281351D01*
X158852237Y-94284425D01*
X159039201Y-94294596D01*
X159039541Y-94294936D01*
X159042500Y-94294775D01*
X159045459Y-94294936D01*
X159045799Y-94294596D01*
X159232763Y-94284425D01*
X159303562Y-94114397D01*
X159323055Y-94017340D01*
X159500395Y-93840000D01*
X159859605Y-93840000D01*
X160036969Y-94017364D01*
X160055426Y-94111061D01*
X160125592Y-94281351D01*
X160127237Y-94284425D01*
X160314201Y-94294596D01*
X160314541Y-94294936D01*
X160317500Y-94294775D01*
X160320459Y-94294936D01*
X160320799Y-94294596D01*
X160507763Y-94284425D01*
X160578562Y-94114397D01*
X160598055Y-94017340D01*
X160775395Y-93840000D01*
X160598031Y-93662636D01*
X160579574Y-93568939D01*
X160509408Y-93398649D01*
X160507763Y-93395575D01*
X160320799Y-93385404D01*
X160320459Y-93385064D01*
X160317500Y-93385225D01*
X160314541Y-93385064D01*
X160314201Y-93385404D01*
X160127237Y-93395575D01*
X160056438Y-93565603D01*
X160036945Y-93662660D01*
X159859605Y-93840000D01*
X159500395Y-93840000D01*
X159323031Y-93662636D01*
X159304574Y-93568939D01*
X159234408Y-93398649D01*
X159232763Y-93395575D01*
X159045799Y-93385404D01*
X159045459Y-93385064D01*
X159042500Y-93385225D01*
X159039541Y-93385064D01*
X159039201Y-93385404D01*
X158852237Y-93395575D01*
X158781438Y-93565603D01*
X158761945Y-93662660D01*
X158584605Y-93840000D01*
X158225395Y-93840000D01*
X157770459Y-93385064D01*
X157577237Y-93395575D01*
X157506438Y-93565603D01*
X157470172Y-93746176D01*
X157469829Y-93930355D01*
X157315000Y-93930355D01*
X157315000Y-93199541D01*
X157950064Y-93199541D01*
X157950225Y-93202500D01*
X157950064Y-93205459D01*
X157950404Y-93205799D01*
X157960575Y-93392763D01*
X158130603Y-93463562D01*
X158227660Y-93483055D01*
X158405000Y-93660395D01*
X158582364Y-93483031D01*
X158676061Y-93464574D01*
X158846351Y-93394408D01*
X158849425Y-93392763D01*
X158859596Y-93205799D01*
X158859936Y-93205459D01*
X158859775Y-93202500D01*
X158859936Y-93199541D01*
X159225064Y-93199541D01*
X159225225Y-93202500D01*
X159225064Y-93205459D01*
X159225404Y-93205799D01*
X159235575Y-93392763D01*
X159405603Y-93463562D01*
X159502660Y-93483055D01*
X159680000Y-93660395D01*
X159857364Y-93483031D01*
X159951061Y-93464574D01*
X160121351Y-93394408D01*
X160124425Y-93392763D01*
X160134596Y-93205799D01*
X160134936Y-93205459D01*
X160134775Y-93202500D01*
X160134936Y-93199541D01*
X160134596Y-93199201D01*
X160124425Y-93012237D01*
X159954397Y-92941438D01*
X159857340Y-92921945D01*
X159680000Y-92744605D01*
X159502636Y-92921969D01*
X159408939Y-92940426D01*
X159238649Y-93010592D01*
X159235575Y-93012237D01*
X159225404Y-93199201D01*
X159225064Y-93199541D01*
X158859936Y-93199541D01*
X158859596Y-93199201D01*
X158849425Y-93012237D01*
X158679397Y-92941438D01*
X158582340Y-92921945D01*
X158405000Y-92744605D01*
X158227636Y-92921969D01*
X158133939Y-92940426D01*
X157963649Y-93010592D01*
X157960575Y-93012237D01*
X157950404Y-93199201D01*
X157950064Y-93199541D01*
X157315000Y-93199541D01*
X157315000Y-92816509D01*
X157370194Y-92827488D01*
X157503737Y-92827488D01*
X157505426Y-92836061D01*
X157575592Y-93006351D01*
X157577237Y-93009425D01*
X157770459Y-93019936D01*
X158225395Y-92565000D01*
X158211253Y-92550858D01*
X158390858Y-92371253D01*
X158405000Y-92385395D01*
X158419143Y-92371253D01*
X158598748Y-92550858D01*
%TA.AperFunction,Conductor*%
D19*
G36*
X158598748Y-92550858D02*
G01*
X158584605Y-92565000D01*
X158761969Y-92742364D01*
X158780426Y-92836061D01*
X158850592Y-93006351D01*
X158852237Y-93009425D01*
X159039201Y-93019596D01*
X159039541Y-93019936D01*
X159042500Y-93019775D01*
X159045459Y-93019936D01*
X159045799Y-93019596D01*
X159232763Y-93009425D01*
X159303562Y-92839397D01*
X159323055Y-92742340D01*
X159500395Y-92565000D01*
X159486253Y-92550858D01*
X159598777Y-92438333D01*
X159679201Y-92384596D01*
X159680000Y-92385395D01*
X159684019Y-92381376D01*
X159696156Y-92373266D01*
X159873748Y-92550858D01*
X159859605Y-92565000D01*
X160036969Y-92742364D01*
X160055426Y-92836061D01*
X160125592Y-93006351D01*
X160127237Y-93009425D01*
X160314201Y-93019596D01*
X160314541Y-93019936D01*
X160317500Y-93019775D01*
X160320459Y-93019936D01*
X160320799Y-93019596D01*
X160507763Y-93009425D01*
X160578562Y-92839397D01*
X160598055Y-92742340D01*
X160775395Y-92565000D01*
X160768249Y-92557854D01*
X160881904Y-92535247D01*
X161050766Y-92465302D01*
X161024753Y-92528102D01*
X160984979Y-92728061D01*
X160984979Y-92742911D01*
X160969143Y-92758748D01*
X160955000Y-92744605D01*
X160777636Y-92921969D01*
X160683939Y-92940426D01*
X160513649Y-93010592D01*
X160510575Y-93012237D01*
X160500404Y-93199201D01*
X160500064Y-93199541D01*
X160500225Y-93202500D01*
X160500064Y-93205459D01*
X160500404Y-93205799D01*
X160510575Y-93392763D01*
X160680603Y-93463562D01*
X160777660Y-93483055D01*
X160955000Y-93660395D01*
X160969143Y-93646253D01*
X161148748Y-93825858D01*
X161134605Y-93840000D01*
X161148748Y-93854143D01*
X160969143Y-94033748D01*
X160955000Y-94019605D01*
X160777636Y-94196969D01*
X160683939Y-94215426D01*
X160513649Y-94285592D01*
X160510575Y-94287237D01*
X160500404Y-94474201D01*
X160500064Y-94474541D01*
X160500225Y-94477500D01*
X160500064Y-94480459D01*
X160500404Y-94480799D01*
X160510575Y-94667763D01*
X160680603Y-94738562D01*
X160777660Y-94758055D01*
X160955000Y-94935395D01*
X160969143Y-94921253D01*
X160980044Y-94932154D01*
X160955000Y-95058061D01*
X160955000Y-95062446D01*
X160794417Y-95128962D01*
X160774428Y-95142318D01*
X160761253Y-95129143D01*
X160775395Y-95115000D01*
X160598031Y-94937636D01*
X160579574Y-94843939D01*
X160509408Y-94673649D01*
X160507763Y-94670575D01*
X160320799Y-94660404D01*
X160320459Y-94660064D01*
X160317500Y-94660225D01*
X160314541Y-94660064D01*
X160314201Y-94660404D01*
X160127237Y-94670575D01*
X160056438Y-94840603D01*
X160036945Y-94937660D01*
X159859605Y-95115000D01*
X159863678Y-95119073D01*
X159794590Y-95147690D01*
X159625072Y-95260958D01*
X159480909Y-95405121D01*
X159367641Y-95574639D01*
X159344783Y-95629822D01*
X159225064Y-95749541D01*
X159235575Y-95942763D01*
X159252464Y-95949795D01*
X159249846Y-95962956D01*
X159249846Y-96060449D01*
X159205296Y-96104999D01*
X158555000Y-96104999D01*
X158555000Y-96038422D01*
X158676061Y-96014574D01*
X158846351Y-95944408D01*
X158849425Y-95942763D01*
X158859936Y-95749541D01*
X158405000Y-95294605D01*
X158390858Y-95308748D01*
X158211253Y-95129143D01*
X158225395Y-95115000D01*
X158584605Y-95115000D01*
X158761969Y-95292364D01*
X158780426Y-95386061D01*
X158850592Y-95556351D01*
X158852237Y-95559425D01*
X159039201Y-95569596D01*
X159039541Y-95569936D01*
X159042500Y-95569775D01*
X159045459Y-95569936D01*
X159045799Y-95569596D01*
X159232763Y-95559425D01*
X159303562Y-95389397D01*
X159323055Y-95292340D01*
X159500395Y-95115000D01*
X159323031Y-94937636D01*
X159304574Y-94843939D01*
X159234408Y-94673649D01*
X159232763Y-94670575D01*
X159045799Y-94660404D01*
X159045459Y-94660064D01*
X159042500Y-94660225D01*
X159039541Y-94660064D01*
X159039201Y-94660404D01*
X158852237Y-94670575D01*
X158781438Y-94840603D01*
X158761945Y-94937660D01*
X158584605Y-95115000D01*
X158225395Y-95115000D01*
X157770459Y-94660064D01*
X157577237Y-94670575D01*
X157506438Y-94840603D01*
X157470172Y-95021176D01*
X157470016Y-95104989D01*
X157418061Y-95104989D01*
X157315000Y-95125489D01*
X157315000Y-94474541D01*
X157950064Y-94474541D01*
X157950225Y-94477500D01*
X157950064Y-94480459D01*
X157950404Y-94480799D01*
X157960575Y-94667763D01*
X158130603Y-94738562D01*
X158227660Y-94758055D01*
X158405000Y-94935395D01*
X158582364Y-94758031D01*
X158676061Y-94739574D01*
X158846351Y-94669408D01*
X158849425Y-94667763D01*
X158859596Y-94480799D01*
X158859936Y-94480459D01*
X158859775Y-94477500D01*
X158859936Y-94474541D01*
X159225064Y-94474541D01*
X159225225Y-94477500D01*
X159225064Y-94480459D01*
X159225404Y-94480799D01*
X159235575Y-94667763D01*
X159405603Y-94738562D01*
X159502660Y-94758055D01*
X159680000Y-94935395D01*
X159857364Y-94758031D01*
X159951061Y-94739574D01*
X160121351Y-94669408D01*
X160124425Y-94667763D01*
X160134596Y-94480799D01*
X160134936Y-94480459D01*
X160134775Y-94477500D01*
X160134936Y-94474541D01*
X160134596Y-94474201D01*
X160124425Y-94287237D01*
X159954397Y-94216438D01*
X159857340Y-94196945D01*
X159680000Y-94019605D01*
X159502636Y-94196969D01*
X159408939Y-94215426D01*
X159238649Y-94285592D01*
X159235575Y-94287237D01*
X159225404Y-94474201D01*
X159225064Y-94474541D01*
X158859936Y-94474541D01*
X158859596Y-94474201D01*
X158849425Y-94287237D01*
X158679397Y-94216438D01*
X158582340Y-94196945D01*
X158405000Y-94019605D01*
X158227636Y-94196969D01*
X158133939Y-94215426D01*
X157963649Y-94285592D01*
X157960575Y-94287237D01*
X157950404Y-94474201D01*
X157950064Y-94474541D01*
X157315000Y-94474541D01*
X157315000Y-93930355D01*
X157469829Y-93930355D01*
X157505426Y-94111061D01*
X157575592Y-94281351D01*
X157577237Y-94284425D01*
X157770459Y-94294936D01*
X158225395Y-93840000D01*
X158584605Y-93840000D01*
X158761969Y-94017364D01*
X158780426Y-94111061D01*
X158850592Y-94281351D01*
X158852237Y-94284425D01*
X159039201Y-94294596D01*
X159039541Y-94294936D01*
X159042500Y-94294775D01*
X159045459Y-94294936D01*
X159045799Y-94294596D01*
X159232763Y-94284425D01*
X159303562Y-94114397D01*
X159323055Y-94017340D01*
X159500395Y-93840000D01*
X159859605Y-93840000D01*
X160036969Y-94017364D01*
X160055426Y-94111061D01*
X160125592Y-94281351D01*
X160127237Y-94284425D01*
X160314201Y-94294596D01*
X160314541Y-94294936D01*
X160317500Y-94294775D01*
X160320459Y-94294936D01*
X160320799Y-94294596D01*
X160507763Y-94284425D01*
X160578562Y-94114397D01*
X160598055Y-94017340D01*
X160775395Y-93840000D01*
X160598031Y-93662636D01*
X160579574Y-93568939D01*
X160509408Y-93398649D01*
X160507763Y-93395575D01*
X160320799Y-93385404D01*
X160320459Y-93385064D01*
X160317500Y-93385225D01*
X160314541Y-93385064D01*
X160314201Y-93385404D01*
X160127237Y-93395575D01*
X160056438Y-93565603D01*
X160036945Y-93662660D01*
X159859605Y-93840000D01*
X159500395Y-93840000D01*
X159323031Y-93662636D01*
X159304574Y-93568939D01*
X159234408Y-93398649D01*
X159232763Y-93395575D01*
X159045799Y-93385404D01*
X159045459Y-93385064D01*
X159042500Y-93385225D01*
X159039541Y-93385064D01*
X159039201Y-93385404D01*
X158852237Y-93395575D01*
X158781438Y-93565603D01*
X158761945Y-93662660D01*
X158584605Y-93840000D01*
X158225395Y-93840000D01*
X157770459Y-93385064D01*
X157577237Y-93395575D01*
X157506438Y-93565603D01*
X157470172Y-93746176D01*
X157469829Y-93930355D01*
X157315000Y-93930355D01*
X157315000Y-93199541D01*
X157950064Y-93199541D01*
X157950225Y-93202500D01*
X157950064Y-93205459D01*
X157950404Y-93205799D01*
X157960575Y-93392763D01*
X158130603Y-93463562D01*
X158227660Y-93483055D01*
X158405000Y-93660395D01*
X158582364Y-93483031D01*
X158676061Y-93464574D01*
X158846351Y-93394408D01*
X158849425Y-93392763D01*
X158859596Y-93205799D01*
X158859936Y-93205459D01*
X158859775Y-93202500D01*
X158859936Y-93199541D01*
X159225064Y-93199541D01*
X159225225Y-93202500D01*
X159225064Y-93205459D01*
X159225404Y-93205799D01*
X159235575Y-93392763D01*
X159405603Y-93463562D01*
X159502660Y-93483055D01*
X159680000Y-93660395D01*
X159857364Y-93483031D01*
X159951061Y-93464574D01*
X160121351Y-93394408D01*
X160124425Y-93392763D01*
X160134596Y-93205799D01*
X160134936Y-93205459D01*
X160134775Y-93202500D01*
X160134936Y-93199541D01*
X160134596Y-93199201D01*
X160124425Y-93012237D01*
X159954397Y-92941438D01*
X159857340Y-92921945D01*
X159680000Y-92744605D01*
X159502636Y-92921969D01*
X159408939Y-92940426D01*
X159238649Y-93010592D01*
X159235575Y-93012237D01*
X159225404Y-93199201D01*
X159225064Y-93199541D01*
X158859936Y-93199541D01*
X158859596Y-93199201D01*
X158849425Y-93012237D01*
X158679397Y-92941438D01*
X158582340Y-92921945D01*
X158405000Y-92744605D01*
X158227636Y-92921969D01*
X158133939Y-92940426D01*
X157963649Y-93010592D01*
X157960575Y-93012237D01*
X157950404Y-93199201D01*
X157950064Y-93199541D01*
X157315000Y-93199541D01*
X157315000Y-92816509D01*
X157370194Y-92827488D01*
X157503737Y-92827488D01*
X157505426Y-92836061D01*
X157575592Y-93006351D01*
X157577237Y-93009425D01*
X157770459Y-93019936D01*
X158225395Y-92565000D01*
X158211253Y-92550858D01*
X158390858Y-92371253D01*
X158405000Y-92385395D01*
X158419143Y-92371253D01*
X158598748Y-92550858D01*
G37*
%TD.AperFunction*%
D18*
X155143847Y-87626692D02*
X155164774Y-87731898D01*
X155242795Y-87920256D01*
X155356063Y-88089774D01*
X155500226Y-88233937D01*
X155669744Y-88347205D01*
X155858102Y-88425226D01*
X156058061Y-88465000D01*
X156261939Y-88465000D01*
X156461898Y-88425226D01*
X156650256Y-88347205D01*
X156819774Y-88233937D01*
X156963937Y-88089774D01*
X157077205Y-87920256D01*
X157155226Y-87731898D01*
X157195000Y-87531939D01*
X157195000Y-87328061D01*
X157155226Y-87128102D01*
X157077205Y-86939744D01*
X157062308Y-86917449D01*
X157107205Y-86850256D01*
X157185226Y-86661898D01*
X157225000Y-86461939D01*
X157225000Y-86325020D01*
X160715554Y-86325020D01*
X161575001Y-87184468D01*
X161575000Y-88511289D01*
X161506063Y-88580226D01*
X161392795Y-88749744D01*
X161314774Y-88938102D01*
X161275000Y-89138061D01*
X161275000Y-89304989D01*
X160404435Y-89304989D01*
X160035196Y-88935752D01*
X160027444Y-88926306D01*
X160133247Y-88970131D01*
X160333206Y-89009905D01*
X160537084Y-89009905D01*
X160737043Y-88970131D01*
X160925401Y-88892110D01*
X161094919Y-88778842D01*
X161239082Y-88634679D01*
X161352350Y-88465161D01*
X161430371Y-88276803D01*
X161470145Y-88076844D01*
X161470145Y-87872966D01*
X161430371Y-87673007D01*
X161352350Y-87484649D01*
X161239082Y-87315131D01*
X161094919Y-87170968D01*
X160925401Y-87057700D01*
X160737043Y-86979679D01*
X160537084Y-86939905D01*
X160333206Y-86939905D01*
X160133247Y-86979679D01*
X159944889Y-87057700D01*
X159775371Y-87170968D01*
X159631208Y-87315131D01*
X159517940Y-87484649D01*
X159439919Y-87673007D01*
X159400145Y-87872966D01*
X159400145Y-88076844D01*
X159439919Y-88276803D01*
X159517940Y-88465161D01*
X159631208Y-88634679D01*
X159731743Y-88735214D01*
X159634019Y-88705570D01*
X159526039Y-88694935D01*
X159489934Y-88691379D01*
X159453829Y-88694935D01*
X154425000Y-88694935D01*
X154425000Y-88588061D01*
X154385226Y-88388102D01*
X154307205Y-88199744D01*
X154193937Y-88030226D01*
X154049774Y-87886063D01*
X153880256Y-87772795D01*
X153691898Y-87694774D01*
X153491939Y-87655000D01*
X153288061Y-87655000D01*
X153088102Y-87694774D01*
X152899744Y-87772795D01*
X152730226Y-87886063D01*
X152586063Y-88030226D01*
X152472795Y-88199744D01*
X152394774Y-88388102D01*
X152355000Y-88588061D01*
X152355000Y-88694935D01*
X149705684Y-88694935D01*
X149715226Y-88671898D01*
X149755000Y-88471939D01*
X149755000Y-88268061D01*
X149715226Y-88068102D01*
X149668479Y-87955247D01*
X149818061Y-87985000D01*
X150021939Y-87985000D01*
X150221898Y-87945226D01*
X150410256Y-87867205D01*
X150539932Y-87780558D01*
X150609744Y-87827205D01*
X150798102Y-87905226D01*
X150998061Y-87945000D01*
X151201939Y-87945000D01*
X151401898Y-87905226D01*
X151590256Y-87827205D01*
X151759774Y-87713937D01*
X151903937Y-87569774D01*
X152017205Y-87400256D01*
X152095226Y-87211898D01*
X152135000Y-87011939D01*
X152135000Y-86808061D01*
X152095226Y-86608102D01*
X152017205Y-86419744D01*
X151903937Y-86250226D01*
X151837992Y-86184281D01*
X151835000Y-86153902D01*
X151835000Y-86153895D01*
X151826245Y-86065000D01*
X153582156Y-86065000D01*
X155143847Y-87626692D01*
%TA.AperFunction,Conductor*%
D19*
G36*
X155143847Y-87626692D02*
G01*
X155164774Y-87731898D01*
X155242795Y-87920256D01*
X155356063Y-88089774D01*
X155500226Y-88233937D01*
X155669744Y-88347205D01*
X155858102Y-88425226D01*
X156058061Y-88465000D01*
X156261939Y-88465000D01*
X156461898Y-88425226D01*
X156650256Y-88347205D01*
X156819774Y-88233937D01*
X156963937Y-88089774D01*
X157077205Y-87920256D01*
X157155226Y-87731898D01*
X157195000Y-87531939D01*
X157195000Y-87328061D01*
X157155226Y-87128102D01*
X157077205Y-86939744D01*
X157062308Y-86917449D01*
X157107205Y-86850256D01*
X157185226Y-86661898D01*
X157225000Y-86461939D01*
X157225000Y-86325020D01*
X160715554Y-86325020D01*
X161575001Y-87184468D01*
X161575000Y-88511289D01*
X161506063Y-88580226D01*
X161392795Y-88749744D01*
X161314774Y-88938102D01*
X161275000Y-89138061D01*
X161275000Y-89304989D01*
X160404435Y-89304989D01*
X160035196Y-88935752D01*
X160027444Y-88926306D01*
X160133247Y-88970131D01*
X160333206Y-89009905D01*
X160537084Y-89009905D01*
X160737043Y-88970131D01*
X160925401Y-88892110D01*
X161094919Y-88778842D01*
X161239082Y-88634679D01*
X161352350Y-88465161D01*
X161430371Y-88276803D01*
X161470145Y-88076844D01*
X161470145Y-87872966D01*
X161430371Y-87673007D01*
X161352350Y-87484649D01*
X161239082Y-87315131D01*
X161094919Y-87170968D01*
X160925401Y-87057700D01*
X160737043Y-86979679D01*
X160537084Y-86939905D01*
X160333206Y-86939905D01*
X160133247Y-86979679D01*
X159944889Y-87057700D01*
X159775371Y-87170968D01*
X159631208Y-87315131D01*
X159517940Y-87484649D01*
X159439919Y-87673007D01*
X159400145Y-87872966D01*
X159400145Y-88076844D01*
X159439919Y-88276803D01*
X159517940Y-88465161D01*
X159631208Y-88634679D01*
X159731743Y-88735214D01*
X159634019Y-88705570D01*
X159526039Y-88694935D01*
X159489934Y-88691379D01*
X159453829Y-88694935D01*
X154425000Y-88694935D01*
X154425000Y-88588061D01*
X154385226Y-88388102D01*
X154307205Y-88199744D01*
X154193937Y-88030226D01*
X154049774Y-87886063D01*
X153880256Y-87772795D01*
X153691898Y-87694774D01*
X153491939Y-87655000D01*
X153288061Y-87655000D01*
X153088102Y-87694774D01*
X152899744Y-87772795D01*
X152730226Y-87886063D01*
X152586063Y-88030226D01*
X152472795Y-88199744D01*
X152394774Y-88388102D01*
X152355000Y-88588061D01*
X152355000Y-88694935D01*
X149705684Y-88694935D01*
X149715226Y-88671898D01*
X149755000Y-88471939D01*
X149755000Y-88268061D01*
X149715226Y-88068102D01*
X149668479Y-87955247D01*
X149818061Y-87985000D01*
X150021939Y-87985000D01*
X150221898Y-87945226D01*
X150410256Y-87867205D01*
X150539932Y-87780558D01*
X150609744Y-87827205D01*
X150798102Y-87905226D01*
X150998061Y-87945000D01*
X151201939Y-87945000D01*
X151401898Y-87905226D01*
X151590256Y-87827205D01*
X151759774Y-87713937D01*
X151903937Y-87569774D01*
X152017205Y-87400256D01*
X152095226Y-87211898D01*
X152135000Y-87011939D01*
X152135000Y-86808061D01*
X152095226Y-86608102D01*
X152017205Y-86419744D01*
X151903937Y-86250226D01*
X151837992Y-86184281D01*
X151835000Y-86153902D01*
X151835000Y-86153895D01*
X151826245Y-86065000D01*
X153582156Y-86065000D01*
X155143847Y-87626692D01*
G37*
%TD.AperFunction*%
D18*
X139134774Y-85728102D02*
X139095000Y-85928061D01*
X139095000Y-86131939D01*
X139134774Y-86331898D01*
X139212795Y-86520256D01*
X139326063Y-86689774D01*
X139470226Y-86833937D01*
X139639744Y-86947205D01*
X139828102Y-87025226D01*
X140028061Y-87065000D01*
X140231939Y-87065000D01*
X140431898Y-87025226D01*
X140620256Y-86947205D01*
X140789774Y-86833937D01*
X140933937Y-86689774D01*
X141047205Y-86520256D01*
X141125226Y-86331898D01*
X141165000Y-86131939D01*
X141165000Y-85928061D01*
X141125226Y-85728102D01*
X141111515Y-85695000D01*
X141139856Y-85695000D01*
X143129058Y-87684203D01*
X143152074Y-87712248D01*
X143263992Y-87804097D01*
X143391679Y-87872347D01*
X143530227Y-87914375D01*
X143638207Y-87925010D01*
X143638216Y-87925010D01*
X143674311Y-87928565D01*
X143710406Y-87925010D01*
X144555564Y-87925010D01*
X144678127Y-88047574D01*
X144644771Y-88128102D01*
X144604997Y-88328061D01*
X144604997Y-88531939D01*
X144637419Y-88694935D01*
X143944381Y-88694935D01*
X143785259Y-88535813D01*
X143762238Y-88507762D01*
X143650320Y-88415913D01*
X143522633Y-88347663D01*
X143384085Y-88305635D01*
X143276105Y-88295000D01*
X143240000Y-88291444D01*
X143203895Y-88295000D01*
X143168711Y-88295000D01*
X143099774Y-88226063D01*
X142930256Y-88112795D01*
X142741898Y-88034774D01*
X142541939Y-87995000D01*
X142338061Y-87995000D01*
X142138102Y-88034774D01*
X141949744Y-88112795D01*
X141780226Y-88226063D01*
X141636063Y-88370226D01*
X141522795Y-88539744D01*
X141444774Y-88728102D01*
X141405000Y-88928061D01*
X141405000Y-89094945D01*
X140100077Y-89094945D01*
X137000944Y-85995813D01*
X136977923Y-85967762D01*
X136866005Y-85875913D01*
X136738318Y-85807663D01*
X136642224Y-85778513D01*
X136558711Y-85695000D01*
X139148485Y-85695000D01*
X139134774Y-85728102D01*
%TA.AperFunction,Conductor*%
D19*
G36*
X139134774Y-85728102D02*
G01*
X139095000Y-85928061D01*
X139095000Y-86131939D01*
X139134774Y-86331898D01*
X139212795Y-86520256D01*
X139326063Y-86689774D01*
X139470226Y-86833937D01*
X139639744Y-86947205D01*
X139828102Y-87025226D01*
X140028061Y-87065000D01*
X140231939Y-87065000D01*
X140431898Y-87025226D01*
X140620256Y-86947205D01*
X140789774Y-86833937D01*
X140933937Y-86689774D01*
X141047205Y-86520256D01*
X141125226Y-86331898D01*
X141165000Y-86131939D01*
X141165000Y-85928061D01*
X141125226Y-85728102D01*
X141111515Y-85695000D01*
X141139856Y-85695000D01*
X143129058Y-87684203D01*
X143152074Y-87712248D01*
X143263992Y-87804097D01*
X143391679Y-87872347D01*
X143530227Y-87914375D01*
X143638207Y-87925010D01*
X143638216Y-87925010D01*
X143674311Y-87928565D01*
X143710406Y-87925010D01*
X144555564Y-87925010D01*
X144678127Y-88047574D01*
X144644771Y-88128102D01*
X144604997Y-88328061D01*
X144604997Y-88531939D01*
X144637419Y-88694935D01*
X143944381Y-88694935D01*
X143785259Y-88535813D01*
X143762238Y-88507762D01*
X143650320Y-88415913D01*
X143522633Y-88347663D01*
X143384085Y-88305635D01*
X143276105Y-88295000D01*
X143240000Y-88291444D01*
X143203895Y-88295000D01*
X143168711Y-88295000D01*
X143099774Y-88226063D01*
X142930256Y-88112795D01*
X142741898Y-88034774D01*
X142541939Y-87995000D01*
X142338061Y-87995000D01*
X142138102Y-88034774D01*
X141949744Y-88112795D01*
X141780226Y-88226063D01*
X141636063Y-88370226D01*
X141522795Y-88539744D01*
X141444774Y-88728102D01*
X141405000Y-88928061D01*
X141405000Y-89094945D01*
X140100077Y-89094945D01*
X137000944Y-85995813D01*
X136977923Y-85967762D01*
X136866005Y-85875913D01*
X136738318Y-85807663D01*
X136642224Y-85778513D01*
X136558711Y-85695000D01*
X139148485Y-85695000D01*
X139134774Y-85728102D01*
G37*
%TD.AperFunction*%
D18*
X132287000Y-80963000D02*
X132307000Y-80963000D01*
X132307000Y-81217000D01*
X132287000Y-81217000D01*
X132287000Y-81237000D01*
X132033000Y-81237000D01*
X132033000Y-81217000D01*
X132013000Y-81217000D01*
X132013000Y-80963000D01*
X132033000Y-80963000D01*
X132033000Y-80943000D01*
X132287000Y-80943000D01*
X132287000Y-80963000D01*
%TA.AperFunction,Conductor*%
D19*
G36*
X132287000Y-80963000D02*
G01*
X132307000Y-80963000D01*
X132307000Y-81217000D01*
X132287000Y-81217000D01*
X132287000Y-81237000D01*
X132033000Y-81237000D01*
X132033000Y-81217000D01*
X132013000Y-81217000D01*
X132013000Y-80963000D01*
X132033000Y-80963000D01*
X132033000Y-80943000D01*
X132287000Y-80943000D01*
X132287000Y-80963000D01*
G37*
%TD.AperFunction*%
D18*
X152607000Y-80963000D02*
X152627000Y-80963000D01*
X152627000Y-81217000D01*
X152607000Y-81217000D01*
X152607000Y-81237000D01*
X152353000Y-81237000D01*
X152353000Y-81217000D01*
X152333000Y-81217000D01*
X152333000Y-80963000D01*
X152353000Y-80963000D01*
X152353000Y-80943000D01*
X152607000Y-80943000D01*
X152607000Y-80963000D01*
%TA.AperFunction,Conductor*%
D19*
G36*
X152607000Y-80963000D02*
G01*
X152627000Y-80963000D01*
X152627000Y-81217000D01*
X152607000Y-81217000D01*
X152607000Y-81237000D01*
X152353000Y-81237000D01*
X152353000Y-81217000D01*
X152333000Y-81217000D01*
X152333000Y-80963000D01*
X152353000Y-80963000D01*
X152353000Y-80943000D01*
X152607000Y-80943000D01*
X152607000Y-80963000D01*
G37*
%TD.AperFunction*%
%TD*%
M02*
