%TF.GenerationSoftware,KiCad,Pcbnew,(5.1.8-0-10_14)*%
%TF.CreationDate,2021-08-19T17:30:32+08:00*%
%TF.ProjectId,microbyte-rp2040,6d696372-6f62-4797-9465-2d7270323034,rev?*%
%TF.SameCoordinates,Original*%
%TF.FileFunction,Copper,L3,Inr*%
%TF.FilePolarity,Positive*%
%FSLAX46Y46*%
G04 Gerber Fmt 4.6, Leading zero omitted, Abs format (unit mm)*
G04 Created by KiCad (PCBNEW (5.1.8-0-10_14)) date 2021-08-19 17:30:32*
%MOMM*%
%LPD*%
G01*
G04 APERTURE LIST*
%TA.AperFunction,ComponentPad*%
%ADD10C,0.600000*%
%TD*%
%TA.AperFunction,ComponentPad*%
%ADD11O,1.700000X1.700000*%
%TD*%
%TA.AperFunction,ComponentPad*%
%ADD12R,1.700000X1.700000*%
%TD*%
%TA.AperFunction,ComponentPad*%
%ADD13O,1.000000X2.100000*%
%TD*%
%TA.AperFunction,ComponentPad*%
%ADD14O,1.000000X1.600000*%
%TD*%
%TA.AperFunction,ViaPad*%
%ADD15C,0.800000*%
%TD*%
%TA.AperFunction,Conductor*%
%ADD16C,0.500000*%
%TD*%
%TA.AperFunction,Conductor*%
%ADD17C,0.300000*%
%TD*%
%TA.AperFunction,Conductor*%
%ADD18C,0.200000*%
%TD*%
%TA.AperFunction,Conductor*%
%ADD19C,0.254000*%
%TD*%
%TA.AperFunction,Conductor*%
%ADD20C,0.100000*%
%TD*%
G04 APERTURE END LIST*
D10*
%TO.N,GND*%
%TO.C,U4*%
X160955000Y-95115000D03*
X159680000Y-95115000D03*
X158405000Y-95115000D03*
X160955000Y-93840000D03*
X159680000Y-93840000D03*
X158405000Y-93840000D03*
X160955000Y-92565000D03*
X159680000Y-92565000D03*
X158405000Y-92565000D03*
%TD*%
D11*
%TO.N,SPI0_MISO*%
%TO.C,J4*%
X172800000Y-81090000D03*
%TO.N,GND*%
X172800000Y-83630000D03*
%TO.N,SPI0_MOSI*%
X170260000Y-81090000D03*
%TO.N,+BATT*%
X170260000Y-83630000D03*
%TO.N,SPI0_SCK*%
X167720000Y-81090000D03*
%TO.N,GPIO16*%
X167720000Y-83630000D03*
%TO.N,GND*%
X165180000Y-81090000D03*
%TO.N,GPIO17*%
X165180000Y-83630000D03*
%TO.N,GPIO5*%
X162640000Y-81090000D03*
%TO.N,GPIO18*%
X162640000Y-83630000D03*
%TO.N,GND*%
X160100000Y-81090000D03*
%TO.N,GPIO19*%
X160100000Y-83630000D03*
%TO.N,SWDCK*%
X157560000Y-81090000D03*
%TO.N,GPIO20*%
X157560000Y-83630000D03*
%TO.N,SWDIO*%
X155020000Y-81090000D03*
%TO.N,GND*%
X155020000Y-83630000D03*
%TO.N,ADC0*%
X152480000Y-81090000D03*
%TO.N,GPIO21*%
X152480000Y-83630000D03*
%TO.N,ADC1*%
X149940000Y-81090000D03*
%TO.N,GPIO22*%
X149940000Y-83630000D03*
%TO.N,GND*%
X147400000Y-81090000D03*
%TO.N,GPIO23*%
X147400000Y-83630000D03*
%TO.N,ADC2*%
X144860000Y-81090000D03*
%TO.N,+3V3*%
X144860000Y-83630000D03*
%TO.N,ADC3*%
X142320000Y-81090000D03*
%TO.N,GPIO24*%
X142320000Y-83630000D03*
%TO.N,GND*%
X139780000Y-81090000D03*
%TO.N,GPIO25*%
X139780000Y-83630000D03*
%TO.N,Net-(J4-Pad12)*%
X137240000Y-81090000D03*
%TO.N,Net-(J4-Pad11)*%
X137240000Y-83630000D03*
%TO.N,UART0_RX*%
X134700000Y-81090000D03*
%TO.N,GND*%
X134700000Y-83630000D03*
%TO.N,UART0_TX*%
X132160000Y-81090000D03*
%TO.N,+3.3VA*%
X132160000Y-83630000D03*
%TO.N,GND*%
X129620000Y-81090000D03*
%TO.N,I2C1_SCL*%
X129620000Y-83630000D03*
%TO.N,+5V*%
X127080000Y-81090000D03*
%TO.N,I2C1_SDA*%
X127080000Y-83630000D03*
%TO.N,+5V*%
X124540000Y-81090000D03*
D12*
%TO.N,+3V3*%
X124540000Y-83630000D03*
%TD*%
D13*
%TO.N,Net-(J3-PadS1)*%
%TO.C,J3*%
X163250000Y-103090000D03*
X154610000Y-103090000D03*
D14*
X154610000Y-107270000D03*
X163250000Y-107270000D03*
%TD*%
D15*
%TO.N,GND*%
X162409447Y-101830442D03*
X154640000Y-100059979D03*
X163980000Y-88930000D03*
X165449174Y-98340826D03*
X162720000Y-85970000D03*
X166830000Y-92510000D03*
X132720000Y-90300000D03*
X160610000Y-100099990D03*
X153540000Y-102120000D03*
X158460000Y-87060000D03*
X159520000Y-87060000D03*
X152530000Y-96790000D03*
X137850000Y-97140000D03*
X137860000Y-98300000D03*
X139320000Y-97670000D03*
X139260000Y-95980000D03*
X137790000Y-95480000D03*
X136640000Y-96210000D03*
X136530000Y-98360000D03*
X130930000Y-97140000D03*
X132230000Y-98390000D03*
X137250000Y-103980000D03*
X138540000Y-104000000D03*
X123490000Y-101620000D03*
X125760000Y-100780000D03*
X132220000Y-106830000D03*
X126730000Y-102210000D03*
X128440000Y-105910000D03*
X129790000Y-106800000D03*
X126620000Y-106900000D03*
X151190000Y-91600000D03*
X167280000Y-91050000D03*
X129700000Y-104440000D03*
X130800000Y-105760000D03*
X152180000Y-107760000D03*
X146990000Y-104200000D03*
X143680000Y-107360000D03*
X127889704Y-88452413D03*
X164937026Y-101566582D03*
X171450000Y-97660000D03*
X171000000Y-102890000D03*
X171779990Y-100850000D03*
X167390000Y-86580000D03*
X124290000Y-87940000D03*
X124600000Y-94950000D03*
X123780000Y-103340000D03*
X140340000Y-104880000D03*
X118550000Y-86250000D03*
X117690000Y-87450000D03*
X117690000Y-91270000D03*
X118560000Y-92560000D03*
X118600000Y-95220000D03*
X117690000Y-96500000D03*
X118590000Y-101520000D03*
X117690000Y-100250000D03*
X176950000Y-99370000D03*
X126050000Y-91909998D03*
X129330000Y-91920000D03*
X126510000Y-98350000D03*
X126180000Y-96490000D03*
X130400000Y-99000000D03*
X132100000Y-101030000D03*
X133400000Y-102330000D03*
X152480000Y-92350000D03*
X144310000Y-87970000D03*
%TO.N,+3V3*%
X155140000Y-99170000D03*
X130560000Y-87100000D03*
X162740000Y-99180000D03*
X160435145Y-87974905D03*
X159900000Y-98740000D03*
X164540000Y-97660000D03*
X164820000Y-92520000D03*
X149620000Y-98780000D03*
X154090000Y-97320000D03*
X140130000Y-86030000D03*
X130540000Y-90760000D03*
X145670000Y-98810000D03*
X146530000Y-98800000D03*
X145670000Y-99650000D03*
X146540000Y-99650000D03*
X175540000Y-99370000D03*
X131530000Y-94320010D03*
X153168022Y-91329967D03*
%TO.N,+5V*%
X149440000Y-104860000D03*
X143190000Y-94390000D03*
%TO.N,+1V1*%
X159080260Y-91540011D03*
X157520000Y-96139989D03*
%TO.N,+3.3VA*%
X151860000Y-97880000D03*
%TO.N,SDIO_DAT0*%
X163270000Y-89830000D03*
X128600000Y-95750000D03*
X172520000Y-88960000D03*
%TO.N,SDIO_CLK*%
X161802168Y-91687833D03*
X130450000Y-94780000D03*
X172500000Y-90090000D03*
%TO.N,SDIO_CMD*%
X132650000Y-94550000D03*
X160580006Y-91540021D03*
X172530000Y-91300000D03*
%TO.N,SDIO_DAT3*%
X165290000Y-91330000D03*
X133750000Y-95180000D03*
X172480000Y-93850000D03*
%TO.N,SDIO_DAT2*%
X165400000Y-90120000D03*
X134840000Y-94570000D03*
X172490000Y-92590000D03*
%TO.N,SDIO_DAT1*%
X164323719Y-90084934D03*
X127795025Y-94784975D03*
X172510000Y-87840000D03*
%TO.N,GPIO5*%
X169349949Y-93497609D03*
%TO.N,SPI0_MISO*%
X169355621Y-94497595D03*
%TO.N,SPI0_MOSI*%
X169330000Y-95520000D03*
%TO.N,SPI0_SCK*%
X167750000Y-95590000D03*
%TO.N,UART0_RX*%
X167870000Y-97080000D03*
%TO.N,UART0_TX*%
X166780000Y-97080000D03*
%TO.N,SWDCK*%
X157760000Y-86300000D03*
%TO.N,SWDIO*%
X156760081Y-86312819D03*
%TO.N,ADC3*%
X145840059Y-86890070D03*
%TO.N,ADC2*%
X146840060Y-86888890D03*
%TO.N,ADC1*%
X147840000Y-86900000D03*
%TO.N,ADC0*%
X147840000Y-87970000D03*
%TO.N,GPIO16*%
X156530000Y-87790000D03*
%TO.N,RESET*%
X157472133Y-91792488D03*
X127840000Y-90580000D03*
%TO.N,QSPI_CS*%
X163010000Y-97250000D03*
X135890000Y-86490000D03*
%TO.N,QSPI_D3*%
X160284846Y-96064895D03*
X137520000Y-89780000D03*
%TO.N,QSPI_CLK*%
X161284673Y-96046167D03*
X142440000Y-89030000D03*
%TO.N,QSPI_D0*%
X163738102Y-99118389D03*
X137550000Y-90810000D03*
%TO.N,QSPI_D2*%
X164736841Y-99068147D03*
X135920000Y-89860000D03*
%TO.N,QSPI_D1*%
X161990000Y-95160000D03*
X135889629Y-87679629D03*
%TO.N,LED2_BUILT_IN*%
X162310000Y-89240000D03*
X131520000Y-88120000D03*
%TO.N,LED1_BUILT_IN*%
X162019979Y-92830000D03*
X166490000Y-99120000D03*
X128880000Y-89880000D03*
%TO.N,Net-(J3-PadA4)*%
X163590000Y-101380020D03*
X148900000Y-99980000D03*
%TD*%
D16*
%TO.N,+5V*%
X143190000Y-95000000D02*
X143190000Y-94390000D01*
X143860000Y-95670000D02*
X143190000Y-95000000D01*
X146640000Y-95670000D02*
X143860000Y-95670000D01*
X147920000Y-104050000D02*
X147920000Y-96950000D01*
X148730000Y-104860000D02*
X147920000Y-104050000D01*
X147920000Y-96950000D02*
X146640000Y-95670000D01*
X149440000Y-104860000D02*
X148730000Y-104860000D01*
X124540000Y-81090000D02*
X127080000Y-81090000D01*
X122990000Y-82640000D02*
X124540000Y-81090000D01*
X124760000Y-93470000D02*
X122990000Y-91700000D01*
X142270000Y-93470000D02*
X124760000Y-93470000D01*
X143190000Y-94390000D02*
X142270000Y-93470000D01*
X122990000Y-91700000D02*
X122990000Y-82640000D01*
D17*
%TO.N,+1V1*%
X156240000Y-91560000D02*
X156240000Y-94859989D01*
X156240000Y-94859989D02*
X157520000Y-96139989D01*
X156820000Y-90980000D02*
X156240000Y-91560000D01*
X157950000Y-90980000D02*
X156820000Y-90980000D01*
X158510011Y-91540011D02*
X157950000Y-90980000D01*
X159080260Y-91540011D02*
X158510011Y-91540011D01*
%TO.N,+3.3VA*%
X151160000Y-97180000D02*
X151860000Y-97880000D01*
X149640000Y-97180000D02*
X151160000Y-97180000D01*
X144690000Y-92230000D02*
X149640000Y-97180000D01*
X136070000Y-92230000D02*
X144690000Y-92230000D01*
X133530000Y-89690000D02*
X136070000Y-92230000D01*
X133530000Y-85000000D02*
X133530000Y-89690000D01*
X132160000Y-83630000D02*
X133530000Y-85000000D01*
D18*
%TO.N,SDIO_DAT0*%
X173210001Y-87503999D02*
X172846001Y-87139999D01*
X172846001Y-87139999D02*
X170694303Y-87139999D01*
X173210001Y-88269999D02*
X173210001Y-87503999D01*
X172520000Y-88960000D02*
X173210001Y-88269999D01*
X170694303Y-87139999D02*
X168914321Y-88919981D01*
X168914321Y-88919981D02*
X165379981Y-88919981D01*
X165379981Y-88919981D02*
X164689999Y-88229999D01*
X163610001Y-88229999D02*
X163270000Y-88570000D01*
X164689999Y-88229999D02*
X163610001Y-88229999D01*
X163270000Y-89830000D02*
X163270000Y-88570000D01*
%TO.N,SDIO_CLK*%
X161982167Y-91687833D02*
X161802168Y-91687833D01*
X162280000Y-90220000D02*
X162280000Y-91390000D01*
X161609999Y-88903999D02*
X161609999Y-89549999D01*
X162280000Y-91390000D02*
X161982167Y-91687833D01*
X162684009Y-87829989D02*
X161609999Y-88903999D01*
X173610011Y-87338310D02*
X173011690Y-86739989D01*
X165525698Y-88500000D02*
X164855688Y-87829989D01*
X170528615Y-86739989D02*
X168768604Y-88500000D01*
X168768604Y-88500000D02*
X165525698Y-88500000D01*
X161609999Y-89549999D02*
X162280000Y-90220000D01*
X173610011Y-88905991D02*
X173610011Y-87338310D01*
X173011690Y-86739989D02*
X170528615Y-86739989D01*
X172500000Y-90016002D02*
X173610011Y-88905991D01*
X164855688Y-87829989D02*
X162684009Y-87829989D01*
X172500000Y-90090000D02*
X172500000Y-90016002D01*
%TO.N,SDIO_CMD*%
X160580006Y-91540021D02*
X160580006Y-89368294D01*
X173177379Y-86339979D02*
X170362927Y-86339979D01*
X174010021Y-87172621D02*
X173177379Y-86339979D01*
X174010021Y-89819979D02*
X174010021Y-87172621D01*
X172530000Y-91300000D02*
X174010021Y-89819979D01*
X165691396Y-88100000D02*
X165021377Y-87429979D01*
X168602906Y-88100000D02*
X165691396Y-88100000D01*
X170362927Y-86339979D02*
X168602906Y-88100000D01*
X162518321Y-87429979D02*
X160580006Y-89368294D01*
X165021377Y-87429979D02*
X162518321Y-87429979D01*
%TO.N,SDIO_DAT3*%
X165290000Y-91330000D02*
X166100001Y-90519999D01*
X172480000Y-93840000D02*
X172480000Y-93850000D01*
X168989999Y-90349999D02*
X172480000Y-93840000D01*
X166270001Y-90349999D02*
X168989999Y-90349999D01*
X165290000Y-91330000D02*
X166270001Y-90349999D01*
%TO.N,SDIO_DAT2*%
X168925699Y-89720001D02*
X171265698Y-92060000D01*
X172170000Y-92060000D02*
X172490000Y-92380000D01*
X165799999Y-89720001D02*
X168925699Y-89720001D01*
X171265698Y-92060000D02*
X172170000Y-92060000D01*
X172490000Y-92380000D02*
X172490000Y-92590000D01*
X165400000Y-90120000D02*
X165799999Y-89720001D01*
%TO.N,SDIO_DAT1*%
X165088662Y-89319991D02*
X169080009Y-89319991D01*
X170560000Y-87840000D02*
X172510000Y-87840000D01*
X169080009Y-89319991D02*
X170560000Y-87840000D01*
X164323719Y-90084934D02*
X165088662Y-89319991D01*
%TO.N,SWDCK*%
X158810000Y-82340000D02*
X157560000Y-81090000D01*
X158810000Y-85230000D02*
X158810000Y-82340000D01*
X157760000Y-86280000D02*
X158810000Y-85230000D01*
X157760000Y-86300000D02*
X157760000Y-86280000D01*
%TO.N,SWDIO*%
X156760081Y-86312819D02*
X156760081Y-85410081D01*
X156270000Y-84920000D02*
X156270000Y-82340000D01*
X156270000Y-82340000D02*
X155020000Y-81090000D01*
X156760081Y-85410081D02*
X156270000Y-84920000D01*
%TO.N,GPIO22*%
X149920000Y-83650000D02*
X149940000Y-83630000D01*
%TO.N,ADC1*%
X148680000Y-82350000D02*
X149940000Y-81090000D01*
X148680000Y-86060000D02*
X148680000Y-82350000D01*
X147840000Y-86900000D02*
X148680000Y-86060000D01*
%TO.N,ADC0*%
X151190000Y-82380000D02*
X152480000Y-81090000D01*
X151190000Y-84620000D02*
X151190000Y-82380000D01*
X147840000Y-87970000D02*
X151190000Y-84620000D01*
%TO.N,GPIO16*%
X166450000Y-82360000D02*
X167720000Y-83630000D01*
X166450000Y-80657998D02*
X166450000Y-82360000D01*
X165592002Y-79800000D02*
X166450000Y-80657998D01*
X154607998Y-79800000D02*
X165592002Y-79800000D01*
X153750000Y-80657998D02*
X154607998Y-79800000D01*
X153750000Y-85010000D02*
X153750000Y-80657998D01*
X156530000Y-87790000D02*
X153750000Y-85010000D01*
%TO.N,LED1_BUILT_IN*%
X162019979Y-93379979D02*
X162019979Y-92830000D01*
X162390000Y-93750000D02*
X162019979Y-93379979D01*
X165990000Y-97280001D02*
X165990000Y-95060000D01*
X164680000Y-93750000D02*
X162390000Y-93750000D01*
X165990000Y-95060000D02*
X164680000Y-93750000D01*
X166490000Y-97780001D02*
X165990000Y-97280001D01*
X166490000Y-99120000D02*
X166490000Y-97780001D01*
D16*
%TO.N,Net-(J3-PadA4)*%
X163643507Y-104590010D02*
X150440010Y-104590010D01*
X164200010Y-104033507D02*
X163643507Y-104590010D01*
X164200010Y-101990030D02*
X164200010Y-104033507D01*
X163590000Y-101380020D02*
X164200010Y-101990030D01*
X148900000Y-103050000D02*
X148900000Y-99980000D01*
X150440010Y-104590010D02*
X148900000Y-103050000D01*
%TD*%
D19*
%TO.N,+3V3*%
X153429329Y-79939222D02*
X153426632Y-79936525D01*
X153183411Y-79774010D01*
X152913158Y-79662068D01*
X152626260Y-79605000D01*
X152333740Y-79605000D01*
X152046842Y-79662068D01*
X151776589Y-79774010D01*
X151533368Y-79936525D01*
X151326525Y-80143368D01*
X151210000Y-80317760D01*
X151093475Y-80143368D01*
X150886632Y-79936525D01*
X150643411Y-79774010D01*
X150373158Y-79662068D01*
X150086260Y-79605000D01*
X149793740Y-79605000D01*
X149506842Y-79662068D01*
X149236589Y-79774010D01*
X148993368Y-79936525D01*
X148786525Y-80143368D01*
X148670000Y-80317760D01*
X148553475Y-80143368D01*
X148346632Y-79936525D01*
X148103411Y-79774010D01*
X147833158Y-79662068D01*
X147546260Y-79605000D01*
X147253740Y-79605000D01*
X146966842Y-79662068D01*
X146696589Y-79774010D01*
X146453368Y-79936525D01*
X146246525Y-80143368D01*
X146130000Y-80317760D01*
X146013475Y-80143368D01*
X145806632Y-79936525D01*
X145563411Y-79774010D01*
X145293158Y-79662068D01*
X145006260Y-79605000D01*
X144713740Y-79605000D01*
X144426842Y-79662068D01*
X144156589Y-79774010D01*
X143913368Y-79936525D01*
X143706525Y-80143368D01*
X143590000Y-80317760D01*
X143473475Y-80143368D01*
X143266632Y-79936525D01*
X143023411Y-79774010D01*
X142753158Y-79662068D01*
X142466260Y-79605000D01*
X142173740Y-79605000D01*
X141886842Y-79662068D01*
X141616589Y-79774010D01*
X141373368Y-79936525D01*
X141166525Y-80143368D01*
X141050000Y-80317760D01*
X140933475Y-80143368D01*
X140726632Y-79936525D01*
X140483411Y-79774010D01*
X140213158Y-79662068D01*
X139926260Y-79605000D01*
X139633740Y-79605000D01*
X139346842Y-79662068D01*
X139076589Y-79774010D01*
X138833368Y-79936525D01*
X138626525Y-80143368D01*
X138510000Y-80317760D01*
X138393475Y-80143368D01*
X138186632Y-79936525D01*
X137943411Y-79774010D01*
X137673158Y-79662068D01*
X137386260Y-79605000D01*
X137093740Y-79605000D01*
X136806842Y-79662068D01*
X136536589Y-79774010D01*
X136293368Y-79936525D01*
X136086525Y-80143368D01*
X135970000Y-80317760D01*
X135853475Y-80143368D01*
X135646632Y-79936525D01*
X135403411Y-79774010D01*
X135133158Y-79662068D01*
X134846260Y-79605000D01*
X134553740Y-79605000D01*
X134266842Y-79662068D01*
X133996589Y-79774010D01*
X133753368Y-79936525D01*
X133546525Y-80143368D01*
X133430000Y-80317760D01*
X133313475Y-80143368D01*
X133106632Y-79936525D01*
X132863411Y-79774010D01*
X132593158Y-79662068D01*
X132306260Y-79605000D01*
X132013740Y-79605000D01*
X131726842Y-79662068D01*
X131456589Y-79774010D01*
X131213368Y-79936525D01*
X131006525Y-80143368D01*
X130890000Y-80317760D01*
X130773475Y-80143368D01*
X130566632Y-79936525D01*
X130323411Y-79774010D01*
X130053158Y-79662068D01*
X129766260Y-79605000D01*
X129473740Y-79605000D01*
X129186842Y-79662068D01*
X128916589Y-79774010D01*
X128673368Y-79936525D01*
X128466525Y-80143368D01*
X128350000Y-80317760D01*
X128233475Y-80143368D01*
X128026632Y-79936525D01*
X127783411Y-79774010D01*
X127513158Y-79662068D01*
X127226260Y-79605000D01*
X126933740Y-79605000D01*
X126646842Y-79662068D01*
X126376589Y-79774010D01*
X126133368Y-79936525D01*
X125926525Y-80143368D01*
X125885344Y-80205000D01*
X125734656Y-80205000D01*
X125693475Y-80143368D01*
X125486632Y-79936525D01*
X125243411Y-79774010D01*
X124973158Y-79662068D01*
X124686260Y-79605000D01*
X124393740Y-79605000D01*
X124106842Y-79662068D01*
X123836589Y-79774010D01*
X123593368Y-79936525D01*
X123386525Y-80143368D01*
X123224010Y-80386589D01*
X123112068Y-80656842D01*
X123055000Y-80943740D01*
X123055000Y-81236260D01*
X123069461Y-81308960D01*
X122394951Y-81983471D01*
X122361184Y-82011183D01*
X122333471Y-82044951D01*
X122333468Y-82044954D01*
X122250590Y-82145941D01*
X122168412Y-82299687D01*
X122117805Y-82466510D01*
X122100719Y-82640000D01*
X122105001Y-82683479D01*
X122105000Y-91656531D01*
X122100719Y-91700000D01*
X122105000Y-91743469D01*
X122105000Y-91743476D01*
X122110075Y-91795000D01*
X122117805Y-91873490D01*
X122130120Y-91914086D01*
X122168411Y-92040312D01*
X122250589Y-92194058D01*
X122361183Y-92328817D01*
X122394956Y-92356534D01*
X124086648Y-94048227D01*
X123940226Y-94146063D01*
X123796063Y-94290226D01*
X123682795Y-94459744D01*
X123604774Y-94648102D01*
X123565000Y-94848061D01*
X123565000Y-95051939D01*
X123604774Y-95251898D01*
X123682795Y-95440256D01*
X123796063Y-95609774D01*
X123940226Y-95753937D01*
X124109744Y-95867205D01*
X124298102Y-95945226D01*
X124498061Y-95985000D01*
X124701939Y-95985000D01*
X124901898Y-95945226D01*
X125090256Y-95867205D01*
X125259774Y-95753937D01*
X125403937Y-95609774D01*
X125517205Y-95440256D01*
X125595226Y-95251898D01*
X125635000Y-95051939D01*
X125635000Y-94848061D01*
X125595226Y-94648102D01*
X125517205Y-94459744D01*
X125447217Y-94355000D01*
X126852851Y-94355000D01*
X126799799Y-94483077D01*
X126760025Y-94683036D01*
X126760025Y-94886914D01*
X126799799Y-95086873D01*
X126877820Y-95275231D01*
X126991088Y-95444749D01*
X127135251Y-95588912D01*
X127304769Y-95702180D01*
X127493127Y-95780201D01*
X127565000Y-95794497D01*
X127565000Y-95851939D01*
X127604774Y-96051898D01*
X127682795Y-96240256D01*
X127796063Y-96409774D01*
X127940226Y-96553937D01*
X128109744Y-96667205D01*
X128298102Y-96745226D01*
X128498061Y-96785000D01*
X128701939Y-96785000D01*
X128901898Y-96745226D01*
X129090256Y-96667205D01*
X129259774Y-96553937D01*
X129403937Y-96409774D01*
X129517205Y-96240256D01*
X129595226Y-96051898D01*
X129635000Y-95851939D01*
X129635000Y-95648061D01*
X129595226Y-95448102D01*
X129517205Y-95259744D01*
X129403937Y-95090226D01*
X129259774Y-94946063D01*
X129090256Y-94832795D01*
X128901898Y-94754774D01*
X128830025Y-94740478D01*
X128830025Y-94683036D01*
X128790251Y-94483077D01*
X128737199Y-94355000D01*
X129505765Y-94355000D01*
X129454774Y-94478102D01*
X129415000Y-94678061D01*
X129415000Y-94881939D01*
X129454774Y-95081898D01*
X129532795Y-95270256D01*
X129646063Y-95439774D01*
X129790226Y-95583937D01*
X129959744Y-95697205D01*
X130148102Y-95775226D01*
X130348061Y-95815000D01*
X130551939Y-95815000D01*
X130751898Y-95775226D01*
X130940256Y-95697205D01*
X131109774Y-95583937D01*
X131253937Y-95439774D01*
X131367205Y-95270256D01*
X131445226Y-95081898D01*
X131485000Y-94881939D01*
X131485000Y-94678061D01*
X131445226Y-94478102D01*
X131394235Y-94355000D01*
X131633511Y-94355000D01*
X131615000Y-94448061D01*
X131615000Y-94651939D01*
X131654774Y-94851898D01*
X131732795Y-95040256D01*
X131846063Y-95209774D01*
X131990226Y-95353937D01*
X132159744Y-95467205D01*
X132348102Y-95545226D01*
X132548061Y-95585000D01*
X132751939Y-95585000D01*
X132794014Y-95576631D01*
X132832795Y-95670256D01*
X132946063Y-95839774D01*
X133090226Y-95983937D01*
X133259744Y-96097205D01*
X133448102Y-96175226D01*
X133648061Y-96215000D01*
X133851939Y-96215000D01*
X134051898Y-96175226D01*
X134240256Y-96097205D01*
X134409774Y-95983937D01*
X134553937Y-95839774D01*
X134667205Y-95670256D01*
X134697571Y-95596946D01*
X134738061Y-95605000D01*
X134941939Y-95605000D01*
X135141898Y-95565226D01*
X135330256Y-95487205D01*
X135499774Y-95373937D01*
X135643937Y-95229774D01*
X135757205Y-95060256D01*
X135835226Y-94871898D01*
X135875000Y-94671939D01*
X135875000Y-94468061D01*
X135852511Y-94355000D01*
X141903422Y-94355000D01*
X142183465Y-94635044D01*
X142194774Y-94691898D01*
X142272795Y-94880256D01*
X142305000Y-94928454D01*
X142305000Y-94956531D01*
X142300719Y-95000000D01*
X142305000Y-95043469D01*
X142305000Y-95043476D01*
X142312346Y-95118061D01*
X142317805Y-95173490D01*
X142318549Y-95175941D01*
X142368411Y-95340312D01*
X142450589Y-95494058D01*
X142561183Y-95628817D01*
X142594956Y-95656534D01*
X143203470Y-96265049D01*
X143231183Y-96298817D01*
X143264951Y-96326530D01*
X143264953Y-96326532D01*
X143276567Y-96336063D01*
X143365941Y-96409411D01*
X143519687Y-96491589D01*
X143686510Y-96542195D01*
X143816523Y-96555000D01*
X143816533Y-96555000D01*
X143859999Y-96559281D01*
X143903466Y-96555000D01*
X146273422Y-96555000D01*
X147035001Y-97316580D01*
X147035000Y-103165000D01*
X146888061Y-103165000D01*
X146688102Y-103204774D01*
X146499744Y-103282795D01*
X146330226Y-103396063D01*
X146186063Y-103540226D01*
X146072795Y-103709744D01*
X145994774Y-103898102D01*
X145955000Y-104098061D01*
X145955000Y-104301939D01*
X145994774Y-104501898D01*
X146072795Y-104690256D01*
X146186063Y-104859774D01*
X146330226Y-105003937D01*
X146499744Y-105117205D01*
X146688102Y-105195226D01*
X146888061Y-105235000D01*
X147091939Y-105235000D01*
X147291898Y-105195226D01*
X147480256Y-105117205D01*
X147633340Y-105014918D01*
X148073470Y-105455049D01*
X148101183Y-105488817D01*
X148134951Y-105516530D01*
X148134953Y-105516532D01*
X148202592Y-105572042D01*
X148235941Y-105599411D01*
X148389687Y-105681589D01*
X148502385Y-105715776D01*
X148556509Y-105732195D01*
X148571306Y-105733652D01*
X148686523Y-105745000D01*
X148686531Y-105745000D01*
X148730000Y-105749281D01*
X148773469Y-105745000D01*
X148901546Y-105745000D01*
X148949744Y-105777205D01*
X149138102Y-105855226D01*
X149338061Y-105895000D01*
X149541939Y-105895000D01*
X149741898Y-105855226D01*
X149930256Y-105777205D01*
X150099774Y-105663937D01*
X150243937Y-105519774D01*
X150281423Y-105463673D01*
X150396533Y-105475010D01*
X150396543Y-105475010D01*
X150440009Y-105479291D01*
X150483476Y-105475010D01*
X163600038Y-105475010D01*
X163643507Y-105479291D01*
X163686976Y-105475010D01*
X163686984Y-105475010D01*
X163816997Y-105462205D01*
X163983820Y-105411599D01*
X164137566Y-105329421D01*
X164272324Y-105218827D01*
X164296775Y-105189033D01*
X175529545Y-105189033D01*
X175529545Y-105590967D01*
X175607958Y-105985179D01*
X175761772Y-106356518D01*
X175985075Y-106690714D01*
X176269286Y-106974925D01*
X176603482Y-107198228D01*
X176974821Y-107352042D01*
X177369033Y-107430455D01*
X177770967Y-107430455D01*
X178165179Y-107352042D01*
X178536518Y-107198228D01*
X178870714Y-106974925D01*
X179154925Y-106690714D01*
X179378228Y-106356518D01*
X179532042Y-105985179D01*
X179610455Y-105590967D01*
X179610455Y-105189033D01*
X179532042Y-104794821D01*
X179378228Y-104423482D01*
X179154925Y-104089286D01*
X178870714Y-103805075D01*
X178536518Y-103581772D01*
X178165179Y-103427958D01*
X177770967Y-103349545D01*
X177369033Y-103349545D01*
X176974821Y-103427958D01*
X176603482Y-103581772D01*
X176269286Y-103805075D01*
X175985075Y-104089286D01*
X175761772Y-104423482D01*
X175607958Y-104794821D01*
X175529545Y-105189033D01*
X164296775Y-105189033D01*
X164300041Y-105185054D01*
X164795054Y-104690041D01*
X164828827Y-104662324D01*
X164939421Y-104527566D01*
X165021599Y-104373820D01*
X165072205Y-104206997D01*
X165085010Y-104076984D01*
X165085010Y-104076974D01*
X165089291Y-104033508D01*
X165085010Y-103990042D01*
X165085010Y-102788061D01*
X169965000Y-102788061D01*
X169965000Y-102991939D01*
X170004774Y-103191898D01*
X170082795Y-103380256D01*
X170196063Y-103549774D01*
X170340226Y-103693937D01*
X170509744Y-103807205D01*
X170698102Y-103885226D01*
X170898061Y-103925000D01*
X171101939Y-103925000D01*
X171301898Y-103885226D01*
X171490256Y-103807205D01*
X171659774Y-103693937D01*
X171803937Y-103549774D01*
X171917205Y-103380256D01*
X171995226Y-103191898D01*
X172035000Y-102991939D01*
X172035000Y-102788061D01*
X171995226Y-102588102D01*
X171917205Y-102399744D01*
X171803937Y-102230226D01*
X171659774Y-102086063D01*
X171490256Y-101972795D01*
X171301898Y-101894774D01*
X171101939Y-101855000D01*
X170898061Y-101855000D01*
X170698102Y-101894774D01*
X170509744Y-101972795D01*
X170340226Y-102086063D01*
X170196063Y-102230226D01*
X170082795Y-102399744D01*
X170004774Y-102588102D01*
X169965000Y-102788061D01*
X165085010Y-102788061D01*
X165085010Y-102592423D01*
X165238924Y-102561808D01*
X165427282Y-102483787D01*
X165596800Y-102370519D01*
X165740963Y-102226356D01*
X165854231Y-102056838D01*
X165932252Y-101868480D01*
X165972026Y-101668521D01*
X165972026Y-101464643D01*
X165932252Y-101264684D01*
X165854231Y-101076326D01*
X165740963Y-100906808D01*
X165596800Y-100762645D01*
X165574974Y-100748061D01*
X170744990Y-100748061D01*
X170744990Y-100951939D01*
X170784764Y-101151898D01*
X170862785Y-101340256D01*
X170976053Y-101509774D01*
X171120216Y-101653937D01*
X171289734Y-101767205D01*
X171478092Y-101845226D01*
X171678051Y-101885000D01*
X171881929Y-101885000D01*
X172081888Y-101845226D01*
X172270246Y-101767205D01*
X172439764Y-101653937D01*
X172583927Y-101509774D01*
X172697195Y-101340256D01*
X172775216Y-101151898D01*
X172814990Y-100951939D01*
X172814990Y-100748061D01*
X172775216Y-100548102D01*
X172697195Y-100359744D01*
X172583927Y-100190226D01*
X172439764Y-100046063D01*
X172270246Y-99932795D01*
X172081888Y-99854774D01*
X171881929Y-99815000D01*
X171678051Y-99815000D01*
X171478092Y-99854774D01*
X171289734Y-99932795D01*
X171120216Y-100046063D01*
X170976053Y-100190226D01*
X170862785Y-100359744D01*
X170784764Y-100548102D01*
X170744990Y-100748061D01*
X165574974Y-100748061D01*
X165427282Y-100649377D01*
X165238924Y-100571356D01*
X165038965Y-100531582D01*
X164835087Y-100531582D01*
X164635128Y-100571356D01*
X164446770Y-100649377D01*
X164372616Y-100698925D01*
X164249774Y-100576083D01*
X164080256Y-100462815D01*
X163891898Y-100384794D01*
X163691939Y-100345020D01*
X163488061Y-100345020D01*
X163288102Y-100384794D01*
X163099744Y-100462815D01*
X162930226Y-100576083D01*
X162786063Y-100720246D01*
X162709489Y-100834847D01*
X162511386Y-100795442D01*
X162307508Y-100795442D01*
X162107549Y-100835216D01*
X161919191Y-100913237D01*
X161749673Y-101026505D01*
X161605510Y-101170668D01*
X161492242Y-101340186D01*
X161414221Y-101528544D01*
X161374447Y-101728503D01*
X161374447Y-101932381D01*
X161414221Y-102132340D01*
X161492242Y-102320698D01*
X161605510Y-102490216D01*
X161749673Y-102634379D01*
X161788018Y-102660000D01*
X161725448Y-102660000D01*
X161539978Y-102696892D01*
X161365269Y-102769259D01*
X161208036Y-102874319D01*
X161074319Y-103008036D01*
X160969259Y-103165269D01*
X160896892Y-103339978D01*
X160860000Y-103525448D01*
X160860000Y-103705010D01*
X157000000Y-103705010D01*
X157000000Y-103525448D01*
X156963108Y-103339978D01*
X156890741Y-103165269D01*
X156785681Y-103008036D01*
X156651964Y-102874319D01*
X156494731Y-102769259D01*
X156320022Y-102696892D01*
X156134552Y-102660000D01*
X155945448Y-102660000D01*
X155759978Y-102696892D01*
X155745000Y-102703096D01*
X155745000Y-102484248D01*
X155728577Y-102317501D01*
X155663676Y-102103553D01*
X155558284Y-101906377D01*
X155416449Y-101733551D01*
X155243623Y-101591716D01*
X155046446Y-101486324D01*
X154832498Y-101421423D01*
X154610000Y-101399509D01*
X154387501Y-101421423D01*
X154324305Y-101440594D01*
X154199774Y-101316063D01*
X154030256Y-101202795D01*
X153841898Y-101124774D01*
X153641939Y-101085000D01*
X153438061Y-101085000D01*
X153238102Y-101124774D01*
X153049744Y-101202795D01*
X152880226Y-101316063D01*
X152736063Y-101460226D01*
X152622795Y-101629744D01*
X152544774Y-101818102D01*
X152505000Y-102018061D01*
X152505000Y-102221939D01*
X152544774Y-102421898D01*
X152622795Y-102610256D01*
X152736063Y-102779774D01*
X152880226Y-102923937D01*
X153049744Y-103037205D01*
X153238102Y-103115226D01*
X153438061Y-103155000D01*
X153475000Y-103155000D01*
X153475000Y-103695752D01*
X153475912Y-103705010D01*
X150806589Y-103705010D01*
X149785000Y-102683422D01*
X149785000Y-100518454D01*
X149817205Y-100470256D01*
X149895226Y-100281898D01*
X149935000Y-100081939D01*
X149935000Y-99958040D01*
X153605000Y-99958040D01*
X153605000Y-100161918D01*
X153644774Y-100361877D01*
X153722795Y-100550235D01*
X153836063Y-100719753D01*
X153980226Y-100863916D01*
X154149744Y-100977184D01*
X154338102Y-101055205D01*
X154538061Y-101094979D01*
X154741939Y-101094979D01*
X154941898Y-101055205D01*
X155130256Y-100977184D01*
X155299774Y-100863916D01*
X155443937Y-100719753D01*
X155557205Y-100550235D01*
X155635226Y-100361877D01*
X155675000Y-100161918D01*
X155675000Y-99998051D01*
X159575000Y-99998051D01*
X159575000Y-100201929D01*
X159614774Y-100401888D01*
X159692795Y-100590246D01*
X159806063Y-100759764D01*
X159950226Y-100903927D01*
X160119744Y-101017195D01*
X160308102Y-101095216D01*
X160508061Y-101134990D01*
X160711939Y-101134990D01*
X160911898Y-101095216D01*
X161100256Y-101017195D01*
X161269774Y-100903927D01*
X161413937Y-100759764D01*
X161527205Y-100590246D01*
X161605226Y-100401888D01*
X161645000Y-100201929D01*
X161645000Y-99998051D01*
X161605226Y-99798092D01*
X161527205Y-99609734D01*
X161413937Y-99440216D01*
X161269774Y-99296053D01*
X161100256Y-99182785D01*
X160911898Y-99104764D01*
X160711939Y-99064990D01*
X160508061Y-99064990D01*
X160308102Y-99104764D01*
X160119744Y-99182785D01*
X159950226Y-99296053D01*
X159806063Y-99440216D01*
X159692795Y-99609734D01*
X159614774Y-99798092D01*
X159575000Y-99998051D01*
X155675000Y-99998051D01*
X155675000Y-99958040D01*
X155635226Y-99758081D01*
X155557205Y-99569723D01*
X155443937Y-99400205D01*
X155299774Y-99256042D01*
X155130256Y-99142774D01*
X154941898Y-99064753D01*
X154741939Y-99024979D01*
X154538061Y-99024979D01*
X154338102Y-99064753D01*
X154149744Y-99142774D01*
X153980226Y-99256042D01*
X153836063Y-99400205D01*
X153722795Y-99569723D01*
X153644774Y-99758081D01*
X153605000Y-99958040D01*
X149935000Y-99958040D01*
X149935000Y-99878061D01*
X149895226Y-99678102D01*
X149817205Y-99489744D01*
X149703937Y-99320226D01*
X149559774Y-99176063D01*
X149390256Y-99062795D01*
X149201898Y-98984774D01*
X149001939Y-98945000D01*
X148805000Y-98945000D01*
X148805000Y-97455158D01*
X149057658Y-97707816D01*
X149082236Y-97737764D01*
X149112184Y-97762342D01*
X149112187Y-97762345D01*
X149126625Y-97774194D01*
X149201767Y-97835862D01*
X149338140Y-97908754D01*
X149486112Y-97953641D01*
X149500490Y-97955057D01*
X149601439Y-97965000D01*
X149601446Y-97965000D01*
X149639999Y-97968797D01*
X149678552Y-97965000D01*
X150825000Y-97965000D01*
X150825000Y-97981939D01*
X150864774Y-98181898D01*
X150942795Y-98370256D01*
X151056063Y-98539774D01*
X151200226Y-98683937D01*
X151369744Y-98797205D01*
X151558102Y-98875226D01*
X151758061Y-98915000D01*
X151961939Y-98915000D01*
X152161898Y-98875226D01*
X152350256Y-98797205D01*
X152519774Y-98683937D01*
X152663937Y-98539774D01*
X152777205Y-98370256D01*
X152855226Y-98181898D01*
X152895000Y-97981939D01*
X152895000Y-97778061D01*
X152891513Y-97760532D01*
X153020256Y-97707205D01*
X153189774Y-97593937D01*
X153333937Y-97449774D01*
X153447205Y-97280256D01*
X153525226Y-97091898D01*
X153565000Y-96891939D01*
X153565000Y-96688061D01*
X153525226Y-96488102D01*
X153447205Y-96299744D01*
X153333937Y-96130226D01*
X153189774Y-95986063D01*
X153020256Y-95872795D01*
X152831898Y-95794774D01*
X152631939Y-95755000D01*
X152428061Y-95755000D01*
X152228102Y-95794774D01*
X152039744Y-95872795D01*
X151870226Y-95986063D01*
X151726063Y-96130226D01*
X151612795Y-96299744D01*
X151534774Y-96488102D01*
X151534393Y-96490015D01*
X151461860Y-96451246D01*
X151313887Y-96406359D01*
X151198561Y-96395000D01*
X151198553Y-96395000D01*
X151160000Y-96391203D01*
X151121447Y-96395000D01*
X149965158Y-96395000D01*
X145272347Y-91702190D01*
X145247764Y-91672236D01*
X145128233Y-91574138D01*
X144991860Y-91501246D01*
X144981361Y-91498061D01*
X150155000Y-91498061D01*
X150155000Y-91701939D01*
X150194774Y-91901898D01*
X150272795Y-92090256D01*
X150386063Y-92259774D01*
X150530226Y-92403937D01*
X150699744Y-92517205D01*
X150888102Y-92595226D01*
X151088061Y-92635000D01*
X151291939Y-92635000D01*
X151474201Y-92598746D01*
X151484774Y-92651898D01*
X151562795Y-92840256D01*
X151676063Y-93009774D01*
X151820226Y-93153937D01*
X151989744Y-93267205D01*
X152178102Y-93345226D01*
X152378061Y-93385000D01*
X152581939Y-93385000D01*
X152781898Y-93345226D01*
X152970256Y-93267205D01*
X153139774Y-93153937D01*
X153283937Y-93009774D01*
X153397205Y-92840256D01*
X153475226Y-92651898D01*
X153515000Y-92451939D01*
X153515000Y-92248061D01*
X153475226Y-92048102D01*
X153397205Y-91859744D01*
X153283937Y-91690226D01*
X153139774Y-91546063D01*
X152970256Y-91432795D01*
X152781898Y-91354774D01*
X152581939Y-91315000D01*
X152378061Y-91315000D01*
X152195799Y-91351254D01*
X152185226Y-91298102D01*
X152107205Y-91109744D01*
X151993937Y-90940226D01*
X151849774Y-90796063D01*
X151680256Y-90682795D01*
X151491898Y-90604774D01*
X151291939Y-90565000D01*
X151088061Y-90565000D01*
X150888102Y-90604774D01*
X150699744Y-90682795D01*
X150530226Y-90796063D01*
X150386063Y-90940226D01*
X150272795Y-91109744D01*
X150194774Y-91298102D01*
X150155000Y-91498061D01*
X144981361Y-91498061D01*
X144843887Y-91456359D01*
X144728561Y-91445000D01*
X144728553Y-91445000D01*
X144690000Y-91441203D01*
X144651447Y-91445000D01*
X138370490Y-91445000D01*
X138467205Y-91300256D01*
X138545226Y-91111898D01*
X138585000Y-90911939D01*
X138585000Y-90708061D01*
X138545226Y-90508102D01*
X138467205Y-90319744D01*
X138435672Y-90272551D01*
X138437205Y-90270256D01*
X138515226Y-90081898D01*
X138555000Y-89881939D01*
X138555000Y-89678061D01*
X138515226Y-89478102D01*
X138437205Y-89289744D01*
X138323937Y-89120226D01*
X138179774Y-88976063D01*
X138107934Y-88928061D01*
X141405000Y-88928061D01*
X141405000Y-89131939D01*
X141444774Y-89331898D01*
X141522795Y-89520256D01*
X141636063Y-89689774D01*
X141780226Y-89833937D01*
X141949744Y-89947205D01*
X142138102Y-90025226D01*
X142338061Y-90065000D01*
X142541939Y-90065000D01*
X142741898Y-90025226D01*
X142930256Y-89947205D01*
X143099774Y-89833937D01*
X143243937Y-89689774D01*
X143357205Y-89520256D01*
X143435226Y-89331898D01*
X143475000Y-89131939D01*
X143475000Y-88928061D01*
X143435226Y-88728102D01*
X143357205Y-88539744D01*
X143243937Y-88370226D01*
X143099774Y-88226063D01*
X142930256Y-88112795D01*
X142741898Y-88034774D01*
X142541939Y-87995000D01*
X142338061Y-87995000D01*
X142138102Y-88034774D01*
X141949744Y-88112795D01*
X141780226Y-88226063D01*
X141636063Y-88370226D01*
X141522795Y-88539744D01*
X141444774Y-88728102D01*
X141405000Y-88928061D01*
X138107934Y-88928061D01*
X138010256Y-88862795D01*
X137821898Y-88784774D01*
X137621939Y-88745000D01*
X137418061Y-88745000D01*
X137218102Y-88784774D01*
X137029744Y-88862795D01*
X136860226Y-88976063D01*
X136716063Y-89120226D01*
X136687173Y-89163462D01*
X136579774Y-89056063D01*
X136410256Y-88942795D01*
X136221898Y-88864774D01*
X136021939Y-88825000D01*
X135818061Y-88825000D01*
X135618102Y-88864774D01*
X135429744Y-88942795D01*
X135260226Y-89056063D01*
X135116063Y-89200226D01*
X135002795Y-89369744D01*
X134924774Y-89558102D01*
X134885000Y-89758061D01*
X134885000Y-89934843D01*
X134315000Y-89364843D01*
X134315000Y-87577690D01*
X134854629Y-87577690D01*
X134854629Y-87781568D01*
X134894403Y-87981527D01*
X134972424Y-88169885D01*
X135085692Y-88339403D01*
X135229855Y-88483566D01*
X135399373Y-88596834D01*
X135587731Y-88674855D01*
X135787690Y-88714629D01*
X135991568Y-88714629D01*
X136191527Y-88674855D01*
X136379885Y-88596834D01*
X136549403Y-88483566D01*
X136693566Y-88339403D01*
X136806834Y-88169885D01*
X136884855Y-87981527D01*
X136924629Y-87781568D01*
X136924629Y-87577690D01*
X136884855Y-87377731D01*
X136806834Y-87189373D01*
X136737156Y-87085092D01*
X136807205Y-86980256D01*
X136885226Y-86791898D01*
X136925000Y-86591939D01*
X136925000Y-86388061D01*
X136885226Y-86188102D01*
X136807205Y-85999744D01*
X136693937Y-85830226D01*
X136549774Y-85686063D01*
X136380256Y-85572795D01*
X136191898Y-85494774D01*
X135991939Y-85455000D01*
X135788061Y-85455000D01*
X135588102Y-85494774D01*
X135399744Y-85572795D01*
X135230226Y-85686063D01*
X135086063Y-85830226D01*
X134972795Y-85999744D01*
X134894774Y-86188102D01*
X134855000Y-86388061D01*
X134855000Y-86591939D01*
X134894774Y-86791898D01*
X134972795Y-86980256D01*
X135042473Y-87084537D01*
X134972424Y-87189373D01*
X134894403Y-87377731D01*
X134854629Y-87577690D01*
X134315000Y-87577690D01*
X134315000Y-85067511D01*
X134553740Y-85115000D01*
X134846260Y-85115000D01*
X135133158Y-85057932D01*
X135403411Y-84945990D01*
X135646632Y-84783475D01*
X135853475Y-84576632D01*
X135970000Y-84402240D01*
X136086525Y-84576632D01*
X136293368Y-84783475D01*
X136536589Y-84945990D01*
X136806842Y-85057932D01*
X137093740Y-85115000D01*
X137386260Y-85115000D01*
X137673158Y-85057932D01*
X137943411Y-84945990D01*
X138186632Y-84783475D01*
X138393475Y-84576632D01*
X138510000Y-84402240D01*
X138626525Y-84576632D01*
X138833368Y-84783475D01*
X139076589Y-84945990D01*
X139346842Y-85057932D01*
X139633740Y-85115000D01*
X139926260Y-85115000D01*
X140213158Y-85057932D01*
X140483411Y-84945990D01*
X140726632Y-84783475D01*
X140933475Y-84576632D01*
X141050000Y-84402240D01*
X141166525Y-84576632D01*
X141373368Y-84783475D01*
X141616589Y-84945990D01*
X141886842Y-85057932D01*
X142173740Y-85115000D01*
X142466260Y-85115000D01*
X142753158Y-85057932D01*
X143023411Y-84945990D01*
X143266632Y-84783475D01*
X143473475Y-84576632D01*
X143595195Y-84394466D01*
X143664822Y-84511355D01*
X143859731Y-84727588D01*
X144093080Y-84901641D01*
X144355901Y-85026825D01*
X144503110Y-85071476D01*
X144733000Y-84950155D01*
X144733000Y-83757000D01*
X144713000Y-83757000D01*
X144713000Y-83503000D01*
X144733000Y-83503000D01*
X144733000Y-83483000D01*
X144987000Y-83483000D01*
X144987000Y-83503000D01*
X145007000Y-83503000D01*
X145007000Y-83757000D01*
X144987000Y-83757000D01*
X144987000Y-84950155D01*
X145216890Y-85071476D01*
X145364099Y-85026825D01*
X145626920Y-84901641D01*
X145860269Y-84727588D01*
X146055178Y-84511355D01*
X146124805Y-84394466D01*
X146246525Y-84576632D01*
X146453368Y-84783475D01*
X146696589Y-84945990D01*
X146966842Y-85057932D01*
X147253740Y-85115000D01*
X147546260Y-85115000D01*
X147833158Y-85057932D01*
X147945000Y-85011606D01*
X147945000Y-85755553D01*
X147835553Y-85865000D01*
X147738061Y-85865000D01*
X147538102Y-85904774D01*
X147349744Y-85982795D01*
X147348344Y-85983731D01*
X147330316Y-85971685D01*
X147141958Y-85893664D01*
X146941999Y-85853890D01*
X146738121Y-85853890D01*
X146538162Y-85893664D01*
X146349804Y-85971685D01*
X146339177Y-85978786D01*
X146330315Y-85972865D01*
X146141957Y-85894844D01*
X145941998Y-85855070D01*
X145738120Y-85855070D01*
X145538161Y-85894844D01*
X145349803Y-85972865D01*
X145180285Y-86086133D01*
X145036122Y-86230296D01*
X144922854Y-86399814D01*
X144844833Y-86588172D01*
X144805059Y-86788131D01*
X144805059Y-86992009D01*
X144819739Y-87065813D01*
X144800256Y-87052795D01*
X144611898Y-86974774D01*
X144411939Y-86935000D01*
X144208061Y-86935000D01*
X144008102Y-86974774D01*
X143819744Y-87052795D01*
X143650226Y-87166063D01*
X143506063Y-87310226D01*
X143392795Y-87479744D01*
X143314774Y-87668102D01*
X143275000Y-87868061D01*
X143275000Y-88071939D01*
X143314774Y-88271898D01*
X143392795Y-88460256D01*
X143506063Y-88629774D01*
X143650226Y-88773937D01*
X143819744Y-88887205D01*
X144008102Y-88965226D01*
X144208061Y-89005000D01*
X144411939Y-89005000D01*
X144611898Y-88965226D01*
X144800256Y-88887205D01*
X144969774Y-88773937D01*
X145113937Y-88629774D01*
X145227205Y-88460256D01*
X145305226Y-88271898D01*
X145345000Y-88071939D01*
X145345000Y-87868061D01*
X145330320Y-87794257D01*
X145349803Y-87807275D01*
X145538161Y-87885296D01*
X145738120Y-87925070D01*
X145941998Y-87925070D01*
X146141957Y-87885296D01*
X146330315Y-87807275D01*
X146340942Y-87800174D01*
X146349804Y-87806095D01*
X146538162Y-87884116D01*
X146738121Y-87923890D01*
X146805000Y-87923890D01*
X146805000Y-88071939D01*
X146844774Y-88271898D01*
X146922795Y-88460256D01*
X147036063Y-88629774D01*
X147180226Y-88773937D01*
X147349744Y-88887205D01*
X147538102Y-88965226D01*
X147738061Y-89005000D01*
X147941939Y-89005000D01*
X148141898Y-88965226D01*
X148330256Y-88887205D01*
X148499774Y-88773937D01*
X148643937Y-88629774D01*
X148757205Y-88460256D01*
X148835226Y-88271898D01*
X148875000Y-88071939D01*
X148875000Y-87974446D01*
X151684197Y-85165250D01*
X151712237Y-85142238D01*
X151735250Y-85114197D01*
X151735253Y-85114194D01*
X151804086Y-85030321D01*
X151804087Y-85030320D01*
X151836007Y-84970602D01*
X152046842Y-85057932D01*
X152333740Y-85115000D01*
X152626260Y-85115000D01*
X152913158Y-85057932D01*
X153012127Y-85016938D01*
X153025635Y-85154084D01*
X153067663Y-85292632D01*
X153135913Y-85420319D01*
X153227762Y-85532237D01*
X153255808Y-85555254D01*
X155495000Y-87794447D01*
X155495000Y-87891939D01*
X155534774Y-88091898D01*
X155612795Y-88280256D01*
X155726063Y-88449774D01*
X155870226Y-88593937D01*
X156039744Y-88707205D01*
X156228102Y-88785226D01*
X156428061Y-88825000D01*
X156631939Y-88825000D01*
X156831898Y-88785226D01*
X157020256Y-88707205D01*
X157189774Y-88593937D01*
X157333937Y-88449774D01*
X157447205Y-88280256D01*
X157525226Y-88091898D01*
X157565000Y-87891939D01*
X157565000Y-87688061D01*
X157532780Y-87526077D01*
X157542795Y-87550256D01*
X157656063Y-87719774D01*
X157800226Y-87863937D01*
X157969744Y-87977205D01*
X158158102Y-88055226D01*
X158358061Y-88095000D01*
X158561939Y-88095000D01*
X158761898Y-88055226D01*
X158950256Y-87977205D01*
X158990000Y-87950649D01*
X159029744Y-87977205D01*
X159218102Y-88055226D01*
X159418061Y-88095000D01*
X159621939Y-88095000D01*
X159821898Y-88055226D01*
X160010256Y-87977205D01*
X160179774Y-87863937D01*
X160323937Y-87719774D01*
X160437205Y-87550256D01*
X160515226Y-87361898D01*
X160555000Y-87161939D01*
X160555000Y-86958061D01*
X160515226Y-86758102D01*
X160437205Y-86569744D01*
X160323937Y-86400226D01*
X160179774Y-86256063D01*
X160010256Y-86142795D01*
X159821898Y-86064774D01*
X159621939Y-86025000D01*
X159418061Y-86025000D01*
X159218102Y-86064774D01*
X159029744Y-86142795D01*
X158990000Y-86169351D01*
X158950256Y-86142795D01*
X158940636Y-86138810D01*
X159304197Y-85775250D01*
X159332237Y-85752238D01*
X159355250Y-85724197D01*
X159355253Y-85724194D01*
X159413644Y-85653045D01*
X159424087Y-85640320D01*
X159492337Y-85512633D01*
X159534365Y-85374085D01*
X159545000Y-85266105D01*
X159545000Y-85266096D01*
X159548555Y-85230001D01*
X159545000Y-85193906D01*
X159545000Y-85007464D01*
X159666842Y-85057932D01*
X159953740Y-85115000D01*
X160246260Y-85115000D01*
X160533158Y-85057932D01*
X160803411Y-84945990D01*
X161046632Y-84783475D01*
X161253475Y-84576632D01*
X161370000Y-84402240D01*
X161486525Y-84576632D01*
X161693368Y-84783475D01*
X161936589Y-84945990D01*
X162206842Y-85057932D01*
X162218566Y-85060264D01*
X162060226Y-85166063D01*
X161916063Y-85310226D01*
X161802795Y-85479744D01*
X161724774Y-85668102D01*
X161685000Y-85868061D01*
X161685000Y-86071939D01*
X161724774Y-86271898D01*
X161802795Y-86460256D01*
X161916063Y-86629774D01*
X162060226Y-86773937D01*
X162116343Y-86811433D01*
X162108001Y-86815892D01*
X161996083Y-86907741D01*
X161973067Y-86935786D01*
X160085814Y-88823040D01*
X160057769Y-88846056D01*
X159965920Y-88957974D01*
X159910350Y-89061939D01*
X159897670Y-89085661D01*
X159855641Y-89224209D01*
X159841450Y-89368294D01*
X159845007Y-89404409D01*
X159845006Y-90811310D01*
X159830138Y-90826178D01*
X159740034Y-90736074D01*
X159570516Y-90622806D01*
X159382158Y-90544785D01*
X159182199Y-90505011D01*
X158978321Y-90505011D01*
X158778362Y-90544785D01*
X158669878Y-90589721D01*
X158532346Y-90452189D01*
X158507764Y-90422236D01*
X158388233Y-90324138D01*
X158251860Y-90251246D01*
X158103887Y-90206359D01*
X157988561Y-90195000D01*
X157988553Y-90195000D01*
X157950000Y-90191203D01*
X157911447Y-90195000D01*
X156858556Y-90195000D01*
X156820000Y-90191203D01*
X156781444Y-90195000D01*
X156781439Y-90195000D01*
X156741026Y-90198980D01*
X156666113Y-90206358D01*
X156518140Y-90251246D01*
X156381767Y-90324138D01*
X156262236Y-90422236D01*
X156237653Y-90452190D01*
X155712190Y-90977653D01*
X155682236Y-91002236D01*
X155584138Y-91121768D01*
X155511246Y-91258141D01*
X155466359Y-91406114D01*
X155455000Y-91521440D01*
X155455000Y-91521447D01*
X155451203Y-91560000D01*
X155455000Y-91598553D01*
X155455001Y-94821426D01*
X155451203Y-94859989D01*
X155466359Y-95013875D01*
X155511246Y-95161848D01*
X155518779Y-95175941D01*
X155584139Y-95298222D01*
X155609962Y-95329687D01*
X155657655Y-95387801D01*
X155657659Y-95387805D01*
X155682237Y-95417753D01*
X155712185Y-95442331D01*
X156485000Y-96215147D01*
X156485000Y-96241928D01*
X156524774Y-96441887D01*
X156602795Y-96630245D01*
X156716063Y-96799763D01*
X156860226Y-96943926D01*
X157029744Y-97057194D01*
X157218102Y-97135215D01*
X157418061Y-97174989D01*
X157621939Y-97174989D01*
X157821898Y-97135215D01*
X158010256Y-97057194D01*
X158179774Y-96943926D01*
X158323937Y-96799763D01*
X158437205Y-96630245D01*
X158515226Y-96441887D01*
X158555000Y-96241928D01*
X158555000Y-96038481D01*
X158677729Y-96014068D01*
X158847889Y-95943586D01*
X159001028Y-95841262D01*
X159042500Y-95799790D01*
X159083972Y-95841262D01*
X159237111Y-95943586D01*
X159252436Y-95949934D01*
X159249846Y-95962956D01*
X159249846Y-96166834D01*
X159289620Y-96366793D01*
X159367641Y-96555151D01*
X159480909Y-96724669D01*
X159625072Y-96868832D01*
X159794590Y-96982100D01*
X159982948Y-97060121D01*
X160182907Y-97099895D01*
X160386785Y-97099895D01*
X160586744Y-97060121D01*
X160775102Y-96982100D01*
X160799796Y-96965600D01*
X160982775Y-97041393D01*
X161182734Y-97081167D01*
X161386612Y-97081167D01*
X161586571Y-97041393D01*
X161774929Y-96963372D01*
X161944447Y-96850104D01*
X162088610Y-96705941D01*
X162201878Y-96536423D01*
X162279899Y-96348065D01*
X162319673Y-96148106D01*
X162319673Y-96143721D01*
X162480256Y-96077205D01*
X162649774Y-95963937D01*
X162793937Y-95819774D01*
X162907205Y-95650256D01*
X162985226Y-95461898D01*
X163025000Y-95261939D01*
X163025000Y-95058061D01*
X162985226Y-94858102D01*
X162907205Y-94669744D01*
X162793937Y-94500226D01*
X162778711Y-94485000D01*
X164375554Y-94485000D01*
X165255001Y-95364448D01*
X165255000Y-97243896D01*
X165251444Y-97280001D01*
X165255779Y-97324018D01*
X165147276Y-97345600D01*
X164958918Y-97423621D01*
X164789400Y-97536889D01*
X164645237Y-97681052D01*
X164531969Y-97850570D01*
X164453948Y-98038928D01*
X164447691Y-98070385D01*
X164434943Y-98072921D01*
X164246585Y-98150942D01*
X164193192Y-98186618D01*
X164040000Y-98123163D01*
X163840041Y-98083389D01*
X163636163Y-98083389D01*
X163621259Y-98086354D01*
X163669774Y-98053937D01*
X163813937Y-97909774D01*
X163927205Y-97740256D01*
X164005226Y-97551898D01*
X164045000Y-97351939D01*
X164045000Y-97148061D01*
X164005226Y-96948102D01*
X163927205Y-96759744D01*
X163813937Y-96590226D01*
X163669774Y-96446063D01*
X163500256Y-96332795D01*
X163311898Y-96254774D01*
X163111939Y-96215000D01*
X162908061Y-96215000D01*
X162708102Y-96254774D01*
X162519744Y-96332795D01*
X162350226Y-96446063D01*
X162206063Y-96590226D01*
X162092795Y-96759744D01*
X162014774Y-96948102D01*
X161975000Y-97148061D01*
X161975000Y-97351939D01*
X162014774Y-97551898D01*
X162092795Y-97740256D01*
X162206063Y-97909774D01*
X162350226Y-98053937D01*
X162519744Y-98167205D01*
X162708102Y-98245226D01*
X162908061Y-98285000D01*
X163111939Y-98285000D01*
X163126843Y-98282035D01*
X163078328Y-98314452D01*
X162934165Y-98458615D01*
X162820897Y-98628133D01*
X162742876Y-98816491D01*
X162703102Y-99016450D01*
X162703102Y-99220328D01*
X162742876Y-99420287D01*
X162820897Y-99608645D01*
X162934165Y-99778163D01*
X163078328Y-99922326D01*
X163247846Y-100035594D01*
X163436204Y-100113615D01*
X163636163Y-100153389D01*
X163840041Y-100153389D01*
X164040000Y-100113615D01*
X164228358Y-100035594D01*
X164281751Y-99999918D01*
X164434943Y-100063373D01*
X164634902Y-100103147D01*
X164838780Y-100103147D01*
X165038739Y-100063373D01*
X165227097Y-99985352D01*
X165396615Y-99872084D01*
X165540778Y-99727921D01*
X165596097Y-99645130D01*
X165686063Y-99779774D01*
X165830226Y-99923937D01*
X165999744Y-100037205D01*
X166188102Y-100115226D01*
X166388061Y-100155000D01*
X166591939Y-100155000D01*
X166791898Y-100115226D01*
X166980256Y-100037205D01*
X167149774Y-99923937D01*
X167293937Y-99779774D01*
X167407205Y-99610256D01*
X167485226Y-99421898D01*
X167515825Y-99268061D01*
X175915000Y-99268061D01*
X175915000Y-99471939D01*
X175954774Y-99671898D01*
X176032795Y-99860256D01*
X176146063Y-100029774D01*
X176290226Y-100173937D01*
X176459744Y-100287205D01*
X176648102Y-100365226D01*
X176848061Y-100405000D01*
X177051939Y-100405000D01*
X177251898Y-100365226D01*
X177440256Y-100287205D01*
X177609774Y-100173937D01*
X177753937Y-100029774D01*
X177867205Y-99860256D01*
X177945226Y-99671898D01*
X177985000Y-99471939D01*
X177985000Y-99268061D01*
X177945226Y-99068102D01*
X177867205Y-98879744D01*
X177753937Y-98710226D01*
X177609774Y-98566063D01*
X177440256Y-98452795D01*
X177251898Y-98374774D01*
X177051939Y-98335000D01*
X176848061Y-98335000D01*
X176648102Y-98374774D01*
X176459744Y-98452795D01*
X176290226Y-98566063D01*
X176146063Y-98710226D01*
X176032795Y-98879744D01*
X175954774Y-99068102D01*
X175915000Y-99268061D01*
X167515825Y-99268061D01*
X167525000Y-99221939D01*
X167525000Y-99018061D01*
X167485226Y-98818102D01*
X167407205Y-98629744D01*
X167293937Y-98460226D01*
X167225000Y-98391289D01*
X167225000Y-98015951D01*
X167270256Y-97997205D01*
X167325000Y-97960626D01*
X167379744Y-97997205D01*
X167568102Y-98075226D01*
X167768061Y-98115000D01*
X167971939Y-98115000D01*
X168171898Y-98075226D01*
X168360256Y-97997205D01*
X168529774Y-97883937D01*
X168673937Y-97739774D01*
X168787205Y-97570256D01*
X168792256Y-97558061D01*
X170415000Y-97558061D01*
X170415000Y-97761939D01*
X170454774Y-97961898D01*
X170532795Y-98150256D01*
X170646063Y-98319774D01*
X170790226Y-98463937D01*
X170959744Y-98577205D01*
X171148102Y-98655226D01*
X171348061Y-98695000D01*
X171551939Y-98695000D01*
X171751898Y-98655226D01*
X171940256Y-98577205D01*
X172109774Y-98463937D01*
X172253937Y-98319774D01*
X172367205Y-98150256D01*
X172445226Y-97961898D01*
X172485000Y-97761939D01*
X172485000Y-97558061D01*
X172445226Y-97358102D01*
X172367205Y-97169744D01*
X172253937Y-97000226D01*
X172109774Y-96856063D01*
X171940256Y-96742795D01*
X171751898Y-96664774D01*
X171551939Y-96625000D01*
X171348061Y-96625000D01*
X171148102Y-96664774D01*
X170959744Y-96742795D01*
X170790226Y-96856063D01*
X170646063Y-97000226D01*
X170532795Y-97169744D01*
X170454774Y-97358102D01*
X170415000Y-97558061D01*
X168792256Y-97558061D01*
X168865226Y-97381898D01*
X168905000Y-97181939D01*
X168905000Y-96978061D01*
X168865226Y-96778102D01*
X168787205Y-96589744D01*
X168673937Y-96420226D01*
X168529774Y-96276063D01*
X168528500Y-96275211D01*
X168553937Y-96249774D01*
X168570810Y-96224521D01*
X168670226Y-96323937D01*
X168839744Y-96437205D01*
X169028102Y-96515226D01*
X169228061Y-96555000D01*
X169431939Y-96555000D01*
X169631898Y-96515226D01*
X169820256Y-96437205D01*
X169989774Y-96323937D01*
X170133937Y-96179774D01*
X170247205Y-96010256D01*
X170325226Y-95821898D01*
X170365000Y-95621939D01*
X170365000Y-95418061D01*
X170325226Y-95218102D01*
X170247205Y-95029744D01*
X170246020Y-95027970D01*
X170272826Y-94987851D01*
X170350847Y-94799493D01*
X170390621Y-94599534D01*
X170390621Y-94395656D01*
X170350847Y-94195697D01*
X170272826Y-94007339D01*
X170263484Y-93993358D01*
X170267154Y-93987865D01*
X170345175Y-93799507D01*
X170384949Y-93599548D01*
X170384949Y-93395670D01*
X170345175Y-93195711D01*
X170267154Y-93007353D01*
X170153886Y-92837835D01*
X170009723Y-92693672D01*
X169840205Y-92580404D01*
X169651847Y-92502383D01*
X169451888Y-92462609D01*
X169248010Y-92462609D01*
X169048051Y-92502383D01*
X168859693Y-92580404D01*
X168690175Y-92693672D01*
X168546012Y-92837835D01*
X168432744Y-93007353D01*
X168354723Y-93195711D01*
X168314949Y-93395670D01*
X168314949Y-93599548D01*
X168354723Y-93799507D01*
X168432744Y-93987865D01*
X168442086Y-94001846D01*
X168438416Y-94007339D01*
X168360395Y-94195697D01*
X168320621Y-94395656D01*
X168320621Y-94599534D01*
X168349745Y-94745953D01*
X168240256Y-94672795D01*
X168051898Y-94594774D01*
X167851939Y-94555000D01*
X167648061Y-94555000D01*
X167448102Y-94594774D01*
X167259744Y-94672795D01*
X167090226Y-94786063D01*
X166946063Y-94930226D01*
X166832795Y-95099744D01*
X166754774Y-95288102D01*
X166725000Y-95437787D01*
X166725000Y-95096105D01*
X166728556Y-95060000D01*
X166714365Y-94915915D01*
X166704701Y-94884058D01*
X166672337Y-94777367D01*
X166604087Y-94649680D01*
X166512238Y-94537762D01*
X166484193Y-94514746D01*
X165225258Y-93255812D01*
X165202238Y-93227762D01*
X165090320Y-93135913D01*
X164962633Y-93067663D01*
X164824085Y-93025635D01*
X164716105Y-93015000D01*
X164680000Y-93011444D01*
X164643895Y-93015000D01*
X163038457Y-93015000D01*
X163054979Y-92931939D01*
X163054979Y-92728061D01*
X163015205Y-92528102D01*
X162937184Y-92339744D01*
X162823916Y-92170226D01*
X162752296Y-92098606D01*
X162797394Y-91989731D01*
X162816190Y-91895238D01*
X162894087Y-91800320D01*
X162962337Y-91672633D01*
X163004365Y-91534085D01*
X163015000Y-91426105D01*
X163015000Y-91426096D01*
X163018555Y-91390001D01*
X163015000Y-91353906D01*
X163015000Y-90834555D01*
X163168061Y-90865000D01*
X163371939Y-90865000D01*
X163571898Y-90825226D01*
X163591981Y-90816907D01*
X163663945Y-90888871D01*
X163833463Y-91002139D01*
X164021821Y-91080160D01*
X164221780Y-91119934D01*
X164276508Y-91119934D01*
X164255000Y-91228061D01*
X164255000Y-91431939D01*
X164294774Y-91631898D01*
X164372795Y-91820256D01*
X164486063Y-91989774D01*
X164630226Y-92133937D01*
X164799744Y-92247205D01*
X164988102Y-92325226D01*
X165188061Y-92365000D01*
X165391939Y-92365000D01*
X165591898Y-92325226D01*
X165780256Y-92247205D01*
X165834160Y-92211187D01*
X165795000Y-92408061D01*
X165795000Y-92611939D01*
X165834774Y-92811898D01*
X165912795Y-93000256D01*
X166026063Y-93169774D01*
X166170226Y-93313937D01*
X166339744Y-93427205D01*
X166528102Y-93505226D01*
X166728061Y-93545000D01*
X166931939Y-93545000D01*
X167131898Y-93505226D01*
X167320256Y-93427205D01*
X167489774Y-93313937D01*
X167633937Y-93169774D01*
X167747205Y-93000256D01*
X167825226Y-92811898D01*
X167865000Y-92611939D01*
X167865000Y-92408061D01*
X167825226Y-92208102D01*
X167747205Y-92019744D01*
X167724706Y-91986072D01*
X167770256Y-91967205D01*
X167939774Y-91853937D01*
X168083937Y-91709774D01*
X168197205Y-91540256D01*
X168275226Y-91351898D01*
X168315000Y-91151939D01*
X168315000Y-91084999D01*
X168685553Y-91084999D01*
X171445000Y-93844447D01*
X171445000Y-93951939D01*
X171484774Y-94151898D01*
X171562795Y-94340256D01*
X171676063Y-94509774D01*
X171820226Y-94653937D01*
X171989744Y-94767205D01*
X172178102Y-94845226D01*
X172378061Y-94885000D01*
X172581939Y-94885000D01*
X172781898Y-94845226D01*
X172970256Y-94767205D01*
X173139774Y-94653937D01*
X173283937Y-94509774D01*
X173397205Y-94340256D01*
X173475226Y-94151898D01*
X173515000Y-93951939D01*
X173515000Y-93748061D01*
X173475226Y-93548102D01*
X173397205Y-93359744D01*
X173308831Y-93227483D01*
X173407205Y-93080256D01*
X173485226Y-92891898D01*
X173525000Y-92691939D01*
X173525000Y-92488061D01*
X173485226Y-92288102D01*
X173407205Y-92099744D01*
X173321794Y-91971917D01*
X173333937Y-91959774D01*
X173447205Y-91790256D01*
X173525226Y-91601898D01*
X173565000Y-91401939D01*
X173565000Y-91304446D01*
X174504218Y-90365229D01*
X174532258Y-90342217D01*
X174555271Y-90314176D01*
X174555274Y-90314173D01*
X174624108Y-90230299D01*
X174624792Y-90229019D01*
X174692358Y-90102612D01*
X174734386Y-89964064D01*
X174745021Y-89856084D01*
X174745021Y-89856083D01*
X174748577Y-89819979D01*
X174745021Y-89783874D01*
X174745021Y-87208726D01*
X174748577Y-87172621D01*
X174734386Y-87028536D01*
X174692358Y-86889987D01*
X174624108Y-86762301D01*
X174605797Y-86739989D01*
X174532259Y-86650383D01*
X174504214Y-86627367D01*
X173722637Y-85845791D01*
X173699617Y-85817741D01*
X173587699Y-85725892D01*
X173460012Y-85657642D01*
X173321464Y-85615614D01*
X173213484Y-85604979D01*
X173177379Y-85601423D01*
X173141274Y-85604979D01*
X170399032Y-85604979D01*
X170362927Y-85601423D01*
X170218842Y-85615614D01*
X170080293Y-85657642D01*
X169955784Y-85724194D01*
X169952607Y-85725892D01*
X169840689Y-85817741D01*
X169817673Y-85845786D01*
X168298460Y-87365000D01*
X168068711Y-87365000D01*
X168193937Y-87239774D01*
X168307205Y-87070256D01*
X168385226Y-86881898D01*
X168425000Y-86681939D01*
X168425000Y-86478061D01*
X168385226Y-86278102D01*
X168307205Y-86089744D01*
X168193937Y-85920226D01*
X168049774Y-85776063D01*
X167880256Y-85662795D01*
X167691898Y-85584774D01*
X167491939Y-85545000D01*
X167288061Y-85545000D01*
X167088102Y-85584774D01*
X166899744Y-85662795D01*
X166730226Y-85776063D01*
X166586063Y-85920226D01*
X166472795Y-86089744D01*
X166394774Y-86278102D01*
X166355000Y-86478061D01*
X166355000Y-86681939D01*
X166394774Y-86881898D01*
X166472795Y-87070256D01*
X166586063Y-87239774D01*
X166711289Y-87365000D01*
X165995843Y-87365000D01*
X165566636Y-86935792D01*
X165543615Y-86907741D01*
X165431697Y-86815892D01*
X165304010Y-86747642D01*
X165165462Y-86705614D01*
X165057482Y-86694979D01*
X165057480Y-86694979D01*
X165021378Y-86691423D01*
X164985273Y-86694979D01*
X163458732Y-86694979D01*
X163523937Y-86629774D01*
X163637205Y-86460256D01*
X163715226Y-86271898D01*
X163755000Y-86071939D01*
X163755000Y-85868061D01*
X163715226Y-85668102D01*
X163637205Y-85479744D01*
X163523937Y-85310226D01*
X163379774Y-85166063D01*
X163210256Y-85052795D01*
X163147908Y-85026970D01*
X163343411Y-84945990D01*
X163586632Y-84783475D01*
X163793475Y-84576632D01*
X163910000Y-84402240D01*
X164026525Y-84576632D01*
X164233368Y-84783475D01*
X164476589Y-84945990D01*
X164746842Y-85057932D01*
X165033740Y-85115000D01*
X165326260Y-85115000D01*
X165613158Y-85057932D01*
X165883411Y-84945990D01*
X166126632Y-84783475D01*
X166333475Y-84576632D01*
X166450000Y-84402240D01*
X166566525Y-84576632D01*
X166773368Y-84783475D01*
X167016589Y-84945990D01*
X167286842Y-85057932D01*
X167573740Y-85115000D01*
X167866260Y-85115000D01*
X168153158Y-85057932D01*
X168423411Y-84945990D01*
X168666632Y-84783475D01*
X168873475Y-84576632D01*
X168990000Y-84402240D01*
X169106525Y-84576632D01*
X169313368Y-84783475D01*
X169556589Y-84945990D01*
X169826842Y-85057932D01*
X170113740Y-85115000D01*
X170406260Y-85115000D01*
X170693158Y-85057932D01*
X170963411Y-84945990D01*
X171206632Y-84783475D01*
X171413475Y-84576632D01*
X171530000Y-84402240D01*
X171646525Y-84576632D01*
X171853368Y-84783475D01*
X172096589Y-84945990D01*
X172366842Y-85057932D01*
X172653740Y-85115000D01*
X172946260Y-85115000D01*
X173233158Y-85057932D01*
X173503411Y-84945990D01*
X173746632Y-84783475D01*
X173953475Y-84576632D01*
X174115990Y-84333411D01*
X174227932Y-84063158D01*
X174285000Y-83776260D01*
X174285000Y-83483740D01*
X174227932Y-83196842D01*
X174115990Y-82926589D01*
X173953475Y-82683368D01*
X173746632Y-82476525D01*
X173572240Y-82360000D01*
X173746632Y-82243475D01*
X173801074Y-82189033D01*
X175529545Y-82189033D01*
X175529545Y-82590967D01*
X175607958Y-82985179D01*
X175761772Y-83356518D01*
X175985075Y-83690714D01*
X176269286Y-83974925D01*
X176603482Y-84198228D01*
X176974821Y-84352042D01*
X177369033Y-84430455D01*
X177770967Y-84430455D01*
X178165179Y-84352042D01*
X178536518Y-84198228D01*
X178870714Y-83974925D01*
X179154925Y-83690714D01*
X179378228Y-83356518D01*
X179532042Y-82985179D01*
X179610455Y-82590967D01*
X179610455Y-82189033D01*
X179532042Y-81794821D01*
X179378228Y-81423482D01*
X179154925Y-81089286D01*
X178870714Y-80805075D01*
X178536518Y-80581772D01*
X178165179Y-80427958D01*
X177770967Y-80349545D01*
X177369033Y-80349545D01*
X176974821Y-80427958D01*
X176603482Y-80581772D01*
X176269286Y-80805075D01*
X175985075Y-81089286D01*
X175761772Y-81423482D01*
X175607958Y-81794821D01*
X175529545Y-82189033D01*
X173801074Y-82189033D01*
X173953475Y-82036632D01*
X174115990Y-81793411D01*
X174227932Y-81523158D01*
X174285000Y-81236260D01*
X174285000Y-80943740D01*
X174227932Y-80656842D01*
X174115990Y-80386589D01*
X173953475Y-80143368D01*
X173746632Y-79936525D01*
X173503411Y-79774010D01*
X173233158Y-79662068D01*
X172946260Y-79605000D01*
X172653740Y-79605000D01*
X172366842Y-79662068D01*
X172096589Y-79774010D01*
X171853368Y-79936525D01*
X171646525Y-80143368D01*
X171530000Y-80317760D01*
X171413475Y-80143368D01*
X171206632Y-79936525D01*
X170963411Y-79774010D01*
X170693158Y-79662068D01*
X170406260Y-79605000D01*
X170113740Y-79605000D01*
X169826842Y-79662068D01*
X169556589Y-79774010D01*
X169313368Y-79936525D01*
X169106525Y-80143368D01*
X168990000Y-80317760D01*
X168873475Y-80143368D01*
X168666632Y-79936525D01*
X168423411Y-79774010D01*
X168153158Y-79662068D01*
X167866260Y-79605000D01*
X167573740Y-79605000D01*
X167286842Y-79662068D01*
X167016589Y-79774010D01*
X166773368Y-79936525D01*
X166770671Y-79939222D01*
X166381448Y-79550000D01*
X178037721Y-79550000D01*
X178523893Y-79597670D01*
X178960498Y-79729489D01*
X179363185Y-79943600D01*
X179716612Y-80231848D01*
X180007327Y-80583261D01*
X180224242Y-80984439D01*
X180359106Y-81420113D01*
X180410000Y-81904344D01*
X180410000Y-84446694D01*
X180327731Y-84391724D01*
X180098081Y-84296600D01*
X179854286Y-84248106D01*
X179605714Y-84248106D01*
X179361919Y-84296600D01*
X179132269Y-84391724D01*
X178925589Y-84529823D01*
X178749823Y-84705589D01*
X178611724Y-84912269D01*
X178516600Y-85141919D01*
X178468106Y-85385714D01*
X178468106Y-85634286D01*
X178516600Y-85878081D01*
X178611724Y-86107731D01*
X178749823Y-86314411D01*
X178925589Y-86490177D01*
X179132269Y-86628276D01*
X179361919Y-86723400D01*
X179605714Y-86771894D01*
X179854286Y-86771894D01*
X180098081Y-86723400D01*
X180327731Y-86628276D01*
X180410000Y-86573306D01*
X180410001Y-105857711D01*
X180362330Y-106343894D01*
X180230512Y-106780497D01*
X180016399Y-107183186D01*
X179728150Y-107536613D01*
X179376739Y-107827327D01*
X178975564Y-108044240D01*
X178539886Y-108179106D01*
X178055664Y-108230000D01*
X164176637Y-108230000D01*
X164198284Y-108203623D01*
X164303676Y-108006446D01*
X164368577Y-107792498D01*
X164385000Y-107625751D01*
X164385000Y-106914248D01*
X164368577Y-106747501D01*
X164303676Y-106533553D01*
X164198284Y-106336377D01*
X164056449Y-106163551D01*
X163883623Y-106021716D01*
X163686446Y-105916324D01*
X163472498Y-105851423D01*
X163250000Y-105829509D01*
X163027501Y-105851423D01*
X162813553Y-105916324D01*
X162616377Y-106021716D01*
X162443551Y-106163551D01*
X162301716Y-106336377D01*
X162196324Y-106533554D01*
X162131423Y-106747502D01*
X162115000Y-106914249D01*
X162115000Y-107625752D01*
X162131423Y-107792499D01*
X162196324Y-108006447D01*
X162301717Y-108203623D01*
X162323364Y-108230000D01*
X155536637Y-108230000D01*
X155558284Y-108203623D01*
X155663676Y-108006446D01*
X155728577Y-107792498D01*
X155745000Y-107625751D01*
X155745000Y-106914248D01*
X155728577Y-106747501D01*
X155663676Y-106533553D01*
X155558284Y-106336377D01*
X155416449Y-106163551D01*
X155243623Y-106021716D01*
X155046446Y-105916324D01*
X154832498Y-105851423D01*
X154610000Y-105829509D01*
X154387501Y-105851423D01*
X154173553Y-105916324D01*
X153976377Y-106021716D01*
X153803551Y-106163551D01*
X153661716Y-106336377D01*
X153556324Y-106533554D01*
X153491423Y-106747502D01*
X153475000Y-106914249D01*
X153475000Y-107625752D01*
X153491423Y-107792499D01*
X153556324Y-108006447D01*
X153661717Y-108203623D01*
X153683364Y-108230000D01*
X153105595Y-108230000D01*
X153175226Y-108061898D01*
X153215000Y-107861939D01*
X153215000Y-107658061D01*
X153175226Y-107458102D01*
X153097205Y-107269744D01*
X152983937Y-107100226D01*
X152839774Y-106956063D01*
X152670256Y-106842795D01*
X152481898Y-106764774D01*
X152281939Y-106725000D01*
X152078061Y-106725000D01*
X151878102Y-106764774D01*
X151689744Y-106842795D01*
X151520226Y-106956063D01*
X151376063Y-107100226D01*
X151262795Y-107269744D01*
X151184774Y-107458102D01*
X151145000Y-107658061D01*
X151145000Y-107861939D01*
X151184774Y-108061898D01*
X151254405Y-108230000D01*
X144240903Y-108230000D01*
X144339774Y-108163937D01*
X144483937Y-108019774D01*
X144597205Y-107850256D01*
X144675226Y-107661898D01*
X144715000Y-107461939D01*
X144715000Y-107258061D01*
X144675226Y-107058102D01*
X144597205Y-106869744D01*
X144483937Y-106700226D01*
X144339774Y-106556063D01*
X144170256Y-106442795D01*
X143981898Y-106364774D01*
X143781939Y-106325000D01*
X143578061Y-106325000D01*
X143378102Y-106364774D01*
X143189744Y-106442795D01*
X143020226Y-106556063D01*
X142876063Y-106700226D01*
X142762795Y-106869744D01*
X142684774Y-107058102D01*
X142645000Y-107258061D01*
X142645000Y-107461939D01*
X142684774Y-107661898D01*
X142762795Y-107850256D01*
X142876063Y-108019774D01*
X143020226Y-108163937D01*
X143119097Y-108230000D01*
X123921478Y-108230000D01*
X124013400Y-108008081D01*
X124061894Y-107764286D01*
X124061894Y-107515714D01*
X124013400Y-107271919D01*
X123918276Y-107042269D01*
X123780177Y-106835589D01*
X123742649Y-106798061D01*
X125585000Y-106798061D01*
X125585000Y-107001939D01*
X125624774Y-107201898D01*
X125702795Y-107390256D01*
X125816063Y-107559774D01*
X125960226Y-107703937D01*
X126129744Y-107817205D01*
X126318102Y-107895226D01*
X126518061Y-107935000D01*
X126721939Y-107935000D01*
X126921898Y-107895226D01*
X127110256Y-107817205D01*
X127279774Y-107703937D01*
X127423937Y-107559774D01*
X127537205Y-107390256D01*
X127615226Y-107201898D01*
X127655000Y-107001939D01*
X127655000Y-106798061D01*
X127615226Y-106598102D01*
X127550368Y-106441522D01*
X127636063Y-106569774D01*
X127780226Y-106713937D01*
X127949744Y-106827205D01*
X128138102Y-106905226D01*
X128338061Y-106945000D01*
X128541939Y-106945000D01*
X128741898Y-106905226D01*
X128755000Y-106899799D01*
X128755000Y-106901939D01*
X128794774Y-107101898D01*
X128872795Y-107290256D01*
X128986063Y-107459774D01*
X129130226Y-107603937D01*
X129299744Y-107717205D01*
X129488102Y-107795226D01*
X129688061Y-107835000D01*
X129891939Y-107835000D01*
X130091898Y-107795226D01*
X130280256Y-107717205D01*
X130449774Y-107603937D01*
X130593937Y-107459774D01*
X130707205Y-107290256D01*
X130785226Y-107101898D01*
X130825000Y-106901939D01*
X130825000Y-106795000D01*
X130901939Y-106795000D01*
X131101898Y-106755226D01*
X131186573Y-106720152D01*
X131185000Y-106728061D01*
X131185000Y-106931939D01*
X131224774Y-107131898D01*
X131302795Y-107320256D01*
X131416063Y-107489774D01*
X131560226Y-107633937D01*
X131729744Y-107747205D01*
X131918102Y-107825226D01*
X132118061Y-107865000D01*
X132321939Y-107865000D01*
X132521898Y-107825226D01*
X132710256Y-107747205D01*
X132879774Y-107633937D01*
X133023937Y-107489774D01*
X133137205Y-107320256D01*
X133215226Y-107131898D01*
X133255000Y-106931939D01*
X133255000Y-106728061D01*
X133215226Y-106528102D01*
X133137205Y-106339744D01*
X133023937Y-106170226D01*
X132879774Y-106026063D01*
X132710256Y-105912795D01*
X132521898Y-105834774D01*
X132321939Y-105795000D01*
X132118061Y-105795000D01*
X131918102Y-105834774D01*
X131833427Y-105869848D01*
X131835000Y-105861939D01*
X131835000Y-105658061D01*
X131795226Y-105458102D01*
X131717205Y-105269744D01*
X131603937Y-105100226D01*
X131459774Y-104956063D01*
X131290256Y-104842795D01*
X131101898Y-104764774D01*
X130901939Y-104725000D01*
X130698587Y-104725000D01*
X130735000Y-104541939D01*
X130735000Y-104338061D01*
X130695226Y-104138102D01*
X130617205Y-103949744D01*
X130503937Y-103780226D01*
X130359774Y-103636063D01*
X130325463Y-103613137D01*
X134550000Y-103613137D01*
X134550000Y-103826863D01*
X134591696Y-104036483D01*
X134673485Y-104233940D01*
X134792225Y-104411647D01*
X134943353Y-104562775D01*
X135121060Y-104681515D01*
X135318517Y-104763304D01*
X135528137Y-104805000D01*
X135741863Y-104805000D01*
X135951483Y-104763304D01*
X136148940Y-104681515D01*
X136326647Y-104562775D01*
X136367390Y-104522032D01*
X136446063Y-104639774D01*
X136590226Y-104783937D01*
X136759744Y-104897205D01*
X136948102Y-104975226D01*
X137148061Y-105015000D01*
X137351939Y-105015000D01*
X137551898Y-104975226D01*
X137740256Y-104897205D01*
X137880072Y-104803783D01*
X137880226Y-104803937D01*
X138049744Y-104917205D01*
X138238102Y-104995226D01*
X138438061Y-105035000D01*
X138641939Y-105035000D01*
X138841898Y-104995226D01*
X139030256Y-104917205D01*
X139199774Y-104803937D01*
X139324703Y-104679008D01*
X139305000Y-104778061D01*
X139305000Y-104981939D01*
X139344774Y-105181898D01*
X139422795Y-105370256D01*
X139536063Y-105539774D01*
X139680226Y-105683937D01*
X139849744Y-105797205D01*
X140038102Y-105875226D01*
X140238061Y-105915000D01*
X140441939Y-105915000D01*
X140641898Y-105875226D01*
X140830256Y-105797205D01*
X140999774Y-105683937D01*
X141143937Y-105539774D01*
X141257205Y-105370256D01*
X141335226Y-105181898D01*
X141375000Y-104981939D01*
X141375000Y-104778061D01*
X141335226Y-104578102D01*
X141257205Y-104389744D01*
X141143937Y-104220226D01*
X140999774Y-104076063D01*
X140830256Y-103962795D01*
X140641898Y-103884774D01*
X140441939Y-103845000D01*
X140238061Y-103845000D01*
X140038102Y-103884774D01*
X139849744Y-103962795D01*
X139680226Y-104076063D01*
X139555297Y-104200992D01*
X139575000Y-104101939D01*
X139575000Y-103898061D01*
X139535226Y-103698102D01*
X139457205Y-103509744D01*
X139343937Y-103340226D01*
X139199774Y-103196063D01*
X139030256Y-103082795D01*
X138841898Y-103004774D01*
X138641939Y-102965000D01*
X138438061Y-102965000D01*
X138238102Y-103004774D01*
X138049744Y-103082795D01*
X137909928Y-103176217D01*
X137909774Y-103176063D01*
X137740256Y-103062795D01*
X137551898Y-102984774D01*
X137351939Y-102945000D01*
X137148061Y-102945000D01*
X136948102Y-102984774D01*
X136759744Y-103062795D01*
X136590226Y-103176063D01*
X136581981Y-103184308D01*
X136477775Y-103028353D01*
X136326647Y-102877225D01*
X136148940Y-102758485D01*
X135951483Y-102676696D01*
X135741863Y-102635000D01*
X135528137Y-102635000D01*
X135318517Y-102676696D01*
X135121060Y-102758485D01*
X134943353Y-102877225D01*
X134792225Y-103028353D01*
X134673485Y-103206060D01*
X134591696Y-103403517D01*
X134550000Y-103613137D01*
X130325463Y-103613137D01*
X130190256Y-103522795D01*
X130001898Y-103444774D01*
X129801939Y-103405000D01*
X129598061Y-103405000D01*
X129398102Y-103444774D01*
X129209744Y-103522795D01*
X129040226Y-103636063D01*
X128896063Y-103780226D01*
X128782795Y-103949744D01*
X128704774Y-104138102D01*
X128665000Y-104338061D01*
X128665000Y-104541939D01*
X128704774Y-104741898D01*
X128782795Y-104930256D01*
X128784142Y-104932272D01*
X128741898Y-104914774D01*
X128541939Y-104875000D01*
X128338061Y-104875000D01*
X128138102Y-104914774D01*
X127949744Y-104992795D01*
X127780226Y-105106063D01*
X127636063Y-105250226D01*
X127522795Y-105419744D01*
X127444774Y-105608102D01*
X127405000Y-105808061D01*
X127405000Y-106011939D01*
X127444774Y-106211898D01*
X127509632Y-106368478D01*
X127423937Y-106240226D01*
X127279774Y-106096063D01*
X127110256Y-105982795D01*
X126921898Y-105904774D01*
X126721939Y-105865000D01*
X126518061Y-105865000D01*
X126318102Y-105904774D01*
X126129744Y-105982795D01*
X125960226Y-106096063D01*
X125816063Y-106240226D01*
X125702795Y-106409744D01*
X125624774Y-106598102D01*
X125585000Y-106798061D01*
X123742649Y-106798061D01*
X123604411Y-106659823D01*
X123397731Y-106521724D01*
X123168081Y-106426600D01*
X122924286Y-106378106D01*
X122675714Y-106378106D01*
X122431919Y-106426600D01*
X122202269Y-106521724D01*
X121995589Y-106659823D01*
X121819823Y-106835589D01*
X121681724Y-107042269D01*
X121586600Y-107271919D01*
X121538106Y-107515714D01*
X121538106Y-107764286D01*
X121586600Y-108008081D01*
X121678522Y-108230000D01*
X119102279Y-108230000D01*
X118616106Y-108182330D01*
X118179503Y-108050512D01*
X117776814Y-107836399D01*
X117423387Y-107548150D01*
X117132673Y-107196739D01*
X116915760Y-106795564D01*
X116780894Y-106359886D01*
X116730000Y-105875664D01*
X116730000Y-105189033D01*
X117529545Y-105189033D01*
X117529545Y-105590967D01*
X117607958Y-105985179D01*
X117761772Y-106356518D01*
X117985075Y-106690714D01*
X118269286Y-106974925D01*
X118603482Y-107198228D01*
X118974821Y-107352042D01*
X119369033Y-107430455D01*
X119770967Y-107430455D01*
X120165179Y-107352042D01*
X120536518Y-107198228D01*
X120870714Y-106974925D01*
X121154925Y-106690714D01*
X121378228Y-106356518D01*
X121532042Y-105985179D01*
X121610455Y-105590967D01*
X121610455Y-105189033D01*
X121532042Y-104794821D01*
X121378228Y-104423482D01*
X121154925Y-104089286D01*
X120870714Y-103805075D01*
X120536518Y-103581772D01*
X120165179Y-103427958D01*
X119770967Y-103349545D01*
X119369033Y-103349545D01*
X118974821Y-103427958D01*
X118603482Y-103581772D01*
X118269286Y-103805075D01*
X117985075Y-104089286D01*
X117761772Y-104423482D01*
X117607958Y-104794821D01*
X117529545Y-105189033D01*
X116730000Y-105189033D01*
X116730000Y-100636940D01*
X116772795Y-100740256D01*
X116886063Y-100909774D01*
X117030226Y-101053937D01*
X117199744Y-101167205D01*
X117388102Y-101245226D01*
X117581718Y-101283738D01*
X117555000Y-101418061D01*
X117555000Y-101621939D01*
X117594774Y-101821898D01*
X117672795Y-102010256D01*
X117786063Y-102179774D01*
X117930226Y-102323937D01*
X118099744Y-102437205D01*
X118288102Y-102515226D01*
X118488061Y-102555000D01*
X118691939Y-102555000D01*
X118891898Y-102515226D01*
X119080256Y-102437205D01*
X119249774Y-102323937D01*
X119393937Y-102179774D01*
X119507205Y-102010256D01*
X119585226Y-101821898D01*
X119625000Y-101621939D01*
X119625000Y-101518061D01*
X122455000Y-101518061D01*
X122455000Y-101721939D01*
X122494774Y-101921898D01*
X122572795Y-102110256D01*
X122686063Y-102279774D01*
X122830226Y-102423937D01*
X122999744Y-102537205D01*
X123084130Y-102572159D01*
X122976063Y-102680226D01*
X122862795Y-102849744D01*
X122784774Y-103038102D01*
X122745000Y-103238061D01*
X122745000Y-103441939D01*
X122784774Y-103641898D01*
X122862795Y-103830256D01*
X122976063Y-103999774D01*
X123120226Y-104143937D01*
X123289744Y-104257205D01*
X123478102Y-104335226D01*
X123678061Y-104375000D01*
X123881939Y-104375000D01*
X124081898Y-104335226D01*
X124270256Y-104257205D01*
X124439774Y-104143937D01*
X124583937Y-103999774D01*
X124697205Y-103830256D01*
X124775226Y-103641898D01*
X124815000Y-103441939D01*
X124815000Y-103238061D01*
X124775226Y-103038102D01*
X124697205Y-102849744D01*
X124583937Y-102680226D01*
X124439774Y-102536063D01*
X124270256Y-102422795D01*
X124185870Y-102387841D01*
X124293937Y-102279774D01*
X124407205Y-102110256D01*
X124485226Y-101921898D01*
X124525000Y-101721939D01*
X124525000Y-101518061D01*
X124485226Y-101318102D01*
X124407205Y-101129744D01*
X124293937Y-100960226D01*
X124149774Y-100816063D01*
X123980256Y-100702795D01*
X123920544Y-100678061D01*
X124725000Y-100678061D01*
X124725000Y-100881939D01*
X124764774Y-101081898D01*
X124842795Y-101270256D01*
X124956063Y-101439774D01*
X125100226Y-101583937D01*
X125269744Y-101697205D01*
X125458102Y-101775226D01*
X125658061Y-101815000D01*
X125773338Y-101815000D01*
X125734774Y-101908102D01*
X125695000Y-102108061D01*
X125695000Y-102311939D01*
X125734774Y-102511898D01*
X125812795Y-102700256D01*
X125926063Y-102869774D01*
X126070226Y-103013937D01*
X126239744Y-103127205D01*
X126428102Y-103205226D01*
X126628061Y-103245000D01*
X126657356Y-103245000D01*
X126591696Y-103403517D01*
X126550000Y-103613137D01*
X126550000Y-103826863D01*
X126591696Y-104036483D01*
X126673485Y-104233940D01*
X126792225Y-104411647D01*
X126943353Y-104562775D01*
X127121060Y-104681515D01*
X127318517Y-104763304D01*
X127528137Y-104805000D01*
X127741863Y-104805000D01*
X127951483Y-104763304D01*
X128148940Y-104681515D01*
X128326647Y-104562775D01*
X128477775Y-104411647D01*
X128596515Y-104233940D01*
X128678304Y-104036483D01*
X128720000Y-103826863D01*
X128720000Y-103613137D01*
X128678304Y-103403517D01*
X128596515Y-103206060D01*
X128477775Y-103028353D01*
X128326647Y-102877225D01*
X128148940Y-102758485D01*
X127951483Y-102676696D01*
X127741863Y-102635000D01*
X127674235Y-102635000D01*
X127725226Y-102511898D01*
X127765000Y-102311939D01*
X127765000Y-102108061D01*
X127725226Y-101908102D01*
X127647205Y-101719744D01*
X127533937Y-101550226D01*
X127389774Y-101406063D01*
X127220256Y-101292795D01*
X127031898Y-101214774D01*
X126831939Y-101175000D01*
X126716662Y-101175000D01*
X126755226Y-101081898D01*
X126785825Y-100928061D01*
X131065000Y-100928061D01*
X131065000Y-101131939D01*
X131104774Y-101331898D01*
X131182795Y-101520256D01*
X131296063Y-101689774D01*
X131440226Y-101833937D01*
X131609744Y-101947205D01*
X131798102Y-102025226D01*
X131998061Y-102065000D01*
X132201939Y-102065000D01*
X132401898Y-102025226D01*
X132406808Y-102023192D01*
X132404774Y-102028102D01*
X132365000Y-102228061D01*
X132365000Y-102431939D01*
X132404774Y-102631898D01*
X132482795Y-102820256D01*
X132596063Y-102989774D01*
X132740226Y-103133937D01*
X132909744Y-103247205D01*
X133098102Y-103325226D01*
X133298061Y-103365000D01*
X133501939Y-103365000D01*
X133701898Y-103325226D01*
X133890256Y-103247205D01*
X134059774Y-103133937D01*
X134203937Y-102989774D01*
X134317205Y-102820256D01*
X134395226Y-102631898D01*
X134435000Y-102431939D01*
X134435000Y-102228061D01*
X134395226Y-102028102D01*
X134317205Y-101839744D01*
X134203937Y-101670226D01*
X134059774Y-101526063D01*
X133890256Y-101412795D01*
X133701898Y-101334774D01*
X133501939Y-101295000D01*
X133298061Y-101295000D01*
X133098102Y-101334774D01*
X133093192Y-101336808D01*
X133095226Y-101331898D01*
X133135000Y-101131939D01*
X133135000Y-100928061D01*
X133095226Y-100728102D01*
X133017205Y-100539744D01*
X132903937Y-100370226D01*
X132759774Y-100226063D01*
X132590256Y-100112795D01*
X132401898Y-100034774D01*
X132201939Y-99995000D01*
X131998061Y-99995000D01*
X131798102Y-100034774D01*
X131609744Y-100112795D01*
X131440226Y-100226063D01*
X131296063Y-100370226D01*
X131182795Y-100539744D01*
X131104774Y-100728102D01*
X131065000Y-100928061D01*
X126785825Y-100928061D01*
X126795000Y-100881939D01*
X126795000Y-100678061D01*
X126755226Y-100478102D01*
X126677205Y-100289744D01*
X126563937Y-100120226D01*
X126419774Y-99976063D01*
X126250256Y-99862795D01*
X126061898Y-99784774D01*
X125861939Y-99745000D01*
X125658061Y-99745000D01*
X125458102Y-99784774D01*
X125269744Y-99862795D01*
X125100226Y-99976063D01*
X124956063Y-100120226D01*
X124842795Y-100289744D01*
X124764774Y-100478102D01*
X124725000Y-100678061D01*
X123920544Y-100678061D01*
X123791898Y-100624774D01*
X123591939Y-100585000D01*
X123388061Y-100585000D01*
X123188102Y-100624774D01*
X122999744Y-100702795D01*
X122830226Y-100816063D01*
X122686063Y-100960226D01*
X122572795Y-101129744D01*
X122494774Y-101318102D01*
X122455000Y-101518061D01*
X119625000Y-101518061D01*
X119625000Y-101418061D01*
X119585226Y-101218102D01*
X119507205Y-101029744D01*
X119393937Y-100860226D01*
X119249774Y-100716063D01*
X119080256Y-100602795D01*
X118891898Y-100524774D01*
X118698282Y-100486262D01*
X118725000Y-100351939D01*
X118725000Y-100148061D01*
X118685226Y-99948102D01*
X118607205Y-99759744D01*
X118493937Y-99590226D01*
X118349774Y-99446063D01*
X118180256Y-99332795D01*
X117991898Y-99254774D01*
X117791939Y-99215000D01*
X117588061Y-99215000D01*
X117388102Y-99254774D01*
X117199744Y-99332795D01*
X117030226Y-99446063D01*
X116886063Y-99590226D01*
X116772795Y-99759744D01*
X116730000Y-99863060D01*
X116730000Y-96886940D01*
X116772795Y-96990256D01*
X116886063Y-97159774D01*
X117030226Y-97303937D01*
X117199744Y-97417205D01*
X117388102Y-97495226D01*
X117588061Y-97535000D01*
X117791939Y-97535000D01*
X117991898Y-97495226D01*
X118180256Y-97417205D01*
X118349774Y-97303937D01*
X118493937Y-97159774D01*
X118607205Y-96990256D01*
X118685226Y-96801898D01*
X118725000Y-96601939D01*
X118725000Y-96398061D01*
X118723011Y-96388061D01*
X125145000Y-96388061D01*
X125145000Y-96591939D01*
X125184774Y-96791898D01*
X125262795Y-96980256D01*
X125376063Y-97149774D01*
X125520226Y-97293937D01*
X125689744Y-97407205D01*
X125878102Y-97485226D01*
X125926783Y-97494909D01*
X125850226Y-97546063D01*
X125706063Y-97690226D01*
X125592795Y-97859744D01*
X125514774Y-98048102D01*
X125475000Y-98248061D01*
X125475000Y-98451939D01*
X125514774Y-98651898D01*
X125592795Y-98840256D01*
X125706063Y-99009774D01*
X125850226Y-99153937D01*
X126019744Y-99267205D01*
X126208102Y-99345226D01*
X126408061Y-99385000D01*
X126611939Y-99385000D01*
X126811898Y-99345226D01*
X127000256Y-99267205D01*
X127169774Y-99153937D01*
X127313937Y-99009774D01*
X127388581Y-98898061D01*
X129365000Y-98898061D01*
X129365000Y-99101939D01*
X129404774Y-99301898D01*
X129482795Y-99490256D01*
X129596063Y-99659774D01*
X129740226Y-99803937D01*
X129909744Y-99917205D01*
X130098102Y-99995226D01*
X130298061Y-100035000D01*
X130501939Y-100035000D01*
X130701898Y-99995226D01*
X130890256Y-99917205D01*
X131059774Y-99803937D01*
X131203937Y-99659774D01*
X131317205Y-99490256D01*
X131395226Y-99301898D01*
X131435000Y-99101939D01*
X131435000Y-99058711D01*
X131570226Y-99193937D01*
X131739744Y-99307205D01*
X131928102Y-99385226D01*
X132128061Y-99425000D01*
X132331939Y-99425000D01*
X132531898Y-99385226D01*
X132720256Y-99307205D01*
X132889774Y-99193937D01*
X133033937Y-99049774D01*
X133147205Y-98880256D01*
X133225226Y-98691898D01*
X133265000Y-98491939D01*
X133265000Y-98288061D01*
X133259033Y-98258061D01*
X135495000Y-98258061D01*
X135495000Y-98461939D01*
X135534774Y-98661898D01*
X135612795Y-98850256D01*
X135726063Y-99019774D01*
X135870226Y-99163937D01*
X136039744Y-99277205D01*
X136228102Y-99355226D01*
X136428061Y-99395000D01*
X136631939Y-99395000D01*
X136831898Y-99355226D01*
X137020256Y-99277205D01*
X137189774Y-99163937D01*
X137229928Y-99123783D01*
X137369744Y-99217205D01*
X137558102Y-99295226D01*
X137758061Y-99335000D01*
X137961939Y-99335000D01*
X138161898Y-99295226D01*
X138350256Y-99217205D01*
X138519774Y-99103937D01*
X138663937Y-98959774D01*
X138777205Y-98790256D01*
X138855226Y-98601898D01*
X138855986Y-98598075D01*
X139018102Y-98665226D01*
X139218061Y-98705000D01*
X139421939Y-98705000D01*
X139621898Y-98665226D01*
X139810256Y-98587205D01*
X139979774Y-98473937D01*
X140123937Y-98329774D01*
X140237205Y-98160256D01*
X140315226Y-97971898D01*
X140355000Y-97771939D01*
X140355000Y-97568061D01*
X140315226Y-97368102D01*
X140237205Y-97179744D01*
X140123937Y-97010226D01*
X139979774Y-96866063D01*
X139888319Y-96804955D01*
X139919774Y-96783937D01*
X140063937Y-96639774D01*
X140177205Y-96470256D01*
X140255226Y-96281898D01*
X140295000Y-96081939D01*
X140295000Y-95878061D01*
X140255226Y-95678102D01*
X140177205Y-95489744D01*
X140063937Y-95320226D01*
X139919774Y-95176063D01*
X139750256Y-95062795D01*
X139561898Y-94984774D01*
X139361939Y-94945000D01*
X139158061Y-94945000D01*
X138958102Y-94984774D01*
X138769744Y-95062795D01*
X138744461Y-95079688D01*
X138707205Y-94989744D01*
X138593937Y-94820226D01*
X138449774Y-94676063D01*
X138280256Y-94562795D01*
X138091898Y-94484774D01*
X137891939Y-94445000D01*
X137688061Y-94445000D01*
X137488102Y-94484774D01*
X137299744Y-94562795D01*
X137130226Y-94676063D01*
X136986063Y-94820226D01*
X136872795Y-94989744D01*
X136794774Y-95178102D01*
X136793357Y-95185228D01*
X136741939Y-95175000D01*
X136538061Y-95175000D01*
X136338102Y-95214774D01*
X136149744Y-95292795D01*
X135980226Y-95406063D01*
X135836063Y-95550226D01*
X135722795Y-95719744D01*
X135644774Y-95908102D01*
X135605000Y-96108061D01*
X135605000Y-96311939D01*
X135644774Y-96511898D01*
X135722795Y-96700256D01*
X135836063Y-96869774D01*
X135980226Y-97013937D01*
X136149744Y-97127205D01*
X136338102Y-97205226D01*
X136538061Y-97245000D01*
X136741939Y-97245000D01*
X136815000Y-97230467D01*
X136815000Y-97241939D01*
X136840110Y-97368175D01*
X136831898Y-97364774D01*
X136631939Y-97325000D01*
X136428061Y-97325000D01*
X136228102Y-97364774D01*
X136039744Y-97442795D01*
X135870226Y-97556063D01*
X135726063Y-97700226D01*
X135612795Y-97869744D01*
X135534774Y-98058102D01*
X135495000Y-98258061D01*
X133259033Y-98258061D01*
X133225226Y-98088102D01*
X133147205Y-97899744D01*
X133033937Y-97730226D01*
X132889774Y-97586063D01*
X132720256Y-97472795D01*
X132531898Y-97394774D01*
X132331939Y-97355000D01*
X132128061Y-97355000D01*
X131934867Y-97393428D01*
X131965000Y-97241939D01*
X131965000Y-97038061D01*
X131925226Y-96838102D01*
X131847205Y-96649744D01*
X131733937Y-96480226D01*
X131589774Y-96336063D01*
X131420256Y-96222795D01*
X131231898Y-96144774D01*
X131031939Y-96105000D01*
X130828061Y-96105000D01*
X130628102Y-96144774D01*
X130439744Y-96222795D01*
X130270226Y-96336063D01*
X130126063Y-96480226D01*
X130012795Y-96649744D01*
X129934774Y-96838102D01*
X129895000Y-97038061D01*
X129895000Y-97241939D01*
X129934774Y-97441898D01*
X130012795Y-97630256D01*
X130126063Y-97799774D01*
X130270226Y-97943937D01*
X130301749Y-97965000D01*
X130298061Y-97965000D01*
X130098102Y-98004774D01*
X129909744Y-98082795D01*
X129740226Y-98196063D01*
X129596063Y-98340226D01*
X129482795Y-98509744D01*
X129404774Y-98698102D01*
X129365000Y-98898061D01*
X127388581Y-98898061D01*
X127427205Y-98840256D01*
X127505226Y-98651898D01*
X127545000Y-98451939D01*
X127545000Y-98248061D01*
X127505226Y-98048102D01*
X127427205Y-97859744D01*
X127313937Y-97690226D01*
X127169774Y-97546063D01*
X127000256Y-97432795D01*
X126811898Y-97354774D01*
X126763217Y-97345091D01*
X126839774Y-97293937D01*
X126983937Y-97149774D01*
X127097205Y-96980256D01*
X127175226Y-96791898D01*
X127215000Y-96591939D01*
X127215000Y-96388061D01*
X127175226Y-96188102D01*
X127097205Y-95999744D01*
X126983937Y-95830226D01*
X126839774Y-95686063D01*
X126670256Y-95572795D01*
X126481898Y-95494774D01*
X126281939Y-95455000D01*
X126078061Y-95455000D01*
X125878102Y-95494774D01*
X125689744Y-95572795D01*
X125520226Y-95686063D01*
X125376063Y-95830226D01*
X125262795Y-95999744D01*
X125184774Y-96188102D01*
X125145000Y-96388061D01*
X118723011Y-96388061D01*
X118696544Y-96255000D01*
X118701939Y-96255000D01*
X118901898Y-96215226D01*
X119090256Y-96137205D01*
X119259774Y-96023937D01*
X119403937Y-95879774D01*
X119517205Y-95710256D01*
X119595226Y-95521898D01*
X119635000Y-95321939D01*
X119635000Y-95118061D01*
X119595226Y-94918102D01*
X119517205Y-94729744D01*
X119403937Y-94560226D01*
X119259774Y-94416063D01*
X119090256Y-94302795D01*
X118901898Y-94224774D01*
X118701939Y-94185000D01*
X118498061Y-94185000D01*
X118298102Y-94224774D01*
X118109744Y-94302795D01*
X117940226Y-94416063D01*
X117796063Y-94560226D01*
X117682795Y-94729744D01*
X117604774Y-94918102D01*
X117565000Y-95118061D01*
X117565000Y-95321939D01*
X117593456Y-95465000D01*
X117588061Y-95465000D01*
X117388102Y-95504774D01*
X117199744Y-95582795D01*
X117030226Y-95696063D01*
X116886063Y-95840226D01*
X116772795Y-96009744D01*
X116730000Y-96113060D01*
X116730000Y-91656940D01*
X116772795Y-91760256D01*
X116886063Y-91929774D01*
X117030226Y-92073937D01*
X117199744Y-92187205D01*
X117388102Y-92265226D01*
X117556687Y-92298759D01*
X117525000Y-92458061D01*
X117525000Y-92661939D01*
X117564774Y-92861898D01*
X117642795Y-93050256D01*
X117756063Y-93219774D01*
X117900226Y-93363937D01*
X118069744Y-93477205D01*
X118258102Y-93555226D01*
X118458061Y-93595000D01*
X118661939Y-93595000D01*
X118861898Y-93555226D01*
X119050256Y-93477205D01*
X119219774Y-93363937D01*
X119363937Y-93219774D01*
X119477205Y-93050256D01*
X119555226Y-92861898D01*
X119595000Y-92661939D01*
X119595000Y-92458061D01*
X119555226Y-92258102D01*
X119477205Y-92069744D01*
X119363937Y-91900226D01*
X119219774Y-91756063D01*
X119050256Y-91642795D01*
X118861898Y-91564774D01*
X118693313Y-91531241D01*
X118725000Y-91371939D01*
X118725000Y-91168061D01*
X118685226Y-90968102D01*
X118607205Y-90779744D01*
X118493937Y-90610226D01*
X118349774Y-90466063D01*
X118180256Y-90352795D01*
X117991898Y-90274774D01*
X117791939Y-90235000D01*
X117588061Y-90235000D01*
X117388102Y-90274774D01*
X117199744Y-90352795D01*
X117030226Y-90466063D01*
X116886063Y-90610226D01*
X116772795Y-90779744D01*
X116730000Y-90883060D01*
X116730000Y-87836940D01*
X116772795Y-87940256D01*
X116886063Y-88109774D01*
X117030226Y-88253937D01*
X117199744Y-88367205D01*
X117388102Y-88445226D01*
X117588061Y-88485000D01*
X117791939Y-88485000D01*
X117991898Y-88445226D01*
X118180256Y-88367205D01*
X118349774Y-88253937D01*
X118493937Y-88109774D01*
X118607205Y-87940256D01*
X118685226Y-87751898D01*
X118725000Y-87551939D01*
X118725000Y-87348061D01*
X118710153Y-87273421D01*
X118851898Y-87245226D01*
X119040256Y-87167205D01*
X119209774Y-87053937D01*
X119353937Y-86909774D01*
X119467205Y-86740256D01*
X119545226Y-86551898D01*
X119585000Y-86351939D01*
X119585000Y-86148061D01*
X119545226Y-85948102D01*
X119467205Y-85759744D01*
X119353937Y-85590226D01*
X119209774Y-85446063D01*
X119040256Y-85332795D01*
X118851898Y-85254774D01*
X118651939Y-85215000D01*
X118448061Y-85215000D01*
X118248102Y-85254774D01*
X118059744Y-85332795D01*
X117890226Y-85446063D01*
X117746063Y-85590226D01*
X117632795Y-85759744D01*
X117554774Y-85948102D01*
X117515000Y-86148061D01*
X117515000Y-86351939D01*
X117529847Y-86426579D01*
X117388102Y-86454774D01*
X117199744Y-86532795D01*
X117030226Y-86646063D01*
X116886063Y-86790226D01*
X116772795Y-86959744D01*
X116730000Y-87063060D01*
X116730000Y-82189033D01*
X117529545Y-82189033D01*
X117529545Y-82590967D01*
X117607958Y-82985179D01*
X117761772Y-83356518D01*
X117985075Y-83690714D01*
X118269286Y-83974925D01*
X118603482Y-84198228D01*
X118974821Y-84352042D01*
X119369033Y-84430455D01*
X119770967Y-84430455D01*
X120165179Y-84352042D01*
X120536518Y-84198228D01*
X120870714Y-83974925D01*
X121154925Y-83690714D01*
X121378228Y-83356518D01*
X121532042Y-82985179D01*
X121610455Y-82590967D01*
X121610455Y-82189033D01*
X121532042Y-81794821D01*
X121378228Y-81423482D01*
X121154925Y-81089286D01*
X120870714Y-80805075D01*
X120536518Y-80581772D01*
X120165179Y-80427958D01*
X119770967Y-80349545D01*
X119369033Y-80349545D01*
X118974821Y-80427958D01*
X118603482Y-80581772D01*
X118269286Y-80805075D01*
X117985075Y-81089286D01*
X117761772Y-81423482D01*
X117607958Y-81794821D01*
X117529545Y-82189033D01*
X116730000Y-82189033D01*
X116730000Y-81922279D01*
X116777670Y-81436107D01*
X116909489Y-80999502D01*
X117123600Y-80596815D01*
X117411848Y-80243388D01*
X117763261Y-79952673D01*
X118164439Y-79735758D01*
X118600113Y-79600894D01*
X119084344Y-79550000D01*
X153818551Y-79550000D01*
X153429329Y-79939222D01*
%TA.AperFunction,Conductor*%
D20*
G36*
X153429329Y-79939222D02*
G01*
X153426632Y-79936525D01*
X153183411Y-79774010D01*
X152913158Y-79662068D01*
X152626260Y-79605000D01*
X152333740Y-79605000D01*
X152046842Y-79662068D01*
X151776589Y-79774010D01*
X151533368Y-79936525D01*
X151326525Y-80143368D01*
X151210000Y-80317760D01*
X151093475Y-80143368D01*
X150886632Y-79936525D01*
X150643411Y-79774010D01*
X150373158Y-79662068D01*
X150086260Y-79605000D01*
X149793740Y-79605000D01*
X149506842Y-79662068D01*
X149236589Y-79774010D01*
X148993368Y-79936525D01*
X148786525Y-80143368D01*
X148670000Y-80317760D01*
X148553475Y-80143368D01*
X148346632Y-79936525D01*
X148103411Y-79774010D01*
X147833158Y-79662068D01*
X147546260Y-79605000D01*
X147253740Y-79605000D01*
X146966842Y-79662068D01*
X146696589Y-79774010D01*
X146453368Y-79936525D01*
X146246525Y-80143368D01*
X146130000Y-80317760D01*
X146013475Y-80143368D01*
X145806632Y-79936525D01*
X145563411Y-79774010D01*
X145293158Y-79662068D01*
X145006260Y-79605000D01*
X144713740Y-79605000D01*
X144426842Y-79662068D01*
X144156589Y-79774010D01*
X143913368Y-79936525D01*
X143706525Y-80143368D01*
X143590000Y-80317760D01*
X143473475Y-80143368D01*
X143266632Y-79936525D01*
X143023411Y-79774010D01*
X142753158Y-79662068D01*
X142466260Y-79605000D01*
X142173740Y-79605000D01*
X141886842Y-79662068D01*
X141616589Y-79774010D01*
X141373368Y-79936525D01*
X141166525Y-80143368D01*
X141050000Y-80317760D01*
X140933475Y-80143368D01*
X140726632Y-79936525D01*
X140483411Y-79774010D01*
X140213158Y-79662068D01*
X139926260Y-79605000D01*
X139633740Y-79605000D01*
X139346842Y-79662068D01*
X139076589Y-79774010D01*
X138833368Y-79936525D01*
X138626525Y-80143368D01*
X138510000Y-80317760D01*
X138393475Y-80143368D01*
X138186632Y-79936525D01*
X137943411Y-79774010D01*
X137673158Y-79662068D01*
X137386260Y-79605000D01*
X137093740Y-79605000D01*
X136806842Y-79662068D01*
X136536589Y-79774010D01*
X136293368Y-79936525D01*
X136086525Y-80143368D01*
X135970000Y-80317760D01*
X135853475Y-80143368D01*
X135646632Y-79936525D01*
X135403411Y-79774010D01*
X135133158Y-79662068D01*
X134846260Y-79605000D01*
X134553740Y-79605000D01*
X134266842Y-79662068D01*
X133996589Y-79774010D01*
X133753368Y-79936525D01*
X133546525Y-80143368D01*
X133430000Y-80317760D01*
X133313475Y-80143368D01*
X133106632Y-79936525D01*
X132863411Y-79774010D01*
X132593158Y-79662068D01*
X132306260Y-79605000D01*
X132013740Y-79605000D01*
X131726842Y-79662068D01*
X131456589Y-79774010D01*
X131213368Y-79936525D01*
X131006525Y-80143368D01*
X130890000Y-80317760D01*
X130773475Y-80143368D01*
X130566632Y-79936525D01*
X130323411Y-79774010D01*
X130053158Y-79662068D01*
X129766260Y-79605000D01*
X129473740Y-79605000D01*
X129186842Y-79662068D01*
X128916589Y-79774010D01*
X128673368Y-79936525D01*
X128466525Y-80143368D01*
X128350000Y-80317760D01*
X128233475Y-80143368D01*
X128026632Y-79936525D01*
X127783411Y-79774010D01*
X127513158Y-79662068D01*
X127226260Y-79605000D01*
X126933740Y-79605000D01*
X126646842Y-79662068D01*
X126376589Y-79774010D01*
X126133368Y-79936525D01*
X125926525Y-80143368D01*
X125885344Y-80205000D01*
X125734656Y-80205000D01*
X125693475Y-80143368D01*
X125486632Y-79936525D01*
X125243411Y-79774010D01*
X124973158Y-79662068D01*
X124686260Y-79605000D01*
X124393740Y-79605000D01*
X124106842Y-79662068D01*
X123836589Y-79774010D01*
X123593368Y-79936525D01*
X123386525Y-80143368D01*
X123224010Y-80386589D01*
X123112068Y-80656842D01*
X123055000Y-80943740D01*
X123055000Y-81236260D01*
X123069461Y-81308960D01*
X122394951Y-81983471D01*
X122361184Y-82011183D01*
X122333471Y-82044951D01*
X122333468Y-82044954D01*
X122250590Y-82145941D01*
X122168412Y-82299687D01*
X122117805Y-82466510D01*
X122100719Y-82640000D01*
X122105001Y-82683479D01*
X122105000Y-91656531D01*
X122100719Y-91700000D01*
X122105000Y-91743469D01*
X122105000Y-91743476D01*
X122110075Y-91795000D01*
X122117805Y-91873490D01*
X122130120Y-91914086D01*
X122168411Y-92040312D01*
X122250589Y-92194058D01*
X122361183Y-92328817D01*
X122394956Y-92356534D01*
X124086648Y-94048227D01*
X123940226Y-94146063D01*
X123796063Y-94290226D01*
X123682795Y-94459744D01*
X123604774Y-94648102D01*
X123565000Y-94848061D01*
X123565000Y-95051939D01*
X123604774Y-95251898D01*
X123682795Y-95440256D01*
X123796063Y-95609774D01*
X123940226Y-95753937D01*
X124109744Y-95867205D01*
X124298102Y-95945226D01*
X124498061Y-95985000D01*
X124701939Y-95985000D01*
X124901898Y-95945226D01*
X125090256Y-95867205D01*
X125259774Y-95753937D01*
X125403937Y-95609774D01*
X125517205Y-95440256D01*
X125595226Y-95251898D01*
X125635000Y-95051939D01*
X125635000Y-94848061D01*
X125595226Y-94648102D01*
X125517205Y-94459744D01*
X125447217Y-94355000D01*
X126852851Y-94355000D01*
X126799799Y-94483077D01*
X126760025Y-94683036D01*
X126760025Y-94886914D01*
X126799799Y-95086873D01*
X126877820Y-95275231D01*
X126991088Y-95444749D01*
X127135251Y-95588912D01*
X127304769Y-95702180D01*
X127493127Y-95780201D01*
X127565000Y-95794497D01*
X127565000Y-95851939D01*
X127604774Y-96051898D01*
X127682795Y-96240256D01*
X127796063Y-96409774D01*
X127940226Y-96553937D01*
X128109744Y-96667205D01*
X128298102Y-96745226D01*
X128498061Y-96785000D01*
X128701939Y-96785000D01*
X128901898Y-96745226D01*
X129090256Y-96667205D01*
X129259774Y-96553937D01*
X129403937Y-96409774D01*
X129517205Y-96240256D01*
X129595226Y-96051898D01*
X129635000Y-95851939D01*
X129635000Y-95648061D01*
X129595226Y-95448102D01*
X129517205Y-95259744D01*
X129403937Y-95090226D01*
X129259774Y-94946063D01*
X129090256Y-94832795D01*
X128901898Y-94754774D01*
X128830025Y-94740478D01*
X128830025Y-94683036D01*
X128790251Y-94483077D01*
X128737199Y-94355000D01*
X129505765Y-94355000D01*
X129454774Y-94478102D01*
X129415000Y-94678061D01*
X129415000Y-94881939D01*
X129454774Y-95081898D01*
X129532795Y-95270256D01*
X129646063Y-95439774D01*
X129790226Y-95583937D01*
X129959744Y-95697205D01*
X130148102Y-95775226D01*
X130348061Y-95815000D01*
X130551939Y-95815000D01*
X130751898Y-95775226D01*
X130940256Y-95697205D01*
X131109774Y-95583937D01*
X131253937Y-95439774D01*
X131367205Y-95270256D01*
X131445226Y-95081898D01*
X131485000Y-94881939D01*
X131485000Y-94678061D01*
X131445226Y-94478102D01*
X131394235Y-94355000D01*
X131633511Y-94355000D01*
X131615000Y-94448061D01*
X131615000Y-94651939D01*
X131654774Y-94851898D01*
X131732795Y-95040256D01*
X131846063Y-95209774D01*
X131990226Y-95353937D01*
X132159744Y-95467205D01*
X132348102Y-95545226D01*
X132548061Y-95585000D01*
X132751939Y-95585000D01*
X132794014Y-95576631D01*
X132832795Y-95670256D01*
X132946063Y-95839774D01*
X133090226Y-95983937D01*
X133259744Y-96097205D01*
X133448102Y-96175226D01*
X133648061Y-96215000D01*
X133851939Y-96215000D01*
X134051898Y-96175226D01*
X134240256Y-96097205D01*
X134409774Y-95983937D01*
X134553937Y-95839774D01*
X134667205Y-95670256D01*
X134697571Y-95596946D01*
X134738061Y-95605000D01*
X134941939Y-95605000D01*
X135141898Y-95565226D01*
X135330256Y-95487205D01*
X135499774Y-95373937D01*
X135643937Y-95229774D01*
X135757205Y-95060256D01*
X135835226Y-94871898D01*
X135875000Y-94671939D01*
X135875000Y-94468061D01*
X135852511Y-94355000D01*
X141903422Y-94355000D01*
X142183465Y-94635044D01*
X142194774Y-94691898D01*
X142272795Y-94880256D01*
X142305000Y-94928454D01*
X142305000Y-94956531D01*
X142300719Y-95000000D01*
X142305000Y-95043469D01*
X142305000Y-95043476D01*
X142312346Y-95118061D01*
X142317805Y-95173490D01*
X142318549Y-95175941D01*
X142368411Y-95340312D01*
X142450589Y-95494058D01*
X142561183Y-95628817D01*
X142594956Y-95656534D01*
X143203470Y-96265049D01*
X143231183Y-96298817D01*
X143264951Y-96326530D01*
X143264953Y-96326532D01*
X143276567Y-96336063D01*
X143365941Y-96409411D01*
X143519687Y-96491589D01*
X143686510Y-96542195D01*
X143816523Y-96555000D01*
X143816533Y-96555000D01*
X143859999Y-96559281D01*
X143903466Y-96555000D01*
X146273422Y-96555000D01*
X147035001Y-97316580D01*
X147035000Y-103165000D01*
X146888061Y-103165000D01*
X146688102Y-103204774D01*
X146499744Y-103282795D01*
X146330226Y-103396063D01*
X146186063Y-103540226D01*
X146072795Y-103709744D01*
X145994774Y-103898102D01*
X145955000Y-104098061D01*
X145955000Y-104301939D01*
X145994774Y-104501898D01*
X146072795Y-104690256D01*
X146186063Y-104859774D01*
X146330226Y-105003937D01*
X146499744Y-105117205D01*
X146688102Y-105195226D01*
X146888061Y-105235000D01*
X147091939Y-105235000D01*
X147291898Y-105195226D01*
X147480256Y-105117205D01*
X147633340Y-105014918D01*
X148073470Y-105455049D01*
X148101183Y-105488817D01*
X148134951Y-105516530D01*
X148134953Y-105516532D01*
X148202592Y-105572042D01*
X148235941Y-105599411D01*
X148389687Y-105681589D01*
X148502385Y-105715776D01*
X148556509Y-105732195D01*
X148571306Y-105733652D01*
X148686523Y-105745000D01*
X148686531Y-105745000D01*
X148730000Y-105749281D01*
X148773469Y-105745000D01*
X148901546Y-105745000D01*
X148949744Y-105777205D01*
X149138102Y-105855226D01*
X149338061Y-105895000D01*
X149541939Y-105895000D01*
X149741898Y-105855226D01*
X149930256Y-105777205D01*
X150099774Y-105663937D01*
X150243937Y-105519774D01*
X150281423Y-105463673D01*
X150396533Y-105475010D01*
X150396543Y-105475010D01*
X150440009Y-105479291D01*
X150483476Y-105475010D01*
X163600038Y-105475010D01*
X163643507Y-105479291D01*
X163686976Y-105475010D01*
X163686984Y-105475010D01*
X163816997Y-105462205D01*
X163983820Y-105411599D01*
X164137566Y-105329421D01*
X164272324Y-105218827D01*
X164296775Y-105189033D01*
X175529545Y-105189033D01*
X175529545Y-105590967D01*
X175607958Y-105985179D01*
X175761772Y-106356518D01*
X175985075Y-106690714D01*
X176269286Y-106974925D01*
X176603482Y-107198228D01*
X176974821Y-107352042D01*
X177369033Y-107430455D01*
X177770967Y-107430455D01*
X178165179Y-107352042D01*
X178536518Y-107198228D01*
X178870714Y-106974925D01*
X179154925Y-106690714D01*
X179378228Y-106356518D01*
X179532042Y-105985179D01*
X179610455Y-105590967D01*
X179610455Y-105189033D01*
X179532042Y-104794821D01*
X179378228Y-104423482D01*
X179154925Y-104089286D01*
X178870714Y-103805075D01*
X178536518Y-103581772D01*
X178165179Y-103427958D01*
X177770967Y-103349545D01*
X177369033Y-103349545D01*
X176974821Y-103427958D01*
X176603482Y-103581772D01*
X176269286Y-103805075D01*
X175985075Y-104089286D01*
X175761772Y-104423482D01*
X175607958Y-104794821D01*
X175529545Y-105189033D01*
X164296775Y-105189033D01*
X164300041Y-105185054D01*
X164795054Y-104690041D01*
X164828827Y-104662324D01*
X164939421Y-104527566D01*
X165021599Y-104373820D01*
X165072205Y-104206997D01*
X165085010Y-104076984D01*
X165085010Y-104076974D01*
X165089291Y-104033508D01*
X165085010Y-103990042D01*
X165085010Y-102788061D01*
X169965000Y-102788061D01*
X169965000Y-102991939D01*
X170004774Y-103191898D01*
X170082795Y-103380256D01*
X170196063Y-103549774D01*
X170340226Y-103693937D01*
X170509744Y-103807205D01*
X170698102Y-103885226D01*
X170898061Y-103925000D01*
X171101939Y-103925000D01*
X171301898Y-103885226D01*
X171490256Y-103807205D01*
X171659774Y-103693937D01*
X171803937Y-103549774D01*
X171917205Y-103380256D01*
X171995226Y-103191898D01*
X172035000Y-102991939D01*
X172035000Y-102788061D01*
X171995226Y-102588102D01*
X171917205Y-102399744D01*
X171803937Y-102230226D01*
X171659774Y-102086063D01*
X171490256Y-101972795D01*
X171301898Y-101894774D01*
X171101939Y-101855000D01*
X170898061Y-101855000D01*
X170698102Y-101894774D01*
X170509744Y-101972795D01*
X170340226Y-102086063D01*
X170196063Y-102230226D01*
X170082795Y-102399744D01*
X170004774Y-102588102D01*
X169965000Y-102788061D01*
X165085010Y-102788061D01*
X165085010Y-102592423D01*
X165238924Y-102561808D01*
X165427282Y-102483787D01*
X165596800Y-102370519D01*
X165740963Y-102226356D01*
X165854231Y-102056838D01*
X165932252Y-101868480D01*
X165972026Y-101668521D01*
X165972026Y-101464643D01*
X165932252Y-101264684D01*
X165854231Y-101076326D01*
X165740963Y-100906808D01*
X165596800Y-100762645D01*
X165574974Y-100748061D01*
X170744990Y-100748061D01*
X170744990Y-100951939D01*
X170784764Y-101151898D01*
X170862785Y-101340256D01*
X170976053Y-101509774D01*
X171120216Y-101653937D01*
X171289734Y-101767205D01*
X171478092Y-101845226D01*
X171678051Y-101885000D01*
X171881929Y-101885000D01*
X172081888Y-101845226D01*
X172270246Y-101767205D01*
X172439764Y-101653937D01*
X172583927Y-101509774D01*
X172697195Y-101340256D01*
X172775216Y-101151898D01*
X172814990Y-100951939D01*
X172814990Y-100748061D01*
X172775216Y-100548102D01*
X172697195Y-100359744D01*
X172583927Y-100190226D01*
X172439764Y-100046063D01*
X172270246Y-99932795D01*
X172081888Y-99854774D01*
X171881929Y-99815000D01*
X171678051Y-99815000D01*
X171478092Y-99854774D01*
X171289734Y-99932795D01*
X171120216Y-100046063D01*
X170976053Y-100190226D01*
X170862785Y-100359744D01*
X170784764Y-100548102D01*
X170744990Y-100748061D01*
X165574974Y-100748061D01*
X165427282Y-100649377D01*
X165238924Y-100571356D01*
X165038965Y-100531582D01*
X164835087Y-100531582D01*
X164635128Y-100571356D01*
X164446770Y-100649377D01*
X164372616Y-100698925D01*
X164249774Y-100576083D01*
X164080256Y-100462815D01*
X163891898Y-100384794D01*
X163691939Y-100345020D01*
X163488061Y-100345020D01*
X163288102Y-100384794D01*
X163099744Y-100462815D01*
X162930226Y-100576083D01*
X162786063Y-100720246D01*
X162709489Y-100834847D01*
X162511386Y-100795442D01*
X162307508Y-100795442D01*
X162107549Y-100835216D01*
X161919191Y-100913237D01*
X161749673Y-101026505D01*
X161605510Y-101170668D01*
X161492242Y-101340186D01*
X161414221Y-101528544D01*
X161374447Y-101728503D01*
X161374447Y-101932381D01*
X161414221Y-102132340D01*
X161492242Y-102320698D01*
X161605510Y-102490216D01*
X161749673Y-102634379D01*
X161788018Y-102660000D01*
X161725448Y-102660000D01*
X161539978Y-102696892D01*
X161365269Y-102769259D01*
X161208036Y-102874319D01*
X161074319Y-103008036D01*
X160969259Y-103165269D01*
X160896892Y-103339978D01*
X160860000Y-103525448D01*
X160860000Y-103705010D01*
X157000000Y-103705010D01*
X157000000Y-103525448D01*
X156963108Y-103339978D01*
X156890741Y-103165269D01*
X156785681Y-103008036D01*
X156651964Y-102874319D01*
X156494731Y-102769259D01*
X156320022Y-102696892D01*
X156134552Y-102660000D01*
X155945448Y-102660000D01*
X155759978Y-102696892D01*
X155745000Y-102703096D01*
X155745000Y-102484248D01*
X155728577Y-102317501D01*
X155663676Y-102103553D01*
X155558284Y-101906377D01*
X155416449Y-101733551D01*
X155243623Y-101591716D01*
X155046446Y-101486324D01*
X154832498Y-101421423D01*
X154610000Y-101399509D01*
X154387501Y-101421423D01*
X154324305Y-101440594D01*
X154199774Y-101316063D01*
X154030256Y-101202795D01*
X153841898Y-101124774D01*
X153641939Y-101085000D01*
X153438061Y-101085000D01*
X153238102Y-101124774D01*
X153049744Y-101202795D01*
X152880226Y-101316063D01*
X152736063Y-101460226D01*
X152622795Y-101629744D01*
X152544774Y-101818102D01*
X152505000Y-102018061D01*
X152505000Y-102221939D01*
X152544774Y-102421898D01*
X152622795Y-102610256D01*
X152736063Y-102779774D01*
X152880226Y-102923937D01*
X153049744Y-103037205D01*
X153238102Y-103115226D01*
X153438061Y-103155000D01*
X153475000Y-103155000D01*
X153475000Y-103695752D01*
X153475912Y-103705010D01*
X150806589Y-103705010D01*
X149785000Y-102683422D01*
X149785000Y-100518454D01*
X149817205Y-100470256D01*
X149895226Y-100281898D01*
X149935000Y-100081939D01*
X149935000Y-99958040D01*
X153605000Y-99958040D01*
X153605000Y-100161918D01*
X153644774Y-100361877D01*
X153722795Y-100550235D01*
X153836063Y-100719753D01*
X153980226Y-100863916D01*
X154149744Y-100977184D01*
X154338102Y-101055205D01*
X154538061Y-101094979D01*
X154741939Y-101094979D01*
X154941898Y-101055205D01*
X155130256Y-100977184D01*
X155299774Y-100863916D01*
X155443937Y-100719753D01*
X155557205Y-100550235D01*
X155635226Y-100361877D01*
X155675000Y-100161918D01*
X155675000Y-99998051D01*
X159575000Y-99998051D01*
X159575000Y-100201929D01*
X159614774Y-100401888D01*
X159692795Y-100590246D01*
X159806063Y-100759764D01*
X159950226Y-100903927D01*
X160119744Y-101017195D01*
X160308102Y-101095216D01*
X160508061Y-101134990D01*
X160711939Y-101134990D01*
X160911898Y-101095216D01*
X161100256Y-101017195D01*
X161269774Y-100903927D01*
X161413937Y-100759764D01*
X161527205Y-100590246D01*
X161605226Y-100401888D01*
X161645000Y-100201929D01*
X161645000Y-99998051D01*
X161605226Y-99798092D01*
X161527205Y-99609734D01*
X161413937Y-99440216D01*
X161269774Y-99296053D01*
X161100256Y-99182785D01*
X160911898Y-99104764D01*
X160711939Y-99064990D01*
X160508061Y-99064990D01*
X160308102Y-99104764D01*
X160119744Y-99182785D01*
X159950226Y-99296053D01*
X159806063Y-99440216D01*
X159692795Y-99609734D01*
X159614774Y-99798092D01*
X159575000Y-99998051D01*
X155675000Y-99998051D01*
X155675000Y-99958040D01*
X155635226Y-99758081D01*
X155557205Y-99569723D01*
X155443937Y-99400205D01*
X155299774Y-99256042D01*
X155130256Y-99142774D01*
X154941898Y-99064753D01*
X154741939Y-99024979D01*
X154538061Y-99024979D01*
X154338102Y-99064753D01*
X154149744Y-99142774D01*
X153980226Y-99256042D01*
X153836063Y-99400205D01*
X153722795Y-99569723D01*
X153644774Y-99758081D01*
X153605000Y-99958040D01*
X149935000Y-99958040D01*
X149935000Y-99878061D01*
X149895226Y-99678102D01*
X149817205Y-99489744D01*
X149703937Y-99320226D01*
X149559774Y-99176063D01*
X149390256Y-99062795D01*
X149201898Y-98984774D01*
X149001939Y-98945000D01*
X148805000Y-98945000D01*
X148805000Y-97455158D01*
X149057658Y-97707816D01*
X149082236Y-97737764D01*
X149112184Y-97762342D01*
X149112187Y-97762345D01*
X149126625Y-97774194D01*
X149201767Y-97835862D01*
X149338140Y-97908754D01*
X149486112Y-97953641D01*
X149500490Y-97955057D01*
X149601439Y-97965000D01*
X149601446Y-97965000D01*
X149639999Y-97968797D01*
X149678552Y-97965000D01*
X150825000Y-97965000D01*
X150825000Y-97981939D01*
X150864774Y-98181898D01*
X150942795Y-98370256D01*
X151056063Y-98539774D01*
X151200226Y-98683937D01*
X151369744Y-98797205D01*
X151558102Y-98875226D01*
X151758061Y-98915000D01*
X151961939Y-98915000D01*
X152161898Y-98875226D01*
X152350256Y-98797205D01*
X152519774Y-98683937D01*
X152663937Y-98539774D01*
X152777205Y-98370256D01*
X152855226Y-98181898D01*
X152895000Y-97981939D01*
X152895000Y-97778061D01*
X152891513Y-97760532D01*
X153020256Y-97707205D01*
X153189774Y-97593937D01*
X153333937Y-97449774D01*
X153447205Y-97280256D01*
X153525226Y-97091898D01*
X153565000Y-96891939D01*
X153565000Y-96688061D01*
X153525226Y-96488102D01*
X153447205Y-96299744D01*
X153333937Y-96130226D01*
X153189774Y-95986063D01*
X153020256Y-95872795D01*
X152831898Y-95794774D01*
X152631939Y-95755000D01*
X152428061Y-95755000D01*
X152228102Y-95794774D01*
X152039744Y-95872795D01*
X151870226Y-95986063D01*
X151726063Y-96130226D01*
X151612795Y-96299744D01*
X151534774Y-96488102D01*
X151534393Y-96490015D01*
X151461860Y-96451246D01*
X151313887Y-96406359D01*
X151198561Y-96395000D01*
X151198553Y-96395000D01*
X151160000Y-96391203D01*
X151121447Y-96395000D01*
X149965158Y-96395000D01*
X145272347Y-91702190D01*
X145247764Y-91672236D01*
X145128233Y-91574138D01*
X144991860Y-91501246D01*
X144981361Y-91498061D01*
X150155000Y-91498061D01*
X150155000Y-91701939D01*
X150194774Y-91901898D01*
X150272795Y-92090256D01*
X150386063Y-92259774D01*
X150530226Y-92403937D01*
X150699744Y-92517205D01*
X150888102Y-92595226D01*
X151088061Y-92635000D01*
X151291939Y-92635000D01*
X151474201Y-92598746D01*
X151484774Y-92651898D01*
X151562795Y-92840256D01*
X151676063Y-93009774D01*
X151820226Y-93153937D01*
X151989744Y-93267205D01*
X152178102Y-93345226D01*
X152378061Y-93385000D01*
X152581939Y-93385000D01*
X152781898Y-93345226D01*
X152970256Y-93267205D01*
X153139774Y-93153937D01*
X153283937Y-93009774D01*
X153397205Y-92840256D01*
X153475226Y-92651898D01*
X153515000Y-92451939D01*
X153515000Y-92248061D01*
X153475226Y-92048102D01*
X153397205Y-91859744D01*
X153283937Y-91690226D01*
X153139774Y-91546063D01*
X152970256Y-91432795D01*
X152781898Y-91354774D01*
X152581939Y-91315000D01*
X152378061Y-91315000D01*
X152195799Y-91351254D01*
X152185226Y-91298102D01*
X152107205Y-91109744D01*
X151993937Y-90940226D01*
X151849774Y-90796063D01*
X151680256Y-90682795D01*
X151491898Y-90604774D01*
X151291939Y-90565000D01*
X151088061Y-90565000D01*
X150888102Y-90604774D01*
X150699744Y-90682795D01*
X150530226Y-90796063D01*
X150386063Y-90940226D01*
X150272795Y-91109744D01*
X150194774Y-91298102D01*
X150155000Y-91498061D01*
X144981361Y-91498061D01*
X144843887Y-91456359D01*
X144728561Y-91445000D01*
X144728553Y-91445000D01*
X144690000Y-91441203D01*
X144651447Y-91445000D01*
X138370490Y-91445000D01*
X138467205Y-91300256D01*
X138545226Y-91111898D01*
X138585000Y-90911939D01*
X138585000Y-90708061D01*
X138545226Y-90508102D01*
X138467205Y-90319744D01*
X138435672Y-90272551D01*
X138437205Y-90270256D01*
X138515226Y-90081898D01*
X138555000Y-89881939D01*
X138555000Y-89678061D01*
X138515226Y-89478102D01*
X138437205Y-89289744D01*
X138323937Y-89120226D01*
X138179774Y-88976063D01*
X138107934Y-88928061D01*
X141405000Y-88928061D01*
X141405000Y-89131939D01*
X141444774Y-89331898D01*
X141522795Y-89520256D01*
X141636063Y-89689774D01*
X141780226Y-89833937D01*
X141949744Y-89947205D01*
X142138102Y-90025226D01*
X142338061Y-90065000D01*
X142541939Y-90065000D01*
X142741898Y-90025226D01*
X142930256Y-89947205D01*
X143099774Y-89833937D01*
X143243937Y-89689774D01*
X143357205Y-89520256D01*
X143435226Y-89331898D01*
X143475000Y-89131939D01*
X143475000Y-88928061D01*
X143435226Y-88728102D01*
X143357205Y-88539744D01*
X143243937Y-88370226D01*
X143099774Y-88226063D01*
X142930256Y-88112795D01*
X142741898Y-88034774D01*
X142541939Y-87995000D01*
X142338061Y-87995000D01*
X142138102Y-88034774D01*
X141949744Y-88112795D01*
X141780226Y-88226063D01*
X141636063Y-88370226D01*
X141522795Y-88539744D01*
X141444774Y-88728102D01*
X141405000Y-88928061D01*
X138107934Y-88928061D01*
X138010256Y-88862795D01*
X137821898Y-88784774D01*
X137621939Y-88745000D01*
X137418061Y-88745000D01*
X137218102Y-88784774D01*
X137029744Y-88862795D01*
X136860226Y-88976063D01*
X136716063Y-89120226D01*
X136687173Y-89163462D01*
X136579774Y-89056063D01*
X136410256Y-88942795D01*
X136221898Y-88864774D01*
X136021939Y-88825000D01*
X135818061Y-88825000D01*
X135618102Y-88864774D01*
X135429744Y-88942795D01*
X135260226Y-89056063D01*
X135116063Y-89200226D01*
X135002795Y-89369744D01*
X134924774Y-89558102D01*
X134885000Y-89758061D01*
X134885000Y-89934843D01*
X134315000Y-89364843D01*
X134315000Y-87577690D01*
X134854629Y-87577690D01*
X134854629Y-87781568D01*
X134894403Y-87981527D01*
X134972424Y-88169885D01*
X135085692Y-88339403D01*
X135229855Y-88483566D01*
X135399373Y-88596834D01*
X135587731Y-88674855D01*
X135787690Y-88714629D01*
X135991568Y-88714629D01*
X136191527Y-88674855D01*
X136379885Y-88596834D01*
X136549403Y-88483566D01*
X136693566Y-88339403D01*
X136806834Y-88169885D01*
X136884855Y-87981527D01*
X136924629Y-87781568D01*
X136924629Y-87577690D01*
X136884855Y-87377731D01*
X136806834Y-87189373D01*
X136737156Y-87085092D01*
X136807205Y-86980256D01*
X136885226Y-86791898D01*
X136925000Y-86591939D01*
X136925000Y-86388061D01*
X136885226Y-86188102D01*
X136807205Y-85999744D01*
X136693937Y-85830226D01*
X136549774Y-85686063D01*
X136380256Y-85572795D01*
X136191898Y-85494774D01*
X135991939Y-85455000D01*
X135788061Y-85455000D01*
X135588102Y-85494774D01*
X135399744Y-85572795D01*
X135230226Y-85686063D01*
X135086063Y-85830226D01*
X134972795Y-85999744D01*
X134894774Y-86188102D01*
X134855000Y-86388061D01*
X134855000Y-86591939D01*
X134894774Y-86791898D01*
X134972795Y-86980256D01*
X135042473Y-87084537D01*
X134972424Y-87189373D01*
X134894403Y-87377731D01*
X134854629Y-87577690D01*
X134315000Y-87577690D01*
X134315000Y-85067511D01*
X134553740Y-85115000D01*
X134846260Y-85115000D01*
X135133158Y-85057932D01*
X135403411Y-84945990D01*
X135646632Y-84783475D01*
X135853475Y-84576632D01*
X135970000Y-84402240D01*
X136086525Y-84576632D01*
X136293368Y-84783475D01*
X136536589Y-84945990D01*
X136806842Y-85057932D01*
X137093740Y-85115000D01*
X137386260Y-85115000D01*
X137673158Y-85057932D01*
X137943411Y-84945990D01*
X138186632Y-84783475D01*
X138393475Y-84576632D01*
X138510000Y-84402240D01*
X138626525Y-84576632D01*
X138833368Y-84783475D01*
X139076589Y-84945990D01*
X139346842Y-85057932D01*
X139633740Y-85115000D01*
X139926260Y-85115000D01*
X140213158Y-85057932D01*
X140483411Y-84945990D01*
X140726632Y-84783475D01*
X140933475Y-84576632D01*
X141050000Y-84402240D01*
X141166525Y-84576632D01*
X141373368Y-84783475D01*
X141616589Y-84945990D01*
X141886842Y-85057932D01*
X142173740Y-85115000D01*
X142466260Y-85115000D01*
X142753158Y-85057932D01*
X143023411Y-84945990D01*
X143266632Y-84783475D01*
X143473475Y-84576632D01*
X143595195Y-84394466D01*
X143664822Y-84511355D01*
X143859731Y-84727588D01*
X144093080Y-84901641D01*
X144355901Y-85026825D01*
X144503110Y-85071476D01*
X144733000Y-84950155D01*
X144733000Y-83757000D01*
X144713000Y-83757000D01*
X144713000Y-83503000D01*
X144733000Y-83503000D01*
X144733000Y-83483000D01*
X144987000Y-83483000D01*
X144987000Y-83503000D01*
X145007000Y-83503000D01*
X145007000Y-83757000D01*
X144987000Y-83757000D01*
X144987000Y-84950155D01*
X145216890Y-85071476D01*
X145364099Y-85026825D01*
X145626920Y-84901641D01*
X145860269Y-84727588D01*
X146055178Y-84511355D01*
X146124805Y-84394466D01*
X146246525Y-84576632D01*
X146453368Y-84783475D01*
X146696589Y-84945990D01*
X146966842Y-85057932D01*
X147253740Y-85115000D01*
X147546260Y-85115000D01*
X147833158Y-85057932D01*
X147945000Y-85011606D01*
X147945000Y-85755553D01*
X147835553Y-85865000D01*
X147738061Y-85865000D01*
X147538102Y-85904774D01*
X147349744Y-85982795D01*
X147348344Y-85983731D01*
X147330316Y-85971685D01*
X147141958Y-85893664D01*
X146941999Y-85853890D01*
X146738121Y-85853890D01*
X146538162Y-85893664D01*
X146349804Y-85971685D01*
X146339177Y-85978786D01*
X146330315Y-85972865D01*
X146141957Y-85894844D01*
X145941998Y-85855070D01*
X145738120Y-85855070D01*
X145538161Y-85894844D01*
X145349803Y-85972865D01*
X145180285Y-86086133D01*
X145036122Y-86230296D01*
X144922854Y-86399814D01*
X144844833Y-86588172D01*
X144805059Y-86788131D01*
X144805059Y-86992009D01*
X144819739Y-87065813D01*
X144800256Y-87052795D01*
X144611898Y-86974774D01*
X144411939Y-86935000D01*
X144208061Y-86935000D01*
X144008102Y-86974774D01*
X143819744Y-87052795D01*
X143650226Y-87166063D01*
X143506063Y-87310226D01*
X143392795Y-87479744D01*
X143314774Y-87668102D01*
X143275000Y-87868061D01*
X143275000Y-88071939D01*
X143314774Y-88271898D01*
X143392795Y-88460256D01*
X143506063Y-88629774D01*
X143650226Y-88773937D01*
X143819744Y-88887205D01*
X144008102Y-88965226D01*
X144208061Y-89005000D01*
X144411939Y-89005000D01*
X144611898Y-88965226D01*
X144800256Y-88887205D01*
X144969774Y-88773937D01*
X145113937Y-88629774D01*
X145227205Y-88460256D01*
X145305226Y-88271898D01*
X145345000Y-88071939D01*
X145345000Y-87868061D01*
X145330320Y-87794257D01*
X145349803Y-87807275D01*
X145538161Y-87885296D01*
X145738120Y-87925070D01*
X145941998Y-87925070D01*
X146141957Y-87885296D01*
X146330315Y-87807275D01*
X146340942Y-87800174D01*
X146349804Y-87806095D01*
X146538162Y-87884116D01*
X146738121Y-87923890D01*
X146805000Y-87923890D01*
X146805000Y-88071939D01*
X146844774Y-88271898D01*
X146922795Y-88460256D01*
X147036063Y-88629774D01*
X147180226Y-88773937D01*
X147349744Y-88887205D01*
X147538102Y-88965226D01*
X147738061Y-89005000D01*
X147941939Y-89005000D01*
X148141898Y-88965226D01*
X148330256Y-88887205D01*
X148499774Y-88773937D01*
X148643937Y-88629774D01*
X148757205Y-88460256D01*
X148835226Y-88271898D01*
X148875000Y-88071939D01*
X148875000Y-87974446D01*
X151684197Y-85165250D01*
X151712237Y-85142238D01*
X151735250Y-85114197D01*
X151735253Y-85114194D01*
X151804086Y-85030321D01*
X151804087Y-85030320D01*
X151836007Y-84970602D01*
X152046842Y-85057932D01*
X152333740Y-85115000D01*
X152626260Y-85115000D01*
X152913158Y-85057932D01*
X153012127Y-85016938D01*
X153025635Y-85154084D01*
X153067663Y-85292632D01*
X153135913Y-85420319D01*
X153227762Y-85532237D01*
X153255808Y-85555254D01*
X155495000Y-87794447D01*
X155495000Y-87891939D01*
X155534774Y-88091898D01*
X155612795Y-88280256D01*
X155726063Y-88449774D01*
X155870226Y-88593937D01*
X156039744Y-88707205D01*
X156228102Y-88785226D01*
X156428061Y-88825000D01*
X156631939Y-88825000D01*
X156831898Y-88785226D01*
X157020256Y-88707205D01*
X157189774Y-88593937D01*
X157333937Y-88449774D01*
X157447205Y-88280256D01*
X157525226Y-88091898D01*
X157565000Y-87891939D01*
X157565000Y-87688061D01*
X157532780Y-87526077D01*
X157542795Y-87550256D01*
X157656063Y-87719774D01*
X157800226Y-87863937D01*
X157969744Y-87977205D01*
X158158102Y-88055226D01*
X158358061Y-88095000D01*
X158561939Y-88095000D01*
X158761898Y-88055226D01*
X158950256Y-87977205D01*
X158990000Y-87950649D01*
X159029744Y-87977205D01*
X159218102Y-88055226D01*
X159418061Y-88095000D01*
X159621939Y-88095000D01*
X159821898Y-88055226D01*
X160010256Y-87977205D01*
X160179774Y-87863937D01*
X160323937Y-87719774D01*
X160437205Y-87550256D01*
X160515226Y-87361898D01*
X160555000Y-87161939D01*
X160555000Y-86958061D01*
X160515226Y-86758102D01*
X160437205Y-86569744D01*
X160323937Y-86400226D01*
X160179774Y-86256063D01*
X160010256Y-86142795D01*
X159821898Y-86064774D01*
X159621939Y-86025000D01*
X159418061Y-86025000D01*
X159218102Y-86064774D01*
X159029744Y-86142795D01*
X158990000Y-86169351D01*
X158950256Y-86142795D01*
X158940636Y-86138810D01*
X159304197Y-85775250D01*
X159332237Y-85752238D01*
X159355250Y-85724197D01*
X159355253Y-85724194D01*
X159413644Y-85653045D01*
X159424087Y-85640320D01*
X159492337Y-85512633D01*
X159534365Y-85374085D01*
X159545000Y-85266105D01*
X159545000Y-85266096D01*
X159548555Y-85230001D01*
X159545000Y-85193906D01*
X159545000Y-85007464D01*
X159666842Y-85057932D01*
X159953740Y-85115000D01*
X160246260Y-85115000D01*
X160533158Y-85057932D01*
X160803411Y-84945990D01*
X161046632Y-84783475D01*
X161253475Y-84576632D01*
X161370000Y-84402240D01*
X161486525Y-84576632D01*
X161693368Y-84783475D01*
X161936589Y-84945990D01*
X162206842Y-85057932D01*
X162218566Y-85060264D01*
X162060226Y-85166063D01*
X161916063Y-85310226D01*
X161802795Y-85479744D01*
X161724774Y-85668102D01*
X161685000Y-85868061D01*
X161685000Y-86071939D01*
X161724774Y-86271898D01*
X161802795Y-86460256D01*
X161916063Y-86629774D01*
X162060226Y-86773937D01*
X162116343Y-86811433D01*
X162108001Y-86815892D01*
X161996083Y-86907741D01*
X161973067Y-86935786D01*
X160085814Y-88823040D01*
X160057769Y-88846056D01*
X159965920Y-88957974D01*
X159910350Y-89061939D01*
X159897670Y-89085661D01*
X159855641Y-89224209D01*
X159841450Y-89368294D01*
X159845007Y-89404409D01*
X159845006Y-90811310D01*
X159830138Y-90826178D01*
X159740034Y-90736074D01*
X159570516Y-90622806D01*
X159382158Y-90544785D01*
X159182199Y-90505011D01*
X158978321Y-90505011D01*
X158778362Y-90544785D01*
X158669878Y-90589721D01*
X158532346Y-90452189D01*
X158507764Y-90422236D01*
X158388233Y-90324138D01*
X158251860Y-90251246D01*
X158103887Y-90206359D01*
X157988561Y-90195000D01*
X157988553Y-90195000D01*
X157950000Y-90191203D01*
X157911447Y-90195000D01*
X156858556Y-90195000D01*
X156820000Y-90191203D01*
X156781444Y-90195000D01*
X156781439Y-90195000D01*
X156741026Y-90198980D01*
X156666113Y-90206358D01*
X156518140Y-90251246D01*
X156381767Y-90324138D01*
X156262236Y-90422236D01*
X156237653Y-90452190D01*
X155712190Y-90977653D01*
X155682236Y-91002236D01*
X155584138Y-91121768D01*
X155511246Y-91258141D01*
X155466359Y-91406114D01*
X155455000Y-91521440D01*
X155455000Y-91521447D01*
X155451203Y-91560000D01*
X155455000Y-91598553D01*
X155455001Y-94821426D01*
X155451203Y-94859989D01*
X155466359Y-95013875D01*
X155511246Y-95161848D01*
X155518779Y-95175941D01*
X155584139Y-95298222D01*
X155609962Y-95329687D01*
X155657655Y-95387801D01*
X155657659Y-95387805D01*
X155682237Y-95417753D01*
X155712185Y-95442331D01*
X156485000Y-96215147D01*
X156485000Y-96241928D01*
X156524774Y-96441887D01*
X156602795Y-96630245D01*
X156716063Y-96799763D01*
X156860226Y-96943926D01*
X157029744Y-97057194D01*
X157218102Y-97135215D01*
X157418061Y-97174989D01*
X157621939Y-97174989D01*
X157821898Y-97135215D01*
X158010256Y-97057194D01*
X158179774Y-96943926D01*
X158323937Y-96799763D01*
X158437205Y-96630245D01*
X158515226Y-96441887D01*
X158555000Y-96241928D01*
X158555000Y-96038481D01*
X158677729Y-96014068D01*
X158847889Y-95943586D01*
X159001028Y-95841262D01*
X159042500Y-95799790D01*
X159083972Y-95841262D01*
X159237111Y-95943586D01*
X159252436Y-95949934D01*
X159249846Y-95962956D01*
X159249846Y-96166834D01*
X159289620Y-96366793D01*
X159367641Y-96555151D01*
X159480909Y-96724669D01*
X159625072Y-96868832D01*
X159794590Y-96982100D01*
X159982948Y-97060121D01*
X160182907Y-97099895D01*
X160386785Y-97099895D01*
X160586744Y-97060121D01*
X160775102Y-96982100D01*
X160799796Y-96965600D01*
X160982775Y-97041393D01*
X161182734Y-97081167D01*
X161386612Y-97081167D01*
X161586571Y-97041393D01*
X161774929Y-96963372D01*
X161944447Y-96850104D01*
X162088610Y-96705941D01*
X162201878Y-96536423D01*
X162279899Y-96348065D01*
X162319673Y-96148106D01*
X162319673Y-96143721D01*
X162480256Y-96077205D01*
X162649774Y-95963937D01*
X162793937Y-95819774D01*
X162907205Y-95650256D01*
X162985226Y-95461898D01*
X163025000Y-95261939D01*
X163025000Y-95058061D01*
X162985226Y-94858102D01*
X162907205Y-94669744D01*
X162793937Y-94500226D01*
X162778711Y-94485000D01*
X164375554Y-94485000D01*
X165255001Y-95364448D01*
X165255000Y-97243896D01*
X165251444Y-97280001D01*
X165255779Y-97324018D01*
X165147276Y-97345600D01*
X164958918Y-97423621D01*
X164789400Y-97536889D01*
X164645237Y-97681052D01*
X164531969Y-97850570D01*
X164453948Y-98038928D01*
X164447691Y-98070385D01*
X164434943Y-98072921D01*
X164246585Y-98150942D01*
X164193192Y-98186618D01*
X164040000Y-98123163D01*
X163840041Y-98083389D01*
X163636163Y-98083389D01*
X163621259Y-98086354D01*
X163669774Y-98053937D01*
X163813937Y-97909774D01*
X163927205Y-97740256D01*
X164005226Y-97551898D01*
X164045000Y-97351939D01*
X164045000Y-97148061D01*
X164005226Y-96948102D01*
X163927205Y-96759744D01*
X163813937Y-96590226D01*
X163669774Y-96446063D01*
X163500256Y-96332795D01*
X163311898Y-96254774D01*
X163111939Y-96215000D01*
X162908061Y-96215000D01*
X162708102Y-96254774D01*
X162519744Y-96332795D01*
X162350226Y-96446063D01*
X162206063Y-96590226D01*
X162092795Y-96759744D01*
X162014774Y-96948102D01*
X161975000Y-97148061D01*
X161975000Y-97351939D01*
X162014774Y-97551898D01*
X162092795Y-97740256D01*
X162206063Y-97909774D01*
X162350226Y-98053937D01*
X162519744Y-98167205D01*
X162708102Y-98245226D01*
X162908061Y-98285000D01*
X163111939Y-98285000D01*
X163126843Y-98282035D01*
X163078328Y-98314452D01*
X162934165Y-98458615D01*
X162820897Y-98628133D01*
X162742876Y-98816491D01*
X162703102Y-99016450D01*
X162703102Y-99220328D01*
X162742876Y-99420287D01*
X162820897Y-99608645D01*
X162934165Y-99778163D01*
X163078328Y-99922326D01*
X163247846Y-100035594D01*
X163436204Y-100113615D01*
X163636163Y-100153389D01*
X163840041Y-100153389D01*
X164040000Y-100113615D01*
X164228358Y-100035594D01*
X164281751Y-99999918D01*
X164434943Y-100063373D01*
X164634902Y-100103147D01*
X164838780Y-100103147D01*
X165038739Y-100063373D01*
X165227097Y-99985352D01*
X165396615Y-99872084D01*
X165540778Y-99727921D01*
X165596097Y-99645130D01*
X165686063Y-99779774D01*
X165830226Y-99923937D01*
X165999744Y-100037205D01*
X166188102Y-100115226D01*
X166388061Y-100155000D01*
X166591939Y-100155000D01*
X166791898Y-100115226D01*
X166980256Y-100037205D01*
X167149774Y-99923937D01*
X167293937Y-99779774D01*
X167407205Y-99610256D01*
X167485226Y-99421898D01*
X167515825Y-99268061D01*
X175915000Y-99268061D01*
X175915000Y-99471939D01*
X175954774Y-99671898D01*
X176032795Y-99860256D01*
X176146063Y-100029774D01*
X176290226Y-100173937D01*
X176459744Y-100287205D01*
X176648102Y-100365226D01*
X176848061Y-100405000D01*
X177051939Y-100405000D01*
X177251898Y-100365226D01*
X177440256Y-100287205D01*
X177609774Y-100173937D01*
X177753937Y-100029774D01*
X177867205Y-99860256D01*
X177945226Y-99671898D01*
X177985000Y-99471939D01*
X177985000Y-99268061D01*
X177945226Y-99068102D01*
X177867205Y-98879744D01*
X177753937Y-98710226D01*
X177609774Y-98566063D01*
X177440256Y-98452795D01*
X177251898Y-98374774D01*
X177051939Y-98335000D01*
X176848061Y-98335000D01*
X176648102Y-98374774D01*
X176459744Y-98452795D01*
X176290226Y-98566063D01*
X176146063Y-98710226D01*
X176032795Y-98879744D01*
X175954774Y-99068102D01*
X175915000Y-99268061D01*
X167515825Y-99268061D01*
X167525000Y-99221939D01*
X167525000Y-99018061D01*
X167485226Y-98818102D01*
X167407205Y-98629744D01*
X167293937Y-98460226D01*
X167225000Y-98391289D01*
X167225000Y-98015951D01*
X167270256Y-97997205D01*
X167325000Y-97960626D01*
X167379744Y-97997205D01*
X167568102Y-98075226D01*
X167768061Y-98115000D01*
X167971939Y-98115000D01*
X168171898Y-98075226D01*
X168360256Y-97997205D01*
X168529774Y-97883937D01*
X168673937Y-97739774D01*
X168787205Y-97570256D01*
X168792256Y-97558061D01*
X170415000Y-97558061D01*
X170415000Y-97761939D01*
X170454774Y-97961898D01*
X170532795Y-98150256D01*
X170646063Y-98319774D01*
X170790226Y-98463937D01*
X170959744Y-98577205D01*
X171148102Y-98655226D01*
X171348061Y-98695000D01*
X171551939Y-98695000D01*
X171751898Y-98655226D01*
X171940256Y-98577205D01*
X172109774Y-98463937D01*
X172253937Y-98319774D01*
X172367205Y-98150256D01*
X172445226Y-97961898D01*
X172485000Y-97761939D01*
X172485000Y-97558061D01*
X172445226Y-97358102D01*
X172367205Y-97169744D01*
X172253937Y-97000226D01*
X172109774Y-96856063D01*
X171940256Y-96742795D01*
X171751898Y-96664774D01*
X171551939Y-96625000D01*
X171348061Y-96625000D01*
X171148102Y-96664774D01*
X170959744Y-96742795D01*
X170790226Y-96856063D01*
X170646063Y-97000226D01*
X170532795Y-97169744D01*
X170454774Y-97358102D01*
X170415000Y-97558061D01*
X168792256Y-97558061D01*
X168865226Y-97381898D01*
X168905000Y-97181939D01*
X168905000Y-96978061D01*
X168865226Y-96778102D01*
X168787205Y-96589744D01*
X168673937Y-96420226D01*
X168529774Y-96276063D01*
X168528500Y-96275211D01*
X168553937Y-96249774D01*
X168570810Y-96224521D01*
X168670226Y-96323937D01*
X168839744Y-96437205D01*
X169028102Y-96515226D01*
X169228061Y-96555000D01*
X169431939Y-96555000D01*
X169631898Y-96515226D01*
X169820256Y-96437205D01*
X169989774Y-96323937D01*
X170133937Y-96179774D01*
X170247205Y-96010256D01*
X170325226Y-95821898D01*
X170365000Y-95621939D01*
X170365000Y-95418061D01*
X170325226Y-95218102D01*
X170247205Y-95029744D01*
X170246020Y-95027970D01*
X170272826Y-94987851D01*
X170350847Y-94799493D01*
X170390621Y-94599534D01*
X170390621Y-94395656D01*
X170350847Y-94195697D01*
X170272826Y-94007339D01*
X170263484Y-93993358D01*
X170267154Y-93987865D01*
X170345175Y-93799507D01*
X170384949Y-93599548D01*
X170384949Y-93395670D01*
X170345175Y-93195711D01*
X170267154Y-93007353D01*
X170153886Y-92837835D01*
X170009723Y-92693672D01*
X169840205Y-92580404D01*
X169651847Y-92502383D01*
X169451888Y-92462609D01*
X169248010Y-92462609D01*
X169048051Y-92502383D01*
X168859693Y-92580404D01*
X168690175Y-92693672D01*
X168546012Y-92837835D01*
X168432744Y-93007353D01*
X168354723Y-93195711D01*
X168314949Y-93395670D01*
X168314949Y-93599548D01*
X168354723Y-93799507D01*
X168432744Y-93987865D01*
X168442086Y-94001846D01*
X168438416Y-94007339D01*
X168360395Y-94195697D01*
X168320621Y-94395656D01*
X168320621Y-94599534D01*
X168349745Y-94745953D01*
X168240256Y-94672795D01*
X168051898Y-94594774D01*
X167851939Y-94555000D01*
X167648061Y-94555000D01*
X167448102Y-94594774D01*
X167259744Y-94672795D01*
X167090226Y-94786063D01*
X166946063Y-94930226D01*
X166832795Y-95099744D01*
X166754774Y-95288102D01*
X166725000Y-95437787D01*
X166725000Y-95096105D01*
X166728556Y-95060000D01*
X166714365Y-94915915D01*
X166704701Y-94884058D01*
X166672337Y-94777367D01*
X166604087Y-94649680D01*
X166512238Y-94537762D01*
X166484193Y-94514746D01*
X165225258Y-93255812D01*
X165202238Y-93227762D01*
X165090320Y-93135913D01*
X164962633Y-93067663D01*
X164824085Y-93025635D01*
X164716105Y-93015000D01*
X164680000Y-93011444D01*
X164643895Y-93015000D01*
X163038457Y-93015000D01*
X163054979Y-92931939D01*
X163054979Y-92728061D01*
X163015205Y-92528102D01*
X162937184Y-92339744D01*
X162823916Y-92170226D01*
X162752296Y-92098606D01*
X162797394Y-91989731D01*
X162816190Y-91895238D01*
X162894087Y-91800320D01*
X162962337Y-91672633D01*
X163004365Y-91534085D01*
X163015000Y-91426105D01*
X163015000Y-91426096D01*
X163018555Y-91390001D01*
X163015000Y-91353906D01*
X163015000Y-90834555D01*
X163168061Y-90865000D01*
X163371939Y-90865000D01*
X163571898Y-90825226D01*
X163591981Y-90816907D01*
X163663945Y-90888871D01*
X163833463Y-91002139D01*
X164021821Y-91080160D01*
X164221780Y-91119934D01*
X164276508Y-91119934D01*
X164255000Y-91228061D01*
X164255000Y-91431939D01*
X164294774Y-91631898D01*
X164372795Y-91820256D01*
X164486063Y-91989774D01*
X164630226Y-92133937D01*
X164799744Y-92247205D01*
X164988102Y-92325226D01*
X165188061Y-92365000D01*
X165391939Y-92365000D01*
X165591898Y-92325226D01*
X165780256Y-92247205D01*
X165834160Y-92211187D01*
X165795000Y-92408061D01*
X165795000Y-92611939D01*
X165834774Y-92811898D01*
X165912795Y-93000256D01*
X166026063Y-93169774D01*
X166170226Y-93313937D01*
X166339744Y-93427205D01*
X166528102Y-93505226D01*
X166728061Y-93545000D01*
X166931939Y-93545000D01*
X167131898Y-93505226D01*
X167320256Y-93427205D01*
X167489774Y-93313937D01*
X167633937Y-93169774D01*
X167747205Y-93000256D01*
X167825226Y-92811898D01*
X167865000Y-92611939D01*
X167865000Y-92408061D01*
X167825226Y-92208102D01*
X167747205Y-92019744D01*
X167724706Y-91986072D01*
X167770256Y-91967205D01*
X167939774Y-91853937D01*
X168083937Y-91709774D01*
X168197205Y-91540256D01*
X168275226Y-91351898D01*
X168315000Y-91151939D01*
X168315000Y-91084999D01*
X168685553Y-91084999D01*
X171445000Y-93844447D01*
X171445000Y-93951939D01*
X171484774Y-94151898D01*
X171562795Y-94340256D01*
X171676063Y-94509774D01*
X171820226Y-94653937D01*
X171989744Y-94767205D01*
X172178102Y-94845226D01*
X172378061Y-94885000D01*
X172581939Y-94885000D01*
X172781898Y-94845226D01*
X172970256Y-94767205D01*
X173139774Y-94653937D01*
X173283937Y-94509774D01*
X173397205Y-94340256D01*
X173475226Y-94151898D01*
X173515000Y-93951939D01*
X173515000Y-93748061D01*
X173475226Y-93548102D01*
X173397205Y-93359744D01*
X173308831Y-93227483D01*
X173407205Y-93080256D01*
X173485226Y-92891898D01*
X173525000Y-92691939D01*
X173525000Y-92488061D01*
X173485226Y-92288102D01*
X173407205Y-92099744D01*
X173321794Y-91971917D01*
X173333937Y-91959774D01*
X173447205Y-91790256D01*
X173525226Y-91601898D01*
X173565000Y-91401939D01*
X173565000Y-91304446D01*
X174504218Y-90365229D01*
X174532258Y-90342217D01*
X174555271Y-90314176D01*
X174555274Y-90314173D01*
X174624108Y-90230299D01*
X174624792Y-90229019D01*
X174692358Y-90102612D01*
X174734386Y-89964064D01*
X174745021Y-89856084D01*
X174745021Y-89856083D01*
X174748577Y-89819979D01*
X174745021Y-89783874D01*
X174745021Y-87208726D01*
X174748577Y-87172621D01*
X174734386Y-87028536D01*
X174692358Y-86889987D01*
X174624108Y-86762301D01*
X174605797Y-86739989D01*
X174532259Y-86650383D01*
X174504214Y-86627367D01*
X173722637Y-85845791D01*
X173699617Y-85817741D01*
X173587699Y-85725892D01*
X173460012Y-85657642D01*
X173321464Y-85615614D01*
X173213484Y-85604979D01*
X173177379Y-85601423D01*
X173141274Y-85604979D01*
X170399032Y-85604979D01*
X170362927Y-85601423D01*
X170218842Y-85615614D01*
X170080293Y-85657642D01*
X169955784Y-85724194D01*
X169952607Y-85725892D01*
X169840689Y-85817741D01*
X169817673Y-85845786D01*
X168298460Y-87365000D01*
X168068711Y-87365000D01*
X168193937Y-87239774D01*
X168307205Y-87070256D01*
X168385226Y-86881898D01*
X168425000Y-86681939D01*
X168425000Y-86478061D01*
X168385226Y-86278102D01*
X168307205Y-86089744D01*
X168193937Y-85920226D01*
X168049774Y-85776063D01*
X167880256Y-85662795D01*
X167691898Y-85584774D01*
X167491939Y-85545000D01*
X167288061Y-85545000D01*
X167088102Y-85584774D01*
X166899744Y-85662795D01*
X166730226Y-85776063D01*
X166586063Y-85920226D01*
X166472795Y-86089744D01*
X166394774Y-86278102D01*
X166355000Y-86478061D01*
X166355000Y-86681939D01*
X166394774Y-86881898D01*
X166472795Y-87070256D01*
X166586063Y-87239774D01*
X166711289Y-87365000D01*
X165995843Y-87365000D01*
X165566636Y-86935792D01*
X165543615Y-86907741D01*
X165431697Y-86815892D01*
X165304010Y-86747642D01*
X165165462Y-86705614D01*
X165057482Y-86694979D01*
X165057480Y-86694979D01*
X165021378Y-86691423D01*
X164985273Y-86694979D01*
X163458732Y-86694979D01*
X163523937Y-86629774D01*
X163637205Y-86460256D01*
X163715226Y-86271898D01*
X163755000Y-86071939D01*
X163755000Y-85868061D01*
X163715226Y-85668102D01*
X163637205Y-85479744D01*
X163523937Y-85310226D01*
X163379774Y-85166063D01*
X163210256Y-85052795D01*
X163147908Y-85026970D01*
X163343411Y-84945990D01*
X163586632Y-84783475D01*
X163793475Y-84576632D01*
X163910000Y-84402240D01*
X164026525Y-84576632D01*
X164233368Y-84783475D01*
X164476589Y-84945990D01*
X164746842Y-85057932D01*
X165033740Y-85115000D01*
X165326260Y-85115000D01*
X165613158Y-85057932D01*
X165883411Y-84945990D01*
X166126632Y-84783475D01*
X166333475Y-84576632D01*
X166450000Y-84402240D01*
X166566525Y-84576632D01*
X166773368Y-84783475D01*
X167016589Y-84945990D01*
X167286842Y-85057932D01*
X167573740Y-85115000D01*
X167866260Y-85115000D01*
X168153158Y-85057932D01*
X168423411Y-84945990D01*
X168666632Y-84783475D01*
X168873475Y-84576632D01*
X168990000Y-84402240D01*
X169106525Y-84576632D01*
X169313368Y-84783475D01*
X169556589Y-84945990D01*
X169826842Y-85057932D01*
X170113740Y-85115000D01*
X170406260Y-85115000D01*
X170693158Y-85057932D01*
X170963411Y-84945990D01*
X171206632Y-84783475D01*
X171413475Y-84576632D01*
X171530000Y-84402240D01*
X171646525Y-84576632D01*
X171853368Y-84783475D01*
X172096589Y-84945990D01*
X172366842Y-85057932D01*
X172653740Y-85115000D01*
X172946260Y-85115000D01*
X173233158Y-85057932D01*
X173503411Y-84945990D01*
X173746632Y-84783475D01*
X173953475Y-84576632D01*
X174115990Y-84333411D01*
X174227932Y-84063158D01*
X174285000Y-83776260D01*
X174285000Y-83483740D01*
X174227932Y-83196842D01*
X174115990Y-82926589D01*
X173953475Y-82683368D01*
X173746632Y-82476525D01*
X173572240Y-82360000D01*
X173746632Y-82243475D01*
X173801074Y-82189033D01*
X175529545Y-82189033D01*
X175529545Y-82590967D01*
X175607958Y-82985179D01*
X175761772Y-83356518D01*
X175985075Y-83690714D01*
X176269286Y-83974925D01*
X176603482Y-84198228D01*
X176974821Y-84352042D01*
X177369033Y-84430455D01*
X177770967Y-84430455D01*
X178165179Y-84352042D01*
X178536518Y-84198228D01*
X178870714Y-83974925D01*
X179154925Y-83690714D01*
X179378228Y-83356518D01*
X179532042Y-82985179D01*
X179610455Y-82590967D01*
X179610455Y-82189033D01*
X179532042Y-81794821D01*
X179378228Y-81423482D01*
X179154925Y-81089286D01*
X178870714Y-80805075D01*
X178536518Y-80581772D01*
X178165179Y-80427958D01*
X177770967Y-80349545D01*
X177369033Y-80349545D01*
X176974821Y-80427958D01*
X176603482Y-80581772D01*
X176269286Y-80805075D01*
X175985075Y-81089286D01*
X175761772Y-81423482D01*
X175607958Y-81794821D01*
X175529545Y-82189033D01*
X173801074Y-82189033D01*
X173953475Y-82036632D01*
X174115990Y-81793411D01*
X174227932Y-81523158D01*
X174285000Y-81236260D01*
X174285000Y-80943740D01*
X174227932Y-80656842D01*
X174115990Y-80386589D01*
X173953475Y-80143368D01*
X173746632Y-79936525D01*
X173503411Y-79774010D01*
X173233158Y-79662068D01*
X172946260Y-79605000D01*
X172653740Y-79605000D01*
X172366842Y-79662068D01*
X172096589Y-79774010D01*
X171853368Y-79936525D01*
X171646525Y-80143368D01*
X171530000Y-80317760D01*
X171413475Y-80143368D01*
X171206632Y-79936525D01*
X170963411Y-79774010D01*
X170693158Y-79662068D01*
X170406260Y-79605000D01*
X170113740Y-79605000D01*
X169826842Y-79662068D01*
X169556589Y-79774010D01*
X169313368Y-79936525D01*
X169106525Y-80143368D01*
X168990000Y-80317760D01*
X168873475Y-80143368D01*
X168666632Y-79936525D01*
X168423411Y-79774010D01*
X168153158Y-79662068D01*
X167866260Y-79605000D01*
X167573740Y-79605000D01*
X167286842Y-79662068D01*
X167016589Y-79774010D01*
X166773368Y-79936525D01*
X166770671Y-79939222D01*
X166381448Y-79550000D01*
X178037721Y-79550000D01*
X178523893Y-79597670D01*
X178960498Y-79729489D01*
X179363185Y-79943600D01*
X179716612Y-80231848D01*
X180007327Y-80583261D01*
X180224242Y-80984439D01*
X180359106Y-81420113D01*
X180410000Y-81904344D01*
X180410000Y-84446694D01*
X180327731Y-84391724D01*
X180098081Y-84296600D01*
X179854286Y-84248106D01*
X179605714Y-84248106D01*
X179361919Y-84296600D01*
X179132269Y-84391724D01*
X178925589Y-84529823D01*
X178749823Y-84705589D01*
X178611724Y-84912269D01*
X178516600Y-85141919D01*
X178468106Y-85385714D01*
X178468106Y-85634286D01*
X178516600Y-85878081D01*
X178611724Y-86107731D01*
X178749823Y-86314411D01*
X178925589Y-86490177D01*
X179132269Y-86628276D01*
X179361919Y-86723400D01*
X179605714Y-86771894D01*
X179854286Y-86771894D01*
X180098081Y-86723400D01*
X180327731Y-86628276D01*
X180410000Y-86573306D01*
X180410001Y-105857711D01*
X180362330Y-106343894D01*
X180230512Y-106780497D01*
X180016399Y-107183186D01*
X179728150Y-107536613D01*
X179376739Y-107827327D01*
X178975564Y-108044240D01*
X178539886Y-108179106D01*
X178055664Y-108230000D01*
X164176637Y-108230000D01*
X164198284Y-108203623D01*
X164303676Y-108006446D01*
X164368577Y-107792498D01*
X164385000Y-107625751D01*
X164385000Y-106914248D01*
X164368577Y-106747501D01*
X164303676Y-106533553D01*
X164198284Y-106336377D01*
X164056449Y-106163551D01*
X163883623Y-106021716D01*
X163686446Y-105916324D01*
X163472498Y-105851423D01*
X163250000Y-105829509D01*
X163027501Y-105851423D01*
X162813553Y-105916324D01*
X162616377Y-106021716D01*
X162443551Y-106163551D01*
X162301716Y-106336377D01*
X162196324Y-106533554D01*
X162131423Y-106747502D01*
X162115000Y-106914249D01*
X162115000Y-107625752D01*
X162131423Y-107792499D01*
X162196324Y-108006447D01*
X162301717Y-108203623D01*
X162323364Y-108230000D01*
X155536637Y-108230000D01*
X155558284Y-108203623D01*
X155663676Y-108006446D01*
X155728577Y-107792498D01*
X155745000Y-107625751D01*
X155745000Y-106914248D01*
X155728577Y-106747501D01*
X155663676Y-106533553D01*
X155558284Y-106336377D01*
X155416449Y-106163551D01*
X155243623Y-106021716D01*
X155046446Y-105916324D01*
X154832498Y-105851423D01*
X154610000Y-105829509D01*
X154387501Y-105851423D01*
X154173553Y-105916324D01*
X153976377Y-106021716D01*
X153803551Y-106163551D01*
X153661716Y-106336377D01*
X153556324Y-106533554D01*
X153491423Y-106747502D01*
X153475000Y-106914249D01*
X153475000Y-107625752D01*
X153491423Y-107792499D01*
X153556324Y-108006447D01*
X153661717Y-108203623D01*
X153683364Y-108230000D01*
X153105595Y-108230000D01*
X153175226Y-108061898D01*
X153215000Y-107861939D01*
X153215000Y-107658061D01*
X153175226Y-107458102D01*
X153097205Y-107269744D01*
X152983937Y-107100226D01*
X152839774Y-106956063D01*
X152670256Y-106842795D01*
X152481898Y-106764774D01*
X152281939Y-106725000D01*
X152078061Y-106725000D01*
X151878102Y-106764774D01*
X151689744Y-106842795D01*
X151520226Y-106956063D01*
X151376063Y-107100226D01*
X151262795Y-107269744D01*
X151184774Y-107458102D01*
X151145000Y-107658061D01*
X151145000Y-107861939D01*
X151184774Y-108061898D01*
X151254405Y-108230000D01*
X144240903Y-108230000D01*
X144339774Y-108163937D01*
X144483937Y-108019774D01*
X144597205Y-107850256D01*
X144675226Y-107661898D01*
X144715000Y-107461939D01*
X144715000Y-107258061D01*
X144675226Y-107058102D01*
X144597205Y-106869744D01*
X144483937Y-106700226D01*
X144339774Y-106556063D01*
X144170256Y-106442795D01*
X143981898Y-106364774D01*
X143781939Y-106325000D01*
X143578061Y-106325000D01*
X143378102Y-106364774D01*
X143189744Y-106442795D01*
X143020226Y-106556063D01*
X142876063Y-106700226D01*
X142762795Y-106869744D01*
X142684774Y-107058102D01*
X142645000Y-107258061D01*
X142645000Y-107461939D01*
X142684774Y-107661898D01*
X142762795Y-107850256D01*
X142876063Y-108019774D01*
X143020226Y-108163937D01*
X143119097Y-108230000D01*
X123921478Y-108230000D01*
X124013400Y-108008081D01*
X124061894Y-107764286D01*
X124061894Y-107515714D01*
X124013400Y-107271919D01*
X123918276Y-107042269D01*
X123780177Y-106835589D01*
X123742649Y-106798061D01*
X125585000Y-106798061D01*
X125585000Y-107001939D01*
X125624774Y-107201898D01*
X125702795Y-107390256D01*
X125816063Y-107559774D01*
X125960226Y-107703937D01*
X126129744Y-107817205D01*
X126318102Y-107895226D01*
X126518061Y-107935000D01*
X126721939Y-107935000D01*
X126921898Y-107895226D01*
X127110256Y-107817205D01*
X127279774Y-107703937D01*
X127423937Y-107559774D01*
X127537205Y-107390256D01*
X127615226Y-107201898D01*
X127655000Y-107001939D01*
X127655000Y-106798061D01*
X127615226Y-106598102D01*
X127550368Y-106441522D01*
X127636063Y-106569774D01*
X127780226Y-106713937D01*
X127949744Y-106827205D01*
X128138102Y-106905226D01*
X128338061Y-106945000D01*
X128541939Y-106945000D01*
X128741898Y-106905226D01*
X128755000Y-106899799D01*
X128755000Y-106901939D01*
X128794774Y-107101898D01*
X128872795Y-107290256D01*
X128986063Y-107459774D01*
X129130226Y-107603937D01*
X129299744Y-107717205D01*
X129488102Y-107795226D01*
X129688061Y-107835000D01*
X129891939Y-107835000D01*
X130091898Y-107795226D01*
X130280256Y-107717205D01*
X130449774Y-107603937D01*
X130593937Y-107459774D01*
X130707205Y-107290256D01*
X130785226Y-107101898D01*
X130825000Y-106901939D01*
X130825000Y-106795000D01*
X130901939Y-106795000D01*
X131101898Y-106755226D01*
X131186573Y-106720152D01*
X131185000Y-106728061D01*
X131185000Y-106931939D01*
X131224774Y-107131898D01*
X131302795Y-107320256D01*
X131416063Y-107489774D01*
X131560226Y-107633937D01*
X131729744Y-107747205D01*
X131918102Y-107825226D01*
X132118061Y-107865000D01*
X132321939Y-107865000D01*
X132521898Y-107825226D01*
X132710256Y-107747205D01*
X132879774Y-107633937D01*
X133023937Y-107489774D01*
X133137205Y-107320256D01*
X133215226Y-107131898D01*
X133255000Y-106931939D01*
X133255000Y-106728061D01*
X133215226Y-106528102D01*
X133137205Y-106339744D01*
X133023937Y-106170226D01*
X132879774Y-106026063D01*
X132710256Y-105912795D01*
X132521898Y-105834774D01*
X132321939Y-105795000D01*
X132118061Y-105795000D01*
X131918102Y-105834774D01*
X131833427Y-105869848D01*
X131835000Y-105861939D01*
X131835000Y-105658061D01*
X131795226Y-105458102D01*
X131717205Y-105269744D01*
X131603937Y-105100226D01*
X131459774Y-104956063D01*
X131290256Y-104842795D01*
X131101898Y-104764774D01*
X130901939Y-104725000D01*
X130698587Y-104725000D01*
X130735000Y-104541939D01*
X130735000Y-104338061D01*
X130695226Y-104138102D01*
X130617205Y-103949744D01*
X130503937Y-103780226D01*
X130359774Y-103636063D01*
X130325463Y-103613137D01*
X134550000Y-103613137D01*
X134550000Y-103826863D01*
X134591696Y-104036483D01*
X134673485Y-104233940D01*
X134792225Y-104411647D01*
X134943353Y-104562775D01*
X135121060Y-104681515D01*
X135318517Y-104763304D01*
X135528137Y-104805000D01*
X135741863Y-104805000D01*
X135951483Y-104763304D01*
X136148940Y-104681515D01*
X136326647Y-104562775D01*
X136367390Y-104522032D01*
X136446063Y-104639774D01*
X136590226Y-104783937D01*
X136759744Y-104897205D01*
X136948102Y-104975226D01*
X137148061Y-105015000D01*
X137351939Y-105015000D01*
X137551898Y-104975226D01*
X137740256Y-104897205D01*
X137880072Y-104803783D01*
X137880226Y-104803937D01*
X138049744Y-104917205D01*
X138238102Y-104995226D01*
X138438061Y-105035000D01*
X138641939Y-105035000D01*
X138841898Y-104995226D01*
X139030256Y-104917205D01*
X139199774Y-104803937D01*
X139324703Y-104679008D01*
X139305000Y-104778061D01*
X139305000Y-104981939D01*
X139344774Y-105181898D01*
X139422795Y-105370256D01*
X139536063Y-105539774D01*
X139680226Y-105683937D01*
X139849744Y-105797205D01*
X140038102Y-105875226D01*
X140238061Y-105915000D01*
X140441939Y-105915000D01*
X140641898Y-105875226D01*
X140830256Y-105797205D01*
X140999774Y-105683937D01*
X141143937Y-105539774D01*
X141257205Y-105370256D01*
X141335226Y-105181898D01*
X141375000Y-104981939D01*
X141375000Y-104778061D01*
X141335226Y-104578102D01*
X141257205Y-104389744D01*
X141143937Y-104220226D01*
X140999774Y-104076063D01*
X140830256Y-103962795D01*
X140641898Y-103884774D01*
X140441939Y-103845000D01*
X140238061Y-103845000D01*
X140038102Y-103884774D01*
X139849744Y-103962795D01*
X139680226Y-104076063D01*
X139555297Y-104200992D01*
X139575000Y-104101939D01*
X139575000Y-103898061D01*
X139535226Y-103698102D01*
X139457205Y-103509744D01*
X139343937Y-103340226D01*
X139199774Y-103196063D01*
X139030256Y-103082795D01*
X138841898Y-103004774D01*
X138641939Y-102965000D01*
X138438061Y-102965000D01*
X138238102Y-103004774D01*
X138049744Y-103082795D01*
X137909928Y-103176217D01*
X137909774Y-103176063D01*
X137740256Y-103062795D01*
X137551898Y-102984774D01*
X137351939Y-102945000D01*
X137148061Y-102945000D01*
X136948102Y-102984774D01*
X136759744Y-103062795D01*
X136590226Y-103176063D01*
X136581981Y-103184308D01*
X136477775Y-103028353D01*
X136326647Y-102877225D01*
X136148940Y-102758485D01*
X135951483Y-102676696D01*
X135741863Y-102635000D01*
X135528137Y-102635000D01*
X135318517Y-102676696D01*
X135121060Y-102758485D01*
X134943353Y-102877225D01*
X134792225Y-103028353D01*
X134673485Y-103206060D01*
X134591696Y-103403517D01*
X134550000Y-103613137D01*
X130325463Y-103613137D01*
X130190256Y-103522795D01*
X130001898Y-103444774D01*
X129801939Y-103405000D01*
X129598061Y-103405000D01*
X129398102Y-103444774D01*
X129209744Y-103522795D01*
X129040226Y-103636063D01*
X128896063Y-103780226D01*
X128782795Y-103949744D01*
X128704774Y-104138102D01*
X128665000Y-104338061D01*
X128665000Y-104541939D01*
X128704774Y-104741898D01*
X128782795Y-104930256D01*
X128784142Y-104932272D01*
X128741898Y-104914774D01*
X128541939Y-104875000D01*
X128338061Y-104875000D01*
X128138102Y-104914774D01*
X127949744Y-104992795D01*
X127780226Y-105106063D01*
X127636063Y-105250226D01*
X127522795Y-105419744D01*
X127444774Y-105608102D01*
X127405000Y-105808061D01*
X127405000Y-106011939D01*
X127444774Y-106211898D01*
X127509632Y-106368478D01*
X127423937Y-106240226D01*
X127279774Y-106096063D01*
X127110256Y-105982795D01*
X126921898Y-105904774D01*
X126721939Y-105865000D01*
X126518061Y-105865000D01*
X126318102Y-105904774D01*
X126129744Y-105982795D01*
X125960226Y-106096063D01*
X125816063Y-106240226D01*
X125702795Y-106409744D01*
X125624774Y-106598102D01*
X125585000Y-106798061D01*
X123742649Y-106798061D01*
X123604411Y-106659823D01*
X123397731Y-106521724D01*
X123168081Y-106426600D01*
X122924286Y-106378106D01*
X122675714Y-106378106D01*
X122431919Y-106426600D01*
X122202269Y-106521724D01*
X121995589Y-106659823D01*
X121819823Y-106835589D01*
X121681724Y-107042269D01*
X121586600Y-107271919D01*
X121538106Y-107515714D01*
X121538106Y-107764286D01*
X121586600Y-108008081D01*
X121678522Y-108230000D01*
X119102279Y-108230000D01*
X118616106Y-108182330D01*
X118179503Y-108050512D01*
X117776814Y-107836399D01*
X117423387Y-107548150D01*
X117132673Y-107196739D01*
X116915760Y-106795564D01*
X116780894Y-106359886D01*
X116730000Y-105875664D01*
X116730000Y-105189033D01*
X117529545Y-105189033D01*
X117529545Y-105590967D01*
X117607958Y-105985179D01*
X117761772Y-106356518D01*
X117985075Y-106690714D01*
X118269286Y-106974925D01*
X118603482Y-107198228D01*
X118974821Y-107352042D01*
X119369033Y-107430455D01*
X119770967Y-107430455D01*
X120165179Y-107352042D01*
X120536518Y-107198228D01*
X120870714Y-106974925D01*
X121154925Y-106690714D01*
X121378228Y-106356518D01*
X121532042Y-105985179D01*
X121610455Y-105590967D01*
X121610455Y-105189033D01*
X121532042Y-104794821D01*
X121378228Y-104423482D01*
X121154925Y-104089286D01*
X120870714Y-103805075D01*
X120536518Y-103581772D01*
X120165179Y-103427958D01*
X119770967Y-103349545D01*
X119369033Y-103349545D01*
X118974821Y-103427958D01*
X118603482Y-103581772D01*
X118269286Y-103805075D01*
X117985075Y-104089286D01*
X117761772Y-104423482D01*
X117607958Y-104794821D01*
X117529545Y-105189033D01*
X116730000Y-105189033D01*
X116730000Y-100636940D01*
X116772795Y-100740256D01*
X116886063Y-100909774D01*
X117030226Y-101053937D01*
X117199744Y-101167205D01*
X117388102Y-101245226D01*
X117581718Y-101283738D01*
X117555000Y-101418061D01*
X117555000Y-101621939D01*
X117594774Y-101821898D01*
X117672795Y-102010256D01*
X117786063Y-102179774D01*
X117930226Y-102323937D01*
X118099744Y-102437205D01*
X118288102Y-102515226D01*
X118488061Y-102555000D01*
X118691939Y-102555000D01*
X118891898Y-102515226D01*
X119080256Y-102437205D01*
X119249774Y-102323937D01*
X119393937Y-102179774D01*
X119507205Y-102010256D01*
X119585226Y-101821898D01*
X119625000Y-101621939D01*
X119625000Y-101518061D01*
X122455000Y-101518061D01*
X122455000Y-101721939D01*
X122494774Y-101921898D01*
X122572795Y-102110256D01*
X122686063Y-102279774D01*
X122830226Y-102423937D01*
X122999744Y-102537205D01*
X123084130Y-102572159D01*
X122976063Y-102680226D01*
X122862795Y-102849744D01*
X122784774Y-103038102D01*
X122745000Y-103238061D01*
X122745000Y-103441939D01*
X122784774Y-103641898D01*
X122862795Y-103830256D01*
X122976063Y-103999774D01*
X123120226Y-104143937D01*
X123289744Y-104257205D01*
X123478102Y-104335226D01*
X123678061Y-104375000D01*
X123881939Y-104375000D01*
X124081898Y-104335226D01*
X124270256Y-104257205D01*
X124439774Y-104143937D01*
X124583937Y-103999774D01*
X124697205Y-103830256D01*
X124775226Y-103641898D01*
X124815000Y-103441939D01*
X124815000Y-103238061D01*
X124775226Y-103038102D01*
X124697205Y-102849744D01*
X124583937Y-102680226D01*
X124439774Y-102536063D01*
X124270256Y-102422795D01*
X124185870Y-102387841D01*
X124293937Y-102279774D01*
X124407205Y-102110256D01*
X124485226Y-101921898D01*
X124525000Y-101721939D01*
X124525000Y-101518061D01*
X124485226Y-101318102D01*
X124407205Y-101129744D01*
X124293937Y-100960226D01*
X124149774Y-100816063D01*
X123980256Y-100702795D01*
X123920544Y-100678061D01*
X124725000Y-100678061D01*
X124725000Y-100881939D01*
X124764774Y-101081898D01*
X124842795Y-101270256D01*
X124956063Y-101439774D01*
X125100226Y-101583937D01*
X125269744Y-101697205D01*
X125458102Y-101775226D01*
X125658061Y-101815000D01*
X125773338Y-101815000D01*
X125734774Y-101908102D01*
X125695000Y-102108061D01*
X125695000Y-102311939D01*
X125734774Y-102511898D01*
X125812795Y-102700256D01*
X125926063Y-102869774D01*
X126070226Y-103013937D01*
X126239744Y-103127205D01*
X126428102Y-103205226D01*
X126628061Y-103245000D01*
X126657356Y-103245000D01*
X126591696Y-103403517D01*
X126550000Y-103613137D01*
X126550000Y-103826863D01*
X126591696Y-104036483D01*
X126673485Y-104233940D01*
X126792225Y-104411647D01*
X126943353Y-104562775D01*
X127121060Y-104681515D01*
X127318517Y-104763304D01*
X127528137Y-104805000D01*
X127741863Y-104805000D01*
X127951483Y-104763304D01*
X128148940Y-104681515D01*
X128326647Y-104562775D01*
X128477775Y-104411647D01*
X128596515Y-104233940D01*
X128678304Y-104036483D01*
X128720000Y-103826863D01*
X128720000Y-103613137D01*
X128678304Y-103403517D01*
X128596515Y-103206060D01*
X128477775Y-103028353D01*
X128326647Y-102877225D01*
X128148940Y-102758485D01*
X127951483Y-102676696D01*
X127741863Y-102635000D01*
X127674235Y-102635000D01*
X127725226Y-102511898D01*
X127765000Y-102311939D01*
X127765000Y-102108061D01*
X127725226Y-101908102D01*
X127647205Y-101719744D01*
X127533937Y-101550226D01*
X127389774Y-101406063D01*
X127220256Y-101292795D01*
X127031898Y-101214774D01*
X126831939Y-101175000D01*
X126716662Y-101175000D01*
X126755226Y-101081898D01*
X126785825Y-100928061D01*
X131065000Y-100928061D01*
X131065000Y-101131939D01*
X131104774Y-101331898D01*
X131182795Y-101520256D01*
X131296063Y-101689774D01*
X131440226Y-101833937D01*
X131609744Y-101947205D01*
X131798102Y-102025226D01*
X131998061Y-102065000D01*
X132201939Y-102065000D01*
X132401898Y-102025226D01*
X132406808Y-102023192D01*
X132404774Y-102028102D01*
X132365000Y-102228061D01*
X132365000Y-102431939D01*
X132404774Y-102631898D01*
X132482795Y-102820256D01*
X132596063Y-102989774D01*
X132740226Y-103133937D01*
X132909744Y-103247205D01*
X133098102Y-103325226D01*
X133298061Y-103365000D01*
X133501939Y-103365000D01*
X133701898Y-103325226D01*
X133890256Y-103247205D01*
X134059774Y-103133937D01*
X134203937Y-102989774D01*
X134317205Y-102820256D01*
X134395226Y-102631898D01*
X134435000Y-102431939D01*
X134435000Y-102228061D01*
X134395226Y-102028102D01*
X134317205Y-101839744D01*
X134203937Y-101670226D01*
X134059774Y-101526063D01*
X133890256Y-101412795D01*
X133701898Y-101334774D01*
X133501939Y-101295000D01*
X133298061Y-101295000D01*
X133098102Y-101334774D01*
X133093192Y-101336808D01*
X133095226Y-101331898D01*
X133135000Y-101131939D01*
X133135000Y-100928061D01*
X133095226Y-100728102D01*
X133017205Y-100539744D01*
X132903937Y-100370226D01*
X132759774Y-100226063D01*
X132590256Y-100112795D01*
X132401898Y-100034774D01*
X132201939Y-99995000D01*
X131998061Y-99995000D01*
X131798102Y-100034774D01*
X131609744Y-100112795D01*
X131440226Y-100226063D01*
X131296063Y-100370226D01*
X131182795Y-100539744D01*
X131104774Y-100728102D01*
X131065000Y-100928061D01*
X126785825Y-100928061D01*
X126795000Y-100881939D01*
X126795000Y-100678061D01*
X126755226Y-100478102D01*
X126677205Y-100289744D01*
X126563937Y-100120226D01*
X126419774Y-99976063D01*
X126250256Y-99862795D01*
X126061898Y-99784774D01*
X125861939Y-99745000D01*
X125658061Y-99745000D01*
X125458102Y-99784774D01*
X125269744Y-99862795D01*
X125100226Y-99976063D01*
X124956063Y-100120226D01*
X124842795Y-100289744D01*
X124764774Y-100478102D01*
X124725000Y-100678061D01*
X123920544Y-100678061D01*
X123791898Y-100624774D01*
X123591939Y-100585000D01*
X123388061Y-100585000D01*
X123188102Y-100624774D01*
X122999744Y-100702795D01*
X122830226Y-100816063D01*
X122686063Y-100960226D01*
X122572795Y-101129744D01*
X122494774Y-101318102D01*
X122455000Y-101518061D01*
X119625000Y-101518061D01*
X119625000Y-101418061D01*
X119585226Y-101218102D01*
X119507205Y-101029744D01*
X119393937Y-100860226D01*
X119249774Y-100716063D01*
X119080256Y-100602795D01*
X118891898Y-100524774D01*
X118698282Y-100486262D01*
X118725000Y-100351939D01*
X118725000Y-100148061D01*
X118685226Y-99948102D01*
X118607205Y-99759744D01*
X118493937Y-99590226D01*
X118349774Y-99446063D01*
X118180256Y-99332795D01*
X117991898Y-99254774D01*
X117791939Y-99215000D01*
X117588061Y-99215000D01*
X117388102Y-99254774D01*
X117199744Y-99332795D01*
X117030226Y-99446063D01*
X116886063Y-99590226D01*
X116772795Y-99759744D01*
X116730000Y-99863060D01*
X116730000Y-96886940D01*
X116772795Y-96990256D01*
X116886063Y-97159774D01*
X117030226Y-97303937D01*
X117199744Y-97417205D01*
X117388102Y-97495226D01*
X117588061Y-97535000D01*
X117791939Y-97535000D01*
X117991898Y-97495226D01*
X118180256Y-97417205D01*
X118349774Y-97303937D01*
X118493937Y-97159774D01*
X118607205Y-96990256D01*
X118685226Y-96801898D01*
X118725000Y-96601939D01*
X118725000Y-96398061D01*
X118723011Y-96388061D01*
X125145000Y-96388061D01*
X125145000Y-96591939D01*
X125184774Y-96791898D01*
X125262795Y-96980256D01*
X125376063Y-97149774D01*
X125520226Y-97293937D01*
X125689744Y-97407205D01*
X125878102Y-97485226D01*
X125926783Y-97494909D01*
X125850226Y-97546063D01*
X125706063Y-97690226D01*
X125592795Y-97859744D01*
X125514774Y-98048102D01*
X125475000Y-98248061D01*
X125475000Y-98451939D01*
X125514774Y-98651898D01*
X125592795Y-98840256D01*
X125706063Y-99009774D01*
X125850226Y-99153937D01*
X126019744Y-99267205D01*
X126208102Y-99345226D01*
X126408061Y-99385000D01*
X126611939Y-99385000D01*
X126811898Y-99345226D01*
X127000256Y-99267205D01*
X127169774Y-99153937D01*
X127313937Y-99009774D01*
X127388581Y-98898061D01*
X129365000Y-98898061D01*
X129365000Y-99101939D01*
X129404774Y-99301898D01*
X129482795Y-99490256D01*
X129596063Y-99659774D01*
X129740226Y-99803937D01*
X129909744Y-99917205D01*
X130098102Y-99995226D01*
X130298061Y-100035000D01*
X130501939Y-100035000D01*
X130701898Y-99995226D01*
X130890256Y-99917205D01*
X131059774Y-99803937D01*
X131203937Y-99659774D01*
X131317205Y-99490256D01*
X131395226Y-99301898D01*
X131435000Y-99101939D01*
X131435000Y-99058711D01*
X131570226Y-99193937D01*
X131739744Y-99307205D01*
X131928102Y-99385226D01*
X132128061Y-99425000D01*
X132331939Y-99425000D01*
X132531898Y-99385226D01*
X132720256Y-99307205D01*
X132889774Y-99193937D01*
X133033937Y-99049774D01*
X133147205Y-98880256D01*
X133225226Y-98691898D01*
X133265000Y-98491939D01*
X133265000Y-98288061D01*
X133259033Y-98258061D01*
X135495000Y-98258061D01*
X135495000Y-98461939D01*
X135534774Y-98661898D01*
X135612795Y-98850256D01*
X135726063Y-99019774D01*
X135870226Y-99163937D01*
X136039744Y-99277205D01*
X136228102Y-99355226D01*
X136428061Y-99395000D01*
X136631939Y-99395000D01*
X136831898Y-99355226D01*
X137020256Y-99277205D01*
X137189774Y-99163937D01*
X137229928Y-99123783D01*
X137369744Y-99217205D01*
X137558102Y-99295226D01*
X137758061Y-99335000D01*
X137961939Y-99335000D01*
X138161898Y-99295226D01*
X138350256Y-99217205D01*
X138519774Y-99103937D01*
X138663937Y-98959774D01*
X138777205Y-98790256D01*
X138855226Y-98601898D01*
X138855986Y-98598075D01*
X139018102Y-98665226D01*
X139218061Y-98705000D01*
X139421939Y-98705000D01*
X139621898Y-98665226D01*
X139810256Y-98587205D01*
X139979774Y-98473937D01*
X140123937Y-98329774D01*
X140237205Y-98160256D01*
X140315226Y-97971898D01*
X140355000Y-97771939D01*
X140355000Y-97568061D01*
X140315226Y-97368102D01*
X140237205Y-97179744D01*
X140123937Y-97010226D01*
X139979774Y-96866063D01*
X139888319Y-96804955D01*
X139919774Y-96783937D01*
X140063937Y-96639774D01*
X140177205Y-96470256D01*
X140255226Y-96281898D01*
X140295000Y-96081939D01*
X140295000Y-95878061D01*
X140255226Y-95678102D01*
X140177205Y-95489744D01*
X140063937Y-95320226D01*
X139919774Y-95176063D01*
X139750256Y-95062795D01*
X139561898Y-94984774D01*
X139361939Y-94945000D01*
X139158061Y-94945000D01*
X138958102Y-94984774D01*
X138769744Y-95062795D01*
X138744461Y-95079688D01*
X138707205Y-94989744D01*
X138593937Y-94820226D01*
X138449774Y-94676063D01*
X138280256Y-94562795D01*
X138091898Y-94484774D01*
X137891939Y-94445000D01*
X137688061Y-94445000D01*
X137488102Y-94484774D01*
X137299744Y-94562795D01*
X137130226Y-94676063D01*
X136986063Y-94820226D01*
X136872795Y-94989744D01*
X136794774Y-95178102D01*
X136793357Y-95185228D01*
X136741939Y-95175000D01*
X136538061Y-95175000D01*
X136338102Y-95214774D01*
X136149744Y-95292795D01*
X135980226Y-95406063D01*
X135836063Y-95550226D01*
X135722795Y-95719744D01*
X135644774Y-95908102D01*
X135605000Y-96108061D01*
X135605000Y-96311939D01*
X135644774Y-96511898D01*
X135722795Y-96700256D01*
X135836063Y-96869774D01*
X135980226Y-97013937D01*
X136149744Y-97127205D01*
X136338102Y-97205226D01*
X136538061Y-97245000D01*
X136741939Y-97245000D01*
X136815000Y-97230467D01*
X136815000Y-97241939D01*
X136840110Y-97368175D01*
X136831898Y-97364774D01*
X136631939Y-97325000D01*
X136428061Y-97325000D01*
X136228102Y-97364774D01*
X136039744Y-97442795D01*
X135870226Y-97556063D01*
X135726063Y-97700226D01*
X135612795Y-97869744D01*
X135534774Y-98058102D01*
X135495000Y-98258061D01*
X133259033Y-98258061D01*
X133225226Y-98088102D01*
X133147205Y-97899744D01*
X133033937Y-97730226D01*
X132889774Y-97586063D01*
X132720256Y-97472795D01*
X132531898Y-97394774D01*
X132331939Y-97355000D01*
X132128061Y-97355000D01*
X131934867Y-97393428D01*
X131965000Y-97241939D01*
X131965000Y-97038061D01*
X131925226Y-96838102D01*
X131847205Y-96649744D01*
X131733937Y-96480226D01*
X131589774Y-96336063D01*
X131420256Y-96222795D01*
X131231898Y-96144774D01*
X131031939Y-96105000D01*
X130828061Y-96105000D01*
X130628102Y-96144774D01*
X130439744Y-96222795D01*
X130270226Y-96336063D01*
X130126063Y-96480226D01*
X130012795Y-96649744D01*
X129934774Y-96838102D01*
X129895000Y-97038061D01*
X129895000Y-97241939D01*
X129934774Y-97441898D01*
X130012795Y-97630256D01*
X130126063Y-97799774D01*
X130270226Y-97943937D01*
X130301749Y-97965000D01*
X130298061Y-97965000D01*
X130098102Y-98004774D01*
X129909744Y-98082795D01*
X129740226Y-98196063D01*
X129596063Y-98340226D01*
X129482795Y-98509744D01*
X129404774Y-98698102D01*
X129365000Y-98898061D01*
X127388581Y-98898061D01*
X127427205Y-98840256D01*
X127505226Y-98651898D01*
X127545000Y-98451939D01*
X127545000Y-98248061D01*
X127505226Y-98048102D01*
X127427205Y-97859744D01*
X127313937Y-97690226D01*
X127169774Y-97546063D01*
X127000256Y-97432795D01*
X126811898Y-97354774D01*
X126763217Y-97345091D01*
X126839774Y-97293937D01*
X126983937Y-97149774D01*
X127097205Y-96980256D01*
X127175226Y-96791898D01*
X127215000Y-96591939D01*
X127215000Y-96388061D01*
X127175226Y-96188102D01*
X127097205Y-95999744D01*
X126983937Y-95830226D01*
X126839774Y-95686063D01*
X126670256Y-95572795D01*
X126481898Y-95494774D01*
X126281939Y-95455000D01*
X126078061Y-95455000D01*
X125878102Y-95494774D01*
X125689744Y-95572795D01*
X125520226Y-95686063D01*
X125376063Y-95830226D01*
X125262795Y-95999744D01*
X125184774Y-96188102D01*
X125145000Y-96388061D01*
X118723011Y-96388061D01*
X118696544Y-96255000D01*
X118701939Y-96255000D01*
X118901898Y-96215226D01*
X119090256Y-96137205D01*
X119259774Y-96023937D01*
X119403937Y-95879774D01*
X119517205Y-95710256D01*
X119595226Y-95521898D01*
X119635000Y-95321939D01*
X119635000Y-95118061D01*
X119595226Y-94918102D01*
X119517205Y-94729744D01*
X119403937Y-94560226D01*
X119259774Y-94416063D01*
X119090256Y-94302795D01*
X118901898Y-94224774D01*
X118701939Y-94185000D01*
X118498061Y-94185000D01*
X118298102Y-94224774D01*
X118109744Y-94302795D01*
X117940226Y-94416063D01*
X117796063Y-94560226D01*
X117682795Y-94729744D01*
X117604774Y-94918102D01*
X117565000Y-95118061D01*
X117565000Y-95321939D01*
X117593456Y-95465000D01*
X117588061Y-95465000D01*
X117388102Y-95504774D01*
X117199744Y-95582795D01*
X117030226Y-95696063D01*
X116886063Y-95840226D01*
X116772795Y-96009744D01*
X116730000Y-96113060D01*
X116730000Y-91656940D01*
X116772795Y-91760256D01*
X116886063Y-91929774D01*
X117030226Y-92073937D01*
X117199744Y-92187205D01*
X117388102Y-92265226D01*
X117556687Y-92298759D01*
X117525000Y-92458061D01*
X117525000Y-92661939D01*
X117564774Y-92861898D01*
X117642795Y-93050256D01*
X117756063Y-93219774D01*
X117900226Y-93363937D01*
X118069744Y-93477205D01*
X118258102Y-93555226D01*
X118458061Y-93595000D01*
X118661939Y-93595000D01*
X118861898Y-93555226D01*
X119050256Y-93477205D01*
X119219774Y-93363937D01*
X119363937Y-93219774D01*
X119477205Y-93050256D01*
X119555226Y-92861898D01*
X119595000Y-92661939D01*
X119595000Y-92458061D01*
X119555226Y-92258102D01*
X119477205Y-92069744D01*
X119363937Y-91900226D01*
X119219774Y-91756063D01*
X119050256Y-91642795D01*
X118861898Y-91564774D01*
X118693313Y-91531241D01*
X118725000Y-91371939D01*
X118725000Y-91168061D01*
X118685226Y-90968102D01*
X118607205Y-90779744D01*
X118493937Y-90610226D01*
X118349774Y-90466063D01*
X118180256Y-90352795D01*
X117991898Y-90274774D01*
X117791939Y-90235000D01*
X117588061Y-90235000D01*
X117388102Y-90274774D01*
X117199744Y-90352795D01*
X117030226Y-90466063D01*
X116886063Y-90610226D01*
X116772795Y-90779744D01*
X116730000Y-90883060D01*
X116730000Y-87836940D01*
X116772795Y-87940256D01*
X116886063Y-88109774D01*
X117030226Y-88253937D01*
X117199744Y-88367205D01*
X117388102Y-88445226D01*
X117588061Y-88485000D01*
X117791939Y-88485000D01*
X117991898Y-88445226D01*
X118180256Y-88367205D01*
X118349774Y-88253937D01*
X118493937Y-88109774D01*
X118607205Y-87940256D01*
X118685226Y-87751898D01*
X118725000Y-87551939D01*
X118725000Y-87348061D01*
X118710153Y-87273421D01*
X118851898Y-87245226D01*
X119040256Y-87167205D01*
X119209774Y-87053937D01*
X119353937Y-86909774D01*
X119467205Y-86740256D01*
X119545226Y-86551898D01*
X119585000Y-86351939D01*
X119585000Y-86148061D01*
X119545226Y-85948102D01*
X119467205Y-85759744D01*
X119353937Y-85590226D01*
X119209774Y-85446063D01*
X119040256Y-85332795D01*
X118851898Y-85254774D01*
X118651939Y-85215000D01*
X118448061Y-85215000D01*
X118248102Y-85254774D01*
X118059744Y-85332795D01*
X117890226Y-85446063D01*
X117746063Y-85590226D01*
X117632795Y-85759744D01*
X117554774Y-85948102D01*
X117515000Y-86148061D01*
X117515000Y-86351939D01*
X117529847Y-86426579D01*
X117388102Y-86454774D01*
X117199744Y-86532795D01*
X117030226Y-86646063D01*
X116886063Y-86790226D01*
X116772795Y-86959744D01*
X116730000Y-87063060D01*
X116730000Y-82189033D01*
X117529545Y-82189033D01*
X117529545Y-82590967D01*
X117607958Y-82985179D01*
X117761772Y-83356518D01*
X117985075Y-83690714D01*
X118269286Y-83974925D01*
X118603482Y-84198228D01*
X118974821Y-84352042D01*
X119369033Y-84430455D01*
X119770967Y-84430455D01*
X120165179Y-84352042D01*
X120536518Y-84198228D01*
X120870714Y-83974925D01*
X121154925Y-83690714D01*
X121378228Y-83356518D01*
X121532042Y-82985179D01*
X121610455Y-82590967D01*
X121610455Y-82189033D01*
X121532042Y-81794821D01*
X121378228Y-81423482D01*
X121154925Y-81089286D01*
X120870714Y-80805075D01*
X120536518Y-80581772D01*
X120165179Y-80427958D01*
X119770967Y-80349545D01*
X119369033Y-80349545D01*
X118974821Y-80427958D01*
X118603482Y-80581772D01*
X118269286Y-80805075D01*
X117985075Y-81089286D01*
X117761772Y-81423482D01*
X117607958Y-81794821D01*
X117529545Y-82189033D01*
X116730000Y-82189033D01*
X116730000Y-81922279D01*
X116777670Y-81436107D01*
X116909489Y-80999502D01*
X117123600Y-80596815D01*
X117411848Y-80243388D01*
X117763261Y-79952673D01*
X118164439Y-79735758D01*
X118600113Y-79600894D01*
X119084344Y-79550000D01*
X153818551Y-79550000D01*
X153429329Y-79939222D01*
G37*
%TD.AperFunction*%
D19*
X124667000Y-83503000D02*
X124687000Y-83503000D01*
X124687000Y-83757000D01*
X124667000Y-83757000D01*
X124667000Y-84956250D01*
X124825750Y-85115000D01*
X125390000Y-85118072D01*
X125514482Y-85105812D01*
X125634180Y-85069502D01*
X125744494Y-85010537D01*
X125841185Y-84931185D01*
X125920537Y-84834494D01*
X125979502Y-84724180D01*
X126001513Y-84651620D01*
X126133368Y-84783475D01*
X126376589Y-84945990D01*
X126646842Y-85057932D01*
X126933740Y-85115000D01*
X127226260Y-85115000D01*
X127513158Y-85057932D01*
X127783411Y-84945990D01*
X128026632Y-84783475D01*
X128233475Y-84576632D01*
X128350000Y-84402240D01*
X128466525Y-84576632D01*
X128673368Y-84783475D01*
X128916589Y-84945990D01*
X129186842Y-85057932D01*
X129473740Y-85115000D01*
X129766260Y-85115000D01*
X130053158Y-85057932D01*
X130323411Y-84945990D01*
X130566632Y-84783475D01*
X130773475Y-84576632D01*
X130890000Y-84402240D01*
X131006525Y-84576632D01*
X131213368Y-84783475D01*
X131456589Y-84945990D01*
X131726842Y-85057932D01*
X132013740Y-85115000D01*
X132306260Y-85115000D01*
X132496918Y-85077075D01*
X132745000Y-85325157D01*
X132745001Y-89265000D01*
X132618061Y-89265000D01*
X132418102Y-89304774D01*
X132229744Y-89382795D01*
X132060226Y-89496063D01*
X131916063Y-89640226D01*
X131802795Y-89809744D01*
X131724774Y-89998102D01*
X131685000Y-90198061D01*
X131685000Y-90401939D01*
X131724774Y-90601898D01*
X131802795Y-90790256D01*
X131916063Y-90959774D01*
X132060226Y-91103937D01*
X132229744Y-91217205D01*
X132418102Y-91295226D01*
X132618061Y-91335000D01*
X132821939Y-91335000D01*
X133021898Y-91295226D01*
X133210256Y-91217205D01*
X133379774Y-91103937D01*
X133523937Y-90959774D01*
X133590299Y-90860456D01*
X135314842Y-92585000D01*
X130128711Y-92585000D01*
X130133937Y-92579774D01*
X130247205Y-92410256D01*
X130325226Y-92221898D01*
X130365000Y-92021939D01*
X130365000Y-91818061D01*
X130325226Y-91618102D01*
X130247205Y-91429744D01*
X130133937Y-91260226D01*
X129989774Y-91116063D01*
X129820256Y-91002795D01*
X129631898Y-90924774D01*
X129431939Y-90885000D01*
X129228061Y-90885000D01*
X129028102Y-90924774D01*
X128839744Y-91002795D01*
X128764256Y-91053235D01*
X128821515Y-90915000D01*
X128981939Y-90915000D01*
X129181898Y-90875226D01*
X129370256Y-90797205D01*
X129539774Y-90683937D01*
X129683937Y-90539774D01*
X129797205Y-90370256D01*
X129875226Y-90181898D01*
X129915000Y-89981939D01*
X129915000Y-89778061D01*
X129875226Y-89578102D01*
X129797205Y-89389744D01*
X129683937Y-89220226D01*
X129539774Y-89076063D01*
X129370256Y-88962795D01*
X129181898Y-88884774D01*
X128981939Y-88845000D01*
X128847365Y-88845000D01*
X128884930Y-88754311D01*
X128924704Y-88554352D01*
X128924704Y-88350474D01*
X128884930Y-88150515D01*
X128830066Y-88018061D01*
X130485000Y-88018061D01*
X130485000Y-88221939D01*
X130524774Y-88421898D01*
X130602795Y-88610256D01*
X130716063Y-88779774D01*
X130860226Y-88923937D01*
X131029744Y-89037205D01*
X131218102Y-89115226D01*
X131418061Y-89155000D01*
X131621939Y-89155000D01*
X131821898Y-89115226D01*
X132010256Y-89037205D01*
X132179774Y-88923937D01*
X132323937Y-88779774D01*
X132437205Y-88610256D01*
X132515226Y-88421898D01*
X132555000Y-88221939D01*
X132555000Y-88018061D01*
X132515226Y-87818102D01*
X132437205Y-87629744D01*
X132323937Y-87460226D01*
X132179774Y-87316063D01*
X132010256Y-87202795D01*
X131821898Y-87124774D01*
X131621939Y-87085000D01*
X131418061Y-87085000D01*
X131218102Y-87124774D01*
X131029744Y-87202795D01*
X130860226Y-87316063D01*
X130716063Y-87460226D01*
X130602795Y-87629744D01*
X130524774Y-87818102D01*
X130485000Y-88018061D01*
X128830066Y-88018061D01*
X128806909Y-87962157D01*
X128693641Y-87792639D01*
X128549478Y-87648476D01*
X128379960Y-87535208D01*
X128191602Y-87457187D01*
X127991643Y-87417413D01*
X127787765Y-87417413D01*
X127587806Y-87457187D01*
X127399448Y-87535208D01*
X127229930Y-87648476D01*
X127085767Y-87792639D01*
X126972499Y-87962157D01*
X126894478Y-88150515D01*
X126854704Y-88350474D01*
X126854704Y-88554352D01*
X126894478Y-88754311D01*
X126972499Y-88942669D01*
X127085767Y-89112187D01*
X127229930Y-89256350D01*
X127399448Y-89369618D01*
X127587806Y-89447639D01*
X127787765Y-89487413D01*
X127922339Y-89487413D01*
X127898485Y-89545000D01*
X127738061Y-89545000D01*
X127538102Y-89584774D01*
X127349744Y-89662795D01*
X127180226Y-89776063D01*
X127036063Y-89920226D01*
X126922795Y-90089744D01*
X126844774Y-90278102D01*
X126805000Y-90478061D01*
X126805000Y-90681939D01*
X126844774Y-90881898D01*
X126922795Y-91070256D01*
X127036063Y-91239774D01*
X127180226Y-91383937D01*
X127349744Y-91497205D01*
X127538102Y-91575226D01*
X127738061Y-91615000D01*
X127941939Y-91615000D01*
X128141898Y-91575226D01*
X128330256Y-91497205D01*
X128405744Y-91446765D01*
X128334774Y-91618102D01*
X128295000Y-91818061D01*
X128295000Y-92021939D01*
X128334774Y-92221898D01*
X128412795Y-92410256D01*
X128526063Y-92579774D01*
X128531289Y-92585000D01*
X126838709Y-92585000D01*
X126853937Y-92569772D01*
X126967205Y-92400254D01*
X127045226Y-92211896D01*
X127085000Y-92011937D01*
X127085000Y-91808059D01*
X127045226Y-91608100D01*
X126967205Y-91419742D01*
X126853937Y-91250224D01*
X126709774Y-91106061D01*
X126540256Y-90992793D01*
X126351898Y-90914772D01*
X126151939Y-90874998D01*
X125948061Y-90874998D01*
X125748102Y-90914772D01*
X125559744Y-90992793D01*
X125390226Y-91106061D01*
X125246063Y-91250224D01*
X125132795Y-91419742D01*
X125054774Y-91608100D01*
X125015000Y-91808059D01*
X125015000Y-92011937D01*
X125054774Y-92211896D01*
X125132795Y-92400254D01*
X125246063Y-92569772D01*
X125261291Y-92585000D01*
X125126579Y-92585000D01*
X123875000Y-91333422D01*
X123875000Y-88888377D01*
X123988102Y-88935226D01*
X124188061Y-88975000D01*
X124391939Y-88975000D01*
X124591898Y-88935226D01*
X124780256Y-88857205D01*
X124949774Y-88743937D01*
X125093937Y-88599774D01*
X125207205Y-88430256D01*
X125285226Y-88241898D01*
X125325000Y-88041939D01*
X125325000Y-87838061D01*
X125285226Y-87638102D01*
X125207205Y-87449744D01*
X125093937Y-87280226D01*
X124949774Y-87136063D01*
X124780256Y-87022795D01*
X124591898Y-86944774D01*
X124391939Y-86905000D01*
X124188061Y-86905000D01*
X123988102Y-86944774D01*
X123875000Y-86991623D01*
X123875000Y-85117065D01*
X124254250Y-85115000D01*
X124413000Y-84956250D01*
X124413000Y-83757000D01*
X124393000Y-83757000D01*
X124393000Y-83503000D01*
X124413000Y-83503000D01*
X124413000Y-83483000D01*
X124667000Y-83483000D01*
X124667000Y-83503000D01*
%TA.AperFunction,Conductor*%
D20*
G36*
X124667000Y-83503000D02*
G01*
X124687000Y-83503000D01*
X124687000Y-83757000D01*
X124667000Y-83757000D01*
X124667000Y-84956250D01*
X124825750Y-85115000D01*
X125390000Y-85118072D01*
X125514482Y-85105812D01*
X125634180Y-85069502D01*
X125744494Y-85010537D01*
X125841185Y-84931185D01*
X125920537Y-84834494D01*
X125979502Y-84724180D01*
X126001513Y-84651620D01*
X126133368Y-84783475D01*
X126376589Y-84945990D01*
X126646842Y-85057932D01*
X126933740Y-85115000D01*
X127226260Y-85115000D01*
X127513158Y-85057932D01*
X127783411Y-84945990D01*
X128026632Y-84783475D01*
X128233475Y-84576632D01*
X128350000Y-84402240D01*
X128466525Y-84576632D01*
X128673368Y-84783475D01*
X128916589Y-84945990D01*
X129186842Y-85057932D01*
X129473740Y-85115000D01*
X129766260Y-85115000D01*
X130053158Y-85057932D01*
X130323411Y-84945990D01*
X130566632Y-84783475D01*
X130773475Y-84576632D01*
X130890000Y-84402240D01*
X131006525Y-84576632D01*
X131213368Y-84783475D01*
X131456589Y-84945990D01*
X131726842Y-85057932D01*
X132013740Y-85115000D01*
X132306260Y-85115000D01*
X132496918Y-85077075D01*
X132745000Y-85325157D01*
X132745001Y-89265000D01*
X132618061Y-89265000D01*
X132418102Y-89304774D01*
X132229744Y-89382795D01*
X132060226Y-89496063D01*
X131916063Y-89640226D01*
X131802795Y-89809744D01*
X131724774Y-89998102D01*
X131685000Y-90198061D01*
X131685000Y-90401939D01*
X131724774Y-90601898D01*
X131802795Y-90790256D01*
X131916063Y-90959774D01*
X132060226Y-91103937D01*
X132229744Y-91217205D01*
X132418102Y-91295226D01*
X132618061Y-91335000D01*
X132821939Y-91335000D01*
X133021898Y-91295226D01*
X133210256Y-91217205D01*
X133379774Y-91103937D01*
X133523937Y-90959774D01*
X133590299Y-90860456D01*
X135314842Y-92585000D01*
X130128711Y-92585000D01*
X130133937Y-92579774D01*
X130247205Y-92410256D01*
X130325226Y-92221898D01*
X130365000Y-92021939D01*
X130365000Y-91818061D01*
X130325226Y-91618102D01*
X130247205Y-91429744D01*
X130133937Y-91260226D01*
X129989774Y-91116063D01*
X129820256Y-91002795D01*
X129631898Y-90924774D01*
X129431939Y-90885000D01*
X129228061Y-90885000D01*
X129028102Y-90924774D01*
X128839744Y-91002795D01*
X128764256Y-91053235D01*
X128821515Y-90915000D01*
X128981939Y-90915000D01*
X129181898Y-90875226D01*
X129370256Y-90797205D01*
X129539774Y-90683937D01*
X129683937Y-90539774D01*
X129797205Y-90370256D01*
X129875226Y-90181898D01*
X129915000Y-89981939D01*
X129915000Y-89778061D01*
X129875226Y-89578102D01*
X129797205Y-89389744D01*
X129683937Y-89220226D01*
X129539774Y-89076063D01*
X129370256Y-88962795D01*
X129181898Y-88884774D01*
X128981939Y-88845000D01*
X128847365Y-88845000D01*
X128884930Y-88754311D01*
X128924704Y-88554352D01*
X128924704Y-88350474D01*
X128884930Y-88150515D01*
X128830066Y-88018061D01*
X130485000Y-88018061D01*
X130485000Y-88221939D01*
X130524774Y-88421898D01*
X130602795Y-88610256D01*
X130716063Y-88779774D01*
X130860226Y-88923937D01*
X131029744Y-89037205D01*
X131218102Y-89115226D01*
X131418061Y-89155000D01*
X131621939Y-89155000D01*
X131821898Y-89115226D01*
X132010256Y-89037205D01*
X132179774Y-88923937D01*
X132323937Y-88779774D01*
X132437205Y-88610256D01*
X132515226Y-88421898D01*
X132555000Y-88221939D01*
X132555000Y-88018061D01*
X132515226Y-87818102D01*
X132437205Y-87629744D01*
X132323937Y-87460226D01*
X132179774Y-87316063D01*
X132010256Y-87202795D01*
X131821898Y-87124774D01*
X131621939Y-87085000D01*
X131418061Y-87085000D01*
X131218102Y-87124774D01*
X131029744Y-87202795D01*
X130860226Y-87316063D01*
X130716063Y-87460226D01*
X130602795Y-87629744D01*
X130524774Y-87818102D01*
X130485000Y-88018061D01*
X128830066Y-88018061D01*
X128806909Y-87962157D01*
X128693641Y-87792639D01*
X128549478Y-87648476D01*
X128379960Y-87535208D01*
X128191602Y-87457187D01*
X127991643Y-87417413D01*
X127787765Y-87417413D01*
X127587806Y-87457187D01*
X127399448Y-87535208D01*
X127229930Y-87648476D01*
X127085767Y-87792639D01*
X126972499Y-87962157D01*
X126894478Y-88150515D01*
X126854704Y-88350474D01*
X126854704Y-88554352D01*
X126894478Y-88754311D01*
X126972499Y-88942669D01*
X127085767Y-89112187D01*
X127229930Y-89256350D01*
X127399448Y-89369618D01*
X127587806Y-89447639D01*
X127787765Y-89487413D01*
X127922339Y-89487413D01*
X127898485Y-89545000D01*
X127738061Y-89545000D01*
X127538102Y-89584774D01*
X127349744Y-89662795D01*
X127180226Y-89776063D01*
X127036063Y-89920226D01*
X126922795Y-90089744D01*
X126844774Y-90278102D01*
X126805000Y-90478061D01*
X126805000Y-90681939D01*
X126844774Y-90881898D01*
X126922795Y-91070256D01*
X127036063Y-91239774D01*
X127180226Y-91383937D01*
X127349744Y-91497205D01*
X127538102Y-91575226D01*
X127738061Y-91615000D01*
X127941939Y-91615000D01*
X128141898Y-91575226D01*
X128330256Y-91497205D01*
X128405744Y-91446765D01*
X128334774Y-91618102D01*
X128295000Y-91818061D01*
X128295000Y-92021939D01*
X128334774Y-92221898D01*
X128412795Y-92410256D01*
X128526063Y-92579774D01*
X128531289Y-92585000D01*
X126838709Y-92585000D01*
X126853937Y-92569772D01*
X126967205Y-92400254D01*
X127045226Y-92211896D01*
X127085000Y-92011937D01*
X127085000Y-91808059D01*
X127045226Y-91608100D01*
X126967205Y-91419742D01*
X126853937Y-91250224D01*
X126709774Y-91106061D01*
X126540256Y-90992793D01*
X126351898Y-90914772D01*
X126151939Y-90874998D01*
X125948061Y-90874998D01*
X125748102Y-90914772D01*
X125559744Y-90992793D01*
X125390226Y-91106061D01*
X125246063Y-91250224D01*
X125132795Y-91419742D01*
X125054774Y-91608100D01*
X125015000Y-91808059D01*
X125015000Y-92011937D01*
X125054774Y-92211896D01*
X125132795Y-92400254D01*
X125246063Y-92569772D01*
X125261291Y-92585000D01*
X125126579Y-92585000D01*
X123875000Y-91333422D01*
X123875000Y-88888377D01*
X123988102Y-88935226D01*
X124188061Y-88975000D01*
X124391939Y-88975000D01*
X124591898Y-88935226D01*
X124780256Y-88857205D01*
X124949774Y-88743937D01*
X125093937Y-88599774D01*
X125207205Y-88430256D01*
X125285226Y-88241898D01*
X125325000Y-88041939D01*
X125325000Y-87838061D01*
X125285226Y-87638102D01*
X125207205Y-87449744D01*
X125093937Y-87280226D01*
X124949774Y-87136063D01*
X124780256Y-87022795D01*
X124591898Y-86944774D01*
X124391939Y-86905000D01*
X124188061Y-86905000D01*
X123988102Y-86944774D01*
X123875000Y-86991623D01*
X123875000Y-85117065D01*
X124254250Y-85115000D01*
X124413000Y-84956250D01*
X124413000Y-83757000D01*
X124393000Y-83757000D01*
X124393000Y-83503000D01*
X124413000Y-83503000D01*
X124413000Y-83483000D01*
X124667000Y-83483000D01*
X124667000Y-83503000D01*
G37*
%TD.AperFunction*%
%TD*%
M02*
