%TF.GenerationSoftware,KiCad,Pcbnew,(5.1.8-0-10_14)*%
%TF.CreationDate,2021-08-20T13:19:01+08:00*%
%TF.ProjectId,microbyte-rp2040,6d696372-6f62-4797-9465-2d7270323034,rev?*%
%TF.SameCoordinates,Original*%
%TF.FileFunction,Legend,Bot*%
%TF.FilePolarity,Positive*%
%FSLAX46Y46*%
G04 Gerber Fmt 4.6, Leading zero omitted, Abs format (unit mm)*
G04 Created by KiCad (PCBNEW (5.1.8-0-10_14)) date 2021-08-20 13:19:01*
%MOMM*%
%LPD*%
G01*
G04 APERTURE LIST*
%ADD10C,0.150000*%
%ADD11C,0.010000*%
G04 APERTURE END LIST*
D10*
X171330000Y-106867142D02*
X171330000Y-107510000D01*
X171372857Y-107638571D01*
X171458571Y-107724285D01*
X171587142Y-107767142D01*
X171672857Y-107767142D01*
X170472857Y-107767142D02*
X170901428Y-107767142D01*
X170901428Y-106867142D01*
X169658571Y-107681428D02*
X169701428Y-107724285D01*
X169830000Y-107767142D01*
X169915714Y-107767142D01*
X170044285Y-107724285D01*
X170130000Y-107638571D01*
X170172857Y-107552857D01*
X170215714Y-107381428D01*
X170215714Y-107252857D01*
X170172857Y-107081428D01*
X170130000Y-106995714D01*
X170044285Y-106910000D01*
X169915714Y-106867142D01*
X169830000Y-106867142D01*
X169701428Y-106910000D01*
X169658571Y-106952857D01*
X169015714Y-106867142D02*
X169015714Y-107510000D01*
X169058571Y-107638571D01*
X169144285Y-107724285D01*
X169272857Y-107767142D01*
X169358571Y-107767142D01*
X168158571Y-107767142D02*
X168587142Y-107767142D01*
X168587142Y-106867142D01*
X167344285Y-107681428D02*
X167387142Y-107724285D01*
X167515714Y-107767142D01*
X167601428Y-107767142D01*
X167730000Y-107724285D01*
X167815714Y-107638571D01*
X167858571Y-107552857D01*
X167901428Y-107381428D01*
X167901428Y-107252857D01*
X167858571Y-107081428D01*
X167815714Y-106995714D01*
X167730000Y-106910000D01*
X167601428Y-106867142D01*
X167515714Y-106867142D01*
X167387142Y-106910000D01*
X167344285Y-106952857D01*
X166701428Y-106867142D02*
X166701428Y-107510000D01*
X166744285Y-107638571D01*
X166830000Y-107724285D01*
X166958571Y-107767142D01*
X167044285Y-107767142D01*
X165844285Y-107767142D02*
X166272857Y-107767142D01*
X166272857Y-106867142D01*
X165030000Y-107681428D02*
X165072857Y-107724285D01*
X165201428Y-107767142D01*
X165287142Y-107767142D01*
X165415714Y-107724285D01*
X165501428Y-107638571D01*
X165544285Y-107552857D01*
X165587142Y-107381428D01*
X165587142Y-107252857D01*
X165544285Y-107081428D01*
X165501428Y-106995714D01*
X165415714Y-106910000D01*
X165287142Y-106867142D01*
X165201428Y-106867142D01*
X165072857Y-106910000D01*
X165030000Y-106952857D01*
X125948571Y-105395714D02*
X125710476Y-106062380D01*
X125472380Y-105395714D01*
X124567619Y-106062380D02*
X125139047Y-106062380D01*
X124853333Y-106062380D02*
X124853333Y-105062380D01*
X124948571Y-105205238D01*
X125043809Y-105300476D01*
X125139047Y-105348095D01*
X124139047Y-105967142D02*
X124091428Y-106014761D01*
X124139047Y-106062380D01*
X124186666Y-106014761D01*
X124139047Y-105967142D01*
X124139047Y-106062380D01*
X123139047Y-106062380D02*
X123710476Y-106062380D01*
X123424761Y-106062380D02*
X123424761Y-105062380D01*
X123520000Y-105205238D01*
X123615238Y-105300476D01*
X123710476Y-105348095D01*
D11*
%TO.C,G\u002A\u002A\u002A*%
G36*
X128634327Y-100472828D02*
G01*
X128593582Y-100488908D01*
X128520871Y-100527587D01*
X128462494Y-100573733D01*
X128416875Y-100638167D01*
X128382436Y-100731711D01*
X128357602Y-100865189D01*
X128340795Y-101049420D01*
X128330437Y-101295229D01*
X128324953Y-101613436D01*
X128322764Y-102014864D01*
X128322349Y-102350222D01*
X128323059Y-102824383D01*
X128326550Y-103207301D01*
X128334105Y-103509321D01*
X128347004Y-103740791D01*
X128366530Y-103912055D01*
X128393962Y-104033460D01*
X128430583Y-104115351D01*
X128477673Y-104168075D01*
X128536515Y-104201978D01*
X128552476Y-104208443D01*
X128749730Y-104239975D01*
X128932451Y-104191461D01*
X129023945Y-104122425D01*
X129081726Y-104045712D01*
X129115353Y-103949817D01*
X129130884Y-103806576D01*
X129134400Y-103608990D01*
X129136487Y-103411210D01*
X129145777Y-103296762D01*
X129166815Y-103247415D01*
X129204146Y-103244935D01*
X129223300Y-103252379D01*
X129315043Y-103274010D01*
X129476184Y-103295265D01*
X129674588Y-103312058D01*
X129708866Y-103314128D01*
X129921165Y-103322189D01*
X130074595Y-103311963D01*
X130211374Y-103275364D01*
X130373719Y-103204306D01*
X130432932Y-103175448D01*
X130758623Y-102963248D01*
X131006656Y-102687303D01*
X131173115Y-102352169D01*
X131192130Y-102292642D01*
X131224756Y-102128390D01*
X131248556Y-101901326D01*
X131263252Y-101636771D01*
X131268561Y-101360050D01*
X131264203Y-101096485D01*
X131249897Y-100871400D01*
X131225362Y-100710118D01*
X131210198Y-100663518D01*
X131101883Y-100536852D01*
X130939829Y-100468720D01*
X130761512Y-100472904D01*
X130724140Y-100484777D01*
X130621581Y-100532510D01*
X130549161Y-100596297D01*
X130501678Y-100693159D01*
X130473930Y-100840120D01*
X130460716Y-101054203D01*
X130456835Y-101352431D01*
X130456816Y-101359622D01*
X130451467Y-101680991D01*
X130433779Y-101920028D01*
X130398544Y-102095748D01*
X130340551Y-102227170D01*
X130254590Y-102333309D01*
X130169965Y-102406714D01*
X129986146Y-102493046D01*
X129765203Y-102512933D01*
X129546729Y-102466539D01*
X129428595Y-102403648D01*
X129314199Y-102303653D01*
X129232566Y-102180501D01*
X129178818Y-102016598D01*
X129148078Y-101794351D01*
X129135465Y-101496167D01*
X129134400Y-101342691D01*
X129130497Y-101095351D01*
X129119877Y-100879362D01*
X129104173Y-100718338D01*
X129085542Y-100636827D01*
X128970894Y-100519517D01*
X128806804Y-100460736D01*
X128634327Y-100472828D01*
G37*
X128634327Y-100472828D02*
X128593582Y-100488908D01*
X128520871Y-100527587D01*
X128462494Y-100573733D01*
X128416875Y-100638167D01*
X128382436Y-100731711D01*
X128357602Y-100865189D01*
X128340795Y-101049420D01*
X128330437Y-101295229D01*
X128324953Y-101613436D01*
X128322764Y-102014864D01*
X128322349Y-102350222D01*
X128323059Y-102824383D01*
X128326550Y-103207301D01*
X128334105Y-103509321D01*
X128347004Y-103740791D01*
X128366530Y-103912055D01*
X128393962Y-104033460D01*
X128430583Y-104115351D01*
X128477673Y-104168075D01*
X128536515Y-104201978D01*
X128552476Y-104208443D01*
X128749730Y-104239975D01*
X128932451Y-104191461D01*
X129023945Y-104122425D01*
X129081726Y-104045712D01*
X129115353Y-103949817D01*
X129130884Y-103806576D01*
X129134400Y-103608990D01*
X129136487Y-103411210D01*
X129145777Y-103296762D01*
X129166815Y-103247415D01*
X129204146Y-103244935D01*
X129223300Y-103252379D01*
X129315043Y-103274010D01*
X129476184Y-103295265D01*
X129674588Y-103312058D01*
X129708866Y-103314128D01*
X129921165Y-103322189D01*
X130074595Y-103311963D01*
X130211374Y-103275364D01*
X130373719Y-103204306D01*
X130432932Y-103175448D01*
X130758623Y-102963248D01*
X131006656Y-102687303D01*
X131173115Y-102352169D01*
X131192130Y-102292642D01*
X131224756Y-102128390D01*
X131248556Y-101901326D01*
X131263252Y-101636771D01*
X131268561Y-101360050D01*
X131264203Y-101096485D01*
X131249897Y-100871400D01*
X131225362Y-100710118D01*
X131210198Y-100663518D01*
X131101883Y-100536852D01*
X130939829Y-100468720D01*
X130761512Y-100472904D01*
X130724140Y-100484777D01*
X130621581Y-100532510D01*
X130549161Y-100596297D01*
X130501678Y-100693159D01*
X130473930Y-100840120D01*
X130460716Y-101054203D01*
X130456835Y-101352431D01*
X130456816Y-101359622D01*
X130451467Y-101680991D01*
X130433779Y-101920028D01*
X130398544Y-102095748D01*
X130340551Y-102227170D01*
X130254590Y-102333309D01*
X130169965Y-102406714D01*
X129986146Y-102493046D01*
X129765203Y-102512933D01*
X129546729Y-102466539D01*
X129428595Y-102403648D01*
X129314199Y-102303653D01*
X129232566Y-102180501D01*
X129178818Y-102016598D01*
X129148078Y-101794351D01*
X129135465Y-101496167D01*
X129134400Y-101342691D01*
X129130497Y-101095351D01*
X129119877Y-100879362D01*
X129104173Y-100718338D01*
X129085542Y-100636827D01*
X128970894Y-100519517D01*
X128806804Y-100460736D01*
X128634327Y-100472828D01*
G36*
X127128546Y-99796574D02*
G01*
X127004073Y-99933593D01*
X126923818Y-100141042D01*
X126899200Y-100376677D01*
X126899200Y-100633200D01*
X126293288Y-100633199D01*
X126036275Y-100634057D01*
X125860831Y-100639142D01*
X125746927Y-100652225D01*
X125674532Y-100677074D01*
X125623618Y-100717461D01*
X125582088Y-100767050D01*
X125489777Y-100951384D01*
X125497459Y-101134666D01*
X125604551Y-101305803D01*
X125610728Y-101312072D01*
X125673671Y-101370040D01*
X125738593Y-101408302D01*
X125827180Y-101430942D01*
X125961120Y-101442043D01*
X126162099Y-101445690D01*
X126321928Y-101446000D01*
X126899200Y-101446000D01*
X126899200Y-101866007D01*
X126895040Y-102087616D01*
X126878152Y-102239587D01*
X126841925Y-102353700D01*
X126779750Y-102461731D01*
X126773291Y-102471308D01*
X126599960Y-102651580D01*
X126387696Y-102738830D01*
X126135718Y-102733146D01*
X125843246Y-102634614D01*
X125746278Y-102586318D01*
X125594353Y-102515680D01*
X125482788Y-102496848D01*
X125372838Y-102521235D01*
X125199282Y-102626476D01*
X125093546Y-102785155D01*
X125070400Y-102912968D01*
X125113647Y-103039161D01*
X125228321Y-103183203D01*
X125391820Y-103324451D01*
X125581546Y-103442266D01*
X125709961Y-103497095D01*
X125937853Y-103549196D01*
X126203750Y-103572524D01*
X126461281Y-103565343D01*
X126645200Y-103532095D01*
X126972226Y-103388502D01*
X127263835Y-103176849D01*
X127499792Y-102916274D01*
X127659864Y-102625912D01*
X127686836Y-102546960D01*
X127714003Y-102427319D01*
X127734402Y-102266966D01*
X127748745Y-102052729D01*
X127757743Y-101771433D01*
X127762109Y-101409906D01*
X127762800Y-101140834D01*
X127762494Y-100770223D01*
X127760757Y-100487735D01*
X127756361Y-100279893D01*
X127748079Y-100133221D01*
X127734683Y-100034240D01*
X127714947Y-99969475D01*
X127687642Y-99925448D01*
X127651541Y-99888683D01*
X127648500Y-99885893D01*
X127462636Y-99764946D01*
X127285359Y-99737765D01*
X127128546Y-99796574D01*
G37*
X127128546Y-99796574D02*
X127004073Y-99933593D01*
X126923818Y-100141042D01*
X126899200Y-100376677D01*
X126899200Y-100633200D01*
X126293288Y-100633199D01*
X126036275Y-100634057D01*
X125860831Y-100639142D01*
X125746927Y-100652225D01*
X125674532Y-100677074D01*
X125623618Y-100717461D01*
X125582088Y-100767050D01*
X125489777Y-100951384D01*
X125497459Y-101134666D01*
X125604551Y-101305803D01*
X125610728Y-101312072D01*
X125673671Y-101370040D01*
X125738593Y-101408302D01*
X125827180Y-101430942D01*
X125961120Y-101442043D01*
X126162099Y-101445690D01*
X126321928Y-101446000D01*
X126899200Y-101446000D01*
X126899200Y-101866007D01*
X126895040Y-102087616D01*
X126878152Y-102239587D01*
X126841925Y-102353700D01*
X126779750Y-102461731D01*
X126773291Y-102471308D01*
X126599960Y-102651580D01*
X126387696Y-102738830D01*
X126135718Y-102733146D01*
X125843246Y-102634614D01*
X125746278Y-102586318D01*
X125594353Y-102515680D01*
X125482788Y-102496848D01*
X125372838Y-102521235D01*
X125199282Y-102626476D01*
X125093546Y-102785155D01*
X125070400Y-102912968D01*
X125113647Y-103039161D01*
X125228321Y-103183203D01*
X125391820Y-103324451D01*
X125581546Y-103442266D01*
X125709961Y-103497095D01*
X125937853Y-103549196D01*
X126203750Y-103572524D01*
X126461281Y-103565343D01*
X126645200Y-103532095D01*
X126972226Y-103388502D01*
X127263835Y-103176849D01*
X127499792Y-102916274D01*
X127659864Y-102625912D01*
X127686836Y-102546960D01*
X127714003Y-102427319D01*
X127734402Y-102266966D01*
X127748745Y-102052729D01*
X127757743Y-101771433D01*
X127762109Y-101409906D01*
X127762800Y-101140834D01*
X127762494Y-100770223D01*
X127760757Y-100487735D01*
X127756361Y-100279893D01*
X127748079Y-100133221D01*
X127734683Y-100034240D01*
X127714947Y-99969475D01*
X127687642Y-99925448D01*
X127651541Y-99888683D01*
X127648500Y-99885893D01*
X127462636Y-99764946D01*
X127285359Y-99737765D01*
X127128546Y-99796574D01*
G36*
X134301285Y-99309353D02*
G01*
X134230839Y-99373028D01*
X134181770Y-99452342D01*
X134149267Y-99575033D01*
X134128996Y-99762999D01*
X134120289Y-99931459D01*
X134102378Y-100387598D01*
X133967889Y-100351314D01*
X133524313Y-100273553D01*
X133115942Y-100287821D01*
X132746717Y-100393242D01*
X132420577Y-100588940D01*
X132265902Y-100729625D01*
X132030217Y-101038859D01*
X131882246Y-101374572D01*
X131816953Y-101723782D01*
X131829302Y-102073507D01*
X131914258Y-102410766D01*
X132066785Y-102722576D01*
X132281847Y-102995955D01*
X132554408Y-103217921D01*
X132879434Y-103375493D01*
X133251887Y-103455688D01*
X133325400Y-103460997D01*
X133580827Y-103461108D01*
X133788904Y-103426917D01*
X133942288Y-103375333D01*
X134286361Y-103185352D01*
X134580357Y-102912429D01*
X134812628Y-102567675D01*
X134834834Y-102523970D01*
X135001800Y-102184889D01*
X135004657Y-101983399D01*
X134096987Y-101983399D01*
X134025183Y-102201124D01*
X133873715Y-102392747D01*
X133782600Y-102462634D01*
X133580458Y-102542815D01*
X133342562Y-102560022D01*
X133113120Y-102513957D01*
X133016535Y-102467807D01*
X132841938Y-102306090D01*
X132733460Y-102090497D01*
X132697791Y-101849557D01*
X132741619Y-101611800D01*
X132791726Y-101509035D01*
X132966212Y-101304350D01*
X133182027Y-101183955D01*
X133424197Y-101156044D01*
X133435061Y-101157052D01*
X133686996Y-101225084D01*
X133884129Y-101360415D01*
X134021487Y-101544364D01*
X134094097Y-101758252D01*
X134096987Y-101983399D01*
X135004657Y-101983399D01*
X135019565Y-100932094D01*
X135024445Y-100533104D01*
X135025975Y-100222250D01*
X135023525Y-99986107D01*
X135016467Y-99811248D01*
X135004171Y-99684246D01*
X134986008Y-99591676D01*
X134961350Y-99520110D01*
X134952501Y-99500536D01*
X134827119Y-99334182D01*
X134660181Y-99243932D01*
X134476599Y-99234189D01*
X134301285Y-99309353D01*
G37*
X134301285Y-99309353D02*
X134230839Y-99373028D01*
X134181770Y-99452342D01*
X134149267Y-99575033D01*
X134128996Y-99762999D01*
X134120289Y-99931459D01*
X134102378Y-100387598D01*
X133967889Y-100351314D01*
X133524313Y-100273553D01*
X133115942Y-100287821D01*
X132746717Y-100393242D01*
X132420577Y-100588940D01*
X132265902Y-100729625D01*
X132030217Y-101038859D01*
X131882246Y-101374572D01*
X131816953Y-101723782D01*
X131829302Y-102073507D01*
X131914258Y-102410766D01*
X132066785Y-102722576D01*
X132281847Y-102995955D01*
X132554408Y-103217921D01*
X132879434Y-103375493D01*
X133251887Y-103455688D01*
X133325400Y-103460997D01*
X133580827Y-103461108D01*
X133788904Y-103426917D01*
X133942288Y-103375333D01*
X134286361Y-103185352D01*
X134580357Y-102912429D01*
X134812628Y-102567675D01*
X134834834Y-102523970D01*
X135001800Y-102184889D01*
X135004657Y-101983399D01*
X134096987Y-101983399D01*
X134025183Y-102201124D01*
X133873715Y-102392747D01*
X133782600Y-102462634D01*
X133580458Y-102542815D01*
X133342562Y-102560022D01*
X133113120Y-102513957D01*
X133016535Y-102467807D01*
X132841938Y-102306090D01*
X132733460Y-102090497D01*
X132697791Y-101849557D01*
X132741619Y-101611800D01*
X132791726Y-101509035D01*
X132966212Y-101304350D01*
X133182027Y-101183955D01*
X133424197Y-101156044D01*
X133435061Y-101157052D01*
X133686996Y-101225084D01*
X133884129Y-101360415D01*
X134021487Y-101544364D01*
X134094097Y-101758252D01*
X134096987Y-101983399D01*
X135004657Y-101983399D01*
X135019565Y-100932094D01*
X135024445Y-100533104D01*
X135025975Y-100222250D01*
X135023525Y-99986107D01*
X135016467Y-99811248D01*
X135004171Y-99684246D01*
X134986008Y-99591676D01*
X134961350Y-99520110D01*
X134952501Y-99500536D01*
X134827119Y-99334182D01*
X134660181Y-99243932D01*
X134476599Y-99234189D01*
X134301285Y-99309353D01*
G36*
X122988591Y-100565133D02*
G01*
X122688130Y-100711823D01*
X122423127Y-100921844D01*
X122207724Y-101186183D01*
X122056065Y-101495829D01*
X121982290Y-101841767D01*
X121981096Y-101857106D01*
X121975994Y-102009421D01*
X121993559Y-102125432D01*
X122045706Y-102210607D01*
X122144353Y-102270410D01*
X122301417Y-102310307D01*
X122528815Y-102335764D01*
X122838465Y-102352245D01*
X123078483Y-102360400D01*
X123910725Y-102385800D01*
X123792063Y-102493433D01*
X123612557Y-102606775D01*
X123404989Y-102636868D01*
X123166103Y-102591753D01*
X122938426Y-102549945D01*
X122765595Y-102584137D01*
X122630745Y-102698355D01*
X122611727Y-102724096D01*
X122537168Y-102907658D01*
X122560830Y-103091648D01*
X122660860Y-103239005D01*
X122826748Y-103347243D01*
X123059255Y-103424789D01*
X123326812Y-103467056D01*
X123597847Y-103469456D01*
X123840791Y-103427403D01*
X123876600Y-103415655D01*
X124198418Y-103248520D01*
X124478861Y-102996950D01*
X124704956Y-102674058D01*
X124794466Y-102487812D01*
X124847822Y-102271176D01*
X124862319Y-102001021D01*
X124840189Y-101716747D01*
X124802844Y-101545620D01*
X123871679Y-101545620D01*
X123857553Y-101574069D01*
X123794363Y-101589894D01*
X123665473Y-101596773D01*
X123454248Y-101598385D01*
X123412333Y-101598400D01*
X122919090Y-101598400D01*
X123035925Y-101474035D01*
X123164238Y-101375041D01*
X123298604Y-101317637D01*
X123467555Y-101312597D01*
X123644988Y-101355082D01*
X123790678Y-101431807D01*
X123853378Y-101500868D01*
X123871679Y-101545620D01*
X124802844Y-101545620D01*
X124783668Y-101457753D01*
X124728194Y-101319000D01*
X124531622Y-101033632D01*
X124265463Y-100782367D01*
X123961652Y-100595346D01*
X123961293Y-100595180D01*
X123639315Y-100497799D01*
X123310367Y-100490788D01*
X122988591Y-100565133D01*
G37*
X122988591Y-100565133D02*
X122688130Y-100711823D01*
X122423127Y-100921844D01*
X122207724Y-101186183D01*
X122056065Y-101495829D01*
X121982290Y-101841767D01*
X121981096Y-101857106D01*
X121975994Y-102009421D01*
X121993559Y-102125432D01*
X122045706Y-102210607D01*
X122144353Y-102270410D01*
X122301417Y-102310307D01*
X122528815Y-102335764D01*
X122838465Y-102352245D01*
X123078483Y-102360400D01*
X123910725Y-102385800D01*
X123792063Y-102493433D01*
X123612557Y-102606775D01*
X123404989Y-102636868D01*
X123166103Y-102591753D01*
X122938426Y-102549945D01*
X122765595Y-102584137D01*
X122630745Y-102698355D01*
X122611727Y-102724096D01*
X122537168Y-102907658D01*
X122560830Y-103091648D01*
X122660860Y-103239005D01*
X122826748Y-103347243D01*
X123059255Y-103424789D01*
X123326812Y-103467056D01*
X123597847Y-103469456D01*
X123840791Y-103427403D01*
X123876600Y-103415655D01*
X124198418Y-103248520D01*
X124478861Y-102996950D01*
X124704956Y-102674058D01*
X124794466Y-102487812D01*
X124847822Y-102271176D01*
X124862319Y-102001021D01*
X124840189Y-101716747D01*
X124802844Y-101545620D01*
X123871679Y-101545620D01*
X123857553Y-101574069D01*
X123794363Y-101589894D01*
X123665473Y-101596773D01*
X123454248Y-101598385D01*
X123412333Y-101598400D01*
X122919090Y-101598400D01*
X123035925Y-101474035D01*
X123164238Y-101375041D01*
X123298604Y-101317637D01*
X123467555Y-101312597D01*
X123644988Y-101355082D01*
X123790678Y-101431807D01*
X123853378Y-101500868D01*
X123871679Y-101545620D01*
X124802844Y-101545620D01*
X124783668Y-101457753D01*
X124728194Y-101319000D01*
X124531622Y-101033632D01*
X124265463Y-100782367D01*
X123961652Y-100595346D01*
X123961293Y-100595180D01*
X123639315Y-100497799D01*
X123310367Y-100490788D01*
X122988591Y-100565133D01*
G36*
X147275210Y-100253665D02*
G01*
X147215356Y-100306997D01*
X147177651Y-100349188D01*
X147148400Y-100394221D01*
X147126355Y-100454930D01*
X147110266Y-100544146D01*
X147098883Y-100674702D01*
X147090957Y-100859430D01*
X147085238Y-101111162D01*
X147080478Y-101442729D01*
X147077070Y-101727219D01*
X147073167Y-102137491D01*
X147072591Y-102458664D01*
X147075877Y-102703202D01*
X147083564Y-102883569D01*
X147096187Y-103012229D01*
X147114284Y-103101644D01*
X147138391Y-103164279D01*
X147139026Y-103165514D01*
X147264434Y-103306054D01*
X147444825Y-103383459D01*
X147611888Y-103387719D01*
X147722933Y-103335986D01*
X147827788Y-103239148D01*
X147858769Y-103194758D01*
X147882808Y-103141543D01*
X147900784Y-103066936D01*
X147913571Y-102958368D01*
X147922046Y-102803272D01*
X147927085Y-102589078D01*
X147929563Y-102303219D01*
X147930358Y-101933125D01*
X147930400Y-101767040D01*
X147930400Y-100425381D01*
X147805710Y-100300690D01*
X147636816Y-100194599D01*
X147450996Y-100179020D01*
X147275210Y-100253665D01*
G37*
X147275210Y-100253665D02*
X147215356Y-100306997D01*
X147177651Y-100349188D01*
X147148400Y-100394221D01*
X147126355Y-100454930D01*
X147110266Y-100544146D01*
X147098883Y-100674702D01*
X147090957Y-100859430D01*
X147085238Y-101111162D01*
X147080478Y-101442729D01*
X147077070Y-101727219D01*
X147073167Y-102137491D01*
X147072591Y-102458664D01*
X147075877Y-102703202D01*
X147083564Y-102883569D01*
X147096187Y-103012229D01*
X147114284Y-103101644D01*
X147138391Y-103164279D01*
X147139026Y-103165514D01*
X147264434Y-103306054D01*
X147444825Y-103383459D01*
X147611888Y-103387719D01*
X147722933Y-103335986D01*
X147827788Y-103239148D01*
X147858769Y-103194758D01*
X147882808Y-103141543D01*
X147900784Y-103066936D01*
X147913571Y-102958368D01*
X147922046Y-102803272D01*
X147927085Y-102589078D01*
X147929563Y-102303219D01*
X147930358Y-101933125D01*
X147930400Y-101767040D01*
X147930400Y-100425381D01*
X147805710Y-100300690D01*
X147636816Y-100194599D01*
X147450996Y-100179020D01*
X147275210Y-100253665D01*
G36*
X150700767Y-100202504D02*
G01*
X150483219Y-100307403D01*
X150403511Y-100347527D01*
X150324161Y-100345331D01*
X150207930Y-100296384D01*
X150153019Y-100268110D01*
X149853408Y-100165430D01*
X149538442Y-100153866D01*
X149227624Y-100229098D01*
X148940454Y-100386806D01*
X148728541Y-100583620D01*
X148634281Y-100706878D01*
X148562407Y-100838403D01*
X148510050Y-100993767D01*
X148474341Y-101188543D01*
X148452409Y-101438303D01*
X148441386Y-101758620D01*
X148438400Y-102158202D01*
X148438400Y-103079415D01*
X148586893Y-103227907D01*
X148764976Y-103348750D01*
X148947669Y-103375213D01*
X149115478Y-103311043D01*
X149248911Y-103159986D01*
X149280901Y-103094542D01*
X149311006Y-102986484D01*
X149332317Y-102820578D01*
X149345699Y-102584422D01*
X149352018Y-102265617D01*
X149352800Y-102065104D01*
X149353811Y-101746817D01*
X149357870Y-101514530D01*
X149366513Y-101352654D01*
X149381281Y-101245601D01*
X149403711Y-101177781D01*
X149435341Y-101133606D01*
X149445701Y-101123673D01*
X149590932Y-101047831D01*
X149737991Y-101065508D01*
X149827527Y-101132500D01*
X149857988Y-101179121D01*
X149880252Y-101251516D01*
X149895531Y-101364382D01*
X149905037Y-101532418D01*
X149909981Y-101770318D01*
X149911575Y-102092782D01*
X149911600Y-102152407D01*
X149911601Y-103079415D01*
X150060093Y-103227907D01*
X150238259Y-103349275D01*
X150424584Y-103370315D01*
X150611049Y-103290681D01*
X150658068Y-103253869D01*
X150800600Y-103131339D01*
X150826000Y-102134295D01*
X150836334Y-101779681D01*
X150847603Y-101514075D01*
X150861030Y-101324886D01*
X150877840Y-101199524D01*
X150899257Y-101125397D01*
X150926505Y-101089914D01*
X150927600Y-101089204D01*
X151081745Y-101043062D01*
X151231643Y-101097119D01*
X151283201Y-101141200D01*
X151319248Y-101183892D01*
X151345624Y-101239360D01*
X151363824Y-101322837D01*
X151375345Y-101449557D01*
X151381681Y-101634752D01*
X151384330Y-101893656D01*
X151384801Y-102175672D01*
X151384801Y-103108545D01*
X151518728Y-103242472D01*
X151692396Y-103355869D01*
X151877980Y-103371907D01*
X152058675Y-103290680D01*
X152117920Y-103239025D01*
X152255293Y-103101651D01*
X152239147Y-102007125D01*
X152223000Y-100912600D01*
X152082987Y-100697213D01*
X151871072Y-100454136D01*
X151606437Y-100278143D01*
X151309538Y-100174216D01*
X151000829Y-100147342D01*
X150700767Y-100202504D01*
G37*
X150700767Y-100202504D02*
X150483219Y-100307403D01*
X150403511Y-100347527D01*
X150324161Y-100345331D01*
X150207930Y-100296384D01*
X150153019Y-100268110D01*
X149853408Y-100165430D01*
X149538442Y-100153866D01*
X149227624Y-100229098D01*
X148940454Y-100386806D01*
X148728541Y-100583620D01*
X148634281Y-100706878D01*
X148562407Y-100838403D01*
X148510050Y-100993767D01*
X148474341Y-101188543D01*
X148452409Y-101438303D01*
X148441386Y-101758620D01*
X148438400Y-102158202D01*
X148438400Y-103079415D01*
X148586893Y-103227907D01*
X148764976Y-103348750D01*
X148947669Y-103375213D01*
X149115478Y-103311043D01*
X149248911Y-103159986D01*
X149280901Y-103094542D01*
X149311006Y-102986484D01*
X149332317Y-102820578D01*
X149345699Y-102584422D01*
X149352018Y-102265617D01*
X149352800Y-102065104D01*
X149353811Y-101746817D01*
X149357870Y-101514530D01*
X149366513Y-101352654D01*
X149381281Y-101245601D01*
X149403711Y-101177781D01*
X149435341Y-101133606D01*
X149445701Y-101123673D01*
X149590932Y-101047831D01*
X149737991Y-101065508D01*
X149827527Y-101132500D01*
X149857988Y-101179121D01*
X149880252Y-101251516D01*
X149895531Y-101364382D01*
X149905037Y-101532418D01*
X149909981Y-101770318D01*
X149911575Y-102092782D01*
X149911600Y-102152407D01*
X149911601Y-103079415D01*
X150060093Y-103227907D01*
X150238259Y-103349275D01*
X150424584Y-103370315D01*
X150611049Y-103290681D01*
X150658068Y-103253869D01*
X150800600Y-103131339D01*
X150826000Y-102134295D01*
X150836334Y-101779681D01*
X150847603Y-101514075D01*
X150861030Y-101324886D01*
X150877840Y-101199524D01*
X150899257Y-101125397D01*
X150926505Y-101089914D01*
X150927600Y-101089204D01*
X151081745Y-101043062D01*
X151231643Y-101097119D01*
X151283201Y-101141200D01*
X151319248Y-101183892D01*
X151345624Y-101239360D01*
X151363824Y-101322837D01*
X151375345Y-101449557D01*
X151381681Y-101634752D01*
X151384330Y-101893656D01*
X151384801Y-102175672D01*
X151384801Y-103108545D01*
X151518728Y-103242472D01*
X151692396Y-103355869D01*
X151877980Y-103371907D01*
X152058675Y-103290680D01*
X152117920Y-103239025D01*
X152255293Y-103101651D01*
X152239147Y-102007125D01*
X152223000Y-100912600D01*
X152082987Y-100697213D01*
X151871072Y-100454136D01*
X151606437Y-100278143D01*
X151309538Y-100174216D01*
X151000829Y-100147342D01*
X150700767Y-100202504D01*
G36*
X144605561Y-100188212D02*
G01*
X144330160Y-100265307D01*
X144092183Y-100381380D01*
X143902216Y-100526516D01*
X143770842Y-100690798D01*
X143708648Y-100864312D01*
X143726217Y-101037142D01*
X143817006Y-101181806D01*
X143946197Y-101287922D01*
X144086677Y-101326053D01*
X144259681Y-101296493D01*
X144486442Y-101199537D01*
X144502736Y-101191321D01*
X144701757Y-101098825D01*
X144848975Y-101054868D01*
X144976625Y-101050896D01*
X145013350Y-101055800D01*
X145276686Y-101142804D01*
X145472128Y-101304435D01*
X145594691Y-101535534D01*
X145629601Y-101693125D01*
X145613462Y-101915778D01*
X145520863Y-102136751D01*
X145370443Y-102318597D01*
X145288874Y-102377675D01*
X145068960Y-102453373D01*
X144818372Y-102454258D01*
X144572706Y-102382529D01*
X144473491Y-102327309D01*
X144258360Y-102226812D01*
X144058066Y-102208073D01*
X143889537Y-102264592D01*
X143769701Y-102389870D01*
X143715486Y-102577405D01*
X143714000Y-102618937D01*
X143725908Y-102739463D01*
X143774349Y-102839706D01*
X143878403Y-102952127D01*
X143945418Y-103012667D01*
X144257837Y-103222820D01*
X144608113Y-103343616D01*
X144981571Y-103372662D01*
X145363535Y-103307566D01*
X145490247Y-103264519D01*
X145791527Y-103100374D01*
X146065304Y-102860608D01*
X146286131Y-102571179D01*
X146403091Y-102333425D01*
X146499224Y-101942594D01*
X146496640Y-101556961D01*
X146398038Y-101187794D01*
X146206119Y-100846361D01*
X145987952Y-100601446D01*
X145698301Y-100372011D01*
X145404068Y-100230726D01*
X145078390Y-100166609D01*
X144907800Y-100160009D01*
X144605561Y-100188212D01*
G37*
X144605561Y-100188212D02*
X144330160Y-100265307D01*
X144092183Y-100381380D01*
X143902216Y-100526516D01*
X143770842Y-100690798D01*
X143708648Y-100864312D01*
X143726217Y-101037142D01*
X143817006Y-101181806D01*
X143946197Y-101287922D01*
X144086677Y-101326053D01*
X144259681Y-101296493D01*
X144486442Y-101199537D01*
X144502736Y-101191321D01*
X144701757Y-101098825D01*
X144848975Y-101054868D01*
X144976625Y-101050896D01*
X145013350Y-101055800D01*
X145276686Y-101142804D01*
X145472128Y-101304435D01*
X145594691Y-101535534D01*
X145629601Y-101693125D01*
X145613462Y-101915778D01*
X145520863Y-102136751D01*
X145370443Y-102318597D01*
X145288874Y-102377675D01*
X145068960Y-102453373D01*
X144818372Y-102454258D01*
X144572706Y-102382529D01*
X144473491Y-102327309D01*
X144258360Y-102226812D01*
X144058066Y-102208073D01*
X143889537Y-102264592D01*
X143769701Y-102389870D01*
X143715486Y-102577405D01*
X143714000Y-102618937D01*
X143725908Y-102739463D01*
X143774349Y-102839706D01*
X143878403Y-102952127D01*
X143945418Y-103012667D01*
X144257837Y-103222820D01*
X144608113Y-103343616D01*
X144981571Y-103372662D01*
X145363535Y-103307566D01*
X145490247Y-103264519D01*
X145791527Y-103100374D01*
X146065304Y-102860608D01*
X146286131Y-102571179D01*
X146403091Y-102333425D01*
X146499224Y-101942594D01*
X146496640Y-101556961D01*
X146398038Y-101187794D01*
X146206119Y-100846361D01*
X145987952Y-100601446D01*
X145698301Y-100372011D01*
X145404068Y-100230726D01*
X145078390Y-100166609D01*
X144907800Y-100160009D01*
X144605561Y-100188212D01*
G36*
X141423148Y-100203121D02*
G01*
X141260383Y-100312284D01*
X141168948Y-100483380D01*
X141153681Y-100607543D01*
X141195120Y-100798916D01*
X141321132Y-100938345D01*
X141534256Y-101028251D01*
X141612683Y-101045401D01*
X141837823Y-101102674D01*
X142008954Y-101188961D01*
X142132818Y-101316964D01*
X142216154Y-101499384D01*
X142265702Y-101748925D01*
X142288200Y-102078289D01*
X142291522Y-102324822D01*
X142296791Y-102681226D01*
X142316088Y-102948574D01*
X142354781Y-103139040D01*
X142418239Y-103264798D01*
X142511830Y-103338022D01*
X142640924Y-103370888D01*
X142755264Y-103376400D01*
X142921159Y-103331771D01*
X143030510Y-103251709D01*
X143075934Y-103203031D01*
X143108725Y-103150968D01*
X143130940Y-103079197D01*
X143144637Y-102971393D01*
X143151875Y-102811231D01*
X143154710Y-102582387D01*
X143155200Y-102268537D01*
X143155200Y-102262557D01*
X143154260Y-101941424D01*
X143150042Y-101702497D01*
X143140453Y-101526392D01*
X143123398Y-101393722D01*
X143096783Y-101285101D01*
X143058514Y-101181144D01*
X143031633Y-101118689D01*
X142840965Y-100802258D01*
X142579987Y-100535310D01*
X142268635Y-100331516D01*
X141926847Y-100204545D01*
X141644348Y-100167457D01*
X141423148Y-100203121D01*
G37*
X141423148Y-100203121D02*
X141260383Y-100312284D01*
X141168948Y-100483380D01*
X141153681Y-100607543D01*
X141195120Y-100798916D01*
X141321132Y-100938345D01*
X141534256Y-101028251D01*
X141612683Y-101045401D01*
X141837823Y-101102674D01*
X142008954Y-101188961D01*
X142132818Y-101316964D01*
X142216154Y-101499384D01*
X142265702Y-101748925D01*
X142288200Y-102078289D01*
X142291522Y-102324822D01*
X142296791Y-102681226D01*
X142316088Y-102948574D01*
X142354781Y-103139040D01*
X142418239Y-103264798D01*
X142511830Y-103338022D01*
X142640924Y-103370888D01*
X142755264Y-103376400D01*
X142921159Y-103331771D01*
X143030510Y-103251709D01*
X143075934Y-103203031D01*
X143108725Y-103150968D01*
X143130940Y-103079197D01*
X143144637Y-102971393D01*
X143151875Y-102811231D01*
X143154710Y-102582387D01*
X143155200Y-102268537D01*
X143155200Y-102262557D01*
X143154260Y-101941424D01*
X143150042Y-101702497D01*
X143140453Y-101526392D01*
X143123398Y-101393722D01*
X143096783Y-101285101D01*
X143058514Y-101181144D01*
X143031633Y-101118689D01*
X142840965Y-100802258D01*
X142579987Y-100535310D01*
X142268635Y-100331516D01*
X141926847Y-100204545D01*
X141644348Y-100167457D01*
X141423148Y-100203121D01*
G36*
X138899973Y-100196338D02*
G01*
X138540257Y-100346725D01*
X138465535Y-100391591D01*
X138154228Y-100645158D01*
X137924512Y-100956026D01*
X137780665Y-101315578D01*
X137726963Y-101715200D01*
X137730808Y-101871655D01*
X137803674Y-102271090D01*
X137960883Y-102621982D01*
X138193131Y-102915190D01*
X138491114Y-103141571D01*
X138845526Y-103291985D01*
X139242782Y-103357086D01*
X139447879Y-103357402D01*
X139639394Y-103341571D01*
X139749201Y-103319931D01*
X139993646Y-103211733D01*
X140248222Y-103044121D01*
X140474333Y-102845783D01*
X140613149Y-102677761D01*
X140784583Y-102335467D01*
X140869635Y-101971516D01*
X140870892Y-101794865D01*
X139998795Y-101794865D01*
X139937963Y-102054312D01*
X139924721Y-102083686D01*
X139834687Y-102240623D01*
X139725165Y-102342732D01*
X139559757Y-102421253D01*
X139510782Y-102438981D01*
X139302545Y-102480968D01*
X139096111Y-102449104D01*
X138926599Y-102377623D01*
X138817338Y-102288814D01*
X138710310Y-102150242D01*
X138679788Y-102096574D01*
X138599305Y-101839223D01*
X138613745Y-101588718D01*
X138717179Y-101363378D01*
X138903674Y-101181520D01*
X138993212Y-101128578D01*
X139242510Y-101048654D01*
X139481024Y-101069505D01*
X139637765Y-101140925D01*
X139842967Y-101319350D01*
X139965220Y-101543604D01*
X139998795Y-101794865D01*
X140870892Y-101794865D01*
X140872264Y-101602257D01*
X140796431Y-101244033D01*
X140646093Y-100913192D01*
X140425212Y-100626081D01*
X140137746Y-100399044D01*
X140049367Y-100350235D01*
X139654981Y-100198081D01*
X139271699Y-100146786D01*
X138899973Y-100196338D01*
G37*
X138899973Y-100196338D02*
X138540257Y-100346725D01*
X138465535Y-100391591D01*
X138154228Y-100645158D01*
X137924512Y-100956026D01*
X137780665Y-101315578D01*
X137726963Y-101715200D01*
X137730808Y-101871655D01*
X137803674Y-102271090D01*
X137960883Y-102621982D01*
X138193131Y-102915190D01*
X138491114Y-103141571D01*
X138845526Y-103291985D01*
X139242782Y-103357086D01*
X139447879Y-103357402D01*
X139639394Y-103341571D01*
X139749201Y-103319931D01*
X139993646Y-103211733D01*
X140248222Y-103044121D01*
X140474333Y-102845783D01*
X140613149Y-102677761D01*
X140784583Y-102335467D01*
X140869635Y-101971516D01*
X140870892Y-101794865D01*
X139998795Y-101794865D01*
X139937963Y-102054312D01*
X139924721Y-102083686D01*
X139834687Y-102240623D01*
X139725165Y-102342732D01*
X139559757Y-102421253D01*
X139510782Y-102438981D01*
X139302545Y-102480968D01*
X139096111Y-102449104D01*
X138926599Y-102377623D01*
X138817338Y-102288814D01*
X138710310Y-102150242D01*
X138679788Y-102096574D01*
X138599305Y-101839223D01*
X138613745Y-101588718D01*
X138717179Y-101363378D01*
X138903674Y-101181520D01*
X138993212Y-101128578D01*
X139242510Y-101048654D01*
X139481024Y-101069505D01*
X139637765Y-101140925D01*
X139842967Y-101319350D01*
X139965220Y-101543604D01*
X139998795Y-101794865D01*
X140870892Y-101794865D01*
X140872264Y-101602257D01*
X140796431Y-101244033D01*
X140646093Y-100913192D01*
X140425212Y-100626081D01*
X140137746Y-100399044D01*
X140049367Y-100350235D01*
X139654981Y-100198081D01*
X139271699Y-100146786D01*
X138899973Y-100196338D01*
G36*
X136269022Y-102015010D02*
G01*
X136074315Y-102116993D01*
X136007365Y-102181905D01*
X135889759Y-102378481D01*
X135856508Y-102582844D01*
X135895363Y-102779015D01*
X135994075Y-102951016D01*
X136140393Y-103082867D01*
X136322069Y-103158592D01*
X136526852Y-103162211D01*
X136709022Y-103097157D01*
X136883411Y-102950191D01*
X136984964Y-102754297D01*
X137008646Y-102535976D01*
X136949418Y-102321732D01*
X136877188Y-102212258D01*
X136694956Y-102063498D01*
X136484068Y-101997463D01*
X136269022Y-102015010D01*
G37*
X136269022Y-102015010D02*
X136074315Y-102116993D01*
X136007365Y-102181905D01*
X135889759Y-102378481D01*
X135856508Y-102582844D01*
X135895363Y-102779015D01*
X135994075Y-102951016D01*
X136140393Y-103082867D01*
X136322069Y-103158592D01*
X136526852Y-103162211D01*
X136709022Y-103097157D01*
X136883411Y-102950191D01*
X136984964Y-102754297D01*
X137008646Y-102535976D01*
X136949418Y-102321732D01*
X136877188Y-102212258D01*
X136694956Y-102063498D01*
X136484068Y-101997463D01*
X136269022Y-102015010D01*
G36*
X136325411Y-100577587D02*
G01*
X136148476Y-100631232D01*
X136024589Y-100738029D01*
X135915518Y-100897702D01*
X135848935Y-101065162D01*
X135840190Y-101133522D01*
X135883985Y-101356142D01*
X136002081Y-101539409D01*
X136173408Y-101670197D01*
X136376896Y-101735381D01*
X136591475Y-101721836D01*
X136709022Y-101674757D01*
X136876196Y-101532915D01*
X136975012Y-101343071D01*
X137005261Y-101130539D01*
X136966730Y-100920634D01*
X136859209Y-100738673D01*
X136717766Y-100627187D01*
X136535932Y-100575097D01*
X136325411Y-100577587D01*
G37*
X136325411Y-100577587D02*
X136148476Y-100631232D01*
X136024589Y-100738029D01*
X135915518Y-100897702D01*
X135848935Y-101065162D01*
X135840190Y-101133522D01*
X135883985Y-101356142D01*
X136002081Y-101539409D01*
X136173408Y-101670197D01*
X136376896Y-101735381D01*
X136591475Y-101721836D01*
X136709022Y-101674757D01*
X136876196Y-101532915D01*
X136975012Y-101343071D01*
X137005261Y-101130539D01*
X136966730Y-100920634D01*
X136859209Y-100738673D01*
X136717766Y-100627187D01*
X136535932Y-100575097D01*
X136325411Y-100577587D01*
G36*
X147304559Y-99214305D02*
G01*
X147170406Y-99323864D01*
X147088994Y-99479147D01*
X147082098Y-99667681D01*
X147088229Y-99695660D01*
X147176731Y-99868726D01*
X147322987Y-99979900D01*
X147499801Y-100021476D01*
X147679977Y-99985751D01*
X147805710Y-99898909D01*
X147910761Y-99729107D01*
X147929485Y-99536936D01*
X147861881Y-99353599D01*
X147805710Y-99284690D01*
X147643985Y-99182245D01*
X147469677Y-99162941D01*
X147304559Y-99214305D01*
G37*
X147304559Y-99214305D02*
X147170406Y-99323864D01*
X147088994Y-99479147D01*
X147082098Y-99667681D01*
X147088229Y-99695660D01*
X147176731Y-99868726D01*
X147322987Y-99979900D01*
X147499801Y-100021476D01*
X147679977Y-99985751D01*
X147805710Y-99898909D01*
X147910761Y-99729107D01*
X147929485Y-99536936D01*
X147861881Y-99353599D01*
X147805710Y-99284690D01*
X147643985Y-99182245D01*
X147469677Y-99162941D01*
X147304559Y-99214305D01*
G36*
X129718600Y-87895047D02*
G01*
X129432733Y-88101538D01*
X129222944Y-88361795D01*
X129092474Y-88659587D01*
X129044563Y-88978682D01*
X129082452Y-89302851D01*
X129209380Y-89615863D01*
X129337938Y-89801748D01*
X129490246Y-89958860D01*
X129662533Y-90073979D01*
X129873614Y-90153582D01*
X130142305Y-90204145D01*
X130487421Y-90232143D01*
X130602227Y-90236888D01*
X130877460Y-90248429D01*
X131073244Y-90263125D01*
X131211730Y-90284804D01*
X131315068Y-90317297D01*
X131405407Y-90364435D01*
X131430292Y-90380072D01*
X131657872Y-90582609D01*
X131811416Y-90837692D01*
X131889291Y-91126592D01*
X131889867Y-91430580D01*
X131811513Y-91730928D01*
X131652596Y-92008907D01*
X131579701Y-92095235D01*
X131512870Y-92167056D01*
X131451207Y-92226957D01*
X131385227Y-92276127D01*
X131305447Y-92315754D01*
X131202383Y-92347027D01*
X131066549Y-92371135D01*
X130888463Y-92389268D01*
X130658639Y-92402613D01*
X130367594Y-92412360D01*
X130005844Y-92419698D01*
X129563904Y-92425815D01*
X129032290Y-92431900D01*
X128880400Y-92433600D01*
X128336831Y-92439998D01*
X127885384Y-92446174D01*
X127516586Y-92452586D01*
X127220961Y-92459687D01*
X126989036Y-92467935D01*
X126811336Y-92477785D01*
X126678385Y-92489693D01*
X126580710Y-92504114D01*
X126508836Y-92521505D01*
X126453288Y-92542320D01*
X126434398Y-92551269D01*
X126149269Y-92742703D01*
X125938842Y-92985695D01*
X125804048Y-93264286D01*
X125745820Y-93562515D01*
X125765091Y-93864420D01*
X125862791Y-94154042D01*
X126039854Y-94415419D01*
X126297211Y-94632591D01*
X126312291Y-94642057D01*
X126560895Y-94795800D01*
X128874018Y-94810011D01*
X129441498Y-94813519D01*
X129915743Y-94817219D01*
X130305114Y-94822250D01*
X130617974Y-94829750D01*
X130862681Y-94840855D01*
X131047598Y-94856704D01*
X131181086Y-94878434D01*
X131271506Y-94907182D01*
X131327218Y-94944087D01*
X131356584Y-94990286D01*
X131367965Y-95046917D01*
X131369722Y-95115116D01*
X131369601Y-95149563D01*
X131359205Y-95290402D01*
X131317816Y-95389927D01*
X131230126Y-95456661D01*
X131080830Y-95499125D01*
X130854620Y-95525842D01*
X130671804Y-95538077D01*
X130269283Y-95581164D01*
X129949547Y-95663933D01*
X129699058Y-95793756D01*
X129504276Y-95978000D01*
X129351664Y-96224036D01*
X129331051Y-96267872D01*
X129250341Y-96558197D01*
X129253292Y-96862973D01*
X129330877Y-97162049D01*
X129474065Y-97435268D01*
X129673827Y-97662479D01*
X129921135Y-97823527D01*
X130048800Y-97869960D01*
X130124880Y-97876845D01*
X130300236Y-97883206D01*
X130572548Y-97889031D01*
X130939496Y-97894308D01*
X131398757Y-97899024D01*
X131948010Y-97903165D01*
X132584933Y-97906720D01*
X133307207Y-97909675D01*
X134112508Y-97912018D01*
X134998517Y-97913737D01*
X135962911Y-97914817D01*
X137003369Y-97915247D01*
X138117570Y-97915014D01*
X138253000Y-97914943D01*
X139355913Y-97914173D01*
X140361442Y-97913129D01*
X141273806Y-97911776D01*
X142097221Y-97910078D01*
X142835904Y-97907999D01*
X143494073Y-97905504D01*
X144075945Y-97902556D01*
X144585736Y-97899121D01*
X145027663Y-97895162D01*
X145405944Y-97890644D01*
X145724796Y-97885532D01*
X145988436Y-97879788D01*
X146201080Y-97873379D01*
X146366946Y-97866267D01*
X146490250Y-97858418D01*
X146575211Y-97849795D01*
X146609600Y-97844223D01*
X147291961Y-97657298D01*
X147937744Y-97380919D01*
X148537612Y-97021950D01*
X149082229Y-96587257D01*
X149562256Y-96083703D01*
X149968358Y-95518154D01*
X150111589Y-95269459D01*
X150324110Y-94844328D01*
X150481421Y-94452663D01*
X150590327Y-94066168D01*
X150657633Y-93656543D01*
X150690144Y-93195493D01*
X150695713Y-92848477D01*
X148111732Y-92848477D01*
X148079071Y-93284860D01*
X147988304Y-93666324D01*
X147778034Y-94132947D01*
X147488638Y-94550146D01*
X147131962Y-94906930D01*
X146719851Y-95192310D01*
X146264150Y-95395296D01*
X146061893Y-95453510D01*
X145994770Y-95465846D01*
X145897346Y-95476763D01*
X145763751Y-95486347D01*
X145588116Y-95494687D01*
X145364573Y-95501869D01*
X145087250Y-95507979D01*
X144750279Y-95513104D01*
X144347790Y-95517332D01*
X143873915Y-95520749D01*
X143322782Y-95523442D01*
X142688523Y-95525498D01*
X141965269Y-95527005D01*
X141147150Y-95528047D01*
X141018230Y-95528167D01*
X140054655Y-95528406D01*
X139192604Y-95527314D01*
X138432012Y-95524891D01*
X137772813Y-95521138D01*
X137214940Y-95516052D01*
X136758327Y-95509633D01*
X136402908Y-95501881D01*
X136148617Y-95492795D01*
X135995387Y-95482374D01*
X135963630Y-95478062D01*
X135512620Y-95346929D01*
X135087711Y-95127700D01*
X134702367Y-94833087D01*
X134370052Y-94475806D01*
X134104229Y-94068569D01*
X133918363Y-93624091D01*
X133888478Y-93518467D01*
X133824020Y-93128180D01*
X133814201Y-92703231D01*
X133859019Y-92294615D01*
X133888478Y-92161532D01*
X134054153Y-91710320D01*
X134302866Y-91293439D01*
X134621153Y-90923603D01*
X134995549Y-90613528D01*
X135412592Y-90375925D01*
X135858817Y-90223511D01*
X135963630Y-90201937D01*
X136078362Y-90191019D01*
X136294378Y-90181335D01*
X136611372Y-90172888D01*
X137029036Y-90165682D01*
X137547062Y-90159721D01*
X138165142Y-90155006D01*
X138882970Y-90151543D01*
X139700238Y-90149334D01*
X140616637Y-90148382D01*
X140992830Y-90148350D01*
X141821040Y-90148481D01*
X142554181Y-90148825D01*
X143198787Y-90149728D01*
X143761389Y-90151534D01*
X144248520Y-90154588D01*
X144666711Y-90159236D01*
X145022495Y-90165823D01*
X145322404Y-90174694D01*
X145572970Y-90186194D01*
X145780725Y-90200669D01*
X145952201Y-90218463D01*
X146093930Y-90239921D01*
X146212444Y-90265389D01*
X146314276Y-90295212D01*
X146405958Y-90329735D01*
X146494021Y-90369303D01*
X146584998Y-90414261D01*
X146650248Y-90447275D01*
X147049756Y-90702816D01*
X147407752Y-91038108D01*
X147708386Y-91434596D01*
X147935808Y-91873723D01*
X147988304Y-92013675D01*
X148081476Y-92411325D01*
X148111732Y-92848477D01*
X150695713Y-92848477D01*
X150695850Y-92840000D01*
X150692788Y-92477058D01*
X150682536Y-92194897D01*
X150663500Y-91972848D01*
X150634081Y-91790247D01*
X150605574Y-91671600D01*
X150386397Y-91001574D01*
X150112229Y-90406132D01*
X149773534Y-89868994D01*
X149360775Y-89373879D01*
X149117430Y-89131130D01*
X148563033Y-88677854D01*
X147950117Y-88305839D01*
X147286662Y-88019533D01*
X146914400Y-87903278D01*
X146482600Y-87785400D01*
X129921800Y-87785400D01*
X129718600Y-87895047D01*
G37*
X129718600Y-87895047D02*
X129432733Y-88101538D01*
X129222944Y-88361795D01*
X129092474Y-88659587D01*
X129044563Y-88978682D01*
X129082452Y-89302851D01*
X129209380Y-89615863D01*
X129337938Y-89801748D01*
X129490246Y-89958860D01*
X129662533Y-90073979D01*
X129873614Y-90153582D01*
X130142305Y-90204145D01*
X130487421Y-90232143D01*
X130602227Y-90236888D01*
X130877460Y-90248429D01*
X131073244Y-90263125D01*
X131211730Y-90284804D01*
X131315068Y-90317297D01*
X131405407Y-90364435D01*
X131430292Y-90380072D01*
X131657872Y-90582609D01*
X131811416Y-90837692D01*
X131889291Y-91126592D01*
X131889867Y-91430580D01*
X131811513Y-91730928D01*
X131652596Y-92008907D01*
X131579701Y-92095235D01*
X131512870Y-92167056D01*
X131451207Y-92226957D01*
X131385227Y-92276127D01*
X131305447Y-92315754D01*
X131202383Y-92347027D01*
X131066549Y-92371135D01*
X130888463Y-92389268D01*
X130658639Y-92402613D01*
X130367594Y-92412360D01*
X130005844Y-92419698D01*
X129563904Y-92425815D01*
X129032290Y-92431900D01*
X128880400Y-92433600D01*
X128336831Y-92439998D01*
X127885384Y-92446174D01*
X127516586Y-92452586D01*
X127220961Y-92459687D01*
X126989036Y-92467935D01*
X126811336Y-92477785D01*
X126678385Y-92489693D01*
X126580710Y-92504114D01*
X126508836Y-92521505D01*
X126453288Y-92542320D01*
X126434398Y-92551269D01*
X126149269Y-92742703D01*
X125938842Y-92985695D01*
X125804048Y-93264286D01*
X125745820Y-93562515D01*
X125765091Y-93864420D01*
X125862791Y-94154042D01*
X126039854Y-94415419D01*
X126297211Y-94632591D01*
X126312291Y-94642057D01*
X126560895Y-94795800D01*
X128874018Y-94810011D01*
X129441498Y-94813519D01*
X129915743Y-94817219D01*
X130305114Y-94822250D01*
X130617974Y-94829750D01*
X130862681Y-94840855D01*
X131047598Y-94856704D01*
X131181086Y-94878434D01*
X131271506Y-94907182D01*
X131327218Y-94944087D01*
X131356584Y-94990286D01*
X131367965Y-95046917D01*
X131369722Y-95115116D01*
X131369601Y-95149563D01*
X131359205Y-95290402D01*
X131317816Y-95389927D01*
X131230126Y-95456661D01*
X131080830Y-95499125D01*
X130854620Y-95525842D01*
X130671804Y-95538077D01*
X130269283Y-95581164D01*
X129949547Y-95663933D01*
X129699058Y-95793756D01*
X129504276Y-95978000D01*
X129351664Y-96224036D01*
X129331051Y-96267872D01*
X129250341Y-96558197D01*
X129253292Y-96862973D01*
X129330877Y-97162049D01*
X129474065Y-97435268D01*
X129673827Y-97662479D01*
X129921135Y-97823527D01*
X130048800Y-97869960D01*
X130124880Y-97876845D01*
X130300236Y-97883206D01*
X130572548Y-97889031D01*
X130939496Y-97894308D01*
X131398757Y-97899024D01*
X131948010Y-97903165D01*
X132584933Y-97906720D01*
X133307207Y-97909675D01*
X134112508Y-97912018D01*
X134998517Y-97913737D01*
X135962911Y-97914817D01*
X137003369Y-97915247D01*
X138117570Y-97915014D01*
X138253000Y-97914943D01*
X139355913Y-97914173D01*
X140361442Y-97913129D01*
X141273806Y-97911776D01*
X142097221Y-97910078D01*
X142835904Y-97907999D01*
X143494073Y-97905504D01*
X144075945Y-97902556D01*
X144585736Y-97899121D01*
X145027663Y-97895162D01*
X145405944Y-97890644D01*
X145724796Y-97885532D01*
X145988436Y-97879788D01*
X146201080Y-97873379D01*
X146366946Y-97866267D01*
X146490250Y-97858418D01*
X146575211Y-97849795D01*
X146609600Y-97844223D01*
X147291961Y-97657298D01*
X147937744Y-97380919D01*
X148537612Y-97021950D01*
X149082229Y-96587257D01*
X149562256Y-96083703D01*
X149968358Y-95518154D01*
X150111589Y-95269459D01*
X150324110Y-94844328D01*
X150481421Y-94452663D01*
X150590327Y-94066168D01*
X150657633Y-93656543D01*
X150690144Y-93195493D01*
X150695713Y-92848477D01*
X148111732Y-92848477D01*
X148079071Y-93284860D01*
X147988304Y-93666324D01*
X147778034Y-94132947D01*
X147488638Y-94550146D01*
X147131962Y-94906930D01*
X146719851Y-95192310D01*
X146264150Y-95395296D01*
X146061893Y-95453510D01*
X145994770Y-95465846D01*
X145897346Y-95476763D01*
X145763751Y-95486347D01*
X145588116Y-95494687D01*
X145364573Y-95501869D01*
X145087250Y-95507979D01*
X144750279Y-95513104D01*
X144347790Y-95517332D01*
X143873915Y-95520749D01*
X143322782Y-95523442D01*
X142688523Y-95525498D01*
X141965269Y-95527005D01*
X141147150Y-95528047D01*
X141018230Y-95528167D01*
X140054655Y-95528406D01*
X139192604Y-95527314D01*
X138432012Y-95524891D01*
X137772813Y-95521138D01*
X137214940Y-95516052D01*
X136758327Y-95509633D01*
X136402908Y-95501881D01*
X136148617Y-95492795D01*
X135995387Y-95482374D01*
X135963630Y-95478062D01*
X135512620Y-95346929D01*
X135087711Y-95127700D01*
X134702367Y-94833087D01*
X134370052Y-94475806D01*
X134104229Y-94068569D01*
X133918363Y-93624091D01*
X133888478Y-93518467D01*
X133824020Y-93128180D01*
X133814201Y-92703231D01*
X133859019Y-92294615D01*
X133888478Y-92161532D01*
X134054153Y-91710320D01*
X134302866Y-91293439D01*
X134621153Y-90923603D01*
X134995549Y-90613528D01*
X135412592Y-90375925D01*
X135858817Y-90223511D01*
X135963630Y-90201937D01*
X136078362Y-90191019D01*
X136294378Y-90181335D01*
X136611372Y-90172888D01*
X137029036Y-90165682D01*
X137547062Y-90159721D01*
X138165142Y-90155006D01*
X138882970Y-90151543D01*
X139700238Y-90149334D01*
X140616637Y-90148382D01*
X140992830Y-90148350D01*
X141821040Y-90148481D01*
X142554181Y-90148825D01*
X143198787Y-90149728D01*
X143761389Y-90151534D01*
X144248520Y-90154588D01*
X144666711Y-90159236D01*
X145022495Y-90165823D01*
X145322404Y-90174694D01*
X145572970Y-90186194D01*
X145780725Y-90200669D01*
X145952201Y-90218463D01*
X146093930Y-90239921D01*
X146212444Y-90265389D01*
X146314276Y-90295212D01*
X146405958Y-90329735D01*
X146494021Y-90369303D01*
X146584998Y-90414261D01*
X146650248Y-90447275D01*
X147049756Y-90702816D01*
X147407752Y-91038108D01*
X147708386Y-91434596D01*
X147935808Y-91873723D01*
X147988304Y-92013675D01*
X148081476Y-92411325D01*
X148111732Y-92848477D01*
X150695713Y-92848477D01*
X150695850Y-92840000D01*
X150692788Y-92477058D01*
X150682536Y-92194897D01*
X150663500Y-91972848D01*
X150634081Y-91790247D01*
X150605574Y-91671600D01*
X150386397Y-91001574D01*
X150112229Y-90406132D01*
X149773534Y-89868994D01*
X149360775Y-89373879D01*
X149117430Y-89131130D01*
X148563033Y-88677854D01*
X147950117Y-88305839D01*
X147286662Y-88019533D01*
X146914400Y-87903278D01*
X146482600Y-87785400D01*
X129921800Y-87785400D01*
X129718600Y-87895047D01*
G36*
X125831174Y-95686596D02*
G01*
X125525314Y-95691416D01*
X125290950Y-95703205D01*
X125113036Y-95724797D01*
X124976523Y-95759022D01*
X124866364Y-95808714D01*
X124767511Y-95876704D01*
X124664917Y-95965824D01*
X124646648Y-95982699D01*
X124454642Y-96209025D01*
X124346624Y-96463441D01*
X124314320Y-96767953D01*
X124317331Y-96858558D01*
X124337517Y-97069766D01*
X124378489Y-97223328D01*
X124454028Y-97362955D01*
X124494888Y-97421764D01*
X124659038Y-97598333D01*
X124860495Y-97746780D01*
X124898185Y-97767600D01*
X124986258Y-97810959D01*
X125070519Y-97843323D01*
X125167446Y-97866471D01*
X125293513Y-97882182D01*
X125465200Y-97892233D01*
X125698982Y-97898402D01*
X126011336Y-97902469D01*
X126160992Y-97903897D01*
X126487342Y-97904250D01*
X126789340Y-97899682D01*
X127048038Y-97890854D01*
X127244488Y-97878430D01*
X127359741Y-97863072D01*
X127364612Y-97861812D01*
X127572472Y-97765841D01*
X127784335Y-97605268D01*
X127966472Y-97409823D01*
X128073385Y-97237035D01*
X128157484Y-96937911D01*
X128153274Y-96630383D01*
X128068409Y-96335261D01*
X127910545Y-96073358D01*
X127687338Y-95865487D01*
X127537794Y-95780954D01*
X127457413Y-95749430D01*
X127363813Y-95725698D01*
X127241962Y-95708672D01*
X127076824Y-95697263D01*
X126853365Y-95690385D01*
X126556551Y-95686951D01*
X126223578Y-95685915D01*
X125831174Y-95686596D01*
G37*
X125831174Y-95686596D02*
X125525314Y-95691416D01*
X125290950Y-95703205D01*
X125113036Y-95724797D01*
X124976523Y-95759022D01*
X124866364Y-95808714D01*
X124767511Y-95876704D01*
X124664917Y-95965824D01*
X124646648Y-95982699D01*
X124454642Y-96209025D01*
X124346624Y-96463441D01*
X124314320Y-96767953D01*
X124317331Y-96858558D01*
X124337517Y-97069766D01*
X124378489Y-97223328D01*
X124454028Y-97362955D01*
X124494888Y-97421764D01*
X124659038Y-97598333D01*
X124860495Y-97746780D01*
X124898185Y-97767600D01*
X124986258Y-97810959D01*
X125070519Y-97843323D01*
X125167446Y-97866471D01*
X125293513Y-97882182D01*
X125465200Y-97892233D01*
X125698982Y-97898402D01*
X126011336Y-97902469D01*
X126160992Y-97903897D01*
X126487342Y-97904250D01*
X126789340Y-97899682D01*
X127048038Y-97890854D01*
X127244488Y-97878430D01*
X127359741Y-97863072D01*
X127364612Y-97861812D01*
X127572472Y-97765841D01*
X127784335Y-97605268D01*
X127966472Y-97409823D01*
X128073385Y-97237035D01*
X128157484Y-96937911D01*
X128153274Y-96630383D01*
X128068409Y-96335261D01*
X127910545Y-96073358D01*
X127687338Y-95865487D01*
X127537794Y-95780954D01*
X127457413Y-95749430D01*
X127363813Y-95725698D01*
X127241962Y-95708672D01*
X127076824Y-95697263D01*
X126853365Y-95690385D01*
X126556551Y-95686951D01*
X126223578Y-95685915D01*
X125831174Y-95686596D01*
G36*
X125352498Y-87915202D02*
G01*
X125012423Y-87917386D01*
X124748807Y-87921885D01*
X124549079Y-87929405D01*
X124400672Y-87940649D01*
X124291016Y-87956321D01*
X124207543Y-87977125D01*
X124137683Y-88003767D01*
X124130165Y-88007141D01*
X123866092Y-88177003D01*
X123672695Y-88403239D01*
X123550669Y-88668563D01*
X123500713Y-88955692D01*
X123523522Y-89247341D01*
X123619793Y-89526223D01*
X123790224Y-89775056D01*
X124035511Y-89976553D01*
X124050413Y-89985464D01*
X124283000Y-90122200D01*
X127178600Y-90152268D01*
X127457686Y-90010234D01*
X127737872Y-89822562D01*
X127929174Y-89587649D01*
X128035271Y-89300135D01*
X128057356Y-89137246D01*
X128048247Y-88807178D01*
X127963716Y-88529631D01*
X127796908Y-88282150D01*
X127795959Y-88281068D01*
X127704376Y-88181275D01*
X127615551Y-88101441D01*
X127517271Y-88039344D01*
X127397324Y-87992762D01*
X127243498Y-87959475D01*
X127043583Y-87937260D01*
X126785367Y-87923896D01*
X126456637Y-87917162D01*
X126045183Y-87914836D01*
X125781600Y-87914631D01*
X125352498Y-87915202D01*
G37*
X125352498Y-87915202D02*
X125012423Y-87917386D01*
X124748807Y-87921885D01*
X124549079Y-87929405D01*
X124400672Y-87940649D01*
X124291016Y-87956321D01*
X124207543Y-87977125D01*
X124137683Y-88003767D01*
X124130165Y-88007141D01*
X123866092Y-88177003D01*
X123672695Y-88403239D01*
X123550669Y-88668563D01*
X123500713Y-88955692D01*
X123523522Y-89247341D01*
X123619793Y-89526223D01*
X123790224Y-89775056D01*
X124035511Y-89976553D01*
X124050413Y-89985464D01*
X124283000Y-90122200D01*
X127178600Y-90152268D01*
X127457686Y-90010234D01*
X127737872Y-89822562D01*
X127929174Y-89587649D01*
X128035271Y-89300135D01*
X128057356Y-89137246D01*
X128048247Y-88807178D01*
X127963716Y-88529631D01*
X127796908Y-88282150D01*
X127795959Y-88281068D01*
X127704376Y-88181275D01*
X127615551Y-88101441D01*
X127517271Y-88039344D01*
X127397324Y-87992762D01*
X127243498Y-87959475D01*
X127043583Y-87937260D01*
X126785367Y-87923896D01*
X126456637Y-87917162D01*
X126045183Y-87914836D01*
X125781600Y-87914631D01*
X125352498Y-87915202D01*
G36*
X144480086Y-91859959D02*
G01*
X144198554Y-91974929D01*
X143963439Y-92180250D01*
X143892480Y-92272876D01*
X143807303Y-92409238D01*
X143760937Y-92534307D01*
X143742152Y-92689687D01*
X143739400Y-92840000D01*
X143745489Y-93041756D01*
X143771241Y-93183869D01*
X143827888Y-93307942D01*
X143892480Y-93407123D01*
X144097243Y-93622142D01*
X144354338Y-93771882D01*
X144639525Y-93849477D01*
X144928566Y-93848057D01*
X145177016Y-93771079D01*
X145351862Y-93650972D01*
X145519602Y-93479437D01*
X145653058Y-93289284D01*
X145725050Y-93113326D01*
X145726038Y-93108279D01*
X145746429Y-92770690D01*
X145681849Y-92467089D01*
X145540973Y-92209510D01*
X145332473Y-92009985D01*
X145065024Y-91880549D01*
X144808362Y-91835183D01*
X144480086Y-91859959D01*
G37*
X144480086Y-91859959D02*
X144198554Y-91974929D01*
X143963439Y-92180250D01*
X143892480Y-92272876D01*
X143807303Y-92409238D01*
X143760937Y-92534307D01*
X143742152Y-92689687D01*
X143739400Y-92840000D01*
X143745489Y-93041756D01*
X143771241Y-93183869D01*
X143827888Y-93307942D01*
X143892480Y-93407123D01*
X144097243Y-93622142D01*
X144354338Y-93771882D01*
X144639525Y-93849477D01*
X144928566Y-93848057D01*
X145177016Y-93771079D01*
X145351862Y-93650972D01*
X145519602Y-93479437D01*
X145653058Y-93289284D01*
X145725050Y-93113326D01*
X145726038Y-93108279D01*
X145746429Y-92770690D01*
X145681849Y-92467089D01*
X145540973Y-92209510D01*
X145332473Y-92009985D01*
X145065024Y-91880549D01*
X144808362Y-91835183D01*
X144480086Y-91859959D01*
G36*
X136964359Y-91859934D02*
G01*
X136681690Y-91977441D01*
X136443218Y-92186391D01*
X136373400Y-92276776D01*
X136288717Y-92410668D01*
X136242562Y-92534075D01*
X136223800Y-92688151D01*
X136221000Y-92840000D01*
X136227002Y-93041253D01*
X136252432Y-93182402D01*
X136308427Y-93304603D01*
X136373400Y-93403223D01*
X136581527Y-93620814D01*
X136840030Y-93771879D01*
X137125407Y-93849691D01*
X137414157Y-93847524D01*
X137658616Y-93771079D01*
X137833462Y-93650972D01*
X138001202Y-93479437D01*
X138134658Y-93289284D01*
X138206650Y-93113326D01*
X138207638Y-93108279D01*
X138228014Y-92770495D01*
X138163288Y-92466746D01*
X138022117Y-92209046D01*
X137813154Y-92009407D01*
X137545053Y-91879841D01*
X137289962Y-91834478D01*
X136964359Y-91859934D01*
G37*
X136964359Y-91859934D02*
X136681690Y-91977441D01*
X136443218Y-92186391D01*
X136373400Y-92276776D01*
X136288717Y-92410668D01*
X136242562Y-92534075D01*
X136223800Y-92688151D01*
X136221000Y-92840000D01*
X136227002Y-93041253D01*
X136252432Y-93182402D01*
X136308427Y-93304603D01*
X136373400Y-93403223D01*
X136581527Y-93620814D01*
X136840030Y-93771879D01*
X137125407Y-93849691D01*
X137414157Y-93847524D01*
X137658616Y-93771079D01*
X137833462Y-93650972D01*
X138001202Y-93479437D01*
X138134658Y-93289284D01*
X138206650Y-93113326D01*
X138207638Y-93108279D01*
X138228014Y-92770495D01*
X138163288Y-92466746D01*
X138022117Y-92209046D01*
X137813154Y-92009407D01*
X137545053Y-91879841D01*
X137289962Y-91834478D01*
X136964359Y-91859934D01*
%TD*%
M02*
