M48
; DRILL file {KiCad (5.1.8-0-10_14)} date Friday, August 20, 2021 at 01:18:49 PM
; FORMAT={3:3/ absolute / metric / suppress leading zeros}
; #@! TF.CreationDate,2021-08-20T13:18:49+08:00
; #@! TF.GenerationSoftware,Kicad,Pcbnew,(5.1.8-0-10_14)
FMAT,2
METRIC,TZ
T1C0.350
T2C0.400
T3C0.600
T4C1.000
T5C0.650
T6C0.900
%
G90
G05
T1
X158405Y-92565
X158405Y-93840
X158405Y-95115
X159680Y-92565
X159680Y-93840
X159680Y-95115
X160955Y-92565
X160955Y-93840
X160955Y-95115
T2
X117690Y-87450
X117690Y-91270
X117690Y-96500
X117690Y-100250
X118550Y-86250
X118560Y-92560
X118590Y-101520
X118600Y-95220
X124290Y-87940
X124600Y-94950
X125630Y-99590
X126050Y-91910
X126620Y-106900
X126730Y-104920
X126980Y-98880
X127795Y-94785
X127840Y-90580
X127890Y-88452
X128440Y-105910
X128600Y-95750
X128880Y-89880
X129330Y-91920
X129700Y-104440
X129790Y-106800
X130400Y-99000
X130450Y-94780
X130540Y-90760
X130560Y-87100
X130800Y-105760
X131520Y-88120
X131530Y-94320
X131780Y-99920
X132220Y-106830
X132650Y-94550
X132720Y-90300
X133750Y-95180
X134160Y-104480
X134840Y-94570
X135890Y-87680
X135890Y-86490
X135920Y-89860
X136610Y-99010
X137250Y-103980
X137520Y-89780
X137550Y-90810
X138540Y-104000
X138680Y-99000
X140130Y-86030
X140340Y-104880
X142440Y-89030
X143190Y-94390
X143680Y-107360
X144310Y-87970
X145670Y-98810
X145670Y-99650
X145840Y-86890
X146530Y-98800
X146540Y-99650
X146840Y-86889
X146990Y-104200
X147840Y-86900
X147840Y-87970
X148900Y-99980
X149440Y-104860
X149620Y-98780
X151190Y-91600
X151860Y-97880
X152180Y-107760
X152480Y-92350
X152530Y-96790
X153168Y-91330
X153540Y-102120
X154090Y-97320
X154640Y-100060
X155140Y-99170
X156530Y-87790
X156760Y-86313
X157472Y-91792
X157520Y-96140
X157760Y-86300
X158460Y-87060
X159080Y-91540
X159520Y-87060
X159900Y-98740
X160285Y-96065
X160435Y-87975
X160580Y-91540
X160610Y-100100
X161285Y-96046
X161802Y-91688
X161990Y-95160
X162020Y-92830
X162310Y-89240
X162409Y-101830
X162720Y-85970
X162740Y-99180
X163010Y-97250
X163270Y-89830
X163590Y-101380
X163738Y-99118
X163980Y-88930
X164324Y-90085
X164540Y-97660
X164737Y-99068
X164820Y-92520
X164937Y-101567
X165290Y-91330
X165400Y-90120
X165449Y-98341
X166490Y-99120
X166780Y-97080
X166830Y-92510
X167280Y-91050
X167390Y-86580
X167750Y-95590
X167870Y-97080
X169330Y-95520
X169350Y-93498
X169356Y-94498
X171000Y-102890
X171450Y-97660
X171780Y-100850
X172480Y-93850
X172490Y-92590
X172500Y-90090
X172510Y-87840
X172520Y-88960
X172530Y-91300
X175540Y-99370
X176950Y-99370
T4
X124540Y-81090
X124540Y-83630
X127080Y-81090
X127080Y-83630
X129620Y-81090
X129620Y-83630
X132160Y-81090
X132160Y-83630
X134700Y-81090
X134700Y-83630
X137240Y-81090
X137240Y-83630
X139780Y-81090
X139780Y-83630
X142320Y-81090
X142320Y-83630
X144860Y-81090
X144860Y-83630
X147400Y-81090
X147400Y-83630
X149940Y-81090
X149940Y-83630
X152480Y-81090
X152480Y-83630
X155020Y-81090
X155020Y-83630
X157560Y-81090
X157560Y-83630
X160100Y-81090
X160100Y-83630
X162640Y-81090
X162640Y-83630
X165180Y-81090
X165180Y-83630
X167720Y-81090
X167720Y-83630
X170260Y-81090
X170260Y-83630
X172800Y-81090
X172800Y-83630
T5
X156040Y-103620
X161820Y-103620
T6
X127635Y-103720
X135635Y-103720
T3
G00X154610Y-102540
M15
G01X154610Y-103640
M16
G05
G00X154610Y-106970
M15
G01X154610Y-107570
M16
G05
G00X163250Y-102540
M15
G01X163250Y-103640
M16
G05
G00X163250Y-106970
M15
G01X163250Y-107570
M16
G05
T0
M30
